<svg xmlns="http://www.w3.org/2000/svg" viewBox="0 0 9.770 30.551" width="9.770" height="30.551">
<g fill="black" stroke="none">
<path d="M 4.414 1.183 C 4.340 1.584 3.957 1.852 3.555 1.781 C 3.150 1.707 2.882 1.324 2.957 0.919 L 3.079 0.457 L 3.485 0.000 L 4.340 0.093 C 4.771 0.446 4.675 0.658 4.712 0.896 L 4.719 2.666 L 4.102 5.842 L 3.009 10.580 L 2.187 15.021 L 1.703 19.223 L 1.480 26.452 L 1.480 28.803 L 1.506 29.402 L 1.476 29.331 L 1.268 29.119 L 1.116 29.071 L 3.116 28.420 L 5.206 27.315 L 8.520 25.623 C 8.814 25.344 9.286 25.355 9.565 25.653 C 9.848 25.947 9.836 26.419 9.539 26.698 L 8.156 27.494 L 5.920 28.617 L 3.723 29.770 C 2.774 30.194 1.908 30.584 1.060 30.551 C 0.658 30.536 0.141 30.086 0.060 29.729 L 0.000 28.862 L 0.000 26.467 L 0.227 19.096 L 0.725 14.790 L 1.558 10.268 L 2.655 5.519 L 3.243 2.518 L 3.250 1.119 L 3.228 1.015 L 3.265 1.090 L 3.410 1.250 L 3.771 1.391 L 4.154 1.324 L 4.336 1.190 L 4.437 1.052 L 4.414 1.183 Z"/>
</g>
</svg>
