<svg xmlns="http://www.w3.org/2000/svg" viewBox="0 0 2.648 8.224" width="2.648" height="8.224">
<g fill="black" stroke="none">
<path d="M 1.187 0.318 C 1.167 0.426 1.064 0.498 0.956 0.479 C 0.847 0.459 0.775 0.356 0.795 0.247 L 0.828 0.123 L 0.937 0.000 L 1.167 0.025 C 1.283 0.120 1.257 0.177 1.267 0.241 L 1.269 0.717 L 1.103 1.571 L 0.809 2.845 L 0.588 4.039 L 0.458 5.169 L 0.398 7.113 L 0.398 7.745 L 0.405 7.906 L 0.397 7.887 L 0.341 7.830 L 0.300 7.817 L 0.838 7.642 L 1.400 7.345 L 2.291 6.890 C 2.370 6.815 2.497 6.818 2.572 6.898 C 2.648 6.977 2.645 7.104 2.565 7.179 L 2.193 7.393 L 1.592 7.695 L 1.001 8.005 C 0.746 8.119 0.513 8.224 0.285 8.215 C 0.177 8.211 0.038 8.090 0.016 7.994 L 0.000 7.761 L 0.000 7.117 L 0.061 5.135 L 0.195 3.977 L 0.419 2.761 L 0.714 1.484 L 0.872 0.677 L 0.874 0.301 L 0.868 0.273 L 0.878 0.293 L 0.917 0.336 L 1.014 0.374 L 1.117 0.356 L 1.166 0.320 L 1.193 0.283 L 1.187 0.318 Z"/>
</g>
</svg>
