<svg xmlns="http://www.w3.org/2000/svg" viewBox="0 0 3.898 12.189" width="3.898" height="12.189">
<g fill="black" stroke="none">
<path d="M 1.761 0.472 C 1.732 0.632 1.579 0.739 1.418 0.711 C 1.257 0.681 1.150 0.528 1.180 0.366 L 1.229 0.183 L 1.390 0.000 L 1.732 0.037 C 1.904 0.178 1.865 0.263 1.880 0.358 L 1.883 1.064 L 1.637 2.331 L 1.200 4.221 L 0.872 5.993 L 0.680 7.670 L 0.591 10.554 L 0.591 11.492 L 0.601 11.731 L 0.589 11.702 L 0.506 11.618 L 0.445 11.599 L 1.243 11.339 L 2.077 10.898 L 3.399 10.223 C 3.517 10.112 3.705 10.116 3.816 10.235 C 3.929 10.352 3.925 10.541 3.806 10.652 L 3.254 10.969 L 2.362 11.418 L 1.485 11.878 C 1.107 12.047 0.761 12.203 0.423 12.189 C 0.263 12.183 0.056 12.004 0.024 11.861 L 0.000 11.516 L 0.000 10.560 L 0.091 7.619 L 0.289 5.901 L 0.622 4.097 L 1.059 2.202 L 1.294 1.005 L 1.297 0.447 L 1.288 0.405 L 1.303 0.435 L 1.361 0.499 L 1.505 0.555 L 1.657 0.528 L 1.730 0.475 L 1.770 0.420 L 1.761 0.472 Z"/>
</g>
</svg>
