<svg xmlns="http://www.w3.org/2000/svg" viewBox="0 0 10.641 30.533" width="10.641" height="30.533">
<g fill="black" stroke="none">
<path d="M 3.439 0.146 C 3.591 -0.030 3.858 -0.051 4.033 0.101 C 4.210 0.251 4.232 0.517 4.079 0.693 C 3.543 1.322 3.010 1.717 2.713 2.719 L 2.510 4.863 L 2.510 11.461 L 2.366 20.051 C 2.220 22.835 1.688 25.326 1.344 27.217 L 0.839 29.929 L 0.811 29.843 L 0.644 29.709 L 0.592 29.701 L 2.026 28.955 C 3.251 28.243 4.895 27.806 6.469 27.459 L 10.117 26.733 C 10.343 26.676 10.571 26.813 10.629 27.037 C 10.686 27.263 10.550 27.491 10.324 27.548 L 6.648 28.283 C 5.110 28.619 3.528 29.057 2.446 29.684 L 1.101 30.417 L 0.471 30.533 C 0.190 30.481 -0.017 30.113 0.000 29.870 L 0.515 27.067 C 0.864 25.159 1.384 22.715 1.525 20.006 L 1.669 11.463 L 1.669 4.842 C 1.694 3.828 1.724 3.082 1.906 2.478 C 2.265 1.270 2.968 0.699 3.439 0.146 Z"/>
</g>
</svg>
