<svg xmlns="http://www.w3.org/2000/svg" viewBox="0 0 3.970 5.830" width="3.970" height="5.830">
<g fill="black" stroke="none">
<path d="M 0.194 0.449 C 0.079 0.440 -0.009 0.340 0.000 0.225 C 0.007 0.110 0.109 0.022 0.224 0.029 L 1.526 0.047 C 2.196 0.045 3.040 -0.121 3.608 0.180 C 3.828 0.299 3.989 0.555 3.968 0.849 C 3.937 1.301 3.613 1.778 3.245 2.306 L 2.424 3.299 C 1.767 4.062 1.192 4.633 0.987 5.027 C 0.904 5.184 0.959 5.297 1.017 5.338 C 1.146 5.432 1.618 5.395 2.111 5.238 L 3.346 4.696 C 3.446 4.635 3.575 4.667 3.634 4.766 C 3.694 4.864 3.664 4.993 3.565 5.053 C 3.274 5.229 2.775 5.465 2.238 5.636 C 1.706 5.808 1.150 5.949 0.772 5.678 C 0.540 5.510 0.449 5.151 0.617 4.831 C 0.877 4.333 1.457 3.777 2.107 3.026 L 2.902 2.065 C 3.261 1.553 3.533 1.088 3.551 0.821 C 3.561 0.662 3.519 0.608 3.411 0.550 C 3.063 0.365 2.235 0.463 1.527 0.466 L 0.194 0.449 Z"/>
</g>
</svg>
