<svg xmlns="http://www.w3.org/2000/svg" viewBox="0 0 5.399 7.930" width="5.399" height="7.930">
<g fill="black" stroke="none">
<path d="M 0.265 0.610 C 0.107 0.599 -0.011 0.463 0.000 0.306 C 0.010 0.150 0.147 0.031 0.303 0.041 L 2.074 0.064 C 2.988 0.061 4.135 -0.165 4.907 0.246 C 5.207 0.406 5.425 0.756 5.397 1.155 C 5.355 1.771 4.916 2.420 4.414 3.137 L 3.296 4.488 C 2.402 5.524 1.621 6.303 1.342 6.836 C 1.229 7.051 1.305 7.205 1.382 7.261 C 1.560 7.388 2.201 7.340 2.872 7.125 L 4.551 6.388 C 4.686 6.305 4.861 6.348 4.943 6.482 C 5.024 6.616 4.983 6.792 4.849 6.874 C 4.453 7.114 3.774 7.434 3.045 7.667 C 2.319 7.900 1.564 8.093 1.049 7.723 C 0.735 7.495 0.611 7.005 0.838 6.572 C 1.194 5.893 1.983 5.138 2.866 4.116 L 3.947 2.810 C 4.435 2.114 4.804 1.481 4.829 1.116 C 4.843 0.900 4.787 0.827 4.640 0.749 C 4.167 0.497 3.040 0.630 2.077 0.634 L 0.265 0.610 Z"/>
</g>
</svg>
