<svg xmlns="http://www.w3.org/2000/svg" viewBox="0 0 17.901 20.697" width="17.901" height="20.697">
<g fill="black" stroke="none">
<path d="M 0.794 2.325 C 0.583 2.494 0.276 2.459 0.107 2.249 C -0.062 2.037 -0.027 1.731 0.183 1.562 C 2.122 0.010 4.543 -0.060 6.825 0.023 C 8.874 0.098 11.096 0.334 13.209 0.704 L 15.736 1.233 C 16.206 1.410 16.652 1.604 16.966 1.976 C 17.287 2.356 17.343 2.959 17.103 3.491 C 16.648 4.488 15.486 5.114 14.535 5.937 C 11.222 8.779 7.134 13.017 4.210 16.092 C 3.296 17.055 2.595 17.779 2.260 18.364 C 1.875 19.023 2.001 19.413 2.401 19.624 C 2.636 19.749 3.431 19.631 4.240 19.570 C 6.394 19.399 8.871 18.833 11.248 18.217 L 17.312 16.629 C 17.574 16.573 17.833 16.742 17.890 17.004 C 17.949 17.269 17.780 17.529 17.517 17.584 L 11.493 19.163 C 9.092 19.783 6.575 20.361 4.316 20.542 C 3.595 20.597 2.715 20.891 1.946 20.489 C 1.080 20.030 0.845 18.852 1.413 17.876 C 1.848 17.122 2.588 16.382 3.502 15.421 C 6.432 12.335 10.525 8.088 13.897 5.197 C 14.915 4.319 15.971 3.615 16.213 3.089 C 16.346 2.792 16.314 2.716 16.219 2.606 L 15.394 2.147 L 13.040 1.665 C 10.974 1.302 8.788 1.072 6.788 0.998 C 4.563 0.917 2.441 1.006 0.794 2.325 Z"/>
</g>
</svg>
