<svg xmlns="http://www.w3.org/2000/svg" viewBox="0 0 13.532 19.875" width="13.532" height="19.875">
<g fill="black" stroke="none">
<path d="M 0.663 1.529 C 0.269 1.501 -0.028 1.160 0.001 0.766 C 0.026 0.376 0.370 0.078 0.760 0.103 L 5.199 0.161 C 7.488 0.154 10.365 -0.412 12.299 0.616 C 13.052 1.017 13.596 1.895 13.528 2.894 C 13.421 4.438 12.321 6.065 11.063 7.863 L 8.262 11.249 C 6.019 13.846 4.063 15.798 3.364 17.135 C 3.081 17.672 3.271 18.059 3.465 18.199 C 3.909 18.517 5.518 18.396 7.198 17.858 L 11.407 16.010 C 11.744 15.802 12.185 15.909 12.389 16.246 C 12.593 16.583 12.489 17.024 12.152 17.228 C 11.160 17.830 9.458 18.632 7.631 19.216 C 5.811 19.800 3.920 20.284 2.630 19.356 C 1.842 18.786 1.530 17.557 2.100 16.472 C 2.992 14.770 4.969 12.879 7.183 10.317 L 9.892 7.043 C 11.117 5.298 12.041 3.711 12.102 2.797 C 12.138 2.257 11.998 2.074 11.629 1.877 C 10.443 1.246 7.620 1.579 5.206 1.590 L 0.663 1.529 Z"/>
</g>
</svg>
