<svg xmlns="http://www.w3.org/2000/svg" viewBox="0 0 20.774 30.989" width="20.774" height="30.989">
<g fill="black" stroke="none">
<path d="M 1.259 1.021 C 1.447 1.119 1.520 1.353 1.420 1.541 C 1.319 1.729 1.087 1.800 0.900 1.701 L 0.287 1.301 L 0.002 0.822 C -0.019 0.621 0.099 0.420 0.227 0.321 C 0.639 0.000 1.228 0.014 2.029 0.000 L 5.026 0.112 L 13.659 0.777 L 17.576 0.775 C 19.040 0.841 20.370 1.137 20.718 2.167 C 20.915 2.782 20.577 3.399 20.176 4.080 L 18.694 6.469 C 16.484 10.280 14.463 15.818 13.139 20.880 C 12.495 23.345 12.048 25.605 11.903 27.382 L 11.926 29.461 C 12.008 29.946 12.170 30.203 12.284 30.263 C 12.472 30.360 12.547 30.594 12.448 30.781 C 12.350 30.971 12.118 31.044 11.928 30.945 C 11.018 30.474 10.992 29.058 11.136 27.318 C 11.248 25.944 11.532 24.314 11.940 22.533 C 13.210 16.986 15.467 10.499 18.026 6.085 L 19.511 3.689 C 19.885 3.055 20.037 2.568 19.987 2.407 C 19.910 2.179 19.680 1.978 19.270 1.827 L 17.543 1.545 L 13.620 1.545 L 4.973 0.882 C 3.320 0.768 1.892 0.717 1.089 0.831 L 0.722 0.918 L 0.700 0.928 L 0.739 0.882 L 0.760 0.700 L 1.259 1.021 Z"/>
</g>
</svg>
