<svg xmlns="http://www.w3.org/2000/svg" viewBox="0 0 3.321 6.616" width="3.321" height="6.616">
<g fill="black" stroke="none">
<path d="M 0.082 0.305 C 0.088 0.195 0.182 0.111 0.292 0.118 C 0.402 0.124 0.486 0.218 0.480 0.328 L 0.421 0.681 L 0.363 0.792 C 0.344 0.815 0.324 0.871 0.200 0.870 L 0.025 0.764 L 0.000 0.664 L 0.064 0.505 L 0.289 0.296 C 0.629 0.012 1.203 0.078 1.737 0.052 C 2.160 0.031 2.583 0.000 2.912 0.112 C 2.994 0.140 3.167 0.176 3.246 0.351 C 3.320 0.514 3.321 0.713 3.279 0.952 C 3.211 1.338 2.999 1.776 2.781 2.280 L 1.848 4.417 L 1.519 5.208 L 1.301 5.690 C 1.132 5.965 1.127 6.242 1.128 6.244 L 1.106 6.217 L 1.056 6.193 L 1.016 6.191 L 1.243 5.873 C 1.296 5.777 1.417 5.742 1.513 5.795 C 1.610 5.849 1.645 5.970 1.591 6.066 L 1.230 6.522 C 1.132 6.588 0.963 6.616 0.852 6.525 C 0.696 6.395 0.711 6.220 0.738 6.050 L 0.962 5.481 L 1.483 4.257 L 2.416 2.122 C 2.635 1.615 2.834 1.183 2.887 0.883 L 2.883 0.515 L 2.891 0.526 L 2.783 0.489 C 2.578 0.419 2.174 0.429 1.757 0.449 C 1.213 0.477 0.651 0.512 0.544 0.602 L 0.406 0.722 L 0.373 0.756 L 0.389 0.723 L 0.398 0.667 L 0.395 0.632 L 0.376 0.577 L 0.318 0.509 L 0.223 0.473 L 0.146 0.480 L 0.078 0.516 L 0.046 0.551 L 0.056 0.512 L 0.082 0.305 Z"/>
</g>
</svg>
