<svg xmlns="http://www.w3.org/2000/svg" viewBox="0 0 6.191 12.264" width="6.191" height="12.264">
<g fill="black" stroke="none">
<path d="M 0.154 0.512 C 0.165 0.306 0.341 0.149 0.547 0.162 C 0.753 0.173 0.910 0.349 0.899 0.555 L 0.788 1.216 L 0.680 1.424 C 0.644 1.467 0.607 1.571 0.374 1.570 L 0.047 1.371 L 0.000 1.184 L 0.120 0.886 L 0.541 0.495 C 1.178 -0.037 2.252 0.087 3.252 0.038 C 4.044 -0.001 4.836 -0.059 5.452 0.151 C 5.605 0.203 5.929 0.270 6.077 0.598 C 6.215 0.903 6.217 1.276 6.139 1.723 C 6.011 2.446 5.615 3.266 5.206 4.209 L 3.460 8.210 L 2.844 9.691 L 2.436 10.593 C 2.119 11.108 2.110 11.627 2.112 11.630 L 2.071 11.580 L 1.977 11.535 L 1.902 11.531 L 2.327 10.936 C 2.426 10.756 2.653 10.691 2.833 10.790 C 3.014 10.891 3.080 11.117 2.979 11.297 L 2.303 12.151 C 2.119 12.274 1.803 12.327 1.595 12.156 C 1.303 11.913 1.331 11.585 1.382 11.267 L 1.801 10.202 L 2.776 7.910 L 4.523 3.913 C 4.933 2.964 5.306 2.156 5.405 1.594 L 5.397 0.905 L 5.412 0.926 L 5.210 0.856 C 4.826 0.725 4.070 0.744 3.289 0.781 C 2.271 0.834 1.219 0.899 1.018 1.068 L 0.760 1.292 L 0.698 1.356 L 0.728 1.294 L 0.745 1.190 L 0.739 1.124 L 0.704 1.021 L 0.595 0.894 L 0.417 0.826 L 0.273 0.839 L 0.146 0.907 L 0.086 0.972 L 0.105 0.899 L 0.154 0.512 Z"/>
</g>
</svg>
