<svg xmlns="http://www.w3.org/2000/svg" viewBox="0 0 15.517 30.739" width="15.517" height="30.739">
<g fill="black" stroke="none">
<path d="M 0.385 1.283 C 0.413 0.767 0.854 0.373 1.370 0.405 C 1.886 0.434 2.280 0.875 2.252 1.391 L 1.975 3.047 L 1.703 3.568 C 1.614 3.676 1.520 3.939 0.938 3.934 L 0.117 3.437 L 0.000 2.967 L 0.300 2.221 L 1.356 1.241 C 2.951 -0.092 5.645 0.218 8.150 0.096 C 10.135 -0.003 12.120 -0.148 13.664 0.377 C 14.049 0.509 14.860 0.678 15.231 1.499 C 15.578 2.264 15.583 3.197 15.386 4.319 C 15.067 6.130 14.072 8.185 13.049 10.550 L 8.671 20.577 L 7.128 24.289 L 6.105 26.551 C 5.312 27.841 5.288 29.141 5.293 29.150 L 5.190 29.024 L 4.955 28.911 L 4.767 28.902 L 5.832 27.409 C 6.081 26.959 6.649 26.795 7.099 27.043 C 7.555 27.297 7.719 27.865 7.465 28.315 L 5.771 30.455 C 5.312 30.764 4.519 30.896 3.998 30.469 C 3.266 29.859 3.336 29.038 3.463 28.240 L 4.514 25.570 L 6.959 19.827 L 11.337 9.809 C 12.364 7.430 13.298 5.403 13.547 3.995 L 13.528 2.268 L 13.565 2.320 L 13.059 2.146 C 12.097 1.818 10.201 1.865 8.244 1.959 C 5.692 2.090 3.055 2.254 2.553 2.676 L 1.905 3.239 L 1.750 3.399 L 1.825 3.244 L 1.868 2.981 L 1.853 2.817 L 1.764 2.559 L 1.492 2.240 L 1.046 2.071 L 0.685 2.104 L 0.366 2.273 L 0.216 2.437 L 0.263 2.254 L 0.385 1.283 Z"/>
</g>
</svg>
