<svg xmlns="http://www.w3.org/2000/svg" viewBox="0 0 3.440 8.436" width="3.440" height="8.436">
<g fill="black" stroke="none">
<path d="M 0.774 1.279 C 0.864 1.341 0.888 1.465 0.826 1.556 C 0.763 1.647 0.639 1.670 0.549 1.608 L 0.529 1.594 L 0.563 1.596 L 0.648 1.561 L 0.669 1.534 L 0.648 1.658 L 0.607 2.781 L 0.629 5.377 L 0.659 5.729 L 0.750 7.754 L 0.747 8.149 L 0.731 8.246 L 0.640 8.380 C 0.559 8.436 0.419 8.397 0.377 8.357 C 0.266 8.250 0.288 8.192 0.266 8.096 L 0.203 7.716 C 0.188 7.607 0.265 7.507 0.374 7.492 C 0.483 7.478 0.583 7.554 0.597 7.664 L 0.655 8.008 L 0.682 8.107 L 0.676 8.096 L 0.649 8.065 L 0.569 8.023 L 0.505 8.019 L 0.402 8.061 L 0.363 8.105 L 0.347 8.139 L 0.352 7.767 L 0.262 5.763 L 0.231 5.389 L 0.209 2.780 L 0.251 1.615 C 0.266 1.480 0.264 1.364 0.387 1.260 L 0.623 1.206 L 0.774 1.279 Z"/>
<path d="M 0.336 1.257 C 0.244 1.317 0.121 1.292 0.060 1.200 C 0.000 1.107 0.026 0.984 0.118 0.924 L 0.922 0.302 L 1.399 0.070 L 2.014 0.000 C 2.301 0.024 2.589 0.150 2.830 0.365 C 3.097 0.603 3.262 0.949 3.364 1.298 L 3.440 1.959 C 3.427 2.264 3.324 2.557 3.170 2.813 L 2.692 3.339 C 2.359 3.611 1.975 3.724 1.650 3.768 C 1.190 3.831 0.786 3.765 0.592 3.494 C 0.528 3.404 0.549 3.280 0.639 3.216 C 0.728 3.152 0.853 3.173 0.917 3.262 C 0.955 3.315 1.223 3.424 1.596 3.373 C 1.872 3.336 2.181 3.242 2.439 3.031 L 2.829 2.607 C 2.954 2.400 3.032 2.170 3.042 1.940 L 2.982 1.410 C 2.893 1.109 2.749 0.827 2.565 0.662 C 2.385 0.502 2.176 0.414 1.980 0.397 L 1.523 0.449 L 1.131 0.641 L 0.336 1.257 Z"/>
</g>
</svg>
