<svg xmlns="http://www.w3.org/2000/svg" viewBox="0 0 4.935 12.162" width="4.935" height="12.162">
<g fill="black" stroke="none">
<path d="M 1.079 1.850 C 1.209 1.940 1.244 2.119 1.154 2.251 C 1.063 2.382 0.884 2.416 0.754 2.326 L 0.725 2.306 L 0.774 2.309 L 0.897 2.258 L 0.927 2.219 L 0.897 2.398 L 0.838 4.023 L 0.869 7.778 L 0.913 8.287 L 1.044 11.216 L 1.040 11.787 L 1.017 11.928 L 0.885 12.122 C 0.768 12.203 0.566 12.146 0.505 12.088 C 0.344 11.933 0.376 11.850 0.344 11.711 L 0.253 11.161 C 0.232 11.003 0.343 10.859 0.501 10.837 C 0.658 10.817 0.803 10.927 0.823 11.086 L 0.907 11.583 L 0.946 11.727 L 0.937 11.711 L 0.898 11.666 L 0.783 11.605 L 0.690 11.599 L 0.541 11.660 L 0.485 11.724 L 0.462 11.773 L 0.469 11.235 L 0.339 8.336 L 0.294 7.795 L 0.262 4.021 L 0.323 2.336 C 0.344 2.141 0.341 1.973 0.519 1.823 L 0.861 1.744 L 1.079 1.850 Z"/>
<path d="M 0.446 1.818 C 0.313 1.905 0.135 1.869 0.046 1.736 C -0.040 1.601 -0.003 1.423 0.130 1.337 L 1.293 0.437 L 1.983 0.101 L 2.873 0.000 C 3.288 0.035 3.705 0.217 4.053 0.528 C 4.439 0.872 4.678 1.373 4.826 1.878 L 4.935 2.834 C 4.917 3.275 4.768 3.699 4.545 4.069 L 3.854 4.830 C 3.372 5.223 2.816 5.387 2.346 5.450 C 1.681 5.541 1.097 5.446 0.816 5.054 C 0.723 4.924 0.754 4.744 0.884 4.652 C 1.013 4.559 1.193 4.590 1.286 4.718 C 1.341 4.795 1.729 4.953 2.268 4.879 C 2.667 4.825 3.114 4.689 3.488 4.384 L 4.052 3.771 C 4.233 3.472 4.345 3.139 4.360 2.806 L 4.273 2.040 C 4.144 1.604 3.936 1.196 3.670 0.958 C 3.409 0.726 3.107 0.599 2.824 0.574 L 2.163 0.649 L 1.596 0.927 L 0.446 1.818 Z"/>
</g>
</svg>
