<svg xmlns="http://www.w3.org/2000/svg" viewBox="0 0 12.370 30.482" width="12.370" height="30.482">
<g fill="black" stroke="none">
<path d="M 2.705 4.637 C 3.031 4.862 3.118 5.311 2.893 5.641 C 2.665 5.971 2.215 6.054 1.889 5.830 L 1.817 5.779 L 1.940 5.786 L 2.248 5.659 L 2.324 5.561 L 2.248 6.011 L 2.099 10.082 L 2.179 19.494 L 2.288 20.770 L 2.618 28.112 L 2.607 29.544 L 2.549 29.895 L 2.219 30.381 C 1.925 30.584 1.418 30.443 1.266 30.298 C 0.863 29.910 0.943 29.700 0.863 29.351 L 0.635 27.974 C 0.580 27.579 0.859 27.216 1.255 27.162 C 1.650 27.111 2.012 27.387 2.063 27.785 L 2.273 29.032 L 2.371 29.391 L 2.350 29.351 L 2.252 29.239 L 1.962 29.087 L 1.730 29.072 L 1.356 29.225 L 1.215 29.384 L 1.157 29.507 L 1.175 28.159 L 0.849 20.893 L 0.736 19.537 L 0.656 10.079 L 0.809 5.855 C 0.863 5.366 0.856 4.945 1.302 4.568 L 2.157 4.372 L 2.705 4.637 Z"/>
<path d="M 1.117 4.557 C 0.783 4.775 0.337 4.684 0.116 4.351 C -0.101 4.013 -0.007 3.567 0.327 3.350 L 3.241 1.095 L 4.971 0.254 L 7.200 0.000 C 8.241 0.087 9.285 0.544 10.159 1.323 C 11.127 2.186 11.725 3.441 12.095 4.706 L 12.370 7.102 C 12.323 8.208 11.950 9.270 11.391 10.198 L 9.658 12.105 C 8.451 13.091 7.059 13.501 5.881 13.661 C 4.213 13.889 2.748 13.650 2.045 12.667 C 1.813 12.341 1.889 11.891 2.215 11.659 C 2.538 11.427 2.991 11.503 3.223 11.826 C 3.361 12.018 4.333 12.413 5.685 12.229 C 6.686 12.094 7.806 11.754 8.741 10.989 L 10.155 9.452 C 10.608 8.701 10.891 7.867 10.927 7.033 L 10.710 5.112 C 10.387 4.021 9.865 2.998 9.198 2.400 C 8.545 1.820 7.788 1.501 7.077 1.439 L 5.420 1.628 L 3.999 2.324 L 1.117 4.557 Z"/>
</g>
</svg>
