<svg xmlns="http://www.w3.org/2000/svg" viewBox="0 0 0.984 7.957" width="0.984" height="7.957">
<g fill="black" stroke="none">
<path d="M 0.284 4.161 C 0.274 4.051 0.355 3.954 0.464 3.945 C 0.574 3.935 0.671 4.016 0.680 4.125 L 0.736 4.826 L 0.798 5.955 L 0.816 7.059 L 0.816 7.511 L 0.816 7.706 L 0.816 7.721 L 0.806 7.682 L 0.783 7.641 L 0.690 7.574 L 0.590 7.570 L 0.515 7.609 L 0.497 7.628 L 0.578 7.453 C 0.626 7.354 0.746 7.313 0.845 7.361 C 0.943 7.409 0.984 7.529 0.936 7.628 L 0.867 7.778 C 0.844 7.827 0.855 7.917 0.682 7.957 L 0.497 7.914 L 0.418 7.751 L 0.418 7.537 L 0.418 7.062 L 0.399 5.971 L 0.338 4.853 L 0.284 4.161 Z"/>
<path d="M 0.273 0.385 C 0.167 0.413 0.057 0.351 0.029 0.244 C 0.000 0.138 0.063 0.029 0.169 0.000 L 0.389 0.041 L 0.629 0.253 C 0.719 0.316 0.741 0.440 0.678 0.530 C 0.614 0.620 0.490 0.642 0.400 0.579 L 0.220 0.415 L 0.176 0.378 L 0.194 0.385 L 0.273 0.385 Z"/>
</g>
</svg>
