<svg xmlns="http://www.w3.org/2000/svg" viewBox="0 0 1.497 12.753" width="1.497" height="12.753">
<g fill="black" stroke="none">
<path d="M 0.420 6.669 C 0.404 6.493 0.534 6.337 0.709 6.323 C 0.885 6.307 1.040 6.437 1.055 6.611 L 1.144 7.735 L 1.244 9.544 L 1.273 11.314 L 1.273 12.038 L 1.273 12.351 L 1.273 12.375 L 1.257 12.312 L 1.220 12.247 L 1.071 12.139 L 0.910 12.133 L 0.790 12.195 L 0.761 12.226 L 0.891 11.945 C 0.968 11.787 1.160 11.721 1.319 11.798 C 1.476 11.875 1.542 12.067 1.465 12.226 L 1.354 12.466 C 1.318 12.545 1.335 12.689 1.058 12.753 L 0.761 12.684 L 0.635 12.423 L 0.635 12.080 L 0.635 11.319 L 0.604 9.570 L 0.507 7.778 L 0.420 6.669 Z"/>
<path d="M 0.402 0.617 C 0.232 0.662 0.056 0.563 0.011 0.391 C -0.035 0.221 0.066 0.046 0.236 0.000 L 0.588 0.066 L 0.973 0.405 C 1.117 0.506 1.152 0.705 1.051 0.849 C 0.949 0.994 0.750 1.029 0.606 0.928 L 0.317 0.665 L 0.247 0.606 L 0.276 0.617 L 0.402 0.617 Z"/>
</g>
</svg>
