<svg xmlns="http://www.w3.org/2000/svg" viewBox="0 0 4.755 31.899" width="4.755" height="31.899">
<g fill="black" stroke="none">
<path d="M 1.024 15.258 C 0.770 15.361 0.481 15.239 0.379 14.984 C 0.274 14.730 0.396 14.442 0.650 14.337 L 0.459 14.481 L 0.399 14.579 L 0.376 14.646 L 0.259 12.708 L 0.120 11.421 L 0.063 11.032 L 0.050 10.977 L 0.082 11.042 L 0.162 11.142 L 0.262 11.212 L 0.426 11.266 C 0.155 11.229 -0.035 10.977 0.005 10.706 C 0.043 10.437 0.289 10.248 0.558 10.283 C 0.837 10.320 0.917 10.499 0.949 10.569 L 1.014 11.095 L 0.991 13.595 L 1.079 23.930 L 1.121 28.726 L 1.161 31.386 C 1.173 31.660 0.957 31.889 0.685 31.899 C 0.411 31.909 0.180 31.695 0.170 31.421 L 0.130 28.736 L 0.000 13.605 L 0.015 11.725 L 0.020 11.052 L 0.018 10.885 L 0.053 10.992 L 0.137 11.117 C 0.082 11.060 0.571 11.286 0.434 11.266 L 0.566 10.285 L 0.934 10.532 L 1.113 11.366 L 1.245 12.609 L 1.363 14.073 L 1.372 14.608 L 1.353 14.828 C 1.338 14.910 1.405 15.104 1.024 15.258 Z"/>
<path d="M 4.057 5.865 C 4.122 6.131 3.960 6.398 3.691 6.462 C 3.427 6.527 3.158 6.363 3.093 6.096 C 2.889 5.250 2.214 3.887 1.988 2.577 C 1.878 1.932 1.868 1.260 2.247 0.727 C 2.630 0.182 3.380 -0.055 4.296 0.010 C 4.568 0.027 4.774 0.266 4.754 0.538 C 4.737 0.812 4.500 1.019 4.226 0.999 C 2.872 0.904 2.792 1.402 2.966 2.411 C 3.158 3.516 3.811 4.834 4.057 5.865 Z"/>
</g>
</svg>
