<svg xmlns="http://www.w3.org/2000/svg" viewBox="0 0 3.751 31.964" width="3.751" height="31.964">
<g fill="black" stroke="none">
<path d="M 1.053 16.715 C 1.013 16.273 1.338 15.884 1.776 15.847 C 2.218 15.807 2.607 16.133 2.643 16.570 L 2.868 19.386 L 3.117 23.922 L 3.190 28.357 L 3.190 30.172 L 3.190 30.956 L 3.190 31.016 L 3.150 30.859 L 3.057 30.694 L 2.684 30.425 L 2.282 30.409 L 1.981 30.566 L 1.908 30.642 L 2.234 29.939 C 2.427 29.542 2.909 29.377 3.306 29.570 C 3.700 29.763 3.865 30.245 3.672 30.642 L 3.395 31.245 C 3.302 31.442 3.346 31.803 2.652 31.964 L 1.908 31.791 L 1.591 31.136 L 1.591 30.277 L 1.591 28.369 L 1.515 23.986 L 1.270 19.495 L 1.053 16.715 Z"/>
<path d="M 1.009 1.547 C 0.583 1.659 0.141 1.410 0.028 0.980 C -0.088 0.554 0.165 0.116 0.591 0.000 L 1.475 0.165 L 2.439 1.016 C 2.800 1.269 2.889 1.768 2.635 2.129 C 2.378 2.491 1.880 2.579 1.519 2.326 L 0.796 1.667 L 0.619 1.518 L 0.691 1.547 L 1.009 1.547 Z"/>
</g>
</svg>
