<svg xmlns="http://www.w3.org/2000/svg" viewBox="0 0 4.216 7.441" width="4.216" height="7.441">
<g fill="black" stroke="none">
<path d="M 4.190 0.515 C 4.194 0.625 4.107 0.717 3.997 0.720 C 3.887 0.724 3.796 0.637 3.792 0.527 L 3.792 0.286 L 3.795 0.226 C 3.798 0.108 3.888 0.021 3.998 0.022 C 4.108 0.024 4.196 0.114 4.194 0.224 L 4.190 0.301 L 4.190 0.515 Z"/>
<path d="M 3.803 0.168 C 3.832 0.062 3.942 0.000 4.048 0.029 C 4.154 0.059 4.216 0.168 4.187 0.274 L 3.959 0.715 L 3.387 1.444 L 2.838 2.174 L 2.063 3.468 L 1.596 4.531 L 1.235 5.563 L 0.868 6.692 L 0.692 7.076 L 0.551 7.324 L 0.444 7.437 L 0.179 7.441 C 0.027 7.343 0.063 7.259 0.051 7.206 C 0.034 7.128 0.000 6.975 0.056 6.799 C 0.089 6.694 0.201 6.636 0.306 6.669 C 0.411 6.703 0.469 6.815 0.436 6.919 L 0.440 7.120 L 0.453 7.172 L 0.447 7.159 L 0.395 7.106 L 0.297 7.081 L 0.229 7.102 L 0.212 7.113 L 0.343 6.884 L 0.492 6.561 L 0.856 5.440 L 1.225 4.386 L 1.710 3.284 L 2.512 1.946 L 3.073 1.199 L 3.617 0.510 L 3.756 0.271 L 3.792 0.201 L 3.803 0.168 Z"/>
<path d="M 0.049 0.287 C 0.066 0.179 0.169 0.105 0.277 0.122 C 0.386 0.139 0.460 0.241 0.443 0.350 L 0.420 0.586 L 0.413 0.575 L 0.341 0.509 L 0.301 0.499 L 0.504 0.463 C 0.691 0.468 0.713 0.587 0.742 0.645 L 0.814 0.808 L 1.341 1.977 L 2.044 3.877 L 2.347 4.770 L 2.719 5.819 L 3.052 6.683 L 3.149 6.885 L 3.233 7.172 L 3.223 7.144 L 3.207 7.114 L 3.163 7.068 L 3.063 7.031 L 2.954 7.053 L 2.899 7.096 L 2.867 7.147 L 2.859 7.173 L 2.861 7.106 C 2.858 6.996 2.945 6.905 3.055 6.903 C 3.165 6.900 3.257 6.987 3.259 7.097 L 3.244 7.275 L 3.205 7.351 L 3.035 7.428 C 2.910 7.421 2.877 7.342 2.863 7.312 L 2.843 7.253 L 2.789 7.055 L 2.683 6.833 L 2.345 5.955 L 1.969 4.897 L 1.668 4.009 L 0.970 2.121 L 0.447 0.964 L 0.388 0.827 L 0.381 0.813 L 0.408 0.836 L 0.493 0.862 L 0.417 0.878 L 0.189 0.877 C 0.078 0.832 0.029 0.705 0.023 0.616 L 0.049 0.287 Z"/>
</g>
</svg>
