<svg xmlns="http://www.w3.org/2000/svg" viewBox="0 0 6.840 12.167" width="6.840" height="12.167">
<g fill="black" stroke="none">
<path d="M 6.833 0.809 C 6.840 0.989 6.697 1.140 6.517 1.145 C 6.337 1.151 6.187 1.009 6.181 0.828 L 6.181 0.433 L 6.186 0.335 C 6.191 0.141 6.338 -0.001 6.519 0.000 C 6.699 0.003 6.843 0.151 6.840 0.331 L 6.833 0.458 L 6.833 0.809 Z"/>
<path d="M 6.199 0.240 C 6.246 0.066 6.427 -0.036 6.601 0.012 C 6.774 0.061 6.876 0.240 6.829 0.413 L 6.455 1.137 L 5.517 2.332 L 4.616 3.529 L 3.345 5.651 L 2.580 7.395 L 1.988 9.087 L 1.386 10.938 L 1.097 11.568 L 0.866 11.975 L 0.690 12.160 L 0.256 12.167 C 0.007 12.006 0.066 11.868 0.046 11.781 C 0.018 11.653 -0.038 11.402 0.054 11.114 C 0.108 10.942 0.292 10.847 0.464 10.901 C 0.636 10.956 0.731 11.140 0.677 11.311 L 0.684 11.640 L 0.705 11.726 L 0.695 11.704 L 0.610 11.617 L 0.449 11.576 L 0.338 11.611 L 0.310 11.629 L 0.525 11.253 L 0.769 10.724 L 1.366 8.885 L 1.971 7.157 L 2.767 5.350 L 4.082 3.155 L 5.002 1.930 L 5.894 0.800 L 6.122 0.409 L 6.181 0.294 L 6.199 0.240 Z"/>
<path d="M 0.043 0.435 C 0.071 0.258 0.239 0.136 0.417 0.164 C 0.595 0.192 0.717 0.359 0.689 0.538 L 0.651 0.925 L 0.640 0.907 L 0.521 0.799 L 0.456 0.782 L 0.789 0.723 C 1.095 0.732 1.132 0.927 1.179 1.022 L 1.297 1.289 L 2.161 3.206 L 3.314 6.322 L 3.811 7.786 L 4.421 9.507 L 4.967 10.924 L 5.126 11.255 L 5.264 11.726 L 5.248 11.680 L 5.221 11.630 L 5.149 11.555 L 4.985 11.494 L 4.807 11.530 L 4.716 11.601 L 4.664 11.685 L 4.651 11.727 L 4.654 11.617 C 4.649 11.437 4.792 11.288 4.972 11.284 C 5.153 11.279 5.303 11.422 5.307 11.603 L 5.282 11.894 L 5.218 12.019 L 4.939 12.145 C 4.734 12.134 4.680 12.004 4.657 11.955 L 4.625 11.858 L 4.536 11.534 L 4.362 11.170 L 3.808 9.730 L 3.191 7.995 L 2.698 6.539 L 1.553 3.442 L 0.695 1.545 L 0.599 1.320 L 0.587 1.297 L 0.631 1.335 L 0.771 1.378 L 0.646 1.404 L 0.272 1.402 C 0.090 1.329 0.010 1.120 0.000 0.974 L 0.043 0.435 Z"/>
</g>
</svg>
