<svg xmlns="http://www.w3.org/2000/svg" viewBox="0 0 17.144 30.494" width="17.144" height="30.494">
<g fill="black" stroke="none">
<path d="M 17.127 2.027 C 17.144 2.479 16.786 2.857 16.334 2.869 C 15.882 2.886 15.508 2.528 15.491 2.076 L 15.491 1.086 L 15.504 0.839 C 15.516 0.354 15.886 -0.004 16.338 0.001 C 16.790 0.009 17.152 0.379 17.144 0.831 L 17.127 1.147 L 17.127 2.027 Z"/>
<path d="M 15.537 0.601 C 15.656 0.165 16.108 -0.090 16.544 0.029 C 16.979 0.153 17.234 0.601 17.115 1.036 L 16.178 2.849 L 13.827 5.845 L 11.570 8.846 L 8.385 14.164 L 6.465 18.534 L 4.982 22.775 L 3.473 27.416 L 2.750 28.994 L 2.170 30.013 L 1.730 30.478 L 0.641 30.494 C 0.016 30.091 0.164 29.746 0.115 29.528 C 0.045 29.208 -0.095 28.579 0.136 27.856 C 0.271 27.424 0.732 27.186 1.163 27.321 C 1.595 27.461 1.833 27.921 1.698 28.349 L 1.714 29.175 L 1.767 29.389 L 1.743 29.335 L 1.529 29.117 L 1.126 29.015 L 0.847 29.101 L 0.777 29.146 L 1.315 28.205 L 1.928 26.877 L 3.424 22.270 L 4.940 17.938 L 6.934 13.408 L 10.230 7.909 L 12.536 4.838 L 14.772 2.006 L 15.343 1.024 L 15.491 0.736 L 15.537 0.601 Z"/>
<path d="M 0.107 1.090 C 0.177 0.646 0.600 0.342 1.044 0.412 C 1.492 0.481 1.796 0.901 1.726 1.349 L 1.632 2.319 L 1.603 2.274 L 1.307 2.002 L 1.143 1.961 L 1.977 1.813 C 2.746 1.834 2.836 2.323 2.955 2.561 L 3.251 3.231 L 5.417 8.036 L 8.307 15.845 L 9.552 19.516 L 11.081 23.827 L 12.450 27.379 L 12.849 28.209 L 13.194 29.389 L 13.153 29.274 L 13.087 29.150 L 12.906 28.961 L 12.495 28.809 L 12.047 28.900 L 11.821 29.076 L 11.689 29.286 L 11.657 29.393 L 11.665 29.117 C 11.652 28.665 12.010 28.291 12.462 28.283 C 12.914 28.271 13.292 28.628 13.301 29.080 L 13.239 29.812 L 13.079 30.124 L 12.380 30.441 C 11.866 30.412 11.731 30.087 11.673 29.964 L 11.591 29.722 L 11.369 28.908 L 10.933 27.995 L 9.544 24.386 L 7.998 20.038 L 6.761 16.388 L 3.892 8.628 L 1.743 3.872 L 1.500 3.309 L 1.471 3.252 L 1.582 3.346 L 1.932 3.453 L 1.619 3.519 L 0.682 3.515 C 0.226 3.330 0.025 2.808 0.000 2.442 L 0.107 1.090 Z"/>
</g>
</svg>
