<svg xmlns="http://www.w3.org/2000/svg" viewBox="0 0 4.883 12.397" width="4.883" height="12.397">
<g fill="black" stroke="none">
<path d="M 3.326 1.220 C 3.306 1.396 3.146 1.524 2.970 1.503 C 2.793 1.483 2.667 1.324 2.686 1.147 L 2.638 0.631 L 2.376 0.842 C 2.025 1.209 1.647 2.046 1.344 3.088 C 1.027 4.168 0.791 5.427 0.686 6.679 C 0.567 8.116 0.709 9.488 1.043 10.481 C 1.263 11.129 1.604 11.554 1.920 11.691 C 2.111 11.775 2.316 11.778 2.533 11.690 C 2.818 11.572 3.167 11.074 3.484 10.554 C 3.820 10.003 4.045 9.404 4.146 8.905 C 4.240 8.441 4.261 8.171 4.177 8.061 C 4.085 7.942 3.608 7.824 3.137 7.779 C 2.329 7.703 1.657 7.903 1.515 8.107 C 1.413 8.252 1.213 8.288 1.067 8.186 C 0.920 8.084 0.885 7.884 0.987 7.737 C 1.390 7.162 2.271 7.052 3.196 7.139 C 3.696 7.186 4.329 7.205 4.687 7.669 C 4.993 8.068 4.873 8.557 4.776 9.032 C 4.658 9.612 4.411 10.270 4.033 10.888 C 3.709 11.423 3.364 12.042 2.778 12.284 C 2.413 12.436 2.009 12.433 1.663 12.282 C 1.103 12.039 0.689 11.446 0.434 10.686 C 0.061 9.583 -0.081 8.139 0.045 6.625 C 0.153 5.330 0.395 4.033 0.725 2.907 C 1.045 1.815 1.416 0.915 1.911 0.396 C 2.226 0.067 2.663 -0.134 3.003 0.101 C 3.334 0.328 3.377 0.755 3.326 1.220 Z"/>
</g>
</svg>
