<svg xmlns="http://www.w3.org/2000/svg" viewBox="0 0 12.860 31.504" width="12.860" height="31.504">
<g fill="black" stroke="none">
<path d="M 8.610 1.761 C 8.627 1.969 8.474 2.150 8.267 2.167 C 8.059 2.185 7.878 2.032 7.861 1.824 C 7.819 1.314 7.695 0.982 7.575 0.848 L 7.330 0.755 C 7.129 0.779 6.762 0.990 6.343 1.423 C 5.892 1.892 5.392 2.580 4.862 3.475 L 3.422 6.174 C 2.925 7.236 2.447 8.444 2.048 9.816 C 1.346 12.216 1.010 15.055 0.827 17.903 C 0.718 19.673 0.729 21.422 0.851 23.051 C 0.973 24.651 1.199 26.110 1.530 27.318 C 1.954 28.868 2.935 29.776 3.813 30.258 C 4.839 30.843 5.669 30.988 6.534 30.407 C 7.855 29.543 9.107 27.305 10.165 24.991 C 10.867 23.451 11.422 21.913 11.764 20.571 C 12.071 19.384 12.198 18.450 12.026 17.850 C 11.862 17.282 11.314 16.916 10.524 16.746 C 9.269 16.474 7.597 16.697 6.291 17.142 C 5.664 17.355 5.151 17.617 4.870 17.867 L 4.669 18.127 L 4.702 18.231 C 4.833 18.394 4.807 18.629 4.647 18.759 C 4.484 18.892 4.248 18.865 4.119 18.704 C 3.886 18.418 3.873 17.993 4.041 17.697 C 4.333 17.182 4.957 16.846 5.711 16.553 C 6.885 16.097 8.370 15.816 9.744 15.889 C 11.090 15.962 12.405 16.461 12.746 17.640 C 12.990 18.490 12.810 19.527 12.491 20.760 C 12.137 22.153 11.567 23.727 10.848 25.303 C 9.771 27.659 8.542 29.992 6.951 31.034 C 5.837 31.781 4.588 31.566 3.447 30.915 C 2.433 30.359 1.288 29.283 0.805 27.516 C 0.458 26.246 0.227 24.746 0.102 23.107 C -0.024 21.443 -0.035 19.662 0.076 17.855 C 0.261 14.975 0.599 12.092 1.325 9.605 C 1.737 8.193 2.229 6.948 2.743 5.855 L 4.215 3.093 L 5.636 1.082 C 6.285 0.358 6.924 -0.107 7.572 0.020 C 8.221 0.146 8.538 0.873 8.610 1.761 Z"/>
</g>
</svg>
