<svg xmlns="http://www.w3.org/2000/svg" viewBox="0 0 3.141 7.781" width="3.141" height="7.781">
<g fill="black" stroke="none">
<path d="M 2.109 0.838 C 2.097 0.947 1.998 1.026 1.889 1.013 C 1.779 1.001 1.701 0.902 1.713 0.793 L 1.683 0.473 L 1.521 0.604 C 1.304 0.831 1.070 1.349 0.882 1.994 C 0.686 2.663 0.540 3.442 0.475 4.217 C 0.401 5.107 0.489 5.956 0.696 6.571 C 0.832 6.972 1.043 7.235 1.239 7.320 C 1.357 7.372 1.484 7.374 1.618 7.319 C 1.795 7.246 2.011 6.938 2.207 6.616 C 2.415 6.275 2.554 5.904 2.617 5.595 C 2.675 5.308 2.688 5.141 2.636 5.073 C 2.579 4.999 2.284 4.926 1.992 4.898 C 1.492 4.851 1.076 4.975 0.988 5.101 C 0.925 5.191 0.801 5.213 0.711 5.150 C 0.620 5.087 0.598 4.963 0.661 4.872 C 0.911 4.516 1.456 4.448 2.029 4.502 C 2.338 4.531 2.730 4.543 2.952 4.830 C 3.141 5.077 3.067 5.380 3.007 5.674 C 2.934 6.033 2.781 6.440 2.547 6.823 C 2.346 7.154 2.133 7.537 1.770 7.687 C 1.544 7.781 1.294 7.779 1.080 7.686 C 0.733 7.535 0.477 7.168 0.319 6.698 C 0.088 6.015 0.000 5.121 0.078 4.184 C 0.145 3.382 0.295 2.579 0.499 1.882 C 0.697 1.206 0.927 0.649 1.233 0.328 C 1.428 0.124 1.699 0.000 1.909 0.145 C 2.114 0.286 2.141 0.550 2.109 0.838 Z"/>
</g>
</svg>
