<svg xmlns="http://www.w3.org/2000/svg" viewBox="0 0 12.238 31.071" width="12.238" height="31.071">
<g fill="black" stroke="none">
<path d="M 8.335 3.058 C 8.287 3.500 7.886 3.819 7.445 3.767 C 6.999 3.718 6.684 3.317 6.732 2.876 L 6.611 1.580 L 5.955 2.111 C 5.076 3.030 4.129 5.127 3.368 7.739 C 2.574 10.447 1.983 13.601 1.720 16.739 C 1.420 20.343 1.776 23.780 2.614 26.270 C 3.165 27.894 4.019 28.959 4.813 29.303 C 5.291 29.513 5.805 29.521 6.347 29.299 C 7.064 29.003 7.939 27.756 8.732 26.452 C 9.574 25.072 10.137 23.570 10.392 22.319 C 10.627 21.157 10.680 20.480 10.469 20.205 C 10.238 19.905 9.044 19.610 7.862 19.496 C 5.837 19.306 4.153 19.808 3.797 20.318 C 3.542 20.683 3.040 20.772 2.675 20.517 C 2.307 20.262 2.218 19.760 2.473 19.391 C 3.485 17.950 5.692 17.675 8.012 17.893 C 9.263 18.011 10.850 18.059 11.749 19.221 C 12.514 20.221 12.214 21.448 11.971 22.638 C 11.676 24.092 11.056 25.740 10.109 27.290 C 9.295 28.631 8.433 30.181 6.963 30.789 C 6.048 31.169 5.036 31.161 4.169 30.785 C 2.764 30.173 1.728 28.687 1.088 26.784 C 0.153 24.019 -0.204 20.399 0.112 16.606 C 0.384 13.358 0.991 10.107 1.817 7.285 C 2.619 4.548 3.550 2.293 4.789 0.993 C 5.578 0.167 6.675 -0.335 7.526 0.252 C 8.356 0.823 8.465 1.892 8.335 3.058 Z"/>
</g>
</svg>
