<svg xmlns="http://www.w3.org/2000/svg" viewBox="0 0 7.481 30.898" width="7.481" height="30.898">
<g fill="none" stroke="black" stroke-width="0.618" stroke-linecap="round" stroke-linejoin="round">
<path d="M 6.072 30.303 L 5.810 29.933 L 5.782 29.831 L 5.749 29.688 L 5.716 29.514 L 5.689 29.316 L 5.668 29.104 L 5.654 28.883 L 5.643 28.657 L 5.635 28.428 L 5.627 28.199 L 5.617 27.970 L 5.607 27.740 L 5.596 27.510 L 5.586 27.281 L 5.579 27.051 L 5.575 26.822 L 5.576 26.592 L 5.580 26.362 L 5.588 26.133 L 5.597 25.903 L 5.607 25.673 L 5.617 25.443 L 5.626 25.213 L 5.633 24.982 L 5.640 24.752 L 5.645 24.522 L 5.650 24.292 L 5.654 24.061 L 5.658 23.831 L 5.661 23.601 L 5.665 23.370 L 5.668 23.140 L 5.672 22.909 L 5.676 22.679 L 5.679 22.449 L 5.683 22.218 L 5.686 21.988 L 5.690 21.758 L 5.693 21.527 L 5.697 21.297 L 5.700 21.066 L 5.704 20.836 L 5.708 20.606 L 5.711 20.375 L 5.715 20.145 L 5.718 19.915 L 5.722 19.684 L 5.726 19.454 L 5.730 19.224 L 5.735 18.993 L 5.740 18.763 L 5.748 18.533 L 5.757 18.303 L 5.768 18.073 L 5.781 17.844 L 5.795 17.614 L 5.810 17.385 L 5.823 17.155 L 5.834 16.925 L 5.842 16.696 L 5.848 16.465 L 5.852 16.235 L 5.855 16.005 L 5.857 15.775 L 5.858 15.544 L 5.860 15.314 L 5.862 15.084 L 5.865 14.853 L 5.869 14.623 L 5.875 14.393 L 5.883 14.163 L 5.891 13.932 L 5.902 13.702 L 5.913 13.472 L 5.925 13.242 L 5.937 13.012 L 5.949 12.782 L 5.962 12.552 L 5.974 12.322 L 5.986 12.092 L 5.998 11.862 L 6.010 11.632 L 6.020 11.402 L 6.029 11.172 L 6.035 10.942 L 6.039 10.711 L 6.040 10.481 L 6.038 10.251 L 6.034 10.021 L 6.028 9.791 L 6.022 9.561 L 6.018 9.332 L 6.017 9.102 L 6.021 8.873 L 6.030 8.645 L 6.046 8.416 L 6.068 8.189 L 6.093 7.961 L 6.121 7.733 L 6.149 7.505 L 6.176 7.277 L 6.201 7.048 L 6.225 6.819 L 6.248 6.590 L 6.271 6.361 L 6.296 6.132 L 6.322 5.904 L 6.350 5.675 L 6.381 5.447 L 6.413 5.219 L 6.448 4.991 L 6.484 4.764 L 6.520 4.537 L 6.558 4.309 L 6.595 4.082 L 6.633 3.855 L 6.670 3.627 L 6.708 3.400 L 6.746 3.174 L 6.783 2.948 L 6.820 2.726 L 6.856 2.509 L 6.890 2.304 L 6.920 2.119 L 6.946 1.965 L 6.965 1.854 L 7.047 1.354"/>
<path d="M 4.879 3.198 L 4.937 2.794 L 4.942 2.703 L 4.947 2.577 L 4.950 2.426 L 4.948 2.259 L 4.939 2.084 L 4.923 1.904 L 4.898 1.724 L 4.861 1.547 L 4.812 1.373 L 4.749 1.206 L 4.672 1.048 L 4.579 0.903 L 4.470 0.772 L 4.346 0.660 L 4.208 0.568 L 4.057 0.498 L 3.896 0.452 L 3.730 0.430 L 3.560 0.431 L 3.389 0.454 L 3.220 0.498 L 3.056 0.561 L 2.897 0.641 L 2.745 0.737 L 2.600 0.845 L 2.465 0.965 L 2.337 1.095 L 2.219 1.234 L 2.108 1.380 L 2.005 1.533 L 1.909 1.691 L 1.819 1.854 L 1.734 2.019 L 1.655 2.188 L 1.581 2.358 L 1.511 2.531 L 1.445 2.706 L 1.382 2.881 L 1.322 3.058 L 1.265 3.236 L 1.211 3.415 L 1.160 3.594 L 1.111 3.775 L 1.065 3.956 L 1.021 4.137 L 0.978 4.319 L 0.937 4.502 L 0.897 4.684 L 0.857 4.867 L 0.818 5.050 L 0.778 5.233 L 0.740 5.416 L 0.702 5.599 L 0.666 5.782 L 0.632 5.966 L 0.599 6.150 L 0.569 6.334 L 0.541 6.519 L 0.515 6.704 L 0.491 6.890 L 0.467 7.075 L 0.444 7.261 L 0.422 7.446 L 0.399 7.632 L 0.377 7.818 L 0.355 8.004 L 0.334 8.189 L 0.313 8.375 L 0.294 8.561 L 0.276 8.747 L 0.262 8.933 L 0.251 9.119 L 0.244 9.306 L 0.242 9.492 L 0.244 9.678 L 0.252 9.864 L 0.266 10.050 L 0.287 10.234 L 0.313 10.418 L 0.347 10.600 L 0.388 10.781 L 0.436 10.960 L 0.492 11.136 L 0.556 11.308 L 0.629 11.475 L 0.713 11.636 L 0.808 11.788 L 0.915 11.929 L 1.036 12.058 L 1.170 12.173 L 1.315 12.273 L 1.470 12.357 L 1.634 12.426 L 1.804 12.480 L 1.979 12.518 L 2.157 12.540 L 2.337 12.548 L 2.518 12.542 L 2.697 12.522 L 2.873 12.487 L 3.046 12.438 L 3.213 12.373 L 3.374 12.294 L 3.528 12.201 L 3.675 12.094 L 3.813 11.977 L 3.945 11.850 L 4.069 11.714 L 4.188 11.572 L 4.300 11.425 L 4.407 11.273 L 4.509 11.118 L 4.607 10.959 L 4.700 10.798 L 4.791 10.635 L 4.878 10.471 L 4.964 10.306 L 5.050 10.142 L 5.137 9.980 L 5.226 9.825 L 5.318 9.678 L 5.410 9.545 L 5.499 9.431 L 5.578 9.339 L 5.637 9.276 L 5.963 9.052"/>
</g>
</svg>