<svg xmlns="http://www.w3.org/2000/svg" viewBox="0 0 7.481 30.898" width="7.481" height="30.898">
<g fill="black" stroke="none">
<path d="M 5.355 3.144 C 5.328 3.326 5.159 3.453 4.977 3.426 C 4.795 3.401 4.670 3.232 4.695 3.050 C 4.817 2.198 4.723 1.262 4.327 0.860 C 4.088 0.617 3.510 0.591 3.024 0.906 C 1.692 1.770 0.920 5.684 0.706 8.750 C 0.609 10.130 0.705 11.229 1.107 11.811 C 1.440 12.289 2.168 12.501 2.833 12.366 C 4.162 12.088 5.488 8.965 6.195 6.120 C 6.499 4.888 6.680 3.734 6.760 2.783 L 6.817 1.289 L 6.825 1.306 L 6.879 1.391 L 6.952 1.451 L 7.066 1.491 L 7.179 1.486 L 7.305 1.426 L 7.341 1.389 L 7.052 2.491 L 6.676 5.308 L 6.448 11.091 L 6.026 24.669 L 6.005 27.377 L 6.110 30.007 L 6.162 30.295 L 6.180 30.355 L 6.155 30.323 L 6.085 30.273 L 5.978 30.246 L 5.816 30.285 L 5.776 30.318 L 5.809 30.248 C 5.883 30.079 6.080 30.002 6.249 30.074 C 6.416 30.148 6.494 30.345 6.421 30.514 C 6.357 30.659 6.326 30.826 6.060 30.898 L 5.684 30.794 C 5.438 30.550 5.468 30.295 5.430 29.919 L 5.338 26.804 L 5.500 19.322 L 5.783 11.069 L 6.013 5.253 C 6.133 3.819 6.317 2.678 6.496 1.907 L 6.737 1.115 L 6.815 0.982 L 6.982 0.853 L 7.290 0.878 C 7.530 1.020 7.473 1.147 7.480 1.232 L 7.423 2.838 C 7.340 3.827 7.154 5.014 6.840 6.278 C 6.483 7.726 5.993 9.249 5.353 10.529 C 4.732 11.772 3.976 12.808 2.969 13.017 C 2.085 13.196 1.082 12.940 0.561 12.190 C -0.009 11.371 -0.059 10.140 0.041 8.703 C 0.150 7.159 0.390 5.405 0.808 3.829 C 1.216 2.288 1.747 0.940 2.661 0.348 C 3.355 -0.101 4.272 -0.146 4.803 0.394 C 5.463 1.067 5.490 2.188 5.355 3.144 Z"/>
</g>
</svg>
