<svg xmlns="http://www.w3.org/2000/svg" viewBox="0 0 7.948 12.386" width="7.948" height="12.386">
<g fill="black" stroke="none">
<path d="M 3.697 1.670 C 3.589 1.692 3.484 1.622 3.462 1.514 C 3.440 1.406 3.510 1.301 3.618 1.279 C 4.135 1.174 4.797 1.466 5.108 2.092 C 5.256 2.388 5.309 2.752 5.282 3.155 L 5.186 3.985 C 4.964 4.748 4.216 5.374 3.507 5.818 C 3.105 6.069 2.679 6.226 2.282 6.289 C 1.850 6.358 1.448 6.234 1.136 6.012 C 0.826 5.790 0.593 5.477 0.439 5.147 C 0.000 4.208 0.033 3.144 0.644 2.223 C 1.125 1.497 1.962 0.825 2.890 0.403 C 3.373 0.183 3.862 0.050 4.278 0.023 C 4.622 0.000 4.933 0.132 5.106 0.385 C 5.281 0.641 5.337 0.987 5.334 1.392 C 5.329 1.967 5.184 2.650 4.983 3.432 L 4.267 6.086 C 4.103 6.848 4.039 7.624 4.010 8.335 C 3.971 9.303 4.124 10.098 4.397 10.683 C 4.783 11.510 5.413 11.896 5.985 11.806 C 6.276 11.761 6.574 11.594 6.840 11.299 C 7.118 10.989 7.362 10.539 7.535 9.951 C 7.566 9.846 7.676 9.786 7.782 9.817 C 7.888 9.848 7.948 9.958 7.917 10.064 C 7.670 10.903 7.278 11.520 6.798 11.875 C 6.107 12.386 5.191 12.281 4.578 11.656 C 4.261 11.332 4.006 10.882 3.838 10.331 C 3.664 9.764 3.581 9.088 3.612 8.319 C 3.642 7.595 3.706 6.797 3.878 6.002 L 4.597 3.332 C 4.795 2.563 4.931 1.902 4.936 1.389 C 4.939 1.029 4.880 0.760 4.777 0.610 C 4.683 0.471 4.546 0.404 4.304 0.420 C 3.952 0.443 3.499 0.563 3.055 0.765 C 2.192 1.158 1.403 1.799 0.976 2.443 C 0.437 3.257 0.410 4.144 0.800 4.978 C 1.059 5.534 1.584 5.997 2.219 5.896 C 2.560 5.842 2.938 5.703 3.296 5.480 C 3.960 5.064 4.633 4.461 4.804 3.874 L 4.885 3.129 C 4.908 2.778 4.859 2.486 4.751 2.269 C 4.520 1.804 4.013 1.606 3.697 1.670 Z"/>
</g>
</svg>
