<svg xmlns="http://www.w3.org/2000/svg" viewBox="0 0 19.503 30.526" width="19.503" height="30.526">
<g fill="black" stroke="none">
<path d="M 8.906 4.134 C 8.635 4.190 8.372 4.014 8.317 3.743 C 8.262 3.473 8.437 3.210 8.708 3.154 C 10.004 2.891 11.663 3.623 12.442 5.192 C 12.813 5.934 12.946 6.846 12.878 7.856 L 12.638 9.937 C 12.081 11.849 10.207 13.418 8.430 14.531 C 7.422 15.160 6.354 15.553 5.359 15.711 C 4.277 15.884 3.269 15.574 2.487 15.017 C 1.710 14.461 1.126 13.676 0.740 12.849 C -0.360 10.496 -0.278 7.829 1.254 5.520 C 2.459 3.701 4.557 2.016 6.883 0.959 C 8.094 0.407 9.319 0.074 10.362 0.006 C 11.224 -0.051 12.004 0.280 12.437 0.914 C 12.876 1.555 13.016 2.423 13.009 3.438 C 12.996 4.879 12.633 6.591 12.129 8.551 L 10.334 15.203 C 9.923 17.112 9.763 19.057 9.690 20.839 C 9.593 23.266 9.976 25.258 10.660 26.724 C 11.628 28.797 13.207 29.765 14.640 29.539 C 15.370 29.426 16.117 29.008 16.783 28.268 C 17.480 27.491 18.092 26.363 18.525 24.890 C 18.603 24.627 18.879 24.476 19.144 24.554 C 19.410 24.632 19.560 24.907 19.483 25.173 C 18.864 27.276 17.881 28.822 16.678 29.712 C 14.946 30.993 12.650 30.730 11.114 29.163 C 10.319 28.351 9.680 27.223 9.259 25.842 C 8.823 24.421 8.615 22.727 8.693 20.799 C 8.768 18.985 8.928 16.985 9.359 14.992 L 11.162 8.300 C 11.658 6.373 11.999 4.716 12.011 3.430 C 12.019 2.528 11.871 1.854 11.613 1.478 C 11.377 1.129 11.034 0.961 10.427 1.001 C 9.545 1.059 8.410 1.360 7.297 1.866 C 5.134 2.851 3.156 4.458 2.086 6.072 C 0.735 8.112 0.667 10.335 1.645 12.425 C 2.294 13.819 3.610 14.979 5.201 14.726 C 6.056 14.591 7.003 14.243 7.901 13.684 C 9.565 12.641 11.252 11.130 11.680 9.658 L 11.883 7.791 C 11.941 6.911 11.818 6.180 11.548 5.636 C 10.969 4.470 9.698 3.974 8.906 4.134 Z"/>
</g>
</svg>
