<svg xmlns="http://www.w3.org/2000/svg" viewBox="0 0 13.785 21.208" width="13.785" height="21.208">
<g fill="black" stroke="none">
<path d="M 8.469 4.326 C 8.380 4.584 8.099 4.721 7.841 4.631 C 7.583 4.542 7.446 4.259 7.536 4.001 C 7.804 3.227 7.772 2.430 7.553 1.842 C 7.347 1.283 7.002 0.995 6.712 0.988 L 5.811 1.469 C 4.500 2.623 3.009 5.294 1.991 8.330 C 1.289 10.422 0.949 12.703 0.993 14.731 C 1.025 16.332 1.279 17.727 1.854 18.660 C 2.837 20.251 5.208 20.568 7.548 19.876 C 9.928 19.171 12.155 17.516 12.825 15.604 C 12.914 15.346 13.197 15.212 13.455 15.302 C 13.713 15.393 13.848 15.674 13.758 15.932 C 12.934 18.280 10.447 20.050 7.829 20.824 C 5.240 21.591 2.319 21.293 1.013 19.179 C 0.288 18.007 0.038 16.448 0.003 14.751 C -0.042 12.601 0.313 10.223 1.053 8.014 C 1.758 5.912 2.683 3.976 3.681 2.492 C 4.634 1.072 5.602 -0.025 6.734 0.000 C 7.558 0.020 8.184 0.697 8.481 1.497 C 8.784 2.316 8.814 3.333 8.469 4.326 Z"/>
</g>
</svg>
