<svg xmlns="http://www.w3.org/2000/svg" viewBox="0 0 5.596 12.741" width="5.596" height="12.741">
<g fill="black" stroke="none">
<path d="M 5.228 0.671 C 5.074 0.736 4.895 0.661 4.831 0.505 C 4.767 0.350 4.842 0.171 4.998 0.107 L 5.103 0.061 L 5.074 0.089 L 5.040 0.127 L 4.993 0.226 C 5.008 0.171 5.057 0.523 5.017 0.447 C 4.978 0.372 5.206 0.602 5.161 0.583 L 5.251 0.607 L 5.319 0.607 L 5.351 0.601 L 4.670 0.959 C 3.990 1.390 3.083 2.314 2.297 3.522 C 1.838 4.228 1.470 5.066 1.176 5.921 C 0.884 6.766 0.748 7.647 0.662 8.426 C 0.554 9.407 0.618 10.146 0.795 10.673 C 1.263 12.077 2.640 12.065 3.609 12.134 C 3.777 12.146 3.904 12.291 3.892 12.459 C 3.880 12.626 3.734 12.753 3.566 12.741 C 2.970 12.698 2.002 12.741 1.193 12.199 C 0.779 11.921 0.421 11.479 0.217 10.866 C 0.003 10.228 -0.058 9.403 0.057 8.358 C 0.146 7.559 0.285 6.635 0.600 5.722 C 0.904 4.835 1.289 3.953 1.786 3.190 C 2.612 1.919 3.553 0.947 4.345 0.443 L 5.091 0.047 L 5.195 0.012 L 5.265 0.000 L 5.371 0.012 L 5.588 0.254 C 5.629 0.497 5.510 0.517 5.484 0.538 L 5.228 0.671 Z"/>
</g>
</svg>
