<svg xmlns="http://www.w3.org/2000/svg" viewBox="0 0 3.719 8.340" width="3.719" height="8.340">
<g fill="black" stroke="none">
<path d="M 3.457 0.439 C 3.356 0.481 3.239 0.432 3.197 0.330 C 3.155 0.229 3.204 0.112 3.306 0.070 L 3.375 0.040 L 3.356 0.058 L 3.334 0.083 L 3.303 0.148 C 3.313 0.112 3.345 0.342 3.319 0.292 C 3.293 0.243 3.442 0.394 3.413 0.381 L 3.472 0.397 L 3.516 0.397 L 3.537 0.393 L 3.092 0.627 C 2.647 0.909 2.054 1.513 1.540 2.303 C 1.240 2.765 0.999 3.313 0.807 3.872 C 0.616 4.425 0.527 5.001 0.471 5.510 C 0.400 6.152 0.442 6.635 0.558 6.980 C 0.864 7.898 1.764 7.890 2.398 7.935 C 2.508 7.943 2.591 8.038 2.583 8.148 C 2.575 8.257 2.480 8.340 2.370 8.332 C 1.980 8.304 1.347 8.332 0.818 7.978 C 0.547 7.796 0.313 7.507 0.180 7.106 C 0.040 6.689 0.000 6.149 0.075 5.466 C 0.133 4.943 0.224 4.339 0.430 3.742 C 0.629 3.162 0.881 2.585 1.206 2.086 C 1.746 1.255 2.361 0.619 2.879 0.290 L 3.367 0.031 L 3.435 0.008 L 3.481 0.000 L 3.550 0.008 L 3.692 0.166 C 3.719 0.325 3.641 0.338 3.624 0.352 L 3.457 0.439 Z"/>
</g>
</svg>
