<svg xmlns="http://www.w3.org/2000/svg" viewBox="0 0 14.026 31.934" width="14.026" height="31.934">
<g fill="black" stroke="none">
<path d="M 13.105 1.683 C 12.717 1.843 12.269 1.656 12.108 1.265 C 11.947 0.878 12.135 0.429 12.526 0.268 L 12.790 0.153 L 12.717 0.222 L 12.633 0.318 L 12.514 0.567 C 12.553 0.429 12.675 1.311 12.576 1.119 C 12.476 0.931 13.047 1.510 12.936 1.460 L 13.162 1.522 L 13.331 1.522 L 13.411 1.506 L 11.706 2.403 C 10.000 3.484 7.727 5.799 5.757 8.826 C 4.608 10.597 3.684 12.697 2.948 14.840 C 2.216 16.959 1.875 19.167 1.660 21.118 C 1.388 23.578 1.549 25.429 1.994 26.752 C 3.167 30.270 6.616 30.239 9.046 30.412 C 9.467 30.442 9.785 30.806 9.755 31.228 C 9.724 31.646 9.360 31.964 8.938 31.933 C 7.444 31.826 5.018 31.933 2.990 30.576 C 1.952 29.879 1.055 28.771 0.545 27.234 C 0.009 25.636 -0.145 23.567 0.143 20.949 C 0.365 18.945 0.714 16.630 1.503 14.342 C 2.266 12.119 3.232 9.907 4.477 7.995 C 6.547 4.810 8.904 2.372 10.889 1.111 L 12.760 0.119 L 13.020 0.031 L 13.196 0.000 L 13.461 0.031 L 14.005 0.636 C 14.109 1.246 13.810 1.295 13.745 1.349 L 13.105 1.683 Z"/>
</g>
</svg>
