<svg xmlns="http://www.w3.org/2000/svg" viewBox="0 0 7.620 12.158" width="7.620" height="12.158">
<g fill="black" stroke="none">
<path d="M 0.703 1.123 C 0.760 0.966 0.932 0.886 1.088 0.942 C 1.245 0.997 1.324 1.171 1.269 1.326 L 1.145 2.338 L 1.100 3.286 L 0.934 6.829 L 0.809 8.699 L 0.641 10.272 L 0.599 10.559 L 0.527 10.449 L 0.576 10.456 C 0.741 10.485 0.851 10.640 0.822 10.803 C 0.794 10.968 0.638 11.076 0.475 11.049 L 0.198 10.951 C 0.051 10.856 -0.006 10.648 0.000 10.526 L 0.045 10.195 L 0.210 8.652 L 0.334 6.795 L 0.499 3.260 L 0.545 2.311 L 0.703 1.123 Z"/>
<path d="M 1.340 1.448 C 1.181 1.501 1.011 1.417 0.958 1.260 C 0.905 1.103 0.990 0.932 1.148 0.880 C 1.312 0.824 1.512 0.878 1.638 0.978 L 1.961 1.374 L 2.699 3.006 L 3.201 4.276 L 3.813 5.709 L 4.009 6.041 L 3.935 6.013 L 3.872 6.019 L 3.997 5.866 L 4.269 5.359 L 4.735 4.245 L 5.115 3.240 L 5.910 1.251 L 6.237 0.459 L 6.397 0.153 C 6.436 0.098 6.540 -0.045 6.758 0.014 C 6.967 0.070 6.979 0.207 6.999 0.270 L 7.056 1.175 L 7.056 2.554 L 7.056 5.058 L 7.056 6.951 L 7.056 8.690 L 7.056 10.418 L 7.056 11.440 L 7.065 11.663 L 7.049 11.619 L 6.972 11.535 L 6.868 11.494 L 7.082 11.589 L 7.055 11.578 L 6.951 11.577 L 6.868 11.621 L 6.946 11.500 L 7.062 11.348 C 7.147 11.204 7.331 11.159 7.474 11.244 C 7.616 11.328 7.663 11.514 7.578 11.655 L 7.444 11.836 C 7.390 11.916 7.390 12.081 7.109 12.158 L 6.755 12.093 L 6.711 12.064 L 6.729 12.073 L 6.794 12.091 L 6.536 11.931 C 6.396 11.720 6.463 11.618 6.456 11.471 L 6.456 10.418 L 6.456 8.690 L 6.456 6.951 L 6.456 5.058 L 6.456 2.551 L 6.456 1.181 L 6.421 0.439 L 6.441 0.477 L 6.479 0.525 L 6.558 0.580 L 6.670 0.604 L 6.765 0.589 L 6.854 0.537 L 6.880 0.510 L 6.785 0.706 L 6.466 1.476 L 5.678 3.453 L 5.294 4.465 L 4.816 5.608 L 4.389 6.344 L 4.097 6.577 L 3.641 6.516 L 3.282 5.991 L 2.643 4.497 L 2.142 3.233 L 1.445 1.684 L 1.270 1.451 L 1.340 1.448 Z"/>
</g>
</svg>
