<svg xmlns="http://www.w3.org/2000/svg" viewBox="0 0 24.772 30.585" width="24.772" height="30.585">
<g fill="black" stroke="none">
<path d="M 0.610 25.692 C 0.615 25.414 0.849 25.192 1.127 25.199 C 1.406 25.204 1.626 25.434 1.621 25.712 C 1.591 27.063 1.284 28.339 0.955 28.981 L 0.899 29.069 C 0.861 29.119 0.797 29.269 0.492 29.266 C 0.162 29.264 0.033 28.983 0.008 28.894 L 0.000 28.619 L 0.223 27.577 L 1.054 24.261 L 2.371 19.469 L 4.109 13.467 L 6.547 4.492 L 7.611 1.129 L 8.041 0.283 C 8.133 0.164 8.315 -0.039 8.640 0.006 C 8.962 0.050 9.075 0.273 9.144 0.412 C 9.412 0.967 9.539 1.772 9.655 2.821 L 10.041 9.085 L 10.321 16.800 L 10.843 25.923 L 11.266 29.324 L 11.368 29.608 L 11.383 29.639 L 11.291 29.596 L 11.127 29.611 L 11.175 29.561 C 11.595 29.044 12.122 27.618 12.669 25.756 L 14.468 18.958 L 16.988 8.522 C 17.490 6.346 17.819 4.665 18.224 3.581 L 18.817 2.618 C 19.088 2.401 19.566 2.396 19.840 2.588 C 20.326 2.935 20.545 3.543 20.808 4.338 C 21.302 5.828 21.732 7.957 22.153 10.404 L 23.827 22.060 L 24.412 26.491 L 24.619 27.823 L 24.693 28.182 L 24.714 28.256 L 24.662 28.172 C 24.835 28.390 24.799 28.707 24.584 28.882 C 24.367 29.056 24.047 29.021 23.875 28.803 C 23.645 28.517 23.700 28.392 23.650 28.132 L 23.288 25.723 L 22.329 18.421 C 21.760 14.191 21.117 9.771 20.377 6.595 C 20.033 5.116 19.671 3.988 19.364 3.540 L 19.254 3.411 L 19.443 3.408 L 19.171 3.933 L 17.973 8.748 L 15.445 19.209 L 13.637 26.039 C 13.079 27.937 12.606 29.401 11.955 30.198 C 11.722 30.482 11.248 30.715 10.866 30.503 C 10.504 30.300 10.384 29.953 10.289 29.571 L 9.837 26.004 L 9.314 16.845 L 8.931 6.780 L 8.655 2.935 L 8.235 0.850 L 8.263 0.885 L 8.331 0.942 L 8.600 1.007 L 8.784 0.947 L 8.835 0.903 L 8.538 1.524 L 7.518 4.766 L 5.081 13.737 L 3.340 19.748 L 1.556 26.366 L 1.097 28.282 L 1.003 28.734 L 0.982 28.636 C 0.998 28.694 0.565 28.213 0.757 28.332 C 1.077 28.524 0.063 28.494 0.117 28.434 L 0.055 28.519 C 0.245 28.150 0.585 26.876 0.610 25.692 Z"/>
</g>
</svg>
