<svg xmlns="http://www.w3.org/2000/svg" viewBox="0 0 5.084 8.090" width="5.084" height="8.090">
<g fill="black" stroke="none">
<path d="M 0.470 0.774 C 0.508 0.670 0.622 0.617 0.725 0.654 C 0.829 0.691 0.882 0.806 0.845 0.909 L 0.763 1.580 L 0.733 2.208 L 0.623 4.557 L 0.540 5.797 L 0.429 6.840 L 0.401 7.030 L 0.353 6.957 L 0.386 6.962 C 0.495 6.981 0.568 7.084 0.549 7.192 C 0.530 7.301 0.427 7.373 0.319 7.355 L 0.135 7.290 C 0.038 7.227 0.000 7.089 0.004 7.008 L 0.034 6.789 L 0.143 5.766 L 0.225 4.535 L 0.335 2.191 L 0.365 1.562 L 0.470 0.774 Z"/>
<path d="M 0.892 0.990 C 0.787 1.025 0.674 0.969 0.639 0.865 C 0.604 0.761 0.660 0.648 0.765 0.613 C 0.874 0.576 1.006 0.612 1.090 0.678 L 1.304 0.941 L 1.793 2.023 L 2.126 2.865 L 2.532 3.815 L 2.662 4.035 L 2.613 4.016 L 2.571 4.020 L 2.654 3.919 L 2.834 3.583 L 3.143 2.844 L 3.395 2.178 L 3.922 0.859 L 4.139 0.334 L 4.245 0.131 C 4.271 0.095 4.340 0.000 4.484 0.039 C 4.623 0.076 4.631 0.167 4.644 0.209 L 4.682 0.809 L 4.682 1.723 L 4.682 3.383 L 4.682 4.638 L 4.682 5.791 L 4.682 6.937 L 4.682 7.614 L 4.688 7.762 L 4.677 7.733 L 4.626 7.677 L 4.557 7.650 L 4.699 7.713 L 4.681 7.706 L 4.612 7.705 L 4.557 7.734 L 4.609 7.654 L 4.686 7.553 C 4.742 7.458 4.864 7.428 4.959 7.484 C 5.053 7.540 5.084 7.663 5.028 7.757 L 4.939 7.877 C 4.903 7.930 4.903 8.039 4.717 8.090 L 4.482 8.047 L 4.453 8.028 L 4.465 8.034 L 4.508 8.046 L 4.337 7.940 C 4.244 7.800 4.289 7.732 4.284 7.635 L 4.284 6.937 L 4.284 5.791 L 4.284 4.638 L 4.284 3.383 L 4.284 1.721 L 4.284 0.813 L 4.261 0.321 L 4.274 0.346 L 4.299 0.378 L 4.352 0.414 L 4.426 0.430 L 4.489 0.420 L 4.548 0.386 L 4.565 0.368 L 4.502 0.498 L 4.291 1.008 L 3.768 2.319 L 3.514 2.990 L 3.197 3.748 L 2.914 4.236 L 2.720 4.390 L 2.418 4.350 L 2.180 4.002 L 1.756 3.011 L 1.424 2.173 L 0.962 1.146 L 0.846 0.992 L 0.892 0.990 Z"/>
</g>
</svg>
