<svg xmlns="http://www.w3.org/2000/svg" viewBox="0 0 19.099 30.472" width="19.099" height="30.472">
<g fill="black" stroke="none">
<path d="M 1.762 2.814 C 1.906 2.420 2.337 2.220 2.726 2.360 C 3.119 2.500 3.320 2.935 3.180 3.324 L 2.870 5.861 L 2.756 8.235 L 2.341 17.115 L 2.027 21.803 L 1.607 25.746 L 1.501 26.464 L 1.320 26.188 L 1.445 26.207 C 1.857 26.279 2.133 26.668 2.061 27.077 C 1.989 27.489 1.600 27.761 1.191 27.693 L 0.496 27.447 C 0.129 27.209 -0.015 26.687 0.000 26.381 L 0.114 25.553 L 0.526 21.686 L 0.836 17.032 L 1.252 8.170 L 1.365 5.793 L 1.762 2.814 Z"/>
<path d="M 3.358 3.630 C 2.961 3.762 2.533 3.551 2.401 3.158 C 2.269 2.764 2.480 2.337 2.877 2.205 C 3.289 2.065 3.788 2.201 4.106 2.451 L 4.915 3.445 L 6.764 7.535 L 8.023 10.719 L 9.558 14.310 L 10.049 15.142 L 9.864 15.070 L 9.705 15.085 L 10.019 14.703 L 10.699 13.433 L 11.867 10.639 L 12.820 8.121 L 14.812 3.135 L 15.633 1.150 L 16.033 0.383 C 16.132 0.247 16.393 -0.113 16.937 0.035 C 17.463 0.175 17.493 0.519 17.542 0.678 L 17.686 2.946 L 17.686 6.401 L 17.686 12.677 L 17.686 17.421 L 17.686 21.780 L 17.686 26.113 L 17.686 28.672 L 17.708 29.232 L 17.667 29.122 L 17.474 28.910 L 17.213 28.808 L 17.750 29.046 L 17.682 29.020 L 17.421 29.016 L 17.213 29.126 L 17.410 28.823 L 17.701 28.441 C 17.912 28.082 18.374 27.969 18.733 28.181 C 19.088 28.392 19.205 28.857 18.994 29.213 L 18.657 29.666 C 18.521 29.867 18.521 30.279 17.818 30.472 L 16.929 30.309 L 16.820 30.237 L 16.865 30.260 L 17.028 30.305 L 16.381 29.905 C 16.030 29.375 16.200 29.118 16.181 28.751 L 16.181 26.113 L 16.181 21.780 L 16.181 17.421 L 16.181 12.677 L 16.181 6.394 L 16.181 2.961 L 16.094 1.101 L 16.143 1.195 L 16.238 1.316 L 16.438 1.453 L 16.718 1.513 L 16.956 1.475 L 17.179 1.347 L 17.243 1.279 L 17.005 1.770 L 16.207 3.698 L 14.230 8.654 L 13.270 11.191 L 12.072 14.057 L 11.002 15.902 L 10.268 16.484 L 9.127 16.333 L 8.227 15.017 L 6.624 11.270 L 5.369 8.102 L 3.622 4.220 L 3.184 3.638 L 3.358 3.630 Z"/>
</g>
</svg>
