<svg xmlns="http://www.w3.org/2000/svg" viewBox="0 0 2.542 31.922" width="2.542" height="31.922">
<g fill="black" stroke="none">
<path d="M 1.820 0.932 C 1.740 1.072 1.560 1.121 1.419 1.041 C 1.277 0.960 1.229 0.781 1.309 0.639 C 1.484 0.331 1.607 0.112 1.851 0.000 L 2.216 0.006 C 2.410 0.109 2.449 0.278 2.483 0.435 L 2.542 1.375 L 2.469 2.839 L 2.162 6.812 L 1.706 11.891 L 1.045 18.198 L 0.680 23.002 C 0.565 25.185 0.544 27.079 0.617 28.588 L 0.790 30.439 L 1.066 31.497 C 1.139 31.642 1.079 31.819 0.933 31.891 C 0.788 31.964 0.611 31.905 0.538 31.758 C 0.336 31.350 0.219 30.750 0.132 29.968 L 0.000 27.834 L 0.064 23.523 L 0.458 18.142 L 1.119 11.835 L 1.575 6.764 L 1.881 2.797 C 1.962 1.680 1.981 0.872 1.904 0.547 L 1.884 0.482 L 1.955 0.532 L 2.043 0.549 L 2.094 0.537 L 2.032 0.609 L 1.820 0.932 Z"/>
</g>
</svg>
