<svg xmlns="http://www.w3.org/2000/svg" viewBox="0 0 1.767 12.730" width="1.767" height="12.730">
<g fill="black" stroke="none">
<path d="M 0.028 0.265 C 0.050 0.099 0.203 -0.019 0.369 0.003 C 0.536 0.024 0.653 0.177 0.632 0.343 C 0.550 0.995 0.695 1.569 0.871 2.369 C 1.263 4.168 1.291 6.646 1.318 8.726 L 1.314 10.648 L 1.341 12.217 L 1.349 12.243 L 1.318 12.199 L 1.204 12.130 L 1.074 12.129 L 1.014 12.153 L 1.192 11.844 C 1.268 11.695 1.451 11.634 1.601 11.710 C 1.751 11.786 1.811 11.970 1.734 12.120 L 1.499 12.516 C 1.431 12.604 1.355 12.725 1.144 12.730 C 0.947 12.734 0.825 12.572 0.785 12.476 C 0.658 12.167 0.692 11.765 0.698 11.155 L 0.710 8.734 C 0.682 6.659 0.646 4.195 0.276 2.499 C 0.102 1.705 -0.071 1.043 0.028 0.265 Z"/>
</g>
</svg>
