<svg xmlns="http://www.w3.org/2000/svg" viewBox="0 0 1.231 8.343" width="1.231" height="8.343">
<g fill="black" stroke="none">
<path d="M 0.065 0.186 C 0.079 0.077 0.179 0.000 0.288 0.014 C 0.397 0.028 0.474 0.128 0.460 0.237 C 0.406 0.663 0.501 1.039 0.616 1.562 C 0.873 2.739 0.891 4.360 0.909 5.721 L 0.906 6.978 L 0.924 8.005 L 0.929 8.022 L 0.909 7.993 L 0.834 7.948 L 0.749 7.947 L 0.710 7.963 L 0.826 7.761 C 0.876 7.663 0.996 7.623 1.094 7.673 C 1.192 7.723 1.231 7.843 1.181 7.941 L 1.027 8.200 C 0.983 8.258 0.933 8.337 0.795 8.340 C 0.666 8.343 0.586 8.237 0.560 8.174 C 0.477 7.972 0.499 7.709 0.503 7.310 L 0.511 5.726 C 0.493 4.369 0.469 2.757 0.227 1.647 C 0.113 1.128 0.000 0.695 0.065 0.186 Z"/>
</g>
</svg>
