<svg xmlns="http://www.w3.org/2000/svg" viewBox="0 0 4.429 31.905" width="4.429" height="31.905">
<g fill="black" stroke="none">
<path d="M 0.071 0.665 C 0.124 0.248 0.508 -0.047 0.925 0.006 C 1.343 0.060 1.638 0.443 1.584 0.861 C 1.377 2.493 1.741 3.933 2.182 5.937 C 3.166 10.446 3.235 16.657 3.304 21.871 L 3.293 26.687 L 3.362 30.622 L 3.381 30.687 L 3.304 30.576 L 3.017 30.403 L 2.691 30.399 L 2.542 30.461 L 2.986 29.687 C 3.178 29.311 3.638 29.158 4.013 29.350 C 4.389 29.541 4.538 30.001 4.346 30.376 L 3.756 31.369 C 3.588 31.591 3.396 31.894 2.868 31.905 C 2.373 31.917 2.067 31.510 1.967 31.269 C 1.649 30.495 1.734 29.488 1.749 27.959 L 1.780 21.890 C 1.711 16.691 1.619 10.515 0.691 6.263 C 0.255 4.274 -0.178 2.615 0.071 0.665 Z"/>
</g>
</svg>
