<svg xmlns="http://www.w3.org/2000/svg" viewBox="0 0 3.714 6.595" width="3.714" height="6.595">
<g fill="black" stroke="none">
<path d="M 0.486 0.199 C 0.486 0.309 0.396 0.398 0.286 0.398 C 0.176 0.398 0.087 0.309 0.087 0.199 C 0.087 0.089 0.176 0.000 0.286 0.000 C 0.396 0.000 0.486 0.089 0.486 0.199 Z"/>
<path d="M 0.418 0.427 C 0.488 0.512 0.476 0.637 0.392 0.708 C 0.307 0.778 0.181 0.766 0.111 0.682 C 0.000 0.548 0.010 0.376 0.116 0.259 L 0.367 0.202 C 0.535 0.269 0.561 0.386 0.622 0.540 L 0.784 1.253 L 1.077 2.607 L 1.179 3.063 L 1.256 3.325 L 1.494 4.631 L 1.646 5.703 L 1.690 6.100 L 1.699 6.306 L 1.707 6.362 L 1.311 6.407 L 1.326 6.294 L 1.462 5.858 L 1.756 4.929 L 1.831 4.589 L 2.122 3.776 L 2.595 2.345 L 2.786 1.721 L 3.077 0.715 L 3.267 0.148 C 3.318 0.050 3.438 0.012 3.535 0.062 C 3.633 0.113 3.671 0.233 3.620 0.331 L 3.167 1.836 L 2.974 2.468 L 2.496 3.913 L 2.220 4.678 L 2.136 5.048 L 1.842 5.979 L 1.736 6.317 L 1.709 6.404 L 1.704 6.422 L 1.707 6.406 L 1.707 6.362 C 1.720 6.471 1.641 6.570 1.532 6.582 C 1.423 6.595 1.324 6.517 1.311 6.407 L 1.303 6.260 L 1.293 6.136 L 1.251 5.752 L 1.101 4.697 L 0.872 3.432 L 0.790 3.149 L 0.688 2.691 L 0.393 1.334 L 0.252 0.687 L 0.181 0.549 L 0.206 0.566 L 0.241 0.579 L 0.331 0.576 L 0.412 0.525 L 0.435 0.476 L 0.418 0.427 Z"/>
<path d="M 3.714 0.239 C 3.714 0.349 3.625 0.439 3.515 0.439 C 3.405 0.439 3.316 0.349 3.316 0.239 C 3.316 0.129 3.405 0.040 3.515 0.040 C 3.625 0.040 3.714 0.129 3.714 0.239 Z"/>
</g>
</svg>
