<svg xmlns="http://www.w3.org/2000/svg" viewBox="0 0 17.460 31.219" width="17.460" height="31.219">
<g fill="black" stroke="none">
<path d="M 2.152 0.944 C 2.152 1.465 1.726 1.887 1.204 1.887 C 0.682 1.887 0.260 1.465 0.260 0.944 C 0.260 0.422 0.682 0.000 1.204 0.000 C 1.726 0.000 2.152 0.422 2.152 0.944 Z"/>
<path d="M 1.830 2.025 C 2.162 2.428 2.105 3.021 1.707 3.357 C 1.303 3.689 0.706 3.632 0.374 3.234 C -0.152 2.599 -0.105 1.783 0.398 1.228 L 1.588 0.958 C 2.385 1.276 2.508 1.830 2.797 2.561 L 3.565 5.942 L 4.955 12.363 L 5.439 14.525 L 5.804 15.767 L 6.932 21.961 L 7.653 27.044 L 7.862 28.927 L 7.904 29.904 L 7.942 30.169 L 6.065 30.383 L 6.136 29.847 L 6.781 27.779 L 8.175 23.374 L 8.530 21.761 L 9.910 17.906 L 12.153 11.120 L 13.059 8.161 L 14.439 3.391 L 15.340 0.702 C 15.582 0.237 16.151 0.057 16.611 0.294 C 17.076 0.536 17.256 1.105 17.014 1.570 L 14.866 8.706 L 13.951 11.703 L 11.684 18.556 L 10.375 22.183 L 9.977 23.938 L 8.583 28.353 L 8.080 29.956 L 7.952 30.368 L 7.928 30.454 L 7.942 30.378 L 7.942 30.169 C 8.004 30.686 7.629 31.155 7.113 31.212 C 6.596 31.274 6.126 30.904 6.065 30.383 L 6.027 29.685 L 5.979 29.097 L 5.780 27.276 L 5.069 22.274 L 3.983 16.275 L 3.594 14.933 L 3.110 12.761 L 1.711 6.326 L 1.043 3.258 L 0.706 2.603 L 0.825 2.684 L 0.991 2.746 L 1.417 2.731 L 1.801 2.490 L 1.910 2.257 L 1.830 2.025 Z"/>
<path d="M 17.460 1.133 C 17.460 1.655 17.038 2.082 16.516 2.082 C 15.994 2.082 15.572 1.655 15.572 1.133 C 15.572 0.612 15.994 0.190 16.516 0.190 C 17.038 0.190 17.460 0.612 17.460 1.133 Z"/>
</g>
</svg>
