<svg xmlns="http://www.w3.org/2000/svg" viewBox="0 0 6.966 12.456" width="6.966" height="12.456">
<g fill="black" stroke="none">
<path d="M 0.859 0.377 C 0.859 0.585 0.688 0.753 0.480 0.753 C 0.272 0.753 0.104 0.585 0.104 0.377 C 0.104 0.168 0.272 0.000 0.480 0.000 C 0.688 0.000 0.859 0.168 0.859 0.377 Z"/>
<path d="M 0.730 0.808 C 0.863 0.969 0.840 1.205 0.681 1.340 C 0.520 1.472 0.282 1.449 0.149 1.290 C -0.061 1.037 -0.042 0.711 0.159 0.490 L 0.634 0.382 C 0.951 0.509 1.001 0.730 1.116 1.022 L 1.423 2.371 L 1.977 4.932 L 2.170 5.795 L 2.316 6.291 L 2.766 8.762 L 3.053 10.790 L 3.137 11.541 L 3.154 11.931 L 3.169 12.037 L 2.420 12.122 L 2.448 11.908 L 2.705 11.083 L 3.262 9.326 L 3.403 8.682 L 3.954 7.144 L 4.849 4.437 L 5.210 3.256 L 5.761 1.353 L 6.120 0.280 C 6.217 0.095 6.444 0.023 6.627 0.117 C 6.813 0.214 6.885 0.441 6.788 0.626 L 5.931 3.474 L 5.566 4.669 L 4.662 7.403 L 4.139 8.851 L 3.981 9.551 L 3.424 11.312 L 3.224 11.952 L 3.173 12.116 L 3.163 12.150 L 3.169 12.120 L 3.169 12.037 C 3.193 12.243 3.044 12.430 2.838 12.453 C 2.632 12.478 2.444 12.330 2.420 12.122 L 2.404 11.844 L 2.386 11.609 L 2.306 10.883 L 2.022 8.887 L 1.589 6.493 L 1.434 5.958 L 1.241 5.091 L 0.683 2.524 L 0.416 1.300 L 0.282 1.039 L 0.329 1.071 L 0.395 1.095 L 0.565 1.090 L 0.719 0.993 L 0.762 0.901 L 0.730 0.808 Z"/>
<path d="M 6.966 0.452 C 6.966 0.660 6.798 0.831 6.590 0.831 C 6.381 0.831 6.213 0.660 6.213 0.452 C 6.213 0.244 6.381 0.076 6.590 0.076 C 6.798 0.076 6.966 0.244 6.966 0.452 Z"/>
</g>
</svg>
