<svg xmlns="http://www.w3.org/2000/svg" viewBox="0 0 5.536 8.583" width="5.536" height="8.583">
<g fill="black" stroke="none">
<path d="M 5.054 0.627 C 4.885 0.569 4.795 0.386 4.853 0.216 C 4.910 0.048 5.094 -0.041 5.262 0.017 C 5.372 0.054 5.541 0.210 5.536 0.391 C 5.530 0.668 5.381 0.729 5.267 0.827 L 3.730 1.984 C 3.169 2.457 2.783 3.133 2.608 3.721 C 2.438 4.292 2.716 4.770 3.242 5.286 C 3.616 5.655 4.149 5.966 4.485 6.484 L 4.783 7.316 C 4.832 7.750 4.460 8.044 4.100 8.195 L 2.862 8.478 L 1.225 8.583 C 0.706 8.533 0.167 8.240 0.011 7.661 C -0.036 7.489 0.066 7.311 0.238 7.266 C 0.410 7.219 0.588 7.321 0.633 7.492 C 0.717 7.805 0.913 7.905 1.287 7.942 L 2.791 7.837 L 3.851 7.601 L 4.142 7.387 L 3.945 6.835 C 3.717 6.484 3.228 6.178 2.789 5.746 C 2.195 5.161 1.734 4.397 1.989 3.538 C 2.198 2.835 2.637 2.062 3.312 1.490 L 4.599 0.529 L 4.918 0.271 L 4.897 0.334 L 4.898 0.436 L 4.982 0.584 L 5.054 0.627 Z"/>
</g>
</svg>
