<svg xmlns="http://www.w3.org/2000/svg" viewBox="0 0 3.445 5.328" width="3.445" height="5.328">
<g fill="black" stroke="none">
<path d="M 3.144 0.413 C 3.040 0.377 2.984 0.264 3.020 0.159 C 3.055 0.055 3.169 0.000 3.273 0.036 C 3.341 0.059 3.445 0.155 3.442 0.267 C 3.438 0.438 3.346 0.476 3.276 0.536 L 2.326 1.251 C 1.980 1.543 1.741 1.961 1.633 2.324 C 1.528 2.677 1.700 2.972 2.025 3.291 C 2.256 3.519 2.585 3.711 2.793 4.031 L 2.977 4.545 C 3.007 4.813 2.777 4.995 2.555 5.088 L 1.790 5.263 L 0.779 5.328 C 0.458 5.297 0.125 5.116 0.029 4.758 C 0.000 4.652 0.063 4.542 0.169 4.514 C 0.275 4.485 0.385 4.548 0.413 4.654 C 0.465 4.847 0.586 4.909 0.817 4.932 L 1.746 4.867 L 2.401 4.721 L 2.581 4.589 L 2.459 4.248 C 2.318 4.031 2.016 3.842 1.745 3.575 C 1.378 3.214 1.093 2.742 1.251 2.211 C 1.380 1.777 1.651 1.299 2.068 0.946 L 2.863 0.352 L 3.060 0.193 L 3.047 0.232 L 3.048 0.295 L 3.100 0.386 L 3.144 0.413 Z"/>
</g>
</svg>
