<svg xmlns="http://www.w3.org/2000/svg" viewBox="0 0 16.719 21.560" width="16.719" height="21.560">
<g fill="black" stroke="none">
<path d="M 14.757 3.109 C 14.683 3.362 14.415 3.506 14.162 3.432 C 13.907 3.357 13.763 3.090 13.837 2.837 C 14.266 1.387 13.857 0.995 12.973 0.958 C 11.961 0.918 10.461 1.488 9.192 2.372 C 7.817 3.331 6.690 4.607 6.035 5.845 C 5.596 6.671 5.317 7.400 5.491 7.961 C 5.714 8.686 6.894 9.387 8.426 10.011 C 10.008 10.654 11.831 11.225 13.298 12.077 C 14.858 12.983 16.058 14.293 16.496 15.750 C 16.763 16.641 16.867 17.654 16.368 18.524 C 15.788 19.545 14.509 20.154 13.006 20.597 C 10.673 21.291 7.793 21.548 5.247 21.560 L 1.987 21.389 C 1.134 21.276 0.491 21.247 0.099 20.732 C -0.063 20.520 -0.022 20.219 0.190 20.060 C 0.400 19.899 0.701 19.940 0.862 20.149 C 1.069 20.275 2.088 20.479 3.395 20.554 C 7.701 20.802 14.389 20.065 15.535 18.049 C 15.846 17.505 15.805 16.785 15.576 16.026 C 15.232 14.873 14.208 13.715 12.816 12.908 C 11.477 12.130 9.688 11.559 8.065 10.899 C 6.471 10.252 4.975 9.548 4.573 8.246 C 4.265 7.251 4.720 6.273 5.187 5.394 C 5.924 4.005 7.143 2.630 8.643 1.585 C 10.042 0.612 11.655 -0.055 13.011 0.000 C 13.671 0.029 14.324 0.279 14.673 0.840 C 15.025 1.411 15.027 2.196 14.757 3.109 Z"/>
</g>
</svg>
