<svg xmlns="http://www.w3.org/2000/svg" viewBox="0 0 13.875 21.513" width="13.875" height="21.513">
<g fill="black" stroke="none">
<path d="M 12.666 1.573 C 12.244 1.426 12.017 0.968 12.163 0.542 C 12.305 0.120 12.768 -0.103 13.190 0.043 C 13.466 0.136 13.887 0.526 13.875 0.980 C 13.859 1.674 13.486 1.828 13.202 2.072 L 9.348 4.972 C 7.944 6.157 6.974 7.853 6.536 9.326 C 6.110 10.758 6.808 11.954 8.126 13.249 C 9.064 14.174 10.398 14.953 11.242 16.251 L 11.989 18.336 C 12.110 19.423 11.177 20.162 10.277 20.539 L 7.173 21.249 L 3.071 21.513 C 1.769 21.387 0.418 20.653 0.029 19.200 C -0.089 18.770 0.167 18.324 0.597 18.210 C 1.027 18.093 1.473 18.348 1.587 18.778 C 1.798 19.561 2.288 19.813 3.226 19.906 L 6.995 19.643 L 9.652 19.050 L 10.382 18.515 L 9.887 17.131 C 9.315 16.251 8.090 15.484 6.991 14.401 C 5.502 12.936 4.345 11.021 4.986 8.867 C 5.510 7.106 6.609 5.167 8.301 3.735 L 11.526 1.325 L 12.326 0.680 L 12.273 0.838 L 12.277 1.094 L 12.488 1.463 L 12.666 1.573 Z"/>
</g>
</svg>
