<svg xmlns="http://www.w3.org/2000/svg" viewBox="0 0 4.235 7.005" width="4.235" height="7.005">
<g fill="black" stroke="none">
<path d="M 2.579 0.893 C 2.481 0.843 2.442 0.723 2.492 0.625 C 2.542 0.527 2.662 0.489 2.760 0.539 L 3.409 0.892 L 3.733 1.229 C 3.966 1.557 4.128 2.036 4.184 2.620 C 4.235 3.144 4.193 3.740 4.003 4.349 C 3.875 4.756 3.657 5.139 3.434 5.490 C 3.211 5.841 2.944 6.137 2.684 6.379 C 2.365 6.677 2.032 6.871 1.704 6.935 C 1.341 7.005 0.990 6.855 0.737 6.602 C 0.480 6.344 0.294 5.984 0.171 5.583 C 0.058 5.216 0.017 4.817 0.000 4.420 L 0.001 3.505 C 0.090 2.430 0.680 1.521 1.316 0.904 C 1.625 0.605 1.940 0.378 2.225 0.237 C 2.497 0.103 2.768 0.000 2.987 0.177 C 3.073 0.247 3.086 0.372 3.017 0.458 C 2.948 0.543 2.822 0.556 2.737 0.487 C 2.604 0.472 2.008 0.756 1.487 1.297 C 0.946 1.859 0.472 2.647 0.398 3.538 L 0.398 4.403 L 0.551 5.466 C 0.661 5.821 0.825 6.125 1.019 6.320 C 1.204 6.506 1.407 6.586 1.629 6.544 C 1.859 6.499 2.133 6.348 2.413 6.087 L 3.098 5.276 C 3.312 4.939 3.512 4.583 3.622 4.229 C 3.796 3.677 3.833 3.133 3.787 2.658 C 3.736 2.129 3.587 1.712 3.408 1.460 L 3.166 1.208 L 2.579 0.893 Z"/>
</g>
</svg>
