<svg xmlns="http://www.w3.org/2000/svg" viewBox="0 0 22.734 31.963" width="22.734" height="31.963">
<g fill="black" stroke="none">
<path d="M 15.985 5.769 C 15.902 6.046 15.611 6.202 15.335 6.117 C 15.058 6.033 14.902 5.742 14.987 5.467 C 15.435 3.981 15.189 2.604 14.559 1.803 C 13.958 1.037 12.998 0.749 11.838 1.311 C 11.179 1.628 10.461 2.245 9.721 3.110 L 7.375 6.513 C 5.287 10.063 3.248 14.744 2.023 19.372 C 1.322 21.980 1.055 24.488 1.045 26.537 C 1.037 27.846 1.214 28.864 1.574 29.546 C 1.912 30.194 2.416 30.575 3.151 30.727 C 4.117 30.908 5.198 31.047 6.430 30.732 C 8.845 30.108 11.588 27.718 14.236 25.338 C 15.755 23.971 17.153 22.515 18.327 21.072 C 20.072 18.923 21.186 16.898 21.551 14.901 C 21.845 13.309 21.659 11.650 21.118 10.018 C 20.551 8.280 19.334 6.636 18.307 5.202 L 16.639 2.820 L 16.589 2.764 L 16.791 2.730 L 16.815 2.717 C 16.637 3.032 16.571 4.440 16.896 5.863 C 16.962 6.144 16.786 6.424 16.503 6.487 C 16.222 6.553 15.942 6.377 15.879 6.096 C 15.608 4.921 15.534 3.798 15.671 2.951 C 15.735 2.543 15.818 2.168 16.159 1.898 L 16.854 1.752 L 17.398 2.103 L 19.158 4.593 C 20.184 6.028 21.475 7.736 22.112 9.693 C 22.694 11.456 22.910 13.298 22.579 15.090 C 22.173 17.321 20.953 19.498 19.137 21.731 C 17.927 23.224 16.493 24.716 14.934 26.115 C 12.271 28.511 9.495 31.021 6.691 31.745 C 5.244 32.112 3.975 31.947 2.946 31.753 C 1.934 31.543 1.118 30.926 0.648 30.035 C 0.171 29.124 -0.010 27.941 0.000 26.532 C 0.010 24.399 0.286 21.807 1.013 19.104 C 2.264 14.366 4.334 9.620 6.473 5.983 C 8.086 3.236 9.663 1.195 11.381 0.369 C 12.909 -0.368 14.511 0.052 15.383 1.158 C 16.264 2.281 16.519 4.011 15.985 5.769 Z"/>
</g>
</svg>
