<svg xmlns="http://www.w3.org/2000/svg" viewBox="0 0 7.654 12.505" width="7.654" height="12.505">
<g fill="black" stroke="none">
<path d="M 4.695 1.474 C 4.517 1.383 4.446 1.164 4.537 0.986 C 4.628 0.807 4.846 0.738 5.025 0.829 L 6.206 1.472 L 6.796 2.085 C 7.220 2.682 7.515 3.555 7.617 4.618 C 7.710 5.572 7.634 6.657 7.288 7.765 C 7.055 8.506 6.658 9.204 6.252 9.843 C 5.846 10.482 5.360 11.021 4.886 11.461 C 4.306 12.004 3.699 12.357 3.102 12.473 C 2.441 12.601 1.802 12.328 1.342 11.867 C 0.874 11.397 0.535 10.742 0.311 10.012 C 0.106 9.344 0.031 8.617 0.000 7.895 L 0.002 6.229 C 0.164 4.272 1.238 2.617 2.396 1.494 C 2.958 0.949 3.532 0.536 4.051 0.279 C 4.546 0.035 5.039 -0.152 5.438 0.170 C 5.595 0.298 5.618 0.525 5.493 0.682 C 5.367 0.836 5.138 0.860 4.983 0.734 C 4.741 0.707 3.656 1.224 2.707 2.209 C 1.722 3.232 0.859 4.667 0.725 6.289 L 0.725 7.864 L 1.003 9.799 C 1.203 10.445 1.502 10.999 1.855 11.354 C 2.192 11.692 2.562 11.838 2.966 11.762 C 3.384 11.680 3.883 11.405 4.393 10.930 L 5.640 9.453 C 6.030 8.840 6.394 8.191 6.594 7.547 C 6.911 6.542 6.978 5.552 6.894 4.687 C 6.802 3.724 6.530 2.965 6.204 2.506 L 5.764 2.047 L 4.695 1.474 Z"/>
</g>
</svg>
