<svg xmlns="http://www.w3.org/2000/svg" viewBox="0 0 19.057 31.963" width="19.057" height="31.963">
<g fill="black" stroke="none">
<path d="M 11.321 9.454 C 11.201 9.728 10.885 9.852 10.611 9.733 C 10.338 9.613 10.213 9.297 10.333 9.023 C 10.733 8.101 11.458 6.098 11.783 4.306 C 11.916 3.572 11.938 2.966 11.799 2.514 C 11.581 1.804 10.855 1.277 10.064 1.111 C 9.283 0.949 8.143 1.499 6.995 2.703 C 5.777 3.978 4.588 5.870 3.603 8.149 C 2.399 10.927 1.508 14.372 1.223 18.023 C 1.067 20.062 0.999 22.122 1.221 23.965 C 1.605 27.176 3.720 29.587 5.836 30.527 C 6.806 30.941 7.848 31.011 8.893 30.676 C 11.185 29.964 13.453 26.772 15.178 23.234 C 16.347 20.847 17.072 18.210 17.552 15.831 C 17.960 13.795 18.122 12.066 17.830 10.550 C 17.167 7.110 14.639 4.435 12.487 3.410 C 10.582 2.505 9.499 2.871 10.582 5.597 C 10.693 5.873 10.557 6.186 10.281 6.298 C 10.005 6.406 9.691 6.273 9.580 5.995 C 8.930 4.357 8.922 3.001 9.745 2.330 C 10.957 1.339 12.990 2.164 14.774 3.608 C 16.628 5.107 18.334 7.462 18.889 10.345 C 19.221 12.072 19.030 13.942 18.607 16.043 C 18.120 18.482 17.373 21.201 16.147 23.708 C 14.371 27.351 12.097 30.811 9.220 31.704 C 7.934 32.118 6.600 32.023 5.406 31.515 C 2.930 30.413 0.583 27.701 0.150 24.096 C -0.086 22.138 -0.013 20.016 0.150 17.940 C 0.442 14.167 1.359 10.617 2.612 7.721 C 4.640 3.028 7.579 -0.502 10.284 0.056 C 11.386 0.284 12.469 1.025 12.828 2.197 C 13.047 2.906 12.990 3.678 12.844 4.495 C 12.495 6.425 11.756 8.450 11.321 9.454 Z"/>
</g>
</svg>
