<svg xmlns="http://www.w3.org/2000/svg" viewBox="0 0 7.317 12.686" width="7.317" height="12.686">
<g fill="black" stroke="none">
<path d="M 4.498 0.687 C 4.365 0.812 4.155 0.806 4.030 0.672 C 3.904 0.538 3.912 0.328 4.045 0.203 C 4.240 0.020 4.546 -0.050 4.784 0.036 L 5.354 0.488 L 5.929 1.292 L 6.571 2.654 L 7.109 4.478 C 7.267 5.290 7.319 6.195 7.317 7.074 C 7.316 7.930 7.249 8.771 7.056 9.530 C 6.913 10.090 6.640 10.554 6.367 10.952 C 5.900 11.632 5.341 12.185 4.678 12.483 C 4.257 12.671 3.805 12.703 3.397 12.679 C 2.883 12.649 2.348 12.526 1.877 12.198 C 1.366 11.843 0.991 11.297 0.691 10.713 L 0.210 9.285 L 0.000 7.395 L 0.002 5.948 L 0.215 5.069 L 0.641 3.673 L 1.119 2.374 C 1.497 1.478 1.888 0.904 2.373 0.632 C 2.843 0.369 3.376 0.466 3.804 0.692 C 3.967 0.777 4.028 0.979 3.943 1.140 C 3.857 1.302 3.657 1.365 3.494 1.279 C 3.176 1.110 2.939 1.075 2.698 1.210 C 2.423 1.364 2.080 1.805 1.730 2.631 L 1.266 3.896 L 0.851 5.260 L 0.663 6.003 L 0.663 7.387 L 0.856 9.141 L 1.281 10.410 C 1.550 10.936 1.882 11.394 2.255 11.654 C 2.601 11.893 3.001 11.992 3.436 12.017 L 4.406 11.877 C 4.921 11.647 5.401 11.187 5.820 10.576 C 6.072 10.211 6.298 9.817 6.411 9.367 C 6.586 8.683 6.653 7.892 6.653 7.072 L 6.458 4.604 L 5.954 2.892 L 5.352 1.622 L 4.846 0.912 L 4.560 0.659 L 4.498 0.687 Z"/>
</g>
</svg>
