<svg xmlns="http://www.w3.org/2000/svg" viewBox="0 0 4.575 7.510" width="4.575" height="7.510">
<g fill="black" stroke="none">
<path d="M 2.079 0.423 C 2.088 0.533 2.007 0.629 1.897 0.638 C 1.787 0.647 1.691 0.565 1.682 0.455 C 1.670 0.303 1.768 0.203 1.860 0.142 L 2.191 0.029 C 2.303 0.017 2.480 0.000 2.671 0.085 C 2.998 0.231 3.318 0.560 3.632 1.002 C 3.909 1.393 4.177 1.887 4.340 2.481 C 4.532 3.178 4.575 3.941 4.476 4.523 L 4.361 4.705 L 4.120 4.718 L 4.297 4.361 C 4.421 4.422 4.413 4.517 4.414 4.554 C 4.418 4.753 4.318 4.934 4.279 5.070 C 4.226 5.254 4.118 5.264 4.101 5.282 L 3.797 5.980 C 3.637 6.381 3.363 6.703 3.148 6.965 C 2.950 7.205 2.700 7.321 2.492 7.383 C 2.225 7.461 1.952 7.510 1.677 7.435 C 1.345 7.345 1.027 7.140 0.776 6.832 C 0.575 6.586 0.421 6.281 0.304 5.929 L 0.096 4.994 L 0.011 3.991 L 0.000 3.074 L 0.148 1.972 L 0.399 1.144 C 0.489 0.922 0.632 0.769 0.748 0.653 C 1.066 0.337 1.446 0.200 1.788 0.207 C 2.122 0.214 2.420 0.345 2.624 0.536 C 2.705 0.611 2.709 0.737 2.634 0.818 C 2.558 0.898 2.432 0.902 2.352 0.827 C 2.087 0.579 1.508 0.459 1.029 0.936 L 0.769 1.293 L 0.536 2.064 L 0.398 3.090 L 0.409 3.975 L 0.490 4.935 L 0.682 5.804 L 1.084 6.581 C 1.286 6.828 1.532 6.983 1.782 7.051 C 1.952 7.097 2.143 7.070 2.380 7.000 C 2.542 6.953 2.705 6.876 2.840 6.712 C 3.054 6.451 3.297 6.157 3.427 5.832 C 3.546 5.536 3.603 5.232 3.810 5.010 L 3.909 4.924 L 3.918 4.916 L 3.896 4.959 L 3.987 4.668 L 4.015 4.562 L 4.025 4.610 L 4.052 4.661 L 4.120 4.718 C 4.021 4.669 3.981 4.549 4.030 4.451 C 4.079 4.352 4.198 4.312 4.297 4.361 L 4.227 4.345 L 4.163 4.360 L 4.100 4.415 L 4.083 4.456 C 4.169 3.950 4.131 3.224 3.956 2.587 C 3.807 2.045 3.563 1.593 3.307 1.232 C 3.018 0.825 2.720 0.543 2.509 0.449 L 2.235 0.425 L 2.080 0.474 L 2.066 0.484 L 2.075 0.465 L 2.079 0.423 Z"/>
</g>
</svg>
