<svg xmlns="http://www.w3.org/2000/svg" viewBox="0 0 4.395 7.658" width="4.395" height="7.658">
<g fill="black" stroke="none">
<path d="M 2.701 0.443 C 2.621 0.518 2.495 0.514 2.420 0.434 C 2.344 0.353 2.349 0.227 2.429 0.152 C 2.546 0.042 2.730 0.000 2.873 0.052 L 3.215 0.323 L 3.560 0.806 L 3.946 1.624 L 4.269 2.719 C 4.364 3.207 4.395 3.750 4.394 4.278 C 4.393 4.792 4.353 5.297 4.237 5.753 C 4.151 6.089 3.987 6.368 3.823 6.607 C 3.543 7.015 3.207 7.347 2.809 7.526 C 2.556 7.639 2.285 7.658 2.040 7.644 C 1.731 7.626 1.410 7.552 1.127 7.355 C 0.820 7.142 0.595 6.814 0.415 6.463 L 0.126 5.606 L 0.000 4.471 L 0.001 3.602 L 0.129 3.074 L 0.385 2.236 L 0.672 1.456 C 0.899 0.918 1.134 0.573 1.425 0.410 C 1.707 0.252 2.027 0.310 2.284 0.446 C 2.382 0.497 2.419 0.618 2.368 0.715 C 2.316 0.812 2.196 0.850 2.098 0.798 C 1.907 0.697 1.765 0.676 1.620 0.757 C 1.455 0.849 1.249 1.114 1.039 1.610 L 0.760 2.370 L 0.511 3.189 L 0.398 3.635 L 0.398 4.466 L 0.514 5.519 L 0.769 6.281 C 0.931 6.597 1.130 6.872 1.354 7.028 C 1.562 7.172 1.802 7.231 2.063 7.246 L 2.646 7.162 C 2.955 7.024 3.243 6.748 3.495 6.381 C 3.646 6.162 3.782 5.925 3.850 5.655 C 3.955 5.244 3.995 4.769 3.995 4.277 L 3.878 2.795 L 3.575 1.767 L 3.214 1.004 L 2.910 0.578 L 2.738 0.426 L 2.701 0.443 Z"/>
</g>
</svg>
