<svg xmlns="http://www.w3.org/2000/svg" viewBox="0 0 7.310 12.508" width="7.310" height="12.508">
<g fill="black" stroke="none">
<path d="M 4.402 0.534 C 4.299 0.375 4.342 0.161 4.501 0.057 C 4.660 -0.048 4.872 -0.005 4.977 0.154 C 5.392 0.783 5.679 0.776 6.019 0.745 L 6.580 0.736 C 6.822 0.791 7.047 1.014 7.147 1.297 C 7.377 1.945 7.316 2.826 7.256 3.838 L 7.017 6.571 C 6.758 8.106 6.031 9.490 5.368 10.551 C 4.777 11.496 4.105 12.095 3.418 12.352 C 3.027 12.497 2.608 12.567 2.196 12.449 C 1.466 12.242 0.915 11.534 0.549 10.651 C 0.279 10.003 0.217 9.269 0.137 8.601 C 0.030 7.683 -0.059 6.837 0.049 5.994 C 0.162 5.135 0.422 4.280 0.825 3.484 L 1.727 2.118 C 3.235 0.278 5.383 -0.186 6.485 0.568 C 6.643 0.675 6.682 0.890 6.575 1.047 C 6.468 1.204 6.254 1.244 6.097 1.137 C 5.786 0.922 5.169 0.843 4.473 1.035 C 3.744 1.237 2.941 1.722 2.259 2.553 L 1.440 3.793 C 1.072 4.521 0.834 5.301 0.733 6.082 C 0.637 6.823 0.714 7.614 0.821 8.521 C 0.901 9.191 0.970 9.874 1.184 10.387 C 1.504 11.155 1.965 11.668 2.385 11.787 L 3.178 11.706 C 3.684 11.518 4.250 11.040 4.784 10.186 C 5.421 9.167 6.102 7.853 6.339 6.457 L 6.568 3.797 C 6.629 2.798 6.648 1.952 6.499 1.527 L 6.430 1.408 L 6.081 1.430 L 5.285 1.335 C 4.976 1.207 4.675 0.945 4.402 0.534 Z"/>
</g>
</svg>
