<svg xmlns="http://www.w3.org/2000/svg" viewBox="0 0 18.340 31.796" width="18.340" height="31.796">
<g fill="black" stroke="none">
<path d="M 11.274 1.723 C 10.940 2.036 10.414 2.019 10.101 1.685 C 9.784 1.347 9.805 0.821 10.138 0.508 C 10.627 0.049 11.395 -0.126 11.992 0.091 L 13.419 1.222 L 14.859 3.238 L 16.470 6.652 L 17.818 11.223 C 18.215 13.260 18.344 15.526 18.340 17.730 C 18.336 19.875 18.169 21.983 17.685 23.886 C 17.326 25.289 16.641 26.453 15.957 27.451 C 14.788 29.154 13.386 30.540 11.725 31.287 C 10.669 31.758 9.537 31.838 8.515 31.779 C 7.225 31.704 5.885 31.395 4.704 30.573 C 3.423 29.684 2.483 28.315 1.732 26.850 L 0.526 23.273 L 0.000 18.535 L 0.004 14.908 L 0.538 12.704 L 1.607 9.207 L 2.805 5.951 C 3.752 3.706 4.733 2.266 5.948 1.585 C 7.125 0.926 8.461 1.168 9.533 1.735 C 9.942 1.948 10.097 2.453 9.884 2.858 C 9.667 3.263 9.166 3.422 8.757 3.205 C 7.960 2.783 7.367 2.695 6.762 3.034 C 6.073 3.418 5.213 4.524 4.337 6.594 L 3.172 9.766 L 2.133 13.185 L 1.661 15.046 L 1.661 18.515 L 2.145 22.910 L 3.210 26.090 C 3.886 27.409 4.717 28.557 5.651 29.208 C 6.520 29.809 7.521 30.055 8.611 30.118 L 11.044 29.767 C 12.334 29.191 13.536 28.039 14.588 26.508 C 15.218 25.594 15.786 24.604 16.070 23.477 C 16.508 21.762 16.675 19.779 16.675 17.726 L 16.186 11.540 L 14.922 7.249 L 13.415 4.064 L 12.146 2.286 L 11.428 1.652 L 11.274 1.723 Z"/>
</g>
</svg>
