<svg xmlns="http://www.w3.org/2000/svg" viewBox="0 0 4.305 7.383" width="4.305" height="7.383">
<g fill="black" stroke="none">
<path d="M 2.583 0.417 C 2.523 0.325 2.548 0.201 2.640 0.141 C 2.732 0.080 2.855 0.105 2.916 0.197 C 3.156 0.561 3.322 0.557 3.519 0.539 L 3.844 0.534 C 3.984 0.566 4.114 0.695 4.172 0.859 C 4.305 1.234 4.270 1.744 4.235 2.330 L 4.097 3.912 C 3.947 4.801 3.526 5.602 3.142 6.216 C 2.800 6.763 2.411 7.110 2.013 7.259 C 1.787 7.343 1.544 7.383 1.306 7.315 C 0.883 7.195 0.564 6.785 0.352 6.274 C 0.196 5.899 0.160 5.474 0.114 5.087 C 0.052 4.556 0.000 4.066 0.063 3.578 C 0.128 3.081 0.279 2.586 0.512 2.125 L 1.034 1.334 C 1.907 0.269 3.151 0.000 3.789 0.437 C 3.880 0.499 3.903 0.623 3.841 0.714 C 3.779 0.805 3.655 0.828 3.564 0.766 C 3.384 0.642 3.027 0.596 2.624 0.707 C 2.202 0.824 1.737 1.105 1.342 1.586 L 0.868 2.304 C 0.655 2.725 0.517 3.177 0.459 3.629 C 0.403 4.058 0.448 4.516 0.510 5.041 C 0.556 5.429 0.596 5.824 0.720 6.121 C 0.905 6.566 1.172 6.863 1.415 6.932 L 1.874 6.885 C 2.167 6.776 2.495 6.499 2.804 6.005 C 3.173 5.415 3.567 4.654 3.704 3.846 L 3.837 2.306 C 3.872 1.728 3.883 1.238 3.797 0.992 L 3.757 0.923 L 3.555 0.936 L 3.094 0.881 C 2.915 0.807 2.741 0.655 2.583 0.417 Z"/>
</g>
</svg>
