<svg xmlns="http://www.w3.org/2000/svg" viewBox="0 0 18.323 31.351" width="18.323" height="31.351">
<g fill="black" stroke="none">
<path d="M 11.034 1.338 C 10.774 0.940 10.882 0.403 11.280 0.143 C 11.679 -0.121 12.211 -0.013 12.475 0.385 C 13.514 1.961 14.233 1.944 15.086 1.866 L 16.493 1.844 C 17.099 1.983 17.662 2.542 17.913 3.252 C 18.489 4.875 18.337 7.083 18.186 9.620 L 17.588 16.469 C 16.939 20.318 15.116 23.786 13.454 26.444 C 11.973 28.812 10.289 30.315 8.566 30.960 C 7.587 31.323 6.535 31.496 5.505 31.202 C 3.674 30.683 2.293 28.907 1.375 26.695 C 0.699 25.072 0.544 23.232 0.344 21.556 C 0.076 19.257 -0.149 17.136 0.124 15.023 C 0.405 12.871 1.059 10.728 2.068 8.733 L 4.327 5.308 C 8.107 0.697 13.493 -0.467 16.255 1.425 C 16.649 1.693 16.748 2.230 16.480 2.624 C 16.212 3.018 15.675 3.117 15.281 2.849 C 14.502 2.312 12.956 2.113 11.211 2.593 C 9.384 3.100 7.371 4.317 5.661 6.399 L 3.609 9.507 C 2.687 11.330 2.089 13.287 1.838 15.244 C 1.596 17.101 1.790 19.084 2.059 21.357 C 2.258 23.037 2.431 24.747 2.968 26.033 C 3.769 27.959 4.925 29.245 5.977 29.544 L 7.964 29.340 C 9.233 28.869 10.653 27.669 11.990 25.531 C 13.588 22.976 15.294 19.682 15.887 16.183 L 16.463 9.516 C 16.614 7.014 16.662 4.892 16.290 3.827 L 16.116 3.529 L 15.242 3.585 L 13.246 3.347 C 12.471 3.026 11.718 2.368 11.034 1.338 Z"/>
</g>
</svg>
