<svg xmlns="http://www.w3.org/2000/svg" viewBox="0 0 19.269 31.721" width="19.269" height="31.721">
<g fill="black" stroke="none">
<path d="M 8.849 1.719 C 8.887 2.187 8.542 2.596 8.074 2.634 C 7.606 2.672 7.197 2.323 7.159 1.855 C 7.108 1.208 7.525 0.783 7.916 0.523 L 9.325 0.042 C 9.802 -0.009 10.555 -0.081 11.368 0.280 C 12.760 0.902 14.122 2.302 15.458 4.183 C 16.637 5.847 17.778 7.950 18.472 10.478 C 19.289 13.445 19.472 16.692 19.051 19.169 L 18.561 19.944 L 17.535 19.999 L 18.289 18.480 C 18.817 18.739 18.783 19.144 18.787 19.301 C 18.804 20.148 18.378 20.919 18.212 21.497 C 17.987 22.281 17.527 22.323 17.455 22.400 L 16.161 25.370 C 15.480 27.077 14.314 28.448 13.398 29.563 C 12.556 30.584 11.492 31.078 10.606 31.342 C 9.470 31.674 8.308 31.882 7.138 31.563 C 5.725 31.180 4.371 30.308 3.303 28.997 C 2.447 27.950 1.792 26.652 1.294 25.153 L 0.409 21.174 L 0.047 16.905 L 0.000 13.002 L 0.630 8.312 L 1.698 4.788 C 2.081 3.843 2.690 3.192 3.184 2.698 C 4.537 1.353 6.154 0.770 7.610 0.800 C 9.032 0.829 10.300 1.387 11.168 2.200 C 11.513 2.519 11.530 3.055 11.211 3.400 C 10.887 3.741 10.351 3.758 10.011 3.438 C 8.883 2.383 6.418 1.872 4.380 3.902 L 3.273 5.422 L 2.281 8.703 L 1.694 13.070 L 1.741 16.837 L 2.086 20.923 L 2.903 24.621 L 4.614 27.928 C 5.473 28.980 6.520 29.639 7.585 29.929 C 8.308 30.125 9.121 30.010 10.130 29.712 C 10.819 29.512 11.513 29.184 12.088 28.486 C 12.998 27.375 14.033 26.124 14.586 24.741 C 15.092 23.481 15.335 22.187 16.216 21.242 L 16.637 20.876 L 16.676 20.842 L 16.582 21.025 L 16.969 19.786 L 17.089 19.335 L 17.131 19.540 L 17.246 19.757 L 17.535 19.999 C 17.114 19.791 16.944 19.280 17.152 18.863 C 17.361 18.441 17.867 18.271 18.289 18.480 L 17.991 18.412 L 17.718 18.475 L 17.450 18.710 L 17.378 18.884 C 17.744 16.730 17.582 13.640 16.837 10.929 C 16.203 8.622 15.165 6.699 14.075 5.162 C 12.845 3.430 11.577 2.230 10.679 1.830 L 9.513 1.727 L 8.853 1.936 L 8.793 1.979 L 8.832 1.898 L 8.849 1.719 Z"/>
</g>
</svg>
