<svg xmlns="http://www.w3.org/2000/svg" viewBox="0 0 7.688 12.656" width="7.688" height="12.656">
<g fill="black" stroke="none">
<path d="M 3.530 0.686 C 3.546 0.873 3.408 1.036 3.221 1.051 C 3.035 1.066 2.872 0.927 2.856 0.740 C 2.836 0.482 3.002 0.312 3.159 0.209 L 3.721 0.017 C 3.911 -0.004 4.211 -0.032 4.536 0.112 C 5.091 0.360 5.634 0.918 6.168 1.669 C 6.638 2.333 7.093 3.172 7.370 4.181 C 7.696 5.364 7.769 6.660 7.601 7.648 L 7.406 7.957 L 6.996 7.979 L 7.297 7.373 C 7.507 7.477 7.494 7.638 7.496 7.701 C 7.502 8.039 7.333 8.346 7.266 8.577 C 7.176 8.890 6.993 8.906 6.964 8.937 L 6.448 10.122 C 6.176 10.803 5.711 11.350 5.346 11.795 C 5.009 12.203 4.585 12.400 4.232 12.505 C 3.778 12.637 3.315 12.720 2.848 12.593 C 2.284 12.440 1.744 12.092 1.318 11.569 C 0.976 11.151 0.715 10.633 0.516 10.036 L 0.163 8.448 L 0.019 6.745 L 0.000 5.188 L 0.251 3.316 L 0.678 1.910 C 0.830 1.533 1.073 1.273 1.270 1.076 C 1.810 0.540 2.456 0.307 3.036 0.319 C 3.603 0.331 4.109 0.553 4.456 0.878 C 4.593 1.005 4.600 1.219 4.473 1.357 C 4.344 1.492 4.130 1.499 3.994 1.372 C 3.544 0.951 2.561 0.747 1.747 1.557 L 1.306 2.163 L 0.910 3.472 L 0.676 5.215 L 0.695 6.718 L 0.832 8.348 L 1.158 9.823 L 1.841 11.143 C 2.184 11.562 2.602 11.826 3.026 11.941 C 3.315 12.019 3.639 11.973 4.042 11.854 C 4.317 11.775 4.593 11.644 4.823 11.365 C 5.186 10.922 5.599 10.423 5.820 9.871 C 6.022 9.368 6.118 8.852 6.470 8.475 L 6.638 8.329 L 6.653 8.316 L 6.616 8.389 L 6.770 7.894 L 6.818 7.714 L 6.835 7.796 L 6.881 7.883 L 6.996 7.979 C 6.828 7.896 6.760 7.692 6.843 7.526 C 6.927 7.358 7.129 7.290 7.297 7.373 L 7.178 7.346 L 7.069 7.371 L 6.962 7.465 L 6.933 7.534 C 7.080 6.675 7.015 5.442 6.718 4.361 C 6.465 3.440 6.050 2.673 5.616 2.060 C 5.125 1.368 4.619 0.890 4.261 0.730 L 3.795 0.689 L 3.532 0.772 L 3.508 0.789 L 3.524 0.757 L 3.530 0.686 Z"/>
</g>
</svg>
