<svg xmlns="http://www.w3.org/2000/svg" viewBox="0 0 19.183 31.342" width="19.183" height="31.342">
<g fill="black" stroke="none">
<path d="M 11.768 3.693 C 11.321 3.465 11.143 2.918 11.371 2.471 C 11.599 2.023 12.147 1.850 12.594 2.078 L 15.555 3.689 L 17.034 5.227 C 18.097 6.723 18.836 8.909 19.092 11.574 C 19.324 13.965 19.133 16.684 18.266 19.463 C 17.682 21.320 16.687 23.068 15.669 24.670 C 14.652 26.271 13.433 27.622 12.247 28.726 C 10.792 30.086 9.272 30.971 7.775 31.263 C 6.119 31.583 4.517 30.898 3.363 29.744 C 2.190 28.566 1.342 26.924 0.780 25.094 C 0.265 23.419 0.078 21.599 0.000 19.787 L 0.005 15.612 C 0.411 10.707 3.103 6.559 6.005 3.744 C 7.415 2.379 8.852 1.343 10.153 0.700 C 11.394 0.089 12.630 -0.381 13.630 0.426 C 14.022 0.746 14.081 1.316 13.767 1.709 C 13.452 2.096 12.877 2.156 12.489 1.841 C 11.882 1.772 9.163 3.068 6.785 5.537 C 4.317 8.101 2.154 11.697 1.816 15.763 L 1.816 19.710 L 2.514 24.560 C 3.016 26.180 3.764 27.567 4.650 28.457 C 5.494 29.306 6.420 29.671 7.433 29.479 C 8.483 29.274 9.733 28.585 11.011 27.394 L 14.136 23.693 C 15.113 22.155 16.025 20.531 16.527 18.916 C 17.321 16.397 17.490 13.915 17.280 11.747 C 17.047 9.333 16.368 7.431 15.551 6.281 L 14.446 5.131 L 11.768 3.693 Z"/>
</g>
</svg>
