<svg xmlns="http://www.w3.org/2000/svg" viewBox="0 0 3.912 6.688" width="3.912" height="6.688">
<g fill="black" stroke="none">
<path d="M 0.418 0.659 C 0.385 0.764 0.273 0.823 0.168 0.790 C 0.063 0.757 0.005 0.645 0.037 0.540 L 0.043 0.525 C 0.083 0.422 0.198 0.372 0.301 0.411 C 0.403 0.451 0.454 0.567 0.414 0.669 L 0.418 0.659 Z"/>
<path d="M 0.030 0.587 C 0.036 0.477 0.129 0.393 0.239 0.398 C 0.349 0.404 0.434 0.498 0.428 0.608 L 0.425 0.635 L 0.417 0.719 L 0.414 0.703 L 0.400 0.664 L 0.353 0.607 L 0.263 0.566 L 0.196 0.567 L 0.140 0.586 L 0.121 0.599 L 0.328 0.391 C 0.649 0.100 1.174 0.106 1.726 0.076 L 3.016 0.057 C 3.277 0.063 3.546 0.000 3.756 0.202 C 3.862 0.303 3.912 0.462 3.900 0.624 C 3.876 0.942 3.663 1.267 3.399 1.661 L 2.782 2.466 L 1.730 3.771 L 0.974 4.844 L 0.732 5.260 L 0.583 5.730 L 0.539 5.943 L 0.540 6.065 L 0.688 6.165 C 0.851 6.253 1.213 6.254 1.584 6.251 L 2.311 6.251 L 2.807 6.249 L 2.865 6.189 C 2.876 6.079 2.973 5.999 3.083 6.010 C 3.192 6.020 3.272 6.118 3.262 6.227 C 3.241 6.445 3.046 6.615 2.868 6.643 L 2.316 6.650 L 1.587 6.650 C 1.218 6.653 0.816 6.688 0.498 6.515 L 0.205 6.288 C 0.110 6.146 0.145 6.021 0.141 5.966 L 0.197 5.632 L 0.372 5.090 L 0.635 4.635 L 1.418 3.524 L 2.471 2.216 L 3.068 1.440 C 3.323 1.060 3.491 0.745 3.502 0.594 L 3.481 0.490 L 3.007 0.455 L 1.747 0.474 C 1.202 0.503 0.736 0.559 0.595 0.686 L 0.453 0.830 L 0.388 0.895 L 0.338 0.932 C 0.308 0.949 0.215 1.008 0.102 0.917 C 0.000 0.834 0.018 0.758 0.018 0.715 L 0.030 0.587 Z"/>
</g>
</svg>
