<svg xmlns="http://www.w3.org/2000/svg" viewBox="0 0 21.027 30.584" width="21.027" height="30.584">
<g fill="black" stroke="none">
<path d="M 1.978 2.039 C 2.277 2.097 2.470 2.388 2.412 2.686 C 2.354 2.984 2.064 3.177 1.765 3.119 C 1.083 2.986 0.630 2.882 0.287 2.592 L 0.000 2.020 C -0.003 1.576 0.313 1.390 0.536 1.266 C 1.224 0.895 2.341 0.702 3.694 0.514 C 7.802 -0.053 13.400 -0.459 17.254 1.019 C 18.897 1.653 20.130 2.816 20.534 4.338 C 20.851 5.523 20.752 6.965 20.030 8.598 C 18.480 12.120 14.706 15.964 11.502 19.749 L 7.899 24.175 L 5.368 27.659 L 4.415 29.474 L 4.379 29.358 L 4.523 29.408 L 7.056 29.485 C 10.987 29.179 16.107 28.029 20.202 25.654 C 20.465 25.498 20.802 25.590 20.953 25.852 C 21.105 26.114 21.017 26.451 20.754 26.604 C 16.452 29.098 11.215 30.265 7.133 30.584 L 4.794 30.582 L 3.868 30.325 C 3.586 30.170 3.299 29.825 3.315 29.430 C 3.343 28.684 3.841 27.993 4.448 27.056 L 7.029 23.501 L 10.665 19.036 C 13.888 15.226 17.607 11.366 19.025 8.154 C 19.663 6.705 19.721 5.556 19.470 4.620 C 19.168 3.482 18.260 2.586 16.859 2.048 C 13.386 0.716 7.865 1.050 3.846 1.605 L 1.047 2.241 L 1.009 2.269 L 1.067 2.180 L 1.099 1.970 L 1.041 1.807 L 1.000 1.754 L 1.978 2.039 Z"/>
</g>
</svg>
