<svg xmlns="http://www.w3.org/2000/svg" viewBox="0 0 7.088 12.046" width="7.088" height="12.046">
<g fill="black" stroke="none">
<path d="M 0.732 1.107 C 0.672 1.298 0.467 1.406 0.276 1.346 C 0.084 1.286 -0.021 1.081 0.037 0.890 L 0.048 0.862 C 0.121 0.674 0.331 0.583 0.519 0.654 C 0.705 0.727 0.798 0.939 0.725 1.125 L 0.732 1.107 Z"/>
<path d="M 0.024 0.975 C 0.035 0.775 0.205 0.621 0.405 0.631 C 0.606 0.642 0.761 0.813 0.750 1.014 L 0.745 1.063 L 0.730 1.216 L 0.725 1.187 L 0.699 1.116 L 0.613 1.012 L 0.449 0.937 L 0.327 0.939 L 0.225 0.974 L 0.190 0.997 L 0.568 0.618 C 1.154 0.087 2.111 0.098 3.119 0.043 L 5.472 0.008 C 5.948 0.019 6.439 -0.096 6.822 0.273 C 7.016 0.457 7.107 0.747 7.085 1.043 C 7.041 1.623 6.653 2.216 6.171 2.935 L 5.045 4.404 L 3.126 6.785 L 1.746 8.743 L 1.305 9.502 L 1.033 10.359 L 0.953 10.748 L 0.955 10.970 L 1.225 11.153 C 1.522 11.313 2.183 11.315 2.859 11.310 L 4.186 11.310 L 5.091 11.306 L 5.197 11.197 C 5.217 10.996 5.394 10.850 5.594 10.870 C 5.793 10.888 5.939 11.067 5.921 11.266 C 5.883 11.664 5.527 11.974 5.202 12.025 L 4.195 12.038 L 2.865 12.038 C 2.192 12.043 1.458 12.107 0.878 11.791 L 0.343 11.377 C 0.170 11.118 0.234 10.890 0.227 10.790 L 0.329 10.180 L 0.648 9.191 L 1.128 8.361 L 2.557 6.334 L 4.478 3.948 L 5.567 2.532 C 6.032 1.838 6.339 1.264 6.359 0.988 L 6.321 0.798 L 5.456 0.735 L 3.157 0.769 C 2.162 0.822 1.312 0.924 1.055 1.156 L 0.796 1.419 L 0.677 1.537 L 0.586 1.605 C 0.531 1.636 0.362 1.744 0.155 1.578 C -0.031 1.426 0.002 1.287 0.002 1.209 L 0.024 0.975 Z"/>
</g>
</svg>
