<svg xmlns="http://www.w3.org/2000/svg" viewBox="0 0 17.766 30.193" width="17.766" height="30.193">
<g fill="black" stroke="none">
<path d="M 1.835 2.774 C 1.684 3.254 1.172 3.524 0.692 3.373 C 0.211 3.222 -0.054 2.710 0.092 2.230 L 0.120 2.161 C 0.303 1.690 0.829 1.462 1.300 1.640 C 1.766 1.823 1.999 2.353 1.816 2.820 L 1.835 2.774 Z"/>
<path d="M 0.060 2.445 C 0.088 1.942 0.513 1.558 1.016 1.581 C 1.519 1.608 1.908 2.038 1.880 2.541 L 1.867 2.664 L 1.830 3.048 L 1.816 2.975 L 1.752 2.797 L 1.538 2.536 L 1.126 2.349 L 0.820 2.353 L 0.563 2.440 L 0.477 2.500 L 1.423 1.549 C 2.891 0.218 5.292 0.245 7.816 0.108 L 13.715 0.021 C 14.909 0.049 16.139 -0.239 17.099 0.684 C 17.584 1.146 17.813 1.873 17.758 2.614 C 17.648 4.068 16.674 5.554 15.467 7.356 L 12.645 11.037 L 7.835 17.005 L 4.377 21.912 L 3.271 23.814 L 2.589 25.964 L 2.388 26.938 L 2.393 27.496 L 3.069 27.953 C 3.815 28.355 5.470 28.360 7.167 28.346 L 10.491 28.346 L 12.760 28.337 L 13.025 28.063 C 13.075 27.560 13.519 27.194 14.022 27.244 C 14.520 27.290 14.886 27.738 14.840 28.237 C 14.744 29.233 13.853 30.011 13.039 30.139 L 10.514 30.171 L 7.181 30.171 C 5.493 30.185 3.655 30.345 2.201 29.554 L 0.861 28.515 C 0.426 27.866 0.586 27.294 0.568 27.043 L 0.824 25.516 L 1.624 23.037 L 2.827 20.956 L 6.408 15.876 L 11.223 9.894 L 13.953 6.346 C 15.119 4.608 15.888 3.167 15.938 2.477 L 15.842 2.001 L 13.674 1.841 L 7.912 1.928 C 5.420 2.061 3.289 2.317 2.644 2.898 L 1.995 3.556 L 1.698 3.853 L 1.469 4.023 C 1.332 4.100 0.906 4.370 0.390 3.954 C -0.077 3.574 0.006 3.227 0.006 3.030 L 0.060 2.445 Z"/>
</g>
</svg>
