<svg xmlns="http://www.w3.org/2000/svg" viewBox="0 0 5.330 12.720" width="5.330" height="12.720">
<g fill="black" stroke="none">
<path d="M 0.019 0.208 C 0.022 0.090 0.120 -0.003 0.238 0.000 C 0.355 0.002 0.449 0.100 0.446 0.217 L 0.426 1.447 C 0.426 1.564 0.331 1.661 0.213 1.661 C 0.095 1.661 0.000 1.565 0.000 1.447 L 0.000 1.263 L 0.426 1.263 L 0.426 1.923 L 0.426 3.632 L 0.426 6.368 L 0.446 6.991 L 0.460 7.185 L 0.481 9.882 L 0.456 11.552 L 0.439 12.266 L 0.443 12.441 L 0.420 12.392 L 0.374 12.344 L 0.281 12.307 L 0.186 12.315 L 0.132 12.344 L 0.094 12.380 L 0.109 12.341 L 0.358 11.531 C 0.391 11.419 0.510 11.355 0.622 11.388 C 0.736 11.421 0.800 11.540 0.767 11.652 L 0.504 12.500 L 0.402 12.674 C 0.354 12.714 0.195 12.750 0.111 12.681 C -0.015 12.577 0.024 12.526 0.019 12.481 L 0.028 11.635 L 0.055 9.882 L 0.035 7.213 L 0.019 7.006 L 0.000 6.373 L 0.000 3.632 L 0.000 1.921 L 0.000 1.263 C 0.000 1.146 0.095 1.049 0.213 1.050 C 0.331 1.050 0.426 1.146 0.426 1.263 L 0.426 1.447 L 0.000 1.447 L 0.019 0.208 Z"/>
<path d="M 4.535 5.840 C 4.423 5.874 4.304 5.811 4.270 5.697 C 4.236 5.585 4.299 5.466 4.412 5.432 L 4.707 5.363 L 4.837 5.379 L 4.984 5.573 L 4.910 5.774 L 4.558 6.092 L 3.982 6.686 C 3.326 7.355 2.610 7.923 2.156 8.457 L 1.715 9.183 L 1.618 9.521 L 1.726 9.649 L 2.077 9.860 L 2.544 9.994 C 3.133 10.200 3.692 10.622 4.178 10.938 L 4.770 11.262 L 4.946 11.265 C 5.015 11.169 5.149 11.149 5.243 11.220 C 5.338 11.289 5.359 11.422 5.289 11.517 C 5.138 11.723 4.855 11.738 4.636 11.666 C 3.956 11.441 3.164 10.663 2.403 10.396 L 1.880 10.239 L 1.461 9.983 C 1.332 9.881 1.203 9.741 1.193 9.544 C 1.181 9.345 1.260 9.187 1.315 9.037 C 1.419 8.752 1.593 8.462 1.832 8.181 C 2.326 7.600 3.043 7.033 3.678 6.388 L 4.281 5.768 L 4.507 5.574 L 4.584 5.499 L 4.576 5.512 L 4.565 5.541 L 4.558 5.592 L 4.572 5.666 L 4.614 5.731 L 4.661 5.767 L 4.719 5.787 L 4.737 5.788 L 4.535 5.840 Z"/>
</g>
</svg>
