<svg xmlns="http://www.w3.org/2000/svg" viewBox="0 0 14.164 31.821" width="14.164" height="31.821">
<g fill="black" stroke="none">
<path d="M 0.721 2.784 C 0.567 2.953 0.304 2.964 0.135 2.809 C -0.034 2.655 -0.047 2.392 0.108 2.223 L 1.103 0.829 L 1.485 0.287 C 1.620 0.133 1.875 -0.084 2.202 0.032 C 2.497 0.135 2.618 0.375 2.712 0.608 C 3.006 1.341 3.106 2.549 3.196 4.130 C 3.289 5.803 3.225 7.838 3.110 10.066 L 2.695 17.156 L 2.336 24.963 L 2.242 28.070 L 2.326 29.728 L 2.386 29.918 L 2.223 29.877 L 2.238 29.854 C 2.785 29.430 3.625 28.001 4.533 26.186 C 5.964 23.325 7.471 19.762 8.793 16.901 L 10.448 13.659 C 10.667 13.312 10.832 13.045 11.143 12.895 C 11.312 12.814 11.623 12.826 11.787 12.989 L 12.007 13.477 C 12.044 13.705 11.892 13.920 11.664 13.957 C 11.439 13.995 11.224 13.840 11.187 13.615 L 11.168 13.536 L 11.201 13.580 L 11.299 13.642 L 11.424 13.661 L 11.497 13.646 L 11.376 13.782 C 10.982 14.272 10.390 15.445 9.695 16.932 L 6.079 24.900 L 4.295 28.412 C 3.749 29.365 3.271 30.104 2.749 30.509 C 2.543 30.671 2.186 30.786 1.910 30.607 C 1.650 30.436 1.577 30.181 1.516 29.916 L 1.412 28.059 L 1.506 24.934 L 1.864 17.110 L 2.280 10.024 C 2.394 7.806 2.457 5.795 2.365 4.176 L 2.115 1.610 L 1.940 0.919 L 1.873 0.788 L 1.927 0.817 L 2.056 0.829 L 2.132 0.806 C 2.123 0.811 1.560 1.868 0.721 2.784 Z"/>
<path d="M 8.946 19.981 C 8.718 20.020 8.503 19.868 8.466 19.643 C 8.426 19.415 8.579 19.200 8.804 19.163 C 9.213 19.092 9.607 19.286 9.891 19.568 C 10.400 20.068 10.759 20.874 11.109 21.842 C 12.226 24.913 12.966 29.257 14.108 31.195 C 14.222 31.393 14.158 31.648 13.959 31.765 C 13.761 31.879 13.507 31.815 13.390 31.617 C 12.415 29.962 11.800 27.058 11.043 24.396 C 10.671 23.091 10.296 21.904 9.885 21.051 L 9.307 20.158 L 8.946 19.981 Z"/>
</g>
</svg>
