<svg xmlns="http://www.w3.org/2000/svg" viewBox="0 0 5.019 11.911" width="5.019" height="11.911">
<g fill="black" stroke="none">
<path d="M 0.032 0.197 C 0.035 0.087 0.126 0.000 0.236 0.003 C 0.346 0.005 0.433 0.096 0.431 0.206 L 0.412 1.354 C 0.412 1.464 0.323 1.554 0.213 1.554 C 0.103 1.554 0.014 1.465 0.014 1.354 L 0.014 1.183 L 0.412 1.183 L 0.412 1.799 L 0.412 3.395 L 0.412 5.951 L 0.431 6.532 L 0.444 6.714 L 0.463 9.233 L 0.440 10.792 L 0.424 11.459 L 0.428 11.623 L 0.406 11.577 L 0.363 11.532 L 0.276 11.497 L 0.188 11.505 L 0.137 11.532 L 0.102 11.566 L 0.116 11.529 L 0.348 10.773 C 0.379 10.668 0.490 10.608 0.595 10.639 C 0.701 10.670 0.761 10.781 0.730 10.886 L 0.485 11.678 L 0.389 11.840 C 0.345 11.878 0.196 11.911 0.118 11.847 C 0.000 11.750 0.036 11.702 0.032 11.660 L 0.040 10.870 L 0.065 9.233 L 0.047 6.740 L 0.032 6.546 L 0.014 5.955 L 0.014 3.395 L 0.014 1.797 L 0.014 1.183 C 0.014 1.073 0.103 0.983 0.213 0.984 C 0.323 0.984 0.412 1.073 0.412 1.183 L 0.412 1.354 L 0.014 1.354 L 0.032 0.197 Z"/>
<path d="M 4.250 5.457 C 4.145 5.489 4.034 5.430 4.002 5.324 C 3.970 5.219 4.029 5.108 4.135 5.076 L 4.410 5.012 L 4.532 5.027 L 4.669 5.208 L 4.600 5.396 L 4.271 5.693 L 3.733 6.248 C 3.120 6.872 2.452 7.403 2.028 7.902 L 1.616 8.580 L 1.525 8.895 L 1.626 9.015 L 1.954 9.212 L 2.390 9.337 C 2.940 9.530 3.462 9.924 3.916 10.219 L 4.469 10.521 L 4.633 10.524 C 4.698 10.435 4.823 10.416 4.911 10.482 C 5.000 10.547 5.019 10.671 4.954 10.760 C 4.813 10.952 4.548 10.966 4.344 10.899 C 3.709 10.689 2.969 9.962 2.258 9.713 L 1.770 9.566 L 1.379 9.327 C 1.258 9.232 1.138 9.101 1.128 8.917 C 1.117 8.731 1.191 8.583 1.242 8.443 C 1.339 8.177 1.502 7.906 1.725 7.644 C 2.186 7.101 2.856 6.572 3.449 5.969 L 4.012 5.390 L 4.223 5.209 L 4.295 5.139 L 4.288 5.151 L 4.278 5.178 L 4.271 5.226 L 4.284 5.295 L 4.323 5.356 L 4.367 5.389 L 4.421 5.408 L 4.438 5.409 L 4.250 5.457 Z"/>
</g>
</svg>
