<svg xmlns="http://www.w3.org/2000/svg" viewBox="0 0 18.991 31.893" width="18.991" height="31.893">
<g fill="none" stroke="black" stroke-width="0.638" stroke-linecap="round" stroke-linejoin="round">
<path d="M 18.368 31.305 L 18.186 30.966 L 18.145 30.890 L 18.089 30.786 L 18.021 30.660 L 17.946 30.521 L 17.867 30.374 L 17.785 30.222 L 17.703 30.069 L 17.620 29.915 L 17.537 29.761 L 17.454 29.607 L 17.371 29.452 L 17.288 29.298 L 17.205 29.143 L 17.121 28.989 L 17.038 28.834 L 16.956 28.680 L 16.873 28.525 L 16.791 28.370 L 16.710 28.215 L 16.629 28.059 L 16.550 27.903 L 16.472 27.746 L 16.395 27.588 L 16.319 27.430 L 16.244 27.272 L 16.170 27.113 L 16.096 26.954 L 16.022 26.795 L 15.948 26.636 L 15.875 26.476 L 15.801 26.317 L 15.727 26.158 L 15.654 25.999 L 15.580 25.840 L 15.507 25.680 L 15.434 25.521 L 15.361 25.362 L 15.288 25.202 L 15.217 25.042 L 15.146 24.881 L 15.076 24.721 L 15.006 24.560 L 14.938 24.398 L 14.870 24.237 L 14.802 24.075 L 14.734 23.913 L 14.667 23.751 L 14.600 23.589 L 14.532 23.427 L 14.465 23.265 L 14.398 23.103 L 14.330 22.941 L 14.263 22.780 L 14.196 22.618 L 14.128 22.456 L 14.061 22.294 L 13.994 22.132 L 13.927 21.970 L 13.859 21.808 L 13.792 21.646 L 13.725 21.484 L 13.658 21.322 L 13.591 21.160 L 13.525 20.997 L 13.460 20.834 L 13.395 20.671 L 13.332 20.508 L 13.270 20.344 L 13.210 20.179 L 13.150 20.014 L 13.092 19.849 L 13.033 19.684 L 12.976 19.518 L 12.918 19.353 L 12.860 19.187 L 12.803 19.021 L 12.745 18.856 L 12.688 18.690 L 12.630 18.524 L 12.573 18.358 L 12.515 18.193 L 12.458 18.027 L 12.400 17.861 L 12.343 17.696 L 12.285 17.530 L 12.228 17.364 L 12.170 17.199 L 12.113 17.033 L 12.055 16.867 L 11.998 16.702 L 11.940 16.536 L 11.883 16.370 L 11.825 16.205 L 11.768 16.039 L 11.710 15.873 L 11.652 15.708 L 11.594 15.543 L 11.535 15.378 L 11.474 15.214 L 11.410 15.052 L 11.344 14.892 L 11.273 14.735 L 11.199 14.580 L 11.124 14.428 L 11.050 14.276 L 10.983 14.123 L 10.926 13.968 L 10.881 13.810 L 10.850 13.647 L 10.830 13.480 L 10.819 13.310 L 10.815 13.137 L 10.814 12.964 L 10.815 12.789 L 10.815 12.615 L 10.812 12.441 L 10.806 12.269 L 10.793 12.098 L 10.773 11.929 L 10.747 11.764 L 10.716 11.605 L 10.683 11.456 L 10.652 11.321 L 10.626 11.210 L 10.608 11.129 L 10.585 10.758"/>
<path d="M 17.019 1.418 L 16.935 1.200 L 16.914 1.153 L 16.884 1.090 L 16.845 1.018 L 16.798 0.944 L 16.743 0.875 L 16.679 0.817 L 16.607 0.773 L 16.527 0.746 L 16.443 0.737 L 16.354 0.745 L 16.265 0.769 L 16.177 0.807 L 16.093 0.857 L 16.012 0.916 L 15.937 0.984 L 15.866 1.059 L 15.800 1.140 L 15.738 1.224 L 15.679 1.312 L 15.624 1.403 L 15.571 1.495 L 15.520 1.589 L 15.470 1.683 L 15.422 1.778 L 15.373 1.874 L 15.325 1.969 L 15.277 2.065 L 15.229 2.161 L 15.181 2.256 L 15.133 2.352 L 15.085 2.448 L 15.037 2.543 L 14.989 2.639 L 14.942 2.735 L 14.894 2.830 L 14.846 2.926 L 14.799 3.022 L 14.751 3.118 L 14.705 3.214 L 14.659 3.311 L 14.614 3.408 L 14.571 3.506 L 14.528 3.604 L 14.486 3.702 L 14.445 3.801 L 14.404 3.900 L 14.364 3.999 L 14.324 4.098 L 14.284 4.197 L 14.244 4.297 L 14.204 4.396 L 14.164 4.495 L 14.124 4.594 L 14.084 4.694 L 14.044 4.793 L 14.004 4.892 L 13.964 4.991 L 13.924 5.091 L 13.884 5.190 L 13.844 5.289 L 13.804 5.388 L 13.764 5.488 L 13.724 5.587 L 13.684 5.686 L 13.645 5.785 L 13.605 5.885 L 13.565 5.984 L 13.525 6.083 L 13.485 6.182 L 13.445 6.282 L 13.405 6.381 L 13.365 6.480 L 13.325 6.579 L 13.285 6.679 L 13.245 6.778 L 13.205 6.877 L 13.165 6.976 L 13.125 7.076 L 13.085 7.175 L 13.045 7.274 L 13.005 7.374 L 12.965 7.473 L 12.925 7.572 L 12.885 7.671 L 12.845 7.771 L 12.805 7.870 L 12.765 7.969 L 12.725 8.068 L 12.685 8.168 L 12.645 8.267 L 12.605 8.366 L 12.565 8.465 L 12.526 8.565 L 12.486 8.664 L 12.446 8.763 L 12.406 8.862 L 12.366 8.962 L 12.326 9.061 L 12.286 9.160 L 12.246 9.259 L 12.206 9.359 L 12.166 9.458 L 12.126 9.557 L 12.086 9.656 L 12.046 9.756 L 12.006 9.855 L 11.966 9.954 L 11.926 10.053 L 11.886 10.152 L 11.845 10.251 L 11.804 10.350 L 11.762 10.448 L 11.718 10.545 L 11.673 10.641 L 11.624 10.736 L 11.572 10.828 L 11.517 10.916 L 11.456 11.001 L 11.391 11.080 L 11.322 11.153 L 11.250 11.218 L 11.177 11.275 L 11.108 11.322 L 11.048 11.359 L 11.004 11.385 L 10.793 11.484"/>
<path d="M 0.623 0.795 L 0.723 1.527 L 0.732 1.691 L 0.744 1.918 L 0.755 2.190 L 0.767 2.492 L 0.781 2.811 L 0.800 3.140 L 0.826 3.473 L 0.859 3.807 L 0.900 4.142 L 0.947 4.477 L 0.998 4.812 L 1.053 5.147 L 1.109 5.482 L 1.166 5.816 L 1.223 6.151 L 1.281 6.485 L 1.339 6.820 L 1.397 7.154 L 1.454 7.489 L 1.512 7.823 L 1.570 8.158 L 1.628 8.492 L 1.685 8.827 L 1.743 9.161 L 1.799 9.496 L 1.856 9.831 L 1.911 10.166 L 1.964 10.501 L 2.015 10.836 L 2.064 11.172 L 2.110 11.508 L 2.153 11.845 L 2.193 12.182 L 2.230 12.519 L 2.264 12.857 L 2.295 13.195 L 2.323 13.533 L 2.349 13.871 L 2.374 14.210 L 2.398 14.548 L 2.420 14.887 L 2.442 15.226 L 2.462 15.564 L 2.481 15.903 L 2.499 16.242 L 2.516 16.581 L 2.532 16.920 L 2.548 17.259 L 2.563 17.599 L 2.577 17.938 L 2.592 18.277 L 2.606 18.616 L 2.620 18.955 L 2.635 19.294 L 2.649 19.633 L 2.663 19.973 L 2.678 20.312 L 2.692 20.651 L 2.706 20.990 L 2.721 21.329 L 2.735 21.668 L 2.749 22.008 L 2.764 22.347 L 2.778 22.686 L 2.792 23.025 L 2.807 23.364 L 2.821 23.703 L 2.837 24.042 L 2.853 24.381 L 2.871 24.719 L 2.894 25.057 L 2.922 25.392 L 2.959 25.722 L 3.010 26.042 L 3.078 26.347 L 3.169 26.624 L 3.286 26.862 L 3.430 27.046 L 3.600 27.163 L 3.790 27.206 L 3.994 27.173 L 4.203 27.069 L 4.411 26.904 L 4.613 26.693 L 4.807 26.449 L 4.993 26.183 L 5.170 25.902 L 5.339 25.612 L 5.501 25.316 L 5.657 25.016 L 5.808 24.713 L 5.956 24.408 L 6.101 24.101 L 6.245 23.794 L 6.388 23.486 L 6.530 23.178 L 6.672 22.870 L 6.813 22.561 L 6.953 22.252 L 7.092 21.942 L 7.229 21.632 L 7.364 21.320 L 7.497 21.008 L 7.628 20.695 L 7.758 20.382 L 7.887 20.068 L 8.016 19.753 L 8.143 19.439 L 8.271 19.124 L 8.399 18.810 L 8.526 18.495 L 8.654 18.181 L 8.781 17.866 L 8.909 17.552 L 9.037 17.237 L 9.165 16.923 L 9.293 16.609 L 9.423 16.298 L 9.554 15.990 L 9.688 15.689 L 9.824 15.401 L 9.959 15.134 L 10.088 14.899 L 10.201 14.707 L 10.286 14.572 L 10.793 14.079"/>
</g>
</svg>