<svg xmlns="http://www.w3.org/2000/svg" viewBox="0 0 13.360 31.881" width="13.360" height="31.881">
<g fill="black" stroke="none">
<path d="M 0.048 0.521 C 0.056 0.225 0.301 -0.008 0.596 0.000 C 0.891 0.005 1.124 0.250 1.119 0.545 L 1.068 3.625 C 1.068 3.921 0.829 4.162 0.534 4.162 C 0.239 4.162 0.000 3.923 0.000 3.625 L 0.000 3.167 L 1.068 3.167 L 1.068 4.820 L 1.068 9.103 L 1.068 15.962 L 1.119 17.521 L 1.154 18.009 L 1.205 24.769 L 1.143 28.953 L 1.100 30.743 L 1.111 31.183 L 1.052 31.060 L 0.937 30.939 L 0.703 30.845 L 0.467 30.866 L 0.330 30.939 L 0.236 31.030 L 0.274 30.931 L 0.896 28.902 C 0.979 28.620 1.277 28.459 1.559 28.542 C 1.844 28.626 2.005 28.923 1.921 29.205 L 1.264 31.331 L 1.006 31.765 C 0.888 31.867 0.488 31.956 0.279 31.784 C -0.038 31.524 0.059 31.395 0.048 31.282 L 0.070 29.162 L 0.137 24.769 L 0.089 18.079 L 0.048 17.559 L 0.000 15.973 L 0.000 9.103 L 0.000 4.814 L 0.000 3.167 C 0.000 2.871 0.239 2.630 0.534 2.633 C 0.829 2.633 1.068 2.871 1.068 3.167 L 1.068 3.625 L 0.000 3.625 L 0.048 0.521 Z"/>
<path d="M 11.368 14.636 C 11.086 14.722 10.788 14.564 10.702 14.279 C 10.616 13.997 10.774 13.700 11.059 13.614 L 11.797 13.442 L 12.124 13.482 L 12.492 13.968 L 12.307 14.472 L 11.424 15.269 L 9.980 16.759 C 8.335 18.433 6.543 19.858 5.405 21.197 L 4.299 23.017 L 4.055 23.862 L 4.326 24.184 L 5.206 24.713 L 6.376 25.048 C 7.852 25.566 9.253 26.624 10.471 27.415 L 11.955 28.226 L 12.395 28.234 C 12.570 27.995 12.905 27.944 13.141 28.121 C 13.380 28.295 13.431 28.628 13.257 28.867 C 12.878 29.382 12.167 29.420 11.620 29.240 C 9.916 28.677 7.930 26.726 6.022 26.057 L 4.712 25.663 L 3.663 25.022 C 3.338 24.767 3.016 24.415 2.989 23.921 C 2.960 23.422 3.159 23.025 3.295 22.649 C 3.556 21.935 3.993 21.208 4.592 20.505 C 5.829 19.048 7.627 17.628 9.218 16.010 L 10.729 14.456 L 11.295 13.971 L 11.488 13.783 L 11.470 13.815 L 11.443 13.887 L 11.424 14.016 L 11.459 14.201 L 11.563 14.365 L 11.682 14.454 L 11.826 14.505 L 11.872 14.507 L 11.368 14.636 Z"/>
</g>
</svg>
