<svg xmlns="http://www.w3.org/2000/svg" viewBox="0 0 18.991 31.893" width="18.991" height="31.893">
<g fill="black" stroke="none">
<path d="M 2.165 2.350 C 2.267 2.608 2.142 2.896 1.887 2.999 C 1.631 3.102 1.340 2.976 1.238 2.721 L 0.373 0.914 L 0.481 0.970 L 0.601 0.990 L 0.864 0.899 L 0.965 0.787 L 0.982 0.749 L 0.995 1.370 L 1.606 4.956 L 2.540 10.387 C 3.029 13.862 3.069 17.598 3.234 20.772 L 3.467 25.643 L 3.783 27.597 L 3.660 27.534 L 3.580 27.534 C 3.648 27.514 4.274 26.865 4.878 25.730 L 6.406 22.483 C 8.448 17.813 10.781 11.597 12.865 6.637 L 14.283 3.412 C 14.922 2.052 15.436 1.040 15.967 0.481 L 16.428 0.153 C 16.744 0.038 17.200 0.266 17.335 0.541 L 17.525 1.476 C 17.540 1.751 17.330 1.987 17.054 2.002 C 16.779 2.017 16.543 1.804 16.531 1.528 L 16.445 0.987 C 15.954 0.048 9.869 18.430 5.760 26.199 L 4.542 28.025 L 3.911 28.476 C 3.653 28.567 3.275 28.506 3.064 28.288 C 2.548 27.750 2.550 26.905 2.470 25.710 L 2.237 20.825 C 2.069 17.623 2.029 13.917 1.553 10.528 L 0.626 5.144 L 0.000 1.461 L 0.010 0.524 L 0.185 0.173 L 0.709 0.000 C 1.238 0.098 1.278 0.428 1.468 0.784 L 2.165 2.350 Z"/>
<path d="M 10.074 10.738 C 10.109 10.465 10.360 10.272 10.633 10.307 C 10.906 10.342 11.099 10.593 11.064 10.868 C 11.001 11.357 11.239 12.592 11.690 14.153 C 13.186 19.307 16.300 26.835 18.918 31.135 C 19.061 31.370 18.986 31.678 18.750 31.821 C 18.515 31.964 18.209 31.889 18.066 31.653 C 16.305 28.764 14.348 24.400 12.715 20.171 L 10.733 14.431 C 10.267 12.828 9.964 11.590 10.074 10.738 Z"/>
</g>
</svg>
