<svg xmlns="http://www.w3.org/2000/svg" viewBox="0 0 2.521 5.865" width="2.521" height="5.865">
<g fill="black" stroke="none">
<path d="M 0.010 0.990 C 0.012 0.880 0.103 0.793 0.213 0.795 C 0.323 0.797 0.410 0.888 0.408 0.998 L 0.541 2.305 L 0.816 4.519 L 0.948 5.344 L 1.005 5.517 L 0.961 5.488 L 0.885 5.479 L 0.834 5.495 L 0.802 5.519 L 0.973 4.668 L 1.540 1.811 L 1.835 0.735 C 1.932 0.450 2.018 0.230 2.156 0.083 C 2.232 0.003 2.358 0.000 2.438 0.076 C 2.518 0.151 2.521 0.277 2.446 0.357 C 2.324 0.486 2.116 1.105 1.928 1.903 L 1.365 4.737 C 1.300 5.106 1.291 5.454 1.152 5.708 L 0.975 5.865 L 0.755 5.825 C 0.616 5.723 0.597 5.592 0.560 5.434 L 0.422 4.575 L 0.147 2.359 C 0.066 1.778 0.000 1.462 0.010 0.990 Z"/>
</g>
</svg>
