<svg xmlns="http://www.w3.org/2000/svg" viewBox="0 0 3.585 8.411" width="3.585" height="8.411">
<g fill="black" stroke="none">
<path d="M 0.001 1.395 C 0.004 1.236 0.135 1.111 0.294 1.114 C 0.452 1.117 0.577 1.248 0.574 1.406 L 0.766 3.287 L 1.161 6.473 L 1.351 7.661 L 1.433 7.910 L 1.370 7.868 L 1.261 7.855 L 1.187 7.878 L 1.141 7.913 L 1.387 6.688 L 2.203 2.576 L 2.628 1.028 C 2.767 0.617 2.891 0.301 3.090 0.089 C 3.199 -0.026 3.381 -0.030 3.496 0.079 C 3.611 0.187 3.615 0.368 3.507 0.484 C 3.332 0.669 3.032 1.560 2.762 2.709 L 1.951 6.787 C 1.858 7.318 1.845 7.819 1.645 8.185 L 1.390 8.411 L 1.074 8.353 C 0.874 8.206 0.846 8.018 0.793 7.790 L 0.594 6.554 L 0.199 3.365 C 0.082 2.529 -0.013 2.074 0.001 1.395 Z"/>
</g>
</svg>
