<svg xmlns="http://www.w3.org/2000/svg" viewBox="0 0 14.759 21.107" width="14.759" height="21.107">
<g fill="black" stroke="none">
<path d="M 0.806 2.300 C 0.828 2.520 0.667 2.717 0.445 2.739 C 0.226 2.762 0.028 2.600 0.006 2.381 C -0.044 1.872 0.216 1.350 0.580 0.907 C 0.832 0.607 1.051 0.212 1.502 0.031 C 1.700 -0.049 1.899 0.041 1.990 0.118 C 2.286 0.363 2.374 0.708 2.557 1.199 L 3.544 4.324 L 4.666 8.250 C 5.545 11.331 6.725 14.474 7.633 16.941 L 8.779 19.852 L 9.059 20.422 L 9.079 20.456 L 9.055 20.432 L 8.995 20.392 L 8.835 20.362 L 8.725 20.394 C 8.852 20.331 9.158 19.951 9.448 19.335 C 10.001 18.159 10.565 16.359 11.117 14.311 C 11.964 11.158 12.720 7.650 13.271 4.892 L 13.857 1.829 L 13.960 1.221 C 13.962 1.205 14.991 1.032 14.687 1.465 C 14.596 1.594 14.741 1.354 14.741 1.356 L 14.705 1.523 C 14.659 1.739 14.447 1.880 14.230 1.833 C 14.012 1.789 13.873 1.576 13.920 1.358 L 13.958 1.179 L 13.976 1.114 C 13.988 1.080 14.733 0.986 14.759 1.181 L 14.751 1.360 L 14.546 2.528 L 13.654 7.022 C 13.060 9.841 12.331 13.038 11.538 15.787 L 10.364 19.252 C 9.983 20.148 9.661 20.833 9.089 21.107 L 8.572 21.070 C 8.217 20.821 8.248 20.555 8.080 20.245 C 7.692 19.570 7.352 18.515 6.880 17.217 C 5.972 14.752 4.786 11.593 3.894 8.472 L 2.332 3.066 L 1.704 1.215 L 1.490 0.762 L 1.476 0.734 L 1.577 0.786 L 1.802 0.774 L 1.198 1.421 C 0.953 1.717 0.796 2.206 0.806 2.300 Z"/>
</g>
</svg>
