<svg xmlns="http://www.w3.org/2000/svg" viewBox="0 0 11.819 21.149" width="11.819" height="21.149">
<g fill="black" stroke="none">
<path d="M 2.058 5.063 C 2.161 5.210 2.125 5.414 1.978 5.517 C 1.830 5.620 1.625 5.584 1.524 5.435 L 0.502 3.904 L 0.045 3.104 C -0.047 2.949 0.006 2.749 0.162 2.658 C 0.317 2.567 0.517 2.619 0.607 2.775 L 1.052 3.552 L 2.058 5.063 Z"/>
<path d="M 0.029 3.073 C -0.045 2.909 0.029 2.716 0.193 2.642 C 0.357 2.568 0.550 2.642 0.624 2.806 L 1.011 3.699 L 1.876 6.108 C 2.697 8.687 3.194 12.045 4.020 15.080 C 4.438 16.608 4.924 18.017 5.411 19.083 C 5.690 19.701 5.985 20.159 6.232 20.373 C 6.442 20.553 6.478 20.559 6.618 20.407 C 6.981 20.015 7.262 18.858 7.485 17.375 L 8.230 12.071 C 8.586 9.909 9.125 7.728 9.584 5.740 L 10.387 2.455 L 11.003 0.351 L 11.161 0.075 L 11.516 0.000 C 11.762 0.089 11.739 0.226 11.756 0.295 C 11.867 0.751 11.795 1.598 11.803 2.316 C 11.807 2.496 11.662 2.644 11.482 2.647 C 11.302 2.649 11.153 2.504 11.151 2.324 L 11.148 0.790 L 11.123 0.456 L 11.146 0.498 L 11.225 0.579 L 11.387 0.633 L 11.528 0.605 L 11.597 0.561 L 11.638 0.515 L 11.620 0.567 L 11.018 2.622 L 10.220 5.886 C 9.759 7.880 9.225 10.047 8.874 12.178 L 8.132 17.472 C 7.902 18.984 7.696 20.207 7.098 20.849 C 6.929 21.033 6.691 21.156 6.447 21.149 C 5.729 21.128 5.264 20.340 4.816 19.353 C 4.310 18.243 3.815 16.806 3.390 15.252 C 2.551 12.171 2.051 8.810 1.255 6.305 L 0.406 3.945 L 0.029 3.073 Z"/>
</g>
</svg>
