<svg xmlns="http://www.w3.org/2000/svg" viewBox="0 0 8.986 21.080" width="8.986" height="21.080">
<g fill="black" stroke="none">
<path d="M 0.003 3.495 C 0.011 3.099 0.339 2.785 0.736 2.792 C 1.132 2.799 1.446 3.127 1.439 3.524 L 1.919 8.239 L 2.911 16.225 L 3.387 19.201 L 3.593 19.825 L 3.434 19.720 L 3.160 19.688 L 2.976 19.746 L 2.860 19.832 L 3.477 16.762 L 5.522 6.457 L 6.586 2.576 C 6.936 1.547 7.247 0.754 7.744 0.224 C 8.019 -0.065 8.473 -0.076 8.762 0.198 C 9.050 0.469 9.061 0.923 8.790 1.212 C 8.350 1.677 7.600 3.910 6.922 6.789 L 4.891 17.011 C 4.657 18.342 4.624 19.598 4.123 20.514 L 3.484 21.080 L 2.691 20.936 C 2.189 20.568 2.121 20.095 1.987 19.526 L 1.490 16.427 L 0.498 8.434 C 0.205 6.338 -0.033 5.198 0.003 3.495 Z"/>
</g>
</svg>
