<svg xmlns="http://www.w3.org/2000/svg" viewBox="0 0 4.842 8.793" width="4.842" height="8.793">
<g fill="black" stroke="none">
<path d="M 0.592 1.268 C 0.559 1.373 0.446 1.430 0.341 1.397 C 0.237 1.363 0.179 1.251 0.213 1.146 L 0.266 0.902 L 0.268 0.890 L 0.268 0.901 L 0.269 0.926 L 0.276 0.958 L 0.287 0.987 L 0.316 1.031 C 0.244 0.948 0.253 0.822 0.336 0.750 C 0.419 0.678 0.545 0.687 0.617 0.770 C 0.715 0.882 0.666 0.892 0.666 0.905 L 0.660 0.966 L 0.592 1.268 Z"/>
<path d="M 0.377 0.722 C 0.475 0.673 0.595 0.712 0.644 0.811 C 0.693 0.909 0.654 1.029 0.555 1.078 L 0.615 1.033 L 0.643 0.991 L 0.652 0.969 L 0.636 1.044 L 0.447 2.417 L 0.398 3.962 L 0.459 6.279 L 0.541 7.356 L 0.561 8.008 L 0.540 8.550 L 0.506 8.656 C 0.483 8.698 0.376 8.793 0.261 8.756 C 0.113 8.709 0.129 8.641 0.116 8.607 L 0.085 8.499 C 0.060 8.392 0.127 8.285 0.234 8.260 C 0.341 8.235 0.448 8.302 0.473 8.409 L 0.488 8.463 L 0.470 8.436 L 0.444 8.410 L 0.391 8.380 L 0.309 8.368 L 0.231 8.391 L 0.186 8.425 L 0.154 8.470 L 0.146 8.490 L 0.162 8.010 L 0.144 7.387 L 0.061 6.298 L 0.000 3.960 L 0.050 2.384 L 0.246 0.965 L 0.265 0.878 L 0.273 0.847 L 0.282 0.823 L 0.377 0.722 Z"/>
<path d="M 0.315 0.925 C 0.247 0.839 0.262 0.713 0.348 0.646 C 0.435 0.577 0.560 0.593 0.628 0.679 L 0.849 1.019 L 1.474 2.328 L 2.051 3.552 L 2.667 4.910 L 3.064 5.826 L 3.596 7.021 L 3.870 7.586 L 4.044 7.926 L 4.126 8.041 L 4.101 8.030 L 4.021 8.035 L 3.993 8.053 L 4.103 7.689 L 4.283 6.698 L 4.354 6.136 L 4.444 4.582 L 4.444 3.018 L 4.255 1.690 L 3.987 0.523 L 3.967 0.176 C 3.989 0.102 4.087 0.007 4.182 0.000 L 4.374 0.051 C 4.470 0.104 4.505 0.226 4.451 0.322 C 4.398 0.418 4.277 0.453 4.181 0.400 L 4.169 0.393 L 4.205 0.398 L 4.289 0.369 L 4.341 0.309 L 4.351 0.279 L 4.646 1.614 L 4.842 2.998 L 4.842 4.592 L 4.750 6.177 L 4.678 6.750 L 4.490 7.783 C 4.443 7.979 4.424 8.159 4.298 8.309 C 4.215 8.408 4.008 8.442 3.904 8.372 L 3.703 8.134 L 3.514 7.764 L 3.238 7.194 L 2.698 5.984 L 2.304 5.073 L 1.689 3.720 L 1.112 2.496 L 0.500 1.212 L 0.315 0.925 Z"/>
</g>
</svg>
