<svg xmlns="http://www.w3.org/2000/svg" viewBox="0 0 16.098 31.220" width="16.098" height="31.220">
<g fill="black" stroke="none">
<path d="M 0.402 31.220 C 0.169 31.208 -0.011 31.011 0.000 30.778 C 0.011 30.546 0.209 30.366 0.442 30.379 C 0.768 30.394 0.981 30.273 1.195 29.960 C 1.550 29.432 1.778 28.398 1.907 27.034 L 2.108 21.856 L 2.398 11.948 L 2.764 7.199 L 3.091 4.977 C 3.269 4.143 3.356 3.520 3.943 3.298 C 4.261 3.177 4.590 3.378 4.757 3.589 L 5.178 4.423 L 5.886 6.973 L 7.106 12.552 L 8.745 19.050 C 9.530 21.693 10.483 24.144 11.405 26.034 C 11.959 27.163 12.549 28.051 13.012 28.550 L 13.192 28.700 L 13.116 28.702 L 13.304 28.110 L 13.494 25.552 L 13.450 18.466 C 13.374 14.398 13.281 10.076 13.488 6.493 C 13.587 4.769 13.752 3.270 14.054 2.112 C 14.342 1.018 14.782 0.109 15.623 0.003 C 15.854 -0.026 16.065 0.137 16.095 0.369 C 16.122 0.600 15.959 0.809 15.729 0.839 C 15.556 0.860 15.300 1.103 15.076 1.678 C 14.638 2.805 14.416 4.727 14.302 7.040 C 14.124 10.660 14.228 14.990 14.302 19.022 L 14.355 24.488 L 14.135 28.254 C 14.046 28.763 13.934 29.184 13.564 29.423 L 12.902 29.491 L 12.392 29.121 C 11.847 28.531 11.230 27.592 10.648 26.404 C 9.701 24.463 8.735 21.976 7.937 19.289 C 7.068 16.358 6.413 13.358 5.842 10.700 L 5.066 7.165 L 4.387 4.712 L 4.060 4.074 L 4.282 4.063 L 3.958 4.957 L 3.601 7.288 L 3.239 11.988 L 2.950 21.868 C 2.905 24.514 2.869 26.761 2.571 28.451 C 2.432 29.254 2.233 29.926 1.892 30.432 C 1.558 30.926 1.006 31.248 0.402 31.220 Z"/>
</g>
</svg>
