<svg xmlns="http://www.w3.org/2000/svg" viewBox="0 0 6.871 12.437" width="6.871" height="12.437">
<g fill="black" stroke="none">
<path d="M 0.840 1.799 C 0.793 1.948 0.633 2.029 0.484 1.982 C 0.336 1.934 0.254 1.775 0.302 1.626 L 0.377 1.280 L 0.380 1.263 L 0.380 1.279 L 0.382 1.314 L 0.392 1.359 L 0.407 1.401 L 0.448 1.463 C 0.346 1.345 0.359 1.166 0.477 1.064 C 0.595 0.962 0.773 0.975 0.876 1.093 C 1.015 1.252 0.945 1.266 0.945 1.284 L 0.937 1.371 L 0.840 1.799 Z"/>
<path d="M 0.535 1.025 C 0.674 0.955 0.844 1.010 0.914 1.151 C 0.983 1.290 0.928 1.460 0.788 1.530 L 0.873 1.466 L 0.912 1.406 L 0.925 1.375 L 0.903 1.481 L 0.634 3.430 L 0.565 5.622 L 0.651 8.910 L 0.768 10.439 L 0.796 11.364 L 0.766 12.133 L 0.718 12.283 C 0.685 12.343 0.534 12.478 0.370 12.425 C 0.160 12.359 0.183 12.262 0.165 12.214 L 0.121 12.061 C 0.085 11.909 0.180 11.757 0.332 11.721 C 0.484 11.686 0.636 11.781 0.671 11.933 L 0.692 12.009 L 0.667 11.971 L 0.630 11.934 L 0.555 11.892 L 0.438 11.875 L 0.328 11.907 L 0.264 11.956 L 0.219 12.019 L 0.207 12.048 L 0.230 11.367 L 0.204 10.483 L 0.087 8.937 L 0.000 5.619 L 0.071 3.383 L 0.349 1.369 L 0.376 1.246 L 0.387 1.202 L 0.400 1.168 L 0.535 1.025 Z"/>
<path d="M 0.447 1.313 C 0.351 1.191 0.372 1.012 0.494 0.917 C 0.617 0.819 0.795 0.841 0.891 0.964 L 1.205 1.446 L 2.092 3.304 L 2.910 5.040 L 3.785 6.968 L 4.348 8.267 L 5.103 9.963 L 5.492 10.765 L 5.739 11.247 L 5.855 11.411 L 5.820 11.395 L 5.706 11.402 L 5.666 11.428 L 5.822 10.911 L 6.078 9.505 L 6.179 8.707 L 6.306 6.502 L 6.306 4.283 L 6.038 2.398 L 5.658 0.742 L 5.629 0.250 C 5.661 0.145 5.800 0.010 5.934 0.000 L 6.207 0.072 C 6.343 0.148 6.393 0.321 6.316 0.457 C 6.241 0.593 6.069 0.643 5.933 0.568 L 5.916 0.558 L 5.967 0.565 L 6.086 0.524 L 6.160 0.438 L 6.174 0.396 L 6.593 2.290 L 6.871 4.254 L 6.871 6.516 L 6.741 8.766 L 6.638 9.579 L 6.372 11.045 C 6.305 11.323 6.278 11.578 6.099 11.791 C 5.981 11.931 5.688 11.980 5.540 11.880 L 5.255 11.543 L 4.987 11.018 L 4.595 10.209 L 3.829 8.492 L 3.270 7.199 L 2.397 5.279 L 1.578 3.542 L 0.710 1.720 L 0.447 1.313 Z"/>
</g>
</svg>
