<svg xmlns="http://www.w3.org/2000/svg" viewBox="0 0 17.222 31.172" width="17.222" height="31.172">
<g fill="black" stroke="none">
<path d="M 2.106 4.510 C 1.988 4.883 1.586 5.086 1.213 4.969 C 0.843 4.848 0.637 4.449 0.758 4.076 L 0.946 3.208 L 0.953 3.165 L 0.953 3.205 L 0.957 3.293 L 0.982 3.407 L 1.021 3.510 L 1.124 3.667 C 0.868 3.372 0.900 2.924 1.195 2.668 C 1.490 2.411 1.938 2.443 2.194 2.739 C 2.543 3.137 2.369 3.173 2.369 3.219 L 2.347 3.436 L 2.106 4.510 Z"/>
<path d="M 1.341 2.568 C 1.689 2.394 2.116 2.532 2.291 2.884 C 2.465 3.233 2.326 3.660 1.974 3.834 L 2.187 3.674 L 2.287 3.525 L 2.319 3.446 L 2.262 3.713 L 1.590 8.597 L 1.416 14.092 L 1.633 22.332 L 1.924 26.163 L 1.995 28.482 L 1.921 30.410 L 1.800 30.787 C 1.718 30.936 1.337 31.274 0.928 31.142 C 0.402 30.975 0.459 30.733 0.413 30.612 L 0.302 30.228 C 0.213 29.848 0.452 29.467 0.832 29.378 C 1.213 29.289 1.593 29.528 1.682 29.908 L 1.736 30.100 L 1.672 30.004 L 1.579 29.912 L 1.391 29.805 L 1.099 29.762 L 0.822 29.844 L 0.662 29.965 L 0.548 30.125 L 0.519 30.196 L 0.576 28.489 L 0.512 26.273 L 0.217 22.400 L 0.000 14.085 L 0.178 8.479 L 0.875 3.432 L 0.943 3.123 L 0.971 3.013 L 1.003 2.927 L 1.341 2.568 Z"/>
<path d="M 1.120 3.290 C 0.879 2.984 0.932 2.536 1.238 2.298 C 1.547 2.052 1.992 2.109 2.234 2.415 L 3.020 3.624 L 5.243 8.280 L 7.295 12.633 L 9.486 17.463 L 10.898 20.721 L 12.790 24.972 L 13.764 26.981 L 14.383 28.190 L 14.675 28.599 L 14.586 28.560 L 14.301 28.578 L 14.202 28.642 L 14.593 27.347 L 15.233 23.823 L 15.486 21.824 L 15.806 16.297 L 15.806 10.734 L 15.134 6.011 L 14.181 1.860 L 14.109 0.626 C 14.188 0.363 14.536 0.025 14.874 0.000 L 15.557 0.181 C 15.898 0.370 16.023 0.804 15.831 1.145 C 15.642 1.487 15.212 1.611 14.871 1.423 L 14.828 1.398 L 14.956 1.416 L 15.255 1.312 L 15.440 1.099 L 15.475 0.992 L 16.524 5.741 L 17.222 10.663 L 17.222 16.332 L 16.894 21.970 L 16.638 24.008 L 15.970 27.682 C 15.802 28.379 15.735 29.019 15.287 29.553 C 14.991 29.905 14.255 30.026 13.885 29.777 L 13.170 28.930 L 12.498 27.614 L 11.517 25.587 L 9.596 21.283 L 8.195 18.043 L 6.007 13.231 L 3.955 8.878 L 1.778 4.311 L 1.120 3.290 Z"/>
</g>
</svg>
