<svg xmlns="http://www.w3.org/2000/svg" viewBox="0 0 3.366 7.474" width="3.366" height="7.474">
<g fill="black" stroke="none">
<path d="M 2.883 1.461 C 2.883 1.352 2.972 1.263 3.082 1.263 C 3.191 1.263 3.280 1.352 3.280 1.461 L 3.280 1.911 L 3.280 1.983 C 3.280 2.094 3.191 2.183 3.082 2.183 C 2.972 2.183 2.883 2.094 2.883 1.983 L 2.883 1.911 L 2.883 1.461 Z"/>
<path d="M 3.280 1.983 C 3.280 2.094 3.191 2.183 3.082 2.183 C 2.972 2.183 2.883 2.094 2.883 1.983 L 2.883 1.911 C 2.883 1.801 2.972 1.712 3.082 1.712 C 3.191 1.712 3.280 1.801 3.280 1.911 L 3.237 2.036 L 3.182 2.106 L 3.043 2.349 C 2.852 2.729 2.408 3.043 2.042 3.346 C 1.796 3.550 1.545 3.730 1.281 3.816 C 1.034 3.896 0.781 3.808 0.599 3.658 C 0.419 3.507 0.282 3.297 0.186 3.073 C 0.038 2.728 0.019 2.343 0.003 2.022 C -0.035 1.293 0.228 0.707 0.806 0.389 C 1.120 0.216 1.479 0.091 1.834 0.033 L 2.363 0.033 C 2.424 0.041 2.591 -0.057 2.818 0.050 C 3.049 0.158 3.148 0.400 3.220 0.658 L 3.365 1.542 L 3.366 2.906 L 3.096 5.008 L 2.682 6.880 L 2.645 7.107 L 2.645 7.168 L 2.638 7.151 L 2.570 7.089 L 2.512 7.079 L 2.588 7.030 C 2.678 6.967 2.802 6.989 2.865 7.079 C 2.928 7.169 2.906 7.292 2.816 7.355 L 2.575 7.471 C 2.490 7.486 2.356 7.445 2.299 7.359 C 2.209 7.221 2.241 7.105 2.261 6.971 L 2.446 6.152 L 2.705 4.940 L 2.969 2.883 L 2.970 1.581 L 2.837 0.765 L 2.649 0.410 L 2.308 0.427 L 1.897 0.427 L 0.998 0.737 C 0.540 0.991 0.368 1.365 0.401 2.001 C 0.417 2.316 0.441 2.658 0.552 2.917 L 0.854 3.351 C 0.963 3.442 1.059 3.469 1.157 3.437 L 1.788 3.040 C 2.159 2.733 2.571 2.401 2.687 2.171 L 2.863 1.868 L 2.916 1.800 L 2.928 1.785 L 2.913 1.806 L 2.899 1.833 L 2.883 1.911 C 2.883 1.801 2.972 1.712 3.082 1.712 C 3.191 1.712 3.280 1.801 3.280 1.911 L 3.280 1.983 Z"/>
</g>
</svg>
