<svg xmlns="http://www.w3.org/2000/svg" viewBox="0 0 5.609 12.455" width="5.609" height="12.455">
<g fill="black" stroke="none">
<path d="M 4.804 2.435 C 4.804 2.252 4.952 2.104 5.135 2.104 C 5.318 2.104 5.466 2.252 5.466 2.435 L 5.466 3.184 L 5.466 3.304 C 5.466 3.489 5.318 3.637 5.135 3.637 C 4.952 3.637 4.804 3.489 4.804 3.304 L 4.804 3.184 L 4.804 2.435 Z"/>
<path d="M 5.466 3.304 C 5.466 3.489 5.318 3.637 5.135 3.637 C 4.952 3.637 4.804 3.489 4.804 3.304 L 4.804 3.184 C 4.804 3.001 4.952 2.853 5.135 2.853 C 5.318 2.853 5.466 3.001 5.466 3.184 L 5.395 3.392 L 5.303 3.509 L 5.070 3.915 C 4.752 4.547 4.013 5.070 3.402 5.576 C 2.993 5.916 2.575 6.215 2.134 6.358 C 1.723 6.491 1.302 6.345 0.999 6.095 C 0.698 5.844 0.470 5.494 0.310 5.122 C 0.064 4.546 0.032 3.905 0.005 3.369 C -0.058 2.154 0.380 1.179 1.344 0.648 C 1.866 0.360 2.465 0.152 3.056 0.055 L 3.938 0.055 C 4.040 0.069 4.318 -0.095 4.696 0.084 C 5.080 0.263 5.247 0.666 5.366 1.097 L 5.608 2.570 L 5.609 4.842 L 5.160 8.346 L 4.469 11.465 L 4.408 11.842 L 4.408 11.944 L 4.396 11.916 L 4.283 11.813 L 4.186 11.796 L 4.313 11.714 C 4.463 11.609 4.669 11.646 4.774 11.796 C 4.879 11.946 4.842 12.152 4.692 12.257 L 4.291 12.450 C 4.150 12.475 3.927 12.407 3.832 12.264 C 3.680 12.032 3.734 11.839 3.767 11.616 L 4.076 10.251 L 4.508 8.232 L 4.947 4.804 L 4.949 2.635 L 4.727 1.275 L 4.414 0.683 L 3.847 0.711 L 3.161 0.711 L 1.663 1.229 C 0.899 1.651 0.613 2.274 0.668 3.334 C 0.694 3.860 0.734 4.429 0.919 4.860 L 1.423 5.584 C 1.605 5.736 1.765 5.781 1.928 5.727 L 2.980 5.065 C 3.597 4.554 4.285 4.002 4.478 3.617 L 4.771 3.113 L 4.859 3.000 L 4.879 2.975 L 4.854 3.010 L 4.830 3.054 L 4.804 3.184 C 4.804 3.001 4.952 2.853 5.135 2.853 C 5.318 2.853 5.466 3.001 5.466 3.184 L 5.466 3.304 Z"/>
</g>
</svg>
