<svg xmlns="http://www.w3.org/2000/svg" viewBox="0 0 12.403 31.504" width="12.403" height="31.504">
<g fill="black" stroke="none">
<path d="M 7.002 2.713 C 6.950 2.883 6.771 2.980 6.602 2.930 C 6.430 2.877 6.333 2.698 6.385 2.529 C 6.632 1.694 6.129 0.788 5.564 0.656 C 5.414 0.622 5.150 0.707 4.825 0.993 C 4.473 1.305 4.085 1.805 3.692 2.454 C 2.614 4.231 1.590 6.928 1.011 9.632 C 0.606 11.515 0.570 13.369 0.737 14.915 C 0.872 16.153 1.240 17.086 1.738 17.666 C 2.212 18.217 2.810 18.465 3.445 18.412 C 4.173 18.343 5.014 17.900 5.840 16.965 C 7.193 15.426 8.268 12.741 9.107 10.026 C 9.711 8.072 10.020 6.127 10.206 4.636 C 10.325 3.655 10.340 2.991 10.273 2.768 L 10.354 2.804 L 10.207 2.975 C 10.125 3.158 10.133 3.695 10.226 4.427 L 10.624 7.304 L 11.013 11.879 C 11.290 15.805 11.402 20.575 11.573 24.609 L 11.881 29.460 L 12.095 30.750 L 12.171 30.942 L 12.145 30.920 L 12.015 30.882 L 11.901 30.915 C 12.048 30.815 12.248 30.854 12.349 31.001 C 12.448 31.149 12.409 31.349 12.262 31.449 C 12.095 31.561 11.788 31.488 11.678 31.355 C 11.486 31.128 11.436 30.829 11.363 30.419 L 11.055 27.180 C 10.799 22.823 10.712 16.754 10.370 11.924 L 9.984 7.381 L 9.588 4.510 C 9.491 3.753 9.415 3.163 9.621 2.710 C 9.740 2.445 9.941 2.242 10.199 2.178 C 10.464 2.114 10.801 2.298 10.890 2.579 C 11.025 3.033 10.968 3.707 10.844 4.714 C 10.656 6.227 10.343 8.208 9.722 10.215 C 8.872 12.971 7.797 15.713 6.324 17.391 C 5.417 18.418 4.431 18.967 3.502 19.053 C 2.662 19.124 1.840 18.774 1.250 18.084 C 0.641 17.377 0.241 16.319 0.097 14.985 C -0.077 13.373 -0.040 11.456 0.380 9.497 C 0.975 6.725 2.011 3.984 3.141 2.120 C 3.959 0.770 4.819 -0.179 5.711 0.028 C 6.729 0.267 7.346 1.554 7.002 2.713 Z"/>
</g>
</svg>
