<svg xmlns="http://www.w3.org/2000/svg" viewBox="0 0 14.059 31.216" width="14.059" height="31.216">
<g fill="black" stroke="none">
<path d="M 12.040 6.104 C 12.040 5.645 12.411 5.274 12.870 5.274 C 13.329 5.274 13.700 5.645 13.700 6.104 L 13.700 7.981 L 13.700 8.281 C 13.700 8.744 13.329 9.116 12.870 9.116 C 12.411 9.116 12.040 8.744 12.040 8.281 L 12.040 7.981 L 12.040 6.104 Z"/>
<path d="M 13.700 8.281 C 13.700 8.744 13.329 9.116 12.870 9.116 C 12.411 9.116 12.040 8.744 12.040 8.281 L 12.040 7.981 C 12.040 7.522 12.411 7.151 12.870 7.151 C 13.329 7.151 13.700 7.522 13.700 7.981 L 13.521 8.503 L 13.292 8.795 L 12.708 9.812 C 11.911 11.398 10.059 12.707 8.528 13.976 C 7.501 14.827 6.454 15.578 5.349 15.936 C 4.319 16.270 3.263 15.903 2.504 15.277 C 1.749 14.647 1.177 13.771 0.777 12.837 C 0.159 11.393 0.080 9.787 0.013 8.444 C -0.145 5.399 0.952 2.954 3.367 1.624 C 4.677 0.902 6.179 0.380 7.660 0.138 L 9.871 0.138 C 10.125 0.172 10.822 -0.237 11.769 0.209 C 12.733 0.660 13.150 1.669 13.450 2.750 L 14.055 6.442 L 14.059 12.136 L 12.933 20.917 L 11.202 28.735 L 11.047 29.682 L 11.047 29.936 L 11.018 29.865 L 10.734 29.607 L 10.493 29.565 L 10.810 29.361 C 11.185 29.098 11.702 29.189 11.965 29.565 C 12.228 29.940 12.136 30.458 11.761 30.720 L 10.755 31.204 C 10.401 31.267 9.842 31.096 9.604 30.737 C 9.224 30.157 9.358 29.673 9.441 29.114 L 10.217 25.694 L 11.298 20.634 L 12.399 12.040 L 12.403 6.604 L 11.848 3.196 L 11.064 1.711 L 9.642 1.782 L 7.923 1.782 L 4.168 3.079 C 2.254 4.139 1.536 5.699 1.674 8.356 C 1.740 9.675 1.841 11.101 2.304 12.182 L 3.568 13.997 C 4.022 14.376 4.423 14.489 4.832 14.355 L 7.468 12.695 C 9.016 11.414 10.739 10.029 11.223 9.066 L 11.957 7.802 L 12.178 7.518 L 12.228 7.455 L 12.165 7.543 L 12.107 7.656 L 12.040 7.981 C 12.040 7.522 12.411 7.151 12.870 7.151 C 13.329 7.151 13.700 7.522 13.700 7.981 L 13.700 8.281 Z"/>
</g>
</svg>
