<svg xmlns="http://www.w3.org/2000/svg" viewBox="0 0 5.236 12.328" width="5.236" height="12.328">
<g fill="black" stroke="none">
<path d="M 4.327 0.424 C 4.265 0.268 4.339 0.091 4.495 0.026 C 4.651 -0.036 4.828 0.039 4.891 0.194 L 4.883 0.592 C 4.790 0.776 4.624 0.836 4.486 0.871 L 4.055 0.922 L 2.450 0.738 L 1.665 0.665 L 1.008 0.628 L 0.742 0.935 C 0.490 1.542 0.739 2.817 0.792 4.044 L 0.840 5.214 L 0.889 6.128 L 2.274 5.776 C 2.786 5.608 3.359 5.472 3.903 5.624 C 4.789 5.870 5.140 7.003 5.224 8.158 C 5.331 9.612 4.706 11.068 3.730 11.815 L 2.766 12.275 L 1.978 12.328 C 1.550 12.244 1.307 11.859 1.182 11.487 C 1.057 11.114 1.023 10.715 1.080 10.375 C 1.107 10.210 1.264 10.097 1.431 10.124 C 1.596 10.152 1.707 10.309 1.680 10.475 L 1.759 11.293 C 1.848 11.555 1.987 11.710 2.095 11.731 L 2.636 11.679 L 3.360 11.331 C 4.133 10.740 4.708 9.449 4.618 8.202 C 4.579 7.675 4.475 7.189 4.309 6.824 C 4.153 6.478 3.950 6.268 3.741 6.210 C 3.395 6.116 2.928 6.203 2.464 6.355 L 1.283 6.719 L 0.722 6.719 C 0.528 6.662 0.343 6.479 0.294 6.264 L 0.233 5.245 L 0.184 4.070 C 0.134 2.906 -0.202 1.620 0.180 0.702 C 0.296 0.422 0.501 0.149 0.826 0.048 C 1.160 -0.058 1.449 0.042 1.704 0.059 L 2.551 0.138 L 4.043 0.312 L 4.378 0.268 L 4.327 0.353 L 4.324 0.405 L 4.327 0.424 Z"/>
</g>
</svg>
