<svg xmlns="http://www.w3.org/2000/svg" viewBox="0 0 14.718 31.044" width="14.718" height="31.044">
<g fill="black" stroke="none">
<path d="M 8.976 3.403 C 8.755 3.383 8.592 3.188 8.614 2.967 C 8.634 2.747 8.829 2.584 9.049 2.607 L 10.352 2.574 L 10.461 2.528 L 10.431 2.617 C 10.407 2.514 9.874 2.002 9.116 1.638 C 7.934 1.075 6.438 0.665 5.127 0.846 C 4.403 0.944 3.776 1.128 3.235 1.746 C 1.966 3.200 1.345 6.457 0.983 9.546 C 0.721 11.719 0.784 13.766 0.913 15.270 L 1.076 16.786 L 1.150 16.803 C 1.546 16.807 2.550 16.255 3.690 15.833 C 4.811 15.413 6.167 15.204 7.566 15.469 C 9.080 15.754 10.477 16.835 11.643 18.173 C 12.817 19.522 13.749 21.121 14.294 22.629 C 15.051 24.724 14.750 26.630 13.789 28.005 C 12.358 30.057 9.639 31.076 7.190 31.044 C 5.986 31.030 4.836 30.754 3.955 30.155 C 3.080 29.562 2.485 28.591 2.463 27.408 C 2.457 27.187 2.634 27.004 2.855 27.000 C 3.076 26.994 3.259 27.171 3.263 27.392 C 3.287 28.625 4.052 29.465 5.198 29.898 C 7.001 30.575 9.625 30.257 11.543 29.034 C 12.490 28.432 13.250 27.608 13.638 26.599 C 14.032 25.582 14.058 24.332 13.540 22.903 C 12.507 20.041 9.951 16.736 7.417 16.255 C 6.185 16.022 4.976 16.207 3.969 16.583 L 1.990 17.415 L 1.142 17.602 C 0.854 17.600 0.521 17.445 0.366 17.160 C 0.109 16.658 0.175 16.078 0.115 15.337 C -0.018 13.794 -0.083 11.697 0.187 9.454 C 0.555 6.316 1.100 2.973 2.632 1.220 C 3.327 0.419 4.214 0.160 5.019 0.052 C 6.559 -0.159 8.177 0.303 9.460 0.916 C 10.326 1.328 11.077 1.758 11.218 2.461 C 11.292 2.834 10.964 3.226 10.588 3.341 C 10.196 3.462 9.679 3.470 8.976 3.403 Z"/>
</g>
</svg>
