<svg xmlns="http://www.w3.org/2000/svg" viewBox="0 0 3.622 8.108" width="3.622" height="8.108">
<g fill="black" stroke="none">
<path d="M 2.965 0.315 C 2.924 0.213 2.973 0.097 3.075 0.055 C 3.177 0.014 3.293 0.063 3.334 0.165 L 3.329 0.425 C 3.268 0.546 3.159 0.585 3.069 0.608 L 2.787 0.641 L 1.736 0.521 L 1.222 0.473 L 0.792 0.449 L 0.618 0.650 C 0.453 1.047 0.616 1.882 0.651 2.685 L 0.682 3.451 L 0.714 4.049 L 1.621 3.819 C 1.956 3.709 2.331 3.620 2.687 3.719 C 3.267 3.880 3.497 4.622 3.552 5.378 C 3.622 6.330 3.213 7.283 2.574 7.772 L 1.943 8.073 L 1.427 8.108 C 1.147 8.053 0.988 7.801 0.906 7.557 C 0.824 7.313 0.802 7.052 0.839 6.829 C 0.857 6.721 0.960 6.647 1.069 6.665 C 1.177 6.683 1.250 6.786 1.232 6.895 L 1.284 7.430 C 1.342 7.602 1.433 7.703 1.504 7.717 L 1.858 7.683 L 2.332 7.455 C 2.838 7.068 3.214 6.223 3.155 5.407 C 3.130 5.062 3.062 4.744 2.953 4.505 C 2.851 4.278 2.718 4.141 2.581 4.103 C 2.355 4.041 2.049 4.098 1.745 4.198 L 0.972 4.436 L 0.605 4.436 C 0.478 4.399 0.357 4.279 0.325 4.138 L 0.285 3.471 L 0.253 2.702 C 0.220 1.940 0.000 1.098 0.250 0.497 C 0.326 0.314 0.460 0.135 0.673 0.069 C 0.892 0.000 1.081 0.065 1.248 0.076 L 1.802 0.128 L 2.779 0.242 L 2.998 0.213 L 2.965 0.269 L 2.963 0.303 L 2.965 0.315 Z"/>
</g>
</svg>
