<svg xmlns="http://www.w3.org/2000/svg" viewBox="0 0 13.123 30.900" width="13.123" height="30.900">
<g fill="black" stroke="none">
<path d="M 10.846 1.062 C 10.689 0.671 10.876 0.227 11.267 0.066 C 11.657 -0.091 12.102 0.097 12.259 0.487 L 12.239 1.483 C 12.006 1.946 11.589 2.095 11.244 2.184 L 10.164 2.310 L 6.140 1.850 L 4.172 1.667 L 2.526 1.575 L 1.860 2.344 C 1.228 3.864 1.852 7.061 1.986 10.136 L 2.105 13.069 L 2.227 15.359 L 5.700 14.478 C 6.982 14.057 8.418 13.716 9.781 14.095 C 12.002 14.711 12.883 17.552 13.093 20.447 C 13.361 24.092 11.795 27.741 9.349 29.613 L 6.933 30.766 L 4.957 30.900 C 3.885 30.689 3.276 29.724 2.962 28.790 C 2.648 27.856 2.564 26.856 2.706 26.003 C 2.775 25.589 3.169 25.306 3.586 25.375 C 4.000 25.444 4.279 25.838 4.210 26.255 L 4.410 28.304 C 4.632 28.962 4.980 29.349 5.252 29.403 L 6.607 29.272 L 8.422 28.399 C 10.360 26.918 11.799 23.682 11.573 20.558 C 11.478 19.237 11.217 18.020 10.800 17.104 C 10.409 16.235 9.900 15.711 9.375 15.565 C 8.510 15.328 7.339 15.546 6.175 15.929 L 3.215 16.840 L 1.810 16.840 C 1.323 16.699 0.860 16.239 0.738 15.699 L 0.585 13.145 L 0.462 10.201 C 0.336 7.284 -0.507 4.060 0.451 1.759 C 0.742 1.058 1.255 0.373 2.070 0.120 C 2.909 -0.144 3.632 0.105 4.272 0.147 L 6.393 0.346 L 10.134 0.782 L 10.972 0.671 L 10.846 0.886 L 10.838 1.016 L 10.846 1.062 Z"/>
</g>
</svg>
