<svg xmlns="http://www.w3.org/2000/svg" viewBox="0 0 12.030 31.504" width="12.030" height="31.504">
<g fill="black" stroke="none">
<path d="M 8.143 3.197 C 8.092 3.388 7.895 3.502 7.702 3.452 C 7.510 3.401 7.395 3.204 7.446 3.013 C 7.664 2.188 7.413 1.615 6.916 1.241 C 6.400 0.853 5.594 0.670 4.780 0.731 C 3.516 0.825 2.165 1.678 1.417 3.259 C 0.780 4.597 0.569 6.413 0.828 8.269 C 1.000 9.542 1.411 10.813 2.081 11.921 C 3.638 14.495 7.422 15.541 9.815 17.413 C 10.952 18.303 11.669 19.537 11.933 20.917 C 12.287 22.759 11.650 24.907 10.591 26.819 C 9.526 28.730 7.902 30.219 6.351 31.052 C 4.993 31.779 3.571 31.589 2.596 30.772 C 1.606 29.943 0.992 28.553 0.856 26.985 C 0.658 24.654 1.630 22.032 3.322 19.017 C 4.565 16.791 6.312 14.517 7.801 12.162 C 9.046 10.196 10.095 8.273 10.685 6.643 C 11.230 5.140 11.109 3.974 10.694 3.289 C 10.304 2.648 9.655 2.402 9.081 2.580 C 8.889 2.637 8.689 2.530 8.631 2.341 C 8.571 2.151 8.678 1.951 8.868 1.892 C 9.763 1.617 10.771 2.032 11.308 2.915 C 11.866 3.833 11.960 5.236 11.361 6.890 C 10.742 8.598 9.671 10.554 8.409 12.549 C 6.900 14.935 5.157 17.205 3.949 19.367 C 3.108 20.867 2.463 22.241 2.054 23.511 C 1.656 24.745 1.485 25.883 1.573 26.923 C 1.697 28.338 2.255 29.549 3.058 30.219 C 3.833 30.868 4.872 31.029 6.012 30.418 C 7.434 29.656 8.973 28.246 9.962 26.468 C 10.964 24.658 11.531 22.642 11.226 21.053 C 10.992 19.828 10.372 18.764 9.373 17.981 C 8.282 17.128 6.772 16.433 5.291 15.591 C 3.803 14.745 2.346 13.751 1.465 12.294 C 0.738 11.089 0.300 9.727 0.114 8.368 C -0.161 6.393 0.055 4.450 0.766 2.950 C 1.615 1.156 3.193 0.128 4.727 0.013 C 5.681 -0.058 6.647 0.137 7.350 0.667 C 8.047 1.192 8.423 2.135 8.143 3.197 Z"/>
</g>
</svg>
