<svg xmlns="http://www.w3.org/2000/svg" viewBox="0 0 4.018 8.238" width="4.018" height="8.238">
<g fill="black" stroke="none">
<path d="M 0.616 1.848 C 0.628 1.739 0.727 1.661 0.837 1.674 C 0.946 1.686 1.024 1.785 1.011 1.895 C 0.984 2.125 1.064 2.382 1.239 2.713 L 1.535 3.135 C 1.889 3.704 2.113 4.538 2.259 5.357 C 2.362 5.935 2.389 6.500 2.295 6.995 C 2.235 7.312 2.093 7.581 1.945 7.790 C 1.721 8.107 1.361 8.238 1.040 8.185 C 0.719 8.131 0.428 7.923 0.246 7.629 C 0.072 7.349 0.000 6.976 0.050 6.551 C 0.104 6.092 0.320 5.594 0.606 5.061 L 1.250 4.028 L 2.023 3.001 L 3.150 1.504 L 3.587 0.721 L 3.526 0.557 C 3.399 0.480 2.959 0.516 2.530 0.630 C 2.003 0.769 1.503 1.076 1.129 1.368 L 0.714 1.740 L 0.629 1.841 L 0.638 1.808 L 0.641 1.771 L 0.611 1.677 L 0.518 1.600 C 0.621 1.639 0.672 1.755 0.633 1.857 C 0.594 1.960 0.479 2.012 0.376 1.973 L 0.248 1.825 C 0.207 1.645 0.284 1.636 0.319 1.590 L 1.074 0.912 C 1.451 0.643 1.916 0.380 2.429 0.244 C 2.888 0.123 3.378 0.000 3.733 0.216 C 3.916 0.328 4.018 0.562 3.980 0.788 C 3.932 1.066 3.744 1.360 3.474 1.736 L 2.338 3.245 L 1.581 4.251 L 0.957 5.250 C 0.682 5.762 0.489 6.225 0.446 6.597 C 0.404 6.951 0.465 7.227 0.584 7.419 C 0.834 7.821 1.345 7.950 1.619 7.560 C 1.743 7.385 1.857 7.166 1.903 6.921 C 1.985 6.492 1.964 5.970 1.867 5.426 C 1.726 4.637 1.499 3.832 1.197 3.345 L 0.886 2.899 C 0.694 2.535 0.575 2.194 0.616 1.848 Z"/>
</g>
</svg>
