<svg xmlns="http://www.w3.org/2000/svg" viewBox="0 0 6.031 12.356" width="6.031" height="12.356">
<g fill="black" stroke="none">
<path d="M 0.886 2.670 C 0.905 2.504 1.056 2.385 1.224 2.405 C 1.390 2.423 1.509 2.574 1.489 2.742 C 1.448 3.093 1.570 3.485 1.837 3.990 L 2.289 4.634 C 2.829 5.502 3.171 6.775 3.393 8.024 C 3.550 8.906 3.592 9.768 3.448 10.524 C 3.357 11.007 3.140 11.418 2.914 11.737 C 2.572 12.220 2.023 12.420 1.533 12.339 C 1.044 12.257 0.600 11.940 0.322 11.491 C 0.056 11.064 -0.053 10.495 0.023 9.846 C 0.105 9.146 0.435 8.386 0.871 7.573 L 1.854 5.997 L 3.033 4.430 L 4.753 2.145 L 5.420 0.951 L 5.326 0.700 C 5.133 0.583 4.461 0.638 3.807 0.812 C 3.003 1.024 2.240 1.492 1.669 1.938 L 1.036 2.506 L 0.906 2.660 L 0.920 2.609 L 0.925 2.553 L 0.879 2.409 L 0.737 2.292 C 0.894 2.351 0.972 2.528 0.912 2.684 C 0.853 2.841 0.677 2.921 0.520 2.861 L 0.325 2.635 C 0.262 2.361 0.380 2.347 0.433 2.277 L 1.585 1.242 C 2.160 0.832 2.870 0.430 3.653 0.223 C 4.353 0.038 5.101 -0.149 5.642 0.180 C 5.922 0.351 6.077 0.708 6.019 1.053 C 5.946 1.477 5.659 1.926 5.247 2.499 L 3.514 4.802 L 2.359 6.337 L 1.407 7.861 C 0.987 8.642 0.693 9.349 0.627 9.916 C 0.563 10.456 0.656 10.878 0.838 11.171 C 1.219 11.784 1.999 11.981 2.417 11.386 C 2.606 11.119 2.780 10.784 2.850 10.411 C 2.975 9.756 2.943 8.960 2.795 8.130 C 2.580 6.926 2.234 5.697 1.773 4.954 L 1.298 4.274 C 1.005 3.719 0.824 3.198 0.886 2.670 Z"/>
</g>
</svg>
