<svg xmlns="http://www.w3.org/2000/svg" viewBox="0 0 15.115 30.970" width="15.115" height="30.970">
<g fill="black" stroke="none">
<path d="M 2.222 6.693 C 2.268 6.276 2.646 5.978 3.067 6.027 C 3.484 6.073 3.782 6.452 3.732 6.873 C 3.629 7.752 3.935 8.735 4.604 10.001 L 5.736 11.615 C 7.090 13.791 7.947 16.980 8.505 20.112 C 8.899 22.322 9.002 24.483 8.643 26.376 C 8.413 27.588 7.870 28.617 7.304 29.416 C 6.447 30.629 5.071 31.130 3.843 30.927 C 2.616 30.720 1.503 29.925 0.807 28.801 C 0.141 27.730 -0.134 26.303 0.057 24.678 C 0.264 22.923 1.090 21.018 2.183 18.980 L 4.646 15.030 L 7.602 11.102 L 11.912 5.377 L 13.583 2.383 L 13.350 1.756 C 12.864 1.461 11.182 1.599 9.541 2.035 C 7.526 2.566 5.614 3.740 4.183 4.857 L 2.596 6.280 L 2.271 6.666 L 2.306 6.540 L 2.317 6.398 L 2.203 6.039 L 1.847 5.744 C 2.241 5.894 2.436 6.337 2.287 6.727 C 2.138 7.121 1.698 7.320 1.304 7.171 L 0.814 6.605 C 0.658 5.916 0.952 5.882 1.086 5.706 L 3.973 3.113 C 5.415 2.085 7.193 1.079 9.155 0.559 C 10.910 0.096 12.784 -0.374 14.142 0.452 C 14.842 0.880 15.232 1.775 15.086 2.639 C 14.903 3.702 14.184 4.827 13.151 6.264 L 8.807 12.035 L 5.912 15.882 L 3.526 19.703 C 2.474 21.661 1.736 23.431 1.572 24.854 C 1.411 26.208 1.644 27.263 2.099 27.998 C 3.055 29.535 5.009 30.028 6.057 28.537 C 6.532 27.868 6.967 27.030 7.143 26.093 C 7.457 24.452 7.377 22.456 7.006 20.376 C 6.467 17.359 5.598 14.280 4.444 12.418 L 3.254 10.712 C 2.520 9.320 2.065 8.016 2.222 6.693 Z"/>
</g>
</svg>
