<svg xmlns="http://www.w3.org/2000/svg" viewBox="0 0 11.149 20.601" width="11.149" height="20.601">
<g fill="black" stroke="none">
<path d="M 0.017 19.370 C -0.044 19.177 0.063 18.971 0.256 18.911 C 0.449 18.850 0.654 18.957 0.715 19.150 L 0.954 19.756 L 1.044 19.890 L 0.908 19.883 L 1.081 19.620 L 1.674 18.122 L 2.483 15.730 C 3.277 13.425 4.411 10.807 5.530 8.430 L 7.171 5.303 L 9.284 2.033 L 10.446 0.221 C 10.526 0.036 10.742 -0.051 10.927 0.030 C 11.113 0.111 11.199 0.326 11.118 0.512 C 10.813 1.216 10.122 2.083 9.262 3.358 L 7.803 5.672 L 6.193 8.741 C 5.081 11.102 3.955 13.705 3.174 15.969 L 2.371 18.350 C 2.031 19.337 1.818 20.057 1.384 20.434 L 0.921 20.601 C 0.645 20.578 0.474 20.379 0.353 20.179 L 0.017 19.370 Z"/>
<path d="M 4.122 0.232 C 4.306 0.319 4.383 0.538 4.297 0.719 C 4.209 0.903 3.990 0.980 3.808 0.894 L 3.290 0.742 C 3.161 0.747 3.139 0.767 3.121 1.093 C 3.084 1.784 3.457 3.074 4.039 4.625 C 4.958 7.074 6.313 10.002 7.544 12.736 L 9.156 16.441 C 9.586 17.499 9.902 18.365 10.008 19.010 C 10.041 19.208 9.907 19.398 9.707 19.431 C 9.507 19.464 9.319 19.328 9.286 19.129 L 8.705 17.292 C 7.555 14.313 5.401 9.972 3.861 6.176 C 3.121 4.353 2.549 2.772 2.413 1.609 C 2.351 1.065 2.360 0.567 2.700 0.240 C 3.045 -0.095 3.589 -0.021 4.122 0.232 Z"/>
</g>
</svg>
