<svg xmlns="http://www.w3.org/2000/svg" viewBox="0 0 6.117 8.200" width="6.117" height="8.200">
<g fill="black" stroke="none">
<path d="M 4.691 1.516 C 4.556 1.412 4.531 1.217 4.635 1.082 C 4.740 0.947 4.934 0.920 5.069 1.026 C 5.211 1.135 5.281 1.325 5.274 1.482 C 5.256 2.007 4.817 2.487 4.301 3.097 L 2.521 5.104 L 0.894 7.288 L 0.594 7.785 L 0.617 7.684 C 0.612 7.777 0.056 7.455 0.152 7.400 L 0.076 7.463 L 0.064 7.477 L 0.179 7.283 C 0.264 7.135 0.454 7.084 0.602 7.169 C 0.749 7.253 0.801 7.443 0.715 7.592 L 0.584 7.811 L 0.476 7.928 C 0.389 7.982 -0.008 7.738 0.000 7.644 L 0.044 7.502 L 0.665 6.509 L 2.053 4.696 L 4.037 2.445 L 4.593 1.642 L 4.656 1.460 L 4.691 1.516 Z"/>
<path d="M 0.869 0.244 C 0.905 0.076 1.069 -0.029 1.237 0.006 C 1.404 0.042 1.511 0.207 1.475 0.375 C 1.383 0.801 1.449 0.841 1.652 1.003 L 2.389 1.712 C 3.173 2.606 3.729 4.079 4.318 5.394 L 5.165 7.036 C 5.427 7.423 5.666 7.588 5.790 7.581 C 5.961 7.572 6.108 7.703 6.117 7.874 C 6.126 8.043 5.996 8.189 5.825 8.200 C 5.332 8.228 4.960 7.838 4.651 7.381 C 3.659 5.910 2.946 3.286 1.924 2.119 L 1.270 1.489 C 0.982 1.262 0.745 0.829 0.869 0.244 Z"/>
</g>
</svg>
