<svg xmlns="http://www.w3.org/2000/svg" viewBox="0 0 3.946 5.312" width="3.946" height="5.312">
<g fill="black" stroke="none">
<path d="M 3.023 0.994 C 2.936 0.927 2.920 0.802 2.987 0.715 C 3.054 0.628 3.179 0.611 3.266 0.679 C 3.357 0.749 3.402 0.871 3.398 0.972 C 3.386 1.310 3.104 1.619 2.772 2.011 L 1.627 3.302 L 0.580 4.707 L 0.387 5.027 L 0.402 4.962 C 0.399 5.022 0.041 4.815 0.103 4.779 L 0.054 4.820 L 0.046 4.829 L 0.120 4.704 C 0.175 4.609 0.297 4.576 0.392 4.631 C 0.487 4.685 0.520 4.807 0.465 4.903 L 0.381 5.044 L 0.311 5.119 C 0.255 5.154 0.000 4.997 0.005 4.936 L 0.033 4.845 L 0.433 4.206 L 1.326 3.040 L 2.602 1.592 L 2.960 1.075 L 3.000 0.958 L 3.023 0.994 Z"/>
<path d="M 0.564 0.176 C 0.587 0.068 0.693 0.000 0.801 0.023 C 0.908 0.046 0.977 0.152 0.954 0.260 C 0.895 0.534 0.937 0.560 1.068 0.664 L 1.542 1.120 C 2.046 1.695 2.404 2.643 2.783 3.489 L 3.328 4.545 C 3.496 4.794 3.650 4.900 3.730 4.896 C 3.840 4.890 3.934 4.974 3.940 5.084 C 3.946 5.193 3.862 5.287 3.752 5.294 C 3.435 5.312 3.196 5.061 2.997 4.767 C 2.359 3.821 1.900 2.133 1.243 1.382 L 0.822 0.977 C 0.637 0.831 0.484 0.552 0.564 0.176 Z"/>
</g>
</svg>
