<svg xmlns="http://www.w3.org/2000/svg" viewBox="0 0 11.868 20.657" width="11.868" height="20.657">
<g fill="black" stroke="none">
<path d="M 0.057 19.816 C 0.087 19.634 0.258 19.515 0.438 19.545 C 0.619 19.576 0.740 19.747 0.709 19.927 L 0.682 20.190 L 0.664 20.143 L 0.584 20.050 L 0.434 19.997 L 0.331 20.010 L 0.295 20.025 L 1.279 18.505 L 3.121 15.140 L 6.956 8.154 L 8.907 5.056 L 10.940 2.047 L 11.192 1.453 L 11.236 1.515 L 11.126 1.505 C 10.943 1.503 10.797 1.352 10.798 1.170 C 10.800 0.987 10.950 0.839 11.133 0.841 C 11.355 0.843 11.593 0.896 11.743 1.096 C 11.999 1.440 11.814 1.821 11.610 2.205 L 9.995 4.640 L 7.530 8.485 L 3.704 15.455 L 2.352 17.946 L 0.968 20.258 L 0.732 20.524 L 0.438 20.657 L 0.093 20.479 C -0.063 20.230 0.014 20.063 0.057 19.816 Z"/>
<path d="M 4.430 0.048 C 4.611 0.073 4.737 0.241 4.711 0.422 C 4.686 0.603 4.519 0.730 4.338 0.705 C 3.831 0.633 3.475 0.680 3.343 0.783 C 3.225 0.873 3.150 1.094 3.277 1.611 C 3.523 2.616 4.087 4.074 4.800 5.748 L 8.493 13.810 L 9.985 17.018 L 10.447 18.091 L 10.657 18.748 C 10.680 18.931 10.550 19.095 10.369 19.117 C 10.186 19.140 10.021 19.011 10.000 18.829 L 8.957 16.361 L 5.376 8.692 L 3.676 4.768 L 2.633 1.769 C 2.477 1.129 2.550 0.557 2.939 0.257 C 3.323 -0.039 3.851 -0.034 4.430 0.048 Z"/>
</g>
</svg>
