<svg xmlns="http://www.w3.org/2000/svg" viewBox="0 0 15.331 20.552" width="15.331" height="20.552">
<g fill="black" stroke="none">
<path d="M 11.758 3.799 C 11.419 3.538 11.357 3.051 11.618 2.712 C 11.879 2.373 12.366 2.307 12.705 2.572 C 13.060 2.845 13.235 3.320 13.219 3.714 C 13.173 5.030 12.074 6.234 10.780 7.762 L 6.319 12.791 L 2.240 18.265 L 1.488 19.512 L 1.547 19.259 C 1.535 19.493 0.140 18.686 0.382 18.546 L 0.191 18.706 L 0.160 18.741 L 0.448 18.254 C 0.662 17.884 1.138 17.755 1.508 17.969 C 1.878 18.180 2.006 18.655 1.792 19.029 L 1.465 19.578 L 1.192 19.871 C 0.974 20.007 -0.019 19.395 0.000 19.158 L 0.109 18.803 L 1.668 16.314 L 5.147 11.771 L 10.118 6.129 L 11.513 4.115 L 11.669 3.659 L 11.758 3.799 Z"/>
<path d="M 2.178 0.612 C 2.268 0.192 2.681 -0.073 3.101 0.016 C 3.518 0.106 3.787 0.519 3.697 0.940 C 3.468 2.007 3.631 2.108 4.142 2.514 L 5.988 4.290 C 7.952 6.530 9.347 10.224 10.823 13.520 L 12.947 17.634 C 13.601 18.604 14.201 19.017 14.513 19.002 C 14.942 18.978 15.308 19.306 15.331 19.734 C 15.354 20.159 15.027 20.525 14.599 20.552 C 13.364 20.623 12.432 19.645 11.657 18.499 C 9.171 14.814 7.383 8.237 4.823 5.311 L 3.183 3.733 C 2.462 3.164 1.866 2.077 2.178 0.612 Z"/>
</g>
</svg>
