<svg xmlns="http://www.w3.org/2000/svg" viewBox="0 0 13.383 30.945" width="13.383" height="30.945">
<g fill="black" stroke="none">
<path d="M 1.974 7.935 C 1.968 8.164 1.778 8.345 1.550 8.341 C 1.321 8.337 1.139 8.145 1.146 7.916 L 1.183 6.688 L 1.214 6.207 L 1.233 6.091 L 1.391 5.826 L 1.930 5.847 C 2.201 6.093 2.070 6.107 2.076 6.159 L 2.118 6.913 L 2.026 11.180 L 1.489 21.305 L 1.148 26.419 L 0.827 30.565 C 0.808 30.794 0.607 30.963 0.380 30.944 C 0.151 30.923 -0.018 30.723 0.001 30.495 L 0.434 24.729 L 1.058 14.236 L 1.248 9.804 L 1.287 6.936 L 1.260 6.320 L 1.254 6.263 L 1.279 6.334 L 1.373 6.461 C 1.304 6.399 1.908 6.511 1.760 6.551 C 1.624 6.588 2.016 6.351 1.985 6.394 L 2.028 6.313 L 2.043 6.265 L 1.974 7.935 Z"/>
<path d="M 2.867 9.525 C 2.776 9.735 2.530 9.829 2.320 9.735 C 2.112 9.644 2.018 9.398 2.109 9.188 L 3.831 4.798 C 4.283 3.580 4.697 2.533 5.296 1.680 C 5.937 0.770 6.801 0.058 7.832 0.000 C 9.216 -0.081 10.483 1.126 11.445 2.704 C 12.440 4.330 13.148 6.397 13.341 8.459 C 13.581 10.934 12.873 13.584 11.333 15.616 C 9.984 17.400 8.081 18.617 6.383 18.992 C 5.563 19.173 4.772 19.154 4.164 18.784 C 3.558 18.415 3.225 17.660 3.292 16.767 C 3.308 16.538 3.506 16.367 3.735 16.384 C 3.964 16.400 4.135 16.598 4.118 16.827 C 4.024 18.114 4.863 18.478 6.204 18.182 C 7.665 17.862 9.443 16.742 10.671 15.116 C 12.078 13.261 12.736 10.801 12.517 8.538 C 12.334 6.611 11.660 4.644 10.737 3.135 C 9.853 1.686 8.743 0.776 7.879 0.826 C 7.199 0.866 6.529 1.372 5.975 2.156 C 5.452 2.902 5.053 3.884 4.609 5.087 L 2.867 9.525 Z"/>
</g>
</svg>
