<svg xmlns="http://www.w3.org/2000/svg" viewBox="0 0 4.649 12.266" width="4.649" height="12.266">
<g fill="black" stroke="none">
<path d="M 1.441 0.826 C 1.431 0.693 1.531 0.576 1.664 0.565 C 1.798 0.555 1.914 0.655 1.924 0.789 C 1.968 1.352 1.905 1.807 1.796 2.415 L 1.588 3.560 L 1.442 4.782 L 1.153 7.913 L 0.902 10.137 L 0.707 11.361 L 0.579 11.900 L 0.522 12.068 L 0.482 12.144 L 0.305 12.263 L 0.225 11.785 C 0.304 11.771 0.046 11.914 0.069 11.880 L 0.035 11.945 L 0.026 11.993 L 0.023 12.014 L 0.000 11.678 L 0.108 11.074 L 0.381 10.069 C 0.714 8.655 0.617 6.345 0.772 4.257 C 0.857 3.114 1.050 2.158 1.341 1.425 C 1.619 0.729 1.990 0.217 2.486 0.052 C 2.950 -0.101 3.427 0.103 3.792 0.382 C 3.953 0.504 4.209 0.641 4.366 0.943 C 4.708 1.602 4.710 2.578 4.530 3.547 C 4.391 4.300 4.078 5.046 3.654 5.628 C 3.153 6.314 2.501 6.706 1.910 6.761 C 1.621 6.789 1.339 6.732 1.121 6.571 C 0.902 6.409 0.766 6.139 0.748 5.833 C 0.741 5.700 0.845 5.585 0.979 5.578 C 1.111 5.572 1.226 5.674 1.233 5.808 C 1.252 6.163 1.482 6.314 1.865 6.279 C 2.283 6.240 2.831 5.934 3.262 5.343 C 3.638 4.828 3.927 4.139 4.053 3.459 C 4.221 2.558 4.187 1.652 3.935 1.167 L 3.498 0.768 C 3.207 0.545 2.882 0.432 2.639 0.514 C 2.361 0.605 2.041 0.979 1.792 1.605 C 1.526 2.273 1.338 3.187 1.256 4.294 C 1.103 6.346 1.213 8.650 0.853 10.179 L 0.581 11.185 L 0.484 11.661 L 0.499 11.874 L 0.508 11.971 L 0.509 12.012 L 0.506 12.048 L 0.495 12.100 C 0.484 12.133 0.462 12.236 0.305 12.263 C 0.173 12.285 0.047 12.196 0.026 12.063 C 0.004 11.932 0.092 11.807 0.225 11.785 L 0.146 11.814 L 0.088 11.863 L 0.073 11.883 L 0.231 11.268 L 0.421 10.072 L 0.671 7.866 L 0.959 4.731 L 1.109 3.486 L 1.319 2.329 C 1.425 1.732 1.481 1.338 1.441 0.826 Z"/>
</g>
</svg>
