<svg xmlns="http://www.w3.org/2000/svg" viewBox="0 0 3.870 10.177" width="3.870" height="10.177">
<g fill="black" stroke="none">
<path d="M 1.184 0.762 C 1.176 0.652 1.258 0.556 1.367 0.547 C 1.477 0.539 1.573 0.621 1.581 0.731 C 1.617 1.194 1.565 1.568 1.476 2.067 L 1.305 3.008 L 1.185 4.012 L 0.947 6.585 L 0.741 8.412 L 0.581 9.418 L 0.476 9.861 L 0.429 9.999 L 0.396 10.061 L 0.251 10.159 L 0.185 9.766 C 0.250 9.755 0.038 9.872 0.057 9.844 L 0.029 9.898 L 0.021 9.937 L 0.019 9.954 L 0.000 9.678 L 0.089 9.182 L 0.313 8.356 C 0.587 7.194 0.507 5.296 0.634 3.581 C 0.704 2.642 0.863 1.856 1.102 1.254 C 1.330 0.682 1.635 0.261 2.043 0.126 C 2.424 0.000 2.816 0.168 3.116 0.397 C 3.248 0.497 3.458 0.610 3.587 0.858 C 3.868 1.399 3.870 2.201 3.722 2.997 C 3.608 3.616 3.351 4.229 3.002 4.707 C 2.591 5.271 2.055 5.593 1.569 5.638 C 1.332 5.661 1.100 5.614 0.921 5.482 C 0.741 5.349 0.629 5.127 0.615 4.876 C 0.609 4.766 0.694 4.672 0.804 4.666 C 0.913 4.661 1.007 4.745 1.013 4.855 C 1.029 5.147 1.218 5.271 1.532 5.242 C 1.876 5.210 2.326 4.959 2.680 4.473 C 2.989 4.050 3.227 3.484 3.330 2.925 C 3.468 2.185 3.440 1.440 3.233 1.042 L 2.874 0.714 C 2.635 0.531 2.368 0.438 2.168 0.505 C 1.940 0.580 1.677 0.887 1.472 1.402 C 1.254 1.951 1.099 2.702 1.032 3.611 C 0.906 5.297 0.997 7.190 0.701 8.447 L 0.477 9.273 L 0.398 9.664 L 0.410 9.839 L 0.417 9.919 L 0.418 9.953 L 0.416 9.982 L 0.407 10.025 C 0.398 10.052 0.380 10.137 0.251 10.159 C 0.142 10.177 0.039 10.104 0.021 9.995 C 0.003 9.887 0.076 9.784 0.185 9.766 L 0.120 9.790 L 0.072 9.830 L 0.060 9.847 L 0.190 9.341 L 0.346 8.359 L 0.551 6.546 L 0.788 3.970 L 0.911 2.947 L 1.084 1.997 C 1.171 1.506 1.217 1.182 1.184 0.762 Z"/>
</g>
</svg>
