<svg xmlns="http://www.w3.org/2000/svg" viewBox="0 0 13.349 31.044" width="13.349" height="31.044">
<g fill="black" stroke="none">
<path d="M 2.647 1.903 C 2.809 2.073 2.805 2.343 2.637 2.507 C 2.467 2.670 2.198 2.666 2.032 2.497 L 1.711 2.259 L 1.672 2.310 L 1.280 3.803 C 1.104 5.237 1.100 7.285 1.153 9.658 L 1.520 21.520 L 1.436 26.890 C 1.338 28.448 1.169 29.770 0.831 30.758 C 0.753 30.981 0.511 31.098 0.288 31.022 C 0.063 30.946 -0.054 30.702 0.023 30.479 C 0.276 29.743 0.438 28.694 0.542 27.439 C 0.923 22.726 0.462 15.972 0.314 10.222 L 0.280 6.359 C 0.308 4.667 0.395 3.311 0.694 2.403 C 0.835 1.974 1.038 1.577 1.462 1.442 C 1.893 1.306 2.311 1.554 2.647 1.903 Z"/>
<path d="M 4.502 6.016 C 4.590 6.237 4.483 6.486 4.264 6.571 C 4.046 6.659 3.797 6.555 3.709 6.336 C 3.408 5.575 3.272 4.637 3.362 3.700 C 3.453 2.760 3.780 1.813 4.477 1.153 C 6.345 -0.616 10.107 -0.370 11.956 2.010 C 13.196 3.610 13.585 6.113 13.215 8.596 C 12.835 11.119 11.191 13.380 9.271 14.870 C 7.398 16.325 5.175 17.102 3.665 16.190 C 3.463 16.068 3.399 15.804 3.521 15.603 C 3.643 15.401 3.905 15.337 4.106 15.460 C 5.104 16.063 7.026 15.534 8.748 14.196 C 10.522 12.818 12.034 10.712 12.370 8.469 C 12.716 6.164 12.315 3.868 11.280 2.534 C 9.755 0.571 6.501 0.412 5.063 1.775 C 4.063 2.719 3.999 4.759 4.502 6.016 Z"/>
</g>
</svg>
