<svg xmlns="http://www.w3.org/2000/svg" viewBox="0 0 13.067 30.388" width="13.067" height="30.388">
<g fill="black" stroke="none">
<path d="M 2.591 1.863 C 2.750 2.029 2.746 2.293 2.581 2.454 C 2.415 2.614 2.151 2.610 1.989 2.444 L 1.675 2.211 L 1.637 2.261 L 1.253 3.723 C 1.081 5.126 1.077 7.131 1.129 9.454 L 1.488 21.065 L 1.406 26.322 C 1.310 27.847 1.144 29.141 0.813 30.108 C 0.737 30.326 0.500 30.441 0.282 30.366 C 0.062 30.292 -0.053 30.053 0.022 29.835 C 0.270 29.114 0.429 28.088 0.530 26.859 C 0.903 22.246 0.452 15.634 0.307 10.006 L 0.274 6.225 C 0.301 4.568 0.387 3.241 0.679 2.352 C 0.817 1.932 1.016 1.544 1.431 1.412 C 1.853 1.278 2.262 1.521 2.591 1.863 Z"/>
<path d="M 4.407 5.889 C 4.493 6.105 4.388 6.349 4.174 6.432 C 3.960 6.518 3.717 6.416 3.631 6.202 C 3.336 5.457 3.203 4.539 3.291 3.622 C 3.380 2.702 3.700 1.775 4.382 1.129 C 6.211 -0.603 9.893 -0.362 11.703 1.968 C 12.917 3.534 13.298 5.984 12.936 8.414 C 12.564 10.884 10.954 13.097 9.075 14.556 C 7.242 15.980 5.066 16.741 3.587 15.848 C 3.390 15.728 3.327 15.470 3.447 15.273 C 3.566 15.076 3.822 15.013 4.019 15.133 C 4.996 15.724 6.877 15.206 8.563 13.896 C 10.300 12.547 11.780 10.486 12.109 8.290 C 12.447 6.034 12.055 3.786 11.042 2.480 C 9.549 0.559 6.364 0.403 4.956 1.737 C 3.977 2.662 3.914 4.658 4.407 5.889 Z"/>
</g>
</svg>
