<svg xmlns="http://www.w3.org/2000/svg" viewBox="0 0 11.651 30.744" width="11.651" height="30.744">
<g fill="black" stroke="none">
<path d="M 3.612 2.071 C 3.587 1.736 3.837 1.443 4.170 1.415 C 4.505 1.391 4.798 1.641 4.823 1.977 C 4.933 3.389 4.774 4.530 4.502 6.052 L 3.981 8.923 L 3.615 11.985 L 2.889 19.834 L 2.260 25.407 L 1.772 28.476 L 1.452 29.827 L 1.309 30.248 L 1.208 30.437 L 0.766 30.736 L 0.564 29.537 C 0.763 29.504 0.116 29.861 0.174 29.775 L 0.088 29.940 L 0.064 30.059 L 0.058 30.111 L 0.000 29.269 L 0.271 27.756 L 0.955 25.236 C 1.791 21.692 1.547 15.902 1.934 10.670 C 2.147 7.806 2.633 5.408 3.362 3.572 C 4.057 1.827 4.987 0.543 6.232 0.131 C 7.394 -0.253 8.590 0.259 9.505 0.958 C 9.908 1.263 10.548 1.608 10.942 2.364 C 11.799 4.014 11.805 6.461 11.354 8.889 C 11.006 10.777 10.222 12.647 9.157 14.105 C 7.904 15.826 6.269 16.808 4.786 16.945 C 4.063 17.015 3.355 16.872 2.809 16.469 C 2.260 16.064 1.919 15.386 1.876 14.621 C 1.858 14.285 2.117 13.998 2.453 13.980 C 2.785 13.965 3.072 14.221 3.090 14.557 C 3.139 15.447 3.715 15.826 4.673 15.737 C 5.723 15.640 7.095 14.874 8.175 13.391 C 9.118 12.101 9.844 10.375 10.158 8.669 C 10.579 6.412 10.493 4.139 9.862 2.925 L 8.767 1.925 C 8.038 1.367 7.223 1.083 6.613 1.287 C 5.918 1.516 5.116 2.453 4.490 4.024 C 3.825 5.698 3.352 7.989 3.148 10.762 C 2.764 15.905 3.041 21.679 2.138 25.514 L 1.455 28.033 L 1.214 29.226 L 1.251 29.760 L 1.272 30.004 L 1.275 30.108 L 1.269 30.196 L 1.242 30.327 C 1.214 30.410 1.159 30.669 0.766 30.736 C 0.433 30.791 0.119 30.568 0.064 30.236 C 0.009 29.906 0.232 29.592 0.564 29.537 L 0.366 29.610 L 0.220 29.732 L 0.183 29.784 L 0.580 28.241 L 1.055 25.245 L 1.681 19.715 L 2.404 11.857 L 2.779 8.736 L 3.307 5.839 C 3.572 4.341 3.712 3.352 3.612 2.071 Z"/>
</g>
</svg>
