<svg xmlns="http://www.w3.org/2000/svg" viewBox="0 0 7.944 12.706" width="7.944" height="12.706">
<g fill="black" stroke="none">
<path d="M 6.499 0.898 C 6.379 1.053 6.156 1.082 6.001 0.962 C 5.846 0.843 5.816 0.620 5.935 0.465 L 5.957 0.579 L 6.017 0.674 L 6.078 0.713 L 6.049 0.709 L 5.779 0.768 L 5.435 0.920 L 4.957 1.191 L 4.579 1.504 L 3.215 2.989 C 2.668 3.609 2.158 4.442 1.649 5.508 C 1.312 6.213 1.005 7.094 0.832 8.121 L 0.708 9.767 C 0.790 10.915 1.775 11.730 2.975 11.935 C 3.583 12.038 4.180 12.026 4.727 11.794 C 5.402 11.509 6.110 10.906 6.639 10.211 L 7.131 9.372 L 7.233 8.885 L 7.251 8.445 L 6.691 8.072 L 5.244 7.580 L 4.654 7.580 L 4.386 7.604 L 4.333 7.604 L 4.303 7.964 C 4.353 8.133 4.342 8.167 4.476 8.103 C 4.650 8.015 4.864 8.090 4.950 8.267 C 5.035 8.443 4.962 8.655 4.786 8.741 C 4.531 8.864 4.224 8.853 4.010 8.716 C 3.700 8.518 3.583 8.176 3.568 7.851 C 3.554 7.529 3.666 7.138 4.025 6.964 L 4.529 6.880 L 5.349 6.878 C 5.898 6.960 6.484 7.176 7.008 7.436 C 7.320 7.593 7.769 7.748 7.926 8.222 L 7.944 8.898 L 7.791 9.636 L 7.204 10.641 C 6.611 11.422 5.832 12.097 5.003 12.448 C 4.297 12.748 3.551 12.753 2.855 12.635 C 1.415 12.389 0.109 11.338 0.000 9.819 L 0.132 8.001 C 0.317 6.905 0.645 5.962 1.009 5.201 C 1.536 4.098 2.076 3.207 2.684 2.519 L 4.105 0.975 L 4.558 0.602 L 5.089 0.299 L 5.568 0.091 L 6.090 0.000 C 6.244 0.009 6.447 0.036 6.582 0.251 C 6.723 0.479 6.622 0.738 6.499 0.898 Z"/>
</g>
</svg>
