<svg xmlns="http://www.w3.org/2000/svg" viewBox="0 0 19.911 31.846" width="19.911" height="31.846">
<g fill="black" stroke="none">
<path d="M 16.288 2.252 C 15.989 2.640 15.430 2.712 15.042 2.412 C 14.653 2.113 14.577 1.555 14.876 1.166 L 14.930 1.452 L 15.082 1.689 L 15.234 1.787 L 15.162 1.778 L 14.483 1.925 L 13.621 2.305 L 12.424 2.984 L 11.477 3.770 L 8.059 7.492 C 6.688 9.046 5.410 11.133 4.132 13.804 C 3.288 15.573 2.520 17.780 2.086 20.353 L 1.774 24.481 C 1.979 27.358 4.449 29.400 7.456 29.913 C 8.979 30.172 10.476 30.141 11.847 29.560 C 13.541 28.846 15.314 27.336 16.641 25.593 L 17.874 23.489 L 18.129 22.270 L 18.173 21.166 L 16.770 20.233 L 13.143 19.000 L 11.664 19.000 L 10.994 19.058 L 10.860 19.058 L 10.784 19.960 C 10.909 20.385 10.882 20.469 11.218 20.309 C 11.655 20.090 12.191 20.277 12.406 20.720 C 12.620 21.162 12.437 21.693 11.995 21.908 C 11.356 22.216 10.588 22.189 10.052 21.845 C 9.274 21.349 8.979 20.492 8.944 19.679 C 8.908 18.870 9.189 17.892 10.087 17.454 L 11.352 17.244 L 13.407 17.239 C 14.782 17.445 16.252 17.986 17.566 18.638 C 18.347 19.031 19.473 19.420 19.866 20.608 L 19.911 22.301 L 19.527 24.150 L 18.057 26.670 C 16.569 28.627 14.617 30.320 12.540 31.200 C 10.771 31.950 8.899 31.964 7.157 31.669 C 3.547 31.053 0.273 28.417 0.000 24.611 L 0.331 20.054 C 0.795 17.307 1.617 14.943 2.529 13.036 C 3.851 10.270 5.204 8.037 6.728 6.312 L 10.288 2.444 L 11.423 1.510 L 12.754 0.751 L 13.956 0.228 L 15.265 0.000 C 15.649 0.022 16.158 0.089 16.498 0.630 C 16.851 1.202 16.596 1.849 16.288 2.252 Z"/>
</g>
</svg>
