<svg xmlns="http://www.w3.org/2000/svg" viewBox="0 0 4.457 7.155" width="4.457" height="7.155">
<g fill="black" stroke="none">
<path d="M 3.646 0.504 C 3.579 0.591 3.454 0.607 3.367 0.540 C 3.280 0.473 3.263 0.348 3.330 0.261 L 3.342 0.325 L 3.376 0.378 L 3.410 0.400 L 3.394 0.398 L 3.242 0.431 L 3.049 0.516 L 2.781 0.668 L 2.569 0.844 L 1.804 1.677 C 1.497 2.025 1.211 2.492 0.925 3.090 C 0.736 3.486 0.564 3.980 0.467 4.556 L 0.397 5.480 C 0.443 6.124 0.996 6.581 1.669 6.696 C 2.010 6.754 2.345 6.747 2.652 6.617 C 3.031 6.457 3.428 6.119 3.725 5.729 L 4.001 5.258 L 4.058 4.985 L 4.068 4.738 L 3.754 4.529 L 2.942 4.253 L 2.611 4.253 L 2.461 4.266 L 2.431 4.266 L 2.414 4.468 C 2.442 4.563 2.436 4.582 2.511 4.546 C 2.609 4.497 2.729 4.539 2.777 4.638 C 2.825 4.737 2.784 4.856 2.685 4.904 C 2.542 4.973 2.370 4.967 2.250 4.890 C 2.076 4.779 2.010 4.587 2.002 4.405 C 1.994 4.224 2.057 4.005 2.258 3.907 L 2.541 3.860 L 3.001 3.859 C 3.309 3.905 3.638 4.026 3.932 4.172 C 4.107 4.260 4.359 4.347 4.447 4.613 L 4.457 4.992 L 4.371 5.406 L 4.042 5.970 C 3.709 6.408 3.272 6.787 2.807 6.984 C 2.411 7.152 1.992 7.155 1.602 7.089 C 0.794 6.951 0.061 6.361 0.000 5.509 L 0.074 4.489 C 0.178 3.874 0.362 3.345 0.566 2.918 C 0.862 2.299 1.165 1.799 1.506 1.413 L 2.303 0.547 L 2.557 0.338 L 2.855 0.168 L 3.124 0.051 L 3.417 0.000 C 3.503 0.005 3.617 0.020 3.693 0.141 C 3.772 0.269 3.715 0.414 3.646 0.504 Z"/>
</g>
</svg>
