<svg xmlns="http://www.w3.org/2000/svg" viewBox="0 0 15.415 31.964" width="15.415" height="31.964">
<g fill="black" stroke="none">
<path d="M 12.342 3.900 C 12.328 4.099 12.157 4.246 11.958 4.232 C 11.762 4.218 11.613 4.046 11.627 3.848 C 11.715 2.626 11.173 1.417 10.313 0.897 C 10.029 0.727 9.650 0.679 9.196 0.782 C 8.470 0.946 7.583 1.481 6.680 2.340 C 5.739 3.234 4.791 4.459 3.933 5.971 C 3.335 7.034 2.766 8.192 2.282 9.492 C 1.792 10.816 1.390 12.293 1.133 13.967 C 0.779 16.245 0.582 18.821 0.824 21.369 C 1.024 23.470 1.716 25.504 2.412 27.225 C 2.922 28.487 3.470 29.433 4.034 30.087 C 5.553 31.844 7.285 31.387 8.751 29.832 C 10.762 27.701 12.157 25.239 13.214 23.169 C 13.863 21.894 14.408 20.654 14.603 19.365 L 14.662 17.480 C 14.616 17.047 14.410 16.804 14.050 16.633 C 12.823 16.049 10.234 16.619 8.237 16.440 C 8.039 16.422 7.892 16.248 7.911 16.051 C 7.928 15.852 8.101 15.706 8.300 15.725 C 9.497 15.831 11.061 15.607 12.476 15.640 C 13.170 15.655 13.821 15.728 14.358 15.985 C 14.891 16.238 15.304 16.741 15.376 17.401 C 15.447 18.038 15.420 18.765 15.313 19.474 C 15.100 20.883 14.518 22.193 13.853 23.496 C 12.782 25.591 11.358 28.115 9.274 30.325 C 8.186 31.477 6.820 32.221 5.465 31.882 C 4.773 31.710 4.099 31.261 3.492 30.556 C 2.859 29.824 2.277 28.809 1.747 27.495 C 1.037 25.742 0.320 23.645 0.111 21.438 C -0.140 18.808 0.062 16.179 0.422 13.857 C 0.687 12.137 1.102 10.610 1.610 9.242 C 2.107 7.899 2.697 6.706 3.310 5.617 C 5.625 1.526 8.808 -0.851 10.685 0.283 C 11.827 0.975 12.449 2.440 12.342 3.900 Z"/>
</g>
</svg>
