<svg xmlns="http://www.w3.org/2000/svg" viewBox="0 0 4.503 7.203" width="4.503" height="7.203">
<g fill="none" stroke="black" stroke-width="0.144" stroke-linecap="round" stroke-linejoin="round">
<path d="M 3.518 0.341 L 3.293 0.286 L 3.237 0.297 L 3.161 0.315 L 3.070 0.343 L 2.971 0.382 L 2.869 0.432 L 2.766 0.491 L 2.665 0.558 L 2.567 0.632 L 2.471 0.711 L 2.379 0.795 L 2.288 0.881 L 2.200 0.969 L 2.113 1.059 L 2.027 1.150 L 1.942 1.242 L 1.858 1.335 L 1.776 1.429 L 1.695 1.524 L 1.615 1.621 L 1.537 1.719 L 1.461 1.818 L 1.386 1.918 L 1.314 2.020 L 1.244 2.124 L 1.176 2.229 L 1.111 2.335 L 1.047 2.443 L 0.986 2.552 L 0.927 2.663 L 0.870 2.774 L 0.815 2.886 L 0.761 3.000 L 0.710 3.114 L 0.660 3.228 L 0.612 3.344 L 0.566 3.460 L 0.522 3.578 L 0.481 3.696 L 0.443 3.815 L 0.407 3.934 L 0.374 4.055 L 0.345 4.176 L 0.318 4.298 L 0.294 4.421 L 0.273 4.544 L 0.255 4.668 L 0.239 4.792 L 0.227 4.916 L 0.218 5.041 L 0.212 5.165 L 0.212 5.289 L 0.217 5.413 L 0.228 5.536 L 0.247 5.657 L 0.275 5.775 L 0.312 5.891 L 0.359 6.003 L 0.415 6.111 L 0.480 6.213 L 0.554 6.310 L 0.636 6.401 L 0.725 6.485 L 0.820 6.562 L 0.920 6.632 L 1.026 6.696 L 1.135 6.752 L 1.248 6.801 L 1.364 6.842 L 1.483 6.877 L 1.603 6.905 L 1.725 6.926 L 1.848 6.940 L 1.971 6.947 L 2.095 6.947 L 2.218 6.940 L 2.340 6.925 L 2.461 6.903 L 2.580 6.872 L 2.697 6.834 L 2.811 6.788 L 2.923 6.736 L 3.031 6.677 L 3.137 6.612 L 3.239 6.542 L 3.338 6.467 L 3.434 6.387 L 3.526 6.304 L 3.614 6.216 L 3.698 6.125 L 3.778 6.030 L 3.854 5.931 L 3.925 5.829 L 3.990 5.724 L 4.049 5.616 L 4.101 5.505 L 4.145 5.392 L 4.179 5.276 L 4.201 5.160 L 4.210 5.044 L 4.204 4.932 L 4.181 4.823 L 4.141 4.722 L 4.083 4.629 L 4.010 4.546 L 3.923 4.472 L 3.826 4.407 L 3.720 4.349 L 3.609 4.299 L 3.494 4.255 L 3.377 4.217 L 3.258 4.184 L 3.138 4.159 L 3.018 4.142 L 2.899 4.134 L 2.783 4.137 L 2.674 4.152 L 2.575 4.182 L 2.491 4.227 L 2.425 4.285 L 2.382 4.354 L 2.361 4.428 L 2.361 4.502 L 2.377 4.569 L 2.401 4.623 L 2.424 4.660 L 2.627 4.727"/>
</g>
</svg>