<svg xmlns="http://www.w3.org/2000/svg" viewBox="0 0 6.936 12.167" width="6.936" height="12.167">
<g fill="black" stroke="none">
<path d="M 0.383 0.680 C 0.400 0.491 0.565 0.352 0.753 0.369 C 0.942 0.384 1.081 0.551 1.064 0.738 L 1.066 1.526 L 0.994 2.922 L 0.788 6.414 L 0.788 9.357 L 0.788 10.236 L 0.762 10.627 L 0.722 10.837 L 0.662 10.957 C 0.619 11.015 0.475 11.139 0.292 11.091 C 0.000 11.013 0.046 10.867 0.033 10.818 L 0.000 10.349 C 0.000 10.160 0.153 10.008 0.341 10.008 C 0.530 10.008 0.685 10.160 0.683 10.349 L 0.695 10.643 L 0.662 10.576 L 0.619 10.519 L 0.527 10.452 L 0.376 10.418 L 0.233 10.452 L 0.153 10.505 L 0.093 10.581 L 0.072 10.629 L 0.103 10.221 L 0.103 9.361 L 0.103 6.392 L 0.312 2.874 L 0.383 1.524 L 0.383 0.680 Z"/>
<path d="M 0.779 1.100 C 0.592 1.073 0.462 0.899 0.489 0.712 C 0.517 0.525 0.688 0.396 0.875 0.422 C 1.237 0.474 1.601 0.371 2.092 0.239 L 3.533 0.000 L 4.393 0.065 C 4.872 0.202 5.301 0.544 5.673 0.990 C 6.196 1.618 6.557 2.495 6.785 3.441 L 6.936 5.217 C 6.915 6.052 6.804 6.915 6.553 7.739 C 6.363 8.367 6.044 8.918 5.740 9.416 L 4.786 10.795 C 4.012 11.717 3.200 12.120 2.526 12.163 C 1.886 12.203 1.383 11.967 1.160 11.609 C 1.060 11.447 1.109 11.236 1.270 11.137 C 1.429 11.037 1.640 11.087 1.740 11.247 C 1.771 11.296 2.061 11.506 2.483 11.480 C 2.943 11.453 3.578 11.171 4.263 10.356 L 5.157 9.061 L 5.900 7.540 C 6.128 6.789 6.233 5.985 6.253 5.199 L 6.121 3.600 C 5.910 2.727 5.572 1.936 5.148 1.429 C 4.834 1.054 4.501 0.808 4.204 0.722 L 3.535 0.683 L 2.270 0.897 C 1.783 1.030 1.314 1.175 0.779 1.100 Z"/>
</g>
</svg>
