<svg xmlns="http://www.w3.org/2000/svg" viewBox="0 0 17.384 30.496" width="17.384" height="30.496">
<g fill="black" stroke="none">
<path d="M 0.959 1.703 C 1.002 1.230 1.415 0.882 1.888 0.925 C 2.361 0.963 2.710 1.381 2.667 1.849 L 2.671 3.824 L 2.490 7.325 L 1.974 16.077 L 1.974 23.453 L 1.974 25.655 L 1.910 26.636 L 1.811 27.161 L 1.660 27.462 C 1.553 27.608 1.191 27.918 0.731 27.797 C 0.000 27.604 0.116 27.238 0.082 27.113 L 0.000 25.939 C 0.000 25.466 0.383 25.083 0.856 25.083 C 1.329 25.083 1.716 25.466 1.712 25.939 L 1.742 26.675 L 1.660 26.507 L 1.553 26.365 L 1.320 26.197 L 0.942 26.111 L 0.585 26.197 L 0.383 26.330 L 0.232 26.520 L 0.181 26.640 L 0.258 25.617 L 0.258 23.462 L 0.258 16.021 L 0.783 7.204 L 0.959 3.819 L 0.959 1.703 Z"/>
<path d="M 1.953 2.757 C 1.484 2.688 1.157 2.254 1.226 1.785 C 1.295 1.316 1.725 0.994 2.193 1.058 C 3.101 1.187 4.013 0.929 5.243 0.598 L 8.856 0.000 L 11.010 0.163 C 12.210 0.508 13.286 1.363 14.219 2.482 C 15.531 4.056 16.434 6.254 17.006 8.623 L 17.384 13.075 C 17.333 15.169 17.053 17.333 16.425 19.397 C 15.948 20.971 15.148 22.352 14.387 23.599 L 11.995 27.057 C 10.056 29.367 8.021 30.378 6.331 30.485 C 4.727 30.584 3.467 29.995 2.907 29.096 C 2.658 28.692 2.778 28.163 3.183 27.913 C 3.583 27.664 4.112 27.789 4.361 28.189 C 4.439 28.313 5.165 28.838 6.223 28.773 C 7.376 28.705 8.968 27.999 10.684 25.956 L 12.924 22.709 L 14.787 18.898 C 15.359 17.015 15.621 15.002 15.673 13.032 L 15.342 9.023 C 14.813 6.834 13.965 4.851 12.903 3.583 C 12.116 2.641 11.281 2.026 10.537 1.811 L 8.860 1.712 L 5.690 2.249 C 4.469 2.581 3.295 2.946 1.953 2.757 Z"/>
</g>
</svg>
