<svg xmlns="http://www.w3.org/2000/svg" viewBox="0 0 4.085 7.165" width="4.085" height="7.165">
<g fill="black" stroke="none">
<path d="M 0.225 0.400 C 0.235 0.289 0.332 0.207 0.444 0.217 C 0.555 0.226 0.637 0.324 0.627 0.435 L 0.628 0.898 L 0.585 1.721 L 0.464 3.778 L 0.464 5.511 L 0.464 6.028 L 0.449 6.258 L 0.425 6.382 L 0.390 6.452 C 0.365 6.487 0.280 6.560 0.172 6.531 C 0.000 6.486 0.027 6.400 0.019 6.371 L 0.000 6.095 C 0.000 5.984 0.090 5.894 0.201 5.894 C 0.312 5.894 0.403 5.984 0.402 6.095 L 0.409 6.268 L 0.390 6.228 L 0.365 6.195 L 0.310 6.155 L 0.221 6.135 L 0.137 6.155 L 0.090 6.187 L 0.055 6.231 L 0.042 6.259 L 0.061 6.019 L 0.061 5.513 L 0.061 3.764 L 0.184 1.693 L 0.225 0.897 L 0.225 0.400 Z"/>
<path d="M 0.459 0.648 C 0.349 0.632 0.272 0.530 0.288 0.419 C 0.304 0.309 0.405 0.233 0.515 0.249 C 0.729 0.279 0.943 0.218 1.232 0.140 L 2.081 0.000 L 2.587 0.038 C 2.869 0.119 3.122 0.320 3.341 0.583 C 3.649 0.953 3.861 1.469 3.996 2.026 L 4.085 3.072 C 4.073 3.564 4.007 4.073 3.859 4.558 C 3.747 4.928 3.559 5.252 3.380 5.545 L 2.818 6.358 C 2.363 6.900 1.885 7.138 1.488 7.163 C 1.111 7.186 0.815 7.048 0.683 6.837 C 0.625 6.742 0.653 6.617 0.748 6.559 C 0.842 6.500 0.966 6.529 1.025 6.623 C 1.043 6.653 1.214 6.776 1.462 6.761 C 1.733 6.745 2.107 6.579 2.510 6.099 L 3.037 5.336 L 3.474 4.440 C 3.609 3.998 3.670 3.525 3.683 3.062 L 3.605 2.120 C 3.480 1.606 3.281 1.140 3.032 0.842 C 2.847 0.620 2.651 0.476 2.476 0.425 L 2.082 0.402 L 1.337 0.529 C 1.050 0.606 0.774 0.692 0.459 0.648 Z"/>
</g>
</svg>
