<svg xmlns="http://www.w3.org/2000/svg" viewBox="0 0 15.076 30.585" width="15.076" height="30.585">
<g fill="black" stroke="none">
<path d="M 0.784 3.326 C 0.764 3.543 0.571 3.700 0.356 3.680 C 0.140 3.659 -0.018 3.468 0.001 3.251 L 0.185 2.317 C 0.270 2.069 0.345 1.819 0.664 1.703 C 0.876 1.624 1.138 1.751 1.238 1.879 L 1.518 2.712 L 1.743 5.624 L 1.743 13.877 L 1.553 20.802 L 1.373 25.314 L 1.249 27.854 L 1.172 29.093 L 1.128 29.582 L 1.099 29.721 L 0.341 29.684 L 0.318 29.158 L 0.339 28.001 C 0.345 27.785 0.523 27.613 0.741 27.620 C 0.957 27.626 1.128 27.804 1.124 28.022 L 1.103 29.273 L 1.107 29.509 C 1.113 29.549 0.240 29.613 0.401 29.375 C 0.492 29.239 0.347 29.497 0.349 29.497 L 0.451 28.035 L 0.591 25.225 C 0.776 21.119 0.969 15.515 1.002 10.572 L 0.904 4.455 L 0.722 2.715 L 0.622 2.366 L 0.720 2.433 L 0.935 2.437 L 1.004 2.398 L 0.784 3.326 Z"/>
<path d="M 3.761 2.358 C 3.789 2.573 3.637 2.770 3.422 2.798 C 3.207 2.826 3.010 2.674 2.983 2.459 C 2.839 1.338 2.854 0.520 3.420 0.142 C 3.845 -0.142 4.366 0.039 4.821 0.327 C 5.538 0.785 6.334 1.614 7.216 2.674 L 10.063 6.522 C 11.781 9.056 13.633 11.813 14.518 14.900 C 15.016 16.638 15.192 18.442 15.000 20.126 C 14.632 23.409 12.334 26.140 9.918 28.001 C 8.739 28.912 7.546 29.605 6.504 30.051 C 5.515 30.475 4.713 30.749 4.096 30.477 C 3.897 30.390 3.806 30.160 3.893 29.960 C 3.980 29.761 4.212 29.671 4.409 29.758 C 4.531 29.810 5.281 29.721 6.195 29.329 C 7.672 28.697 9.521 27.517 11.103 25.913 C 12.699 24.298 13.970 22.274 14.220 20.037 C 14.399 18.467 14.234 16.760 13.763 15.117 C 12.921 12.182 11.124 9.488 9.412 6.962 L 6.906 3.535 C 5.743 2.093 4.691 1.054 4.086 0.826 C 3.853 0.739 3.870 0.733 3.803 0.870 C 3.708 1.064 3.660 1.576 3.761 2.358 Z"/>
</g>
</svg>
