<svg xmlns="http://www.w3.org/2000/svg" viewBox="0 0 5.571 8.371" width="5.571" height="8.371">
<g fill="black" stroke="none">
<path d="M 0.065 2.787 C 0.066 2.638 0.188 2.517 0.338 2.520 C 0.487 2.521 0.608 2.643 0.605 2.793 L 0.541 4.389 C 0.535 5.043 0.571 5.755 0.737 6.408 C 0.897 7.040 1.197 7.538 1.505 7.737 C 1.663 7.836 1.830 7.863 2.021 7.799 C 2.598 7.608 3.330 6.139 3.756 4.603 L 4.166 2.544 L 4.234 1.208 L 4.235 0.302 C 4.219 0.154 4.325 0.019 4.474 0.002 C 4.622 -0.015 4.756 0.091 4.773 0.240 L 4.767 0.338 L 4.684 0.898 L 4.705 4.498 L 4.892 6.414 L 5.039 7.439 L 5.048 7.466 L 4.978 7.432 L 4.933 7.434 L 5.107 7.289 C 5.210 7.181 5.381 7.177 5.488 7.282 C 5.597 7.385 5.599 7.556 5.496 7.663 C 5.336 7.829 5.193 7.960 4.978 7.971 C 4.808 7.980 4.653 7.859 4.587 7.743 C 4.395 7.418 4.417 6.982 4.356 6.481 L 4.164 4.527 L 4.145 0.858 L 4.202 0.403 L 4.230 0.268 L 4.236 0.232 L 4.234 0.257 L 4.235 0.302 L 4.773 0.240 L 4.774 1.206 L 4.702 2.613 L 4.277 4.747 C 4.056 5.544 3.771 6.330 3.425 6.983 C 3.088 7.617 2.708 8.141 2.192 8.312 C 1.853 8.426 1.493 8.369 1.215 8.191 C 0.725 7.879 0.395 7.261 0.211 6.541 C 0.030 5.818 -0.007 5.064 0.001 4.382 L 0.065 2.787 Z"/>
</g>
</svg>
