<svg xmlns="http://www.w3.org/2000/svg" viewBox="0 0 12.676 21.156" width="12.676" height="21.156">
<g fill="black" stroke="none">
<path d="M 0.895 5.393 C 0.937 5.634 0.774 5.865 0.531 5.908 C 0.287 5.948 0.057 5.787 0.016 5.542 C -0.044 5.198 0.073 4.926 0.198 4.588 L 0.671 3.500 L 1.344 2.253 C 1.416 2.170 1.684 2.022 1.908 2.139 C 2.265 2.324 2.155 2.459 2.168 2.530 L 2.191 3.711 L 2.103 7.241 L 2.057 11.926 C 2.072 14.135 2.256 16.316 2.802 17.948 C 3.179 19.075 3.756 19.943 4.293 20.248 C 4.416 20.317 4.628 20.270 4.999 19.877 C 5.632 19.209 6.329 17.899 6.972 16.309 C 7.632 14.674 8.215 12.807 8.638 10.986 C 9.238 8.407 9.534 5.985 9.703 4.042 L 9.838 1.888 L 9.859 0.616 L 9.859 0.445 C 9.859 0.199 10.058 0.000 10.304 0.000 C 10.550 0.000 10.751 0.199 10.751 0.445 L 10.751 0.616 L 10.731 1.916 L 10.591 4.123 C 10.420 6.091 10.120 8.552 9.506 11.187 C 8.929 13.680 8.076 16.229 7.106 18.204 C 6.640 19.155 6.165 19.945 5.646 20.492 C 5.149 21.014 4.450 21.361 3.852 21.023 C 2.993 20.535 2.374 19.484 1.956 18.230 C 1.358 16.441 1.180 14.190 1.163 11.935 L 1.259 5.347 L 1.304 3.240 L 1.293 2.721 L 1.331 2.777 L 1.432 2.889 C 1.344 2.821 1.949 2.924 1.822 2.962 C 1.700 2.996 2.059 2.793 2.028 2.828 L 1.472 3.892 L 0.895 5.393 Z"/>
<path d="M 9.859 0.445 C 9.859 0.199 10.058 0.000 10.304 0.000 C 10.550 0.000 10.751 0.199 10.751 0.445 L 10.751 0.695 L 10.751 2.696 L 10.749 7.681 C 10.857 10.455 11.216 13.635 11.625 16.246 L 12.209 19.312 L 12.437 20.053 L 12.465 20.107 L 12.450 20.087 L 12.378 20.031 L 12.255 19.986 L 12.005 20.022 L 11.876 20.125 C 12.029 19.930 12.308 19.896 12.503 20.046 C 12.698 20.199 12.733 20.478 12.581 20.673 L 12.225 20.870 C 11.905 20.899 11.784 20.694 11.714 20.591 C 11.477 20.219 11.358 19.651 11.183 18.826 L 10.376 13.736 L 9.859 7.714 L 9.859 2.696 L 9.859 0.688 L 9.859 0.445 Z"/>
</g>
</svg>
