<svg xmlns="http://www.w3.org/2000/svg" viewBox="0 0 4.130 6.218" width="4.130" height="6.218">
<g fill="black" stroke="none">
<path d="M 0.053 2.064 C 0.054 1.954 0.144 1.865 0.254 1.867 C 0.364 1.868 0.453 1.958 0.451 2.068 L 0.404 3.244 C 0.399 3.726 0.426 4.250 0.548 4.731 C 0.666 5.197 0.887 5.564 1.114 5.710 C 1.230 5.783 1.353 5.803 1.494 5.756 C 1.919 5.615 2.458 4.533 2.772 3.402 L 3.074 1.885 L 3.124 0.901 L 3.125 0.233 C 3.113 0.124 3.191 0.025 3.301 0.012 C 3.410 0.000 3.509 0.078 3.521 0.188 L 3.517 0.260 L 3.456 0.672 L 3.471 3.324 L 3.609 4.736 L 3.717 5.491 L 3.724 5.511 L 3.672 5.486 L 3.639 5.487 L 3.767 5.380 C 3.843 5.301 3.969 5.298 4.048 5.375 C 4.128 5.451 4.130 5.577 4.054 5.656 C 3.936 5.778 3.831 5.875 3.672 5.883 C 3.547 5.889 3.433 5.800 3.384 5.715 C 3.243 5.475 3.259 5.154 3.214 4.785 L 3.073 3.346 L 3.059 0.643 L 3.101 0.308 L 3.121 0.208 L 3.126 0.182 L 3.124 0.200 L 3.125 0.233 L 3.521 0.188 L 3.522 0.899 L 3.469 1.936 L 3.156 3.508 C 2.993 4.095 2.783 4.674 2.528 5.155 C 2.280 5.622 2.000 6.008 1.620 6.134 C 1.370 6.218 1.105 6.176 0.900 6.045 C 0.539 5.815 0.296 5.360 0.161 4.829 C 0.027 4.297 0.000 3.741 0.006 3.239 L 0.053 2.064 Z"/>
</g>
</svg>
