<svg xmlns="http://www.w3.org/2000/svg" viewBox="0 0 15.180 21.155" width="15.180" height="21.155">
<g fill="black" stroke="none">
<path d="M 1.782 5.997 C 1.669 6.179 1.432 6.236 1.249 6.126 C 1.067 6.013 1.010 5.774 1.121 5.593 L 1.104 5.624 L 1.333 3.962 L 1.335 2.905 L 1.290 2.584 L 1.277 2.542 L 1.302 2.582 L 1.424 2.677 L 1.749 1.974 L 1.966 2.246 L 1.923 2.663 L 1.500 4.590 C 1.042 7.298 0.533 11.549 0.901 14.830 C 1.032 15.982 1.356 16.922 1.805 17.605 C 2.236 18.261 2.781 18.679 3.358 18.840 C 4.203 19.073 5.415 18.409 6.577 17.166 C 7.797 15.865 8.929 14.060 9.776 12.178 C 10.502 10.554 10.990 8.871 11.351 7.182 C 11.647 5.746 11.805 4.304 11.873 3.038 L 11.875 1.160 L 11.731 0.830 L 11.657 0.771 L 11.700 0.771 C 11.603 0.781 11.933 0.643 11.903 0.677 L 11.933 0.634 L 11.749 1.898 L 11.647 7.314 C 11.714 10.653 11.957 14.318 12.524 17.101 C 12.791 18.413 13.131 19.468 13.527 20.024 C 13.871 20.508 14.079 20.580 14.543 20.186 C 14.704 20.045 14.949 20.066 15.088 20.228 C 15.227 20.389 15.207 20.634 15.046 20.775 C 14.488 21.250 13.735 21.283 13.254 20.871 C 12.392 20.135 11.982 18.536 11.634 16.559 C 11.087 13.448 10.883 9.580 10.860 6.225 L 10.961 2.061 L 11.100 0.781 L 11.205 0.374 C 11.252 0.253 11.294 0.037 11.617 0.003 C 12.170 -0.054 12.576 0.440 12.644 1.080 L 12.646 3.081 C 12.576 4.378 12.417 5.855 12.108 7.341 C 11.739 9.069 11.236 10.807 10.482 12.495 C 9.605 14.446 8.438 16.312 7.143 17.697 C 5.893 19.031 4.464 19.949 3.150 19.586 C 1.585 19.147 0.408 17.380 0.133 14.918 C -0.251 11.490 0.273 7.213 0.737 4.461 L 1.054 2.976 L 1.176 2.458 L 1.201 2.328 L 1.211 2.414 L 1.249 2.517 C 1.222 2.467 1.512 2.718 1.420 2.674 C 1.228 2.586 1.145 2.354 1.234 2.160 C 1.325 1.968 1.552 1.885 1.747 1.974 C 2.047 2.112 2.011 2.276 2.042 2.401 L 2.104 4.022 L 1.972 5.205 L 1.782 5.997 Z"/>
</g>
</svg>
