<svg xmlns="http://www.w3.org/2000/svg" viewBox="0 0 5.544 8.373" width="5.544" height="8.373">
<g fill="black" stroke="none">
<path d="M 0.121 1.334 C 0.156 1.158 0.328 1.043 0.504 1.077 C 0.681 1.112 0.796 1.284 0.762 1.461 L 0.652 3.540 L 0.652 5.545 C 0.680 6.366 0.806 7.006 1.001 7.327 L 1.241 7.543 C 1.345 7.566 1.569 7.500 1.849 7.234 C 2.516 6.595 3.166 5.126 3.675 3.706 L 4.278 1.429 L 4.307 0.846 L 4.261 0.545 L 4.248 0.498 L 4.271 0.534 L 4.312 0.578 L 4.401 0.632 L 4.631 0.021 C 4.859 0.108 4.831 0.234 4.838 0.272 L 4.835 0.426 L 4.612 2.124 C 4.505 3.488 4.417 5.019 4.515 6.221 L 4.789 7.522 C 4.905 7.744 4.931 7.766 5.102 7.700 C 5.270 7.636 5.459 7.720 5.522 7.889 C 5.588 8.057 5.503 8.246 5.336 8.310 C 5.113 8.395 4.859 8.398 4.654 8.296 C 3.953 7.948 3.883 6.927 3.836 5.794 C 3.786 4.618 3.867 3.275 3.962 2.071 L 4.107 0.855 L 4.171 0.439 L 4.189 0.324 L 4.196 0.383 C 4.189 0.347 4.628 0.717 4.401 0.632 C 4.232 0.568 4.147 0.380 4.211 0.211 C 4.274 0.042 4.463 -0.043 4.631 0.021 L 4.853 0.249 L 4.954 0.769 L 4.921 1.536 L 4.289 3.925 C 3.768 5.380 3.143 6.899 2.299 7.705 C 1.931 8.057 1.513 8.269 1.105 8.182 C 0.816 8.120 0.594 7.912 0.444 7.666 C 0.139 7.166 0.029 6.442 0.000 5.566 L 0.000 3.529 L 0.052 2.081 L 0.121 1.334 Z"/>
</g>
</svg>
