<svg xmlns="http://www.w3.org/2000/svg" viewBox="0 0 3.412 5.154" width="3.412" height="5.154">
<g fill="black" stroke="none">
<path d="M 0.074 0.841 C 0.095 0.733 0.200 0.663 0.308 0.684 C 0.416 0.705 0.486 0.810 0.465 0.918 L 0.398 2.188 L 0.398 3.412 C 0.415 3.913 0.492 4.304 0.611 4.500 L 0.758 4.632 C 0.821 4.646 0.958 4.606 1.129 4.443 C 1.536 4.053 1.933 3.156 2.244 2.289 L 2.612 0.899 L 2.630 0.543 L 2.602 0.359 L 2.594 0.330 L 2.608 0.352 L 2.633 0.379 L 2.687 0.412 L 2.828 0.039 C 2.967 0.092 2.950 0.169 2.954 0.192 L 2.952 0.286 L 2.816 1.323 C 2.751 2.156 2.697 3.091 2.757 3.825 L 2.924 4.619 C 2.995 4.755 3.011 4.768 3.115 4.728 C 3.218 4.689 3.333 4.740 3.372 4.843 C 3.412 4.946 3.360 5.061 3.258 5.100 C 3.122 5.152 2.967 5.154 2.842 5.092 C 2.414 4.879 2.371 4.256 2.342 3.564 C 2.312 2.846 2.361 2.026 2.419 1.291 L 2.508 0.548 L 2.547 0.294 L 2.558 0.224 L 2.562 0.260 C 2.558 0.238 2.826 0.464 2.687 0.412 C 2.584 0.373 2.532 0.258 2.571 0.155 C 2.610 0.052 2.725 0.000 2.828 0.039 L 2.963 0.178 L 3.025 0.496 L 3.005 0.964 L 2.619 2.423 C 2.301 3.311 1.919 4.239 1.404 4.731 C 1.179 4.946 0.924 5.075 0.675 5.022 C 0.498 4.984 0.363 4.857 0.271 4.707 C 0.085 4.402 0.018 3.960 0.000 3.425 L 0.000 2.181 L 0.032 1.297 L 0.074 0.841 Z"/>
</g>
</svg>
