<svg xmlns="http://www.w3.org/2000/svg" viewBox="0 0 15.437 20.978" width="15.437" height="20.978">
<g fill="black" stroke="none">
<path d="M 2.420 3.426 C 2.581 3.535 2.622 3.754 2.511 3.915 C 2.401 4.074 2.182 4.114 2.021 4.005 C 1.529 3.664 1.232 3.622 1.137 3.668 C 1.040 3.715 0.881 3.989 0.810 4.549 C 0.692 5.477 0.642 6.840 0.812 8.535 C 1.003 10.444 1.370 12.621 1.951 14.537 C 2.269 15.579 2.680 16.490 3.136 17.235 C 3.575 17.957 4.052 18.511 4.499 18.859 C 5.050 19.278 5.486 19.371 5.904 19.082 C 6.234 18.857 6.579 18.365 6.893 17.689 C 7.389 16.613 7.804 15.150 8.180 13.525 L 9.215 8.385 L 10.120 2.522 L 10.278 0.830 L 10.299 0.424 L 10.304 0.330 L 10.316 0.262 C 10.324 0.235 10.251 0.129 10.534 0.027 C 10.837 -0.084 10.966 0.184 10.984 0.232 L 11.009 0.362 L 11.009 3.046 C 10.994 6.586 11.259 11.249 11.969 15.077 C 12.310 16.912 12.744 18.467 13.302 19.419 C 13.802 20.275 14.254 20.510 14.881 20.063 C 15.040 19.950 15.258 19.987 15.371 20.146 C 15.484 20.305 15.447 20.524 15.289 20.637 C 14.821 20.969 14.275 21.071 13.816 20.886 C 13.009 20.563 12.499 19.595 12.071 18.368 C 11.395 16.423 10.977 13.781 10.696 10.993 C 10.414 8.191 10.295 5.363 10.304 3.046 L 10.304 0.382 L 10.309 0.419 C 10.306 0.403 10.467 0.691 10.375 0.569 C 10.241 0.392 11.007 0.421 10.986 0.477 L 11.002 0.413 L 10.820 2.605 L 9.905 8.514 C 9.478 10.795 9.033 13.204 8.464 15.287 C 7.913 17.298 7.322 18.970 6.301 19.662 C 5.613 20.139 4.751 19.934 4.071 19.415 C 3.531 18.999 3.010 18.381 2.535 17.602 C 2.046 16.802 1.612 15.838 1.278 14.742 C 0.678 12.764 0.305 10.552 0.111 8.604 C -0.062 6.858 -0.013 5.447 0.113 4.459 C 0.196 3.811 0.362 3.263 0.830 3.035 C 1.298 2.806 1.845 3.028 2.420 3.426 Z"/>
</g>
</svg>
