<svg xmlns="http://www.w3.org/2000/svg" viewBox="0 0 15.567 21.155" width="15.567" height="21.155">
<g fill="black" stroke="none">
<path d="M 2.441 3.455 C 2.603 3.565 2.644 3.786 2.532 3.948 C 2.421 4.108 2.201 4.149 2.038 4.039 C 1.542 3.695 1.243 3.652 1.147 3.699 C 1.049 3.746 0.889 4.023 0.817 4.587 C 0.698 5.523 0.648 6.898 0.819 8.607 C 1.012 10.532 1.382 12.728 1.968 14.660 C 2.288 15.711 2.703 16.630 3.163 17.381 C 3.605 18.109 4.086 18.668 4.537 19.019 C 5.093 19.441 5.533 19.535 5.954 19.244 C 6.287 19.017 6.635 18.520 6.952 17.839 C 7.452 16.754 7.870 15.278 8.250 13.639 L 9.293 8.456 L 10.206 2.543 L 10.365 0.837 L 10.386 0.427 L 10.392 0.332 L 10.404 0.264 C 10.412 0.237 10.338 0.130 10.623 0.027 C 10.929 -0.085 11.059 0.185 11.077 0.234 L 11.103 0.365 L 11.103 3.072 C 11.087 6.642 11.355 11.344 12.071 15.205 C 12.415 17.055 12.852 18.623 13.415 19.583 C 13.919 20.447 14.375 20.684 15.007 20.233 C 15.168 20.119 15.388 20.156 15.502 20.317 C 15.615 20.477 15.578 20.698 15.419 20.812 C 14.947 21.147 14.396 21.249 13.933 21.063 C 13.119 20.737 12.605 19.761 12.174 18.523 C 11.492 16.562 11.070 13.898 10.787 11.086 C 10.502 8.260 10.382 5.408 10.392 3.072 L 10.392 0.385 L 10.397 0.422 C 10.394 0.406 10.556 0.697 10.463 0.574 C 10.328 0.395 11.100 0.424 11.079 0.481 L 11.095 0.416 L 10.912 2.627 L 9.989 8.586 C 9.559 10.886 9.110 13.316 8.536 15.416 C 7.980 17.444 7.384 19.131 6.355 19.828 C 5.661 20.310 4.791 20.103 4.106 19.579 C 3.561 19.160 3.036 18.537 2.557 17.751 C 2.063 16.944 1.626 15.972 1.289 14.867 C 0.684 12.872 0.308 10.641 0.112 8.677 C -0.062 6.916 -0.013 5.493 0.114 4.497 C 0.198 3.843 0.365 3.290 0.837 3.060 C 1.309 2.829 1.861 3.053 2.441 3.455 Z"/>
</g>
</svg>
