<svg xmlns="http://www.w3.org/2000/svg" viewBox="0 0 13.964 20.981" width="13.964" height="20.981">
<g fill="black" stroke="none">
<path d="M 0.163 6.986 C 0.166 6.611 0.472 6.309 0.846 6.315 C 1.221 6.319 1.523 6.625 1.517 6.999 L 1.357 11.000 C 1.340 12.640 1.432 14.423 1.847 16.060 C 2.248 17.645 3.000 18.894 3.772 19.391 C 4.167 19.639 4.586 19.707 5.065 19.547 C 6.511 19.067 8.345 15.386 9.414 11.538 L 10.441 6.377 L 10.611 3.029 L 10.615 0.756 C 10.574 0.385 10.839 0.048 11.213 0.004 C 11.584 -0.037 11.921 0.228 11.962 0.603 L 11.948 0.848 L 11.741 2.250 L 11.792 11.273 L 12.261 16.077 L 12.629 18.646 L 12.653 18.714 L 12.476 18.629 L 12.363 18.632 L 12.799 18.268 C 13.058 17.999 13.486 17.989 13.755 18.251 C 14.027 18.509 14.034 18.938 13.775 19.207 C 13.374 19.622 13.017 19.952 12.476 19.979 C 12.050 20.000 11.663 19.697 11.496 19.408 C 11.016 18.591 11.071 17.499 10.917 16.243 L 10.438 11.347 L 10.390 2.151 L 10.533 1.011 L 10.601 0.671 L 10.618 0.582 L 10.611 0.644 L 10.615 0.756 L 11.962 0.603 L 11.965 3.022 L 11.785 6.550 L 10.720 11.899 C 10.166 13.896 9.451 15.866 8.583 17.502 C 7.740 19.091 6.787 20.405 5.494 20.833 C 4.643 21.119 3.742 20.976 3.044 20.530 C 1.816 19.748 0.989 18.200 0.530 16.393 C 0.074 14.583 -0.018 12.691 0.003 10.983 L 0.163 6.986 Z"/>
</g>
</svg>
