<svg xmlns="http://www.w3.org/2000/svg" viewBox="0 0 13.896 20.986" width="13.896" height="20.986">
<g fill="black" stroke="none">
<path d="M 0.304 3.345 C 0.390 2.901 0.821 2.614 1.264 2.700 C 1.708 2.786 1.995 3.217 1.909 3.661 L 1.634 8.874 L 1.634 13.898 C 1.703 15.954 2.020 17.559 2.508 18.364 L 3.111 18.906 C 3.370 18.963 3.932 18.799 4.634 18.130 C 6.305 16.529 7.935 12.847 9.211 9.288 L 10.722 3.583 L 10.796 2.121 L 10.681 1.366 L 10.648 1.247 L 10.705 1.337 L 10.808 1.448 L 11.029 1.584 L 11.608 0.053 C 12.179 0.270 12.109 0.586 12.125 0.681 L 12.117 1.066 L 11.559 5.323 C 11.292 8.742 11.071 12.580 11.317 15.593 L 12.002 18.852 C 12.294 19.411 12.359 19.464 12.786 19.300 C 13.209 19.140 13.681 19.349 13.841 19.772 C 14.005 20.195 13.792 20.667 13.373 20.827 C 12.815 21.040 12.179 21.048 11.666 20.794 C 9.909 19.920 9.732 17.362 9.613 14.522 C 9.490 11.575 9.691 8.209 9.929 5.192 L 10.295 2.142 L 10.455 1.099 L 10.500 0.812 L 10.516 0.960 C 10.500 0.869 11.600 1.797 11.029 1.584 C 10.607 1.424 10.393 0.952 10.553 0.529 C 10.713 0.106 11.185 -0.107 11.608 0.053 L 12.162 0.623 L 12.417 1.928 L 12.335 3.849 L 10.750 9.838 C 9.445 13.483 7.877 17.293 5.763 19.312 C 4.840 20.195 3.793 20.724 2.771 20.507 C 2.044 20.351 1.490 19.829 1.112 19.214 C 0.349 17.962 0.074 16.147 0.000 13.951 L 0.000 8.845 L 0.131 5.216 L 0.304 3.345 Z"/>
</g>
</svg>
