<svg xmlns="http://www.w3.org/2000/svg" viewBox="0 0 5.418 12.071" width="5.418" height="12.071">
<g fill="black" stroke="none">
<path d="M 0.928 0.912 C 0.906 1.076 0.756 1.190 0.592 1.167 C 0.428 1.145 0.312 0.994 0.335 0.831 L 0.346 0.772 L 0.427 0.611 C 0.619 0.409 0.931 0.724 0.940 0.763 L 0.951 1.032 L 0.925 2.103 L 0.676 8.958 L 0.596 11.465 L 0.593 11.728 L 0.595 11.770 L 0.590 11.744 C 0.599 11.783 -0.053 11.797 0.060 11.641 C 0.122 11.554 0.012 11.747 0.014 11.741 L 0.054 11.294 C 0.066 11.128 0.209 11.005 0.374 11.017 C 0.539 11.029 0.662 11.173 0.650 11.337 L 0.611 11.779 L 0.590 11.899 C 0.578 11.938 0.212 12.203 0.059 11.991 L 0.000 11.836 L 0.005 11.160 L 0.098 8.390 L 0.293 3.110 L 0.349 1.302 L 0.352 0.888 L 0.350 0.865 L 0.371 0.937 C 0.341 0.870 0.964 0.898 0.874 1.008 C 0.784 1.118 0.931 0.889 0.931 0.894 L 0.928 0.912 Z"/>
<path d="M 5.126 0.514 C 5.025 0.644 4.837 0.668 4.705 0.568 C 4.574 0.467 4.550 0.279 4.651 0.149 L 4.816 0.006 L 5.123 0.000 C 5.288 0.077 5.318 0.198 5.346 0.288 L 5.418 1.519 L 5.208 5.476 L 5.187 7.754 L 5.187 10.594 L 5.187 11.472 L 5.187 11.519 C 5.189 11.684 5.056 11.819 4.891 11.821 C 4.726 11.822 4.591 11.690 4.589 11.525 L 4.589 11.469 L 4.589 10.597 L 4.589 7.754 L 4.610 5.450 L 4.821 1.507 L 4.785 0.509 L 4.770 0.451 L 4.803 0.496 L 4.918 0.559 L 5.034 0.559 L 5.126 0.514 Z"/>
<path d="M 5.187 11.522 C 5.187 11.687 5.053 11.821 4.888 11.821 C 4.723 11.821 4.589 11.687 4.589 11.522 L 4.561 10.792 L 4.546 10.682 C 4.498 10.523 4.588 10.356 4.746 10.308 C 4.905 10.262 5.071 10.350 5.118 10.510 L 5.159 10.759 L 5.187 11.522 Z"/>
<path d="M 1.376 6.694 C 1.236 6.607 1.194 6.422 1.281 6.281 C 1.370 6.141 1.555 6.099 1.695 6.188 C 2.178 6.493 3.177 6.135 4.115 5.967 C 4.277 5.937 4.433 6.045 4.462 6.209 C 4.492 6.371 4.382 6.526 4.220 6.556 L 2.829 6.865 C 2.337 6.949 1.812 6.969 1.376 6.694 Z"/>
</g>
</svg>
