<svg xmlns="http://www.w3.org/2000/svg" viewBox="0 0 23.238 30.584" width="23.238" height="30.584">
<g fill="black" stroke="none">
<path d="M 0.778 1.744 C 0.513 1.695 0.340 1.442 0.388 1.179 C 0.439 0.917 0.692 0.742 0.955 0.793 C 1.685 0.929 1.886 1.695 2.037 2.521 L 2.258 5.342 C 2.336 9.465 1.855 15.157 1.453 20.267 L 1.009 26.700 L 0.990 28.635 L 1.042 29.102 L 1.045 29.129 L 0.986 29.055 L 0.811 28.964 C 1.072 29.027 1.232 29.287 1.169 29.547 C 1.108 29.809 0.846 29.969 0.586 29.906 C 0.320 29.843 0.216 29.649 0.162 29.522 C -0.032 29.068 -0.005 28.478 0.011 27.607 L 0.430 20.914 C 0.755 16.754 1.147 12.078 1.264 8.144 L 1.179 3.375 L 0.914 2.035 L 0.778 1.744 Z"/>
<path d="M 2.314 17.208 C 2.049 17.180 1.857 16.941 1.888 16.673 C 1.918 16.408 2.158 16.217 2.423 16.248 C 5.808 16.627 10.782 14.991 15.642 14.080 C 15.905 14.031 16.158 14.203 16.209 14.466 C 16.257 14.729 16.084 14.982 15.821 15.033 C 11.033 15.929 6.055 17.629 2.314 17.208 Z"/>
<path d="M 21.232 1.870 C 21.224 2.137 21.001 2.347 20.732 2.337 C 20.465 2.327 20.254 2.103 20.264 1.836 L 20.310 0.572 L 20.322 0.319 L 20.329 0.231 L 21.295 0.275 L 21.287 1.765 L 21.263 4.721 C 21.241 9.105 21.248 15.198 21.511 20.607 C 21.639 23.235 21.820 25.584 22.104 27.332 L 22.564 29.238 L 22.768 29.615 L 22.692 29.618 C 22.957 29.583 23.201 29.771 23.234 30.036 C 23.266 30.301 23.079 30.543 22.815 30.578 C 22.369 30.634 22.031 30.303 21.844 29.975 C 21.479 29.343 21.278 28.375 21.093 27.128 C 20.750 24.806 20.565 21.694 20.448 18.319 L 20.297 10.615 L 20.293 5.477 L 20.310 2.521 L 20.327 0.350 C 20.327 0.336 20.471 0.754 20.361 0.484 C 19.950 -0.534 21.290 0.363 21.290 0.363 L 21.232 1.870 Z"/>
</g>
</svg>
