<svg xmlns="http://www.w3.org/2000/svg" viewBox="0 0 20.268 30.509" width="20.268" height="30.509">
<g fill="black" stroke="none">
<path d="M 2.460 6.776 C 2.431 7.040 2.194 7.232 1.927 7.203 C 1.663 7.176 1.472 6.936 1.501 6.672 L 1.617 5.658 L 1.651 5.423 L 1.673 5.329 C 1.685 5.283 1.913 4.580 2.472 5.096 C 2.796 5.399 2.627 5.404 2.627 5.440 L 2.569 6.670 L 2.179 11.950 L 1.366 22.880 L 1.065 27.451 L 0.964 30.015 C 0.971 30.281 0.760 30.504 0.494 30.509 C 0.228 30.516 0.007 30.305 0.000 30.039 L 0.077 27.836 L 0.567 20.555 L 1.465 8.595 L 1.663 5.607 L 1.666 5.508 L 1.673 5.559 L 2.588 5.629 L 2.603 5.583 L 2.460 6.776 Z"/>
<path d="M 3.261 17.168 C 3.194 16.909 3.346 16.645 3.603 16.577 C 3.862 16.509 4.126 16.662 4.193 16.921 L 4.322 16.991 C 4.980 17.178 6.828 16.710 8.767 16.183 C 10.723 15.652 12.658 15.057 14.050 15.321 C 14.312 15.372 14.483 15.623 14.435 15.885 C 14.384 16.146 14.132 16.318 13.871 16.270 C 12.745 16.054 10.401 16.747 8.188 17.340 L 5.206 17.974 L 4.060 17.921 C 3.714 17.822 3.363 17.555 3.261 17.168 Z"/>
<path d="M 18.449 0.893 C 18.224 0.753 18.151 0.457 18.292 0.230 C 18.432 0.002 18.728 -0.068 18.955 0.072 C 20.059 0.750 20.289 2.009 20.268 3.735 L 19.895 10.696 L 18.902 23.189 L 18.607 27.860 L 18.587 29.276 L 18.616 29.661 L 18.631 29.734 L 18.587 29.661 C 18.749 29.874 18.706 30.177 18.493 30.337 C 18.280 30.497 17.980 30.455 17.817 30.242 L 17.643 29.652 L 17.636 27.971 C 17.846 22.064 19.214 10.118 19.302 3.721 L 19.154 1.798 C 19.033 1.392 18.839 1.133 18.449 0.893 Z"/>
</g>
</svg>
