<svg xmlns="http://www.w3.org/2000/svg" viewBox="0 0 13.581 30.255" width="13.581" height="30.255">
<g fill="black" stroke="none">
<path d="M 2.327 2.285 C 2.270 2.696 1.894 2.982 1.483 2.926 C 1.073 2.869 0.783 2.493 0.840 2.082 L 0.866 1.935 L 1.069 1.532 C 1.551 1.024 2.334 1.815 2.357 1.913 L 2.383 2.587 L 2.319 5.271 L 1.694 22.451 L 1.495 28.735 L 1.487 29.394 L 1.491 29.500 L 1.480 29.436 C 1.502 29.534 -0.132 29.568 0.151 29.176 C 0.305 28.958 0.030 29.443 0.034 29.428 L 0.136 28.306 C 0.166 27.892 0.523 27.583 0.938 27.613 C 1.352 27.644 1.660 28.005 1.630 28.415 L 1.532 29.522 L 1.480 29.824 C 1.450 29.921 0.531 30.584 0.147 30.053 L 0.000 29.665 L 0.011 27.971 L 0.245 21.028 L 0.734 7.794 L 0.874 3.264 L 0.881 2.225 L 0.877 2.169 L 0.930 2.349 C 0.855 2.180 2.417 2.252 2.191 2.526 C 1.965 2.801 2.334 2.229 2.334 2.240 L 2.327 2.285 Z"/>
<path d="M 12.847 1.288 C 12.594 1.615 12.124 1.675 11.792 1.423 C 11.465 1.171 11.405 0.700 11.657 0.373 L 12.071 0.015 L 12.839 0.000 C 13.253 0.192 13.329 0.497 13.400 0.723 L 13.581 3.807 L 13.054 13.724 L 13.001 19.436 L 13.001 26.552 L 13.001 28.754 L 13.001 28.871 C 13.005 29.285 12.673 29.624 12.259 29.628 C 11.845 29.632 11.506 29.300 11.502 28.886 L 11.502 28.747 L 11.502 26.559 L 11.502 19.436 L 11.555 13.660 L 12.082 3.776 L 11.992 1.276 L 11.954 1.130 L 12.037 1.242 L 12.327 1.401 L 12.617 1.401 L 12.847 1.288 Z"/>
<path d="M 13.001 28.879 C 13.001 29.293 12.666 29.628 12.252 29.628 C 11.838 29.628 11.502 29.293 11.502 28.879 L 11.431 27.049 L 11.393 26.774 C 11.273 26.375 11.499 25.957 11.894 25.836 C 12.293 25.720 12.711 25.942 12.828 26.341 L 12.929 26.966 L 13.001 28.879 Z"/>
<path d="M 3.449 16.777 C 3.099 16.559 2.993 16.096 3.212 15.742 C 3.434 15.392 3.897 15.286 4.247 15.509 C 5.459 16.273 7.963 15.377 10.313 14.955 C 10.719 14.880 11.111 15.151 11.182 15.561 C 11.258 15.968 10.983 16.356 10.576 16.431 L 7.090 17.207 C 5.859 17.417 4.541 17.466 3.449 16.777 Z"/>
</g>
</svg>
