<svg xmlns="http://www.w3.org/2000/svg" viewBox="0 0 12.004 30.503" width="12.004" height="30.503">
<g fill="black" stroke="none">
<path d="M 2.046 1.580 C 1.931 1.143 2.190 0.693 2.628 0.573 C 3.065 0.454 3.515 0.714 3.634 1.155 L 3.655 3.601 L 3.135 6.039 L 2.351 10.903 L 1.815 19.516 L 1.629 26.084 L 1.650 27.234 L 1.642 27.189 L 1.617 27.115 L 1.543 26.975 L 1.312 26.748 L 0.804 26.616 L 0.396 26.768 L 0.161 27.024 L 0.107 27.152 L 0.144 26.929 C 0.210 26.484 0.627 26.170 1.077 26.236 C 1.526 26.298 1.836 26.715 1.774 27.164 L 1.650 27.717 L 1.473 27.998 C 1.324 28.154 0.809 28.348 0.462 28.154 C -0.087 27.845 0.058 27.651 0.041 27.560 L 0.000 24.990 L 0.173 19.454 L 0.722 10.705 L 1.526 5.705 L 2.025 3.387 L 2.046 1.580 Z"/>
<path d="M 10.284 0.833 C 10.276 0.380 10.639 0.008 11.093 0.000 C 11.546 -0.004 11.922 0.359 11.926 0.813 L 12.004 2.586 L 12.004 5.903 L 11.753 9.352 L 11.551 15.375 L 11.551 20.490 L 11.551 26.682 L 11.361 29.190 L 11.047 30.011 C 10.915 30.213 10.614 30.580 10.061 30.489 L 9.352 29.949 L 9.117 28.022 C 9.129 27.569 9.509 27.214 9.962 27.226 C 10.416 27.243 10.771 27.622 10.758 28.076 L 10.787 29.066 L 10.800 29.173 L 10.643 29.000 L 10.276 28.860 L 9.929 28.913 L 9.760 29.012 L 9.669 29.111 L 9.760 28.827 L 9.909 26.657 L 9.909 20.498 L 9.909 15.342 L 10.115 9.245 L 10.362 5.845 L 10.362 2.652 L 10.284 0.833 Z"/>
<path d="M 2.405 15.519 C 2.405 15.973 2.042 16.340 1.588 16.344 C 1.134 16.348 0.763 15.981 0.759 15.527 L 1.271 14.418 C 2.157 13.712 3.123 14.034 3.997 14.071 C 5.202 14.125 6.435 13.857 8.044 12.862 C 8.428 12.623 8.935 12.743 9.174 13.130 C 9.414 13.514 9.294 14.022 8.906 14.261 C 7.071 15.395 5.429 15.779 3.927 15.713 L 2.426 15.688 L 2.294 15.705 L 2.405 15.519 Z"/>
</g>
</svg>
