<svg xmlns="http://www.w3.org/2000/svg" viewBox="0 0 2.931 7.414" width="2.931" height="7.414">
<g fill="black" stroke="none">
<path d="M 0.517 0.384 C 0.489 0.278 0.552 0.169 0.658 0.140 C 0.764 0.111 0.873 0.174 0.902 0.281 L 0.907 0.874 L 0.781 1.465 L 0.591 2.644 L 0.461 4.732 L 0.416 6.324 L 0.421 6.603 L 0.419 6.592 L 0.413 6.574 L 0.395 6.540 L 0.339 6.485 L 0.216 6.453 L 0.117 6.490 L 0.060 6.552 L 0.047 6.583 L 0.056 6.529 C 0.072 6.421 0.173 6.345 0.282 6.361 C 0.391 6.376 0.466 6.477 0.451 6.586 L 0.421 6.720 L 0.378 6.788 C 0.342 6.826 0.217 6.873 0.133 6.826 C 0.000 6.751 0.035 6.704 0.031 6.682 L 0.021 6.059 L 0.063 4.717 L 0.196 2.596 L 0.391 1.384 L 0.512 0.822 L 0.517 0.384 Z"/>
<path d="M 2.514 0.203 C 2.512 0.093 2.600 0.003 2.710 0.001 C 2.820 0.000 2.911 0.088 2.912 0.198 L 2.931 0.628 L 2.931 1.432 L 2.870 2.268 L 2.821 3.728 L 2.821 4.968 L 2.821 6.469 L 2.775 7.077 L 2.699 7.276 C 2.667 7.325 2.594 7.414 2.460 7.392 L 2.288 7.261 L 2.231 6.794 C 2.234 6.684 2.326 6.598 2.436 6.601 C 2.546 6.605 2.632 6.697 2.629 6.807 L 2.636 7.047 L 2.639 7.073 L 2.601 7.031 L 2.512 6.997 L 2.428 7.010 L 2.387 7.034 L 2.365 7.058 L 2.387 6.989 L 2.423 6.463 L 2.423 4.970 L 2.423 3.720 L 2.473 2.242 L 2.533 1.418 L 2.533 0.644 L 2.514 0.203 Z"/>
<path d="M 0.604 3.763 C 0.604 3.873 0.516 3.962 0.406 3.963 C 0.296 3.964 0.206 3.875 0.205 3.765 L 0.329 3.496 C 0.544 3.325 0.778 3.403 0.990 3.412 C 1.282 3.425 1.581 3.360 1.971 3.119 C 2.064 3.061 2.187 3.090 2.245 3.184 C 2.303 3.277 2.274 3.400 2.180 3.458 C 1.735 3.733 1.337 3.826 0.973 3.810 L 0.609 3.804 L 0.577 3.808 L 0.604 3.763 Z"/>
</g>
</svg>
