<svg xmlns="http://www.w3.org/2000/svg" viewBox="0 0 4.789 12.170" width="4.789" height="12.170">
<g fill="black" stroke="none">
<path d="M 0.816 0.630 C 0.770 0.456 0.874 0.277 1.048 0.229 C 1.223 0.181 1.402 0.285 1.450 0.461 L 1.458 1.437 L 1.251 2.410 L 0.938 4.350 L 0.724 7.787 L 0.650 10.407 L 0.658 10.866 L 0.655 10.848 L 0.645 10.818 L 0.616 10.762 L 0.523 10.672 L 0.321 10.619 L 0.158 10.680 L 0.064 10.782 L 0.043 10.833 L 0.058 10.744 C 0.084 10.567 0.250 10.441 0.430 10.468 C 0.609 10.492 0.732 10.659 0.708 10.838 L 0.658 11.059 L 0.588 11.171 C 0.528 11.233 0.323 11.310 0.184 11.233 C -0.035 11.110 0.023 11.032 0.016 10.996 L 0.000 9.971 L 0.069 7.762 L 0.288 4.271 L 0.609 2.276 L 0.808 1.351 L 0.816 0.630 Z"/>
<path d="M 4.103 0.332 C 4.100 0.151 4.245 0.003 4.426 0.000 C 4.607 -0.002 4.757 0.143 4.758 0.324 L 4.789 1.032 L 4.789 2.355 L 4.689 3.731 L 4.608 6.134 L 4.608 8.175 L 4.608 10.646 L 4.533 11.646 L 4.408 11.974 C 4.355 12.054 4.235 12.201 4.014 12.165 L 3.731 11.949 L 3.637 11.180 C 3.642 10.999 3.794 10.858 3.975 10.863 C 4.156 10.869 4.297 11.021 4.292 11.202 L 4.304 11.597 L 4.309 11.640 L 4.246 11.570 L 4.100 11.515 L 3.962 11.536 L 3.894 11.575 L 3.858 11.615 L 3.894 11.501 L 3.953 10.636 L 3.953 8.178 L 3.953 6.121 L 4.036 3.688 L 4.134 2.332 L 4.134 1.058 L 4.103 0.332 Z"/>
<path d="M 0.960 6.192 C 0.960 6.373 0.815 6.519 0.634 6.521 C 0.453 6.523 0.304 6.376 0.303 6.195 L 0.507 5.752 C 0.861 5.471 1.246 5.599 1.595 5.614 C 2.075 5.635 2.568 5.528 3.209 5.132 C 3.363 5.036 3.565 5.084 3.660 5.239 C 3.756 5.392 3.708 5.594 3.553 5.690 C 2.821 6.142 2.166 6.295 1.567 6.269 L 0.968 6.259 L 0.915 6.266 L 0.960 6.192 Z"/>
</g>
</svg>
