<svg xmlns="http://www.w3.org/2000/svg" viewBox="0 0 3.440 7.663" width="3.440" height="7.663">
<g fill="black" stroke="none">
<path d="M 0.589 0.579 C 0.575 0.683 0.480 0.755 0.376 0.741 C 0.272 0.727 0.198 0.631 0.213 0.527 L 0.219 0.490 L 0.271 0.388 C 0.393 0.259 0.591 0.460 0.597 0.484 L 0.604 0.655 L 0.587 1.335 L 0.429 5.687 L 0.379 7.279 L 0.377 7.445 L 0.378 7.472 L 0.375 7.456 C 0.381 7.481 -0.033 7.489 0.038 7.390 C 0.077 7.335 0.008 7.458 0.009 7.454 L 0.034 7.170 C 0.042 7.065 0.133 6.987 0.237 6.994 C 0.342 7.002 0.421 7.094 0.413 7.197 L 0.388 7.478 L 0.375 7.554 C 0.367 7.579 0.134 7.747 0.037 7.612 L 0.000 7.514 L 0.003 7.085 L 0.062 5.326 L 0.186 1.974 L 0.221 0.827 L 0.223 0.564 L 0.222 0.549 L 0.236 0.595 C 0.216 0.552 0.612 0.570 0.555 0.640 C 0.498 0.710 0.591 0.565 0.591 0.567 L 0.589 0.579 Z"/>
<path d="M 3.254 0.326 C 3.190 0.409 3.071 0.424 2.987 0.360 C 2.904 0.297 2.889 0.177 2.953 0.094 L 3.058 0.004 L 3.252 0.000 C 3.357 0.049 3.376 0.126 3.394 0.183 L 3.440 0.964 L 3.306 3.476 L 3.293 4.923 L 3.293 6.725 L 3.293 7.283 L 3.293 7.313 C 3.294 7.418 3.210 7.504 3.105 7.505 C 3.000 7.506 2.914 7.422 2.914 7.317 L 2.914 7.281 L 2.914 6.727 L 2.914 4.923 L 2.927 3.460 L 3.060 0.957 L 3.037 0.323 L 3.028 0.286 L 3.049 0.315 L 3.122 0.355 L 3.196 0.355 L 3.254 0.326 Z"/>
<path d="M 3.293 7.315 C 3.293 7.420 3.208 7.505 3.103 7.505 C 2.998 7.505 2.914 7.420 2.914 7.315 L 2.895 6.851 L 2.886 6.782 C 2.855 6.681 2.913 6.575 3.013 6.544 C 3.114 6.515 3.220 6.571 3.249 6.672 L 3.275 6.830 L 3.293 7.315 Z"/>
<path d="M 0.874 4.250 C 0.785 4.194 0.758 4.077 0.813 3.987 C 0.870 3.899 0.987 3.872 1.076 3.928 C 1.383 4.122 2.017 3.895 2.612 3.788 C 2.715 3.769 2.814 3.838 2.832 3.942 C 2.852 4.045 2.782 4.143 2.679 4.162 L 1.796 4.358 C 1.484 4.412 1.150 4.424 0.874 4.250 Z"/>
</g>
</svg>
