<svg xmlns="http://www.w3.org/2000/svg" viewBox="0 0 20.691 21.616" width="20.691" height="21.616">
<g fill="black" stroke="none">
<path d="M 1.232 9.300 C 1.469 9.322 1.645 9.532 1.625 9.770 C 1.604 10.009 1.392 10.186 1.153 10.163 L 0.564 10.072 L 0.383 9.953 C 0.288 9.850 0.238 9.552 0.335 9.405 L 0.622 9.208 L 2.141 9.076 C 4.549 8.941 7.989 8.889 10.414 7.699 C 11.643 7.097 12.153 5.893 12.062 4.656 C 11.971 3.401 11.274 2.140 10.237 1.502 C 9.256 0.904 8.183 0.632 7.032 1.087 C 4.079 2.255 1.172 7.303 0.877 11.780 C 0.651 15.197 2.596 18.388 5.353 19.814 C 7.383 20.863 10.306 20.941 13.127 20.478 C 15.936 20.019 18.539 19.058 20.003 17.981 C 20.194 17.840 20.466 17.881 20.607 18.074 C 20.748 18.266 20.708 18.537 20.516 18.679 C 18.874 19.889 16.183 20.856 13.266 21.333 C 10.333 21.813 7.250 21.770 4.955 20.584 C 1.890 18.998 -0.237 15.492 0.014 11.724 C 0.170 9.343 1.018 6.864 2.241 4.751 C 3.445 2.668 4.992 0.960 6.713 0.280 C 8.153 -0.288 9.563 0.076 10.689 0.765 C 12.002 1.567 12.816 3.072 12.928 4.593 C 13.036 6.107 12.357 7.714 10.798 8.475 C 8.114 9.794 4.579 9.806 2.189 9.941 L 0.888 10.038 L 0.848 10.044 L 0.890 10.028 L 0.962 9.985 L 1.081 9.841 L 1.125 9.700 L 1.116 9.544 L 1.008 9.352 L 0.929 9.289 L 0.864 9.258 L 1.232 9.300 Z"/>
</g>
</svg>
