<svg xmlns="http://www.w3.org/2000/svg" viewBox="0 0 4.324 6.760" width="4.324" height="6.760">
<g fill="black" stroke="none">
<path d="M 1.185 3.001 C 1.075 3.015 0.975 2.938 0.961 2.829 C 0.947 2.720 1.023 2.620 1.132 2.606 C 1.602 2.544 2.015 2.678 2.373 2.608 C 2.784 2.527 3.247 1.992 3.425 1.455 C 3.524 1.156 3.526 0.859 3.448 0.666 C 3.389 0.518 3.219 0.417 2.957 0.412 C 2.576 0.403 1.991 0.741 1.507 1.213 C 0.967 1.741 0.608 2.491 0.484 3.250 C 0.403 3.739 0.437 4.245 0.578 4.663 C 0.857 5.486 1.670 5.862 2.456 5.888 C 2.844 5.901 3.216 5.833 3.491 5.707 C 3.753 5.588 3.899 5.426 3.915 5.286 C 3.928 5.177 4.027 5.099 4.136 5.112 C 4.245 5.125 4.324 5.224 4.311 5.333 C 4.156 6.647 0.867 6.760 0.201 4.790 C 0.035 4.301 0.000 3.735 0.090 3.185 C 0.228 2.349 0.618 1.524 1.229 0.928 C 1.758 0.412 2.385 0.000 2.966 0.013 C 3.336 0.022 3.687 0.193 3.818 0.517 C 3.943 0.828 3.926 1.210 3.803 1.580 C 3.589 2.227 3.087 2.873 2.451 2.998 C 1.971 3.093 1.546 2.953 1.185 3.001 Z"/>
</g>
</svg>
