<svg xmlns="http://www.w3.org/2000/svg" viewBox="0 0 5.448 8.012" width="5.448" height="8.012">
<g fill="black" stroke="none">
<path d="M 1.458 3.812 C 1.318 3.830 1.190 3.732 1.173 3.593 C 1.155 3.454 1.252 3.326 1.391 3.308 C 1.990 3.229 2.517 3.400 2.974 3.311 C 3.498 3.207 4.089 2.525 4.316 1.840 C 4.442 1.458 4.445 1.079 4.345 0.833 C 4.270 0.644 4.053 0.515 3.719 0.509 C 3.233 0.498 2.487 0.929 1.869 1.531 C 1.180 2.205 0.722 3.161 0.564 4.130 C 0.461 4.754 0.504 5.399 0.684 5.932 C 1.040 6.982 2.077 7.462 3.080 7.495 C 3.575 7.512 4.049 7.425 4.400 7.264 C 4.735 7.113 4.921 6.906 4.941 6.727 C 4.958 6.588 5.084 6.489 5.223 6.505 C 5.362 6.522 5.463 6.648 5.446 6.787 C 5.249 8.464 1.053 8.608 0.203 6.094 C -0.009 5.471 -0.053 4.748 0.061 4.047 C 0.237 2.980 0.735 1.928 1.515 1.167 C 2.189 0.509 2.989 -0.017 3.731 0.000 C 4.203 0.011 4.650 0.230 4.818 0.643 C 4.977 1.040 4.955 1.527 4.798 1.999 C 4.525 2.825 3.885 3.649 3.074 3.808 C 2.461 3.929 1.919 3.751 1.458 3.812 Z"/>
</g>
</svg>
