<svg xmlns="http://www.w3.org/2000/svg" viewBox="0 0 4.789 8.342" width="4.789" height="8.342">
<g fill="black" stroke="none">
<path d="M 1.209 3.996 C 1.088 3.881 1.082 3.691 1.195 3.571 C 1.310 3.450 1.499 3.444 1.620 3.559 C 1.920 3.841 2.275 4.012 2.527 3.892 C 2.772 3.774 3.096 2.978 3.239 2.218 L 3.283 1.333 C 3.263 0.934 3.096 0.672 2.957 0.616 L 2.613 0.721 C 1.984 1.125 1.201 2.337 0.853 3.575 C 0.585 4.532 0.516 5.549 0.722 6.341 C 0.935 7.160 1.484 7.647 2.119 7.729 C 2.768 7.815 3.573 7.482 4.254 6.638 C 4.358 6.508 4.548 6.487 4.678 6.591 C 4.806 6.695 4.827 6.885 4.723 7.014 C 3.941 7.983 2.935 8.442 2.040 8.324 C 1.156 8.208 0.405 7.505 0.141 6.491 C -0.102 5.556 -0.016 4.451 0.276 3.413 C 0.530 2.506 0.983 1.637 1.498 0.979 C 1.995 0.346 2.585 -0.182 3.183 0.060 C 3.635 0.242 3.855 0.756 3.882 1.304 L 3.830 2.330 C 3.674 3.148 3.471 4.106 2.786 4.432 C 2.194 4.716 1.590 4.354 1.209 3.996 Z"/>
</g>
</svg>
