<svg xmlns="http://www.w3.org/2000/svg" viewBox="0 0 3.272 5.726" width="3.272" height="5.726">
<g fill="black" stroke="none">
<path d="M 0.870 2.774 C 0.790 2.698 0.786 2.572 0.861 2.492 C 0.937 2.412 1.063 2.408 1.143 2.484 C 1.342 2.671 1.578 2.785 1.745 2.705 C 1.908 2.627 2.123 2.098 2.218 1.594 L 2.247 1.006 C 2.234 0.741 2.123 0.567 2.031 0.530 L 1.802 0.600 C 1.385 0.868 0.865 1.673 0.634 2.495 C 0.456 3.130 0.410 3.805 0.547 4.331 C 0.688 4.875 1.053 5.198 1.474 5.253 C 1.905 5.310 2.440 5.089 2.892 4.528 C 2.961 4.442 3.087 4.428 3.173 4.497 C 3.258 4.566 3.272 4.692 3.203 4.778 C 2.684 5.421 2.016 5.726 1.422 5.648 C 0.835 5.571 0.336 5.104 0.161 4.431 C 0.000 3.810 0.057 3.076 0.251 2.387 C 0.419 1.785 0.720 1.208 1.062 0.771 C 1.392 0.351 1.784 0.000 2.181 0.161 C 2.481 0.282 2.627 0.623 2.645 0.987 L 2.610 1.668 C 2.507 2.211 2.372 2.847 1.917 3.064 C 1.524 3.252 1.123 3.012 0.870 2.774 Z"/>
</g>
</svg>
