<svg xmlns="http://www.w3.org/2000/svg" viewBox="0 0 14.943 21.616" width="14.943" height="21.616">
<g fill="black" stroke="none">
<path d="M 0.000 9.912 C -0.006 9.696 0.165 9.518 0.380 9.512 C 0.597 9.508 0.775 9.678 0.781 9.894 C 0.811 11.156 1.378 11.411 2.428 11.095 C 3.618 10.738 5.172 9.620 6.653 8.081 C 8.107 6.565 9.367 4.761 10.090 3.254 C 10.409 2.581 10.498 2.027 10.430 1.638 C 10.335 1.104 9.959 0.814 9.340 0.784 C 8.673 0.752 7.758 1.065 6.837 1.777 C 5.910 2.494 5.006 3.589 4.223 4.969 C 3.421 6.384 2.756 8.086 2.322 9.991 C 1.819 12.199 1.604 14.545 1.857 16.464 C 2.226 19.267 4.631 20.669 7.314 20.820 C 10.040 20.973 12.955 19.937 14.241 18.238 C 14.371 18.068 14.617 18.032 14.789 18.164 C 14.959 18.293 14.995 18.539 14.863 18.712 C 13.350 20.712 10.220 21.767 7.271 21.599 C 5.804 21.517 4.378 21.115 3.249 20.298 C 2.118 19.479 1.297 18.202 1.082 16.568 C 0.811 14.513 1.040 12.097 1.560 9.816 C 2.010 7.841 2.701 6.070 3.544 4.584 C 4.365 3.132 5.327 1.957 6.358 1.159 C 7.726 0.099 9.193 -0.276 10.215 0.200 C 10.721 0.435 11.094 0.913 11.201 1.501 C 11.307 2.103 11.165 2.814 10.797 3.591 C 10.027 5.195 8.729 7.044 7.215 8.622 C 5.675 10.227 4.066 11.422 2.654 11.846 C 1.980 12.048 1.311 12.063 0.798 11.730 C 0.282 11.392 0.017 10.728 0.000 9.912 Z"/>
</g>
</svg>
