<svg xmlns="http://www.w3.org/2000/svg" viewBox="0 0 3.635 6.060" width="3.635" height="6.060">
<g fill="black" stroke="none">
<path d="M 0.847 2.864 C 0.744 2.825 0.693 2.710 0.733 2.607 C 0.772 2.504 0.887 2.453 0.990 2.492 C 1.310 2.616 1.591 2.747 1.802 2.735 L 2.131 2.557 C 2.364 2.313 2.523 1.760 2.575 1.265 L 2.555 0.604 C 2.511 0.492 2.310 0.413 2.070 0.453 C 1.662 0.520 1.081 1.211 0.743 1.999 C 0.490 2.588 0.402 3.244 0.451 3.828 C 0.520 4.668 1.018 5.266 1.588 5.448 C 2.148 5.626 2.810 5.407 3.233 4.656 C 3.288 4.560 3.409 4.526 3.505 4.581 C 3.601 4.635 3.635 4.756 3.580 4.852 C 3.082 5.735 2.199 6.060 1.467 5.827 C 0.731 5.593 0.135 4.842 0.054 3.861 C 0.000 3.213 0.095 2.497 0.377 1.842 C 0.744 0.986 1.315 0.174 2.004 0.060 C 2.361 0.000 2.786 0.101 2.926 0.458 C 3.027 0.716 3.003 1.008 2.971 1.307 C 2.914 1.852 2.771 2.463 2.419 2.832 C 2.251 3.007 2.044 3.120 1.825 3.133 C 1.467 3.154 1.149 2.980 0.847 2.864 Z"/>
</g>
</svg>
