<svg xmlns="http://www.w3.org/2000/svg" viewBox="0 0 5.076 8.330" width="5.076" height="8.330">
<g fill="black" stroke="none">
<path d="M 1.149 4.014 C 1.002 3.958 0.930 3.794 0.987 3.648 C 1.042 3.501 1.206 3.429 1.353 3.484 C 1.808 3.661 2.208 3.847 2.508 3.830 L 2.976 3.577 C 3.308 3.229 3.534 2.442 3.608 1.738 L 3.580 0.797 C 3.517 0.638 3.231 0.525 2.890 0.582 C 2.309 0.678 1.482 1.661 1.001 2.782 C 0.641 3.621 0.516 4.554 0.585 5.385 C 0.684 6.581 1.392 7.432 2.204 7.691 C 3.001 7.944 3.943 7.633 4.545 6.564 C 4.623 6.427 4.795 6.379 4.932 6.457 C 5.068 6.534 5.117 6.706 5.039 6.843 C 4.330 8.099 3.073 8.562 2.031 8.230 C 0.984 7.897 0.136 6.829 0.021 5.432 C -0.056 4.510 0.079 3.491 0.480 2.559 C 1.002 1.341 1.815 0.185 2.796 0.023 C 3.304 -0.062 3.909 0.081 4.108 0.589 C 4.252 0.957 4.217 1.372 4.172 1.798 C 4.091 2.573 3.887 3.443 3.386 3.968 C 3.147 4.217 2.853 4.378 2.541 4.396 C 2.031 4.426 1.579 4.179 1.149 4.014 Z"/>
</g>
</svg>
