<svg xmlns="http://www.w3.org/2000/svg" viewBox="0 0 13.655 20.081" width="13.655" height="20.081">
<g fill="black" stroke="none">
<path d="M 3.655 9.554 C 3.303 9.599 2.984 9.353 2.939 9.004 C 2.894 8.656 3.137 8.336 3.486 8.291 C 4.989 8.093 6.309 8.522 7.454 8.298 C 8.768 8.039 10.249 6.328 10.818 4.611 C 11.134 3.655 11.141 2.705 10.891 2.088 C 10.703 1.615 10.159 1.292 9.321 1.276 C 8.103 1.247 6.233 2.328 4.685 3.837 C 2.958 5.525 1.810 7.924 1.414 10.351 C 1.155 11.914 1.263 13.532 1.714 14.869 C 2.606 17.501 5.206 18.703 7.719 18.786 C 8.960 18.828 10.150 18.610 11.029 18.207 C 11.867 17.827 12.334 17.309 12.385 16.861 C 12.426 16.512 12.743 16.263 13.091 16.305 C 13.440 16.346 13.693 16.663 13.651 17.011 C 13.155 21.213 2.638 21.574 0.509 15.275 C -0.022 13.711 -0.134 11.902 0.154 10.143 C 0.595 7.470 1.842 4.832 3.796 2.926 C 5.487 1.276 7.492 -0.042 9.350 0.000 C 10.533 0.029 11.656 0.576 12.075 1.612 C 12.474 2.606 12.420 3.828 12.027 5.011 C 11.342 7.080 9.737 9.145 7.703 9.545 C 6.169 9.849 4.810 9.401 3.655 9.554 Z"/>
</g>
</svg>
