<svg xmlns="http://www.w3.org/2000/svg" viewBox="0 0 12.003 20.908" width="12.003" height="20.908">
<g fill="black" stroke="none">
<path d="M 3.030 10.015 C 2.728 9.728 2.713 9.252 2.996 8.950 C 3.283 8.648 3.758 8.633 4.060 8.920 C 4.812 9.626 5.702 10.056 6.333 9.754 C 6.948 9.460 7.760 7.463 8.118 5.560 L 8.228 3.340 C 8.179 2.340 7.760 1.683 7.413 1.544 L 6.548 1.808 C 4.974 2.820 3.011 5.858 2.139 8.962 C 1.467 11.359 1.293 13.907 1.810 15.892 C 2.343 17.946 3.721 19.165 5.310 19.373 C 6.937 19.588 8.957 18.754 10.663 16.636 C 10.923 16.311 11.399 16.259 11.724 16.519 C 12.045 16.780 12.097 17.255 11.837 17.580 C 9.878 20.007 7.356 21.159 5.114 20.864 C 2.898 20.574 1.014 18.811 0.353 16.270 C -0.255 13.926 -0.039 11.155 0.693 8.554 C 1.327 6.281 2.463 4.103 3.755 2.453 C 5.000 0.868 6.480 -0.457 7.979 0.151 C 9.111 0.607 9.662 1.895 9.730 3.269 L 9.598 5.840 C 9.209 7.889 8.700 10.290 6.982 11.109 C 5.499 11.819 3.985 10.913 3.030 10.015 Z"/>
</g>
</svg>
