<svg xmlns="http://www.w3.org/2000/svg" viewBox="0 0 12.722 20.878" width="12.722" height="20.878">
<g fill="black" stroke="none">
<path d="M 2.880 10.059 C 2.513 9.920 2.331 9.510 2.473 9.143 C 2.612 8.775 3.023 8.593 3.390 8.732 C 4.532 9.175 5.534 9.642 6.286 9.599 L 7.460 8.964 C 8.291 8.094 8.858 6.121 9.044 4.356 L 8.972 1.998 C 8.815 1.599 8.098 1.317 7.242 1.459 C 5.787 1.698 3.715 4.163 2.509 6.974 C 1.607 9.075 1.293 11.415 1.467 13.498 C 1.714 16.494 3.490 18.627 5.523 19.276 C 7.521 19.911 9.882 19.130 11.391 16.451 C 11.587 16.109 12.019 15.988 12.361 16.184 C 12.703 16.376 12.825 16.808 12.629 17.151 C 10.852 20.300 7.703 21.459 5.092 20.628 C 2.466 19.794 0.340 17.115 0.051 13.616 C -0.141 11.304 0.198 8.750 1.204 6.414 C 2.513 3.361 4.549 0.464 7.007 0.058 C 8.280 -0.156 9.796 0.204 10.296 1.477 C 10.656 2.398 10.570 3.439 10.456 4.506 C 10.253 6.450 9.743 8.629 8.487 9.945 C 7.888 10.569 7.150 10.973 6.369 11.019 C 5.092 11.094 3.957 10.473 2.880 10.059 Z"/>
</g>
</svg>
