<svg xmlns="http://www.w3.org/2000/svg" viewBox="0 0 3.143 6.792" width="3.143" height="6.792">
<g fill="black" stroke="none">
<path d="M 1.874 0.606 C 1.828 0.706 1.710 0.750 1.610 0.704 C 1.510 0.659 1.465 0.541 1.511 0.440 L 1.589 0.291 L 1.667 0.217 L 1.827 0.199 C 1.959 0.239 1.966 0.339 1.970 0.372 L 1.883 0.791 L 1.608 1.655 L 1.287 2.828 L 0.915 4.620 L 0.651 5.989 L 0.550 6.408 C 0.519 6.512 0.525 6.581 0.417 6.676 L 0.293 6.754 C 0.190 6.792 0.075 6.739 0.038 6.635 C 0.000 6.532 0.053 6.418 0.156 6.380 L 0.075 6.436 L 0.045 6.481 L 0.030 6.526 L 0.027 6.554 L 0.027 6.341 C 0.059 6.070 0.229 5.765 0.394 5.467 C 0.448 5.371 0.569 5.337 0.665 5.390 C 0.761 5.444 0.796 5.565 0.742 5.661 L 0.423 6.388 L 0.422 6.487 L 0.425 6.538 L 0.425 6.568 L 0.421 6.603 C 0.417 6.625 0.437 6.701 0.293 6.754 L 0.157 6.380 L 0.133 6.399 L 0.140 6.380 L 0.261 5.908 L 0.524 4.545 L 0.900 2.732 L 1.227 1.538 L 1.501 0.679 L 1.573 0.400 L 1.574 0.415 L 1.580 0.447 L 1.609 0.508 L 1.646 0.546 L 1.764 0.588 L 1.848 0.571 L 1.886 0.548 L 1.912 0.524 L 1.874 0.606 Z"/>
<path d="M 2.178 0.380 C 2.123 0.475 2.001 0.508 1.906 0.453 C 1.811 0.398 1.778 0.276 1.833 0.181 C 1.876 0.107 1.980 0.000 2.122 0.031 C 2.254 0.060 2.293 0.148 2.324 0.211 L 2.497 1.005 L 2.668 2.414 L 2.860 3.992 L 3.033 5.399 L 3.105 6.050 L 3.143 6.551 L 2.748 6.503 L 2.747 6.526 L 2.564 5.932 C 2.506 5.838 2.536 5.716 2.630 5.658 C 2.723 5.601 2.846 5.630 2.904 5.724 L 3.083 6.190 L 3.143 6.551 C 3.130 6.660 3.031 6.738 2.921 6.725 C 2.812 6.711 2.734 6.612 2.748 6.503 L 2.746 6.488 L 2.709 6.091 L 2.638 5.447 L 2.465 4.040 L 2.272 2.459 L 2.102 1.053 L 1.967 0.388 L 2.006 0.410 L 2.082 0.424 L 2.137 0.409 L 2.178 0.380 Z"/>
<path d="M 1.215 4.325 C 1.112 4.363 0.997 4.310 0.959 4.207 C 0.920 4.104 0.973 3.989 1.076 3.951 L 1.707 3.768 C 1.815 3.749 1.919 3.821 1.938 3.929 C 1.957 4.038 1.885 4.141 1.777 4.160 L 1.215 4.325 Z"/>
</g>
</svg>
