<svg xmlns="http://www.w3.org/2000/svg" viewBox="0 0 16.247 31.176" width="16.247" height="31.176">
<g fill="black" stroke="none">
<path d="M 0.257 27.454 C 0.234 27.199 0.422 26.977 0.677 26.953 C 0.932 26.930 1.155 27.118 1.178 27.373 L 1.178 29.746 L 0.970 30.802 L 0.884 30.966 L 0.684 31.147 C 0.552 31.217 0.193 31.161 0.077 30.989 L 0.000 30.639 L 0.035 30.477 L 0.833 28.582 L 3.315 23.630 L 6.599 17.012 L 11.057 7.372 L 12.957 2.149 L 13.497 0.462 L 13.574 0.265 L 13.680 0.121 C 13.755 0.052 13.980 -0.057 14.191 0.036 C 14.516 0.179 14.458 0.335 14.469 0.393 L 14.490 0.771 L 14.574 2.949 L 14.938 9.784 L 15.703 22.277 L 16.037 27.190 L 16.244 29.753 C 16.274 30.006 16.093 30.236 15.840 30.266 C 15.587 30.296 15.358 30.113 15.327 29.860 L 15.179 28.125 L 14.745 21.788 L 13.982 9.263 L 13.697 3.981 L 13.567 0.785 L 13.562 0.588 L 13.560 0.557 L 13.567 0.595 L 13.595 0.669 L 13.711 0.815 L 13.854 0.896 L 14.038 0.917 L 14.188 0.880 L 14.330 0.780 L 14.393 0.694 L 13.831 2.448 L 11.908 7.732 L 7.432 17.411 L 3.180 25.935 L 1.668 28.978 L 0.923 30.730 L 0.912 30.630 L 0.867 30.514 L 0.717 30.349 L 0.462 30.277 L 0.281 30.317 L 0.151 30.407 L 0.109 30.461 L 0.255 29.704 L 0.257 27.454 Z"/>
<path d="M 8.928 17.710 C 9.178 17.666 9.417 17.833 9.461 18.086 C 9.505 18.336 9.338 18.575 9.088 18.619 L 9.051 18.624 L 9.116 18.592 C 9.079 18.615 9.322 18.330 9.266 18.432 C 9.202 18.545 9.195 17.861 9.264 17.986 C 9.327 18.098 9.051 17.791 9.092 17.812 L 14.279 17.782 C 14.534 17.791 14.736 18.002 14.729 18.258 C 14.722 18.513 14.509 18.715 14.253 18.708 L 10.603 18.717 L 9.137 18.708 L 8.687 18.640 L 8.513 18.515 L 8.413 18.100 L 8.659 17.789 L 8.928 17.710 Z"/>
</g>
</svg>
