<svg xmlns="http://www.w3.org/2000/svg" viewBox="0 0 5.726 12.382" width="5.726" height="12.382">
<g fill="black" stroke="none">
<path d="M 3.395 1.065 C 3.311 1.249 3.094 1.330 2.910 1.246 C 2.726 1.163 2.644 0.946 2.728 0.761 L 2.872 0.487 L 3.015 0.351 L 3.309 0.318 C 3.551 0.391 3.564 0.575 3.572 0.636 L 3.412 1.405 L 2.906 2.993 L 2.317 5.148 L 1.633 8.440 L 1.148 10.955 L 0.963 11.724 C 0.906 11.916 0.917 12.042 0.718 12.217 L 0.491 12.360 C 0.301 12.430 0.090 12.333 0.022 12.142 C -0.048 11.952 0.050 11.743 0.239 11.673 L 0.090 11.776 L 0.035 11.859 L 0.007 11.941 L 0.002 11.993 L 0.002 11.601 C 0.061 11.104 0.373 10.543 0.676 9.996 C 0.775 9.819 0.998 9.757 1.174 9.854 C 1.350 9.953 1.415 10.176 1.316 10.352 L 0.729 11.688 L 0.728 11.870 L 0.733 11.963 L 0.733 12.018 L 0.726 12.083 C 0.718 12.123 0.755 12.263 0.491 12.360 L 0.241 11.673 L 0.197 11.708 L 0.210 11.673 L 0.432 10.806 L 0.915 8.302 L 1.606 4.971 L 2.207 2.778 L 2.710 1.200 L 2.842 0.687 L 2.844 0.715 L 2.855 0.773 L 2.908 0.885 L 2.976 0.955 L 3.193 1.032 L 3.347 1.001 L 3.417 0.959 L 3.465 0.915 L 3.395 1.065 Z"/>
<path d="M 3.954 0.650 C 3.853 0.825 3.628 0.885 3.454 0.784 C 3.279 0.683 3.219 0.459 3.320 0.285 C 3.399 0.149 3.590 -0.048 3.851 0.009 C 4.093 0.062 4.165 0.224 4.222 0.340 L 4.540 1.798 L 4.854 4.387 L 5.207 7.286 L 5.524 9.871 L 5.657 11.067 L 5.726 11.987 L 5.001 11.899 L 4.999 11.941 L 4.663 10.850 C 4.556 10.677 4.611 10.453 4.784 10.347 C 4.955 10.242 5.181 10.295 5.287 10.468 L 5.616 11.324 L 5.726 11.987 C 5.703 12.187 5.521 12.331 5.319 12.307 C 5.118 12.281 4.975 12.099 5.001 11.899 L 4.997 11.871 L 4.929 11.142 L 4.799 9.959 L 4.481 7.374 L 4.126 4.470 L 3.814 1.887 L 3.566 0.665 L 3.638 0.705 L 3.777 0.731 L 3.878 0.704 L 3.954 0.650 Z"/>
<path d="M 2.184 7.898 C 1.995 7.968 1.784 7.870 1.714 7.681 C 1.643 7.492 1.740 7.280 1.929 7.211 L 3.088 6.874 C 3.287 6.840 3.478 6.972 3.513 7.170 C 3.548 7.370 3.415 7.560 3.217 7.595 L 2.184 7.898 Z"/>
</g>
</svg>
