<svg xmlns="http://www.w3.org/2000/svg" viewBox="0 0 14.353 31.035" width="14.353" height="31.035">
<g fill="black" stroke="none">
<path d="M 8.510 2.671 C 8.298 3.131 7.754 3.334 7.294 3.122 C 6.833 2.915 6.626 2.371 6.838 1.906 L 7.197 1.220 L 7.556 0.879 L 8.293 0.796 C 8.901 0.981 8.933 1.441 8.952 1.593 L 8.551 3.522 L 7.285 7.501 L 5.807 12.902 L 4.094 21.153 L 2.878 27.457 L 2.413 29.386 C 2.270 29.865 2.298 30.183 1.801 30.620 L 1.230 30.979 C 0.756 31.154 0.226 30.910 0.056 30.431 C -0.119 29.957 0.125 29.432 0.599 29.257 L 0.226 29.515 L 0.088 29.722 L 0.019 29.929 L 0.005 30.058 L 0.005 29.078 C 0.152 27.830 0.935 26.425 1.695 25.053 C 1.943 24.611 2.501 24.455 2.943 24.699 C 3.385 24.947 3.546 25.504 3.297 25.946 L 1.828 29.294 L 1.824 29.750 L 1.838 29.985 L 1.838 30.123 L 1.819 30.284 C 1.801 30.385 1.893 30.735 1.230 30.979 L 0.604 29.257 L 0.493 29.345 L 0.525 29.257 L 1.082 27.084 L 2.293 20.808 L 4.025 12.460 L 5.530 6.962 L 6.792 3.007 L 7.124 1.722 L 7.128 1.791 L 7.156 1.938 L 7.289 2.219 L 7.460 2.394 L 8.003 2.588 L 8.390 2.509 L 8.565 2.403 L 8.685 2.293 L 8.510 2.671 Z"/>
<path d="M 9.909 1.630 C 9.656 2.067 9.094 2.219 8.657 1.966 C 8.219 1.713 8.068 1.151 8.321 0.714 C 8.519 0.373 8.998 -0.120 9.651 0.023 C 10.259 0.156 10.439 0.562 10.582 0.852 L 11.378 4.508 L 12.166 10.996 L 13.050 18.261 L 13.846 24.740 L 14.178 27.738 L 14.353 30.044 L 12.534 29.823 L 12.529 29.929 L 11.687 27.194 C 11.420 26.761 11.558 26.200 11.991 25.933 C 12.419 25.670 12.985 25.804 13.252 26.237 L 14.076 28.382 L 14.353 30.044 C 14.293 30.546 13.837 30.906 13.330 30.846 C 12.829 30.781 12.469 30.325 12.534 29.823 L 12.525 29.754 L 12.354 27.926 L 12.027 24.961 L 11.231 18.482 L 10.342 11.203 L 9.559 4.729 L 8.938 1.667 L 9.117 1.768 L 9.467 1.832 L 9.721 1.763 L 9.909 1.630 Z"/>
<path d="M 5.475 19.795 C 5.001 19.970 4.471 19.726 4.296 19.251 C 4.117 18.777 4.361 18.248 4.835 18.073 L 7.741 17.230 C 8.238 17.143 8.717 17.474 8.804 17.971 C 8.892 18.473 8.560 18.948 8.063 19.035 L 5.475 19.795 Z"/>
</g>
</svg>
