<svg xmlns="http://www.w3.org/2000/svg" viewBox="0 0 5.626 12.896" width="5.626" height="12.896">
<g fill="black" stroke="none">
<path d="M 1.169 0.308 C 1.189 0.453 1.087 0.587 0.942 0.607 C 0.794 0.627 0.661 0.524 0.642 0.378 L 0.635 0.345 L 0.647 0.373 L 0.682 0.425 L 0.789 0.496 L 0.875 0.511 L 1.015 0.469 L 1.074 0.419 L 1.105 0.370 L 1.075 0.544 L 0.940 2.061 L 0.872 3.365 L 0.780 7.467 L 0.780 11.185 L 0.760 12.301 L 0.659 12.693 L 0.524 12.848 C 0.448 12.899 0.285 12.924 0.175 12.846 C 0.009 12.727 0.016 12.595 0.000 12.476 L 0.041 11.068 C 0.118 10.060 0.467 9.057 0.920 8.087 C 1.340 7.186 1.920 6.291 2.664 5.692 C 3.051 5.382 3.477 5.189 3.870 5.091 C 4.165 5.018 4.462 5.004 4.732 5.098 C 5.086 5.220 5.339 5.553 5.473 5.981 C 5.638 6.512 5.632 7.163 5.621 7.809 C 5.610 8.563 5.564 9.338 5.335 10.068 C 5.137 10.699 4.789 11.251 4.443 11.691 C 3.707 12.622 2.726 12.936 1.987 12.697 C 1.264 12.462 0.812 11.643 1.089 10.801 C 1.134 10.662 1.285 10.585 1.426 10.632 C 1.565 10.678 1.641 10.829 1.594 10.968 C 1.396 11.570 1.678 12.036 2.152 12.190 C 2.647 12.351 3.394 12.158 4.024 11.361 C 4.342 10.959 4.655 10.456 4.827 9.909 C 5.030 9.260 5.078 8.534 5.089 7.801 C 5.098 7.166 5.093 6.550 4.964 6.140 C 4.861 5.812 4.721 5.657 4.558 5.602 L 3.999 5.609 C 3.676 5.688 3.318 5.850 2.998 6.108 C 2.348 6.629 1.799 7.463 1.403 8.312 C 0.966 9.247 0.642 10.192 0.572 11.108 L 0.516 12.077 L 0.528 12.408 L 0.542 12.475 L 0.488 12.414 L 0.415 12.379 L 0.276 12.381 L 0.214 12.416 L 0.190 12.440 L 0.229 12.265 L 0.246 11.182 L 0.246 7.460 L 0.340 3.342 L 0.409 2.030 L 0.548 0.472 L 0.618 0.152 L 0.769 0.000 L 1.082 0.072 L 1.169 0.308 Z"/>
</g>
</svg>
