<svg xmlns="http://www.w3.org/2000/svg" viewBox="0 0 4.216 9.673" width="4.216" height="9.673">
<g fill="black" stroke="none">
<path d="M 0.874 0.230 C 0.889 0.339 0.813 0.439 0.704 0.454 C 0.594 0.469 0.494 0.392 0.480 0.283 L 0.475 0.258 L 0.484 0.279 L 0.510 0.318 L 0.590 0.371 L 0.654 0.382 L 0.759 0.351 L 0.803 0.313 L 0.826 0.277 L 0.804 0.407 L 0.703 1.541 L 0.652 2.516 L 0.583 5.583 L 0.583 8.363 L 0.568 9.198 L 0.493 9.491 L 0.392 9.607 C 0.335 9.645 0.213 9.664 0.131 9.605 C 0.007 9.516 0.012 9.418 0.000 9.329 L 0.031 8.276 C 0.088 7.522 0.349 6.772 0.688 6.047 C 1.002 5.373 1.436 4.704 1.992 4.256 C 2.281 4.024 2.600 3.880 2.894 3.807 C 3.114 3.752 3.336 3.742 3.538 3.812 C 3.803 3.903 3.992 4.152 4.092 4.472 C 4.216 4.869 4.211 5.356 4.203 5.839 C 4.195 6.403 4.160 6.982 3.989 7.528 C 3.841 8.000 3.581 8.413 3.322 8.742 C 2.772 9.438 2.038 9.673 1.486 9.494 C 0.945 9.318 0.607 8.706 0.814 8.076 C 0.848 7.972 0.961 7.915 1.066 7.950 C 1.170 7.984 1.227 8.097 1.192 8.201 C 1.044 8.651 1.255 9.000 1.609 9.115 C 1.979 9.235 2.538 9.091 3.009 8.495 C 3.247 8.194 3.481 7.818 3.609 7.409 C 3.761 6.924 3.797 6.381 3.805 5.833 C 3.812 5.358 3.808 4.898 3.712 4.591 C 3.635 4.346 3.530 4.230 3.408 4.189 L 2.990 4.194 C 2.749 4.253 2.481 4.374 2.242 4.567 C 1.756 4.957 1.345 5.580 1.049 6.215 C 0.722 6.914 0.480 7.621 0.428 8.306 L 0.386 9.030 L 0.395 9.278 L 0.405 9.328 L 0.365 9.282 L 0.310 9.256 L 0.206 9.258 L 0.160 9.284 L 0.142 9.302 L 0.171 9.171 L 0.184 8.361 L 0.184 5.578 L 0.254 2.499 L 0.306 1.518 L 0.410 0.353 L 0.462 0.114 L 0.575 0.000 L 0.809 0.054 L 0.874 0.230 Z"/>
</g>
</svg>
