<svg xmlns="http://www.w3.org/2000/svg" viewBox="0 0 9.436 32.424" width="9.436" height="32.424">
<g fill="black" stroke="none">
<path d="M 1.565 2.865 C 1.531 3.069 1.341 3.205 1.138 3.172 C 0.937 3.138 0.799 2.948 0.833 2.744 L 1.121 1.120 L 1.252 0.537 C 1.293 0.382 1.263 0.280 1.461 0.097 C 1.612 -0.041 1.846 -0.031 1.986 0.119 C 2.124 0.271 2.114 0.505 1.964 0.645 L 2.036 0.550 L 2.066 0.469 L 2.146 4.088 L 2.209 8.952 L 2.209 17.992 L 2.016 23.616 L 1.762 27.994 L 1.673 29.419 L 1.656 29.639 L 1.647 29.704 L 1.634 29.760 C 1.625 29.794 1.715 30.023 1.278 30.025 C 0.840 30.027 0.922 29.769 0.914 29.735 L 0.901 29.453 L 0.956 27.395 C 1.010 25.585 1.086 23.291 1.473 21.180 C 1.843 19.192 2.575 17.559 3.407 16.532 C 3.911 15.917 4.571 15.508 5.295 15.636 C 6.153 15.777 6.976 16.428 7.643 17.312 C 9.366 19.589 9.711 23.627 9.252 26.932 C 8.917 29.360 7.760 31.241 6.316 32.078 C 4.784 32.963 2.821 32.046 1.544 30.578 C 0.255 29.095 -0.490 26.949 0.351 25.192 C 0.441 25.008 0.663 24.929 0.847 25.019 C 1.032 25.106 1.110 25.328 1.022 25.512 C 0.356 26.904 0.954 28.768 2.103 30.090 C 3.240 31.398 4.845 32.071 5.945 31.436 C 7.130 30.749 8.205 29.075 8.518 26.830 C 8.954 23.668 8.552 19.744 7.050 17.760 C 6.460 16.977 5.749 16.463 5.170 16.367 C 4.758 16.295 4.397 16.495 3.983 17.000 C 3.256 17.898 2.552 19.433 2.204 21.317 C 1.829 23.354 1.751 25.615 1.699 27.417 L 1.645 29.596 L 1.636 29.561 C 1.643 29.589 1.287 29.219 1.477 29.341 C 1.710 29.490 0.918 29.538 0.950 29.479 L 0.920 29.556 L 1.021 27.951 L 1.275 23.578 L 1.468 17.983 L 1.468 8.959 L 1.405 4.086 L 1.352 1.431 L 1.327 0.669 L 1.327 0.440 L 1.336 0.339 L 1.461 0.099 L 1.962 0.645 L 2.004 0.599 L 1.565 2.865 Z"/>
</g>
</svg>
