<svg xmlns="http://www.w3.org/2000/svg" viewBox="0 0 14.100 32.321" width="14.100" height="32.321">
<g fill="black" stroke="none">
<path d="M 2.930 0.771 C 2.980 1.136 2.725 1.472 2.360 1.522 C 1.991 1.572 1.656 1.314 1.609 0.949 L 1.592 0.865 L 1.622 0.935 L 1.710 1.066 L 1.978 1.244 L 2.192 1.280 L 2.544 1.177 L 2.692 1.049 L 2.769 0.929 L 2.695 1.364 L 2.356 5.165 L 2.185 8.434 L 1.954 18.714 L 1.954 28.033 L 1.904 30.832 L 1.653 31.814 L 1.314 32.203 C 1.123 32.330 0.714 32.394 0.439 32.196 C 0.023 31.898 0.040 31.569 0.000 31.271 L 0.104 27.741 C 0.295 25.214 1.170 22.700 2.306 20.269 C 3.359 18.010 4.813 15.768 6.677 14.266 C 7.646 13.488 8.715 13.006 9.701 12.761 C 10.438 12.577 11.182 12.543 11.859 12.778 C 12.748 13.083 13.381 13.917 13.716 14.990 C 14.132 16.321 14.115 17.953 14.088 19.572 C 14.062 21.463 13.944 23.404 13.371 25.234 C 12.875 26.816 12.003 28.200 11.135 29.303 C 9.292 31.636 6.831 32.424 4.981 31.824 C 3.168 31.234 2.035 29.182 2.729 27.071 C 2.842 26.722 3.221 26.531 3.573 26.648 C 3.922 26.762 4.113 27.141 3.996 27.490 C 3.499 28.998 4.207 30.168 5.393 30.553 C 6.634 30.956 8.507 30.473 10.086 28.475 C 10.884 27.466 11.668 26.206 12.097 24.835 C 12.607 23.209 12.728 21.389 12.754 19.552 C 12.778 17.960 12.764 16.418 12.443 15.389 C 12.184 14.568 11.833 14.179 11.424 14.041 L 10.022 14.058 C 9.215 14.256 8.316 14.662 7.515 15.309 C 5.886 16.616 4.508 18.704 3.516 20.833 C 2.420 23.176 1.609 25.546 1.435 27.842 L 1.294 30.268 L 1.324 31.100 L 1.358 31.267 L 1.223 31.113 L 1.039 31.026 L 0.691 31.033 L 0.536 31.120 L 0.476 31.180 L 0.573 30.741 L 0.617 28.026 L 0.617 18.697 L 0.851 8.377 L 1.026 5.088 L 1.374 1.183 L 1.549 0.382 L 1.927 0.000 L 2.712 0.181 L 2.930 0.771 Z"/>
</g>
</svg>
