<svg xmlns="http://www.w3.org/2000/svg" viewBox="0 0 5.581 9.798" width="5.581" height="9.798">
<g fill="black" stroke="none">
<path d="M 5.579 0.870 C 5.581 0.980 5.494 1.071 5.384 1.073 C 5.274 1.075 5.183 0.987 5.181 0.877 C 5.180 0.843 5.104 0.719 4.920 0.648 C 4.723 0.571 4.432 0.555 4.094 0.681 C 3.726 0.819 3.315 1.132 2.965 1.579 C 2.731 1.878 2.511 2.222 2.363 2.669 C 2.202 3.156 2.167 3.785 2.131 4.453 L 2.098 6.501 L 2.214 8.652 L 2.252 9.189 L 2.252 9.603 C 2.247 9.713 2.154 9.798 2.044 9.793 C 1.935 9.789 1.849 9.696 1.854 9.586 L 1.855 9.615 L 1.734 8.760 C 1.721 8.651 1.799 8.552 1.908 8.538 C 2.017 8.525 2.116 8.603 2.130 8.712 L 2.218 9.369 L 2.241 9.512 L 2.252 9.603 L 1.854 9.586 L 1.854 9.210 L 1.817 8.684 L 1.700 6.509 L 1.733 4.431 C 1.769 3.760 1.799 3.103 1.985 2.543 C 2.151 2.043 2.399 1.655 2.651 1.334 C 3.039 0.838 3.498 0.478 3.954 0.308 C 4.779 0.000 5.569 0.334 5.579 0.870 Z"/>
<path d="M 0.445 5.998 C 0.467 6.106 0.398 6.212 0.290 6.234 C 0.182 6.256 0.077 6.187 0.054 6.079 C 0.000 5.816 0.212 5.597 0.447 5.485 C 0.814 5.308 1.342 5.222 1.936 5.144 L 3.776 4.934 C 3.885 4.921 3.985 4.998 3.998 5.107 C 4.012 5.216 3.934 5.316 3.825 5.330 L 1.431 5.623 L 0.619 5.844 L 0.445 5.998 Z"/>
</g>
</svg>
