<svg xmlns="http://www.w3.org/2000/svg" viewBox="0 0 7.202 12.499" width="7.202" height="12.499">
<g fill="black" stroke="none">
<path d="M 7.202 0.884 C 7.204 1.028 7.091 1.146 6.948 1.149 C 6.805 1.151 6.686 1.037 6.684 0.894 C 6.682 0.849 6.584 0.688 6.344 0.595 C 6.088 0.495 5.709 0.474 5.269 0.638 C 4.790 0.818 4.255 1.225 3.799 1.807 C 3.495 2.196 3.209 2.644 3.016 3.226 C 2.806 3.860 2.761 4.679 2.714 5.548 L 2.671 8.214 L 2.822 11.013 L 2.871 11.712 L 2.871 12.251 C 2.865 12.394 2.744 12.505 2.601 12.499 C 2.459 12.493 2.347 12.372 2.353 12.229 L 2.355 12.267 L 2.197 11.154 C 2.180 11.012 2.282 10.883 2.424 10.865 C 2.566 10.848 2.694 10.950 2.713 11.092 L 2.827 11.947 L 2.857 12.133 L 2.871 12.251 L 2.353 12.229 L 2.353 11.740 L 2.305 11.055 L 2.153 8.224 L 2.196 5.519 C 2.243 4.646 2.282 3.791 2.524 3.062 C 2.740 2.411 3.063 1.906 3.391 1.488 C 3.896 0.843 4.493 0.374 5.087 0.153 C 6.161 -0.248 7.189 0.187 7.202 0.884 Z"/>
<path d="M 0.519 7.559 C 0.548 7.700 0.458 7.838 0.318 7.866 C 0.177 7.895 0.040 7.805 0.011 7.664 C -0.060 7.322 0.216 7.037 0.522 6.891 C 1.000 6.661 1.687 6.549 2.460 6.447 L 4.855 6.174 C 4.997 6.157 5.127 6.257 5.144 6.399 C 5.162 6.541 5.061 6.671 4.919 6.690 L 1.803 7.071 L 0.746 7.359 L 0.519 7.559 Z"/>
</g>
</svg>
