<svg xmlns="http://www.w3.org/2000/svg" viewBox="0 0 15.307 31.869" width="15.307" height="31.869">
<g fill="black" stroke="none">
<path d="M 11.350 8.047 C 11.215 8.167 11.007 8.157 10.887 8.022 C 10.765 7.887 10.775 7.679 10.910 7.559 C 11.607 6.930 11.706 6.064 11.431 5.131 C 11.144 4.159 10.486 3.152 9.750 2.299 L 8.581 1.067 C 8.233 0.774 7.929 0.634 7.713 0.656 C 7.570 0.671 7.407 0.764 7.231 1.010 L 6.694 2.287 C 6.472 3.109 6.313 4.176 6.202 5.412 C 6.027 7.335 5.969 9.607 5.981 12.029 L 6.197 19.504 L 6.500 24.331 L 6.742 27.336 L 6.977 30.501 L 6.980 31.367 L 6.916 31.666 L 6.751 31.856 L 6.406 31.869 C 6.243 31.790 6.174 31.594 6.253 31.431 C 6.330 31.268 6.526 31.199 6.689 31.278 L 6.585 31.250 L 6.450 31.274 L 6.361 31.335 L 6.325 31.383 L 6.313 31.408 L 6.305 30.232 L 5.966 25.922 L 5.541 19.535 C 5.382 16.231 5.284 12.782 5.339 9.637 L 5.548 5.353 C 5.661 4.093 5.823 2.995 6.060 2.114 C 6.396 0.881 6.909 0.076 7.647 0.002 C 8.627 -0.095 9.415 0.904 10.247 1.871 C 11.022 2.771 11.734 3.838 12.060 4.945 C 12.381 6.033 12.252 7.233 11.350 8.047 Z"/>
<path d="M 1.680 20.991 C 1.837 21.083 1.886 21.284 1.794 21.440 C 1.700 21.595 1.499 21.646 1.345 21.552 C 0.697 21.165 0.281 20.867 0.078 20.520 C -0.073 20.261 0.003 19.860 0.233 19.690 C 0.569 19.443 1.043 19.395 1.643 19.353 L 3.832 19.303 L 10.800 19.160 L 13.650 19.305 C 14.397 19.412 15.025 19.547 15.273 20.051 C 15.354 20.214 15.287 20.410 15.125 20.490 C 14.962 20.571 14.766 20.503 14.686 20.341 C 14.646 20.263 14.238 20.052 13.556 19.954 C 11.225 19.618 7.163 19.960 3.832 19.959 C 2.402 19.959 1.191 19.982 0.719 20.168 L 0.620 20.215 L 0.630 20.161 C 0.661 20.245 0.999 20.581 1.680 20.991 Z"/>
</g>
</svg>
