<svg xmlns="http://www.w3.org/2000/svg" viewBox="0 0 18.051 31.326" width="18.051" height="31.326">
<g fill="black" stroke="none">
<path d="M 18.051 2.217 C 18.057 2.576 17.773 2.872 17.414 2.879 C 17.056 2.885 16.759 2.598 16.752 2.240 C 16.749 2.129 16.501 1.724 15.901 1.492 C 15.258 1.241 14.309 1.189 13.206 1.600 C 12.006 2.050 10.665 3.071 9.523 4.530 C 8.760 5.505 8.042 6.627 7.559 8.086 C 7.034 9.674 6.920 11.726 6.802 13.905 L 6.695 20.587 L 7.073 27.604 L 7.197 29.356 L 7.197 30.706 C 7.181 31.065 6.877 31.342 6.518 31.326 C 6.163 31.313 5.882 31.010 5.899 30.651 L 5.902 30.745 L 5.507 27.956 C 5.465 27.601 5.719 27.278 6.075 27.232 C 6.430 27.190 6.753 27.444 6.799 27.800 L 7.086 29.943 L 7.161 30.409 L 7.197 30.706 L 5.899 30.651 L 5.899 29.424 L 5.778 27.708 L 5.396 20.613 L 5.504 13.834 C 5.621 11.645 5.719 9.501 6.326 7.675 C 6.867 6.043 7.676 4.778 8.499 3.730 C 9.764 2.112 11.262 0.938 12.749 0.383 C 15.441 -0.621 18.018 0.468 18.051 2.217 Z"/>
<path d="M 1.302 18.946 C 1.374 19.298 1.149 19.644 0.796 19.716 C 0.444 19.787 0.101 19.562 0.026 19.210 C -0.150 18.352 0.542 17.638 1.308 17.272 C 2.506 16.695 4.228 16.414 6.166 16.160 L 12.169 15.475 C 12.524 15.432 12.850 15.683 12.893 16.039 C 12.939 16.395 12.684 16.721 12.329 16.767 L 4.519 17.722 L 1.870 18.443 L 1.302 18.946 Z"/>
</g>
</svg>
