<svg xmlns="http://www.w3.org/2000/svg" viewBox="0 0 5.702 12.530" width="5.702" height="12.530">
<g fill="black" stroke="none">
<path d="M 4.982 0.500 C 4.890 0.343 4.942 0.140 5.100 0.046 C 5.259 -0.047 5.463 0.006 5.556 0.165 C 5.663 0.347 5.770 0.562 5.650 0.801 C 5.531 1.035 5.336 1.066 5.192 1.108 L 4.591 1.303 L 3.133 2.208 L 2.235 2.925 C 1.701 3.427 1.445 4.065 1.338 4.666 L 1.347 5.810 C 1.514 6.459 2.070 7.137 2.681 7.840 C 3.172 8.404 3.666 8.964 3.975 9.540 C 4.192 9.944 4.257 10.368 4.214 10.749 C 4.167 11.158 3.965 11.530 3.683 11.822 C 3.379 12.135 2.985 12.310 2.624 12.417 C 1.651 12.706 0.731 12.420 0.108 11.852 C -0.027 11.729 -0.037 11.518 0.086 11.383 C 0.210 11.246 0.420 11.236 0.555 11.361 C 1.035 11.797 1.676 12.004 2.435 11.779 L 3.203 11.360 L 3.552 10.672 C 3.583 10.416 3.542 10.141 3.389 9.854 L 2.178 8.276 C 1.557 7.563 0.923 6.833 0.702 5.975 C 0.584 5.511 0.599 5.032 0.684 4.551 C 0.807 3.848 1.118 3.062 1.779 2.440 L 2.743 1.671 C 3.279 1.280 3.816 0.883 4.359 0.681 L 5.008 0.468 L 5.114 0.433 L 5.079 0.465 L 5.037 0.554 L 5.035 0.602 L 4.982 0.500 Z"/>
</g>
</svg>
