<svg xmlns="http://www.w3.org/2000/svg" viewBox="0 0 16.304 31.964" width="16.304" height="31.964">
<g fill="black" stroke="none">
<path d="M 13.324 2.644 C 13.625 2.779 13.760 3.129 13.629 3.430 C 13.494 3.729 13.142 3.867 12.842 3.732 C 11.760 3.254 10.382 2.175 8.863 1.586 C 8.049 1.272 7.179 1.140 6.462 1.212 C 5.960 1.263 5.472 1.720 5.098 2.485 C 4.713 3.284 4.485 4.313 4.431 5.275 C 4.332 7.048 5.622 8.930 7.442 10.852 C 9.327 12.840 11.670 14.829 13.542 17.095 C 15.166 19.066 16.065 21.408 16.246 23.701 C 16.347 25.004 16.386 26.407 15.779 27.692 C 14.652 30.112 11.476 31.314 8.672 31.831 C 6.195 32.279 3.737 31.603 2.051 30.246 C 0.392 28.916 -0.505 26.745 0.299 24.663 C 0.416 24.359 0.762 24.206 1.068 24.322 C 1.375 24.443 1.528 24.786 1.409 25.094 C 0.805 26.658 1.438 28.227 2.796 29.319 C 4.201 30.447 6.330 31.045 8.456 30.658 C 11.066 30.178 13.877 28.954 14.699 27.184 C 15.160 26.216 15.154 25.035 15.058 23.793 C 14.897 21.743 14.092 19.634 12.625 17.851 C 10.836 15.693 8.516 13.716 6.578 11.671 C 4.679 9.667 3.113 7.548 3.244 5.210 C 3.304 4.110 3.549 2.949 4.028 1.965 C 4.500 0.991 5.271 0.132 6.342 0.025 C 7.284 -0.068 8.319 0.099 9.290 0.476 C 11.013 1.140 12.490 2.274 13.324 2.644 Z"/>
</g>
</svg>
