<svg xmlns="http://www.w3.org/2000/svg" viewBox="0 0 3.478 7.638" width="3.478" height="7.638">
<g fill="black" stroke="none">
<path d="M 3.006 0.328 C 2.951 0.234 2.982 0.112 3.077 0.056 C 3.172 0.000 3.294 0.032 3.350 0.127 C 3.414 0.236 3.478 0.365 3.406 0.508 C 3.335 0.648 3.218 0.667 3.132 0.692 L 2.772 0.809 L 1.899 1.351 L 1.361 1.780 C 1.041 2.081 0.888 2.463 0.824 2.823 L 0.829 3.508 C 0.929 3.897 1.262 4.303 1.628 4.724 C 1.922 5.062 2.218 5.397 2.403 5.742 C 2.533 5.984 2.572 6.238 2.546 6.466 C 2.518 6.711 2.397 6.934 2.228 7.109 C 2.046 7.296 1.810 7.401 1.594 7.465 C 1.011 7.638 0.460 7.467 0.087 7.127 C 0.006 7.053 0.000 6.927 0.074 6.846 C 0.148 6.764 0.274 6.758 0.355 6.833 C 0.642 7.094 1.026 7.218 1.481 7.083 L 1.941 6.832 L 2.150 6.420 C 2.168 6.267 2.144 6.102 2.052 5.930 L 1.327 4.985 C 0.955 4.558 0.575 4.121 0.443 3.607 C 0.372 3.329 0.381 3.042 0.432 2.754 C 0.506 2.333 0.692 1.862 1.088 1.490 L 1.665 1.029 C 1.986 0.795 2.308 0.557 2.633 0.436 L 3.022 0.309 L 3.085 0.288 L 3.064 0.307 L 3.039 0.360 L 3.038 0.389 L 3.006 0.328 Z"/>
</g>
</svg>
