<svg xmlns="http://www.w3.org/2000/svg" viewBox="0 0 14.293 31.406" width="14.293" height="31.406">
<g fill="black" stroke="none">
<path d="M 12.486 1.254 C 12.256 0.860 12.386 0.350 12.783 0.115 C 13.181 -0.119 13.691 0.015 13.926 0.413 C 14.193 0.869 14.461 1.409 14.160 2.007 C 13.863 2.593 13.373 2.672 13.013 2.777 L 11.507 3.267 L 7.853 5.535 L 5.602 7.330 C 4.263 8.590 3.623 10.188 3.355 11.695 L 3.376 14.562 C 3.794 16.189 5.188 17.889 6.719 19.650 C 7.950 21.065 9.188 22.467 9.963 23.911 C 10.507 24.923 10.670 25.986 10.561 26.940 C 10.444 27.966 9.937 28.899 9.230 29.631 C 8.469 30.414 7.481 30.853 6.577 31.121 C 4.137 31.845 1.831 31.129 0.270 29.707 C -0.069 29.397 -0.094 28.870 0.216 28.531 C 0.526 28.187 1.053 28.162 1.392 28.476 C 2.593 29.568 4.200 30.087 6.104 29.522 L 8.029 28.472 L 8.904 26.748 C 8.979 26.108 8.879 25.417 8.494 24.697 L 5.460 20.743 C 3.903 18.956 2.313 17.127 1.760 14.976 C 1.463 13.812 1.501 12.611 1.714 11.406 C 2.024 9.644 2.802 7.673 4.459 6.117 L 6.874 4.187 C 8.217 3.208 9.565 2.212 10.925 1.706 L 12.553 1.174 L 12.817 1.086 L 12.729 1.166 L 12.624 1.388 L 12.620 1.509 L 12.486 1.254 Z"/>
</g>
</svg>
