<svg xmlns="http://www.w3.org/2000/svg" viewBox="0 0 4.091 9.357" width="4.091" height="9.357">
<g fill="black" stroke="none">
<path d="M 1.173 1.122 C 1.069 1.086 1.013 0.973 1.049 0.869 C 1.085 0.765 1.198 0.709 1.302 0.745 C 1.474 0.804 1.910 0.683 2.389 0.497 C 2.880 0.306 3.391 0.073 3.855 0.014 C 3.964 0.000 4.064 0.077 4.078 0.186 C 4.091 0.295 4.014 0.395 3.905 0.409 C 3.533 0.457 3.032 0.674 2.534 0.868 C 2.041 1.060 1.571 1.259 1.173 1.122 Z"/>
<path d="M 2.975 1.945 C 3.051 2.024 3.049 2.151 2.970 2.227 C 2.890 2.303 2.764 2.301 2.688 2.221 L 2.743 2.258 L 2.841 2.267 L 2.908 2.237 L 2.931 2.215 C 2.850 2.320 2.658 3.724 2.538 5.149 L 2.396 7.161 L 2.363 8.279 C 2.374 8.389 2.293 8.486 2.183 8.496 C 2.074 8.506 1.977 8.426 1.967 8.316 L 1.966 7.844 L 2.053 6.253 L 2.318 3.360 L 2.481 2.338 L 2.577 2.036 L 2.695 1.902 C 2.778 1.855 2.922 1.890 2.975 1.945 Z"/>
<path d="M 0.113 9.148 C 0.022 9.085 0.000 8.961 0.063 8.871 C 0.125 8.780 0.249 8.758 0.340 8.820 C 0.642 9.030 1.010 8.907 1.446 8.675 C 1.898 8.435 2.379 8.094 2.922 8.098 C 3.032 8.099 3.120 8.189 3.119 8.299 C 3.118 8.409 3.028 8.498 2.918 8.497 C 2.548 8.494 2.103 8.777 1.633 9.027 L 0.899 9.312 C 0.642 9.357 0.358 9.318 0.113 9.148 Z"/>
</g>
</svg>
