<svg xmlns="http://www.w3.org/2000/svg" viewBox="0 0 5.284 12.150" width="5.284" height="12.150">
<g fill="black" stroke="none">
<path d="M 1.494 1.447 C 1.358 1.400 1.285 1.253 1.332 1.117 C 1.379 0.982 1.527 0.908 1.662 0.955 C 1.887 1.032 2.455 0.875 3.080 0.632 C 3.720 0.383 4.387 0.079 4.992 0.002 C 5.134 -0.016 5.264 0.084 5.282 0.226 C 5.299 0.369 5.199 0.499 5.057 0.517 C 4.572 0.580 3.918 0.863 3.269 1.116 C 2.626 1.366 2.013 1.626 1.494 1.447 Z"/>
<path d="M 3.844 2.520 C 3.943 2.623 3.941 2.789 3.838 2.888 C 3.733 2.987 3.569 2.985 3.470 2.880 L 3.541 2.929 L 3.669 2.940 L 3.757 2.901 L 3.787 2.872 C 3.681 3.009 3.431 4.840 3.274 6.699 L 3.089 9.323 L 3.046 10.781 C 3.060 10.924 2.955 11.051 2.811 11.064 C 2.669 11.077 2.543 10.972 2.529 10.829 L 2.528 10.213 L 2.642 8.138 L 2.987 4.366 L 3.200 3.033 L 3.325 2.639 L 3.479 2.464 C 3.587 2.403 3.775 2.449 3.844 2.520 Z"/>
<path d="M 0.112 11.914 C -0.007 11.832 -0.036 11.670 0.046 11.553 C 0.127 11.434 0.289 11.405 0.408 11.486 C 0.802 11.760 1.281 11.600 1.850 11.297 C 2.440 10.984 3.067 10.539 3.775 10.545 C 3.918 10.546 4.033 10.663 4.032 10.807 C 4.031 10.950 3.913 11.066 3.770 11.065 C 3.287 11.061 2.707 11.430 2.094 11.756 L 1.137 12.128 C 0.802 12.186 0.431 12.136 0.112 11.914 Z"/>
</g>
</svg>
