<svg xmlns="http://www.w3.org/2000/svg" viewBox="0 0 18.385 27.825" width="18.385" height="27.825">
<g fill="black" stroke="none">
<path d="M 2.711 2.474 C 2.931 2.378 3.187 2.480 3.280 2.700 C 3.376 2.921 3.274 3.176 3.054 3.272 L 1.385 3.675 L 0.765 3.780 L 0.621 3.804 L 0.641 3.798 L 0.685 3.778 L 0.748 3.739 L 0.826 3.658 L 0.894 3.532 L 0.890 3.241 L 0.768 3.067 L 0.726 3.041 L 3.776 2.962 L 14.802 2.962 C 15.042 2.962 15.236 3.156 15.236 3.396 C 15.236 3.636 15.042 3.833 14.802 3.833 L 3.789 3.833 L 1.727 3.935 C 1.119 3.963 0.637 4.101 0.200 3.726 L 0.048 3.377 C 0.061 3.076 0.235 3.032 0.285 3.006 L 0.669 2.914 L 1.230 2.820 L 2.711 2.474 Z"/>
<path d="M 9.013 0.076 C 9.024 0.316 8.841 0.519 8.601 0.532 C 8.361 0.545 8.156 0.360 8.145 0.120 L 8.149 0.146 L 9.009 0.105 L 9.009 1.136 L 9.024 6.350 L 8.971 17.780 L 8.854 23.028 L 8.636 26.695 C 8.609 26.935 8.396 27.107 8.158 27.081 C 7.918 27.055 7.746 26.841 7.772 26.601 L 7.948 23.938 L 8.114 16.833 L 8.153 5.242 L 8.138 1.333 L 8.138 0.312 L 8.140 0.085 L 8.140 0.048 L 9.004 0.000 L 9.013 0.076 Z"/>
<path d="M 1.400 25.733 C 1.612 25.619 1.876 25.698 1.989 25.907 C 2.105 26.119 2.026 26.383 1.815 26.498 L 0.907 27.087 L 0.848 27.151 L 0.864 27.111 L 0.842 26.935 L 0.776 26.847 L 2.203 26.957 C 4.434 26.935 7.857 26.472 11.109 25.955 L 15.441 25.211 L 17.838 24.721 C 18.072 24.660 18.310 24.797 18.371 25.030 C 18.432 25.262 18.294 25.499 18.061 25.560 L 15.600 26.064 C 11.711 26.791 5.802 27.792 2.212 27.825 L 1.018 27.783 L 0.362 27.613 C 0.207 27.530 0.022 27.351 0.002 27.100 C -0.026 26.738 0.200 26.540 0.425 26.354 L 1.400 25.733 Z"/>
</g>
</svg>
