<svg xmlns="http://www.w3.org/2000/svg" viewBox="0 0 20.208 30.584" width="20.208" height="30.584">
<g fill="black" stroke="none">
<path d="M 2.980 2.719 C 3.221 2.614 3.503 2.726 3.605 2.968 C 3.711 3.211 3.598 3.491 3.357 3.596 L 1.522 4.039 L 0.841 4.155 L 0.682 4.181 L 0.704 4.175 L 0.753 4.153 L 0.822 4.110 L 0.908 4.021 L 0.982 3.882 L 0.978 3.562 L 0.844 3.371 L 0.798 3.343 L 4.150 3.256 L 16.270 3.256 C 16.533 3.256 16.747 3.469 16.747 3.733 C 16.747 3.997 16.533 4.213 16.270 4.213 L 4.165 4.213 L 1.898 4.325 C 1.230 4.356 0.700 4.508 0.220 4.095 L 0.053 3.712 C 0.067 3.381 0.258 3.333 0.313 3.304 L 0.735 3.203 L 1.352 3.100 L 2.980 2.719 Z"/>
<path d="M 9.907 0.084 C 9.919 0.347 9.718 0.570 9.454 0.585 C 9.190 0.599 8.965 0.396 8.953 0.132 L 8.957 0.160 L 9.902 0.115 L 9.902 1.249 L 9.919 6.980 L 9.860 19.543 L 9.732 25.311 L 9.492 29.342 C 9.463 29.606 9.228 29.795 8.967 29.766 C 8.703 29.738 8.514 29.503 8.543 29.239 L 8.736 26.312 L 8.918 18.502 L 8.961 5.762 L 8.945 1.465 L 8.945 0.343 L 8.947 0.093 L 8.947 0.053 L 9.897 0.000 L 9.907 0.084 Z"/>
<path d="M 1.539 28.285 C 1.772 28.159 2.062 28.246 2.186 28.476 C 2.314 28.709 2.227 28.999 1.995 29.126 L 0.997 29.773 L 0.932 29.843 L 0.950 29.799 L 0.925 29.606 L 0.853 29.509 L 2.421 29.630 C 4.874 29.606 8.636 29.097 12.210 28.529 L 16.972 27.711 L 19.607 27.172 C 19.864 27.105 20.125 27.256 20.193 27.512 C 20.260 27.767 20.108 28.027 19.852 28.095 L 17.147 28.649 C 12.872 29.448 6.377 30.548 2.431 30.584 L 1.119 30.538 L 0.398 30.351 C 0.227 30.260 0.024 30.063 0.002 29.787 C -0.029 29.389 0.220 29.172 0.467 28.967 L 1.539 28.285 Z"/>
</g>
</svg>
