<svg xmlns="http://www.w3.org/2000/svg" viewBox="0 0 13.244 30.453" width="13.244" height="30.453">
<g fill="black" stroke="none">
<path d="M 3.745 3.627 C 3.405 3.509 3.222 3.140 3.339 2.800 C 3.457 2.460 3.826 2.277 4.166 2.395 C 4.728 2.588 6.154 2.192 7.719 1.584 C 9.324 0.960 10.994 0.198 12.511 0.005 C 12.867 -0.040 13.194 0.211 13.240 0.568 C 13.282 0.924 13.031 1.251 12.674 1.296 C 11.458 1.453 9.821 2.163 8.193 2.797 C 6.582 3.424 5.046 4.075 3.745 3.627 Z"/>
<path d="M 9.635 6.317 C 9.883 6.575 9.876 6.990 9.618 7.239 C 9.357 7.487 8.945 7.481 8.697 7.219 L 8.876 7.340 L 9.197 7.369 L 9.416 7.271 L 9.491 7.200 C 9.226 7.543 8.598 12.132 8.206 16.790 L 7.742 23.366 L 7.634 27.020 C 7.670 27.380 7.405 27.697 7.046 27.729 C 6.690 27.762 6.373 27.501 6.340 27.141 L 6.337 25.598 L 6.621 20.398 L 7.487 10.942 L 8.020 7.602 L 8.334 6.614 L 8.719 6.176 C 8.991 6.023 9.461 6.137 9.635 6.317 Z"/>
<path d="M 0.280 29.861 C -0.018 29.655 -0.089 29.249 0.116 28.955 C 0.319 28.658 0.724 28.586 1.022 28.789 C 2.009 29.475 3.212 29.073 4.637 28.315 C 6.114 27.530 7.687 26.416 9.461 26.429 C 9.821 26.432 10.109 26.726 10.105 27.086 C 10.102 27.445 9.808 27.736 9.448 27.733 C 8.239 27.723 6.784 28.648 5.248 29.465 L 2.849 30.397 C 2.009 30.544 1.081 30.416 0.280 29.861 Z"/>
</g>
</svg>
