<svg xmlns="http://www.w3.org/2000/svg" viewBox="0 0 4.793 6.270" width="4.793" height="6.270">
<g fill="black" stroke="none">
<path d="M 0.251 1.555 C 0.257 1.445 0.351 1.361 0.461 1.367 C 0.571 1.373 0.655 1.467 0.649 1.576 L 0.682 3.959 L 0.544 5.355 L 0.439 5.868 L 0.406 6.078 C 0.397 6.188 0.301 6.270 0.192 6.261 C 0.082 6.253 0.000 6.157 0.009 6.047 L 0.051 5.780 L 0.150 5.296 L 0.283 3.945 L 0.251 1.555 Z"/>
<path d="M 0.406 6.065 C 0.405 6.175 0.315 6.263 0.205 6.262 C 0.095 6.261 0.007 6.170 0.008 6.060 L 0.008 6.045 L 0.080 5.043 L 0.461 3.049 L 0.863 1.552 L 1.079 1.063 L 1.320 0.542 C 1.520 0.186 1.922 0.054 2.223 0.180 C 2.593 0.336 2.693 0.807 2.773 1.322 C 2.854 1.855 2.873 2.467 2.863 3.030 L 2.738 4.503 L 2.617 4.918 L 2.533 5.021 L 2.297 5.038 C 2.175 4.971 2.180 4.899 2.167 4.844 L 2.166 3.953 L 2.439 2.524 C 2.702 1.608 3.146 0.698 3.666 0.249 C 3.867 0.076 4.111 0.000 4.322 0.072 C 4.493 0.131 4.580 0.286 4.631 0.440 C 4.793 0.922 4.742 1.648 4.665 2.327 L 4.448 3.689 L 4.412 4.399 C 4.449 4.502 4.396 4.617 4.293 4.654 C 4.189 4.692 4.075 4.639 4.037 4.536 C 3.944 4.280 3.994 3.983 4.055 3.622 L 4.269 2.281 L 4.324 1.007 L 4.254 0.567 L 4.193 0.449 C 4.151 0.435 4.049 0.444 3.926 0.551 C 3.522 0.899 3.069 1.773 2.822 2.634 C 2.640 3.271 2.558 3.875 2.539 4.309 L 2.552 4.739 L 2.557 4.759 L 2.551 4.748 L 2.534 4.726 L 2.501 4.697 L 2.451 4.674 L 2.345 4.676 L 2.294 4.702 L 2.266 4.730 L 2.346 4.432 L 2.464 3.022 L 2.379 1.383 L 2.229 0.778 L 2.069 0.548 C 1.954 0.499 1.783 0.531 1.667 0.737 L 1.433 1.246 L 1.239 1.683 L 0.849 3.139 L 0.475 5.090 L 0.407 6.050 L 0.406 6.065 Z"/>
</g>
</svg>
