<svg xmlns="http://www.w3.org/2000/svg" viewBox="0 0 6.367 8.370" width="6.367" height="8.370">
<g fill="black" stroke="none">
<path d="M 0.327 2.033 C 0.335 1.885 0.462 1.772 0.610 1.780 C 0.758 1.788 0.871 1.914 0.863 2.061 L 0.907 5.269 L 0.722 7.149 L 0.580 7.839 L 0.536 8.122 C 0.524 8.270 0.394 8.380 0.248 8.368 C 0.100 8.357 -0.011 8.228 0.001 8.080 L 0.058 7.721 L 0.191 7.069 L 0.370 5.250 L 0.327 2.033 Z"/>
<path d="M 0.536 8.104 C 0.534 8.252 0.413 8.371 0.265 8.370 C 0.117 8.368 -0.001 8.246 0.000 8.098 L 0.000 8.077 L 0.097 6.728 L 0.610 4.044 L 1.151 2.029 L 1.442 1.371 L 1.766 0.669 C 2.035 0.190 2.577 0.012 2.982 0.182 C 3.480 0.392 3.615 1.026 3.722 1.719 C 3.831 2.437 3.857 3.261 3.843 4.019 L 3.675 6.002 L 3.512 6.560 L 3.399 6.699 L 3.082 6.722 C 2.917 6.632 2.924 6.535 2.906 6.461 L 2.905 5.261 L 3.273 3.337 C 3.627 2.104 4.224 0.879 4.924 0.275 C 5.195 0.042 5.524 -0.061 5.808 0.036 C 6.038 0.116 6.155 0.325 6.224 0.532 C 6.442 1.181 6.373 2.158 6.269 3.072 L 5.977 4.906 L 5.929 5.862 C 5.979 6.000 5.907 6.155 5.769 6.205 C 5.629 6.256 5.475 6.185 5.424 6.046 C 5.299 5.701 5.366 5.301 5.448 4.816 L 5.736 3.010 L 5.810 1.295 L 5.716 0.703 L 5.634 0.544 C 5.577 0.525 5.440 0.537 5.275 0.681 C 4.731 1.150 4.121 2.326 3.788 3.485 C 3.543 4.343 3.433 5.156 3.407 5.740 L 3.425 6.319 L 3.432 6.346 L 3.423 6.331 L 3.401 6.302 L 3.356 6.263 L 3.289 6.232 L 3.146 6.234 L 3.077 6.269 L 3.040 6.307 L 3.147 5.906 L 3.306 4.008 L 3.192 1.801 L 2.990 0.987 L 2.775 0.677 C 2.620 0.611 2.390 0.654 2.233 0.932 L 1.918 1.617 L 1.657 2.205 L 1.132 4.165 L 0.629 6.792 L 0.537 8.084 L 0.536 8.104 Z"/>
</g>
</svg>
