<svg xmlns="http://www.w3.org/2000/svg" viewBox="0 0 22.618 21.112" width="22.618" height="21.112">
<g fill="black" stroke="none">
<path d="M 2.961 5.231 C 2.848 5.475 2.558 5.579 2.317 5.465 C 2.073 5.353 1.968 5.065 2.080 4.821 L 2.046 4.938 L 1.563 3.350 L 1.082 2.228 L 0.936 2.003 L 0.997 2.040 L 1.121 2.066 L 1.285 2.037 L 1.455 1.898 L 1.490 1.835 L 1.582 4.260 C 1.636 6.892 1.277 10.383 1.163 13.511 L 1.077 17.521 L 1.016 19.187 L 1.014 19.370 L 0.992 19.322 L 0.928 19.222 L 0.792 19.112 L 0.614 19.061 L 0.472 19.073 L 0.331 19.134 L 0.272 19.185 L 1.290 17.124 C 2.673 13.967 4.500 9.139 6.447 5.309 C 7.340 3.550 8.279 2.125 9.003 1.132 C 9.382 0.615 9.645 0.234 10.074 0.051 C 10.301 -0.044 10.657 -0.010 10.860 0.171 L 11.202 0.776 C 11.492 1.737 11.516 3.108 11.560 4.591 L 11.560 9.990 L 11.050 15.579 L 10.589 17.468 L 10.382 17.958 L 10.206 18.187 L 9.843 18.290 L 9.467 18.033 L 9.418 17.692 L 9.994 15.913 L 11.036 13.235 C 12.333 9.932 14.222 6.346 16.127 3.733 C 16.925 2.637 17.715 1.771 18.530 1.259 C 19.025 0.944 19.577 0.783 20.096 0.903 C 20.616 1.020 21.045 1.422 21.311 1.959 C 21.775 2.894 21.648 4.084 21.704 5.167 L 22.199 13.989 L 22.206 19.226 L 22.282 20.432 L 22.231 20.356 L 22.087 20.251 L 21.872 20.214 L 21.718 20.256 L 21.616 20.332 L 21.684 20.180 C 21.787 19.934 22.072 19.817 22.319 19.919 C 22.567 20.024 22.685 20.307 22.580 20.556 C 22.492 20.766 22.470 20.946 22.175 21.112 L 21.572 21.066 C 21.328 20.871 21.343 20.710 21.314 20.558 L 21.233 17.992 L 21.228 14.008 L 20.733 5.216 C 20.674 4.072 20.718 2.952 20.440 2.391 C 20.111 1.725 19.723 1.654 19.047 2.081 C 18.406 2.486 17.669 3.267 16.913 4.306 C 15.076 6.824 13.207 10.363 11.941 13.589 L 10.374 17.860 L 10.379 17.814 L 10.362 17.668 L 10.274 17.502 L 10.023 17.338 L 9.762 17.341 L 9.635 17.402 L 9.547 17.475 L 9.518 17.516 C 9.582 17.411 9.918 16.582 10.087 15.438 L 10.589 9.951 L 10.587 4.618 C 10.545 3.145 10.494 1.793 10.270 1.057 L 10.213 0.898 L 10.423 0.954 L 9.789 1.705 C 9.089 2.662 8.179 4.045 7.313 5.748 C 6.049 8.234 4.805 11.232 3.683 13.942 L 2.180 17.514 L 1.080 19.727 L 0.809 19.978 C 0.624 20.068 0.219 19.924 0.128 19.766 C -0.099 19.361 0.040 19.202 0.058 18.863 L 0.106 17.516 L 0.192 13.474 C 0.306 10.307 0.663 6.816 0.611 4.282 L 0.514 2.559 L 0.509 1.849 L 0.565 1.535 L 0.907 1.139 C 1.224 1.008 1.504 1.193 1.634 1.325 C 1.999 1.703 2.207 2.296 2.473 3.011 L 2.878 4.238 L 2.992 4.716 L 2.961 5.231 Z"/>
</g>
</svg>
