<svg xmlns="http://www.w3.org/2000/svg" viewBox="0 0 15.958 20.977" width="15.958" height="20.977">
<g fill="black" stroke="none">
<path d="M 0.820 5.095 C 0.840 4.724 1.157 4.441 1.528 4.461 C 1.900 4.481 2.183 4.798 2.163 5.166 L 2.274 13.207 L 1.809 17.917 L 1.454 19.648 L 1.343 20.356 C 1.313 20.728 0.989 21.004 0.621 20.974 C 0.250 20.947 -0.027 20.623 0.003 20.252 L 0.145 19.351 L 0.479 17.718 L 0.928 13.159 L 0.820 5.095 Z"/>
<path d="M 1.343 20.313 C 1.340 20.684 1.036 20.981 0.665 20.977 C 0.294 20.974 -0.003 20.667 0.000 20.296 L 0.000 20.245 L 0.243 16.864 L 1.528 10.136 L 2.885 5.085 L 3.614 3.435 L 4.427 1.677 C 5.102 0.476 6.458 0.031 7.474 0.456 C 8.722 0.982 9.060 2.571 9.330 4.309 C 9.603 6.107 9.667 8.172 9.633 10.072 L 9.211 15.042 L 8.803 16.442 L 8.520 16.790 L 7.723 16.847 C 7.312 16.621 7.329 16.378 7.285 16.193 L 7.281 13.186 L 8.203 8.365 C 9.090 5.274 10.588 2.203 12.343 0.688 C 13.021 0.105 13.844 -0.152 14.556 0.091 C 15.133 0.290 15.427 0.813 15.599 1.333 C 16.145 2.959 15.973 5.409 15.713 7.700 L 14.981 12.296 L 14.860 14.691 C 14.985 15.039 14.806 15.427 14.458 15.552 C 14.107 15.680 13.723 15.501 13.594 15.153 C 13.281 14.290 13.449 13.288 13.655 12.070 L 14.377 7.545 L 14.563 3.246 L 14.327 1.761 L 14.121 1.363 C 13.979 1.316 13.635 1.346 13.220 1.707 C 11.857 2.882 10.328 5.831 9.495 8.736 C 8.881 10.885 8.604 12.923 8.540 14.388 L 8.584 15.838 L 8.601 15.906 L 8.580 15.869 L 8.523 15.795 L 8.412 15.697 L 8.243 15.619 L 7.885 15.626 L 7.713 15.714 L 7.619 15.808 L 7.889 14.803 L 8.287 10.045 L 8.000 4.515 L 7.494 2.473 L 6.954 1.697 C 6.566 1.532 5.989 1.640 5.598 2.335 L 4.808 4.053 L 4.154 5.527 L 2.838 10.440 L 1.576 17.023 L 1.346 20.262 L 1.343 20.313 Z"/>
</g>
</svg>
