<svg xmlns="http://www.w3.org/2000/svg" viewBox="0 0 11.521 21.616" width="11.521" height="21.616">
<g fill="black" stroke="none">
<path d="M 7.277 0.808 C 7.502 0.943 7.573 1.237 7.435 1.461 C 7.299 1.685 7.006 1.754 6.782 1.619 C 5.575 0.877 4.223 0.894 3.214 2.093 C 1.189 4.497 0.719 11.122 1.029 16.023 C 1.165 18.076 1.526 19.638 2.116 20.210 C 2.549 20.634 3.092 20.768 3.607 20.604 C 4.379 20.342 5.341 18.109 6.176 15.884 C 7.253 13.013 8.007 9.782 8.362 6.894 C 8.558 5.293 8.577 3.841 8.523 2.710 L 8.298 1.253 L 8.157 0.880 L 8.134 0.836 L 8.171 0.873 L 8.320 0.939 C 8.062 0.882 7.903 0.626 7.959 0.372 C 8.017 0.114 8.272 -0.046 8.527 0.011 C 8.882 0.092 8.920 0.288 8.999 0.438 C 9.245 0.910 9.423 1.678 9.471 2.665 C 9.528 3.845 9.509 5.346 9.304 7.008 C 8.942 9.972 8.174 13.263 7.065 16.219 L 5.731 19.452 C 5.250 20.401 4.723 21.228 3.905 21.505 C 3.049 21.782 2.104 21.531 1.454 20.890 C 0.493 19.960 0.221 18.212 0.083 16.082 C -0.075 13.618 -0.017 10.716 0.342 7.993 C 0.696 5.315 1.291 2.899 2.486 1.480 C 3.144 0.700 3.981 0.257 4.831 0.176 C 5.675 0.092 6.526 0.345 7.277 0.808 Z"/>
<path d="M 7.947 0.447 C 7.964 0.188 8.188 -0.013 8.451 0.002 C 8.712 0.016 8.910 0.240 8.896 0.502 L 8.866 1.899 L 8.896 4.802 C 9.008 7.576 9.309 10.745 9.765 13.728 C 10.213 16.662 10.786 19.287 11.484 20.944 C 11.584 21.186 11.472 21.464 11.229 21.567 C 10.987 21.669 10.709 21.555 10.607 21.314 C 9.848 19.511 9.281 16.846 8.828 13.872 C 8.365 10.850 8.059 7.652 7.947 4.838 L 7.917 1.890 L 7.947 0.447 Z"/>
</g>
</svg>
