<svg xmlns="http://www.w3.org/2000/svg" viewBox="0 0 7.780 8.568" width="7.780" height="8.568">
<g fill="black" stroke="none">
<path d="M 4.563 1.291 C 4.422 1.435 4.190 1.435 4.047 1.294 C 3.904 1.154 3.903 0.923 4.044 0.778 C 4.474 0.345 5.114 0.297 5.526 0.592 C 5.938 0.888 6.199 1.388 6.351 1.946 C 6.532 2.603 6.589 3.355 6.454 4.147 C 6.303 5.029 5.890 5.900 5.387 6.619 C 4.653 7.664 3.559 8.162 2.569 8.219 C 1.736 8.268 1.006 7.862 0.569 7.243 C 0.128 6.619 -0.063 5.787 0.018 4.930 C 0.151 3.512 1.178 2.085 2.442 1.038 C 3.065 0.524 3.722 0.125 4.373 0.017 C 4.819 -0.056 5.275 0.109 5.601 0.433 C 6.080 0.908 6.307 1.675 6.499 2.526 L 6.957 5.190 L 7.306 7.291 L 7.396 7.834 L 7.438 8.028 L 7.423 7.999 L 7.385 7.955 L 7.304 7.899 L 7.184 7.866 L 7.067 7.877 L 6.944 7.942 L 6.915 7.975 L 7.068 7.556 C 7.129 7.364 7.334 7.258 7.526 7.318 C 7.718 7.379 7.824 7.584 7.764 7.776 L 7.548 8.336 L 7.403 8.510 L 7.015 8.568 C 6.792 8.482 6.777 8.345 6.750 8.266 L 6.587 7.412 L 6.238 5.306 C 5.959 3.565 5.683 1.541 5.087 0.950 C 4.898 0.764 4.710 0.702 4.490 0.736 C 4.049 0.809 3.469 1.135 2.907 1.600 C 1.753 2.555 0.849 3.884 0.744 4.998 C 0.613 6.393 1.390 7.558 2.525 7.492 C 3.315 7.445 4.190 7.057 4.790 6.200 C 5.240 5.558 5.610 4.766 5.734 4.026 C 5.852 3.340 5.802 2.696 5.648 2.140 C 5.526 1.693 5.304 1.331 5.101 1.186 C 4.926 1.060 4.810 1.042 4.563 1.291 Z"/>
</g>
</svg>
