<svg xmlns="http://www.w3.org/2000/svg" viewBox="0 0 4.310 4.713" width="4.310" height="4.713">
<g fill="black" stroke="none">
<path d="M 2.528 0.736 C 2.451 0.815 2.324 0.815 2.246 0.738 C 2.168 0.661 2.167 0.535 2.244 0.456 C 2.479 0.219 2.829 0.193 3.054 0.354 C 3.279 0.516 3.422 0.789 3.505 1.094 C 3.604 1.453 3.635 1.864 3.561 2.297 C 3.479 2.779 3.253 3.255 2.978 3.648 C 2.577 4.219 1.979 4.491 1.438 4.522 C 0.983 4.549 0.584 4.327 0.345 3.989 C 0.104 3.648 0.000 3.193 0.044 2.725 C 0.117 1.950 0.678 1.170 1.369 0.598 C 1.709 0.317 2.068 0.099 2.424 0.040 C 2.668 0.000 2.917 0.090 3.095 0.267 C 3.357 0.527 3.481 0.946 3.586 1.411 L 3.836 2.867 L 4.027 4.015 L 4.076 4.312 L 4.099 4.418 L 4.091 4.402 L 4.070 4.378 L 4.026 4.347 L 3.960 4.329 L 3.896 4.335 L 3.829 4.371 L 3.813 4.389 L 3.897 4.160 C 3.930 4.055 4.042 3.997 4.147 4.030 C 4.252 4.063 4.310 4.175 4.277 4.280 L 4.159 4.586 L 4.080 4.681 L 3.868 4.713 C 3.746 4.666 3.738 4.591 3.723 4.548 L 3.634 4.081 L 3.443 2.930 C 3.291 1.979 3.140 0.873 2.814 0.550 C 2.711 0.448 2.608 0.414 2.488 0.433 C 2.247 0.473 1.930 0.651 1.623 0.905 C 0.992 1.427 0.498 2.153 0.441 2.762 C 0.369 3.524 0.794 4.161 1.414 4.125 C 1.846 4.099 2.324 3.887 2.652 3.419 C 2.898 3.068 3.100 2.635 3.168 2.231 C 3.232 1.856 3.205 1.504 3.121 1.200 C 3.054 0.956 2.933 0.758 2.822 0.679 C 2.726 0.610 2.663 0.600 2.528 0.736 Z"/>
</g>
</svg>
