<svg xmlns="http://www.w3.org/2000/svg" viewBox="0 0 19.501 21.475" width="19.501" height="21.475">
<g fill="black" stroke="none">
<path d="M 11.437 3.235 C 11.084 3.597 10.502 3.597 10.144 3.244 C 9.786 2.891 9.782 2.313 10.135 1.951 C 11.213 0.864 12.818 0.745 13.850 1.483 C 14.882 2.226 15.538 3.478 15.918 4.877 C 16.372 6.524 16.514 8.409 16.175 10.395 C 15.799 12.605 14.762 14.788 13.501 16.591 C 11.662 19.210 8.919 20.457 6.438 20.599 C 4.351 20.723 2.521 19.705 1.425 18.155 C 0.320 16.591 -0.157 14.504 0.045 12.358 C 0.379 8.803 2.952 5.226 6.122 2.602 C 7.681 1.313 9.328 0.314 10.960 0.043 C 12.079 -0.141 13.221 0.272 14.038 1.084 C 15.239 2.277 15.808 4.198 16.290 6.331 L 17.436 13.009 L 18.312 18.274 L 18.537 19.636 L 18.643 20.122 L 18.606 20.049 L 18.510 19.939 L 18.308 19.797 L 18.005 19.714 L 17.712 19.742 L 17.404 19.907 L 17.331 19.989 L 17.716 18.939 C 17.867 18.457 18.381 18.191 18.863 18.343 C 19.344 18.494 19.610 19.008 19.459 19.489 L 18.918 20.893 L 18.555 21.329 L 17.583 21.475 C 17.024 21.260 16.987 20.916 16.918 20.719 L 16.510 18.577 L 15.634 13.298 C 14.937 8.936 14.244 3.863 12.749 2.382 C 12.277 1.914 11.804 1.758 11.254 1.845 C 10.148 2.029 8.695 2.845 7.287 4.010 C 4.393 6.404 2.127 9.734 1.865 12.527 C 1.535 16.022 3.484 18.944 6.328 18.779 C 8.309 18.659 10.502 17.687 12.006 15.541 C 13.134 13.931 14.061 11.945 14.373 10.092 C 14.666 8.372 14.542 6.757 14.157 5.363 C 13.850 4.244 13.295 3.336 12.786 2.974 C 12.345 2.657 12.056 2.611 11.437 3.235 Z"/>
</g>
</svg>
