<svg xmlns="http://www.w3.org/2000/svg" viewBox="0 0 8.907 36.563" width="8.907" height="36.563">
<g fill="black" stroke="none">
<path d="M 7.781 7.735 C 7.730 7.832 7.609 7.869 7.512 7.818 C 7.415 7.766 7.378 7.646 7.429 7.549 C 7.763 6.918 7.508 6.521 6.919 6.328 C 6.275 6.118 5.302 6.189 4.386 6.587 C 3.610 6.924 2.972 7.488 2.502 8.118 C 2.040 8.738 1.747 9.412 1.649 9.978 C 1.575 10.418 1.679 10.830 1.961 11.278 C 2.259 11.752 2.754 12.272 3.414 12.895 C 4.073 13.517 4.862 14.213 5.631 15.031 C 6.410 15.859 7.160 16.802 7.714 17.895 C 8.655 19.757 8.907 21.982 8.557 23.866 C 8.334 25.071 7.828 26.092 7.085 26.759 C 6.614 27.191 6.011 27.459 5.335 27.573 C 4.802 27.654 4.218 27.702 3.622 27.604 C 2.686 27.455 1.804 26.965 1.130 26.439 L 0.340 25.687 C 0.155 25.460 0.000 25.266 0.060 25.017 C 0.086 24.910 0.193 24.844 0.300 24.870 C 0.407 24.896 0.473 25.003 0.447 25.110 C 0.488 25.279 0.898 25.773 1.494 26.216 C 2.113 26.675 2.896 27.085 3.685 27.211 C 4.222 27.299 4.764 27.256 5.273 27.179 C 5.882 27.077 6.407 26.840 6.818 26.464 C 7.481 25.868 7.955 24.930 8.165 23.793 C 8.499 21.997 8.255 19.848 7.359 18.075 C 6.827 17.028 6.103 16.114 5.341 15.304 C 4.587 14.502 3.805 13.812 3.140 13.185 C 1.831 11.948 1.075 10.985 1.256 9.911 C 1.367 9.269 1.686 8.547 2.183 7.880 C 2.688 7.202 3.377 6.591 4.227 6.222 C 5.222 5.790 6.273 5.698 7.043 5.950 C 7.414 6.071 7.729 6.287 7.880 6.603 C 8.033 6.922 7.997 7.328 7.781 7.735 Z"/>
<path d="M 4.730 0.177 C 4.752 0.070 4.857 0.000 4.965 0.022 C 5.072 0.044 5.142 0.149 5.120 0.257 C 5.009 0.800 4.870 1.204 4.779 1.927 L 4.677 3.865 L 4.652 5.467 L 4.643 7.471 L 4.636 10.944 L 4.643 14.927 L 4.781 25.340 L 4.794 27.871 L 4.792 31.348 L 4.830 33.256 C 4.865 34.057 4.932 34.690 5.061 35.176 C 5.182 35.637 5.360 35.965 5.610 36.196 C 5.691 36.271 5.696 36.397 5.621 36.478 C 5.546 36.558 5.420 36.563 5.339 36.488 C 4.697 35.893 4.496 34.836 4.428 33.194 L 4.393 29.996 L 4.396 27.871 L 4.382 25.344 L 4.245 14.929 L 4.237 10.943 L 4.245 7.471 L 4.279 3.855 L 4.384 1.877 C 4.479 1.124 4.624 0.696 4.730 0.177 Z"/>
</g>
</svg>
