<svg xmlns="http://www.w3.org/2000/svg" viewBox="0 0 8.907 36.563" width="8.907" height="36.563">
<g fill="none" stroke="black" stroke-width="0.731" stroke-linecap="round" stroke-linejoin="round">
<path d="M 0.254 25.153 L 0.501 25.431 L 0.557 25.493 L 0.634 25.578 L 0.728 25.678 L 0.833 25.788 L 0.947 25.901 L 1.066 26.014 L 1.191 26.124 L 1.321 26.231 L 1.454 26.333 L 1.591 26.431 L 1.731 26.525 L 1.873 26.615 L 2.018 26.700 L 2.166 26.780 L 2.316 26.856 L 2.469 26.926 L 2.624 26.992 L 2.781 27.054 L 2.940 27.111 L 3.100 27.163 L 3.261 27.211 L 3.424 27.252 L 3.588 27.287 L 3.753 27.315 L 3.919 27.334 L 4.085 27.345 L 4.252 27.348 L 4.419 27.343 L 4.586 27.330 L 4.752 27.311 L 4.919 27.288 L 5.085 27.261 L 5.251 27.229 L 5.415 27.193 L 5.577 27.152 L 5.738 27.104 L 5.895 27.048 L 6.049 26.985 L 6.200 26.915 L 6.347 26.836 L 6.489 26.750 L 6.626 26.656 L 6.758 26.555 L 6.883 26.446 L 7.003 26.330 L 7.117 26.208 L 7.225 26.081 L 7.327 25.948 L 7.422 25.811 L 7.512 25.670 L 7.597 25.525 L 7.676 25.377 L 7.752 25.226 L 7.823 25.073 L 7.890 24.919 L 7.953 24.762 L 8.012 24.605 L 8.066 24.445 L 8.115 24.284 L 8.160 24.121 L 8.201 23.958 L 8.238 23.793 L 8.271 23.628 L 8.301 23.462 L 8.326 23.295 L 8.347 23.128 L 8.362 22.960 L 8.373 22.792 L 8.381 22.623 L 8.385 22.454 L 8.388 22.285 L 8.389 22.116 L 8.388 21.947 L 8.385 21.778 L 8.378 21.609 L 8.368 21.440 L 8.354 21.273 L 8.335 21.105 L 8.311 20.938 L 8.284 20.771 L 8.254 20.605 L 8.222 20.439 L 8.188 20.273 L 8.154 20.107 L 8.118 19.942 L 8.081 19.777 L 8.042 19.613 L 7.999 19.449 L 7.952 19.288 L 7.900 19.127 L 7.844 18.968 L 7.784 18.811 L 7.720 18.655 L 7.653 18.499 L 7.585 18.345 L 7.515 18.190 L 7.444 18.037 L 7.372 17.884 L 7.297 17.732 L 7.221 17.581 L 7.141 17.432 L 7.058 17.285 L 6.972 17.140 L 6.883 16.996 L 6.790 16.855 L 6.694 16.717 L 6.594 16.580 L 6.491 16.447 L 6.385 16.315 L 6.277 16.185 L 6.166 16.057 L 6.054 15.931 L 5.941 15.804 L 5.828 15.679 L 5.714 15.553 L 5.599 15.429 L 5.484 15.305 L 5.368 15.183 L 5.251 15.064 L 5.132 14.949 L 5.015 14.841 L 4.900 14.742 L 4.794 14.656 L 4.704 14.587 L 4.638 14.538 L 4.326 14.337"/>
<path d="M 5.471 36.223 L 5.120 35.734 L 5.067 35.609 L 4.999 35.434 L 4.925 35.220 L 4.853 34.979 L 4.789 34.719 L 4.734 34.449 L 4.689 34.172 L 4.653 33.892 L 4.626 33.609 L 4.606 33.325 L 4.592 33.041 L 4.583 32.755 L 4.577 32.470 L 4.572 32.184 L 4.569 31.899 L 4.567 31.613 L 4.564 31.327 L 4.562 31.041 L 4.560 30.755 L 4.558 30.469 L 4.556 30.183 L 4.553 29.898 L 4.551 29.612 L 4.549 29.326 L 4.547 29.040 L 4.545 28.754 L 4.543 28.468 L 4.540 28.182 L 4.538 27.896 L 4.536 27.611 L 4.534 27.325 L 4.532 27.039 L 4.530 26.753 L 4.528 26.467 L 4.525 26.181 L 4.523 25.895 L 4.521 25.610 L 4.519 25.324 L 4.517 25.038 L 4.515 24.752 L 4.513 24.466 L 4.510 24.180 L 4.508 23.894 L 4.506 23.608 L 4.504 23.323 L 4.502 23.037 L 4.500 22.751 L 4.497 22.465 L 4.495 22.179 L 4.493 21.893 L 4.491 21.607 L 4.489 21.322 L 4.487 21.036 L 4.485 20.750 L 4.482 20.464 L 4.480 20.178 L 4.478 19.892 L 4.476 19.606 L 4.474 19.320 L 4.472 19.035 L 4.469 18.749 L 4.467 18.463 L 4.465 18.177 L 4.462 17.891 L 4.459 17.605 L 4.455 17.320 L 4.450 17.034 L 4.443 16.748 L 4.434 16.462 L 4.423 16.177 L 4.411 15.891 L 4.397 15.606 L 4.382 15.320 L 4.366 15.035 L 4.351 14.750 L 4.337 14.464 L 4.324 14.179 L 4.314 13.893 L 4.305 13.608 L 4.300 13.322 L 4.296 13.036 L 4.294 12.750 L 4.294 12.465 L 4.295 12.179 L 4.296 11.893 L 4.297 11.607 L 4.299 11.321 L 4.300 11.035 L 4.302 10.749 L 4.304 10.464 L 4.305 10.178 L 4.307 9.892 L 4.308 9.606 L 4.310 9.320 L 4.312 9.034 L 4.313 8.748 L 4.315 8.462 L 4.317 8.177 L 4.319 7.891 L 4.322 7.605 L 4.327 7.319 L 4.333 7.034 L 4.341 6.748 L 4.353 6.463 L 4.367 6.178 L 4.382 5.893 L 4.399 5.608 L 4.414 5.323 L 4.428 5.038 L 4.439 4.752 L 4.448 4.467 L 4.454 4.181 L 4.459 3.896 L 4.464 3.610 L 4.469 3.324 L 4.477 3.039 L 4.489 2.755 L 4.506 2.471 L 4.529 2.189 L 4.558 1.912 L 4.592 1.643 L 4.629 1.389 L 4.665 1.159 L 4.697 0.969 L 4.721 0.830 L 4.835 0.213"/>
<path d="M 7.507 7.593 L 7.562 7.354 L 7.571 7.301 L 7.580 7.228 L 7.587 7.141 L 7.587 7.046 L 7.579 6.946 L 7.561 6.846 L 7.531 6.747 L 7.490 6.652 L 7.439 6.561 L 7.378 6.477 L 7.308 6.400 L 7.229 6.331 L 7.143 6.270 L 7.050 6.215 L 6.953 6.166 L 6.852 6.123 L 6.749 6.085 L 6.644 6.054 L 6.537 6.028 L 6.429 6.009 L 6.319 5.995 L 6.209 5.986 L 6.098 5.980 L 5.986 5.978 L 5.874 5.978 L 5.763 5.980 L 5.651 5.986 L 5.540 5.995 L 5.430 6.009 L 5.320 6.027 L 5.211 6.049 L 5.102 6.074 L 4.995 6.103 L 4.888 6.135 L 4.782 6.171 L 4.677 6.209 L 4.573 6.251 L 4.471 6.296 L 4.370 6.344 L 4.271 6.395 L 4.171 6.447 L 4.073 6.500 L 3.974 6.554 L 3.876 6.609 L 3.778 6.664 L 3.681 6.720 L 3.584 6.776 L 3.488 6.834 L 3.393 6.893 L 3.301 6.955 L 3.210 7.020 L 3.122 7.089 L 3.037 7.160 L 2.953 7.234 L 2.872 7.311 L 2.792 7.389 L 2.714 7.469 L 2.637 7.551 L 2.563 7.635 L 2.491 7.720 L 2.420 7.808 L 2.352 7.896 L 2.285 7.986 L 2.219 8.077 L 2.153 8.168 L 2.089 8.260 L 2.026 8.353 L 1.965 8.447 L 1.906 8.542 L 1.851 8.638 L 1.798 8.736 L 1.749 8.836 L 1.703 8.938 L 1.660 9.041 L 1.619 9.145 L 1.581 9.250 L 1.546 9.356 L 1.514 9.463 L 1.487 9.570 L 1.465 9.678 L 1.448 9.788 L 1.436 9.898 L 1.429 10.008 L 1.427 10.120 L 1.428 10.231 L 1.434 10.342 L 1.444 10.452 L 1.460 10.561 L 1.481 10.669 L 1.509 10.776 L 1.543 10.881 L 1.583 10.984 L 1.629 11.084 L 1.679 11.183 L 1.734 11.280 L 1.792 11.375 L 1.853 11.469 L 1.916 11.561 L 1.982 11.652 L 2.050 11.741 L 2.119 11.829 L 2.191 11.914 L 2.265 11.998 L 2.341 12.081 L 2.418 12.162 L 2.496 12.243 L 2.575 12.324 L 2.653 12.404 L 2.733 12.483 L 2.812 12.563 L 2.892 12.641 L 2.973 12.719 L 3.054 12.796 L 3.137 12.872 L 3.221 12.946 L 3.307 13.018 L 3.394 13.089 L 3.482 13.158 L 3.570 13.226 L 3.657 13.293 L 3.743 13.358 L 3.823 13.419 L 3.897 13.474 L 3.957 13.519 L 4.002 13.553 L 4.199 13.701"/>
</g>
</svg>