<svg xmlns="http://www.w3.org/2000/svg" viewBox="0 0 5.342 7.433" width="5.342" height="7.433">
<g fill="black" stroke="none">
<path d="M 0.395 1.834 C 0.412 1.943 0.337 2.044 0.228 2.061 C 0.119 2.077 0.018 2.002 0.001 1.894 L 0.000 1.658 L 0.008 1.530 L 0.050 1.359 C 0.111 1.267 0.234 1.242 0.326 1.302 C 0.418 1.362 0.444 1.486 0.384 1.578 L 0.405 1.528 L 0.409 1.511 L 0.517 2.151 L 0.982 5.234 L 1.219 6.738 L 1.302 7.146 L 1.275 7.109 L 1.212 7.065 L 1.119 7.050 L 1.049 7.070 L 0.994 7.115 L 0.981 7.133 L 1.019 6.992 L 1.172 6.086 C 1.308 5.346 1.616 4.678 1.826 3.778 C 1.851 3.671 1.959 3.604 2.066 3.629 C 2.173 3.654 2.239 3.761 2.214 3.868 C 1.996 4.806 1.689 5.477 1.564 6.158 L 1.409 7.073 L 1.347 7.293 L 1.256 7.410 L 1.061 7.433 L 0.950 7.333 L 0.827 6.808 L 0.589 5.294 L 0.122 2.198 L 0.043 1.743 L 0.014 1.573 L 0.050 1.359 L 0.384 1.578 L 0.406 1.528 L 0.397 1.694 L 0.395 1.834 Z"/>
<path d="M 2.385 3.404 C 2.370 3.513 2.269 3.589 2.160 3.573 C 2.051 3.558 1.975 3.457 1.991 3.348 L 2.134 2.749 L 2.290 2.570 C 2.382 2.523 2.506 2.551 2.569 2.598 C 2.709 2.703 2.762 2.854 2.840 3.050 L 3.071 3.773 L 3.532 5.385 L 3.703 6.015 L 3.781 6.335 L 3.794 6.387 L 3.786 6.371 L 3.764 6.343 L 3.726 6.312 L 3.617 6.285 L 3.523 6.316 L 3.487 6.348 L 3.473 6.373 L 3.519 5.875 L 3.743 4.292 L 3.916 3.122 L 4.265 1.104 L 4.470 0.457 L 4.627 0.243 C 4.701 0.182 4.827 0.147 4.932 0.182 C 5.036 0.218 5.092 0.331 5.056 0.435 C 5.021 0.539 4.907 0.595 4.803 0.559 L 4.854 0.562 L 4.880 0.551 L 4.611 1.386 L 4.310 3.183 L 4.138 4.345 L 3.914 5.923 L 3.885 6.290 C 3.876 6.404 3.924 6.528 3.743 6.648 L 3.491 6.632 C 3.350 6.512 3.401 6.465 3.386 6.393 L 3.320 6.126 L 3.147 5.487 L 2.685 3.873 C 2.553 3.364 2.337 2.923 2.330 2.917 L 2.384 2.939 L 2.463 2.929 L 2.500 2.905 L 2.463 3.008 L 2.385 3.404 Z"/>
<path d="M 5.342 0.199 C 5.342 0.309 5.253 0.398 5.143 0.398 C 5.033 0.398 4.943 0.309 4.943 0.199 C 4.943 0.089 5.033 0.000 5.143 0.000 C 5.253 0.000 5.342 0.089 5.342 0.199 Z"/>
</g>
</svg>
