<svg xmlns="http://www.w3.org/2000/svg" viewBox="0 0 22.476 31.274" width="22.476" height="31.274">
<g fill="black" stroke="none">
<path d="M 1.662 7.716 C 1.733 8.175 1.418 8.600 0.959 8.672 C 0.501 8.739 0.076 8.423 0.004 7.969 L 0.000 6.976 L 0.034 6.437 L 0.210 5.718 C 0.467 5.331 0.985 5.226 1.372 5.478 C 1.759 5.731 1.868 6.252 1.616 6.639 L 1.704 6.429 L 1.721 6.357 L 2.175 9.050 L 4.132 22.022 L 5.129 28.350 L 5.478 30.066 L 5.365 29.911 L 5.099 29.726 L 4.708 29.663 L 4.414 29.747 L 4.182 29.936 L 4.128 30.012 L 4.287 29.419 L 4.931 25.607 C 5.503 22.493 6.799 19.682 7.683 15.896 C 7.788 15.446 8.242 15.164 8.693 15.269 C 9.143 15.374 9.420 15.824 9.315 16.274 C 8.398 20.221 7.106 23.044 6.580 25.910 L 5.928 29.759 L 5.667 30.685 L 5.285 31.177 L 4.464 31.274 L 3.997 30.853 L 3.480 28.644 L 2.478 22.274 L 0.513 9.248 L 0.181 7.334 L 0.059 6.618 L 0.210 5.718 L 1.616 6.639 L 1.708 6.429 L 1.670 7.127 L 1.662 7.716 Z"/>
<path d="M 10.035 14.322 C 9.972 14.781 9.547 15.101 9.088 15.033 C 8.629 14.970 8.310 14.545 8.377 14.087 L 8.979 11.566 L 9.635 10.813 C 10.022 10.615 10.544 10.733 10.809 10.931 C 11.398 11.373 11.621 12.008 11.949 12.833 L 12.921 15.875 L 14.861 22.657 L 15.580 25.308 L 15.908 26.654 L 15.963 26.873 L 15.929 26.806 L 15.837 26.688 L 15.677 26.557 L 15.218 26.444 L 14.823 26.574 L 14.671 26.709 L 14.612 26.814 L 14.806 24.719 L 15.749 18.058 L 16.476 13.136 L 17.945 4.645 L 18.807 1.923 L 19.468 1.022 C 19.779 0.766 20.309 0.618 20.751 0.766 C 21.189 0.917 21.424 1.393 21.273 1.830 C 21.126 2.268 20.646 2.503 20.208 2.352 L 20.423 2.365 L 20.532 2.318 L 19.401 5.832 L 18.134 13.392 L 17.410 18.281 L 16.468 24.921 L 16.346 26.465 C 16.308 26.945 16.510 27.466 15.749 27.971 L 14.688 27.904 C 14.095 27.399 14.310 27.201 14.246 26.898 L 13.969 25.775 L 13.241 23.086 L 11.297 16.295 C 10.742 14.154 9.833 12.298 9.803 12.273 L 10.031 12.366 L 10.363 12.324 L 10.519 12.223 L 10.363 12.656 L 10.035 14.322 Z"/>
<path d="M 22.476 0.837 C 22.476 1.300 22.102 1.675 21.639 1.675 C 21.176 1.675 20.797 1.300 20.797 0.837 C 20.797 0.374 21.176 0.000 21.639 0.000 C 22.102 0.000 22.476 0.374 22.476 0.837 Z"/>
</g>
</svg>
