<svg xmlns="http://www.w3.org/2000/svg" viewBox="0 0 8.968 12.478" width="8.968" height="12.478">
<g fill="black" stroke="none">
<path d="M 0.663 3.079 C 0.692 3.262 0.566 3.431 0.383 3.460 C 0.200 3.487 0.030 3.361 0.002 3.179 L 0.000 2.783 L 0.013 2.568 L 0.084 2.281 C 0.186 2.127 0.393 2.085 0.547 2.186 C 0.702 2.286 0.745 2.495 0.645 2.649 L 0.680 2.565 L 0.687 2.537 L 0.868 3.611 L 1.648 8.786 L 2.046 11.311 L 2.186 11.996 L 2.140 11.934 L 2.035 11.860 L 1.878 11.835 L 1.761 11.868 L 1.669 11.944 L 1.647 11.974 L 1.711 11.737 L 1.967 10.217 C 2.196 8.974 2.713 7.853 3.065 6.342 C 3.107 6.162 3.289 6.050 3.468 6.092 C 3.648 6.134 3.759 6.314 3.717 6.493 C 3.351 8.068 2.835 9.194 2.625 10.337 L 2.365 11.873 L 2.261 12.243 L 2.108 12.439 L 1.781 12.478 L 1.595 12.310 L 1.388 11.429 L 0.989 8.887 L 0.205 3.690 L 0.072 2.926 L 0.024 2.641 L 0.084 2.281 L 0.645 2.649 L 0.682 2.565 L 0.666 2.844 L 0.663 3.079 Z"/>
<path d="M 4.004 5.714 C 3.979 5.897 3.809 6.025 3.626 5.998 C 3.443 5.973 3.315 5.803 3.342 5.620 L 3.582 4.615 L 3.844 4.314 C 3.999 4.235 4.207 4.282 4.313 4.361 C 4.548 4.538 4.637 4.791 4.767 5.120 L 5.155 6.334 L 5.929 9.040 L 6.216 10.097 L 6.347 10.635 L 6.369 10.722 L 6.356 10.695 L 6.319 10.648 L 6.255 10.596 L 6.072 10.551 L 5.914 10.603 L 5.854 10.656 L 5.830 10.698 L 5.907 9.862 L 6.283 7.205 L 6.574 5.241 L 7.160 1.853 L 7.504 0.767 L 7.767 0.408 C 7.892 0.306 8.103 0.247 8.279 0.306 C 8.454 0.366 8.548 0.556 8.487 0.730 C 8.429 0.905 8.237 0.999 8.063 0.938 L 8.148 0.943 L 8.192 0.925 L 7.740 2.327 L 7.235 5.343 L 6.946 7.294 L 6.570 9.943 L 6.522 10.559 C 6.507 10.750 6.587 10.959 6.283 11.160 L 5.860 11.133 C 5.624 10.932 5.709 10.853 5.684 10.732 L 5.573 10.284 L 5.283 9.211 L 4.507 6.502 C 4.286 5.647 3.923 4.907 3.911 4.897 L 4.002 4.934 L 4.135 4.917 L 4.197 4.877 L 4.135 5.050 L 4.004 5.714 Z"/>
<path d="M 8.968 0.334 C 8.968 0.519 8.818 0.668 8.634 0.668 C 8.449 0.668 8.298 0.519 8.298 0.334 C 8.298 0.149 8.449 0.000 8.634 0.000 C 8.818 0.000 8.968 0.149 8.968 0.334 Z"/>
</g>
</svg>
