<svg xmlns="http://www.w3.org/2000/svg" viewBox="0 0 12.832 30.280" width="12.832" height="30.280">
<g fill="black" stroke="none">
<path d="M 1.633 2.813 C 1.608 2.466 1.869 2.167 2.216 2.142 C 2.563 2.120 2.862 2.381 2.884 2.725 L 2.717 4.868 L 2.503 6.775 L 2.181 13.127 L 2.181 17.811 L 2.181 24.682 L 2.225 28.461 L 2.263 29.549 L 2.244 29.473 L 2.213 29.388 L 2.058 29.180 C 2.181 29.287 1.163 29.180 1.390 29.079 C 1.589 28.991 1.062 29.407 1.097 29.344 L 1.046 29.460 L 1.024 29.568 L 1.028 29.126 L 0.987 26.876 L 0.867 23.301 C 0.854 22.955 1.122 22.662 1.469 22.649 C 1.816 22.633 2.109 22.904 2.121 23.251 L 2.244 26.844 L 2.285 29.120 L 2.279 29.602 L 2.269 29.732 L 2.197 29.949 C 2.143 30.047 1.920 30.349 1.519 30.267 L 1.078 29.927 L 1.005 29.609 L 0.971 28.483 L 0.927 24.688 L 0.927 17.820 L 0.927 13.092 L 1.251 6.662 L 1.478 4.673 L 1.633 2.813 Z"/>
<path d="M 0.719 4.377 C 0.791 4.036 1.122 3.819 1.463 3.891 C 1.803 3.961 2.020 4.295 1.948 4.632 L 1.932 4.367 L 1.875 4.269 L 2.210 4.912 L 2.147 4.818 L 1.976 4.673 L 1.771 4.607 L 1.526 4.632 L 1.428 4.676 L 1.444 4.629 L 1.998 3.242 C 2.383 2.265 2.887 1.300 3.723 0.692 C 4.952 -0.210 6.834 -0.235 8.501 0.641 L 10.184 2.019 C 10.528 2.391 10.988 2.794 11.269 3.440 C 11.581 4.169 11.625 5.004 11.536 5.864 C 11.401 7.144 10.818 8.493 10.039 9.798 C 9.226 11.166 7.937 12.187 6.837 13.187 L 3.288 16.414 L 1.705 17.278 L 1.255 17.839 L 1.321 17.905 L 1.803 18.372 L 5.620 21.870 L 7.562 23.074 C 8.662 23.777 9.500 24.739 10.244 25.413 L 11.483 26.639 L 11.842 26.961 L 11.889 26.992 L 11.757 26.980 C 12.252 26.929 12.347 27.207 12.403 27.276 L 12.447 27.333 L 12.337 27.238 L 11.656 28.294 L 11.341 27.777 C 11.250 27.096 11.562 26.485 11.577 26.264 L 12.829 26.349 L 12.832 26.438 L 12.832 26.816 C 12.819 27.163 12.532 27.434 12.186 27.424 C 11.839 27.415 11.565 27.125 11.574 26.778 L 11.577 26.264 C 11.599 25.918 11.899 25.656 12.246 25.681 C 12.592 25.703 12.854 26.003 12.829 26.349 L 12.649 27.282 L 12.589 27.617 L 12.548 27.484 L 12.479 27.367 L 12.337 27.238 C 12.630 27.427 12.712 27.818 12.526 28.108 C 12.337 28.398 11.946 28.483 11.656 28.294 L 11.426 28.064 L 11.473 28.111 L 11.603 28.187 L 11.883 28.228 C 11.224 28.294 10.941 27.872 10.597 27.535 L 9.403 26.343 L 6.887 24.130 L 4.829 22.844 L 0.980 19.320 C 0.507 18.911 -0.025 18.517 0.000 17.792 C 0.022 17.186 0.416 16.572 1.078 16.187 L 2.522 15.418 L 5.992 12.257 C 7.117 11.235 8.299 10.265 8.961 9.155 C 9.680 7.948 10.181 6.731 10.285 5.735 L 10.112 3.935 L 9.258 2.867 L 7.915 1.754 C 6.607 1.064 5.217 1.155 4.466 1.704 C 3.946 2.082 3.508 2.835 3.165 3.705 L 2.767 4.767 C 2.622 5.120 2.509 5.483 2.093 5.741 C 1.945 5.833 1.494 5.912 1.242 5.682 L 0.990 5.224 L 0.908 5.067 L 0.719 4.377 Z"/>
<path d="M 11.574 26.797 C 11.577 26.450 11.858 26.170 12.205 26.170 C 12.551 26.173 12.832 26.453 12.832 26.800 L 12.832 27.018 C 12.829 27.364 12.545 27.642 12.198 27.639 C 11.852 27.635 11.571 27.355 11.574 27.005 L 11.574 26.797 Z"/>
</g>
</svg>
