<svg xmlns="http://www.w3.org/2000/svg" viewBox="0 0 17.365 30.514" width="17.365" height="30.514">
<g fill="black" stroke="none">
<path d="M 4.408 2.274 C 4.284 2.749 3.795 3.024 3.325 2.900 C 2.854 2.771 2.575 2.283 2.703 1.812 L 2.899 1.431 C 3.018 1.289 3.422 1.013 3.862 1.160 L 4.386 1.626 L 4.497 2.381 L 4.306 6.464 L 3.813 11.698 L 3.365 16.816 L 2.779 24.375 L 2.086 28.459 L 1.767 29.507 L 1.767 29.431 L 1.744 29.280 L 1.514 28.921 L 1.287 28.792 L 1.172 28.766 L 1.287 28.757 C 1.771 28.699 2.215 29.041 2.273 29.525 C 2.335 30.013 1.993 30.452 1.505 30.514 L 0.550 30.395 L 0.000 29.489 L 0.368 28.033 L 1.017 24.198 L 1.602 16.669 L 2.055 11.529 L 2.539 6.340 L 2.717 2.975 L 2.721 2.203 L 2.774 2.354 L 2.885 2.545 L 3.205 2.798 L 3.738 2.869 L 4.093 2.718 L 4.319 2.478 L 4.395 2.327 L 4.408 2.274 Z"/>
<path d="M 7.417 4.942 C 7.284 5.408 6.796 5.683 6.325 5.550 C 5.855 5.412 5.584 4.924 5.717 4.454 C 5.997 3.490 6.450 2.785 6.969 2.323 C 8.239 1.200 9.557 0.370 11.017 0.139 L 12.784 0.130 L 13.517 0.041 C 13.876 -0.016 14.422 -0.070 14.933 0.285 C 15.687 0.814 15.803 1.630 15.887 2.345 C 16.020 3.450 15.607 4.578 15.101 5.723 C 14.413 7.281 13.237 8.693 12.154 10.055 L 10.258 12.452 L 7.480 15.311 L 6.974 16.252 L 7.036 16.394 L 7.737 16.993 L 9.060 17.788 C 11.155 19.093 13.565 21.206 15.345 23.013 L 17.174 25.192 L 17.365 25.840 L 16.846 26.728 L 15.896 26.764 L 15.225 26.466 C 14.795 26.235 14.635 25.698 14.866 25.268 C 15.097 24.837 15.634 24.677 16.064 24.908 L 16.420 25.077 L 16.295 25.081 L 16.127 25.117 L 15.905 25.237 L 15.714 25.450 L 15.594 25.858 L 15.621 26.027 C 15.461 25.490 11.177 21.193 8.128 19.293 L 6.743 18.458 L 5.611 17.442 C 5.296 17.016 5.105 16.390 5.265 15.795 L 6.095 14.210 L 8.904 11.316 L 10.769 8.950 C 11.852 7.592 12.931 6.251 13.481 5.008 L 14.134 2.558 L 13.916 1.737 L 13.991 1.768 L 12.651 1.892 L 11.293 1.883 C 10.307 2.039 9.268 2.651 8.145 3.646 L 7.417 4.942 Z"/>
</g>
</svg>
