<svg xmlns="http://www.w3.org/2000/svg" viewBox="0 0 3.912 6.890" width="3.912" height="6.890">
<g fill="black" stroke="none">
<path d="M 0.993 0.528 C 0.965 0.635 0.855 0.697 0.749 0.669 C 0.643 0.640 0.580 0.530 0.609 0.424 L 0.653 0.338 C 0.680 0.306 0.771 0.244 0.870 0.277 L 0.988 0.382 L 1.013 0.552 L 0.970 1.472 L 0.859 2.651 L 0.758 3.804 L 0.626 5.507 L 0.470 6.427 L 0.398 6.663 L 0.398 6.646 L 0.393 6.612 L 0.341 6.531 L 0.290 6.502 L 0.264 6.496 L 0.290 6.494 C 0.399 6.481 0.499 6.558 0.512 6.667 C 0.526 6.777 0.449 6.876 0.339 6.890 L 0.124 6.863 L 0.000 6.659 L 0.083 6.331 L 0.229 5.467 L 0.361 3.771 L 0.463 2.613 L 0.572 1.444 L 0.612 0.686 L 0.613 0.512 L 0.625 0.546 L 0.650 0.589 L 0.722 0.646 L 0.842 0.662 L 0.922 0.628 L 0.973 0.574 L 0.990 0.540 L 0.993 0.528 Z"/>
<path d="M 1.671 1.129 C 1.641 1.234 1.531 1.296 1.425 1.266 C 1.319 1.235 1.258 1.125 1.288 1.019 C 1.351 0.802 1.453 0.643 1.570 0.539 C 1.856 0.286 2.153 0.099 2.482 0.047 L 2.880 0.045 L 3.045 0.025 C 3.126 0.012 3.249 0.000 3.364 0.080 C 3.534 0.199 3.560 0.383 3.579 0.544 C 3.609 0.793 3.516 1.047 3.402 1.305 C 3.247 1.656 2.982 1.974 2.738 2.281 L 2.311 2.821 L 1.685 3.465 L 1.571 3.677 L 1.585 3.709 L 1.743 3.844 L 2.041 4.023 C 2.513 4.317 3.056 4.793 3.457 5.200 L 3.869 5.691 L 3.912 5.837 L 3.795 6.037 L 3.581 6.045 L 3.430 5.978 C 3.333 5.926 3.297 5.805 3.349 5.708 C 3.401 5.611 3.522 5.575 3.619 5.627 L 3.699 5.665 L 3.671 5.666 L 3.633 5.674 L 3.583 5.701 L 3.540 5.749 L 3.513 5.841 L 3.519 5.879 C 3.483 5.758 2.518 4.790 1.831 4.362 L 1.519 4.174 L 1.264 3.945 C 1.193 3.849 1.150 3.708 1.186 3.574 L 1.373 3.217 L 2.006 2.565 L 2.426 2.032 C 2.670 1.726 2.913 1.424 3.037 1.144 L 3.184 0.592 L 3.135 0.407 L 3.152 0.414 L 2.850 0.442 L 2.544 0.440 C 2.322 0.475 2.088 0.613 1.835 0.837 L 1.671 1.129 Z"/>
</g>
</svg>
