<svg xmlns="http://www.w3.org/2000/svg" viewBox="0 0 15.578 30.583" width="15.578" height="30.583">
<g fill="black" stroke="none">
<path d="M 0.703 4.468 C 0.647 4.657 0.447 4.766 0.256 4.709 C 0.067 4.654 -0.042 4.454 0.015 4.263 L 0.366 3.387 L 0.641 3.130 L 1.123 3.198 C 1.321 3.364 1.353 3.553 1.405 3.776 L 1.610 5.642 L 1.692 11.227 L 1.521 21.447 L 1.463 25.544 L 1.521 27.797 C 1.546 27.994 1.407 28.174 1.210 28.199 C 1.012 28.224 0.834 28.086 0.807 27.889 L 0.744 25.792 L 0.780 22.663 C 0.854 18.330 1.010 12.872 0.973 8.610 L 0.905 5.892 L 0.643 3.737 L 0.741 3.792 L 0.899 3.798 L 0.975 3.760 L 0.903 3.906 L 0.703 4.468 Z"/>
<path d="M 1.447 10.476 C 1.389 10.665 1.189 10.774 0.998 10.716 C 0.809 10.658 0.701 10.458 0.759 10.269 C 1.517 7.744 1.614 5.678 2.577 3.771 C 3.339 2.265 4.675 0.964 6.024 0.323 C 6.941 -0.112 7.969 -0.133 8.788 0.411 C 10.109 1.294 10.711 3.389 11.109 5.280 C 11.484 7.046 11.712 8.792 11.354 10.388 C 10.986 12.066 9.792 13.438 8.406 14.271 C 7.785 14.649 7.104 14.806 6.502 14.936 L 5.046 15.186 L 4.443 15.184 L 4.315 15.170 L 4.422 15.145 L 4.518 15.076 L 4.602 14.945 C 4.558 15.053 4.579 14.660 4.600 14.717 L 4.543 14.613 L 4.486 14.555 L 5.875 15.269 C 6.656 15.764 7.257 16.715 8.017 17.779 C 9.664 20.075 11.391 23.157 12.874 25.794 L 14.694 28.977 L 15.238 29.803 L 15.324 29.903 L 15.274 29.878 L 15.181 29.864 L 14.979 29.935 L 14.887 30.058 C 14.958 29.873 15.168 29.783 15.352 29.857 C 15.536 29.930 15.625 30.140 15.554 30.324 L 15.235 30.577 C 14.957 30.617 14.881 30.474 14.802 30.394 L 13.654 28.628 C 12.023 25.814 9.653 21.294 7.432 18.196 C 6.670 17.128 6.062 16.239 5.491 15.876 L 4.586 15.395 L 4.238 15.229 L 4.117 15.170 L 4.050 15.125 L 3.980 15.056 C 3.942 15.010 3.854 14.885 3.926 14.701 L 4.188 14.469 L 4.568 14.474 L 4.956 14.474 L 6.351 14.233 C 6.934 14.107 7.534 13.961 8.033 13.657 C 9.279 12.909 10.336 11.677 10.653 10.233 C 10.974 8.801 10.774 7.152 10.406 5.430 C 10.021 3.599 9.350 1.651 8.390 1.009 C 7.796 0.614 7.082 0.616 6.333 0.971 C 5.158 1.530 3.901 2.746 3.218 4.095 C 2.335 5.841 2.227 7.873 1.447 10.476 Z"/>
</g>
</svg>
