<svg xmlns="http://www.w3.org/2000/svg" viewBox="0 0 22.577 30.584" width="22.577" height="30.584">
<g fill="black" stroke="none">
<path d="M 3.020 2.347 C 3.200 2.129 3.521 2.096 3.739 2.273 C 3.959 2.452 3.990 2.772 3.813 2.993 C 2.672 4.390 2.195 5.429 1.985 7.308 C 1.354 12.999 1.443 23.145 1.018 30.105 C 1.003 30.387 0.759 30.602 0.477 30.584 C 0.197 30.566 -0.018 30.325 0.000 30.043 L 0.415 18.160 L 0.628 12.075 L 0.969 7.196 C 1.195 5.177 1.805 3.835 3.020 2.347 Z"/>
<path d="M 5.579 3.835 C 5.862 3.813 6.108 4.023 6.128 4.306 C 6.149 4.588 5.939 4.832 5.660 4.855 L 4.410 4.805 C 4.164 4.739 3.836 4.552 3.790 4.188 C 3.723 3.670 4.067 3.452 4.354 3.234 L 5.480 2.565 C 7.460 1.577 10.672 0.613 13.750 0.223 C 15.142 0.046 16.506 -0.138 17.798 0.144 C 19.463 0.506 20.767 1.749 21.572 3.234 C 22.384 4.721 22.737 6.465 22.511 8.032 C 22.350 9.186 21.835 10.340 20.755 11.255 C 18.481 13.181 14.475 13.904 11.100 14.624 L 7.488 15.332 L 6.118 15.879 L 5.987 16.104 C 6.275 16.674 7.424 17.593 8.954 18.588 L 17.203 23.561 L 20.567 25.984 C 21.409 26.741 22.060 27.495 21.986 28.369 C 21.960 28.650 21.711 28.858 21.432 28.833 C 21.150 28.807 20.942 28.561 20.967 28.279 L 20.532 27.404 C 19.904 26.650 18.727 25.769 17.296 24.835 L 9.996 20.443 L 6.893 18.404 C 6.054 17.776 5.397 17.206 5.075 16.563 C 4.828 16.076 5.042 15.450 5.457 15.099 C 5.880 14.740 6.493 14.499 7.275 14.332 L 10.885 13.627 C 14.254 12.904 18.162 12.108 20.093 10.475 C 20.983 9.724 21.365 8.857 21.501 7.886 C 21.886 5.227 20.178 1.706 17.580 1.142 C 16.519 0.911 15.259 1.062 13.877 1.236 C 10.926 1.611 7.762 2.567 5.936 3.480 L 5.047 3.993 L 4.779 4.223 L 4.792 4.185 L 4.800 4.035 L 4.731 3.883 L 4.667 3.821 L 4.849 3.847 L 5.579 3.835 Z"/>
</g>
</svg>
