<svg xmlns="http://www.w3.org/2000/svg" viewBox="0 0 5.120 12.081" width="5.120" height="12.081">
<g fill="black" stroke="none">
<path d="M 0.651 1.122 C 0.641 0.984 0.746 0.865 0.884 0.855 C 1.022 0.846 1.142 0.950 1.151 1.087 L 1.084 1.942 L 0.999 2.703 L 0.870 5.237 L 0.870 7.106 L 0.870 9.848 L 0.888 11.356 L 0.903 11.789 L 0.895 11.759 L 0.883 11.725 L 0.821 11.642 C 0.870 11.685 0.464 11.642 0.555 11.602 C 0.634 11.567 0.424 11.733 0.438 11.708 L 0.418 11.754 L 0.409 11.797 L 0.410 11.621 L 0.394 10.723 L 0.346 9.297 C 0.341 9.158 0.448 9.042 0.586 9.036 C 0.724 9.030 0.841 9.138 0.846 9.277 L 0.895 10.710 L 0.912 11.618 L 0.909 11.811 L 0.905 11.862 L 0.877 11.949 C 0.855 11.988 0.766 12.109 0.606 12.076 L 0.430 11.940 L 0.401 11.813 L 0.387 11.364 L 0.370 9.850 L 0.370 7.110 L 0.370 5.223 L 0.499 2.658 L 0.590 1.864 L 0.651 1.122 Z"/>
<path d="M 0.287 1.746 C 0.316 1.610 0.448 1.524 0.584 1.553 C 0.719 1.580 0.806 1.713 0.777 1.848 L 0.771 1.742 L 0.748 1.703 L 0.882 1.960 L 0.856 1.922 L 0.789 1.864 L 0.707 1.838 L 0.609 1.848 L 0.570 1.866 L 0.576 1.847 L 0.797 1.293 C 0.951 0.904 1.152 0.519 1.485 0.276 C 1.976 -0.084 2.726 -0.094 3.392 0.256 L 4.063 0.805 C 4.200 0.954 4.384 1.115 4.496 1.373 C 4.620 1.663 4.638 1.996 4.603 2.340 C 4.549 2.850 4.316 3.389 4.005 3.909 C 3.681 4.455 3.167 4.863 2.728 5.261 L 1.312 6.549 L 0.680 6.894 L 0.501 7.117 L 0.527 7.144 L 0.719 7.330 L 2.242 8.726 L 3.017 9.206 C 3.456 9.487 3.790 9.870 4.087 10.139 L 4.581 10.629 L 4.725 10.757 L 4.744 10.769 L 4.691 10.764 C 4.888 10.744 4.926 10.855 4.949 10.883 L 4.966 10.905 L 4.922 10.868 L 4.651 11.289 L 4.525 11.083 C 4.488 10.811 4.613 10.567 4.619 10.479 L 5.118 10.513 L 5.120 10.548 L 5.120 10.699 C 5.115 10.837 5.000 10.946 4.862 10.942 C 4.724 10.938 4.614 10.822 4.618 10.684 L 4.619 10.479 C 4.628 10.341 4.747 10.236 4.886 10.246 C 5.024 10.255 5.128 10.375 5.118 10.513 L 5.047 10.885 L 5.023 11.018 L 5.007 10.966 L 4.979 10.919 L 4.922 10.868 C 5.039 10.943 5.072 11.099 4.998 11.215 C 4.922 11.330 4.766 11.364 4.651 11.289 L 4.559 11.197 L 4.578 11.216 L 4.629 11.246 L 4.741 11.262 C 4.478 11.289 4.365 11.120 4.228 10.986 L 3.751 10.510 L 2.748 9.628 L 1.927 9.114 L 0.391 7.708 C 0.202 7.545 -0.010 7.388 0.000 7.099 C 0.009 6.857 0.166 6.612 0.430 6.458 L 1.006 6.152 L 2.391 4.890 C 2.840 4.483 3.311 4.095 3.575 3.653 C 3.862 3.171 4.062 2.686 4.104 2.288 L 4.034 1.570 L 3.694 1.144 L 3.158 0.700 C 2.636 0.424 2.081 0.461 1.782 0.680 C 1.575 0.831 1.400 1.131 1.263 1.478 L 1.104 1.902 C 1.046 2.043 1.001 2.188 0.835 2.291 C 0.776 2.327 0.596 2.359 0.495 2.267 L 0.395 2.084 L 0.362 2.022 L 0.287 1.746 Z"/>
<path d="M 4.618 10.691 C 4.619 10.553 4.731 10.441 4.869 10.441 C 5.008 10.442 5.120 10.554 5.120 10.693 L 5.120 10.780 C 5.118 10.918 5.005 11.029 4.867 11.027 C 4.729 11.026 4.617 10.914 4.618 10.774 L 4.618 10.691 Z"/>
</g>
</svg>
