<svg xmlns="http://www.w3.org/2000/svg" viewBox="0 0 6.928 12.175" width="6.928" height="12.175">
<g fill="black" stroke="none">
<path d="M 1.759 0.907 C 1.709 1.097 1.514 1.207 1.327 1.157 C 1.139 1.106 1.027 0.911 1.079 0.723 L 1.156 0.571 C 1.204 0.514 1.365 0.404 1.541 0.463 L 1.750 0.649 L 1.794 0.950 L 1.718 2.579 L 1.521 4.667 L 1.342 6.709 L 1.109 9.725 L 0.832 11.355 L 0.705 11.773 L 0.705 11.743 L 0.696 11.682 L 0.604 11.539 L 0.514 11.488 L 0.468 11.477 L 0.514 11.473 C 0.707 11.450 0.884 11.587 0.907 11.780 C 0.932 11.975 0.795 12.150 0.600 12.175 L 0.220 12.127 L 0.000 11.766 L 0.147 11.185 L 0.406 9.654 L 0.639 6.651 L 0.820 4.600 L 1.013 2.530 L 1.084 1.187 L 1.086 0.879 L 1.107 0.939 L 1.151 1.015 L 1.279 1.116 L 1.491 1.145 L 1.633 1.084 L 1.723 0.989 L 1.753 0.929 L 1.759 0.907 Z"/>
<path d="M 2.959 1.972 C 2.906 2.158 2.711 2.267 2.524 2.214 C 2.336 2.159 2.228 1.965 2.281 1.777 C 2.393 1.393 2.573 1.111 2.781 0.927 C 3.287 0.479 3.813 0.148 4.396 0.055 L 5.101 0.052 L 5.393 0.016 C 5.536 -0.007 5.754 -0.028 5.958 0.114 C 6.259 0.325 6.305 0.650 6.339 0.936 C 6.392 1.377 6.227 1.826 6.025 2.283 C 5.751 2.905 5.281 3.468 4.849 4.012 L 4.093 4.968 L 2.984 6.109 L 2.782 6.484 L 2.807 6.541 L 3.087 6.780 L 3.615 7.097 C 4.451 7.618 5.412 8.461 6.123 9.182 L 6.852 10.051 L 6.928 10.310 L 6.721 10.664 L 6.342 10.678 L 6.075 10.559 C 5.903 10.467 5.839 10.253 5.931 10.081 C 6.023 9.910 6.238 9.846 6.409 9.938 L 6.551 10.005 L 6.502 10.007 L 6.434 10.021 L 6.346 10.069 L 6.270 10.154 L 6.222 10.317 L 6.232 10.384 C 6.169 10.170 4.459 8.455 3.243 7.697 L 2.690 7.365 L 2.239 6.959 C 2.113 6.789 2.037 6.539 2.100 6.302 L 2.432 5.670 L 3.553 4.515 L 4.297 3.571 C 4.729 3.029 5.159 2.494 5.379 1.998 L 5.639 1.021 L 5.552 0.693 L 5.582 0.705 L 5.047 0.755 L 4.506 0.751 C 4.112 0.813 3.698 1.058 3.250 1.455 L 2.959 1.972 Z"/>
</g>
</svg>
