<svg xmlns="http://www.w3.org/2000/svg" viewBox="0 0 4.086 9.703" width="4.086" height="9.703">
<g fill="black" stroke="none">
<path d="M 0.526 0.967 C 0.518 0.857 0.601 0.762 0.711 0.754 C 0.821 0.747 0.916 0.830 0.923 0.939 L 0.870 1.619 L 0.802 2.224 L 0.700 4.239 L 0.700 5.725 L 0.700 7.905 L 0.714 9.104 L 0.726 9.449 L 0.720 9.425 L 0.710 9.398 L 0.661 9.332 C 0.700 9.366 0.377 9.332 0.449 9.300 C 0.512 9.272 0.345 9.404 0.356 9.384 L 0.340 9.421 L 0.333 9.455 L 0.334 9.315 L 0.321 8.601 L 0.283 7.467 C 0.279 7.357 0.364 7.264 0.474 7.260 C 0.584 7.255 0.677 7.341 0.681 7.451 L 0.720 8.591 L 0.733 9.313 L 0.731 9.466 L 0.728 9.507 L 0.705 9.576 C 0.688 9.607 0.617 9.703 0.490 9.677 L 0.350 9.569 L 0.327 9.468 L 0.316 9.111 L 0.302 7.907 L 0.302 5.728 L 0.302 4.228 L 0.405 2.188 L 0.477 1.557 L 0.526 0.967 Z"/>
<path d="M 0.236 1.463 C 0.259 1.355 0.364 1.286 0.472 1.309 C 0.580 1.331 0.649 1.437 0.626 1.544 L 0.621 1.460 L 0.603 1.429 L 0.709 1.633 L 0.689 1.603 L 0.635 1.557 L 0.570 1.536 L 0.492 1.544 L 0.461 1.558 L 0.466 1.543 L 0.642 1.103 C 0.764 0.793 0.924 0.487 1.189 0.294 C 1.579 0.008 2.176 0.000 2.705 0.278 L 3.239 0.715 C 3.348 0.833 3.494 0.961 3.583 1.166 C 3.682 1.397 3.696 1.662 3.668 1.935 C 3.625 2.341 3.440 2.769 3.193 3.183 C 2.935 3.617 2.526 3.941 2.177 4.258 L 1.051 5.282 L 0.549 5.556 L 0.406 5.734 L 0.427 5.755 L 0.580 5.903 L 1.791 7.013 L 2.407 7.395 C 2.756 7.618 3.022 7.923 3.258 8.137 L 3.651 8.526 L 3.765 8.628 L 3.780 8.638 L 3.738 8.634 C 3.895 8.618 3.925 8.706 3.943 8.728 L 3.957 8.746 L 3.922 8.716 L 3.706 9.051 L 3.606 8.887 C 3.577 8.671 3.676 8.477 3.681 8.407 L 4.078 8.434 L 4.079 8.462 L 4.079 8.582 C 4.075 8.692 3.984 8.778 3.874 8.775 C 3.764 8.772 3.677 8.680 3.680 8.570 L 3.681 8.407 C 3.688 8.297 3.783 8.214 3.893 8.222 C 4.003 8.229 4.086 8.324 4.078 8.434 L 4.021 8.730 L 4.002 8.836 L 3.989 8.794 L 3.967 8.757 L 3.922 8.716 C 4.015 8.776 4.041 8.900 3.982 8.992 C 3.922 9.084 3.798 9.111 3.706 9.051 L 3.633 8.978 L 3.648 8.993 L 3.689 9.017 L 3.778 9.030 C 3.569 9.051 3.479 8.917 3.370 8.810 L 2.991 8.432 L 2.193 7.730 L 1.540 7.322 L 0.319 6.204 C 0.169 6.074 0.000 5.949 0.008 5.719 C 0.015 5.527 0.140 5.332 0.350 5.210 L 0.808 4.966 L 1.909 3.963 C 2.266 3.639 2.641 3.331 2.851 2.979 C 3.079 2.596 3.238 2.210 3.271 1.894 L 3.216 1.323 L 2.945 0.984 L 2.519 0.631 C 2.104 0.412 1.663 0.441 1.425 0.615 C 1.260 0.735 1.121 0.974 1.012 1.250 L 0.886 1.587 C 0.840 1.699 0.804 1.814 0.672 1.896 C 0.625 1.925 0.482 1.950 0.402 1.877 L 0.322 1.732 L 0.296 1.682 L 0.236 1.463 Z"/>
<path d="M 3.680 8.576 C 3.681 8.466 3.770 8.377 3.880 8.377 C 3.990 8.378 4.079 8.467 4.079 8.577 L 4.079 8.646 C 4.078 8.756 3.988 8.844 3.878 8.843 C 3.768 8.842 3.679 8.753 3.680 8.642 L 3.680 8.576 Z"/>
</g>
</svg>
