<svg xmlns="http://www.w3.org/2000/svg" viewBox="0 0 5.048 11.073" width="5.048" height="11.073">
<g fill="black" stroke="none">
<path d="M 2.882 0.001 C 2.990 -0.011 3.086 0.067 3.098 0.176 C 3.110 0.283 3.031 0.380 2.924 0.392 L 2.985 0.365 L 2.998 0.351 L 2.930 1.351 L 2.897 3.853 L 2.897 6.476 L 2.888 9.564 L 2.871 10.474 L 2.843 10.915 C 2.821 11.022 2.718 11.091 2.611 11.069 C 2.505 11.048 2.436 10.945 2.457 10.838 L 2.495 9.561 L 2.505 6.477 L 2.505 3.852 L 2.536 1.346 L 2.575 0.451 L 2.642 0.186 C 2.680 0.105 2.769 0.013 2.882 0.001 Z"/>
<path d="M 0.133 5.121 C 0.031 5.086 -0.025 4.975 0.010 4.872 C 0.045 4.768 0.157 4.714 0.259 4.749 C 0.642 4.878 1.157 4.810 1.866 4.691 L 3.146 4.495 L 4.846 4.368 C 4.955 4.365 5.045 4.451 5.048 4.559 C 5.049 4.668 4.964 4.758 4.855 4.761 L 3.196 4.885 C 1.806 5.059 0.892 5.378 0.133 5.121 Z"/>
</g>
</svg>
