<svg xmlns="http://www.w3.org/2000/svg" viewBox="0 0 5.146 11.259" width="5.146" height="11.259">
<g fill="black" stroke="none">
<path d="M 2.948 0.012 C 3.057 0.000 3.155 0.079 3.167 0.189 C 3.179 0.298 3.099 0.396 2.990 0.408 L 3.052 0.381 L 3.065 0.367 L 2.996 1.381 L 2.963 3.919 L 2.963 6.579 L 2.954 9.711 L 2.937 10.633 L 2.908 11.081 C 2.886 11.189 2.781 11.259 2.673 11.237 C 2.565 11.216 2.495 11.111 2.517 11.003 L 2.555 9.707 L 2.565 6.580 L 2.565 3.917 L 2.597 1.376 L 2.636 0.468 L 2.704 0.199 C 2.743 0.117 2.833 0.024 2.948 0.012 Z"/>
<path d="M 0.160 5.204 C 0.056 5.169 0.000 5.056 0.035 4.952 C 0.071 4.847 0.184 4.792 0.288 4.827 C 0.676 4.958 1.198 4.889 1.917 4.768 L 3.216 4.570 L 4.940 4.441 C 5.050 4.438 5.141 4.525 5.144 4.635 C 5.146 4.745 5.059 4.836 4.949 4.839 L 3.266 4.965 C 1.857 5.142 0.930 5.465 0.160 5.204 Z"/>
</g>
</svg>
