<svg xmlns="http://www.w3.org/2000/svg" viewBox="0 0 17.560 27.786" width="17.560" height="27.786">
<g fill="black" stroke="none">
<path d="M 0.800 11.676 C 0.935 11.604 1.104 11.654 1.176 11.789 C 1.249 11.925 1.199 12.093 1.063 12.166 L 0.651 12.420 L 0.543 12.519 L 0.546 12.399 L 0.504 12.335 L 0.642 12.367 C 1.052 12.436 1.846 12.413 2.737 12.362 L 5.451 12.173 C 7.848 11.907 11.136 11.215 13.791 10.537 L 16.703 9.677 L 17.011 9.540 L 17.057 9.511 L 17.014 9.592 L 17.022 9.744 L 17.085 9.836 L 17.125 9.862 L 17.073 9.857 L 16.839 9.850 C 16.686 9.853 16.560 9.730 16.559 9.577 C 16.556 9.423 16.679 9.296 16.832 9.295 L 17.245 9.323 L 17.419 9.394 L 17.560 9.678 C 17.545 9.893 17.422 9.938 17.340 9.991 C 17.021 10.194 16.425 10.381 15.600 10.622 C 12.864 11.423 8.566 12.386 5.513 12.725 L 2.767 12.917 C 1.866 12.969 1.069 13.003 0.550 12.915 L 0.167 12.775 C 0.076 12.707 -0.010 12.566 0.001 12.425 C 0.034 12.039 0.365 11.912 0.800 11.676 Z"/>
<path d="M 7.525 1.545 C 7.484 1.693 7.332 1.781 7.183 1.742 C 7.035 1.701 6.948 1.549 6.988 1.400 L 7.224 0.218 C 7.228 0.195 7.158 0.169 7.334 0.038 L 7.600 0.000 C 7.760 0.061 7.755 0.142 7.766 0.170 L 7.791 0.439 L 7.791 1.233 L 7.773 2.627 L 7.773 7.175 L 7.773 14.994 L 7.726 19.407 L 7.664 22.774 L 7.684 25.874 C 7.738 26.567 7.855 27.027 8.066 27.360 C 8.148 27.490 8.109 27.662 7.979 27.744 C 7.850 27.825 7.678 27.787 7.596 27.657 C 7.225 27.069 7.116 26.270 7.093 25.071 L 7.109 22.763 L 7.171 19.400 L 7.218 14.991 L 7.218 7.175 L 7.218 2.619 L 7.239 0.767 L 7.233 0.360 L 7.233 0.326 L 7.239 0.347 L 7.257 0.390 L 7.316 0.466 C 7.282 0.435 7.556 0.542 7.482 0.537 C 7.351 0.527 7.749 0.393 7.720 0.431 L 7.752 0.375 L 7.767 0.332 L 7.525 1.545 Z"/>
</g>
</svg>
