<svg xmlns="http://www.w3.org/2000/svg" viewBox="0 0 4.260 8.538" width="4.260" height="8.538">
<g fill="black" stroke="none">
<path d="M 2.254 0.293 C 2.216 0.190 2.269 0.076 2.373 0.038 C 2.476 0.000 2.590 0.053 2.628 0.156 C 2.698 0.348 2.680 0.581 2.659 0.958 L 2.575 2.176 L 2.538 4.023 L 2.538 6.472 L 2.569 7.688 L 2.572 8.201 C 2.567 8.290 2.590 8.364 2.487 8.474 L 2.276 8.538 C 2.074 8.492 2.076 8.382 2.010 8.268 L 1.752 7.784 C 1.701 7.687 1.739 7.567 1.837 7.516 C 1.934 7.465 2.055 7.503 2.105 7.601 L 2.408 8.153 L 2.428 8.180 L 2.416 8.171 L 2.384 8.156 L 2.325 8.145 L 2.253 8.161 L 2.202 8.195 L 2.169 8.243 L 2.172 7.776 L 2.139 6.478 L 2.139 4.018 L 2.177 2.153 L 2.261 0.936 L 2.254 0.293 Z"/>
<path d="M 0.403 5.025 C 0.350 5.122 0.229 5.158 0.132 5.105 C 0.036 5.053 0.000 4.932 0.053 4.835 C 0.295 4.389 0.941 4.215 1.674 4.082 C 2.431 3.944 3.288 3.888 4.054 3.873 C 4.164 3.871 4.255 3.958 4.257 4.068 C 4.260 4.178 4.172 4.269 4.062 4.271 C 2.540 4.301 0.651 4.569 0.403 5.025 Z"/>
</g>
</svg>
