<svg xmlns="http://www.w3.org/2000/svg" viewBox="0 0 9.855 27.759" width="9.855" height="27.759">
<g fill="black" stroke="none">
<path d="M 0.694 9.978 C 0.745 10.146 0.651 10.324 0.482 10.375 C 0.315 10.426 0.138 10.330 0.087 10.163 C -0.041 9.744 -0.034 9.344 0.143 9.030 C 0.449 8.488 1.136 8.317 1.888 8.285 C 4.313 8.182 7.774 9.313 9.596 9.648 C 9.768 9.680 9.881 9.846 9.851 10.018 C 9.819 10.190 9.653 10.305 9.481 10.273 L 6.849 9.671 C 5.266 9.299 3.540 8.926 2.220 8.915 C 1.601 8.910 1.109 8.999 0.860 9.170 C 0.640 9.321 0.557 9.527 0.694 9.978 Z"/>
<path d="M 5.228 0.562 C 5.092 0.450 5.073 0.249 5.185 0.114 C 5.296 -0.020 5.497 -0.039 5.633 0.073 C 5.921 0.312 5.999 0.699 6.042 1.187 L 6.076 3.280 L 6.076 7.447 L 5.596 19.414 L 5.386 24.625 L 5.360 26.413 L 5.413 27.384 C 5.445 27.558 5.332 27.722 5.158 27.754 C 4.986 27.786 4.820 27.671 4.790 27.499 L 4.726 26.420 L 4.810 22.852 C 4.990 18.223 5.359 12.062 5.442 7.436 L 5.442 3.273 L 5.410 1.244 L 5.228 0.562 Z"/>
</g>
</svg>
