<svg xmlns="http://www.w3.org/2000/svg" viewBox="0 0 5.498 11.068" width="5.498" height="11.068">
<g fill="black" stroke="none">
<path d="M 2.894 0.347 C 2.844 0.213 2.913 0.065 3.048 0.016 C 3.182 -0.034 3.330 0.035 3.380 0.169 C 3.471 0.419 3.447 0.722 3.420 1.212 L 3.311 2.796 L 3.263 5.197 L 3.263 8.382 L 3.303 9.963 L 3.307 10.630 C 3.301 10.745 3.330 10.842 3.197 10.985 L 2.922 11.068 C 2.660 11.008 2.662 10.865 2.576 10.717 L 2.241 10.087 C 2.175 9.961 2.224 9.805 2.351 9.739 C 2.478 9.673 2.635 9.722 2.700 9.849 L 3.094 10.567 L 3.120 10.602 L 3.104 10.591 L 3.063 10.571 L 2.986 10.557 L 2.892 10.578 L 2.826 10.622 L 2.783 10.684 L 2.787 10.077 L 2.744 8.389 L 2.744 5.191 L 2.793 2.766 L 2.903 1.183 L 2.894 0.347 Z"/>
<path d="M 0.487 6.500 C 0.418 6.626 0.261 6.673 0.134 6.604 C 0.010 6.536 -0.037 6.379 0.032 6.253 C 0.346 5.673 1.186 5.447 2.139 5.274 C 3.124 5.094 4.238 5.022 5.234 5.002 C 5.377 5.000 5.495 5.113 5.498 5.256 C 5.502 5.399 5.387 5.517 5.244 5.520 C 3.265 5.559 0.809 5.907 0.487 6.500 Z"/>
</g>
</svg>
