<svg xmlns="http://www.w3.org/2000/svg" viewBox="0 0 12.651 27.752" width="12.651" height="27.752">
<g fill="black" stroke="none">
<path d="M 7.224 0.003 C 7.493 -0.027 7.736 0.168 7.765 0.440 C 7.795 0.710 7.597 0.952 7.328 0.981 L 7.481 0.915 L 7.513 0.880 L 7.343 3.386 L 7.261 9.658 L 7.261 16.232 L 7.239 23.972 L 7.197 26.251 L 7.125 27.358 C 7.071 27.625 6.811 27.798 6.544 27.743 C 6.277 27.692 6.104 27.432 6.159 27.165 L 6.253 23.962 L 6.277 16.234 L 6.277 9.653 L 6.357 3.374 L 6.453 1.130 L 6.621 0.465 C 6.717 0.262 6.940 0.032 7.224 0.003 Z"/>
<path d="M 0.334 12.834 C 0.077 12.747 -0.061 12.468 0.025 12.211 C 0.114 11.952 0.393 11.816 0.650 11.902 C 1.609 12.226 2.899 12.055 4.676 11.756 L 7.886 11.267 L 12.147 10.948 C 12.419 10.941 12.644 11.156 12.651 11.428 C 12.656 11.700 12.441 11.924 12.169 11.932 L 8.010 12.243 C 4.528 12.681 2.237 13.479 0.334 12.834 Z"/>
</g>
</svg>
