<svg xmlns="http://www.w3.org/2000/svg" viewBox="0 0 18.385 27.825" width="18.385" height="27.825">
<g fill="none" stroke="black" stroke-width="0.556" stroke-linecap="round" stroke-linejoin="round">
<path d="M 8.604 0.328 L 8.549 0.779 L 8.543 0.880 L 8.536 1.020 L 8.529 1.189 L 8.523 1.375 L 8.519 1.573 L 8.516 1.776 L 8.515 1.982 L 8.514 2.189 L 8.514 2.396 L 8.513 2.604 L 8.513 2.812 L 8.513 3.019 L 8.513 3.227 L 8.513 3.435 L 8.513 3.642 L 8.513 3.850 L 8.513 4.058 L 8.513 4.265 L 8.513 4.473 L 8.513 4.681 L 8.513 4.888 L 8.513 5.096 L 8.513 5.304 L 8.513 5.511 L 8.513 5.719 L 8.513 5.927 L 8.513 6.135 L 8.513 6.342 L 8.513 6.550 L 8.513 6.758 L 8.513 6.965 L 8.513 7.173 L 8.513 7.381 L 8.513 7.588 L 8.513 7.796 L 8.513 8.004 L 8.513 8.211 L 8.513 8.419 L 8.513 8.627 L 8.513 8.834 L 8.513 9.042 L 8.513 9.250 L 8.513 9.457 L 8.513 9.665 L 8.513 9.873 L 8.513 10.080 L 8.513 10.288 L 8.513 10.496 L 8.513 10.703 L 8.513 10.911 L 8.513 11.119 L 8.513 11.326 L 8.513 11.534 L 8.513 11.742 L 8.513 11.950 L 8.513 12.157 L 8.513 12.365 L 8.513 12.573 L 8.513 12.780 L 8.513 12.988 L 8.513 13.196 L 8.513 13.403 L 8.513 13.611 L 8.513 13.819 L 8.513 14.026 L 8.513 14.234 L 8.513 14.442 L 8.513 14.649 L 8.513 14.857 L 8.513 15.065 L 8.513 15.272 L 8.513 15.480 L 8.513 15.688 L 8.512 15.895 L 8.512 16.103 L 8.510 16.311 L 8.508 16.518 L 8.503 16.726 L 8.497 16.933 L 8.489 17.140 L 8.478 17.347 L 8.467 17.554 L 8.455 17.761 L 8.443 17.968 L 8.433 18.176 L 8.425 18.383 L 8.418 18.590 L 8.413 18.798 L 8.409 19.005 L 8.405 19.213 L 8.401 19.421 L 8.398 19.628 L 8.395 19.836 L 8.392 20.044 L 8.388 20.251 L 8.385 20.459 L 8.382 20.667 L 8.379 20.874 L 8.376 21.082 L 8.373 21.290 L 8.369 21.497 L 8.366 21.705 L 8.363 21.913 L 8.360 22.120 L 8.357 22.328 L 8.354 22.535 L 8.350 22.743 L 8.347 22.951 L 8.344 23.158 L 8.340 23.366 L 8.336 23.574 L 8.330 23.781 L 8.324 23.989 L 8.317 24.196 L 8.307 24.404 L 8.297 24.611 L 8.284 24.818 L 8.271 25.025 L 8.257 25.230 L 8.243 25.433 L 8.228 25.630 L 8.215 25.817 L 8.202 25.985 L 8.192 26.126 L 8.185 26.227 L 8.151 26.682"/>
<path d="M 0.362 3.407 L 0.610 3.383 L 0.666 3.378 L 0.743 3.371 L 0.834 3.362 L 0.936 3.352 L 1.044 3.342 L 1.155 3.331 L 1.267 3.321 L 1.379 3.310 L 1.492 3.300 L 1.605 3.289 L 1.718 3.279 L 1.831 3.270 L 1.944 3.263 L 2.057 3.257 L 2.170 3.253 L 2.283 3.253 L 2.396 3.255 L 2.509 3.259 L 2.622 3.266 L 2.735 3.274 L 2.848 3.282 L 2.961 3.290 L 3.074 3.297 L 3.187 3.303 L 3.300 3.308 L 3.414 3.311 L 3.527 3.313 L 3.641 3.314 L 3.754 3.315 L 3.868 3.315 L 3.981 3.316 L 4.094 3.316 L 4.208 3.316 L 4.321 3.316 L 4.435 3.316 L 4.548 3.316 L 4.662 3.316 L 4.775 3.316 L 4.889 3.316 L 5.002 3.316 L 5.116 3.316 L 5.229 3.316 L 5.343 3.316 L 5.456 3.316 L 5.570 3.316 L 5.683 3.316 L 5.797 3.316 L 5.910 3.316 L 6.024 3.316 L 6.137 3.316 L 6.251 3.316 L 6.364 3.316 L 6.478 3.316 L 6.591 3.316 L 6.705 3.316 L 6.818 3.316 L 6.932 3.316 L 7.045 3.316 L 7.159 3.316 L 7.272 3.316 L 7.386 3.316 L 7.499 3.316 L 7.613 3.316 L 7.726 3.316 L 7.840 3.316 L 7.953 3.316 L 8.067 3.316 L 8.180 3.316 L 8.294 3.316 L 8.407 3.316 L 8.521 3.316 L 8.634 3.316 L 8.747 3.316 L 8.861 3.316 L 8.974 3.316 L 9.088 3.316 L 9.201 3.316 L 9.315 3.316 L 9.428 3.316 L 9.542 3.316 L 9.655 3.316 L 9.769 3.316 L 9.882 3.316 L 9.996 3.316 L 10.109 3.316 L 10.223 3.316 L 10.336 3.316 L 10.450 3.316 L 10.563 3.316 L 10.677 3.316 L 10.790 3.316 L 10.904 3.316 L 11.017 3.316 L 11.131 3.316 L 11.244 3.316 L 11.358 3.316 L 11.471 3.316 L 11.585 3.316 L 11.698 3.316 L 11.812 3.316 L 11.925 3.316 L 12.039 3.316 L 12.152 3.316 L 12.266 3.316 L 12.379 3.316 L 12.493 3.316 L 12.606 3.316 L 12.720 3.316 L 12.833 3.316 L 12.947 3.316 L 13.060 3.316 L 13.174 3.316 L 13.287 3.316 L 13.400 3.316 L 13.514 3.316 L 13.627 3.316 L 13.741 3.316 L 13.854 3.316 L 13.967 3.316 L 14.078 3.316 L 14.186 3.316 L 14.288 3.316 L 14.380 3.316 L 14.457 3.316 L 14.513 3.316 L 14.762 3.316"/>
<path d="M 1.630 26.139 L 1.358 26.281 L 1.310 26.327 L 1.249 26.392 L 1.185 26.475 L 1.127 26.571 L 1.085 26.675 L 1.065 26.783 L 1.071 26.889 L 1.105 26.987 L 1.166 27.074 L 1.251 27.146 L 1.357 27.203 L 1.477 27.244 L 1.609 27.273 L 1.747 27.291 L 1.890 27.302 L 2.035 27.308 L 2.182 27.311 L 2.329 27.312 L 2.476 27.312 L 2.623 27.312 L 2.770 27.312 L 2.917 27.310 L 3.065 27.308 L 3.212 27.305 L 3.359 27.301 L 3.506 27.295 L 3.653 27.287 L 3.799 27.277 L 3.946 27.266 L 4.093 27.253 L 4.239 27.240 L 4.386 27.226 L 4.533 27.213 L 4.679 27.199 L 4.826 27.185 L 4.972 27.171 L 5.119 27.156 L 5.266 27.142 L 5.412 27.128 L 5.559 27.114 L 5.705 27.100 L 5.852 27.085 L 5.998 27.070 L 6.145 27.055 L 6.291 27.039 L 6.437 27.022 L 6.584 27.004 L 6.730 26.986 L 6.876 26.967 L 7.022 26.947 L 7.167 26.926 L 7.313 26.904 L 7.458 26.881 L 7.603 26.856 L 7.747 26.829 L 7.891 26.800 L 8.035 26.771 L 8.179 26.743 L 8.323 26.716 L 8.467 26.691 L 8.612 26.669 L 8.758 26.648 L 8.904 26.630 L 9.050 26.613 L 9.196 26.596 L 9.342 26.580 L 9.489 26.564 L 9.635 26.547 L 9.781 26.530 L 9.928 26.513 L 10.074 26.494 L 10.219 26.474 L 10.365 26.453 L 10.510 26.430 L 10.656 26.407 L 10.801 26.382 L 10.946 26.357 L 11.091 26.332 L 11.236 26.306 L 11.381 26.281 L 11.526 26.255 L 11.671 26.230 L 11.816 26.204 L 11.961 26.178 L 12.106 26.153 L 12.251 26.127 L 12.396 26.102 L 12.541 26.076 L 12.686 26.050 L 12.831 26.025 L 12.976 25.999 L 13.121 25.974 L 13.267 25.948 L 13.412 25.922 L 13.557 25.897 L 13.702 25.871 L 13.847 25.845 L 13.992 25.820 L 14.137 25.794 L 14.282 25.769 L 14.427 25.743 L 14.572 25.717 L 14.717 25.692 L 14.862 25.666 L 15.007 25.640 L 15.152 25.614 L 15.296 25.588 L 15.441 25.560 L 15.586 25.532 L 15.730 25.503 L 15.874 25.473 L 16.018 25.442 L 16.161 25.410 L 16.305 25.376 L 16.448 25.342 L 16.591 25.308 L 16.734 25.274 L 16.877 25.239 L 17.019 25.205 L 17.159 25.171 L 17.296 25.138 L 17.425 25.107 L 17.541 25.078 L 17.638 25.055 L 17.708 25.038 L 18.023 24.962"/>
</g>
</svg>