<svg xmlns="http://www.w3.org/2000/svg" viewBox="0 0 13.780 27.740" width="13.780" height="27.740">
<g fill="black" stroke="none">
<path d="M 7.252 0.870 C 7.129 0.535 7.301 0.163 7.640 0.039 C 7.976 -0.084 8.347 0.088 8.471 0.424 C 8.699 1.050 8.641 1.809 8.572 3.038 L 8.299 7.007 L 8.178 13.026 L 8.178 21.007 L 8.279 24.970 L 8.289 26.642 C 8.272 26.932 8.347 27.173 8.012 27.532 L 7.324 27.740 C 6.666 27.590 6.672 27.232 6.457 26.860 L 5.616 25.283 C 5.450 24.967 5.574 24.576 5.893 24.410 C 6.210 24.243 6.604 24.367 6.767 24.687 L 7.754 26.486 L 7.819 26.574 L 7.780 26.544 L 7.676 26.495 L 7.484 26.459 L 7.249 26.512 L 7.083 26.622 L 6.975 26.779 L 6.985 25.257 L 6.878 21.027 L 6.878 13.010 L 7.001 6.932 L 7.275 2.966 L 7.252 0.870 Z"/>
<path d="M 1.220 16.292 C 1.047 16.608 0.653 16.725 0.337 16.552 C 0.024 16.383 -0.093 15.989 0.080 15.672 C 0.868 14.219 2.973 13.652 5.362 13.218 C 7.829 12.769 10.622 12.586 13.118 12.537 C 13.477 12.531 13.774 12.814 13.780 13.173 C 13.790 13.531 13.503 13.828 13.145 13.834 C 8.184 13.932 2.028 14.806 1.220 16.292 Z"/>
</g>
</svg>
