<svg xmlns="http://www.w3.org/2000/svg" viewBox="0 0 14.074 30.585" width="14.074" height="30.585">
<g fill="black" stroke="none">
<path d="M 1.869 0.023 C 2.088 -0.053 2.329 0.061 2.403 0.279 C 2.481 0.498 2.366 0.738 2.148 0.813 L 2.271 0.738 L 2.303 0.698 L 2.066 3.506 L 2.068 9.599 L 2.271 21.590 L 2.325 25.913 L 2.319 27.192 L 2.305 27.566 L 2.290 27.699 L 2.179 27.954 C 2.025 28.128 1.760 28.143 1.587 27.989 C 1.413 27.837 1.396 27.572 1.550 27.399 C 1.628 27.310 1.462 27.566 1.468 27.545 L 1.487 25.764 L 1.451 22.694 L 1.228 9.609 L 1.235 3.171 L 1.361 1.156 L 1.474 0.532 C 1.525 0.359 1.544 0.139 1.869 0.023 Z"/>
<path d="M 0.839 8.584 C 0.839 8.816 0.654 9.005 0.423 9.007 C 0.191 9.009 0.002 8.822 0.000 8.590 C -0.019 6.279 0.320 3.609 1.766 1.950 C 3.155 0.363 5.581 -0.069 7.661 0.370 C 10.029 0.873 11.472 3.642 11.321 6.656 C 11.199 8.931 10.134 11.176 8.841 12.822 C 7.764 14.197 6.292 14.896 5.098 15.277 L 3.587 15.511 L 2.789 15.320 C 2.669 15.244 2.514 15.098 2.512 14.856 C 2.508 14.613 2.671 14.456 2.799 14.376 C 3.443 13.970 4.334 14.090 5.154 14.027 C 6.250 13.937 7.524 13.739 8.799 14.193 C 10.170 14.683 11.279 15.955 12.135 17.485 C 13.003 19.039 13.609 20.858 13.909 22.614 C 14.538 26.221 13.335 29.407 10.978 30.304 C 9.508 30.853 7.688 30.546 6.076 29.835 C 4.469 29.126 3.053 28.020 2.490 26.675 C 2.399 26.462 2.500 26.217 2.713 26.126 C 2.927 26.038 3.172 26.137 3.262 26.351 C 4.162 28.496 8.311 30.406 10.681 29.520 C 11.602 29.169 12.355 28.342 12.797 27.190 C 13.253 25.995 13.382 24.458 13.085 22.757 C 12.507 19.398 10.715 15.768 8.517 14.981 C 7.476 14.611 6.345 14.769 5.222 14.862 C 4.343 14.931 3.468 14.946 3.245 15.087 L 3.289 15.041 L 3.348 14.878 L 3.318 14.713 L 3.266 14.637 L 3.243 14.615 L 3.609 14.675 L 4.841 14.477 C 5.941 14.128 7.247 13.499 8.181 12.304 C 9.384 10.775 10.375 8.656 10.484 6.614 C 10.620 3.882 9.323 1.580 7.487 1.188 C 5.647 0.801 3.517 1.222 2.397 2.501 C 1.199 3.874 0.820 6.376 0.839 8.584 Z"/>
</g>
</svg>
