<svg xmlns="http://www.w3.org/2000/svg" viewBox="0 0 4.418 10.072" width="4.418" height="10.072">
<g fill="black" stroke="none">
<path d="M 0.154 1.287 C 0.155 1.177 0.246 1.089 0.356 1.091 C 0.466 1.092 0.554 1.183 0.552 1.293 L 0.552 2.334 L 0.583 2.675 L 0.571 3.938 L 0.606 8.184 L 0.639 9.472 L 0.643 9.563 C 0.643 9.564 0.256 9.276 0.531 9.407 C 0.966 9.613 0.247 9.573 0.248 9.563 L 0.247 9.467 L 0.242 9.140 C 0.240 9.030 0.328 8.939 0.438 8.937 C 0.548 8.935 0.639 9.023 0.641 9.133 L 0.646 9.565 L 0.644 9.602 C 0.643 9.613 0.630 10.072 0.301 9.724 C 0.169 9.584 0.248 9.614 0.247 9.606 L 0.225 8.945 L 0.172 3.933 L 0.188 2.722 L 0.154 2.344 L 0.154 1.287 Z"/>
<path d="M 0.413 1.746 C 0.390 1.854 0.284 1.922 0.176 1.899 C 0.069 1.876 0.000 1.770 0.023 1.663 C 0.185 0.906 0.809 0.398 1.572 0.188 C 1.940 0.087 2.342 0.000 2.721 0.064 C 3.039 0.117 3.285 0.335 3.440 0.587 C 3.551 0.768 3.596 0.986 3.609 1.227 C 3.629 1.594 3.639 2.039 3.534 2.488 C 3.402 3.052 3.043 3.530 2.698 3.900 C 2.495 4.119 2.243 4.217 2.060 4.315 L 1.435 4.780 L 1.224 4.931 L 1.212 4.938 L 1.232 4.888 L 1.225 4.809 L 1.200 4.769 L 1.736 4.907 L 2.815 5.209 C 3.435 5.463 3.990 5.992 4.260 6.641 C 4.380 6.928 4.418 7.238 4.396 7.538 C 4.351 8.174 3.893 8.712 3.449 9.082 C 3.226 9.268 2.979 9.390 2.747 9.463 C 2.555 9.523 2.343 9.680 2.071 9.583 C 1.939 9.536 1.897 9.438 1.864 9.371 L 1.794 9.221 L 1.837 9.267 L 1.512 9.164 C 1.297 9.015 1.340 8.810 1.310 8.684 L 1.324 8.680 L 1.384 8.643 L 1.196 8.715 L 1.085 8.657 L 0.931 8.353 C 0.910 8.245 0.980 8.140 1.087 8.119 C 1.195 8.097 1.300 8.167 1.322 8.275 L 1.356 8.360 L 1.367 8.376 L 1.357 8.366 L 1.325 8.344 L 1.261 8.322 L 1.179 8.325 L 1.075 8.392 C 1.271 8.150 1.632 8.312 1.698 8.592 L 1.742 8.805 L 1.757 8.854 L 1.739 8.837 L 1.856 8.867 C 1.927 8.880 2.044 8.860 2.137 9.019 L 2.222 9.195 L 2.242 9.231 L 2.204 9.208 L 2.628 9.083 L 3.194 8.776 C 3.590 8.446 3.966 7.969 3.999 7.510 C 4.016 7.263 3.985 7.015 3.892 6.794 C 3.667 6.254 3.181 5.790 2.663 5.577 L 1.593 5.284 L 1.167 5.182 C 1.049 5.145 0.914 5.117 0.851 4.947 L 0.881 4.716 L 1.191 4.465 L 1.871 3.964 L 2.407 3.628 C 2.725 3.286 3.039 2.854 3.146 2.398 C 3.237 2.010 3.230 1.602 3.211 1.249 L 3.100 0.795 C 2.990 0.616 2.833 0.487 2.655 0.457 C 2.380 0.411 2.023 0.477 1.678 0.572 C 1.012 0.755 0.540 1.150 0.413 1.746 Z"/>
</g>
</svg>
