<svg xmlns="http://www.w3.org/2000/svg" viewBox="0 0 13.309 29.792" width="13.309" height="29.792">
<g fill="black" stroke="none">
<path d="M 0.410 3.780 C 0.413 3.446 0.690 3.179 1.024 3.185 C 1.358 3.188 1.625 3.464 1.619 3.798 L 1.619 6.959 L 1.713 7.995 L 1.676 11.830 L 1.783 24.723 L 1.883 28.634 L 1.895 28.910 C 1.895 28.914 0.720 28.039 1.555 28.437 C 2.876 29.062 0.693 28.941 0.696 28.910 L 0.693 28.619 L 0.677 27.626 C 0.671 27.292 0.939 27.016 1.273 27.010 C 1.607 27.004 1.883 27.271 1.889 27.605 L 1.904 28.917 L 1.898 29.029 C 1.895 29.062 1.856 30.456 0.857 29.399 C 0.456 28.974 0.696 29.065 0.693 29.041 L 0.626 27.034 L 0.465 11.815 L 0.513 8.137 L 0.410 6.990 L 0.410 3.780 Z"/>
<path d="M 1.197 5.174 C 1.127 5.502 0.805 5.708 0.477 5.638 C 0.152 5.569 -0.057 5.247 0.012 4.922 C 0.504 2.623 2.399 1.080 4.716 0.443 C 5.833 0.136 7.054 -0.128 8.205 0.066 C 9.171 0.227 9.918 0.889 10.388 1.654 C 10.725 2.204 10.862 2.866 10.901 3.598 C 10.962 4.712 10.993 6.063 10.674 7.427 C 10.273 9.139 9.183 10.591 8.135 11.714 C 7.519 12.379 6.754 12.677 6.198 12.975 L 4.300 14.387 L 3.659 14.845 L 3.623 14.866 L 3.684 14.715 L 3.662 14.475 L 3.586 14.353 L 5.214 14.772 L 8.490 15.689 C 10.373 16.461 12.058 18.067 12.878 20.038 C 13.243 20.909 13.358 21.851 13.291 22.761 C 13.155 24.693 11.764 26.326 10.416 27.450 C 9.738 28.015 8.988 28.385 8.284 28.607 C 7.701 28.789 7.057 29.266 6.231 28.971 C 5.830 28.828 5.703 28.531 5.603 28.327 L 5.390 27.872 L 5.521 28.012 L 4.534 27.699 C 3.881 27.246 4.012 26.624 3.920 26.241 L 3.963 26.229 L 4.145 26.117 L 3.574 26.335 L 3.237 26.159 L 2.770 25.236 C 2.706 24.908 2.918 24.589 3.243 24.526 C 3.571 24.459 3.890 24.671 3.957 24.999 L 4.060 25.258 L 4.094 25.306 L 4.063 25.276 L 3.966 25.209 L 3.772 25.142 L 3.523 25.151 L 3.207 25.355 C 3.802 24.620 4.898 25.112 5.099 25.962 L 5.232 26.609 L 5.278 26.758 L 5.223 26.706 L 5.578 26.797 C 5.794 26.837 6.149 26.776 6.432 27.259 L 6.690 27.793 L 6.751 27.902 L 6.635 27.833 L 7.923 27.453 L 9.641 26.521 C 10.844 25.519 11.986 24.070 12.086 22.676 C 12.137 21.926 12.043 21.173 11.761 20.502 C 11.078 18.863 9.602 17.454 8.029 16.807 L 4.780 15.917 L 3.486 15.607 C 3.128 15.495 2.718 15.410 2.527 14.894 L 2.618 14.192 L 3.559 13.430 L 5.624 11.909 L 7.252 10.889 C 8.217 9.850 9.171 8.538 9.496 7.154 C 9.772 5.975 9.751 4.736 9.693 3.665 L 9.356 2.286 C 9.022 1.742 8.545 1.351 8.005 1.260 C 7.170 1.120 6.086 1.320 5.038 1.609 C 3.016 2.165 1.582 3.364 1.197 5.174 Z"/>
</g>
</svg>
