<svg xmlns="http://www.w3.org/2000/svg" viewBox="0 0 5.310 11.886" width="5.310" height="11.886">
<g fill="black" stroke="none">
<path d="M 0.164 1.508 C 0.165 1.375 0.275 1.268 0.408 1.271 C 0.542 1.272 0.648 1.382 0.646 1.515 L 0.646 2.777 L 0.683 3.190 L 0.669 4.720 L 0.711 9.864 L 0.751 11.424 L 0.756 11.535 C 0.756 11.536 0.287 11.187 0.620 11.346 C 1.147 11.595 0.276 11.547 0.278 11.535 L 0.276 11.418 L 0.270 11.022 C 0.268 10.889 0.374 10.779 0.508 10.776 C 0.641 10.774 0.751 10.881 0.754 11.014 L 0.760 11.537 L 0.757 11.582 C 0.756 11.595 0.740 12.151 0.342 11.730 C 0.182 11.560 0.278 11.597 0.276 11.587 L 0.250 10.786 L 0.185 4.714 L 0.205 3.247 L 0.164 2.789 L 0.164 1.508 Z"/>
<path d="M 0.477 2.064 C 0.450 2.195 0.321 2.277 0.190 2.250 C 0.061 2.222 -0.023 2.093 0.005 1.964 C 0.201 1.047 0.957 0.431 1.882 0.177 C 2.327 0.054 2.814 -0.051 3.274 0.026 C 3.659 0.091 3.957 0.355 4.145 0.660 C 4.279 0.879 4.334 1.143 4.349 1.435 C 4.374 1.880 4.386 2.419 4.259 2.963 C 4.099 3.646 3.664 4.226 3.246 4.674 C 3.000 4.939 2.695 5.058 2.473 5.177 L 1.716 5.740 L 1.460 5.923 L 1.445 5.931 L 1.470 5.871 L 1.461 5.775 L 1.431 5.727 L 2.080 5.894 L 3.388 6.260 C 4.139 6.567 4.811 7.208 5.138 7.995 C 5.284 8.342 5.330 8.718 5.303 9.081 C 5.248 9.852 4.694 10.504 4.156 10.952 C 3.885 11.177 3.586 11.325 3.305 11.414 C 3.073 11.486 2.816 11.676 2.486 11.559 C 2.326 11.502 2.275 11.383 2.235 11.302 L 2.151 11.120 L 2.203 11.176 L 1.809 11.051 C 1.548 10.871 1.601 10.622 1.564 10.470 L 1.581 10.465 L 1.654 10.420 L 1.426 10.507 L 1.292 10.437 L 1.105 10.069 C 1.080 9.938 1.164 9.811 1.294 9.785 C 1.425 9.759 1.552 9.843 1.579 9.974 L 1.620 10.077 L 1.633 10.097 L 1.621 10.085 L 1.582 10.058 L 1.505 10.031 L 1.405 10.035 L 1.279 10.116 C 1.517 9.823 1.954 10.019 2.034 10.358 L 2.088 10.616 L 2.106 10.676 L 2.084 10.655 L 2.226 10.692 C 2.312 10.707 2.453 10.683 2.566 10.876 L 2.669 11.089 L 2.693 11.133 L 2.647 11.105 L 3.161 10.953 L 3.847 10.581 C 4.326 10.181 4.782 9.604 4.822 9.047 C 4.843 8.748 4.805 8.448 4.692 8.180 C 4.420 7.526 3.831 6.964 3.203 6.706 L 1.907 6.351 L 1.391 6.227 C 1.248 6.182 1.084 6.148 1.008 5.942 L 1.044 5.662 L 1.420 5.358 L 2.244 4.751 L 2.893 4.344 C 3.278 3.930 3.659 3.407 3.789 2.854 C 3.899 2.384 3.890 1.890 3.867 1.462 L 3.733 0.912 C 3.600 0.695 3.409 0.539 3.194 0.503 C 2.861 0.447 2.428 0.527 2.010 0.642 C 1.203 0.864 0.631 1.342 0.477 2.064 Z"/>
</g>
</svg>
