<svg xmlns="http://www.w3.org/2000/svg" viewBox="0 0 16.268 30.385" width="16.268" height="30.385">
<g fill="black" stroke="none">
<path d="M 2.085 3.880 C 2.110 3.419 2.504 3.066 2.965 3.091 C 3.427 3.121 3.779 3.515 3.754 3.976 L 4.052 7.579 L 4.052 13.471 L 3.527 20.365 L 3.016 23.934 L 2.580 26.353 L 2.194 27.079 L 2.047 27.809 L 1.858 28.509 C 1.791 28.668 1.800 28.907 1.305 29.121 L 0.508 29.067 C -0.176 28.656 0.034 28.337 0.017 28.069 L 0.047 27.008 C 0.080 26.546 0.483 26.203 0.944 26.240 C 1.405 26.274 1.745 26.676 1.711 27.138 L 1.686 27.968 L 1.695 28.048 L 1.653 27.934 L 1.556 27.796 L 1.342 27.620 L 1.003 27.524 L 0.692 27.565 L 0.407 27.750 L 0.311 27.872 L 0.403 27.519 L 0.764 26.215 L 0.969 25.930 L 0.948 25.993 L 1.368 23.657 L 1.867 20.180 L 2.382 13.412 L 2.382 7.675 L 2.085 3.880 Z"/>
<path d="M 3.209 6.459 C 2.747 6.434 2.395 6.044 2.416 5.582 C 2.441 5.121 2.835 4.769 3.297 4.790 L 5.985 3.817 L 7.662 2.982 L 12.011 0.655 L 13.839 0.177 L 14.682 0.022 C 15.009 -0.024 15.546 -0.033 15.945 0.370 L 16.263 1.192 L 16.268 1.670 L 16.268 2.337 C 16.234 2.798 15.831 3.146 15.374 3.112 C 14.913 3.079 14.565 2.676 14.598 2.215 L 14.598 1.687 L 14.598 1.280 L 14.636 1.376 L 14.758 1.544 L 14.989 1.666 L 14.053 1.833 L 12.653 2.202 L 8.451 4.454 L 6.719 5.318 C 5.465 5.931 4.349 6.518 3.209 6.459 Z"/>
<path d="M 4.987 15.677 C 4.521 15.672 4.152 15.299 4.156 14.838 C 4.161 14.372 4.538 14.003 4.999 14.007 L 7.004 14.179 L 8.446 14.267 L 10.774 13.357 L 12.007 12.913 L 13.215 12.364 C 13.366 12.334 13.798 12.246 14.179 12.607 C 14.540 12.955 14.523 13.299 14.527 13.592 C 14.536 14.054 14.171 14.435 13.709 14.444 C 13.248 14.452 12.867 14.087 12.858 13.626 L 12.854 13.542 L 12.942 13.722 L 13.164 13.919 L 13.357 13.995 L 13.508 14.007 L 13.328 14.116 L 12.590 14.481 L 11.445 14.888 C 10.673 15.228 9.738 15.832 8.589 15.932 L 6.807 15.840 L 4.987 15.677 Z"/>
<path d="M 1.531 27.775 C 1.376 27.343 1.602 26.865 2.039 26.710 C 2.471 26.555 2.949 26.781 3.104 27.213 C 3.783 29.109 4.173 28.899 5.251 28.492 L 7.142 27.779 C 7.981 27.326 8.694 26.307 9.906 26.039 C 10.359 25.938 10.803 26.223 10.900 26.676 C 11.000 27.125 10.715 27.574 10.266 27.670 L 7.935 29.247 L 5.842 30.056 C 5.146 30.316 4.320 30.551 3.473 30.228 C 2.609 29.893 1.980 29.029 1.531 27.775 Z"/>
</g>
</svg>
