<svg xmlns="http://www.w3.org/2000/svg" viewBox="0 0 6.490 12.123" width="6.490" height="12.123">
<g fill="black" stroke="none">
<path d="M 0.832 1.548 C 0.842 1.364 0.999 1.223 1.183 1.233 C 1.367 1.245 1.508 1.402 1.498 1.586 L 1.616 3.024 L 1.616 5.375 L 1.407 8.125 L 1.203 9.549 L 1.029 10.515 L 0.875 10.804 L 0.817 11.095 L 0.741 11.375 C 0.715 11.438 0.718 11.534 0.521 11.619 L 0.203 11.597 C -0.070 11.433 0.014 11.306 0.007 11.199 L 0.019 10.776 C 0.032 10.592 0.193 10.454 0.377 10.469 C 0.561 10.483 0.696 10.643 0.683 10.827 L 0.673 11.159 L 0.676 11.191 L 0.659 11.145 L 0.621 11.090 L 0.536 11.020 L 0.400 10.981 L 0.276 10.998 L 0.162 11.072 L 0.124 11.120 L 0.161 10.980 L 0.305 10.459 L 0.387 10.346 L 0.378 10.371 L 0.546 9.439 L 0.745 8.052 L 0.951 5.351 L 0.951 3.062 L 0.832 1.548 Z"/>
<path d="M 1.280 2.577 C 1.096 2.567 0.956 2.411 0.964 2.227 C 0.974 2.043 1.131 1.903 1.315 1.911 L 2.388 1.523 L 3.057 1.190 L 4.792 0.261 L 5.522 0.071 L 5.858 0.009 C 5.988 -0.010 6.203 -0.013 6.362 0.148 L 6.489 0.475 L 6.490 0.666 L 6.490 0.932 C 6.477 1.116 6.316 1.255 6.134 1.242 C 5.950 1.228 5.811 1.068 5.825 0.884 L 5.825 0.673 L 5.825 0.511 L 5.840 0.549 L 5.888 0.616 L 5.980 0.665 L 5.607 0.731 L 5.048 0.879 L 3.372 1.777 L 2.681 2.122 C 2.180 2.366 1.735 2.600 1.280 2.577 Z"/>
<path d="M 1.990 6.255 C 1.804 6.253 1.657 6.104 1.658 5.920 C 1.660 5.734 1.811 5.587 1.995 5.589 L 2.794 5.657 L 3.370 5.692 L 4.299 5.329 L 4.791 5.152 L 5.272 4.933 C 5.333 4.921 5.505 4.886 5.657 5.030 C 5.801 5.169 5.794 5.306 5.796 5.423 C 5.799 5.607 5.654 5.759 5.470 5.763 C 5.286 5.766 5.134 5.621 5.130 5.436 L 5.128 5.403 L 5.164 5.475 L 5.252 5.554 L 5.329 5.584 L 5.389 5.589 L 5.318 5.632 L 5.023 5.778 L 4.566 5.940 C 4.258 6.076 3.885 6.317 3.427 6.357 L 2.716 6.320 L 1.990 6.255 Z"/>
<path d="M 0.611 11.082 C 0.549 10.909 0.639 10.719 0.813 10.657 C 0.986 10.595 1.176 10.685 1.238 10.858 C 1.509 11.614 1.665 11.530 2.095 11.368 L 2.850 11.083 C 3.184 10.903 3.469 10.496 3.952 10.389 C 4.133 10.349 4.310 10.463 4.349 10.643 C 4.389 10.822 4.275 11.001 4.096 11.040 L 3.166 11.669 L 2.331 11.992 C 2.053 12.096 1.724 12.189 1.386 12.061 C 1.041 11.927 0.790 11.582 0.611 11.082 Z"/>
</g>
</svg>
