<svg xmlns="http://www.w3.org/2000/svg" viewBox="0 0 3.921 7.293" width="3.921" height="7.293">
<g fill="black" stroke="none">
<path d="M 0.539 0.933 C 0.545 0.823 0.639 0.739 0.749 0.745 C 0.859 0.752 0.943 0.846 0.937 0.956 L 1.008 1.815 L 1.008 3.220 L 0.883 4.864 L 0.761 5.715 L 0.657 6.292 L 0.565 6.465 L 0.530 6.639 L 0.485 6.806 C 0.469 6.844 0.471 6.901 0.353 6.952 L 0.163 6.939 C 0.000 6.841 0.050 6.765 0.046 6.701 L 0.053 6.448 C 0.061 6.338 0.157 6.256 0.267 6.265 C 0.377 6.273 0.458 6.369 0.450 6.479 L 0.444 6.677 L 0.446 6.696 L 0.436 6.669 L 0.413 6.636 L 0.362 6.594 L 0.281 6.571 L 0.207 6.581 L 0.139 6.625 L 0.116 6.654 L 0.138 6.570 L 0.224 6.259 L 0.273 6.191 L 0.268 6.206 L 0.368 5.649 L 0.487 4.820 L 0.610 3.206 L 0.610 1.838 L 0.539 0.933 Z"/>
<path d="M 0.807 1.548 C 0.697 1.542 0.613 1.449 0.618 1.339 C 0.624 1.229 0.718 1.145 0.828 1.150 L 1.469 0.918 L 1.869 0.719 L 2.906 0.164 L 3.342 0.050 L 3.543 0.013 C 3.621 0.002 3.749 0.000 3.844 0.096 L 3.920 0.292 L 3.921 0.406 L 3.921 0.565 C 3.913 0.675 3.817 0.758 3.708 0.750 C 3.598 0.742 3.515 0.646 3.523 0.536 L 3.523 0.410 L 3.523 0.313 L 3.532 0.336 L 3.561 0.376 L 3.616 0.405 L 3.393 0.445 L 3.059 0.533 L 2.057 1.070 L 1.644 1.276 C 1.345 1.422 1.079 1.562 0.807 1.548 Z"/>
<path d="M 1.231 3.746 C 1.120 3.745 1.032 3.656 1.033 3.546 C 1.034 3.435 1.124 3.347 1.234 3.348 L 1.712 3.389 L 2.056 3.410 L 2.611 3.193 L 2.905 3.087 L 3.193 2.956 C 3.229 2.949 3.332 2.928 3.423 3.014 C 3.509 3.097 3.505 3.179 3.506 3.249 C 3.508 3.359 3.421 3.450 3.311 3.452 C 3.201 3.454 3.110 3.367 3.108 3.257 L 3.107 3.237 L 3.128 3.280 L 3.181 3.327 L 3.227 3.345 L 3.263 3.348 L 3.220 3.374 L 3.044 3.461 L 2.771 3.558 C 2.587 3.639 2.364 3.783 2.090 3.807 L 1.665 3.785 L 1.231 3.746 Z"/>
<path d="M 0.407 6.631 C 0.370 6.528 0.424 6.414 0.528 6.377 C 0.631 6.340 0.745 6.394 0.782 6.497 C 0.944 6.949 1.037 6.899 1.294 6.802 L 1.745 6.632 C 1.945 6.524 2.115 6.281 2.404 6.217 C 2.512 6.193 2.618 6.261 2.641 6.369 C 2.665 6.476 2.597 6.583 2.490 6.606 L 1.934 6.982 L 1.435 7.175 C 1.269 7.237 1.072 7.293 0.870 7.216 C 0.664 7.136 0.514 6.930 0.407 6.631 Z"/>
</g>
</svg>
