<svg xmlns="http://www.w3.org/2000/svg" viewBox="0 0 5.550 11.908" width="5.550" height="11.908">
<g fill="black" stroke="none">
<path d="M 0.253 1.859 C 0.098 1.843 -0.014 1.707 0.001 1.553 C 0.015 1.400 0.153 1.287 0.306 1.301 C 0.601 1.331 0.813 1.610 0.869 1.884 L 0.898 2.919 L 0.755 6.559 L 0.657 8.367 L 0.602 10.024 L 0.632 11.279 L 0.616 11.245 L 0.557 11.178 L 0.399 11.119 L 0.248 11.158 L 0.188 11.210 L 0.163 11.248 L 0.271 10.699 C 0.293 10.546 0.436 10.442 0.589 10.465 C 0.742 10.488 0.846 10.630 0.824 10.783 L 0.740 11.253 L 0.657 11.510 L 0.458 11.669 C 0.306 11.707 0.174 11.593 0.137 11.536 L 0.053 11.117 L 0.043 10.028 L 0.098 8.342 L 0.196 6.531 L 0.340 2.898 L 0.320 1.995 L 0.253 1.859 Z"/>
<path d="M 0.695 1.909 C 0.622 2.045 0.452 2.096 0.316 2.022 C 0.180 1.949 0.130 1.779 0.203 1.643 C 0.516 1.067 1.374 0.762 2.333 0.479 C 3.310 0.191 4.362 0.004 5.172 0.000 C 5.326 0.000 5.451 0.125 5.453 0.279 C 5.453 0.434 5.328 0.559 5.173 0.560 C 3.651 0.566 1.006 1.336 0.695 1.909 Z"/>
<path d="M 0.771 6.028 C 0.616 6.032 0.488 5.912 0.484 5.757 C 0.480 5.603 0.602 5.474 0.757 5.470 C 1.826 5.441 3.152 5.166 4.341 4.991 C 4.492 4.968 4.635 5.074 4.658 5.227 C 4.680 5.380 4.575 5.521 4.422 5.544 C 3.251 5.718 1.916 5.999 0.771 6.028 Z"/>
<path d="M 0.636 11.652 C 0.491 11.596 0.421 11.433 0.477 11.290 C 0.533 11.145 0.695 11.074 0.839 11.131 C 1.996 11.583 3.835 11.221 5.173 10.720 C 5.318 10.667 5.479 10.740 5.533 10.884 C 5.587 11.029 5.513 11.190 5.368 11.244 C 3.957 11.773 2.045 12.203 0.636 11.652 Z"/>
</g>
</svg>
