<svg xmlns="http://www.w3.org/2000/svg" viewBox="0 0 23.119 30.584" width="23.119" height="30.584">
<g fill="black" stroke="none">
<path d="M 2.337 4.033 C 2.573 3.947 2.833 4.068 2.919 4.302 C 3.006 4.538 2.885 4.798 2.651 4.884 C 1.777 5.205 1.311 5.629 1.058 6.678 C 0.894 7.358 0.906 8.353 0.914 9.620 L 0.996 21.222 L 0.994 26.153 L 0.967 27.719 L 0.887 28.543 C 0.803 28.778 0.543 28.900 0.307 28.816 C 0.072 28.732 -0.050 28.472 0.034 28.238 L 0.091 25.773 L 0.007 9.627 C -0.003 8.357 -0.031 7.319 0.178 6.465 C 0.484 5.184 1.286 4.420 2.337 4.033 Z"/>
<path d="M 4.139 4.584 C 4.374 4.673 4.492 4.935 4.404 5.167 C 4.314 5.401 4.052 5.519 3.818 5.431 C -0.816 3.676 20.218 -2.901 23.046 1.475 C 23.183 1.686 23.122 1.967 22.913 2.103 C 22.702 2.237 22.421 2.178 22.284 1.969 C 22.191 1.823 21.763 1.593 21.073 1.466 C 19.760 1.220 17.801 1.245 15.629 1.434 C 12.298 1.726 8.709 2.369 6.149 3.161 C 4.957 3.530 4.058 3.935 3.737 4.243 L 3.645 4.357 L 3.655 4.315 L 4.139 4.584 Z"/>
<path d="M 5.455 14.859 C 5.630 14.679 5.917 14.677 6.096 14.852 C 6.274 15.027 6.276 15.314 6.101 15.494 L 5.204 16.627 L 5.168 16.745 L 5.115 16.650 C 5.261 16.723 6.185 16.659 7.312 16.379 L 15.047 14.356 L 18.399 13.700 C 19.296 13.598 20.037 13.482 20.511 14.014 C 20.675 14.204 20.659 14.487 20.470 14.654 C 20.284 14.820 19.997 14.804 19.830 14.616 L 19.528 14.559 C 18.549 14.477 16.551 14.907 14.298 15.473 L 7.531 17.258 C 6.337 17.555 5.381 17.833 4.676 17.445 L 4.276 16.905 C 4.146 16.236 4.656 15.673 5.455 14.859 Z"/>
<path d="M 3.324 29.665 C 3.575 29.649 3.791 29.838 3.807 30.088 C 3.823 30.337 3.634 30.553 3.383 30.569 L 2.522 30.584 L 2.260 30.516 L 2.054 30.329 C 1.916 30.099 2.057 29.816 2.138 29.736 L 2.765 29.451 L 3.721 29.206 C 7.537 28.311 15.127 27.265 17.550 26.627 C 17.794 26.563 18.041 26.708 18.106 26.950 C 18.170 27.193 18.024 27.440 17.782 27.503 L 15.252 28.016 C 11.665 28.666 6.638 29.453 3.927 30.088 L 2.721 30.426 L 2.754 30.400 L 2.824 30.320 L 2.890 30.124 L 2.837 29.873 L 2.724 29.742 L 2.610 29.683 L 2.767 29.688 L 3.324 29.665 Z"/>
</g>
</svg>
