<svg xmlns="http://www.w3.org/2000/svg" viewBox="0 0 13.911 29.847" width="13.911" height="29.847">
<g fill="black" stroke="none">
<path d="M 0.633 4.659 C 0.246 4.620 -0.036 4.279 0.003 3.892 C 0.038 3.508 0.383 3.227 0.767 3.262 C 1.506 3.336 2.037 4.036 2.178 4.722 L 2.252 7.315 L 1.893 16.439 L 1.646 20.971 L 1.509 25.123 L 1.583 28.269 L 1.544 28.184 L 1.397 28.016 L 0.999 27.868 L 0.622 27.966 L 0.471 28.096 L 0.408 28.191 L 0.679 26.816 C 0.735 26.432 1.094 26.172 1.477 26.228 C 1.861 26.288 2.121 26.643 2.065 27.027 L 1.854 28.206 L 1.646 28.849 L 1.147 29.247 C 0.767 29.342 0.436 29.057 0.344 28.913 L 0.133 27.864 L 0.109 25.134 L 0.246 20.908 L 0.492 16.369 L 0.851 7.263 L 0.802 5.000 L 0.633 4.659 Z"/>
<path d="M 1.741 4.785 C 1.558 5.127 1.133 5.253 0.791 5.067 C 0.450 4.884 0.327 4.458 0.510 4.117 C 1.294 2.674 3.444 1.911 5.848 1.200 C 8.297 0.479 10.932 0.011 12.962 0.000 C 13.349 0.000 13.663 0.313 13.666 0.700 C 13.666 1.087 13.353 1.400 12.966 1.404 C 9.152 1.418 2.522 3.350 1.741 4.785 Z"/>
<path d="M 1.931 15.109 C 1.544 15.120 1.224 14.817 1.214 14.430 C 1.203 14.043 1.509 13.719 1.896 13.709 C 4.577 13.638 7.899 12.949 10.879 12.509 C 11.259 12.453 11.618 12.716 11.675 13.100 C 11.731 13.483 11.467 13.839 11.083 13.895 C 8.149 14.331 4.803 15.035 1.931 15.109 Z"/>
<path d="M 1.594 29.205 C 1.231 29.064 1.055 28.656 1.196 28.297 C 1.337 27.935 1.741 27.755 2.104 27.899 C 5.003 29.032 9.613 28.125 12.966 26.868 C 13.328 26.735 13.733 26.918 13.867 27.280 C 14.004 27.643 13.817 28.047 13.455 28.181 C 9.919 29.507 5.126 30.584 1.594 29.205 Z"/>
</g>
</svg>
