<svg xmlns="http://www.w3.org/2000/svg" viewBox="0 0 6.472 11.999" width="6.472" height="11.999">
<g fill="black" stroke="none">
<path d="M 1.577 0.660 C 1.609 0.467 1.794 0.334 1.988 0.366 C 2.183 0.398 2.314 0.583 2.282 0.777 L 2.302 1.193 L 2.022 2.637 L 1.602 4.254 L 1.087 7.515 L 0.980 8.900 L 0.920 9.627 L 0.866 10.888 L 0.838 11.297 L 0.795 11.474 L 0.567 11.691 C 0.352 11.765 0.181 11.602 0.140 11.537 C 0.034 11.372 0.083 11.151 0.249 11.044 C 0.416 10.938 0.637 10.986 0.743 11.153 L 0.710 11.110 L 0.642 11.053 L 0.520 11.003 L 0.368 11.006 L 0.253 11.058 L 0.158 11.155 L 0.126 11.223 L 0.152 10.857 L 0.208 9.578 L 0.267 8.852 L 0.377 7.434 L 0.906 4.090 L 1.326 2.472 L 1.588 1.224 L 1.577 0.660 Z"/>
<path d="M 0.011 10.976 C 0.023 10.778 0.194 10.629 0.391 10.644 C 0.588 10.656 0.737 10.827 0.723 11.024 L 0.716 11.241 L 0.712 11.218 L 0.701 11.184 L 0.671 11.116 L 0.563 11.003 L 0.327 10.947 L 0.161 11.012 L 0.099 11.071 L 0.063 11.126 L 0.066 11.103 L 0.235 10.364 C 0.274 10.172 0.465 10.048 0.658 10.088 C 0.850 10.129 0.974 10.319 0.935 10.511 L 0.723 11.395 L 0.682 11.482 L 0.436 11.652 C 0.242 11.690 0.083 11.530 0.045 11.460 L 0.000 11.203 L 0.011 10.976 Z"/>
<path d="M 2.242 1.905 C 2.119 2.060 1.894 2.085 1.740 1.959 C 1.586 1.837 1.563 1.611 1.686 1.457 C 1.970 1.104 2.303 0.834 2.669 0.693 C 3.059 0.544 3.417 0.632 3.687 0.655 L 4.293 0.625 L 5.516 0.090 C 5.719 0.006 6.037 -0.088 6.279 0.156 C 6.516 0.393 6.487 0.689 6.440 1.041 C 6.413 1.236 6.234 1.374 6.038 1.347 C 5.843 1.321 5.705 1.141 5.732 0.946 L 5.746 0.646 L 5.873 0.714 C 5.690 0.759 5.113 1.193 4.429 1.326 L 3.626 1.365 L 2.926 1.362 L 2.242 1.905 Z"/>
<path d="M 2.106 5.563 C 2.180 5.379 2.390 5.291 2.573 5.366 C 2.756 5.440 2.843 5.648 2.768 5.831 L 2.730 6.005 L 2.831 6.049 L 2.703 6.069 L 2.675 6.082 L 2.947 5.766 C 3.380 5.344 3.992 5.117 4.487 4.898 C 4.858 4.733 5.210 4.562 5.595 4.609 C 5.798 4.634 6.033 4.785 6.119 5.005 L 6.123 5.705 C 6.080 5.897 5.886 6.017 5.694 5.972 C 5.502 5.929 5.382 5.737 5.427 5.544 L 5.454 5.264 L 5.511 5.319 L 4.776 5.551 C 4.273 5.773 3.726 6.006 3.446 6.279 L 3.260 6.500 C 3.175 6.598 3.087 6.792 2.764 6.762 L 2.223 6.514 C 1.988 6.286 1.968 5.904 2.106 5.563 Z"/>
<path d="M 1.276 11.379 C 1.084 11.327 0.972 11.132 1.023 10.942 C 1.075 10.750 1.270 10.638 1.460 10.689 C 1.882 10.803 2.095 11.112 2.314 11.229 C 2.492 11.322 2.834 11.290 3.274 11.098 L 4.784 10.167 C 4.944 10.050 5.168 10.084 5.285 10.244 C 5.402 10.403 5.366 10.628 5.208 10.744 L 3.561 11.751 C 3.028 11.986 2.461 12.115 1.981 11.860 L 1.276 11.379 Z"/>
</g>
</svg>
