<svg xmlns="http://www.w3.org/2000/svg" viewBox="0 0 19.643 30.441" width="19.643" height="30.441">
<g fill="black" stroke="none">
<path d="M 4.841 1.948 C 4.950 2.230 4.811 2.545 4.529 2.654 C 4.250 2.761 3.932 2.622 3.826 2.342 C 3.725 2.085 2.966 1.174 2.644 1.059 L 2.912 1.059 L 3.040 0.980 L 2.945 1.300 L 2.808 2.367 L 2.627 9.083 L 2.783 22.147 L 3.029 27.287 L 3.325 29.670 C 3.451 29.944 3.328 30.267 3.054 30.393 C 2.780 30.516 2.457 30.395 2.332 30.122 L 2.047 28.589 L 1.730 23.171 L 1.530 11.754 L 1.574 6.363 L 1.721 2.299 L 1.959 0.772 L 2.233 0.249 C 2.384 0.079 2.731 -0.068 3.013 0.033 C 3.484 0.202 3.837 0.555 4.154 0.917 L 4.841 1.948 Z"/>
<path d="M 7.244 3.771 C 7.542 3.719 7.824 3.916 7.879 4.212 C 7.933 4.507 7.736 4.792 7.441 4.844 L 5.676 4.972 C 5.191 4.945 4.805 4.907 4.469 4.644 L 4.255 4.206 L 4.466 3.766 L 5.640 3.292 L 7.630 2.830 C 9.584 2.501 11.737 2.318 13.749 2.392 C 15.724 2.463 17.522 2.756 18.743 3.574 C 18.992 3.741 19.060 4.080 18.891 4.329 C 18.724 4.581 18.384 4.647 18.135 4.480 C 16.223 3.196 11.625 3.265 7.807 3.905 L 5.802 4.381 L 5.213 4.589 L 5.131 4.628 L 5.161 4.606 L 5.216 4.551 L 5.279 4.461 L 5.331 4.329 L 5.309 4.015 L 5.137 3.782 C 5.150 3.793 6.100 3.979 7.244 3.771 Z"/>
<path d="M 2.061 15.423 C 2.312 15.256 2.649 15.328 2.816 15.579 C 2.980 15.831 2.909 16.170 2.657 16.335 C 1.675 16.978 1.158 17.492 1.089 17.648 L 1.089 17.615 L 1.045 17.487 L 1.023 17.462 C 1.697 17.862 5.947 17.303 10.150 16.712 L 15.995 16.036 L 18.130 16.056 C 18.707 16.124 19.244 16.231 19.556 16.710 C 19.720 16.961 19.649 17.298 19.397 17.462 C 19.145 17.629 18.806 17.558 18.642 17.306 L 18.431 17.219 C 16.551 16.671 10.886 17.763 6.157 18.362 L 3.046 18.672 L 1.322 18.653 L 0.380 18.343 C 0.167 18.187 -0.014 17.886 0.000 17.585 C 0.033 16.734 0.829 16.225 2.061 15.423 Z"/>
<path d="M 3.341 28.616 C 3.631 28.537 3.932 28.707 4.012 28.997 C 4.094 29.287 3.922 29.588 3.631 29.667 L 3.057 29.867 L 3.092 29.837 L 3.174 29.714 L 3.210 29.468 L 3.133 29.251 L 3.046 29.153 L 2.988 29.117 L 4.354 29.254 C 7.950 29.396 14.797 29.065 17.695 28.603 C 17.990 28.556 18.269 28.759 18.319 29.057 C 18.365 29.353 18.163 29.632 17.864 29.681 C 14.805 30.168 8.021 30.491 4.313 30.346 C 3.530 30.313 2.969 30.327 2.504 30.094 C 2.373 30.029 2.126 29.867 2.124 29.525 C 2.118 29.030 2.444 28.948 2.630 28.860 L 3.341 28.616 Z"/>
</g>
</svg>
