<svg xmlns="http://www.w3.org/2000/svg" viewBox="0 0 3.409 7.313" width="3.409" height="7.313">
<g fill="black" stroke="none">
<path d="M 0.155 1.141 C 0.060 1.132 -0.009 1.048 0.001 0.954 C 0.009 0.860 0.094 0.791 0.188 0.799 C 0.369 0.817 0.499 0.989 0.534 1.157 L 0.552 1.792 L 0.464 4.028 L 0.403 5.138 L 0.370 6.156 L 0.388 6.927 L 0.378 6.906 L 0.342 6.864 L 0.245 6.828 L 0.153 6.852 L 0.115 6.884 L 0.100 6.908 L 0.166 6.570 C 0.180 6.477 0.268 6.413 0.362 6.427 C 0.456 6.441 0.520 6.528 0.506 6.622 L 0.454 6.911 L 0.403 7.069 L 0.281 7.166 C 0.188 7.190 0.107 7.120 0.084 7.084 L 0.033 6.827 L 0.027 6.158 L 0.060 5.123 L 0.121 4.011 L 0.209 1.779 L 0.196 1.225 L 0.155 1.141 Z"/>
<path d="M 0.427 1.173 C 0.382 1.256 0.278 1.287 0.194 1.242 C 0.110 1.197 0.080 1.092 0.125 1.009 C 0.317 0.655 0.844 0.468 1.433 0.294 C 2.033 0.117 2.679 0.003 3.176 0.000 C 3.271 0.000 3.348 0.077 3.349 0.172 C 3.349 0.266 3.272 0.343 3.177 0.344 C 2.242 0.347 0.618 0.821 0.427 1.173 Z"/>
<path d="M 0.473 3.702 C 0.378 3.705 0.300 3.631 0.297 3.536 C 0.295 3.441 0.370 3.362 0.465 3.359 C 1.122 3.342 1.935 3.173 2.666 3.065 C 2.759 3.051 2.847 3.116 2.861 3.210 C 2.874 3.304 2.810 3.391 2.716 3.405 C 1.997 3.512 1.177 3.684 0.473 3.702 Z"/>
<path d="M 0.390 7.156 C 0.302 7.121 0.259 7.021 0.293 6.933 C 0.328 6.845 0.427 6.801 0.515 6.836 C 1.226 7.114 2.355 6.891 3.177 6.583 C 3.266 6.551 3.365 6.595 3.398 6.684 C 3.431 6.773 3.386 6.872 3.297 6.905 C 2.430 7.230 1.256 7.494 0.390 7.156 Z"/>
</g>
</svg>
