<svg xmlns="http://www.w3.org/2000/svg" viewBox="0 0 3.632 6.802" width="3.632" height="6.802">
<g fill="black" stroke="none">
<path d="M 0.879 0.417 C 0.897 0.309 1.000 0.235 1.108 0.253 C 1.217 0.271 1.290 0.374 1.272 0.482 L 1.283 0.714 L 1.127 1.519 L 0.893 2.420 L 0.606 4.238 L 0.546 5.010 L 0.513 5.415 L 0.483 6.118 L 0.467 6.346 L 0.443 6.445 L 0.316 6.566 C 0.196 6.607 0.101 6.516 0.078 6.480 C 0.019 6.388 0.046 6.265 0.139 6.205 C 0.232 6.146 0.355 6.173 0.414 6.266 L 0.396 6.242 L 0.358 6.210 L 0.290 6.182 L 0.205 6.184 L 0.141 6.213 L 0.088 6.267 L 0.070 6.305 L 0.085 6.101 L 0.116 5.388 L 0.149 4.983 L 0.210 4.193 L 0.505 2.329 L 0.739 1.427 L 0.885 0.731 L 0.879 0.417 Z"/>
<path d="M 0.006 6.167 C 0.013 6.057 0.108 5.974 0.218 5.982 C 0.328 5.989 0.411 6.084 0.403 6.194 L 0.399 6.315 L 0.397 6.302 L 0.391 6.283 L 0.374 6.245 L 0.314 6.182 L 0.182 6.151 L 0.090 6.187 L 0.055 6.220 L 0.035 6.251 L 0.037 6.238 L 0.131 5.826 C 0.153 5.719 0.259 5.650 0.367 5.672 C 0.474 5.695 0.543 5.801 0.521 5.908 L 0.403 6.401 L 0.380 6.449 L 0.243 6.544 C 0.135 6.565 0.046 6.476 0.025 6.437 L 0.000 6.294 L 0.006 6.167 Z"/>
<path d="M 1.250 1.111 C 1.181 1.197 1.056 1.211 0.970 1.141 C 0.884 1.073 0.871 0.947 0.940 0.861 C 1.098 0.664 1.284 0.514 1.488 0.435 C 1.705 0.352 1.905 0.401 2.055 0.414 L 2.393 0.397 L 3.075 0.099 C 3.188 0.052 3.365 0.000 3.500 0.136 C 3.632 0.268 3.616 0.433 3.590 0.629 C 3.575 0.738 3.475 0.815 3.366 0.800 C 3.257 0.785 3.180 0.685 3.195 0.576 L 3.203 0.409 L 3.274 0.447 C 3.172 0.472 2.850 0.714 2.469 0.788 L 2.021 0.810 L 1.631 0.808 L 1.250 1.111 Z"/>
<path d="M 1.174 3.150 C 1.215 3.047 1.332 2.998 1.434 3.040 C 1.536 3.081 1.585 3.197 1.543 3.299 L 1.522 3.396 L 1.578 3.421 L 1.507 3.432 L 1.491 3.439 L 1.643 3.263 C 1.884 3.028 2.225 2.901 2.501 2.779 C 2.708 2.687 2.904 2.592 3.119 2.618 C 3.232 2.632 3.363 2.716 3.411 2.839 L 3.413 3.229 C 3.389 3.336 3.281 3.403 3.174 3.378 C 3.067 3.354 3.000 3.247 3.025 3.139 L 3.040 2.983 L 3.072 3.014 L 2.662 3.143 C 2.382 3.267 2.077 3.397 1.921 3.549 L 1.817 3.672 C 1.770 3.727 1.721 3.835 1.541 3.818 L 1.239 3.680 C 1.108 3.553 1.097 3.340 1.174 3.150 Z"/>
<path d="M 0.711 6.392 C 0.604 6.363 0.542 6.254 0.570 6.148 C 0.599 6.041 0.708 5.979 0.814 6.007 C 1.049 6.071 1.168 6.243 1.290 6.308 C 1.389 6.360 1.580 6.342 1.825 6.235 L 2.667 5.716 C 2.756 5.651 2.881 5.670 2.946 5.759 C 3.011 5.848 2.991 5.973 2.903 6.038 L 1.985 6.599 C 1.688 6.730 1.372 6.802 1.104 6.660 L 0.711 6.392 Z"/>
</g>
</svg>
