<svg xmlns="http://www.w3.org/2000/svg" viewBox="0 0 23.468 30.507" width="23.468" height="30.507">
<g fill="black" stroke="none">
<path d="M 0.837 1.231 C 0.637 1.419 0.321 1.406 0.133 1.203 C -0.055 1.003 -0.043 0.687 0.160 0.499 C 0.464 0.216 0.792 0.010 1.176 0.000 C 1.539 -0.008 1.870 0.208 2.068 0.474 C 2.441 0.970 2.589 1.684 2.699 2.579 C 2.905 4.238 2.892 6.472 2.807 9.013 L 2.208 21.318 L 2.158 26.486 C 2.211 27.887 2.354 28.982 2.592 29.529 C 2.702 29.782 2.587 30.075 2.336 30.186 C 2.083 30.296 1.787 30.181 1.677 29.927 C 1.376 29.243 1.256 28.286 1.188 27.098 C 1.060 24.904 1.161 22.057 1.313 18.964 C 1.544 14.247 1.905 9.266 1.862 5.474 C 1.842 3.692 1.724 2.258 1.459 1.469 L 1.198 0.998 L 0.837 1.231 Z"/>
<path d="M 4.131 6.670 C 3.875 6.773 3.584 6.650 3.482 6.394 C 3.376 6.138 3.502 5.848 3.757 5.742 L 6.206 4.958 L 12.094 3.594 L 19.227 2.522 C 19.500 2.494 19.746 2.694 19.774 2.970 C 19.801 3.243 19.601 3.489 19.328 3.517 C 16.159 3.835 12.933 4.404 10.126 5.020 L 6.474 5.920 L 4.131 6.670 Z"/>
<path d="M 6.131 12.450 C 6.299 12.232 6.612 12.189 6.830 12.357 C 7.051 12.525 7.091 12.838 6.923 13.059 C 6.241 13.949 5.564 14.498 5.198 14.786 L 4.687 15.056 L 4.381 15.077 C 4.296 15.061 4.108 15.029 3.998 14.778 C 3.883 14.515 4.028 14.292 4.103 14.214 C 4.512 13.801 5.071 13.748 5.740 13.598 L 7.926 13.054 C 9.988 12.390 12.189 11.715 14.264 11.259 C 16.295 10.813 18.142 10.562 19.563 10.891 C 19.831 10.951 19.999 11.219 19.939 11.487 C 19.876 11.758 19.608 11.926 19.340 11.863 C 16.949 11.312 12.359 12.678 8.231 14.004 L 4.815 14.914 L 4.923 14.746 L 4.953 14.590 L 4.925 14.407 L 4.838 14.259 L 4.662 14.127 L 4.497 14.089 L 4.424 14.094 L 4.584 13.999 C 4.928 13.731 5.519 13.247 6.131 12.450 Z"/>
<path d="M 1.639 28.113 C 1.674 27.840 1.925 27.647 2.198 27.682 C 2.474 27.717 2.667 27.967 2.629 28.241 C 2.577 28.659 2.682 28.870 2.948 29.060 C 3.484 29.441 4.770 29.572 6.399 29.466 C 8.986 29.296 12.217 28.652 15.342 28.115 L 19.716 27.484 C 21.019 27.356 22.160 27.323 23.072 27.516 C 23.343 27.571 23.516 27.837 23.458 28.108 C 23.403 28.376 23.137 28.549 22.867 28.494 C 21.726 28.253 19.836 28.424 17.658 28.749 C 14.277 29.256 10.447 30.095 7.231 30.399 C 5.685 30.547 4.334 30.577 3.286 30.286 C 2.777 30.146 2.321 29.920 2.010 29.544 C 1.697 29.168 1.572 28.647 1.639 28.113 Z"/>
</g>
</svg>
