<svg xmlns="http://www.w3.org/2000/svg" viewBox="0 0 16.221 30.073" width="16.221" height="30.073">
<g fill="black" stroke="none">
<path d="M 3.952 1.655 C 4.033 1.170 4.496 0.837 4.982 0.918 C 5.472 0.999 5.800 1.462 5.719 1.947 L 5.769 2.991 L 5.067 6.610 L 4.015 10.661 L 2.725 18.836 L 2.455 22.307 L 2.307 24.128 L 2.172 27.289 L 2.100 28.314 L 1.992 28.759 L 1.421 29.303 C 0.881 29.488 0.454 29.078 0.351 28.917 C 0.085 28.503 0.207 27.950 0.625 27.680 C 1.043 27.415 1.596 27.536 1.861 27.954 L 1.781 27.846 L 1.610 27.703 L 1.304 27.577 L 0.922 27.586 L 0.634 27.716 L 0.396 27.959 L 0.315 28.130 L 0.382 27.212 L 0.522 24.007 L 0.670 22.186 L 0.944 18.633 L 2.271 10.252 L 3.323 6.197 L 3.979 3.067 L 3.952 1.655 Z"/>
<path d="M 0.027 27.509 C 0.058 27.015 0.486 26.641 0.980 26.677 C 1.475 26.709 1.848 27.136 1.812 27.631 L 1.794 28.175 L 1.785 28.116 L 1.758 28.031 L 1.682 27.860 L 1.412 27.577 L 0.818 27.437 L 0.405 27.599 L 0.247 27.748 L 0.157 27.887 L 0.166 27.828 L 0.589 25.976 C 0.688 25.495 1.165 25.185 1.650 25.284 C 2.131 25.387 2.442 25.864 2.343 26.345 L 1.812 28.561 L 1.709 28.777 L 1.093 29.204 C 0.607 29.299 0.207 28.899 0.112 28.723 L 0.000 28.080 L 0.027 27.509 Z"/>
<path d="M 5.620 4.776 C 5.310 5.162 4.748 5.225 4.361 4.911 C 3.975 4.605 3.916 4.038 4.227 3.652 C 4.937 2.766 5.773 2.091 6.691 1.736 C 7.666 1.363 8.566 1.583 9.240 1.642 L 10.760 1.565 L 13.826 0.225 C 14.334 0.014 15.130 -0.220 15.737 0.392 C 16.331 0.985 16.259 1.727 16.142 2.608 C 16.074 3.099 15.625 3.445 15.135 3.377 C 14.645 3.310 14.298 2.860 14.366 2.370 L 14.402 1.619 L 14.721 1.790 C 14.262 1.903 12.815 2.991 11.101 3.323 L 9.087 3.422 L 7.334 3.413 L 5.620 4.776 Z"/>
<path d="M 5.279 13.944 C 5.463 13.481 5.989 13.260 6.448 13.449 C 6.906 13.633 7.127 14.155 6.938 14.614 L 6.843 15.050 L 7.095 15.162 L 6.776 15.212 L 6.704 15.243 L 7.387 14.452 C 8.471 13.395 10.004 12.824 11.245 12.276 C 12.176 11.862 13.057 11.435 14.024 11.552 C 14.532 11.615 15.121 11.992 15.337 12.545 L 15.346 14.299 C 15.238 14.780 14.753 15.081 14.271 14.969 C 13.790 14.861 13.489 14.380 13.601 13.894 L 13.669 13.193 L 13.813 13.332 L 11.969 13.912 C 10.710 14.470 9.339 15.054 8.637 15.738 L 8.170 16.291 C 7.959 16.538 7.738 17.024 6.929 16.947 L 5.571 16.327 C 4.982 15.756 4.932 14.798 5.279 13.944 Z"/>
<path d="M 3.197 28.521 C 2.716 28.390 2.437 27.900 2.563 27.424 C 2.693 26.943 3.183 26.664 3.660 26.790 C 4.717 27.078 5.252 27.851 5.800 28.143 C 6.245 28.377 7.104 28.296 8.206 27.815 L 11.992 25.481 C 12.392 25.189 12.954 25.275 13.246 25.675 C 13.538 26.075 13.449 26.637 13.053 26.929 L 8.925 29.452 C 7.590 30.041 6.169 30.364 4.964 29.726 L 3.197 28.521 Z"/>
</g>
</svg>
