<svg xmlns="http://www.w3.org/2000/svg" viewBox="0 0 6.369 8.439" width="6.369" height="8.439">
<g fill="black" stroke="none">
<path d="M 0.597 0.268 C 0.598 0.118 0.721 -0.001 0.871 0.000 C 1.020 0.003 1.140 0.125 1.139 0.275 L 1.144 1.456 L 1.181 2.062 L 1.242 2.345 C 1.385 2.855 1.268 3.353 1.253 3.784 L 1.162 5.319 L 1.018 6.027 L 0.805 7.302 L 0.643 8.155 C 0.623 8.241 0.657 8.331 0.466 8.439 L 0.147 8.416 C -0.053 8.257 0.012 8.165 0.004 8.049 L 0.015 7.601 L 0.204 6.660 L 0.534 5.087 C 0.767 4.112 1.019 3.156 1.469 2.272 C 1.997 1.237 2.920 0.471 3.874 0.196 C 4.309 0.071 4.749 0.052 5.135 0.144 C 5.624 0.263 5.952 0.683 6.127 1.176 C 6.308 1.679 6.371 2.287 6.369 2.932 C 6.369 4.266 6.092 5.717 5.846 6.704 L 5.686 7.284 L 5.591 7.547 L 5.534 7.639 L 5.437 7.716 L 5.175 7.705 C 5.032 7.619 5.045 7.535 5.040 7.496 L 5.156 6.707 C 5.186 6.560 5.330 6.466 5.477 6.498 C 5.622 6.528 5.716 6.672 5.686 6.819 L 5.584 7.375 L 5.579 7.433 L 5.576 7.409 L 5.554 7.348 C 5.571 7.381 5.358 7.192 5.432 7.227 C 5.507 7.264 5.161 7.245 5.213 7.223 L 5.130 7.279 C 5.162 7.246 5.828 4.858 5.828 2.932 C 5.828 2.326 5.765 1.772 5.617 1.358 C 5.478 0.968 5.274 0.736 5.009 0.672 C 4.728 0.604 4.377 0.615 4.025 0.717 C 3.236 0.944 2.412 1.617 1.952 2.519 C 1.535 3.337 1.292 4.250 1.061 5.213 L 0.733 6.778 L 0.554 7.650 L 0.554 8.086 L 0.530 8.041 L 0.465 7.978 L 0.333 7.936 L 0.213 7.962 L 0.152 8.003 L 0.114 8.050 L 0.115 8.033 L 0.270 7.209 L 0.488 5.911 L 0.623 5.261 L 0.711 3.765 C 0.728 3.278 0.816 2.834 0.721 2.490 L 0.642 2.121 L 0.603 1.472 L 0.597 0.268 Z"/>
</g>
</svg>
