<svg xmlns="http://www.w3.org/2000/svg" viewBox="0 0 4.721 6.203" width="4.721" height="6.203">
<g fill="black" stroke="none">
<path d="M 0.478 0.198 C 0.479 0.088 0.569 0.000 0.679 0.001 C 0.789 0.003 0.877 0.093 0.876 0.203 L 0.880 1.071 L 0.907 1.516 L 0.952 1.724 C 1.057 2.099 0.971 2.465 0.960 2.782 L 0.893 3.910 L 0.787 4.430 L 0.631 5.367 L 0.512 5.994 C 0.497 6.057 0.522 6.123 0.382 6.203 L 0.147 6.186 C 0.000 6.069 0.048 6.001 0.042 5.916 L 0.050 5.587 L 0.189 4.895 L 0.432 3.739 C 0.603 3.023 0.788 2.320 1.119 1.671 C 1.507 0.910 2.185 0.347 2.886 0.145 C 3.206 0.053 3.529 0.039 3.813 0.107 C 4.172 0.194 4.413 0.503 4.542 0.865 C 4.675 1.235 4.721 1.682 4.720 2.156 C 4.720 3.136 4.516 4.202 4.335 4.928 L 4.218 5.354 L 4.148 5.547 L 4.106 5.615 L 4.035 5.671 L 3.842 5.663 C 3.737 5.600 3.747 5.538 3.743 5.510 L 3.828 4.930 C 3.850 4.822 3.956 4.753 4.064 4.776 C 4.171 4.798 4.240 4.904 4.218 5.012 L 4.143 5.421 L 4.139 5.463 L 4.137 5.446 L 4.121 5.401 C 4.133 5.425 3.977 5.286 4.031 5.312 C 4.086 5.339 3.832 5.325 3.870 5.309 L 3.809 5.350 C 3.833 5.326 4.322 3.571 4.322 2.156 C 4.322 1.710 4.276 1.303 4.167 0.999 C 4.065 0.712 3.915 0.542 3.720 0.495 C 3.514 0.445 3.256 0.453 2.997 0.528 C 2.417 0.695 1.812 1.189 1.474 1.852 C 1.167 2.453 0.989 3.124 0.819 3.832 L 0.578 4.982 L 0.446 5.623 L 0.446 5.943 L 0.429 5.910 L 0.381 5.864 L 0.284 5.833 L 0.196 5.852 L 0.151 5.882 L 0.123 5.917 L 0.124 5.904 L 0.238 5.299 L 0.398 4.345 L 0.497 3.867 L 0.562 2.768 C 0.574 2.410 0.639 2.084 0.569 1.831 L 0.511 1.560 L 0.482 1.083 L 0.478 0.198 Z"/>
</g>
</svg>
