<svg xmlns="http://www.w3.org/2000/svg" viewBox="0 0 14.349 21.156" width="14.349" height="21.156">
<g fill="black" stroke="none">
<path d="M 0.351 2.132 C 0.110 2.078 -0.043 1.839 0.010 1.598 C 0.062 1.354 0.303 1.201 0.544 1.255 C 1.065 1.370 1.519 1.701 1.725 2.185 C 1.933 2.677 1.971 3.288 1.980 4.088 L 1.980 15.030 L 1.931 18.065 L 1.903 20.062 L 1.872 20.704 L 1.867 20.748 L 1.856 20.644 L 1.814 20.538 C 1.840 20.585 1.530 20.306 1.633 20.360 C 1.734 20.414 1.205 20.351 1.300 20.323 L 1.133 20.412 L 1.047 20.511 L 1.018 20.563 L 1.029 20.529 L 1.563 17.845 C 2.147 15.690 3.375 13.073 4.610 10.414 C 5.813 7.820 7.222 5.393 8.518 3.457 C 9.945 1.325 11.202 -0.162 12.507 0.009 C 13.165 0.095 13.411 0.743 13.593 1.365 L 13.985 3.495 C 14.324 6.157 14.382 9.373 14.335 12.386 L 14.195 16.490 L 13.985 19.323 C 13.959 19.569 13.737 19.747 13.493 19.720 C 13.245 19.693 13.066 19.472 13.094 19.226 L 13.298 16.443 C 13.497 12.701 13.593 7.536 13.094 3.610 L 12.731 1.615 L 12.483 1.014 L 12.390 0.899 C 12.185 0.871 11.741 1.059 11.202 1.555 C 10.621 2.091 9.965 2.909 9.264 3.957 C 7.995 5.852 6.605 8.249 5.424 10.791 C 4.191 13.448 2.981 16.046 2.430 18.079 L 1.881 20.813 L 1.849 20.905 L 1.820 20.966 L 1.628 21.156 L 1.164 21.123 L 0.975 20.815 L 0.986 20.509 L 1.007 20.051 L 1.034 18.052 L 1.083 15.014 L 1.083 4.101 L 0.898 2.535 C 0.795 2.294 0.682 2.204 0.351 2.132 Z"/>
</g>
</svg>
