<svg xmlns="http://www.w3.org/2000/svg" viewBox="0 0 15.964 21.153" width="15.964" height="21.153">
<g fill="black" stroke="none">
<path d="M 1.496 0.672 C 1.500 0.297 1.807 -0.003 2.182 0.000 C 2.557 0.007 2.857 0.314 2.854 0.689 L 2.868 3.649 L 2.960 5.167 L 3.113 5.876 C 3.471 7.155 3.178 8.404 3.140 9.485 L 2.912 13.332 L 2.550 15.106 L 2.018 18.301 L 1.612 20.440 C 1.561 20.655 1.647 20.880 1.169 21.153 L 0.368 21.095 C -0.134 20.696 0.030 20.464 0.009 20.174 L 0.037 19.052 L 0.511 16.691 L 1.340 12.749 C 1.923 10.307 2.554 7.909 3.683 5.696 C 5.006 3.100 7.318 1.180 9.709 0.491 C 10.801 0.177 11.902 0.130 12.871 0.362 C 14.095 0.658 14.917 1.712 15.357 2.947 C 15.811 4.209 15.968 5.733 15.964 7.350 C 15.964 10.692 15.268 14.328 14.651 16.804 L 14.252 18.257 L 14.013 18.915 L 13.870 19.147 L 13.628 19.338 L 12.970 19.311 C 12.612 19.096 12.646 18.884 12.632 18.789 L 12.922 16.811 C 12.997 16.443 13.359 16.207 13.727 16.286 C 14.092 16.361 14.327 16.722 14.252 17.091 L 13.996 18.485 L 13.983 18.629 L 13.976 18.571 L 13.921 18.417 C 13.962 18.499 13.430 18.025 13.614 18.114 C 13.802 18.206 12.936 18.158 13.065 18.103 L 12.857 18.243 C 12.939 18.161 14.607 12.176 14.607 7.350 C 14.607 5.829 14.450 4.441 14.078 3.404 C 13.730 2.425 13.219 1.845 12.554 1.685 C 11.851 1.514 10.971 1.542 10.088 1.797 C 8.110 2.367 6.046 4.052 4.893 6.313 C 3.846 8.363 3.239 10.651 2.660 13.066 L 1.838 16.988 L 1.387 19.174 L 1.387 20.266 L 1.329 20.153 L 1.166 19.996 L 0.835 19.891 L 0.535 19.955 L 0.381 20.058 L 0.286 20.177 L 0.289 20.133 L 0.678 18.069 L 1.224 14.816 L 1.561 13.185 L 1.783 9.437 C 1.824 8.216 2.046 7.104 1.807 6.241 L 1.609 5.317 L 1.510 3.690 L 1.496 0.672 Z"/>
</g>
</svg>
