<svg xmlns="http://www.w3.org/2000/svg" viewBox="0 0 2.780 6.252" width="2.780" height="6.252">
<g fill="black" stroke="none">
<path d="M 0.422 1.382 C 0.512 1.446 0.533 1.570 0.470 1.660 C 0.406 1.750 0.282 1.771 0.192 1.707 C 0.064 1.616 0.000 1.452 0.012 1.310 C 0.049 0.893 0.452 0.528 0.912 0.273 C 1.218 0.103 1.560 0.000 1.879 0.032 C 2.073 0.051 2.307 0.126 2.444 0.339 C 2.640 0.644 2.650 1.083 2.606 1.581 C 2.529 2.463 2.073 3.469 1.619 4.310 C 1.302 4.895 0.956 5.326 0.716 5.624 L 0.478 5.919 L 0.470 5.866 L 0.426 5.812 L 1.406 5.743 L 2.564 5.533 C 2.674 5.527 2.768 5.611 2.774 5.721 C 2.780 5.831 2.695 5.925 2.586 5.931 L 1.477 6.135 L 0.781 6.229 C 0.571 6.242 0.388 6.252 0.224 6.155 L 0.081 5.941 L 0.136 5.715 L 0.405 5.374 C 0.644 5.078 0.970 4.671 1.268 4.121 C 1.710 3.304 2.141 2.322 2.209 1.546 C 2.249 1.086 2.209 0.711 2.109 0.555 C 2.052 0.466 1.980 0.442 1.840 0.428 C 1.634 0.408 1.356 0.482 1.105 0.621 C 0.849 0.763 0.622 0.964 0.499 1.146 L 0.409 1.345 L 0.422 1.382 Z"/>
</g>
</svg>
