<svg xmlns="http://www.w3.org/2000/svg" viewBox="0 0 2.763 6.210" width="2.763" height="6.210">
<g fill="none" stroke="black" stroke-width="0.124" stroke-linecap="round" stroke-linejoin="round">
<path d="M 2.557 5.704 L 2.368 5.728 L 2.326 5.735 L 2.268 5.745 L 2.198 5.757 L 2.121 5.771 L 2.040 5.785 L 1.956 5.801 L 1.871 5.816 L 1.786 5.831 L 1.700 5.846 L 1.614 5.860 L 1.528 5.874 L 1.442 5.886 L 1.356 5.898 L 1.270 5.908 L 1.184 5.918 L 1.097 5.927 L 1.011 5.934 L 0.926 5.939 L 0.842 5.940 L 0.762 5.937 L 0.686 5.927 L 0.618 5.908 L 0.560 5.880 L 0.517 5.840 L 0.489 5.791 L 0.477 5.732 L 0.481 5.667 L 0.498 5.597 L 0.527 5.526 L 0.564 5.455 L 0.608 5.383 L 0.656 5.313 L 0.706 5.243 L 0.758 5.173 L 0.810 5.104 L 0.862 5.035 L 0.914 4.965 L 0.965 4.895 L 1.016 4.824 L 1.065 4.753 L 1.114 4.680 L 1.161 4.607 L 1.207 4.534 L 1.252 4.460 L 1.296 4.385 L 1.340 4.309 L 1.383 4.234 L 1.425 4.158 L 1.467 4.082 L 1.508 4.005 L 1.548 3.928 L 1.588 3.851 L 1.628 3.773 L 1.666 3.696 L 1.705 3.617 L 1.742 3.539 L 1.779 3.460 L 1.814 3.381 L 1.850 3.301 L 1.884 3.222 L 1.918 3.142 L 1.951 3.061 L 1.984 2.981 L 2.016 2.900 L 2.047 2.819 L 2.078 2.737 L 2.107 2.656 L 2.135 2.573 L 2.161 2.491 L 2.186 2.408 L 2.210 2.324 L 2.232 2.240 L 2.253 2.156 L 2.273 2.071 L 2.292 1.986 L 2.310 1.901 L 2.326 1.816 L 2.341 1.731 L 2.354 1.645 L 2.365 1.559 L 2.373 1.473 L 2.379 1.387 L 2.382 1.300 L 2.384 1.213 L 2.383 1.127 L 2.379 1.041 L 2.372 0.955 L 2.361 0.870 L 2.346 0.786 L 2.326 0.704 L 2.300 0.625 L 2.267 0.550 L 2.226 0.480 L 2.178 0.418 L 2.122 0.364 L 2.058 0.319 L 1.987 0.283 L 1.911 0.257 L 1.832 0.240 L 1.750 0.231 L 1.666 0.229 L 1.582 0.235 L 1.498 0.246 L 1.415 0.264 L 1.332 0.287 L 1.251 0.314 L 1.171 0.345 L 1.093 0.380 L 1.016 0.418 L 0.940 0.460 L 0.867 0.505 L 0.795 0.553 L 0.725 0.604 L 0.658 0.658 L 0.594 0.714 L 0.532 0.774 L 0.475 0.836 L 0.422 0.902 L 0.376 0.970 L 0.336 1.041 L 0.305 1.112 L 0.282 1.181 L 0.267 1.245 L 0.258 1.299 L 0.254 1.339 L 0.289 1.517"/>
</g>
</svg>