<svg xmlns="http://www.w3.org/2000/svg" viewBox="0 0 5.475 12.304" width="5.475" height="12.304">
<g fill="black" stroke="none">
<path d="M 0.815 2.685 C 0.993 2.812 1.035 3.057 0.910 3.236 C 0.783 3.414 0.538 3.456 0.359 3.329 C 0.106 3.148 -0.021 2.824 0.003 2.542 C 0.076 1.716 0.875 0.993 1.786 0.488 C 2.392 0.151 3.070 -0.053 3.702 0.010 C 4.086 0.048 4.550 0.197 4.821 0.619 C 5.209 1.223 5.229 2.093 5.142 3.079 C 4.989 4.826 4.086 6.819 3.186 8.486 C 2.558 9.645 1.873 10.498 1.398 11.089 L 0.926 11.673 L 0.910 11.568 L 0.823 11.461 L 2.765 11.325 L 5.059 10.909 C 5.277 10.897 5.463 11.063 5.475 11.281 C 5.487 11.499 5.318 11.685 5.102 11.697 L 2.905 12.101 L 1.526 12.287 C 1.110 12.313 0.748 12.333 0.423 12.141 L 0.140 11.717 L 0.248 11.269 L 0.781 10.594 C 1.255 10.007 1.901 9.201 2.491 8.111 C 3.367 6.493 4.221 4.547 4.355 3.010 C 4.435 2.098 4.355 1.356 4.157 1.046 C 4.044 0.870 3.902 0.823 3.624 0.795 C 3.216 0.755 2.665 0.902 2.168 1.177 C 1.661 1.459 1.211 1.857 0.968 2.217 L 0.789 2.612 L 0.815 2.685 Z"/>
</g>
</svg>
