<svg xmlns="http://www.w3.org/2000/svg" viewBox="0 0 13.722 30.837" width="13.722" height="30.837">
<g fill="black" stroke="none">
<path d="M 2.043 6.729 C 2.490 7.047 2.594 7.663 2.281 8.110 C 1.963 8.557 1.348 8.661 0.901 8.343 C 0.265 7.891 -0.053 7.077 0.007 6.372 C 0.191 4.301 2.192 2.489 4.476 1.223 C 5.995 0.379 7.694 -0.133 9.278 0.026 C 10.241 0.120 11.403 0.493 12.083 1.550 C 13.056 3.065 13.106 5.245 12.887 7.717 C 12.505 12.097 10.241 17.092 7.987 21.268 C 6.413 24.173 4.694 26.313 3.503 27.793 L 2.321 29.258 L 2.281 28.994 L 2.063 28.726 L 6.929 28.384 L 12.679 27.341 C 13.225 27.311 13.692 27.728 13.722 28.274 C 13.751 28.821 13.329 29.287 12.788 29.317 L 7.281 30.330 L 3.826 30.797 C 2.783 30.861 1.874 30.911 1.060 30.429 L 0.350 29.367 L 0.623 28.245 L 1.958 26.551 C 3.145 25.082 4.764 23.061 6.244 20.330 C 8.438 16.273 10.579 11.397 10.916 7.544 C 11.115 5.260 10.916 3.398 10.420 2.623 C 10.137 2.181 9.779 2.062 9.084 1.992 C 8.061 1.893 6.681 2.260 5.434 2.951 C 4.163 3.656 3.036 4.654 2.425 5.557 L 1.978 6.546 L 2.043 6.729 Z"/>
</g>
</svg>
