<svg xmlns="http://www.w3.org/2000/svg" viewBox="0 0 4.927 9.860" width="4.927" height="9.860">
<g fill="black" stroke="none">
<path d="M 4.909 0.191 C 4.927 0.300 4.854 0.402 4.745 0.420 C 4.637 0.438 4.534 0.365 4.516 0.256 L 4.522 0.279 L 4.555 0.340 L 4.613 0.387 L 4.711 0.412 L 4.796 0.390 L 4.841 0.359 L 4.873 0.321 L 4.884 0.298 L 4.738 1.294 L 4.585 3.427 L 4.534 4.779 L 4.497 6.169 L 4.463 6.723 L 4.433 6.894 L 4.396 6.983 C 4.370 7.025 4.262 7.113 4.148 7.073 L 4.008 6.932 C 3.912 6.702 3.928 6.352 3.865 6.029 C 3.788 5.637 3.605 5.284 3.341 5.089 C 3.156 4.953 2.874 4.892 2.568 4.920 L 1.983 5.041 C 1.536 5.252 1.141 5.941 0.902 6.609 C 0.659 7.286 0.640 7.916 0.778 8.400 C 0.910 8.863 1.187 9.183 1.512 9.289 C 2.343 9.560 3.744 8.514 3.929 7.418 C 3.947 7.310 4.050 7.237 4.159 7.255 C 4.267 7.273 4.340 7.376 4.322 7.485 C 4.209 8.155 3.762 8.772 3.207 9.197 C 2.657 9.618 1.978 9.860 1.389 9.668 C 0.437 9.358 0.000 7.942 0.527 6.474 C 0.783 5.760 1.177 4.980 1.813 4.681 C 2.066 4.561 2.319 4.543 2.532 4.523 C 2.912 4.489 3.291 4.557 3.577 4.768 C 3.948 5.042 4.165 5.488 4.256 5.953 L 4.339 6.550 L 4.368 6.748 L 4.376 6.779 L 4.361 6.755 L 4.335 6.728 L 4.280 6.697 L 4.194 6.687 L 4.121 6.712 L 4.081 6.743 L 4.053 6.781 L 4.056 6.757 L 4.099 6.156 L 4.136 4.767 L 4.188 3.406 L 4.342 1.251 L 4.456 0.401 L 4.500 0.191 L 4.557 0.080 L 4.681 0.015 C 4.794 0.000 4.870 0.089 4.889 0.127 L 4.909 0.191 Z"/>
</g>
</svg>
