<svg xmlns="http://www.w3.org/2000/svg" viewBox="0 0 6.044 12.754" width="6.044" height="12.754">
<g fill="black" stroke="none">
<path d="M 6.041 0.233 C 6.065 0.376 5.969 0.510 5.826 0.534 C 5.684 0.557 5.549 0.461 5.525 0.318 L 5.533 0.349 L 5.576 0.429 L 5.653 0.490 L 5.781 0.523 L 5.893 0.494 L 5.952 0.454 L 5.994 0.404 L 6.008 0.373 L 5.817 1.680 L 5.616 4.479 L 5.549 6.253 L 5.500 8.076 L 5.456 8.803 L 5.416 9.028 L 5.368 9.144 C 5.334 9.199 5.192 9.315 5.042 9.262 L 4.859 9.077 C 4.733 8.776 4.754 8.316 4.671 7.893 C 4.570 7.378 4.330 6.915 3.984 6.659 C 3.741 6.481 3.371 6.401 2.969 6.438 L 2.202 6.596 C 1.615 6.873 1.097 7.777 0.784 8.654 C 0.465 9.542 0.440 10.368 0.621 11.003 C 0.794 11.611 1.158 12.031 1.584 12.170 C 2.674 12.525 4.512 11.153 4.755 9.715 C 4.779 9.573 4.914 9.478 5.057 9.501 C 5.199 9.525 5.294 9.660 5.271 9.803 C 5.123 10.682 4.536 11.492 3.808 12.049 C 3.086 12.601 2.195 12.919 1.423 12.667 C 0.174 12.260 -0.400 10.403 0.292 8.477 C 0.628 7.540 1.144 6.516 1.979 6.124 C 2.311 5.967 2.643 5.943 2.922 5.917 C 3.421 5.872 3.918 5.961 4.293 6.238 C 4.780 6.598 5.065 7.183 5.184 7.793 L 5.293 8.576 L 5.331 8.836 L 5.342 8.877 L 5.322 8.845 L 5.288 8.810 L 5.216 8.769 L 5.103 8.756 L 5.007 8.789 L 4.955 8.829 L 4.918 8.879 L 4.922 8.848 L 4.978 8.059 L 5.027 6.237 L 5.095 4.451 L 5.297 1.624 L 5.447 0.509 L 5.504 0.233 L 5.579 0.087 L 5.742 0.002 C 5.890 -0.017 5.990 0.099 6.015 0.149 L 6.041 0.233 Z"/>
</g>
</svg>
