<svg xmlns="http://www.w3.org/2000/svg" viewBox="0 0 14.935 31.185" width="14.935" height="31.185">
<g fill="black" stroke="none">
<path d="M 7.514 13.581 C 7.643 13.745 7.617 13.985 7.451 14.115 C 7.287 14.244 7.046 14.216 6.917 14.050 C 6.705 13.781 6.556 13.748 6.314 13.834 C 5.885 13.989 5.261 14.666 4.649 15.692 C 4.004 16.774 3.369 18.183 2.789 19.780 C 2.045 21.833 1.453 24.122 1.101 26.081 L 0.788 28.354 C 0.755 28.950 0.809 29.400 0.935 29.650 C 1.045 29.867 1.234 29.970 1.541 29.962 C 1.875 29.953 2.327 29.787 2.794 29.440 C 3.496 28.927 4.235 27.940 4.959 26.693 C 5.711 25.403 6.436 23.872 7.128 22.256 C 8.452 19.173 9.343 15.704 9.787 12.259 C 10.173 9.287 10.068 6.315 10.112 3.906 L 10.312 0.995 L 10.384 0.365 L 10.407 0.274 C 10.421 0.232 10.365 0.100 10.673 0.012 C 10.846 -0.037 11.025 0.075 11.081 0.144 L 11.172 0.407 L 11.197 1.460 L 11.188 4.848 L 11.201 9.746 C 11.230 12.966 11.319 16.417 11.529 19.561 L 12.017 24.213 C 12.317 26.142 12.712 27.618 13.194 28.667 C 13.644 29.646 14.171 30.224 14.707 30.456 C 14.900 30.538 14.987 30.764 14.903 30.956 C 14.820 31.149 14.596 31.237 14.404 31.153 C 13.377 30.708 12.597 29.528 12.025 27.733 L 11.266 24.331 L 10.772 19.612 C 10.560 16.446 10.470 12.982 10.440 9.754 L 10.426 5.371 L 10.436 2.778 L 10.423 0.579 L 10.419 0.485 L 10.442 0.548 C 10.423 0.512 10.741 0.783 10.613 0.720 C 10.478 0.653 11.096 0.605 11.022 0.668 L 11.111 0.556 L 11.132 0.502 L 11.069 1.063 L 10.873 3.919 C 10.829 6.301 10.938 9.308 10.541 12.356 C 10.089 15.866 9.183 19.399 7.826 22.555 C 7.126 24.188 6.392 25.747 5.618 27.074 C 4.864 28.368 4.095 29.428 3.245 30.052 C 2.684 30.466 2.104 30.708 1.560 30.722 C 1.028 30.737 0.502 30.474 0.257 29.993 C -0.204 29.081 0.034 27.706 0.351 25.945 C 0.713 23.942 1.314 21.623 2.075 19.521 C 2.861 17.356 3.737 15.511 4.666 14.305 C 5.104 13.733 5.551 13.300 6.058 13.119 C 6.560 12.938 7.153 13.121 7.514 13.581 Z"/>
</g>
</svg>
