<svg xmlns="http://www.w3.org/2000/svg" viewBox="0 0 15.528 32.424" width="15.528" height="32.424">
<g fill="black" stroke="none">
<path d="M 7.813 14.121 C 7.947 14.291 7.920 14.541 7.747 14.676 C 7.577 14.810 7.326 14.781 7.192 14.608 C 6.971 14.328 6.816 14.294 6.565 14.384 C 6.119 14.545 5.470 15.249 4.834 16.315 C 4.163 17.440 3.503 18.905 2.900 20.566 C 2.126 22.700 1.511 25.080 1.145 27.117 L 0.819 29.480 C 0.785 30.100 0.841 30.568 0.972 30.828 C 1.087 31.053 1.283 31.161 1.602 31.152 C 1.950 31.143 2.419 30.970 2.905 30.610 C 3.635 30.076 4.403 29.050 5.156 27.753 C 5.938 26.412 6.692 24.820 7.411 23.140 C 8.788 19.935 9.714 16.328 10.176 12.746 C 10.577 9.656 10.468 6.566 10.514 4.061 L 10.722 1.035 L 10.797 0.380 L 10.820 0.285 C 10.835 0.241 10.777 0.104 11.097 0.013 C 11.277 -0.038 11.463 0.078 11.521 0.150 L 11.616 0.423 L 11.642 1.518 L 11.632 5.041 L 11.646 10.133 C 11.676 13.481 11.769 17.069 11.987 20.338 L 12.494 25.175 C 12.806 27.180 13.217 28.715 13.718 29.806 C 14.186 30.824 14.734 31.425 15.291 31.666 C 15.492 31.751 15.582 31.986 15.495 32.186 C 15.409 32.386 15.176 32.478 14.976 32.391 C 13.908 31.928 13.097 30.701 12.503 28.835 L 11.714 25.298 L 11.200 20.391 C 10.980 17.099 10.886 13.498 10.855 10.141 L 10.840 5.584 L 10.851 2.888 L 10.837 0.602 L 10.833 0.504 L 10.857 0.570 C 10.837 0.532 11.168 0.814 11.035 0.749 C 10.894 0.679 11.537 0.629 11.460 0.695 L 11.552 0.578 L 11.574 0.522 L 11.509 1.105 L 11.305 4.075 C 11.259 6.551 11.373 9.678 10.960 12.847 C 10.490 16.496 9.548 20.170 8.137 23.451 C 7.409 25.149 6.646 26.770 5.841 28.150 C 5.057 29.495 4.258 30.597 3.374 31.246 C 2.791 31.676 2.188 31.928 1.622 31.942 C 1.069 31.958 0.522 31.685 0.267 31.184 C -0.212 30.236 0.035 28.807 0.365 26.976 C 0.741 24.893 1.366 22.482 2.157 20.296 C 2.975 18.045 3.885 16.127 4.851 14.873 C 5.307 14.279 5.772 13.828 6.299 13.640 C 6.821 13.452 7.437 13.642 7.813 14.121 Z"/>
</g>
</svg>
