<svg xmlns="http://www.w3.org/2000/svg" viewBox="0 0 15.150 31.968" width="15.150" height="31.968">
<g fill="black" stroke="none">
<path d="M 15.141 0.584 C 15.200 0.943 14.960 1.278 14.602 1.337 C 14.246 1.397 13.908 1.156 13.848 0.798 L 13.868 0.874 L 13.977 1.074 L 14.167 1.229 L 14.490 1.311 L 14.769 1.239 L 14.917 1.137 L 15.022 1.012 L 15.059 0.936 L 14.579 4.211 L 14.075 11.226 L 13.908 15.672 L 13.786 20.242 L 13.674 22.064 L 13.576 22.627 L 13.454 22.919 C 13.368 23.057 13.013 23.347 12.638 23.215 L 12.178 22.751 C 11.862 21.995 11.915 20.844 11.708 19.782 C 11.455 18.493 10.853 17.332 9.985 16.691 C 9.376 16.244 8.449 16.043 7.443 16.135 L 5.519 16.533 C 4.049 17.227 2.750 19.493 1.964 21.689 C 1.165 23.916 1.103 25.987 1.556 27.579 C 1.990 29.101 2.901 30.154 3.970 30.502 C 6.703 31.393 11.310 27.954 11.918 24.350 C 11.977 23.995 12.316 23.754 12.675 23.814 C 13.030 23.873 13.270 24.212 13.211 24.570 C 12.839 26.773 11.369 28.802 9.544 30.200 C 7.735 31.584 5.502 32.380 3.566 31.749 C 0.435 30.729 -1.002 26.073 0.731 21.245 C 1.573 18.897 2.868 16.332 4.960 15.349 C 5.792 14.955 6.624 14.895 7.324 14.830 C 8.574 14.718 9.820 14.941 10.761 15.635 C 11.981 16.536 12.694 18.003 12.994 19.532 L 13.266 21.495 L 13.362 22.146 L 13.388 22.248 L 13.339 22.169 L 13.253 22.081 L 13.072 21.979 L 12.790 21.946 L 12.550 22.028 L 12.418 22.130 L 12.326 22.255 L 12.336 22.176 L 12.477 20.200 L 12.599 15.632 L 12.770 11.157 L 13.276 4.070 L 13.651 1.275 L 13.796 0.584 L 13.983 0.219 L 14.391 0.006 C 14.763 -0.044 15.013 0.249 15.075 0.374 L 15.141 0.584 Z"/>
</g>
</svg>
