<svg xmlns="http://www.w3.org/2000/svg" viewBox="0 0 3.127 9.014" width="3.127" height="9.014">
<g fill="black" stroke="none">
<path d="M 0.462 1.247 C 0.465 1.357 0.377 1.448 0.267 1.451 C 0.157 1.453 0.066 1.366 0.064 1.256 L 0.064 1.116 L 0.065 1.095 L 0.090 1.006 C 0.144 0.909 0.265 0.875 0.361 0.928 C 0.457 0.982 0.492 1.103 0.438 1.199 L 0.454 1.161 L 0.462 1.126 L 0.462 1.247 Z"/>
<path d="M 0.092 1.203 C 0.037 1.108 0.069 0.986 0.164 0.931 C 0.259 0.875 0.381 0.907 0.436 1.002 L 0.463 1.083 L 0.473 1.606 L 0.473 2.572 L 0.432 3.619 L 0.402 5.384 L 0.402 5.949 L 0.402 6.770 L 0.402 8.117 L 0.402 8.684 L 0.401 8.817 C 0.398 8.927 0.307 9.014 0.197 9.012 C 0.087 9.009 0.000 8.918 0.003 8.808 L 0.003 8.684 L 0.003 8.117 L 0.003 6.771 L 0.003 5.950 L 0.003 5.380 L 0.034 3.605 L 0.075 2.567 L 0.075 1.608 L 0.070 1.243 L 0.068 1.147 L 0.067 1.126 L 0.069 1.140 L 0.073 1.156 L 0.092 1.203 Z"/>
<path d="M 0.401 8.811 C 0.402 8.921 0.313 9.011 0.203 9.012 C 0.093 9.013 0.003 8.924 0.003 8.814 L 0.014 8.143 C 0.016 8.033 0.108 7.946 0.218 7.948 C 0.328 7.950 0.415 8.042 0.412 8.152 L 0.401 8.811 Z"/>
<path d="M 0.165 1.501 C 0.073 1.441 0.047 1.317 0.107 1.225 C 0.167 1.133 0.290 1.107 0.382 1.167 L 0.474 1.165 L 0.722 0.959 L 1.288 0.499 C 1.616 0.283 2.010 0.097 2.372 0.035 C 2.549 0.005 2.727 0.000 2.883 0.088 C 3.044 0.178 3.127 0.385 3.104 0.587 C 3.092 0.696 2.993 0.775 2.884 0.762 C 2.774 0.750 2.696 0.651 2.708 0.542 L 2.688 0.435 C 2.573 0.371 1.944 0.544 1.507 0.832 L 1.002 1.243 L 0.654 1.520 C 0.516 1.590 0.318 1.600 0.165 1.501 Z"/>
<path d="M 0.667 4.597 C 0.771 4.563 0.884 4.619 0.919 4.723 C 0.954 4.828 0.897 4.940 0.793 4.975 L 0.821 4.960 L 0.870 4.909 L 0.895 4.852 L 0.899 4.776 L 0.877 4.710 L 0.822 4.647 L 0.775 4.623 L 0.948 4.627 C 1.267 4.620 1.753 4.523 2.242 4.354 C 2.346 4.318 2.460 4.373 2.496 4.477 C 2.532 4.581 2.477 4.694 2.372 4.730 C 1.850 4.911 1.340 5.017 0.957 5.026 L 0.712 5.016 L 0.652 5.002 L 0.569 4.954 L 0.504 4.781 L 0.606 4.625 L 0.667 4.597 Z"/>
</g>
</svg>
