<svg xmlns="http://www.w3.org/2000/svg" viewBox="0 0 17.735 30.468" width="17.735" height="30.468">
<g fill="black" stroke="none">
<path d="M 1.926 3.673 C 1.944 3.944 1.739 4.175 1.469 4.192 C 1.198 4.210 0.965 4.003 0.950 3.735 L 0.888 2.918 C 0.881 2.876 2.283 3.132 1.425 3.255 C 0.657 3.366 1.835 2.844 1.833 2.861 L 1.835 4.278 L 1.894 7.142 L 2.354 22.063 L 2.605 28.117 L 2.701 29.738 L 2.731 30.019 L 2.704 29.940 C 2.763 30.065 1.769 30.090 1.816 29.969 L 1.796 30.036 C 1.828 29.768 2.069 29.576 2.340 29.605 C 2.608 29.637 2.800 29.878 2.770 30.149 L 2.733 30.319 C 2.689 30.439 1.921 30.550 1.830 30.385 L 1.749 30.075 L 1.616 27.969 L 1.309 20.272 L 0.908 6.911 L 0.846 3.162 L 0.856 2.797 L 0.871 2.674 C 0.886 2.608 1.393 2.096 1.712 2.433 L 1.843 2.687 L 1.926 3.673 Z"/>
<path d="M 1.808 2.714 C 2.030 2.874 2.079 3.179 1.919 3.398 C 1.762 3.619 1.457 3.668 1.235 3.508 L 0.158 2.485 C 0.003 2.232 -0.071 1.865 0.091 1.577 C 0.325 1.159 0.741 1.080 1.142 1.014 L 2.537 0.930 L 9.363 0.731 C 12.037 0.586 14.803 0.362 17.172 0.005 C 17.440 -0.034 17.688 0.150 17.730 0.419 C 17.770 0.684 17.585 0.935 17.317 0.975 C 14.899 1.339 12.109 1.565 9.415 1.710 L 2.537 1.912 L 0.918 2.094 L 0.972 1.971 L 0.974 1.941 L 1.808 2.714 Z"/>
<path d="M 3.781 12.827 C 3.599 12.628 3.614 12.318 3.813 12.136 C 4.015 11.954 4.323 11.969 4.507 12.168 C 4.893 12.596 5.511 12.798 6.332 12.820 C 9.048 12.894 13.177 11.152 17.243 11.162 C 17.514 11.164 17.733 11.383 17.733 11.654 C 17.730 11.925 17.511 12.143 17.241 12.143 C 14.714 12.136 12.035 12.886 9.607 13.391 C 7.250 13.883 5.014 14.185 3.781 12.827 Z"/>
</g>
</svg>
