<svg xmlns="http://www.w3.org/2000/svg" viewBox="0 0 4.203 12.179" width="4.203" height="12.179">
<g fill="black" stroke="none">
<path d="M 0.621 1.667 C 0.625 1.816 0.506 1.939 0.357 1.943 C 0.208 1.946 0.085 1.828 0.083 1.679 L 0.083 1.490 L 0.084 1.461 L 0.118 1.341 C 0.191 1.210 0.355 1.164 0.485 1.235 C 0.615 1.308 0.662 1.472 0.589 1.602 L 0.611 1.551 L 0.621 1.503 L 0.621 1.667 Z"/>
<path d="M 0.120 1.608 C 0.046 1.479 0.089 1.314 0.218 1.239 C 0.347 1.164 0.512 1.207 0.586 1.336 L 0.623 1.445 L 0.636 2.153 L 0.636 3.461 L 0.581 4.878 L 0.540 7.268 L 0.540 8.032 L 0.540 9.144 L 0.540 10.967 L 0.540 11.735 L 0.539 11.915 C 0.535 12.064 0.412 12.182 0.263 12.179 C 0.114 12.175 -0.004 12.052 0.000 11.903 L 0.000 11.735 L 0.000 10.967 L 0.000 9.145 L 0.000 8.034 L 0.000 7.262 L 0.042 4.859 L 0.097 3.454 L 0.097 2.156 L 0.091 1.662 L 0.088 1.532 L 0.087 1.503 L 0.089 1.522 L 0.095 1.544 L 0.120 1.608 Z"/>
<path d="M 0.539 11.907 C 0.540 12.056 0.420 12.178 0.271 12.179 C 0.122 12.180 0.000 12.060 0.000 11.911 L 0.015 11.003 C 0.018 10.854 0.142 10.736 0.291 10.739 C 0.440 10.741 0.558 10.866 0.554 11.015 L 0.539 11.907 Z"/>
<path d="M 0.219 2.011 C 0.095 1.930 0.060 1.762 0.141 1.637 C 0.222 1.513 0.389 1.478 0.513 1.559 L 0.638 1.556 L 0.973 1.277 L 1.740 0.655 C 2.184 0.362 2.717 0.110 3.207 0.026 C 3.447 -0.014 3.688 -0.021 3.899 0.098 C 4.117 0.220 4.229 0.500 4.198 0.774 C 4.182 0.921 4.048 1.028 3.900 1.011 C 3.751 0.994 3.646 0.860 3.662 0.713 L 3.635 0.568 C 3.479 0.481 2.628 0.716 2.036 1.105 L 1.352 1.662 L 0.881 2.037 C 0.694 2.132 0.426 2.145 0.219 2.011 Z"/>
<path d="M 0.899 6.202 C 1.040 6.156 1.193 6.232 1.240 6.373 C 1.287 6.515 1.210 6.667 1.069 6.714 L 1.107 6.694 L 1.174 6.625 L 1.208 6.547 L 1.213 6.445 L 1.183 6.355 L 1.109 6.270 L 1.045 6.237 L 1.279 6.243 C 1.711 6.233 2.369 6.102 3.031 5.873 C 3.172 5.824 3.326 5.899 3.375 6.040 C 3.424 6.181 3.349 6.333 3.207 6.382 C 2.500 6.627 1.810 6.771 1.291 6.783 L 0.960 6.769 L 0.879 6.750 L 0.766 6.685 L 0.678 6.451 L 0.816 6.240 L 0.899 6.202 Z"/>
</g>
</svg>
