<svg xmlns="http://www.w3.org/2000/svg" viewBox="0 0 10.534 30.525" width="10.534" height="30.525">
<g fill="black" stroke="none">
<path d="M 1.557 4.179 C 1.568 4.552 1.269 4.861 0.896 4.871 C 0.523 4.878 0.214 4.582 0.207 4.209 L 0.207 3.734 L 0.210 3.663 L 0.295 3.361 C 0.478 3.032 0.889 2.916 1.215 3.096 C 1.540 3.280 1.659 3.690 1.476 4.016 L 1.530 3.887 L 1.557 3.768 L 1.557 4.179 Z"/>
<path d="M 0.302 4.029 C 0.115 3.707 0.224 3.293 0.546 3.106 C 0.869 2.916 1.283 3.025 1.469 3.347 L 1.561 3.622 L 1.595 5.397 L 1.595 8.674 L 1.456 12.227 L 1.354 18.215 L 1.354 20.132 L 1.354 22.918 L 1.354 27.488 L 1.354 29.412 L 1.350 29.863 C 1.340 30.237 1.031 30.532 0.658 30.525 C 0.285 30.515 -0.010 30.206 0.000 29.833 L 0.000 29.412 L 0.000 27.488 L 0.000 22.921 L 0.000 20.136 L 0.000 18.202 L 0.105 12.179 L 0.244 8.657 L 0.244 5.403 L 0.227 4.165 L 0.221 3.839 L 0.217 3.768 L 0.224 3.816 L 0.238 3.870 L 0.302 4.029 Z"/>
<path d="M 1.350 29.843 C 1.354 30.216 1.052 30.522 0.679 30.525 C 0.305 30.528 0.000 30.226 0.000 29.853 L 0.037 27.576 C 0.044 27.203 0.356 26.908 0.729 26.915 C 1.103 26.922 1.398 27.234 1.388 27.607 L 1.350 29.843 Z"/>
<path d="M 0.550 5.040 C 0.238 4.837 0.149 4.416 0.353 4.104 C 0.556 3.792 0.974 3.704 1.286 3.907 L 1.598 3.900 L 2.440 3.201 L 4.360 1.641 C 5.473 0.908 6.810 0.277 8.038 0.066 C 8.638 -0.035 9.242 -0.052 9.772 0.246 C 10.318 0.552 10.600 1.254 10.522 1.939 C 10.481 2.309 10.145 2.577 9.775 2.533 C 9.402 2.492 9.137 2.156 9.178 1.787 L 9.110 1.424 C 8.720 1.206 6.586 1.793 5.103 2.771 L 3.390 4.165 L 2.209 5.105 C 1.741 5.342 1.069 5.376 0.550 5.040 Z"/>
<path d="M 2.253 15.545 C 2.606 15.430 2.989 15.620 3.108 15.973 C 3.227 16.329 3.033 16.709 2.680 16.828 L 2.775 16.777 L 2.942 16.604 L 3.027 16.410 L 3.040 16.152 L 2.965 15.928 L 2.779 15.715 L 2.619 15.633 L 3.206 15.647 C 4.289 15.623 5.938 15.294 7.597 14.721 C 7.950 14.598 8.337 14.785 8.459 15.138 C 8.581 15.491 8.394 15.874 8.038 15.996 C 6.267 16.610 4.536 16.970 3.237 17.001 L 2.406 16.967 L 2.202 16.919 L 1.920 16.756 L 1.700 16.169 L 2.046 15.640 L 2.253 15.545 Z"/>
</g>
</svg>
