<svg xmlns="http://www.w3.org/2000/svg" viewBox="0 0 3.924 8.220" width="3.924" height="8.220">
<g fill="black" stroke="none">
<path d="M 2.508 1.287 C 2.542 1.183 2.655 1.126 2.759 1.160 C 2.864 1.194 2.921 1.306 2.887 1.411 L 2.896 1.574 L 3.193 2.100 L 3.381 2.890 L 3.444 4.242 L 3.382 5.241 L 3.127 6.104 L 2.821 6.973 L 2.464 7.609 L 2.074 8.010 C 1.841 8.175 1.560 8.220 1.341 8.106 C 1.122 7.993 0.982 7.764 0.897 7.493 C 0.864 7.388 0.923 7.276 1.028 7.243 C 1.133 7.210 1.244 7.268 1.277 7.373 C 1.343 7.582 1.441 7.709 1.524 7.752 C 1.600 7.792 1.694 7.791 1.843 7.685 L 2.139 7.379 L 2.453 6.820 L 2.752 5.967 L 2.986 5.191 L 3.045 4.227 L 2.987 2.948 L 2.828 2.260 L 2.576 1.811 C 2.490 1.695 2.441 1.493 2.508 1.287 Z"/>
<path d="M 0.427 0.718 C 0.462 0.822 0.407 0.935 0.302 0.970 C 0.198 1.006 0.085 0.950 0.050 0.846 C 0.000 0.701 0.026 0.513 0.141 0.416 L 0.486 0.301 L 1.508 0.300 C 2.138 0.319 2.951 0.320 3.622 0.042 C 3.723 0.000 3.840 0.048 3.882 0.150 C 3.924 0.252 3.876 0.368 3.774 0.410 C 3.004 0.729 2.139 0.717 1.496 0.698 L 0.518 0.698 L 0.398 0.720 L 0.418 0.686 L 0.427 0.718 Z"/>
</g>
</svg>
