<svg xmlns="http://www.w3.org/2000/svg" viewBox="0 0 5.877 12.359" width="5.877" height="12.359">
<g fill="black" stroke="none">
<path d="M 3.768 1.913 C 3.820 1.755 3.991 1.669 4.149 1.720 C 4.308 1.772 4.395 1.942 4.343 2.101 L 4.357 2.349 L 4.808 3.147 L 5.093 4.346 L 5.189 6.399 L 5.095 7.915 L 4.708 9.225 L 4.243 10.544 L 3.701 11.510 L 3.109 12.118 C 2.755 12.369 2.329 12.437 1.996 12.264 C 1.664 12.092 1.451 11.745 1.322 11.333 C 1.272 11.174 1.362 11.004 1.521 10.954 C 1.681 10.904 1.849 10.992 1.899 11.151 C 1.999 11.469 2.148 11.661 2.274 11.727 C 2.390 11.787 2.532 11.786 2.758 11.625 L 3.208 11.160 L 3.684 10.312 L 4.138 9.017 L 4.493 7.839 L 4.583 6.376 L 4.495 4.434 L 4.254 3.390 L 3.871 2.708 C 3.741 2.532 3.666 2.226 3.768 1.913 Z"/>
<path d="M 0.609 1.049 C 0.662 1.207 0.579 1.379 0.419 1.432 C 0.261 1.486 0.090 1.401 0.037 1.244 C -0.039 1.023 0.000 0.738 0.175 0.591 L 0.699 0.416 L 2.250 0.415 C 3.206 0.444 4.440 0.445 5.459 0.023 C 5.612 -0.041 5.790 0.032 5.854 0.187 C 5.917 0.342 5.844 0.518 5.690 0.582 C 4.521 1.066 3.208 1.048 2.232 1.019 L 0.747 1.019 L 0.565 1.052 L 0.595 1.001 L 0.609 1.049 Z"/>
</g>
</svg>
