<svg xmlns="http://www.w3.org/2000/svg" viewBox="0 0 27.157 31.274" width="27.157" height="31.274">
<g fill="black" stroke="none">
<path d="M 0.826 4.236 C 0.685 4.445 0.404 4.497 0.198 4.359 C -0.009 4.218 -0.063 3.937 0.077 3.730 C 0.689 2.823 1.377 2.225 2.161 1.916 C 2.944 1.610 3.815 1.569 4.819 1.583 L 9.335 1.583 C 12.827 1.567 17.070 0.978 20.681 0.501 L 25.082 0.000 L 26.408 0.004 L 26.903 0.175 C 27.080 0.295 27.209 0.623 27.136 0.850 C 27.061 1.087 26.806 1.218 26.567 1.141 C 26.331 1.064 26.200 0.809 26.277 0.571 L 26.284 0.775 L 26.386 0.914 C 25.588 0.342 16.192 2.456 9.339 2.487 L 4.808 2.487 C 2.926 2.461 1.874 2.685 0.826 4.236 Z"/>
<path d="M 13.961 6.363 C 14.111 6.164 14.394 6.123 14.593 6.273 C 14.794 6.422 14.832 6.705 14.682 6.906 C 13.955 7.878 13.722 9.191 13.682 11.010 C 13.609 14.349 14.002 18.899 14.383 22.648 C 14.616 24.975 14.972 26.770 14.768 28.138 C 14.612 29.199 13.874 29.871 13.035 30.270 C 11.947 30.798 10.634 31.411 9.281 31.249 C 7.462 31.018 6.268 28.862 5.566 26.594 C 4.856 24.311 4.586 21.882 5.173 20.344 C 5.264 20.112 5.525 19.995 5.759 20.086 C 5.990 20.174 6.108 20.435 6.019 20.668 C 5.055 23.188 7.038 30.055 9.391 30.352 C 10.403 30.474 11.584 29.969 12.643 29.454 C 13.349 29.120 13.766 28.749 13.874 28.005 C 14.040 26.891 13.720 25.095 13.482 22.741 C 13.101 18.976 12.703 14.409 12.780 10.989 C 12.820 9.098 13.063 7.559 13.961 6.363 Z"/>
</g>
</svg>
