<svg xmlns="http://www.w3.org/2000/svg" viewBox="0 0 14.729 30.976" width="14.729" height="30.976">
<g fill="black" stroke="none">
<path d="M 9.444 4.795 C 9.573 4.399 10.003 4.182 10.399 4.311 C 10.798 4.441 11.015 4.867 10.886 5.266 L 10.920 5.886 L 12.050 7.888 L 12.765 10.893 L 13.005 16.037 L 12.769 19.838 L 11.799 23.121 L 10.635 26.428 L 9.276 28.847 L 7.793 30.373 C 6.906 31.001 5.837 31.172 5.004 30.738 C 4.171 30.308 3.638 29.437 3.315 28.406 C 3.189 28.007 3.413 27.580 3.813 27.455 C 4.212 27.329 4.635 27.550 4.760 27.949 C 5.011 28.745 5.384 29.228 5.700 29.391 C 5.989 29.544 6.347 29.540 6.914 29.137 L 8.040 27.972 L 9.235 25.846 L 10.372 22.600 L 11.262 19.648 L 11.487 15.980 L 11.266 11.114 L 10.661 8.496 L 9.702 6.788 C 9.375 6.347 9.189 5.578 9.444 4.795 Z"/>
<path d="M 1.526 2.630 C 1.660 3.025 1.450 3.455 1.051 3.588 C 0.655 3.725 0.225 3.512 0.092 3.117 C -0.098 2.565 0.001 1.850 0.438 1.481 L 1.751 1.043 L 5.639 1.039 C 8.036 1.112 11.129 1.115 13.682 0.058 C 14.066 -0.102 14.512 0.081 14.671 0.469 C 14.831 0.857 14.649 1.298 14.260 1.458 C 11.331 2.672 8.040 2.626 5.594 2.554 L 1.873 2.554 L 1.416 2.637 L 1.492 2.508 L 1.526 2.630 Z"/>
</g>
</svg>
