<svg xmlns="http://www.w3.org/2000/svg" viewBox="0 0 26.442 30.451" width="26.442" height="30.451">
<g fill="black" stroke="none">
<path d="M 0.804 4.125 C 0.667 4.328 0.393 4.379 0.192 4.244 C -0.009 4.107 -0.062 3.833 0.075 3.632 C 0.671 2.749 1.340 2.166 2.104 1.866 C 2.866 1.568 3.714 1.528 4.692 1.541 L 9.089 1.541 C 12.489 1.526 16.620 0.952 20.136 0.488 L 24.422 0.000 L 25.713 0.004 L 26.195 0.170 C 26.367 0.287 26.493 0.607 26.422 0.828 C 26.349 1.058 26.100 1.186 25.868 1.111 C 25.638 1.036 25.510 0.788 25.585 0.556 L 25.592 0.755 L 25.691 0.890 C 24.914 0.333 15.766 2.391 9.093 2.422 L 4.681 2.422 C 2.849 2.396 1.824 2.614 0.804 4.125 Z"/>
<path d="M 13.593 6.196 C 13.739 6.002 14.015 5.962 14.209 6.108 C 14.404 6.253 14.441 6.529 14.295 6.724 C 13.587 7.671 13.361 8.949 13.322 10.720 C 13.251 13.971 13.633 18.402 14.004 22.052 C 14.231 24.318 14.578 26.066 14.379 27.398 C 14.227 28.431 13.509 29.085 12.692 29.473 C 11.632 29.988 10.354 30.584 9.036 30.427 C 7.265 30.202 6.103 28.102 5.419 25.894 C 4.728 23.671 4.465 21.306 5.037 19.809 C 5.125 19.583 5.379 19.469 5.607 19.557 C 5.832 19.643 5.947 19.897 5.860 20.124 C 4.922 22.578 6.852 29.264 9.144 29.553 C 10.129 29.672 11.279 29.180 12.310 28.679 C 12.997 28.354 13.403 27.992 13.509 27.268 C 13.670 26.183 13.359 24.435 13.127 22.143 C 12.756 18.477 12.368 14.030 12.443 10.700 C 12.482 8.859 12.719 7.360 13.593 6.196 Z"/>
</g>
</svg>
