<svg xmlns="http://www.w3.org/2000/svg" viewBox="0 0 9.273 41.780" width="9.273" height="41.780">
<g fill="black" stroke="none">
<path d="M 9.097 1.993 C 9.097 2.153 8.966 2.283 8.806 2.281 C 8.646 2.281 8.516 2.152 8.518 1.992 C 8.519 1.529 8.752 0.834 8.671 0.336 C 8.646 0.179 8.752 0.029 8.911 0.004 C 9.070 -0.022 9.218 0.085 9.244 0.243 C 9.358 0.947 9.099 1.734 9.097 1.993 Z"/>
<path d="M 7.423 13.212 C 7.280 13.138 7.225 12.963 7.299 12.821 C 7.373 12.679 7.548 12.622 7.691 12.697 C 8.532 13.134 8.360 14.361 8.247 16.128 L 8.177 19.671 L 8.197 24.315 L 8.197 32.023 L 8.196 37.200 C 8.125 38.822 7.878 39.983 7.431 40.748 C 7.011 41.468 6.330 41.816 5.639 41.779 C 5.317 41.757 4.841 41.830 4.331 41.592 C 2.905 40.937 1.742 39.029 0.916 37.191 C 0.511 36.290 0.214 35.428 0.073 34.723 L 0.000 33.836 C 0.028 33.587 0.160 33.296 0.447 33.239 C 0.604 33.208 0.756 33.312 0.788 33.469 C 0.818 33.625 0.716 33.778 0.558 33.810 L 0.606 33.782 C 0.173 34.493 2.302 40.021 4.574 41.065 C 4.921 41.227 5.273 41.173 5.674 41.199 C 6.176 41.227 6.597 41.027 6.932 40.455 L 7.380 39.200 L 7.616 37.175 L 7.616 32.022 L 7.616 24.313 L 7.596 19.672 L 7.667 16.090 L 7.750 13.980 C 7.718 13.527 7.619 13.313 7.423 13.212 Z"/>
</g>
</svg>
