<svg xmlns="http://www.w3.org/2000/svg" viewBox="0 0 4.932 16.635" width="4.932" height="16.635">
<g fill="black" stroke="none">
<path d="M 4.064 6.314 C 3.996 6.181 4.049 6.019 4.180 5.952 C 4.314 5.884 4.474 5.937 4.543 6.069 L 4.480 5.988 L 4.331 5.925 L 4.193 5.948 L 4.127 5.990 L 4.084 6.040 L 4.065 6.072 L 4.187 5.689 L 4.338 5.417 C 4.388 5.366 4.507 5.283 4.655 5.332 C 4.798 5.379 4.839 5.485 4.861 5.551 C 4.997 5.956 4.900 6.538 4.874 7.316 C 4.847 8.144 4.843 9.180 4.663 10.314 C 4.509 11.288 4.211 12.274 3.883 13.172 C 3.559 14.058 3.162 14.824 2.763 15.410 C 2.494 15.803 2.154 16.026 1.893 16.184 C 1.414 16.474 1.016 16.698 0.614 16.620 C 0.204 16.541 0.016 16.078 0.000 15.519 C -0.004 15.371 0.113 15.246 0.262 15.242 C 0.411 15.238 0.533 15.356 0.538 15.504 L 0.623 16.003 C 0.674 16.109 0.683 16.113 0.828 16.089 L 1.615 15.723 C 1.858 15.576 2.115 15.404 2.319 15.106 C 2.689 14.564 3.068 13.832 3.378 12.987 C 3.698 12.112 3.985 11.154 4.131 10.230 C 4.304 9.143 4.308 8.136 4.337 7.298 L 4.350 5.721 L 4.372 5.761 L 4.465 5.836 L 4.605 5.852 L 4.686 5.822 L 4.730 5.784 L 4.696 5.863 L 4.608 6.142 L 4.573 6.252 L 4.549 6.308 L 4.488 6.389 L 4.280 6.461 L 4.064 6.314 Z"/>
<path d="M 3.944 0.523 C 3.975 0.669 3.883 0.812 3.737 0.843 C 3.592 0.875 3.449 0.782 3.417 0.637 L 3.417 0.231 C 3.456 0.122 3.597 0.000 3.734 0.000 C 3.923 0.000 4.012 0.103 4.091 0.197 L 4.281 0.542 C 4.329 0.682 4.254 0.835 4.114 0.883 C 3.972 0.931 3.819 0.856 3.772 0.716 L 3.690 0.555 L 3.657 0.520 L 3.683 0.531 L 3.744 0.538 L 3.819 0.520 L 3.914 0.435 L 3.927 0.400 L 3.944 0.523 Z"/>
</g>
</svg>
