<svg xmlns="http://www.w3.org/2000/svg" viewBox="0 0 3.703 12.364" width="3.703" height="12.364">
<g fill="black" stroke="none">
<path d="M 3.012 4.675 C 2.962 4.577 3.001 4.457 3.098 4.407 C 3.197 4.357 3.316 4.396 3.367 4.494 L 3.320 4.434 L 3.210 4.387 L 3.108 4.404 L 3.059 4.435 L 3.027 4.472 L 3.013 4.496 L 3.103 4.212 L 3.215 4.011 C 3.252 3.973 3.340 3.912 3.450 3.948 C 3.556 3.983 3.586 4.061 3.602 4.110 C 3.703 4.410 3.631 4.841 3.612 5.417 C 3.592 6.030 3.589 6.797 3.456 7.637 C 3.342 8.358 3.121 9.088 2.878 9.753 C 2.638 10.409 2.344 10.976 2.049 11.410 C 1.850 11.701 1.598 11.866 1.405 11.983 C 1.050 12.198 0.755 12.364 0.458 12.306 C 0.154 12.248 0.015 11.905 0.003 11.491 C 0.000 11.381 0.087 11.289 0.197 11.286 C 0.307 11.283 0.398 11.370 0.401 11.480 L 0.464 11.849 C 0.502 11.928 0.509 11.931 0.616 11.913 L 1.199 11.642 C 1.379 11.533 1.569 11.406 1.720 11.185 C 1.994 10.784 2.275 10.242 2.504 9.616 C 2.741 8.968 2.954 8.259 3.062 7.575 C 3.190 6.770 3.193 6.024 3.214 5.404 L 3.224 4.236 L 3.240 4.266 L 3.309 4.321 L 3.413 4.333 L 3.473 4.311 L 3.505 4.283 L 3.480 4.341 L 3.415 4.548 L 3.389 4.629 L 3.371 4.671 L 3.326 4.731 L 3.172 4.784 L 3.012 4.675 Z"/>
<path d="M 2.923 0.387 C 2.946 0.495 2.878 0.601 2.770 0.624 C 2.663 0.648 2.557 0.579 2.533 0.472 L 2.533 0.171 C 2.562 0.090 2.666 0.000 2.768 0.000 C 2.908 0.000 2.974 0.076 3.032 0.146 L 3.173 0.401 C 3.208 0.505 3.153 0.618 3.049 0.654 C 2.944 0.689 2.831 0.634 2.796 0.530 L 2.735 0.411 L 2.711 0.385 L 2.730 0.393 L 2.775 0.398 L 2.831 0.385 L 2.901 0.322 L 2.911 0.296 L 2.923 0.387 Z"/>
</g>
</svg>
