<svg xmlns="http://www.w3.org/2000/svg" viewBox="0 0 12.360 41.693" width="12.360" height="41.693">
<g fill="black" stroke="none">
<path d="M 10.185 15.825 C 10.016 15.493 10.148 15.087 10.477 14.918 C 10.812 14.748 11.214 14.880 11.387 15.212 L 11.228 15.009 L 10.856 14.850 L 10.510 14.907 L 10.345 15.012 L 10.236 15.138 L 10.189 15.219 L 10.493 14.258 L 10.873 13.577 C 10.998 13.449 11.296 13.242 11.668 13.364 C 12.027 13.482 12.128 13.746 12.183 13.912 C 12.524 14.928 12.281 16.387 12.216 18.336 C 12.149 20.411 12.139 23.008 11.688 25.851 C 11.302 28.292 10.554 30.763 9.732 33.014 C 8.919 35.234 7.924 37.154 6.926 38.623 C 6.252 39.608 5.399 40.166 4.746 40.562 C 3.544 41.290 2.546 41.852 1.540 41.656 C 0.511 41.459 0.041 40.298 0.000 38.897 C -0.010 38.525 0.284 38.213 0.657 38.203 C 1.029 38.193 1.337 38.487 1.347 38.860 L 1.560 40.109 C 1.689 40.376 1.713 40.386 2.075 40.325 L 4.048 39.408 C 4.658 39.039 5.301 38.609 5.812 37.861 C 6.740 36.504 7.691 34.669 8.466 32.550 C 9.268 30.357 9.989 27.957 10.355 25.641 C 10.788 22.916 10.798 20.391 10.869 18.292 L 10.903 14.339 L 10.957 14.440 L 11.191 14.627 L 11.543 14.667 L 11.746 14.593 L 11.854 14.498 L 11.770 14.694 L 11.550 15.395 L 11.462 15.669 L 11.401 15.811 L 11.248 16.014 L 10.727 16.194 L 10.185 15.825 Z"/>
<path d="M 9.884 1.310 C 9.962 1.676 9.732 2.034 9.366 2.112 C 9.004 2.193 8.645 1.960 8.564 1.598 L 8.564 0.579 C 8.662 0.305 9.014 0.000 9.359 0.000 C 9.833 0.000 10.057 0.257 10.253 0.494 L 10.730 1.357 C 10.849 1.709 10.663 2.092 10.311 2.214 C 9.955 2.332 9.573 2.146 9.454 1.794 L 9.248 1.391 L 9.167 1.303 L 9.231 1.330 L 9.383 1.347 L 9.573 1.303 L 9.810 1.090 L 9.844 1.002 L 9.884 1.310 Z"/>
</g>
</svg>
