<svg xmlns="http://www.w3.org/2000/svg" viewBox="0 0 14.050 21.616" width="14.050" height="21.616">
<g fill="black" stroke="none">
<path d="M 8.632 4.409 C 8.541 4.672 8.255 4.812 7.992 4.720 C 7.729 4.629 7.589 4.341 7.681 4.078 C 7.954 3.289 7.921 2.477 7.698 1.877 C 7.488 1.308 7.137 1.014 6.841 1.007 L 5.923 1.497 C 4.586 2.673 3.067 5.396 2.029 8.490 C 1.314 10.622 0.967 12.947 1.012 15.014 C 1.045 16.646 1.304 18.068 1.890 19.019 C 2.891 20.640 5.308 20.964 7.693 20.258 C 10.119 19.540 12.389 17.853 13.072 15.904 C 13.162 15.641 13.451 15.505 13.714 15.596 C 13.977 15.689 14.114 15.975 14.023 16.238 C 13.183 18.632 10.648 20.436 7.979 21.224 C 5.341 22.006 2.364 21.702 1.032 19.548 C 0.293 18.353 0.039 16.764 0.003 15.035 C -0.043 12.843 0.319 10.420 1.073 8.168 C 1.792 6.026 2.735 4.052 3.752 2.540 C 4.723 1.093 5.710 -0.025 6.863 0.000 C 7.703 0.020 8.341 0.710 8.644 1.526 C 8.953 2.361 8.983 3.397 8.632 4.409 Z"/>
</g>
</svg>
