<svg xmlns="http://www.w3.org/2000/svg" viewBox="0 0 5.126 8.533" width="5.126" height="8.533">
<g fill="black" stroke="none">
<path d="M 2.775 0.168 C 2.864 0.009 3.065 -0.047 3.223 0.042 C 3.382 0.132 3.438 0.334 3.349 0.491 C 3.023 1.068 2.436 1.220 1.902 1.730 C 1.255 2.347 0.719 3.670 0.663 5.024 C 0.631 5.774 0.800 6.510 1.060 7.021 C 1.384 7.664 1.976 7.909 2.643 7.871 C 3.328 7.833 4.065 7.497 4.570 7.016 C 4.700 6.892 4.909 6.897 5.035 7.028 C 5.160 7.160 5.155 7.368 5.023 7.494 C 4.403 8.084 3.544 8.481 2.679 8.529 C 1.819 8.577 0.918 8.200 0.471 7.319 C 0.153 6.692 -0.032 5.863 0.005 4.998 C 0.067 3.489 0.617 2.045 1.447 1.253 C 2.075 0.653 2.610 0.459 2.775 0.168 Z"/>
</g>
</svg>
