<svg xmlns="http://www.w3.org/2000/svg" viewBox="0 0 1.701 2.832" width="1.701" height="2.832">
<g fill="none" stroke="black" stroke-width="0.057" stroke-linecap="round" stroke-linejoin="round">
<path d="M 1.590 2.405 L 1.532 2.448 L 1.519 2.457 L 1.501 2.470 L 1.479 2.485 L 1.455 2.502 L 1.429 2.519 L 1.402 2.536 L 1.374 2.553 L 1.345 2.569 L 1.317 2.584 L 1.287 2.598 L 1.258 2.612 L 1.228 2.625 L 1.197 2.637 L 1.167 2.648 L 1.136 2.658 L 1.104 2.667 L 1.073 2.675 L 1.041 2.683 L 1.009 2.689 L 0.977 2.695 L 0.945 2.699 L 0.912 2.702 L 0.880 2.705 L 0.847 2.706 L 0.815 2.705 L 0.782 2.704 L 0.750 2.701 L 0.718 2.697 L 0.686 2.691 L 0.654 2.684 L 0.623 2.676 L 0.592 2.666 L 0.562 2.654 L 0.532 2.641 L 0.503 2.627 L 0.475 2.611 L 0.448 2.593 L 0.422 2.574 L 0.397 2.553 L 0.374 2.531 L 0.351 2.508 L 0.330 2.484 L 0.310 2.458 L 0.292 2.431 L 0.274 2.404 L 0.258 2.376 L 0.243 2.347 L 0.229 2.318 L 0.216 2.288 L 0.204 2.258 L 0.192 2.227 L 0.182 2.196 L 0.172 2.165 L 0.162 2.133 L 0.154 2.102 L 0.146 2.070 L 0.139 2.038 L 0.133 2.006 L 0.128 1.974 L 0.123 1.942 L 0.120 1.909 L 0.117 1.876 L 0.115 1.844 L 0.113 1.811 L 0.113 1.778 L 0.112 1.746 L 0.112 1.713 L 0.112 1.680 L 0.113 1.647 L 0.113 1.615 L 0.115 1.582 L 0.117 1.549 L 0.120 1.517 L 0.123 1.484 L 0.127 1.452 L 0.131 1.419 L 0.136 1.387 L 0.142 1.355 L 0.148 1.322 L 0.155 1.290 L 0.163 1.259 L 0.171 1.227 L 0.179 1.195 L 0.189 1.164 L 0.199 1.133 L 0.209 1.102 L 0.219 1.071 L 0.230 1.040 L 0.241 1.009 L 0.252 0.978 L 0.264 0.947 L 0.276 0.917 L 0.289 0.887 L 0.303 0.857 L 0.317 0.828 L 0.332 0.799 L 0.348 0.770 L 0.364 0.742 L 0.381 0.714 L 0.398 0.686 L 0.416 0.659 L 0.435 0.632 L 0.455 0.606 L 0.475 0.580 L 0.496 0.555 L 0.517 0.531 L 0.540 0.507 L 0.563 0.484 L 0.587 0.462 L 0.611 0.441 L 0.636 0.420 L 0.662 0.399 L 0.688 0.379 L 0.714 0.359 L 0.740 0.340 L 0.767 0.321 L 0.793 0.301 L 0.820 0.282 L 0.845 0.262 L 0.870 0.242 L 0.894 0.222 L 0.916 0.203 L 0.936 0.185 L 0.952 0.170 L 0.963 0.159 L 1.008 0.103"/>
</g>
</svg>