<svg xmlns="http://www.w3.org/2000/svg" viewBox="0 0 3.139 5.214" width="3.139" height="5.214">
<g fill="black" stroke="none">
<path d="M 1.697 0.130 C 1.751 0.034 1.872 0.000 1.968 0.054 C 2.064 0.108 2.098 0.230 2.044 0.325 C 1.847 0.674 1.492 0.766 1.169 1.074 C 0.778 1.447 0.454 2.247 0.420 3.066 C 0.401 3.519 0.503 3.964 0.660 4.273 C 0.856 4.662 1.214 4.810 1.617 4.787 C 2.031 4.764 2.477 4.561 2.782 4.270 C 2.861 4.195 2.987 4.198 3.063 4.277 C 3.139 4.357 3.136 4.483 3.056 4.559 C 2.681 4.916 2.162 5.156 1.639 5.185 C 1.119 5.214 0.574 4.986 0.304 4.453 C 0.112 4.074 0.000 3.573 0.022 3.050 C 0.060 2.138 0.392 1.265 0.894 0.786 C 1.274 0.423 1.597 0.306 1.697 0.130 Z"/>
</g>
</svg>
