<svg xmlns="http://www.w3.org/2000/svg" viewBox="0 0 12.573 21.616" width="12.573" height="21.616">
<g fill="black" stroke="none">
<path d="M 5.985 2.939 C 5.777 2.901 5.641 2.701 5.679 2.494 C 5.719 2.284 5.919 2.148 6.126 2.188 C 6.823 2.318 7.180 1.376 6.806 0.881 L 6.393 0.760 L 5.485 0.768 C 4.495 0.831 3.368 1.637 2.498 3.209 C 1.373 5.242 0.799 8.540 0.765 11.939 C 0.748 13.689 0.905 15.395 1.281 16.850 C 1.740 18.614 2.642 19.720 3.719 20.297 C 5.316 21.154 7.401 20.933 9.086 20.203 C 9.914 19.846 10.632 19.376 11.127 18.878 C 11.601 18.401 11.835 17.915 11.808 17.568 C 11.791 17.357 11.948 17.175 12.159 17.157 C 12.369 17.140 12.553 17.298 12.570 17.507 C 12.644 18.413 11.957 19.274 11.025 19.971 C 9.576 21.056 7.440 21.809 5.364 21.579 C 4.324 21.463 3.299 21.081 2.455 20.352 C 1.594 19.610 0.920 18.501 0.543 17.042 C 0.143 15.501 -0.018 13.732 0.001 11.932 C 0.035 8.449 0.600 5.064 1.828 2.841 C 2.785 1.114 4.105 0.090 5.437 0.004 L 6.470 0.000 C 6.813 0.034 7.180 0.108 7.416 0.421 C 7.799 0.927 7.816 1.605 7.561 2.137 C 7.303 2.671 6.685 3.071 5.985 2.939 Z"/>
</g>
</svg>
