<svg xmlns="http://www.w3.org/2000/svg" viewBox="0 0 12.462 21.425" width="12.462" height="21.425">
<g fill="black" stroke="none">
<path d="M 5.932 2.913 C 5.726 2.875 5.591 2.677 5.629 2.472 C 5.669 2.264 5.867 2.129 6.072 2.169 C 6.763 2.298 7.117 1.364 6.746 0.873 L 6.337 0.753 L 5.437 0.761 C 4.455 0.824 3.338 1.623 2.476 3.181 C 1.361 5.196 0.792 8.465 0.758 11.834 C 0.741 13.568 0.897 15.259 1.270 16.701 C 1.725 18.450 2.619 19.546 3.686 20.118 C 5.269 20.967 7.336 20.748 9.006 20.025 C 9.826 19.671 10.538 19.205 11.029 18.711 C 11.499 18.239 11.731 17.757 11.704 17.413 C 11.687 17.204 11.843 17.023 12.052 17.006 C 12.260 16.989 12.442 17.145 12.459 17.352 C 12.532 18.250 11.851 19.104 10.928 19.795 C 9.491 20.870 7.374 21.616 5.317 21.388 C 4.286 21.273 3.270 20.895 2.433 20.172 C 1.580 19.437 0.912 18.338 0.538 16.892 C 0.142 15.364 -0.018 13.611 0.001 11.827 C 0.035 8.374 0.595 5.019 1.812 2.816 C 2.760 1.104 4.069 0.089 5.389 0.004 L 6.413 0.000 C 6.753 0.034 7.117 0.107 7.351 0.417 C 7.730 0.919 7.747 1.591 7.494 2.118 C 7.239 2.647 6.626 3.044 5.932 2.913 Z"/>
</g>
</svg>
