<svg xmlns="http://www.w3.org/2000/svg" viewBox="0 0 12.847 21.386" width="12.847" height="21.386">
<g fill="black" stroke="none">
<path d="M 6.955 0.421 C 7.179 0.023 7.681 -0.118 8.079 0.106 C 8.477 0.330 8.618 0.836 8.394 1.230 C 7.577 2.677 6.106 3.058 4.767 4.335 C 3.146 5.881 1.802 9.198 1.661 12.593 C 1.583 14.471 2.005 16.316 2.656 17.597 C 3.469 19.210 4.953 19.823 6.624 19.728 C 8.340 19.633 10.189 18.791 11.454 17.585 C 11.781 17.274 12.303 17.286 12.619 17.614 C 12.934 17.945 12.921 18.468 12.590 18.783 C 11.035 20.263 8.883 21.258 6.715 21.378 C 4.559 21.498 2.300 20.553 1.180 18.343 C 0.384 16.772 -0.080 14.695 0.011 12.527 C 0.169 8.746 1.545 5.127 3.626 3.141 C 5.202 1.636 6.541 1.151 6.955 0.421 Z"/>
</g>
</svg>
