<svg xmlns="http://www.w3.org/2000/svg" viewBox="0 0 13.833 30.905" width="13.833" height="30.905">
<g fill="black" stroke="none">
<path d="M 11.515 0.570 C 11.687 0.559 11.834 0.690 11.845 0.862 C 11.856 1.034 11.725 1.181 11.553 1.192 C 10.699 1.243 10.021 0.809 9.486 0.703 C 9.116 0.629 8.802 0.590 8.600 0.681 C 8.462 0.743 8.294 0.940 8.148 1.273 C 7.656 2.394 7.475 4.490 7.281 6.658 C 7.131 8.324 6.990 10.009 7.063 11.397 C 7.121 12.474 7.373 13.307 7.743 13.870 C 8.095 14.403 8.555 14.695 9.050 14.762 C 9.655 14.836 10.304 14.659 10.868 14.001 C 11.964 12.733 12.451 9.778 12.837 7.017 L 13.141 4.194 L 13.209 2.233 L 13.150 1.870 L 13.216 1.919 L 13.341 1.937 L 13.427 1.911 L 13.483 1.864 L 13.335 3.127 L 13.374 7.169 L 13.511 12.483 C 13.585 17.285 13.982 22.251 12.634 26.187 C 11.829 28.525 10.440 30.385 8.592 30.785 C 7.906 30.942 7.137 30.965 6.344 30.731 C 4.603 30.224 2.996 28.661 1.771 27.167 L 0.380 25.197 L 0.052 24.527 L 0.000 24.239 C 0.006 24.114 0.170 23.886 0.353 23.881 C 0.525 23.877 0.667 24.013 0.672 24.184 C 0.675 24.356 0.539 24.500 0.367 24.503 L 0.470 24.480 L 0.569 24.403 L 0.613 24.320 C 0.541 24.547 3.553 29.271 6.520 30.134 C 7.198 30.334 7.853 30.315 8.458 30.177 C 9.990 29.846 11.281 28.206 12.045 25.984 C 13.331 22.226 12.963 17.312 12.887 12.493 L 12.712 5.628 L 12.711 3.105 C 12.736 2.444 12.767 1.955 12.914 1.617 C 12.959 1.511 13.031 1.384 13.202 1.332 L 13.571 1.412 C 13.799 1.604 13.822 1.869 13.833 2.214 L 13.761 4.241 L 13.455 7.103 C 13.261 8.485 13.039 9.929 12.711 11.241 C 12.390 12.526 11.984 13.662 11.340 14.408 C 10.652 15.209 9.754 15.477 8.970 15.380 C 7.604 15.195 6.563 13.703 6.441 11.430 C 6.365 9.979 6.509 8.274 6.660 6.602 C 6.790 5.153 6.917 3.722 7.148 2.531 C 7.368 1.390 7.637 0.429 8.345 0.113 C 8.773 -0.079 9.219 0.015 9.607 0.091 C 10.296 0.227 10.896 0.607 11.515 0.570 Z"/>
</g>
</svg>
