<svg xmlns="http://www.w3.org/2000/svg" viewBox="0 0 7.272 12.233" width="7.272" height="12.233">
<g fill="black" stroke="none">
<path d="M 5.269 2.011 C 5.201 1.878 5.253 1.712 5.387 1.644 C 5.521 1.575 5.686 1.627 5.754 1.761 C 6.088 2.409 6.366 2.812 6.462 3.262 C 6.510 3.488 6.536 3.743 6.457 4.009 C 6.305 4.514 5.847 4.913 5.315 5.241 C 4.776 5.574 4.156 5.826 3.577 5.962 C 3.033 6.088 2.540 6.051 2.150 5.859 C 1.007 5.298 0.880 3.583 1.483 2.157 C 1.870 1.240 2.591 0.530 3.475 0.218 C 3.911 0.065 4.405 -0.076 4.919 0.047 C 5.988 0.303 6.754 1.612 7.074 3.171 C 7.239 3.965 7.358 4.885 7.192 5.882 C 7.047 6.749 6.631 7.587 6.197 8.365 C 5.676 9.302 5.039 10.120 4.387 10.757 C 3.503 11.619 2.588 12.055 1.805 12.185 C 1.061 12.310 0.438 12.185 0.089 11.867 C -0.022 11.766 -0.031 11.593 0.071 11.481 C 0.172 11.370 0.345 11.362 0.457 11.463 C 0.613 11.607 1.092 11.751 1.716 11.647 C 2.378 11.536 3.193 11.161 4.007 10.366 C 4.619 9.769 5.226 8.988 5.720 8.100 C 6.142 7.342 6.527 6.551 6.654 5.793 C 6.803 4.889 6.698 4.042 6.540 3.280 C 6.391 2.553 6.136 1.911 5.814 1.426 C 5.506 0.962 5.141 0.660 4.791 0.577 C 4.448 0.495 4.060 0.591 3.656 0.733 C 2.926 0.990 2.318 1.582 1.985 2.370 C 1.628 3.213 1.573 4.120 1.826 4.732 C 2.065 5.309 2.581 5.633 3.452 5.430 C 4.502 5.185 5.754 4.450 5.934 3.853 L 5.928 3.375 C 5.864 3.072 5.613 2.678 5.269 2.011 Z"/>
</g>
</svg>
