<svg xmlns="http://www.w3.org/2000/svg" viewBox="0 0 5.378 9.047" width="5.378" height="9.047">
<g fill="black" stroke="none">
<path d="M 3.897 1.488 C 3.846 1.389 3.885 1.267 3.984 1.216 C 4.083 1.165 4.205 1.204 4.256 1.303 C 4.503 1.782 4.708 2.080 4.779 2.413 C 4.814 2.580 4.834 2.769 4.775 2.965 C 4.663 3.339 4.324 3.633 3.930 3.876 C 3.533 4.122 3.073 4.309 2.644 4.409 C 2.242 4.502 1.878 4.475 1.589 4.333 C 0.745 3.918 0.651 2.650 1.096 1.596 C 1.383 0.917 1.915 0.392 2.570 0.161 C 2.892 0.048 3.257 -0.057 3.638 0.035 C 4.429 0.224 4.995 1.193 5.232 2.345 C 5.353 2.933 5.441 3.613 5.319 4.350 C 5.211 4.992 4.904 5.612 4.583 6.187 C 4.198 6.880 3.727 7.484 3.244 7.955 C 2.590 8.593 1.913 8.916 1.334 9.012 C 0.784 9.104 0.324 9.012 0.065 8.777 C -0.017 8.701 -0.023 8.574 0.052 8.491 C 0.127 8.409 0.255 8.403 0.338 8.478 C 0.453 8.584 0.808 8.690 1.268 8.613 C 1.758 8.531 2.361 8.254 2.962 7.666 C 3.416 7.225 3.865 6.648 4.230 5.991 C 4.542 5.431 4.827 4.844 4.921 4.284 C 5.031 3.616 4.953 2.989 4.837 2.426 C 4.726 1.889 4.538 1.414 4.300 1.054 C 4.072 0.711 3.802 0.488 3.544 0.426 C 3.288 0.366 3.002 0.437 2.703 0.542 C 2.164 0.732 1.714 1.170 1.468 1.753 C 1.204 2.377 1.163 3.047 1.350 3.500 C 1.527 3.926 1.908 4.166 2.552 4.016 C 3.330 3.835 4.256 3.291 4.388 2.850 L 4.384 2.496 C 4.337 2.272 4.151 1.981 3.897 1.488 Z"/>
</g>
</svg>
