<svg xmlns="http://www.w3.org/2000/svg" viewBox="0 0 24.018 40.401" width="24.018" height="40.401">
<g fill="none" stroke="black" stroke-width="0.808" stroke-linecap="round" stroke-linejoin="round">
<path d="M 18.079 6.080 L 18.858 7.641 L 19.011 7.996 L 19.210 8.488 L 19.423 9.082 L 19.620 9.744 L 19.773 10.447 L 19.856 11.168 L 19.852 11.890 L 19.749 12.598 L 19.542 13.281 L 19.233 13.929 L 18.829 14.534 L 18.344 15.094 L 17.791 15.608 L 17.185 16.077 L 16.538 16.506 L 15.860 16.895 L 15.159 17.248 L 14.440 17.565 L 13.706 17.844 L 12.961 18.081 L 12.207 18.271 L 11.446 18.407 L 10.686 18.479 L 9.932 18.480 L 9.194 18.399 L 8.482 18.230 L 7.810 17.968 L 7.191 17.612 L 6.634 17.165 L 6.150 16.636 L 5.744 16.036 L 5.417 15.378 L 5.168 14.675 L 4.994 13.941 L 4.890 13.184 L 4.851 12.416 L 4.871 11.642 L 4.945 10.868 L 5.071 10.098 L 5.244 9.336 L 5.464 8.586 L 5.728 7.851 L 6.038 7.135 L 6.395 6.442 L 6.798 5.777 L 7.247 5.144 L 7.742 4.547 L 8.280 3.988 L 8.859 3.473 L 9.475 3.003 L 10.125 2.583 L 10.805 2.216 L 11.511 1.905 L 12.236 1.656 L 12.977 1.472 L 13.726 1.362 L 14.476 1.331 L 15.217 1.386 L 15.942 1.530 L 16.640 1.764 L 17.304 2.087 L 17.927 2.492 L 18.506 2.971 L 19.039 3.513 L 19.526 4.106 L 19.970 4.741 L 20.372 5.409 L 20.737 6.103 L 21.066 6.818 L 21.362 7.549 L 21.627 8.293 L 21.862 9.047 L 22.069 9.811 L 22.250 10.582 L 22.407 11.359 L 22.540 12.141 L 22.651 12.926 L 22.738 13.714 L 22.801 14.504 L 22.837 15.295 L 22.846 16.086 L 22.825 16.876 L 22.773 17.665 L 22.689 18.450 L 22.571 19.230 L 22.418 20.003 L 22.230 20.769 L 22.009 21.527 L 21.756 22.275 L 21.475 23.015 L 21.170 23.747 L 20.845 24.470 L 20.502 25.187 L 20.143 25.896 L 19.770 26.598 L 19.383 27.292 L 18.982 27.979 L 18.568 28.657 L 18.141 29.327 L 17.699 29.988 L 17.243 30.639 L 16.772 31.278 L 16.284 31.904 L 15.780 32.517 L 15.259 33.116 L 14.722 33.699 L 14.168 34.267 L 13.597 34.816 L 13.009 35.346 L 12.402 35.853 L 11.777 36.336 L 11.132 36.790 L 10.468 37.213 L 9.784 37.601 L 9.082 37.952 L 8.362 38.260 L 7.627 38.523 L 6.880 38.736 L 6.125 38.898 L 5.373 39.007 L 4.636 39.063 L 3.938 39.072 L 3.308 39.046 L 2.785 39.000 L 2.407 38.953 L 0.792 38.412"/>
</g>
</svg>