<svg xmlns="http://www.w3.org/2000/svg" viewBox="0 0 18.226 30.659" width="18.226" height="30.659">
<g fill="black" stroke="none">
<path d="M 13.207 5.040 C 13.036 4.707 13.166 4.291 13.502 4.120 C 13.839 3.948 14.251 4.079 14.422 4.415 C 15.260 6.039 15.957 7.048 16.197 8.177 C 16.317 8.743 16.382 9.382 16.183 10.048 C 15.802 11.314 14.656 12.313 13.320 13.137 C 11.971 13.971 10.417 14.603 8.965 14.943 C 7.602 15.258 6.366 15.166 5.388 14.685 C 2.525 13.278 2.206 8.980 3.716 5.407 C 4.688 3.107 6.493 1.329 8.711 0.546 C 9.802 0.162 11.041 -0.192 12.328 0.117 C 15.009 0.759 16.928 4.041 17.731 7.947 C 18.143 9.938 18.442 12.245 18.027 14.743 C 17.663 16.916 16.619 19.017 15.531 20.967 C 14.227 23.315 12.631 25.364 10.997 26.960 C 8.779 29.122 6.486 30.214 4.523 30.540 C 2.659 30.852 1.097 30.540 0.222 29.744 C -0.056 29.490 -0.077 29.057 0.177 28.776 C 0.431 28.498 0.864 28.477 1.145 28.731 C 1.536 29.092 2.738 29.452 4.300 29.191 C 5.961 28.913 8.003 27.973 10.042 25.982 C 11.577 24.485 13.097 22.529 14.337 20.301 C 15.394 18.403 16.358 16.419 16.678 14.520 C 17.052 12.255 16.787 10.130 16.393 8.222 C 16.018 6.399 15.380 4.789 14.573 3.574 C 13.801 2.410 12.885 1.655 12.009 1.446 C 11.148 1.240 10.176 1.480 9.164 1.837 C 7.334 2.482 5.810 3.965 4.976 5.939 C 4.080 8.053 3.943 10.326 4.578 11.860 C 5.175 13.305 6.469 14.119 8.652 13.611 C 11.285 12.996 14.422 11.153 14.872 9.656 L 14.858 8.458 C 14.697 7.700 14.069 6.711 13.207 5.040 Z"/>
</g>
</svg>
