<svg xmlns="http://www.w3.org/2000/svg" viewBox="0 0 4.339 8.221" width="4.339" height="8.221">
<g fill="black" stroke="none">
<path d="M 0.269 1.271 C 0.162 1.245 0.096 1.138 0.122 1.031 C 0.148 0.924 0.256 0.858 0.363 0.884 L 0.535 1.039 C 0.607 1.213 0.571 1.385 0.547 1.642 L 0.449 2.658 L 0.398 4.763 L 0.582 6.503 C 0.697 7.142 0.868 7.532 1.032 7.674 C 1.170 7.793 1.324 7.782 1.579 7.610 C 2.049 7.292 2.671 6.573 3.147 5.704 C 3.786 4.536 3.939 3.010 3.896 1.840 C 3.872 1.190 3.779 0.704 3.702 0.452 L 3.663 0.342 L 3.679 0.362 L 3.717 0.390 L 3.803 0.416 L 3.915 0.386 L 3.973 0.330 L 3.998 0.270 L 4.001 0.257 L 4.029 0.438 C 4.052 0.546 3.983 0.651 3.875 0.674 C 3.767 0.696 3.662 0.627 3.639 0.520 L 3.605 0.307 L 3.634 0.121 C 3.667 0.063 3.811 0.000 3.891 0.033 L 4.019 0.164 L 4.179 0.738 L 4.294 1.825 C 4.339 3.044 4.190 4.627 3.496 5.895 C 2.994 6.812 2.357 7.565 1.802 7.940 C 1.468 8.165 1.055 8.221 0.771 7.975 C 0.479 7.722 0.312 7.252 0.189 6.573 L 0.000 4.776 L 0.052 2.626 L 0.159 1.501 L 0.169 1.217 L 0.167 1.191 L 0.192 1.227 L 0.269 1.271 Z"/>
</g>
</svg>
