<svg xmlns="http://www.w3.org/2000/svg" viewBox="0 0 16.362 30.855" width="16.362" height="30.855">
<g fill="black" stroke="none">
<path d="M 1.023 4.744 C 0.616 4.645 0.365 4.238 0.464 3.831 C 0.563 3.424 0.974 3.173 1.381 3.271 L 2.035 3.861 C 2.309 4.523 2.172 5.177 2.081 6.155 L 1.708 10.020 L 1.514 18.028 L 2.214 24.647 C 2.652 27.078 3.302 28.562 3.926 29.102 C 4.451 29.554 5.037 29.513 6.007 28.858 C 7.795 27.649 10.161 24.913 11.972 21.608 C 14.403 17.164 14.985 11.359 14.821 6.908 C 14.730 4.436 14.376 2.587 14.083 1.628 L 13.935 1.210 L 13.996 1.286 L 14.140 1.392 L 14.467 1.491 L 14.893 1.377 L 15.114 1.164 L 15.209 0.936 L 15.220 0.886 L 15.327 1.575 C 15.414 1.986 15.152 2.385 14.741 2.473 C 14.330 2.556 13.931 2.294 13.843 1.887 L 13.714 1.076 L 13.824 0.369 C 13.950 0.148 14.498 -0.091 14.802 0.034 L 15.289 0.532 L 15.898 2.716 L 16.335 6.851 C 16.506 11.488 15.939 17.510 13.299 22.334 C 11.390 25.823 8.966 28.687 6.855 30.114 C 5.585 30.970 4.013 31.183 2.933 30.247 C 1.822 29.284 1.187 27.496 0.719 24.913 L 0.000 18.077 L 0.198 9.898 L 0.605 5.619 L 0.643 4.538 L 0.635 4.439 L 0.730 4.576 L 1.023 4.744 Z"/>
</g>
</svg>
