<svg xmlns="http://www.w3.org/2000/svg" viewBox="0 0 3.748 7.624" width="3.748" height="7.624">
<g fill="black" stroke="none">
<path d="M 0.245 0.249 C 0.226 0.140 0.299 0.037 0.407 0.019 C 0.516 0.000 0.619 0.073 0.637 0.181 L 0.631 0.791 L 0.477 2.026 L 0.398 3.881 L 0.398 5.056 L 0.585 6.241 L 0.794 6.862 L 0.964 7.088 C 1.092 7.180 1.127 7.201 1.238 7.157 L 1.563 6.992 L 1.690 6.791 L 2.104 6.231 L 2.244 5.681 C 2.349 5.285 2.575 4.972 2.747 4.764 C 2.979 4.486 3.054 4.045 3.176 3.614 L 3.340 2.624 L 3.350 1.773 L 3.310 1.068 L 3.171 0.480 L 3.164 0.463 L 3.174 0.477 L 3.214 0.512 L 3.278 0.540 C 3.208 0.523 3.533 0.370 3.503 0.432 C 3.479 0.482 3.522 0.325 3.522 0.341 L 3.517 0.302 L 3.573 0.414 C 3.625 0.510 3.590 0.631 3.493 0.684 C 3.397 0.737 3.276 0.701 3.223 0.605 L 3.131 0.402 L 3.135 0.281 C 3.156 0.221 3.284 0.134 3.366 0.151 L 3.487 0.230 L 3.599 0.493 L 3.706 1.023 L 3.748 1.755 L 3.736 2.664 L 3.559 3.722 C 3.445 4.127 3.377 4.631 3.054 5.019 C 2.901 5.203 2.711 5.474 2.629 5.783 L 2.460 6.409 C 2.311 6.707 2.106 6.878 2.028 7.003 L 1.831 7.287 C 1.661 7.441 1.481 7.489 1.386 7.527 C 1.142 7.624 0.899 7.532 0.731 7.412 L 0.434 7.031 L 0.198 6.339 C 0.109 5.985 0.020 5.558 0.000 5.071 L 0.000 3.878 L 0.081 1.987 L 0.235 0.751 L 0.245 0.249 Z"/>
</g>
</svg>
