<svg xmlns="http://www.w3.org/2000/svg" viewBox="0 0 6.134 12.358" width="6.134" height="12.358">
<g fill="black" stroke="none">
<path d="M 0.401 0.381 C 0.370 0.203 0.489 0.034 0.666 0.005 C 0.845 -0.026 1.013 0.093 1.043 0.270 L 1.033 1.268 L 0.781 3.289 L 0.651 6.325 L 0.651 8.248 L 0.957 10.188 L 1.299 11.204 L 1.578 11.574 C 1.787 11.725 1.844 11.759 2.026 11.687 L 2.558 11.417 L 2.766 11.088 L 3.443 10.172 L 3.673 9.271 C 3.844 8.623 4.214 8.111 4.496 7.771 C 4.876 7.316 4.998 6.594 5.198 5.888 L 5.466 4.268 L 5.483 2.875 L 5.417 1.722 L 5.190 0.759 L 5.178 0.731 L 5.195 0.754 L 5.260 0.812 L 5.365 0.857 C 5.250 0.830 5.782 0.579 5.733 0.681 C 5.694 0.762 5.764 0.506 5.764 0.532 L 5.756 0.468 L 5.848 0.651 C 5.933 0.808 5.876 1.006 5.717 1.093 C 5.560 1.180 5.362 1.121 5.275 0.964 L 5.124 0.632 L 5.131 0.433 C 5.165 0.335 5.375 0.193 5.509 0.221 L 5.707 0.350 L 5.890 0.780 L 6.065 1.648 L 6.134 2.846 L 6.114 4.334 L 5.825 6.065 C 5.638 6.728 5.527 7.553 4.998 8.188 C 4.748 8.489 4.437 8.933 4.303 9.438 L 4.026 10.463 C 3.782 10.951 3.447 11.230 3.319 11.435 L 2.997 11.900 C 2.718 12.152 2.424 12.230 2.268 12.293 C 1.869 12.451 1.471 12.301 1.196 12.104 L 0.710 11.481 L 0.324 10.348 C 0.178 9.769 0.033 9.070 0.000 8.273 L 0.000 6.320 L 0.133 3.226 L 0.385 1.203 L 0.401 0.381 Z"/>
</g>
</svg>
