<svg xmlns="http://www.w3.org/2000/svg" viewBox="0 0 18.105 31.274" width="18.105" height="31.274">
<g fill="black" stroke="none">
<path d="M 0.924 11.337 C 0.875 11.591 0.628 11.755 0.375 11.705 C 0.121 11.653 -0.043 11.408 0.008 11.154 L 0.975 6.237 L 1.301 4.529 L 1.461 4.101 L 1.669 3.900 L 2.132 3.896 L 2.409 4.246 L 2.465 5.219 L 2.167 8.843 L 1.900 13.671 C 1.874 15.742 2.134 17.802 2.566 19.645 C 2.988 21.447 3.560 23.000 4.177 24.081 C 4.662 24.928 5.090 25.350 5.418 25.376 C 5.615 25.390 5.990 25.210 6.429 24.759 C 7.144 24.022 7.926 22.758 8.702 21.200 C 9.507 19.596 10.283 17.722 10.984 15.763 C 12.336 12.029 13.042 8.055 13.380 4.830 C 13.530 3.396 13.507 2.118 13.459 1.189 L 13.398 0.741 L 13.539 0.851 L 13.759 0.875 L 13.884 0.826 L 13.921 0.795 L 13.743 1.344 L 13.426 4.094 L 13.269 12.088 C 13.352 16.696 13.680 21.567 14.456 25.331 C 14.824 27.119 15.286 28.585 15.857 29.483 C 16.370 30.295 16.835 30.532 17.440 30.248 C 17.673 30.138 17.951 30.239 18.062 30.473 C 18.170 30.708 18.069 30.984 17.837 31.095 C 17.048 31.463 16.164 31.238 15.577 30.642 C 14.513 29.559 13.912 27.503 13.433 24.975 C 12.681 20.999 12.383 16.057 12.323 11.450 L 12.422 5.241 L 12.828 1.154 L 13.047 0.451 L 13.352 0.056 L 13.924 0.000 C 14.194 0.127 14.254 0.335 14.306 0.514 L 14.393 1.147 C 14.442 2.102 14.465 3.427 14.308 4.926 C 13.966 8.210 13.250 12.247 11.864 16.080 C 10.914 18.729 9.840 21.217 8.723 23.140 C 7.663 24.965 6.626 26.399 5.348 26.309 C 4.477 26.242 3.898 25.472 3.366 24.544 C 2.686 23.354 2.094 21.729 1.655 19.858 C 1.210 17.945 0.938 15.817 0.966 13.659 L 1.236 8.764 L 1.532 5.177 L 1.532 4.647 L 1.517 4.525 L 1.548 4.586 L 1.687 4.717 L 1.815 4.767 L 2.076 4.740 L 2.195 4.666 L 2.254 4.593 L 2.212 4.740 L 1.893 6.414 L 0.924 11.337 Z"/>
</g>
</svg>
