<svg xmlns="http://www.w3.org/2000/svg" viewBox="0 0 6.528 12.310" width="6.528" height="12.310">
<g fill="black" stroke="none">
<path d="M 0.408 1.893 C 0.246 1.853 0.146 1.691 0.185 1.528 C 0.225 1.366 0.389 1.266 0.551 1.305 L 0.812 1.541 C 0.921 1.805 0.867 2.066 0.830 2.456 L 0.681 3.998 L 0.604 7.193 L 0.883 9.834 C 1.058 10.804 1.317 11.396 1.566 11.611 C 1.776 11.792 2.010 11.775 2.397 11.514 C 3.110 11.031 4.054 9.940 4.776 8.621 C 5.746 6.848 5.979 4.532 5.913 2.756 C 5.877 1.770 5.736 1.032 5.619 0.650 L 5.560 0.483 L 5.584 0.513 L 5.642 0.555 L 5.772 0.595 L 5.942 0.549 L 6.030 0.464 L 6.068 0.373 L 6.073 0.354 L 6.115 0.628 C 6.150 0.792 6.045 0.952 5.881 0.987 C 5.718 1.020 5.558 0.915 5.523 0.753 L 5.472 0.429 L 5.516 0.147 C 5.566 0.059 5.784 -0.036 5.906 0.014 L 6.100 0.212 L 6.343 1.084 L 6.517 2.733 C 6.586 4.584 6.360 6.986 5.306 8.911 C 4.544 10.303 3.577 11.446 2.735 12.015 C 2.228 12.356 1.601 12.441 1.170 12.068 C 0.727 11.684 0.474 10.971 0.287 9.940 L 0.000 7.212 L 0.079 3.949 L 0.241 2.242 L 0.257 1.811 L 0.253 1.771 L 0.291 1.826 L 0.408 1.893 Z"/>
</g>
</svg>
