<svg xmlns="http://www.w3.org/2000/svg" viewBox="0 0 15.374 30.974" width="15.374" height="30.974">
<g fill="black" stroke="none">
<path d="M 1.005 0.955 C 0.927 0.508 1.227 0.086 1.670 0.012 C 2.117 -0.066 2.539 0.233 2.613 0.676 L 2.588 3.179 L 1.957 8.245 L 1.633 15.854 L 1.633 20.674 L 2.400 25.535 L 3.257 28.082 L 3.954 29.009 C 4.479 29.387 4.623 29.473 5.078 29.292 L 6.412 28.615 L 6.932 27.791 L 8.631 25.494 L 9.205 23.238 C 9.636 21.613 10.563 20.329 11.268 19.476 C 12.220 18.336 12.528 16.527 13.028 14.759 L 13.701 10.698 L 13.742 7.207 L 13.578 4.315 L 13.008 1.903 L 12.979 1.833 L 13.020 1.890 L 13.184 2.034 L 13.447 2.149 C 13.159 2.079 14.493 1.452 14.369 1.706 C 14.271 1.911 14.447 1.267 14.447 1.333 L 14.427 1.173 L 14.657 1.632 C 14.870 2.026 14.726 2.522 14.328 2.740 C 13.935 2.957 13.438 2.809 13.221 2.416 L 12.844 1.583 L 12.860 1.086 C 12.946 0.840 13.471 0.483 13.807 0.553 L 14.304 0.877 L 14.763 1.956 L 15.202 4.130 L 15.374 7.133 L 15.325 10.862 L 14.599 15.202 C 14.132 16.863 13.853 18.930 12.528 20.522 C 11.900 21.277 11.121 22.388 10.784 23.656 L 10.091 26.224 C 9.480 27.446 8.639 28.148 8.319 28.660 L 7.511 29.825 C 6.814 30.457 6.075 30.654 5.685 30.810 C 4.685 31.208 3.688 30.830 2.999 30.338 L 1.780 28.775 L 0.812 25.937 C 0.447 24.485 0.082 22.733 0.000 20.735 L 0.000 15.842 L 0.332 8.085 L 0.964 3.014 L 1.005 0.955 Z"/>
</g>
</svg>
