<svg xmlns="http://www.w3.org/2000/svg" viewBox="0 0 6.510 12.388" width="6.510" height="12.388">
<g fill="black" stroke="none">
<path d="M 4.353 1.113 C 4.177 1.199 3.965 1.124 3.880 0.948 C 3.794 0.772 3.867 0.560 4.043 0.475 C 4.317 0.343 4.650 0.405 4.886 0.567 C 5.608 1.060 6.053 2.285 6.327 3.907 C 6.485 4.841 6.517 5.880 6.508 6.906 C 6.501 7.920 6.483 8.916 6.300 9.791 C 6.048 10.995 5.343 11.835 4.548 12.180 C 4.032 12.406 3.426 12.477 2.850 12.246 C 2.220 11.991 1.758 11.401 1.356 10.769 L 0.602 9.094 C 0.080 7.555 -0.163 5.994 0.114 4.494 C 0.361 3.159 1.030 1.983 1.779 1.149 L 2.889 0.220 C 3.252 0.023 3.652 -0.093 4.008 0.094 C 4.182 0.185 4.248 0.398 4.157 0.573 C 4.066 0.745 3.853 0.813 3.679 0.722 L 3.229 0.843 C 2.341 1.328 1.139 2.849 0.811 4.624 C 0.562 5.967 0.778 7.406 1.272 8.866 L 1.952 10.389 C 2.320 10.967 2.734 11.435 3.115 11.588 C 3.490 11.739 3.880 11.700 4.265 11.531 C 4.831 11.283 5.395 10.654 5.607 9.645 C 5.770 8.865 5.792 7.904 5.800 6.901 L 5.628 4.025 C 5.454 2.995 5.180 2.163 4.877 1.634 L 4.486 1.152 L 4.353 1.113 Z"/>
</g>
</svg>
