<svg xmlns="http://www.w3.org/2000/svg" viewBox="0 0 3.756 7.067" width="3.756" height="7.067">
<g fill="black" stroke="none">
<path d="M 2.539 0.678 C 2.440 0.726 2.321 0.684 2.273 0.585 C 2.225 0.486 2.266 0.367 2.365 0.319 C 2.519 0.245 2.706 0.280 2.839 0.371 C 3.245 0.648 3.495 1.337 3.649 2.249 C 3.738 2.774 3.756 3.358 3.751 3.935 C 3.747 4.505 3.737 5.065 3.634 5.557 C 3.492 6.234 3.096 6.706 2.649 6.900 C 2.359 7.027 2.018 7.067 1.694 6.937 C 1.340 6.794 1.080 6.462 0.854 6.107 L 0.430 5.165 C 0.137 4.300 0.000 3.422 0.156 2.579 C 0.295 1.828 0.671 1.167 1.092 0.698 L 1.716 0.176 C 1.920 0.065 2.145 0.000 2.345 0.105 C 2.443 0.156 2.480 0.276 2.429 0.374 C 2.378 0.471 2.258 0.509 2.160 0.458 L 1.907 0.526 C 1.408 0.799 0.732 1.654 0.548 2.652 C 0.408 3.407 0.529 4.216 0.807 5.037 L 1.189 5.893 C 1.396 6.218 1.629 6.481 1.843 6.567 C 2.054 6.652 2.273 6.630 2.490 6.535 C 2.808 6.396 3.125 6.042 3.244 5.475 C 3.336 5.036 3.348 4.496 3.353 3.932 L 3.256 2.315 C 3.158 1.736 3.004 1.268 2.834 0.971 L 2.614 0.700 L 2.539 0.678 Z"/>
</g>
</svg>
