<svg xmlns="http://www.w3.org/2000/svg" viewBox="0 0 13.524 31.419" width="13.524" height="31.419">
<g fill="black" stroke="none">
<path d="M 6.926 0.940 C 7.009 1.091 6.954 1.282 6.803 1.366 C 6.652 1.449 6.463 1.394 6.378 1.243 C 6.168 0.862 5.965 0.677 5.841 0.634 L 5.574 0.689 C 5.375 0.815 5.121 1.133 4.863 1.601 L 4.032 3.469 C 3.526 4.792 2.894 6.367 2.371 8.296 C 1.632 11.010 1.059 14.263 0.763 17.524 C 0.584 19.487 0.595 21.419 0.708 23.190 C 0.797 24.563 1.020 25.798 1.332 26.862 C 1.635 27.896 2.020 28.759 2.440 29.417 C 2.837 30.031 3.421 30.327 3.997 30.514 C 4.950 30.822 5.766 30.972 6.643 30.403 C 7.387 29.905 8.142 28.990 8.859 27.826 C 9.597 26.625 10.279 25.184 10.891 23.635 C 11.762 21.419 12.379 19.023 12.706 16.692 C 12.892 15.344 12.941 14.004 12.863 12.709 C 12.789 11.410 12.558 10.161 12.238 9.023 C 11.769 7.350 11.124 5.956 10.519 5.062 L 9.802 4.260 L 9.725 4.219 L 9.746 4.233 C 9.678 4.391 9.496 4.467 9.336 4.401 C 9.178 4.335 9.102 4.151 9.168 3.993 C 9.265 3.759 9.535 3.569 9.788 3.600 C 10.215 3.652 10.529 4.012 10.882 4.490 C 11.445 5.255 12.024 6.400 12.509 7.797 C 13.007 9.235 13.387 10.904 13.487 12.673 C 13.569 14.009 13.517 15.388 13.326 16.779 C 12.991 19.159 12.363 21.600 11.474 23.864 C 10.852 25.440 10.154 26.911 9.391 28.152 C 8.647 29.362 7.855 30.344 6.987 30.925 C 6.436 31.281 5.874 31.426 5.342 31.419 C 4.813 31.412 4.308 31.272 3.806 31.109 C 3.157 30.898 2.414 30.528 1.914 29.756 C 1.455 29.036 1.050 28.119 0.733 27.038 C 0.406 25.927 0.176 24.648 0.083 23.230 C -0.032 21.432 -0.043 19.469 0.139 17.468 C 0.439 14.170 1.017 10.887 1.769 8.133 C 2.301 6.165 2.944 4.564 3.448 3.244 C 3.958 1.912 4.424 0.882 5.014 0.336 C 5.297 0.074 5.681 -0.078 6.040 0.041 C 6.400 0.163 6.676 0.488 6.926 0.940 Z"/>
</g>
</svg>
