<svg xmlns="http://www.w3.org/2000/svg" viewBox="0 0 3.342 6.360" width="3.342" height="6.360">
<g fill="none" stroke="black" stroke-width="0.127" stroke-linecap="round" stroke-linejoin="round">
<path d="M 3.144 3.569 L 3.142 3.470 L 3.139 3.368 L 3.135 3.263 L 3.130 3.156 L 3.124 3.046 L 3.119 2.934 L 3.113 2.821 L 3.106 2.708 L 3.098 2.594 L 3.090 2.481 L 3.080 2.368 L 3.068 2.254 L 3.054 2.142 L 3.038 2.029 L 3.019 1.917 L 2.998 1.805 L 2.974 1.694 L 2.948 1.583 L 2.919 1.474 L 2.888 1.365 L 2.853 1.257 L 2.815 1.151 L 2.772 1.046 L 2.724 0.945 L 2.671 0.848 L 2.611 0.755 L 2.544 0.669 L 2.471 0.589 L 2.391 0.517 L 2.304 0.454 L 2.212 0.399 L 2.116 0.355 L 2.017 0.322 L 1.916 0.301 L 1.814 0.295 L 1.713 0.305 L 1.613 0.329 L 1.516 0.367 L 1.421 0.417 L 1.330 0.477 L 1.242 0.545 L 1.158 0.618 L 1.078 0.697 L 1.001 0.779 L 0.927 0.865 L 0.857 0.954 L 0.790 1.045 L 0.727 1.139 L 0.667 1.235 L 0.610 1.333 L 0.557 1.433 L 0.507 1.535 L 0.460 1.638 L 0.418 1.743 L 0.378 1.849 L 0.342 1.957 L 0.310 2.065 L 0.281 2.175 L 0.257 2.285 L 0.235 2.397 L 0.218 2.508 L 0.203 2.621 L 0.193 2.734 L 0.186 2.847 L 0.184 2.960 L 0.185 3.073 L 0.189 3.187 L 0.197 3.300 L 0.208 3.413 L 0.222 3.526 L 0.238 3.638 L 0.257 3.750 L 0.278 3.862 L 0.302 3.973 L 0.328 4.084 L 0.356 4.194 L 0.387 4.303 L 0.421 4.412 L 0.457 4.520 L 0.495 4.626 L 0.536 4.733 L 0.579 4.838 L 0.624 4.942 L 0.671 5.046 L 0.720 5.148 L 0.772 5.249 L 0.828 5.348 L 0.886 5.444 L 0.949 5.537 L 1.017 5.627 L 1.089 5.712 L 1.166 5.791 L 1.248 5.864 L 1.336 5.929 L 1.429 5.984 L 1.526 6.029 L 1.628 6.063 L 1.732 6.084 L 1.839 6.093 L 1.946 6.089 L 2.052 6.073 L 2.156 6.046 L 2.257 6.007 L 2.354 5.958 L 2.446 5.900 L 2.532 5.832 L 2.611 5.757 L 2.685 5.675 L 2.751 5.586 L 2.811 5.493 L 2.864 5.395 L 2.911 5.293 L 2.951 5.189 L 2.986 5.082 L 3.016 4.973 L 3.041 4.863 L 3.063 4.752 L 3.080 4.640 L 3.095 4.528 L 3.107 4.415 L 3.117 4.303 L 3.125 4.191 L 3.132 4.081 L 3.137 3.974 L 3.141 3.869 L 3.143 3.767 L 3.144 3.668 Z"/>
</g>
</svg>