<svg xmlns="http://www.w3.org/2000/svg" viewBox="0 0 16.316 31.049" width="16.316" height="31.049">
<g fill="black" stroke="none">
<path d="M 10.909 2.790 C 10.468 3.004 9.938 2.817 9.724 2.376 C 9.510 1.934 9.692 1.404 10.134 1.190 C 10.820 0.860 11.654 1.016 12.247 1.422 C 14.057 2.657 15.171 5.728 15.858 9.794 C 16.254 12.134 16.335 14.737 16.312 17.310 C 16.295 19.851 16.250 22.347 15.791 24.540 C 15.158 27.558 13.392 29.663 11.400 30.527 C 10.107 31.094 8.587 31.272 7.142 30.692 C 5.564 30.055 4.405 28.575 3.398 26.992 L 1.508 22.793 C 0.202 18.937 -0.409 15.023 0.286 11.265 C 0.906 7.917 2.582 4.970 4.459 2.879 L 7.241 0.552 C 8.150 0.058 9.153 -0.232 10.045 0.236 C 10.481 0.463 10.646 0.998 10.419 1.435 C 10.192 1.868 9.657 2.037 9.220 1.810 L 8.092 2.113 C 5.867 3.330 2.854 7.141 2.034 11.590 C 1.410 14.956 1.949 18.562 3.188 22.222 L 4.891 26.038 C 5.814 27.487 6.853 28.659 7.807 29.043 C 8.747 29.422 9.724 29.324 10.691 28.900 C 12.109 28.281 13.522 26.702 14.052 24.175 C 14.462 22.218 14.516 19.811 14.538 17.296 L 14.106 10.088 C 13.669 7.507 12.982 5.420 12.224 4.096 L 11.244 2.888 L 10.909 2.790 Z"/>
</g>
</svg>
