<svg xmlns="http://www.w3.org/2000/svg" viewBox="0 0 6.170 12.302" width="6.170" height="12.302">
<g fill="black" stroke="none">
<path d="M 0.516 0.267 C 0.569 0.073 0.771 -0.040 0.965 0.013 C 1.159 0.068 1.272 0.267 1.219 0.461 L 0.796 2.036 C 0.637 3.116 0.780 4.832 1.444 5.843 C 1.900 6.533 2.658 6.613 3.458 6.278 C 4.292 5.931 5.096 5.153 5.471 4.280 C 5.550 4.095 5.764 4.011 5.949 4.089 C 6.134 4.168 6.220 4.384 6.141 4.569 C 5.683 5.634 4.764 6.524 3.738 6.952 C 3.232 7.164 2.691 7.259 2.175 7.161 C 1.657 7.064 1.170 6.749 0.837 6.244 C 0.006 4.982 -0.108 3.169 0.075 1.929 L 0.516 0.267 Z"/>
<path d="M 5.411 0.928 C 5.522 0.762 5.747 0.716 5.916 0.828 C 6.084 0.939 6.130 1.164 6.018 1.333 L 5.837 2.268 L 5.714 3.895 L 5.656 7.115 L 5.645 10.442 L 5.762 11.378 L 5.857 11.590 C 6.049 11.650 6.156 11.855 6.095 12.048 C 6.035 12.240 5.830 12.346 5.638 12.286 C 5.314 12.185 5.149 11.881 5.063 11.581 L 4.900 9.769 L 4.927 7.111 L 4.986 3.860 L 5.110 2.193 C 5.173 1.594 5.220 1.216 5.411 0.928 Z"/>
</g>
</svg>
