<svg xmlns="http://www.w3.org/2000/svg" viewBox="0 0 3.415 6.809" width="3.415" height="6.809">
<g fill="black" stroke="none">
<path d="M 0.286 0.148 C 0.315 0.041 0.426 -0.022 0.534 0.007 C 0.641 0.038 0.704 0.148 0.675 0.255 L 0.441 1.127 C 0.353 1.724 0.432 2.674 0.799 3.234 C 1.052 3.615 1.471 3.660 1.914 3.475 C 2.375 3.282 2.820 2.852 3.028 2.369 C 3.071 2.266 3.190 2.220 3.292 2.263 C 3.395 2.307 3.442 2.426 3.399 2.529 C 3.145 3.118 2.637 3.610 2.069 3.847 C 1.789 3.965 1.489 4.018 1.203 3.963 C 0.917 3.909 0.647 3.735 0.463 3.455 C 0.003 2.757 -0.060 1.754 0.042 1.068 L 0.286 0.148 Z"/>
<path d="M 2.994 0.514 C 3.056 0.422 3.181 0.396 3.274 0.458 C 3.367 0.520 3.393 0.644 3.331 0.738 L 3.230 1.255 L 3.163 2.156 L 3.130 3.938 L 3.124 5.779 L 3.189 6.297 L 3.242 6.414 C 3.348 6.448 3.407 6.561 3.373 6.668 C 3.340 6.774 3.226 6.833 3.120 6.799 C 2.941 6.744 2.850 6.575 2.802 6.409 L 2.712 5.406 L 2.727 3.936 L 2.759 2.137 L 2.828 1.214 C 2.863 0.882 2.889 0.673 2.994 0.514 Z"/>
</g>
</svg>
