<svg xmlns="http://www.w3.org/2000/svg" viewBox="0 0 20.961 31.044" width="20.961" height="31.044">
<g fill="black" stroke="none">
<path d="M 2.659 3.203 C 2.728 3.402 2.625 3.620 2.426 3.688 C 2.227 3.757 2.009 3.652 1.940 3.453 L 1.906 3.145 L 1.919 1.615 L 1.919 0.723 L 1.904 0.507 L 1.921 0.549 L 1.965 0.616 L 2.049 0.689 L 2.160 0.737 L 2.348 0.731 L 2.466 0.672 L 2.260 1.240 L 1.856 3.736 L 1.429 7.128 C 1.066 9.730 0.846 12.424 0.775 14.587 C 0.741 15.653 0.762 16.493 0.903 17.080 C 1.033 17.620 1.244 17.901 1.580 18.031 C 2.105 18.232 2.845 18.268 3.828 17.956 C 5.028 17.570 6.491 16.793 8.068 15.829 C 10.494 14.348 13.061 12.506 15.359 10.888 L 18.393 8.812 C 19.244 8.265 19.925 7.861 20.471 7.696 C 20.671 7.637 20.884 7.752 20.945 7.953 C 21.004 8.156 20.890 8.368 20.689 8.427 C 20.159 8.586 19.151 9.206 17.899 10.053 L 10.943 14.886 L 7.272 17.184 C 6.115 17.840 5.032 18.370 4.060 18.682 C 2.948 19.035 2.015 19.014 1.309 18.743 C 0.115 18.286 -0.057 16.700 0.012 14.563 C 0.084 12.368 0.308 9.655 0.674 7.023 L 1.232 2.650 L 1.519 1.054 C 1.624 0.635 1.703 0.297 2.003 0.067 L 2.357 0.000 C 2.604 0.073 2.614 0.220 2.633 0.283 C 2.742 0.628 2.688 1.058 2.681 1.622 L 2.667 2.738 L 2.669 3.130 L 2.673 3.241 L 2.659 3.203 Z"/>
<path d="M 10.794 0.832 C 10.792 0.622 10.960 0.450 11.171 0.448 C 11.381 0.446 11.554 0.616 11.555 0.826 C 11.565 1.838 11.142 2.462 10.888 3.488 L 10.700 5.648 L 10.635 9.772 L 10.897 17.907 L 11.311 22.910 C 11.559 25.178 11.858 27.109 12.168 28.513 L 12.592 30.034 L 12.743 30.340 L 12.644 30.304 L 12.522 30.309 C 12.724 30.254 12.933 30.374 12.988 30.577 C 13.044 30.780 12.923 30.989 12.721 31.044 L 12.256 30.929 C 11.911 30.638 11.800 30.160 11.615 29.470 L 10.771 24.798 L 10.138 17.949 L 9.874 9.778 L 9.939 5.615 C 9.979 4.653 9.994 3.916 10.147 3.302 C 10.429 2.177 10.800 1.632 10.794 0.832 Z"/>
</g>
</svg>
