<svg xmlns="http://www.w3.org/2000/svg" viewBox="0 0 3.371 6.721" width="3.371" height="6.721">
<g fill="none" stroke="black" stroke-width="0.134" stroke-linecap="round" stroke-linejoin="round">
<path d="M 0.466 0.234 L 0.422 0.369 L 0.413 0.400 L 0.400 0.442 L 0.385 0.492 L 0.369 0.549 L 0.352 0.608 L 0.336 0.670 L 0.320 0.732 L 0.304 0.795 L 0.289 0.858 L 0.274 0.921 L 0.260 0.984 L 0.247 1.047 L 0.234 1.111 L 0.223 1.175 L 0.214 1.239 L 0.206 1.303 L 0.200 1.367 L 0.195 1.432 L 0.192 1.496 L 0.191 1.561 L 0.191 1.626 L 0.192 1.690 L 0.195 1.755 L 0.199 1.820 L 0.205 1.884 L 0.211 1.949 L 0.217 2.013 L 0.225 2.078 L 0.233 2.142 L 0.242 2.206 L 0.251 2.270 L 0.262 2.334 L 0.274 2.398 L 0.288 2.461 L 0.303 2.524 L 0.319 2.587 L 0.336 2.649 L 0.355 2.711 L 0.376 2.772 L 0.398 2.833 L 0.421 2.893 L 0.446 2.953 L 0.473 3.011 L 0.502 3.069 L 0.533 3.126 L 0.565 3.181 L 0.600 3.235 L 0.637 3.288 L 0.676 3.338 L 0.718 3.387 L 0.762 3.432 L 0.809 3.475 L 0.859 3.515 L 0.911 3.551 L 0.965 3.583 L 1.021 3.611 L 1.080 3.635 L 1.140 3.655 L 1.202 3.670 L 1.264 3.681 L 1.327 3.689 L 1.391 3.693 L 1.455 3.694 L 1.519 3.691 L 1.583 3.684 L 1.646 3.675 L 1.709 3.662 L 1.771 3.646 L 1.833 3.628 L 1.893 3.606 L 1.953 3.583 L 2.012 3.557 L 2.071 3.530 L 2.128 3.500 L 2.185 3.469 L 2.241 3.437 L 2.296 3.404 L 2.352 3.370 L 2.407 3.337 L 2.462 3.304 L 2.518 3.273 L 2.573 3.241 L 2.627 3.210 L 2.679 3.177 L 2.726 3.141 L 2.768 3.101 L 2.803 3.057 L 2.832 3.008 L 2.854 2.954 L 2.870 2.896 L 2.883 2.836 L 2.894 2.775 L 2.902 2.712 L 2.909 2.649 L 2.915 2.586 L 2.918 2.523 L 2.919 2.460 L 2.919 2.397 L 2.917 2.333 L 2.916 2.269 L 2.915 2.205 L 2.916 2.141 L 2.917 2.076 L 2.920 2.012 L 2.923 1.947 L 2.927 1.882 L 2.931 1.817 L 2.935 1.752 L 2.939 1.688 L 2.944 1.623 L 2.948 1.558 L 2.953 1.493 L 2.958 1.429 L 2.963 1.364 L 2.969 1.300 L 2.976 1.235 L 2.984 1.171 L 2.992 1.107 L 3.003 1.044 L 3.014 0.981 L 3.027 0.921 L 3.040 0.864 L 3.053 0.814 L 3.065 0.771 L 3.074 0.741 L 3.127 0.611"/>
<path d="M 3.127 6.510 L 3.082 6.471 L 3.073 6.462 L 3.061 6.448 L 3.047 6.432 L 3.032 6.413 L 3.018 6.392 L 3.005 6.370 L 2.993 6.346 L 2.983 6.322 L 2.974 6.297 L 2.965 6.271 L 2.958 6.245 L 2.951 6.219 L 2.945 6.193 L 2.939 6.166 L 2.933 6.140 L 2.927 6.113 L 2.922 6.087 L 2.917 6.060 L 2.912 6.033 L 2.909 6.006 L 2.905 5.979 L 2.902 5.953 L 2.899 5.926 L 2.896 5.898 L 2.894 5.871 L 2.892 5.844 L 2.889 5.817 L 2.888 5.790 L 2.886 5.763 L 2.884 5.736 L 2.883 5.709 L 2.881 5.682 L 2.880 5.655 L 2.879 5.627 L 2.878 5.600 L 2.877 5.573 L 2.875 5.546 L 2.874 5.519 L 2.873 5.492 L 2.872 5.464 L 2.871 5.437 L 2.870 5.410 L 2.869 5.383 L 2.867 5.356 L 2.866 5.329 L 2.865 5.302 L 2.864 5.274 L 2.864 5.247 L 2.863 5.220 L 2.863 5.193 L 2.862 5.166 L 2.862 5.139 L 2.862 5.111 L 2.862 5.084 L 2.863 5.057 L 2.863 5.030 L 2.863 5.003 L 2.863 4.976 L 2.864 4.948 L 2.864 4.921 L 2.864 4.894 L 2.865 4.867 L 2.865 4.840 L 2.865 4.812 L 2.866 4.785 L 2.866 4.758 L 2.866 4.731 L 2.867 4.704 L 2.867 4.677 L 2.867 4.649 L 2.867 4.622 L 2.868 4.595 L 2.868 4.568 L 2.868 4.541 L 2.869 4.514 L 2.869 4.486 L 2.869 4.459 L 2.870 4.432 L 2.870 4.405 L 2.870 4.378 L 2.870 4.350 L 2.871 4.323 L 2.871 4.296 L 2.871 4.269 L 2.872 4.242 L 2.872 4.215 L 2.872 4.187 L 2.873 4.160 L 2.873 4.133 L 2.873 4.106 L 2.873 4.079 L 2.874 4.052 L 2.874 4.024 L 2.874 3.997 L 2.875 3.970 L 2.875 3.943 L 2.875 3.916 L 2.876 3.888 L 2.876 3.861 L 2.876 3.834 L 2.877 3.807 L 2.877 3.780 L 2.877 3.753 L 2.877 3.725 L 2.878 3.698 L 2.878 3.671 L 2.878 3.644 L 2.879 3.617 L 2.879 3.590 L 2.879 3.562 L 2.880 3.535 L 2.880 3.508 L 2.880 3.481 L 2.880 3.454 L 2.881 3.427 L 2.881 3.399 L 2.881 3.372 L 2.881 3.345 L 2.880 3.319 L 2.878 3.292 L 2.876 3.267 L 2.873 3.243 L 2.869 3.222 L 2.866 3.204 L 2.863 3.192 L 2.839 3.139"/>
</g>
</svg>