<svg xmlns="http://www.w3.org/2000/svg" viewBox="0 0 15.465 30.834" width="15.465" height="30.834">
<g fill="black" stroke="none">
<path d="M 1.294 0.670 C 1.427 0.184 1.932 -0.100 2.418 0.033 C 2.904 0.170 3.189 0.670 3.055 1.157 L 1.996 5.102 C 1.597 7.809 1.954 12.112 3.620 14.644 C 4.762 16.374 6.661 16.575 8.666 15.736 C 10.758 14.864 12.772 12.915 13.712 10.726 C 13.910 10.263 14.446 10.052 14.910 10.249 C 15.373 10.447 15.589 10.988 15.391 11.451 C 14.245 14.121 11.942 16.351 9.368 17.424 C 8.102 17.956 6.744 18.195 5.450 17.947 C 4.152 17.704 2.932 16.915 2.097 15.649 C 0.014 12.488 -0.271 7.942 0.188 4.836 L 1.294 0.670 Z"/>
<path d="M 13.561 2.327 C 13.841 1.909 14.405 1.794 14.827 2.074 C 15.249 2.354 15.364 2.918 15.084 3.340 L 14.630 5.685 L 14.323 9.763 L 14.176 17.832 L 14.148 26.173 L 14.442 28.517 L 14.680 29.049 C 15.162 29.200 15.428 29.714 15.277 30.196 C 15.125 30.678 14.612 30.944 14.130 30.792 C 13.318 30.540 12.905 29.779 12.689 29.026 L 12.281 24.484 L 12.350 17.823 L 12.497 9.676 L 12.809 5.497 C 12.965 3.996 13.084 3.047 13.561 2.327 Z"/>
</g>
</svg>
