<svg xmlns="http://www.w3.org/2000/svg" viewBox="0 0 12.131 30.814" width="12.131" height="30.814">
<g fill="black" stroke="none">
<path d="M 6.849 2.653 C 6.798 2.819 6.623 2.914 6.457 2.865 C 6.289 2.814 6.194 2.639 6.245 2.473 C 6.487 1.657 5.995 0.770 5.442 0.641 C 5.295 0.608 5.037 0.691 4.719 0.971 C 4.375 1.276 3.995 1.765 3.611 2.400 C 2.557 4.138 1.555 6.776 0.989 9.421 C 0.593 11.262 0.557 13.076 0.721 14.588 C 0.853 15.799 1.213 16.711 1.700 17.279 C 2.163 17.818 2.748 18.060 3.369 18.008 C 4.082 17.941 4.904 17.508 5.712 16.593 C 7.035 15.088 8.087 12.462 8.907 9.806 C 9.498 7.895 9.800 5.992 9.982 4.534 C 10.099 3.575 10.113 2.925 10.048 2.707 L 10.127 2.742 L 9.983 2.909 C 9.903 3.088 9.911 3.614 10.002 4.330 L 10.391 7.144 L 10.772 11.618 C 11.043 15.458 11.152 20.124 11.319 24.070 L 11.621 28.814 L 11.830 30.076 L 11.904 30.264 L 11.879 30.242 L 11.752 30.205 L 11.640 30.238 C 11.784 30.140 11.980 30.178 12.078 30.322 C 12.175 30.466 12.137 30.662 11.993 30.760 C 11.830 30.869 11.530 30.798 11.422 30.668 C 11.234 30.446 11.185 30.153 11.114 29.752 L 10.813 26.584 C 10.562 22.323 10.477 16.387 10.143 11.662 L 9.765 7.219 L 9.378 4.411 C 9.283 3.670 9.209 3.093 9.410 2.650 C 9.527 2.391 9.723 2.193 9.976 2.130 C 10.235 2.067 10.564 2.247 10.651 2.522 C 10.783 2.966 10.728 3.625 10.606 4.610 C 10.423 6.090 10.116 8.028 9.509 9.991 C 8.678 12.687 7.626 15.368 6.185 17.010 C 5.298 18.014 4.334 18.551 3.425 18.635 C 2.604 18.705 1.800 18.362 1.223 17.688 C 0.627 16.996 0.236 15.961 0.095 14.656 C -0.075 13.080 -0.039 11.205 0.372 9.289 C 0.954 6.577 1.967 3.896 3.072 2.073 C 3.872 0.753 4.713 -0.175 5.586 0.027 C 6.582 0.261 7.185 1.520 6.849 2.653 Z"/>
</g>
</svg>
