<svg xmlns="http://www.w3.org/2000/svg" viewBox="0 0 5.195 12.161" width="5.195" height="12.161">
<g fill="black" stroke="none">
<path d="M 1.452 0.434 C 1.373 0.293 1.423 0.116 1.563 0.037 C 1.704 -0.041 1.882 0.008 1.960 0.149 C 2.103 0.405 2.014 0.533 1.980 0.788 L 1.693 2.496 L 1.265 5.029 L 0.762 9.181 L 0.641 10.782 L 0.584 11.779 L 0.576 11.760 L 0.550 11.706 L 0.469 11.624 L 0.314 11.579 L 0.190 11.607 L 0.133 11.645 L 0.098 11.684 L 0.197 11.420 C 0.250 11.269 0.415 11.187 0.567 11.240 C 0.720 11.292 0.800 11.458 0.747 11.610 L 0.584 12.006 L 0.516 12.085 L 0.292 12.161 L 0.064 12.029 L 0.000 11.763 L 0.058 10.742 L 0.183 9.124 L 0.689 4.940 L 1.240 1.715 L 1.402 0.712 L 1.430 0.432 L 1.429 0.374 L 1.452 0.434 Z"/>
<path d="M 4.800 3.713 C 4.656 3.787 4.481 3.733 4.406 3.590 C 4.332 3.448 4.386 3.272 4.529 3.196 L 4.750 3.100 L 4.877 3.082 L 5.113 3.190 C 5.255 3.356 5.176 3.493 5.148 3.552 L 4.721 4.077 L 3.976 4.858 C 2.998 5.892 1.952 7.167 1.541 8.049 C 1.381 8.391 1.363 8.653 1.420 8.783 C 1.537 9.043 2.226 9.315 2.980 9.518 L 4.064 9.834 C 4.381 9.953 4.690 10.086 4.813 10.408 C 4.871 10.557 4.795 10.726 4.645 10.783 C 4.496 10.840 4.326 10.766 4.269 10.615 L 3.861 10.381 L 2.251 9.915 C 1.680 9.735 1.111 9.521 0.888 9.020 C 0.727 8.657 0.813 8.230 1.013 7.802 C 1.484 6.791 2.549 5.517 3.552 4.457 L 4.531 3.419 L 4.620 3.306 L 4.610 3.343 L 4.604 3.391 L 4.612 3.461 L 4.649 3.543 L 4.778 3.647 L 4.863 3.664 L 4.912 3.660 L 4.800 3.713 Z"/>
</g>
</svg>
