<svg xmlns="http://www.w3.org/2000/svg" viewBox="0 0 18.211 30.585" width="18.211" height="30.585">
<g fill="black" stroke="none">
<path d="M 2.076 2.254 C 2.174 2.501 2.054 2.777 1.810 2.876 C 1.564 2.975 1.285 2.854 1.187 2.609 L 0.358 0.876 L 0.461 0.930 L 0.576 0.949 L 0.829 0.862 L 0.925 0.755 L 0.942 0.718 L 0.954 1.314 L 1.540 4.753 L 2.436 9.961 C 2.905 13.293 2.943 16.876 3.101 19.920 L 3.325 24.591 L 3.628 26.464 L 3.510 26.404 L 3.433 26.404 C 3.498 26.385 4.099 25.762 4.678 24.674 L 6.143 21.560 C 8.101 17.082 10.339 11.121 12.337 6.365 L 13.697 3.272 C 14.310 1.968 14.803 0.997 15.312 0.461 L 15.754 0.147 C 16.057 0.036 16.494 0.255 16.624 0.519 L 16.806 1.415 C 16.820 1.679 16.619 1.905 16.354 1.920 C 16.090 1.934 15.864 1.730 15.853 1.465 L 15.770 0.946 C 15.299 0.046 9.464 17.674 5.524 25.124 L 4.356 26.875 L 3.750 27.307 C 3.503 27.395 3.141 27.336 2.938 27.127 C 2.443 26.611 2.445 25.801 2.369 24.655 L 2.145 19.970 C 1.984 16.900 1.946 13.346 1.489 10.096 L 0.600 4.933 L 0.000 1.401 L 0.010 0.502 L 0.177 0.166 L 0.680 0.000 C 1.187 0.094 1.226 0.410 1.408 0.752 L 2.076 2.254 Z"/>
<path d="M 9.661 10.297 C 9.694 10.036 9.935 9.850 10.197 9.884 C 10.458 9.918 10.644 10.158 10.610 10.422 C 10.550 10.891 10.778 12.075 11.210 13.572 C 12.645 18.515 15.631 25.734 18.142 29.857 C 18.279 30.083 18.207 30.378 17.981 30.515 C 17.755 30.652 17.462 30.580 17.325 30.354 C 15.636 27.584 13.759 23.399 12.193 19.343 L 10.293 13.839 C 9.846 12.302 9.555 11.114 9.661 10.297 Z"/>
</g>
</svg>
