<svg xmlns="http://www.w3.org/2000/svg" viewBox="0 0 13.020 30.480" width="13.020" height="30.480">
<g fill="black" stroke="none">
<path d="M 3.640 1.087 C 3.442 0.735 3.566 0.292 3.918 0.094 C 4.270 -0.104 4.717 0.021 4.912 0.373 C 5.271 1.014 5.047 1.337 4.963 1.974 L 4.245 6.255 L 3.171 12.604 L 1.910 23.010 L 1.605 27.024 L 1.462 29.523 L 1.444 29.476 L 1.378 29.340 L 1.177 29.135 L 0.788 29.021 L 0.477 29.091 L 0.334 29.186 L 0.246 29.285 L 0.495 28.622 C 0.627 28.244 1.041 28.039 1.422 28.171 C 1.803 28.303 2.005 28.717 1.873 29.098 L 1.462 30.092 L 1.294 30.290 L 0.733 30.480 L 0.161 30.150 L 0.000 29.483 L 0.147 26.925 L 0.458 22.867 L 1.726 12.380 L 3.108 4.298 L 3.515 1.784 L 3.585 1.084 L 3.581 0.937 L 3.640 1.087 Z"/>
<path d="M 12.030 9.305 C 11.671 9.492 11.231 9.356 11.044 8.997 C 10.857 8.642 10.993 8.202 11.352 8.011 L 11.905 7.769 L 12.224 7.725 L 12.814 7.997 C 13.170 8.411 12.972 8.755 12.902 8.902 L 11.832 10.218 L 9.966 12.175 C 7.514 14.767 4.893 17.963 3.863 20.173 C 3.460 21.031 3.416 21.687 3.559 22.013 C 3.852 22.666 5.579 23.347 7.470 23.857 L 10.186 24.648 C 10.982 24.945 11.755 25.279 12.063 26.085 C 12.209 26.459 12.019 26.884 11.641 27.027 C 11.267 27.170 10.842 26.983 10.699 26.606 L 9.677 26.019 L 5.641 24.850 C 4.212 24.399 2.786 23.864 2.225 22.607 C 1.822 21.698 2.038 20.628 2.540 19.554 C 3.720 17.021 6.389 13.828 8.903 11.171 L 11.355 8.568 L 11.579 8.286 L 11.553 8.378 L 11.539 8.499 L 11.561 8.675 L 11.652 8.880 L 11.975 9.140 L 12.187 9.184 L 12.312 9.173 L 12.030 9.305 Z"/>
</g>
</svg>
