<svg xmlns="http://www.w3.org/2000/svg" viewBox="0 0 3.593 8.344" width="3.593" height="8.344">
<g fill="black" stroke="none">
<path d="M 0.993 0.325 C 0.939 0.229 0.973 0.108 1.069 0.054 C 1.165 0.000 1.287 0.034 1.340 0.130 C 1.438 0.305 1.377 0.393 1.354 0.567 L 1.158 1.735 L 0.865 3.467 L 0.521 6.306 L 0.438 7.401 L 0.399 8.083 L 0.394 8.070 L 0.376 8.033 L 0.321 7.977 L 0.215 7.946 L 0.130 7.965 L 0.091 7.991 L 0.067 8.018 L 0.135 7.837 C 0.171 7.734 0.284 7.678 0.388 7.714 C 0.492 7.750 0.547 7.863 0.511 7.967 L 0.399 8.238 L 0.353 8.292 L 0.200 8.344 L 0.044 8.254 L 0.000 8.072 L 0.040 7.374 L 0.125 6.267 L 0.471 3.406 L 0.848 1.201 L 0.959 0.515 L 0.978 0.324 L 0.977 0.284 L 0.993 0.325 Z"/>
<path d="M 3.282 2.567 C 3.184 2.618 3.064 2.581 3.013 2.483 C 2.962 2.386 2.999 2.266 3.097 2.214 L 3.248 2.148 L 3.335 2.136 L 3.496 2.210 C 3.593 2.323 3.539 2.417 3.520 2.457 L 3.228 2.816 L 2.719 3.350 C 2.050 4.057 1.335 4.929 1.054 5.532 C 0.944 5.766 0.932 5.945 0.971 6.034 C 1.051 6.212 1.522 6.398 2.038 6.537 L 2.779 6.753 C 2.996 6.834 3.207 6.925 3.291 7.145 C 3.331 7.247 3.279 7.363 3.176 7.402 C 3.074 7.441 2.958 7.390 2.919 7.287 L 2.640 7.127 L 1.539 6.808 C 1.149 6.685 0.760 6.539 0.607 6.196 C 0.497 5.948 0.556 5.656 0.693 5.363 C 1.015 4.672 1.743 3.801 2.429 3.076 L 3.098 2.366 L 3.159 2.289 L 3.152 2.314 L 3.148 2.347 L 3.154 2.395 L 3.179 2.451 L 3.267 2.522 L 3.325 2.534 L 3.359 2.531 L 3.282 2.567 Z"/>
</g>
</svg>
