<svg xmlns="http://www.w3.org/2000/svg" viewBox="0 0 10.446 15.847" width="10.446" height="15.847">
<g fill="black" stroke="none">
<path d="M 6.359 1.643 C 6.322 1.822 6.144 1.938 5.963 1.899 C 5.784 1.862 5.669 1.685 5.706 1.504 C 5.860 0.782 6.263 0.206 6.879 0.066 C 7.171 0.000 7.639 -0.087 8.101 0.193 C 8.734 0.576 9.255 1.402 9.605 2.503 C 9.856 3.299 9.953 4.236 9.963 5.246 C 9.977 6.578 9.801 8.042 9.312 9.416 C 8.897 10.580 8.183 11.588 7.455 12.373 C 6.777 13.105 5.989 13.582 5.185 13.741 C 4.604 13.858 3.996 13.823 3.432 13.573 C 2.402 13.118 1.666 11.983 1.083 10.803 C 0.608 9.837 0.341 8.765 0.166 7.781 C 0.007 6.898 -0.047 6.088 0.045 5.355 C 0.259 3.660 1.358 2.450 2.662 1.765 C 3.964 1.082 5.454 0.848 6.685 0.921 C 6.868 0.931 7.008 1.089 6.998 1.273 C 6.986 1.457 6.829 1.598 6.645 1.586 C 5.533 1.521 4.144 1.742 2.972 2.356 C 1.808 2.965 0.891 3.980 0.708 5.437 C 0.626 6.081 0.671 6.826 0.822 7.663 C 0.993 8.611 1.247 9.627 1.682 10.508 C 2.235 11.626 2.940 12.626 3.702 12.962 C 4.130 13.152 4.584 13.182 5.054 13.088 C 5.696 12.959 6.365 12.566 6.966 11.919 C 7.646 11.186 8.309 10.243 8.684 9.194 C 9.139 7.910 9.309 6.520 9.295 5.252 C 9.287 4.285 9.191 3.406 8.969 2.704 C 8.651 1.705 8.165 1.012 7.757 0.764 C 7.502 0.610 7.299 0.655 7.028 0.717 C 6.707 0.791 6.481 1.064 6.359 1.643 Z"/>
<path d="M 6.144 9.823 C 6.015 9.691 6.020 9.480 6.153 9.351 C 6.285 9.224 6.496 9.229 6.625 9.361 C 6.968 9.719 7.105 10.279 7.412 11.047 C 7.762 11.924 8.302 13.031 8.875 13.930 L 9.664 14.961 L 9.935 15.162 L 9.965 15.181 C 10.131 15.099 10.330 15.167 10.412 15.333 C 10.494 15.497 10.427 15.698 10.261 15.780 C 9.874 15.969 9.494 15.723 9.201 15.442 C 8.259 14.538 7.348 12.691 6.792 11.293 L 6.144 9.823 Z"/>
</g>
</svg>
