<svg xmlns="http://www.w3.org/2000/svg" viewBox="0 0 23.629 40.242" width="23.629" height="40.242">
<g fill="black" stroke="none">
<path d="M 8.145 7.881 C 7.906 8.114 7.524 8.111 7.291 7.872 C 7.058 7.632 7.064 7.251 7.300 7.018 C 7.900 6.433 8.587 5.187 8.682 3.866 C 8.745 2.960 8.602 2.036 8.264 1.540 C 8.069 1.251 7.603 1.103 6.915 1.272 C 6.173 1.451 5.294 1.981 4.531 2.848 C 3.664 3.842 2.861 5.411 2.267 7.608 C 1.601 10.078 1.300 13.235 1.249 16.726 C 1.207 19.558 1.125 22.515 1.452 25.301 C 1.776 28.058 2.852 30.639 3.894 32.799 C 5.285 35.711 7.257 37.172 9.136 37.363 C 13.117 37.772 18.332 30.397 20.689 23.101 C 21.496 20.559 21.914 18.077 21.902 15.892 C 21.893 11.605 18.978 8.817 15.724 7.730 C 14.115 7.190 12.451 7.057 11.075 7.302 C 9.754 7.542 8.763 8.141 8.372 8.960 C 8.227 9.262 7.866 9.390 7.567 9.244 C 7.267 9.102 7.139 8.741 7.282 8.439 C 8.506 5.882 12.548 5.396 16.105 6.584 C 17.911 7.187 19.650 8.245 20.947 9.784 C 22.259 11.341 23.105 13.429 23.111 15.886 C 23.123 18.226 22.677 20.819 21.838 23.471 C 20.626 27.221 18.754 30.985 16.490 33.914 C 14.290 36.757 11.669 38.836 9.015 38.563 C 6.643 38.324 4.325 36.503 2.803 33.324 C 1.740 31.112 0.600 28.412 0.252 25.440 C -0.088 22.544 0.001 19.537 0.040 16.707 C 0.094 13.156 0.391 9.917 1.101 7.293 C 1.730 4.970 2.594 3.227 3.622 2.051 C 4.531 1.018 5.600 0.348 6.631 0.097 C 7.630 -0.146 8.712 0.051 9.263 0.861 C 9.851 1.724 9.963 2.872 9.888 3.951 C 9.769 5.614 8.988 7.057 8.145 7.881 Z"/>
<path d="M 11.951 24.171 C 12.035 24.491 11.842 24.822 11.521 24.907 C 11.197 24.991 10.866 24.797 10.784 24.476 L 10.605 23.543 C 10.587 23.304 10.524 22.940 10.966 22.679 C 11.394 22.428 11.709 22.673 11.879 22.804 C 12.499 23.289 13.148 24.309 14.057 25.697 C 17.044 30.251 21.059 37.338 23.395 39.162 C 23.659 39.369 23.708 39.748 23.502 40.011 C 23.296 40.272 22.916 40.320 22.653 40.115 C 21.580 39.275 20.377 37.615 19.011 35.612 L 12.953 26.216 L 11.170 23.786 L 11.123 23.746 L 11.215 23.779 L 11.493 23.761 L 11.733 23.582 L 11.799 23.453 L 11.951 24.171 Z"/>
</g>
</svg>
