<svg xmlns="http://www.w3.org/2000/svg" viewBox="0 0 6.296 9.590" width="6.296" height="9.590">
<g fill="black" stroke="none">
<path d="M 3.826 1.033 C 3.804 1.140 3.698 1.209 3.590 1.186 C 3.483 1.164 3.414 1.058 3.436 0.950 C 3.528 0.519 3.769 0.175 4.137 0.091 C 4.311 0.052 4.591 0.000 4.867 0.167 C 5.245 0.396 5.556 0.889 5.765 1.547 C 5.915 2.022 5.973 2.582 5.979 3.185 C 5.987 3.981 5.882 4.855 5.590 5.676 C 5.342 6.371 4.916 6.973 4.481 7.442 C 4.076 7.879 3.605 8.164 3.125 8.259 C 2.778 8.329 2.415 8.308 2.078 8.159 C 1.463 7.887 1.023 7.209 0.675 6.504 C 0.391 5.927 0.232 5.287 0.127 4.699 C 0.032 4.172 0.000 3.688 0.055 3.250 C 0.183 2.238 0.839 1.515 1.618 1.106 C 2.396 0.698 3.286 0.558 4.021 0.602 C 4.130 0.608 4.214 0.702 4.208 0.812 C 4.201 0.922 4.107 1.006 3.997 0.999 C 3.333 0.960 2.503 1.092 1.803 1.459 C 1.108 1.823 0.560 2.429 0.451 3.299 C 0.402 3.684 0.429 4.129 0.519 4.629 C 0.621 5.195 0.773 5.802 1.033 6.328 C 1.363 6.996 1.784 7.593 2.239 7.794 C 2.495 7.907 2.766 7.925 3.047 7.869 C 3.430 7.792 3.830 7.557 4.189 7.171 C 4.595 6.733 4.991 6.170 5.215 5.543 C 5.487 4.776 5.588 3.946 5.580 3.189 C 5.575 2.611 5.518 2.086 5.385 1.667 C 5.195 1.070 4.905 0.656 4.661 0.508 C 4.509 0.416 4.388 0.443 4.226 0.480 C 4.034 0.524 3.899 0.687 3.826 1.033 Z"/>
<path d="M 3.698 5.919 C 3.621 5.840 3.624 5.714 3.703 5.637 C 3.782 5.561 3.908 5.564 3.985 5.643 C 4.190 5.857 4.272 6.191 4.455 6.650 C 4.664 7.174 4.987 7.835 5.329 8.372 L 5.800 8.988 L 5.962 9.108 L 5.980 9.119 C 6.079 9.070 6.198 9.111 6.247 9.210 C 6.296 9.308 6.256 9.428 6.157 9.477 C 5.926 9.590 5.699 9.443 5.524 9.275 C 4.961 8.735 4.417 7.632 4.085 6.797 L 3.698 5.919 Z"/>
</g>
</svg>
