<svg xmlns="http://www.w3.org/2000/svg" viewBox="0 0 26.182 39.718" width="26.182" height="39.718">
<g fill="black" stroke="none">
<path d="M 15.937 4.118 C 15.845 4.567 15.400 4.856 14.947 4.760 C 14.498 4.667 14.208 4.223 14.300 3.769 C 14.687 1.961 15.698 0.517 17.242 0.165 C 17.972 0.001 19.147 -0.217 20.305 0.484 C 21.892 1.445 23.197 3.513 24.074 6.274 C 24.703 8.268 24.946 10.618 24.972 13.148 C 25.005 16.488 24.565 20.156 23.339 23.601 C 22.299 26.517 20.511 29.043 18.686 31.012 C 16.986 32.845 15.010 34.041 12.995 34.440 C 11.539 34.734 10.016 34.646 8.602 34.020 C 6.021 32.879 4.175 30.034 2.715 27.075 C 1.523 24.654 0.856 21.969 0.415 19.501 C 0.016 17.290 -0.118 15.259 0.113 13.421 C 0.650 9.174 3.403 6.140 6.672 4.424 C 9.936 2.712 13.671 2.124 16.755 2.309 C 17.213 2.334 17.565 2.729 17.540 3.190 C 17.511 3.652 17.116 4.004 16.655 3.975 C 13.868 3.811 10.385 4.365 7.448 5.905 C 4.532 7.433 2.232 9.976 1.775 13.626 C 1.569 15.242 1.682 17.109 2.060 19.207 C 2.488 21.583 3.126 24.130 4.217 26.337 C 5.602 29.140 7.368 31.645 9.278 32.489 C 10.352 32.963 11.489 33.038 12.668 32.803 C 14.275 32.480 15.954 31.494 17.460 29.874 C 19.164 28.036 20.826 25.674 21.766 23.043 C 22.907 19.824 23.331 16.341 23.297 13.165 C 23.276 10.739 23.037 8.536 22.479 6.778 C 21.682 4.273 20.465 2.536 19.441 1.915 C 18.803 1.528 18.295 1.642 17.616 1.797 C 16.810 1.982 16.243 2.666 15.937 4.118 Z"/>
<path d="M 15.400 24.621 C 15.077 24.289 15.089 23.760 15.421 23.437 C 15.752 23.118 16.281 23.131 16.604 23.462 C 17.464 24.360 17.809 25.762 18.576 27.688 C 19.453 29.887 20.809 32.661 22.244 34.914 L 24.220 37.499 L 24.900 38.003 L 24.976 38.049 C 25.391 37.843 25.891 38.015 26.096 38.431 C 26.302 38.842 26.134 39.345 25.719 39.551 C 24.749 40.025 23.797 39.408 23.062 38.703 C 20.700 36.437 18.417 31.809 17.024 28.305 L 15.400 24.621 Z"/>
</g>
</svg>
