<svg xmlns="http://www.w3.org/2000/svg" viewBox="0 0 5.684 5.505" width="5.684" height="5.505">
<g fill="black" stroke="none">
<path d="M 0.011 0.911 C 0.000 0.802 0.080 0.704 0.189 0.693 C 0.299 0.682 0.396 0.763 0.407 0.872 L 0.712 2.396 L 1.057 4.235 L 1.175 4.823 L 1.271 5.080 L 1.293 5.112 L 1.268 5.098 L 1.197 5.088 L 1.117 5.119 L 1.088 5.147 L 1.216 4.542 L 1.629 2.917 L 1.855 2.188 L 2.173 1.218 L 2.399 0.742 L 2.568 0.653 C 2.697 0.653 2.723 0.719 2.743 0.745 L 2.878 1.048 L 3.341 2.881 L 3.664 4.410 L 3.763 4.746 L 3.785 4.792 L 3.753 4.766 L 3.651 4.745 L 3.578 4.774 L 3.556 4.794 L 3.774 3.857 C 3.950 2.995 4.165 2.065 4.433 1.311 L 4.862 0.405 C 5.020 0.182 5.262 0.000 5.522 0.083 C 5.627 0.117 5.684 0.229 5.651 0.334 C 5.617 0.439 5.505 0.496 5.400 0.463 L 5.187 0.636 C 4.771 1.221 4.426 2.652 4.165 3.936 L 4.017 4.652 L 3.936 4.921 C 3.904 4.998 3.879 5.118 3.701 5.140 C 3.590 5.154 3.507 5.085 3.469 5.035 L 3.278 4.510 L 2.949 2.950 L 2.618 1.546 L 2.466 1.080 L 2.423 0.982 L 2.439 1.001 L 2.471 1.025 L 2.521 1.046 L 2.644 1.036 L 2.726 0.970 L 2.533 1.388 L 2.235 2.309 L 2.014 3.018 L 1.606 4.625 L 1.513 5.096 L 1.458 5.291 C 1.434 5.352 1.413 5.464 1.243 5.484 C 1.058 5.505 0.979 5.373 0.925 5.277 L 0.790 4.926 L 0.666 4.310 L 0.322 2.477 L 0.011 0.911 Z"/>
</g>
</svg>
