<svg xmlns="http://www.w3.org/2000/svg" viewBox="0 0 20.724 21.138" width="20.724" height="21.138">
<g fill="black" stroke="none">
<path d="M 0.794 6.124 C 0.750 6.342 0.536 6.482 0.319 6.435 C 0.101 6.391 -0.038 6.176 0.008 5.958 L 0.299 4.966 L 0.433 4.813 L 0.796 4.726 C 1.061 4.784 1.101 4.954 1.132 5.037 L 1.257 6.077 L 1.289 7.845 C 1.311 11.207 1.366 15.822 1.841 18.683 L 2.255 20.249 C 2.362 20.398 2.459 20.418 2.758 20.126 C 3.312 19.596 3.857 18.234 4.411 16.543 L 6.270 10.767 C 7.104 8.462 8.005 6.326 8.785 4.752 L 9.789 2.960 L 10.282 2.453 C 10.484 2.330 10.807 2.295 11.034 2.439 C 11.555 2.774 11.547 3.400 11.595 4.069 L 11.703 6.288 L 12.189 10.652 C 12.414 12.777 12.735 14.646 13.080 16.014 L 13.608 17.420 L 13.727 17.558 L 13.668 17.549 L 14.099 16.477 L 14.660 14.202 C 15.515 11.026 16.733 7.017 17.877 3.903 C 18.416 2.429 18.895 1.253 19.338 0.566 L 19.669 0.162 L 20.103 0.000 C 20.409 0.016 20.568 0.281 20.631 0.473 L 20.724 1.168 C 20.732 1.390 20.558 1.576 20.336 1.582 C 20.114 1.590 19.928 1.416 19.920 1.194 L 19.871 0.741 L 19.855 0.693 L 19.924 0.760 L 20.105 0.802 L 20.190 0.776 L 19.368 2.305 C 18.081 5.308 16.497 10.472 15.438 14.410 L 14.877 16.683 C 14.711 17.307 14.578 17.822 14.202 18.152 C 14.020 18.315 13.723 18.404 13.474 18.323 C 13.115 18.204 12.927 17.897 12.757 17.547 L 12.299 16.212 C 11.941 14.792 11.618 12.894 11.389 10.737 L 10.900 6.352 L 10.791 4.126 L 10.688 3.348 L 10.601 3.118 L 10.686 3.138 L 10.712 3.136 C 10.553 3.223 10.064 4.002 9.506 5.112 C 8.745 6.647 7.852 8.761 7.027 11.040 L 5.174 16.794 C 4.613 18.513 4.110 19.946 3.318 20.705 C 3.065 20.952 2.768 21.120 2.445 21.138 C 2.122 21.156 1.794 20.986 1.602 20.722 C 1.273 20.267 1.178 19.612 1.047 18.814 C 0.552 15.840 0.507 11.221 0.485 7.849 L 0.394 5.393 L 0.380 5.322 L 0.408 5.372 L 0.485 5.449 L 0.649 5.516 L 0.829 5.500 L 0.930 5.445 L 0.990 5.380 L 0.794 6.124 Z"/>
</g>
</svg>
