<svg xmlns="http://www.w3.org/2000/svg" viewBox="0 0 8.663 8.316" width="8.663" height="8.316">
<g fill="black" stroke="none">
<path d="M 0.001 1.301 C -0.016 1.134 0.107 0.984 0.274 0.967 C 0.443 0.950 0.592 1.074 0.609 1.241 L 1.076 3.578 L 1.605 6.398 L 1.786 7.299 L 1.933 7.693 L 1.967 7.742 L 1.929 7.721 L 1.820 7.706 L 1.697 7.753 L 1.653 7.796 L 1.849 6.868 L 2.482 4.377 L 2.829 3.259 L 3.316 1.772 L 3.663 1.042 L 3.922 0.905 C 4.120 0.905 4.160 1.007 4.190 1.046 L 4.397 1.511 L 5.107 4.322 L 5.603 6.666 L 5.754 7.181 L 5.788 7.252 L 5.739 7.212 L 5.583 7.180 L 5.471 7.224 L 5.437 7.255 L 5.771 5.818 C 6.041 4.496 6.371 3.070 6.782 1.914 L 7.439 0.525 C 7.682 0.183 8.053 -0.096 8.451 0.031 C 8.612 0.083 8.700 0.255 8.649 0.416 C 8.597 0.577 8.425 0.665 8.264 0.614 L 7.938 0.879 C 7.300 1.776 6.771 3.970 6.371 5.939 L 6.144 7.037 L 6.020 7.449 C 5.971 7.568 5.932 7.752 5.659 7.785 C 5.489 7.807 5.362 7.701 5.304 7.624 L 5.011 6.819 L 4.506 4.427 L 3.999 2.275 L 3.766 1.560 L 3.700 1.410 L 3.724 1.439 L 3.773 1.476 L 3.850 1.508 L 4.039 1.493 L 4.164 1.391 L 3.868 2.032 L 3.411 3.444 L 3.073 4.532 L 2.447 6.996 L 2.304 7.718 L 2.220 8.017 C 2.183 8.110 2.151 8.282 1.890 8.313 C 1.607 8.345 1.486 8.143 1.403 7.995 L 1.196 7.457 L 1.006 6.513 L 0.478 3.702 L 0.001 1.301 Z"/>
</g>
</svg>
