<svg xmlns="http://www.w3.org/2000/svg" viewBox="0 0 17.011 21.048" width="17.011" height="21.048">
<g fill="black" stroke="none">
<path d="M 0.724 7.727 C 0.719 7.925 0.553 8.082 0.355 8.076 C 0.159 8.071 0.002 7.907 0.005 7.709 L 0.005 5.364 L 0.000 4.103 L 0.023 3.714 L 0.049 3.613 L 0.146 3.462 L 0.445 3.361 L 0.708 3.523 L 0.760 3.620 C 0.955 4.100 1.036 4.864 1.142 5.851 L 1.526 9.345 L 2.822 17.433 L 3.306 19.619 L 3.615 20.172 L 3.642 20.160 C 3.899 19.900 4.189 18.900 4.436 17.592 L 5.274 12.849 L 6.317 8.314 L 7.402 4.856 L 7.730 4.254 L 8.119 3.988 C 8.384 3.923 8.640 4.092 8.770 4.272 L 9.071 4.950 L 9.586 7.233 C 10.125 10.084 10.629 13.785 11.238 16.623 C 11.581 18.188 11.950 19.450 12.264 20.061 L 12.471 20.385 L 12.330 20.365 L 12.246 20.407 C 12.330 20.326 12.523 19.558 12.613 18.488 L 12.887 14.318 C 13.123 11.165 13.505 7.512 14.098 4.543 C 14.383 3.119 14.698 1.914 15.107 1.069 C 15.302 0.665 15.512 0.339 15.813 0.141 C 16.114 -0.059 16.554 -0.047 16.864 0.177 C 17.024 0.292 17.058 0.517 16.943 0.678 C 16.826 0.838 16.603 0.874 16.442 0.759 L 16.210 0.739 C 14.898 1.606 14.017 8.811 13.604 14.370 L 13.329 18.547 C 13.235 19.648 13.213 20.468 12.750 20.918 C 12.572 21.097 12.184 21.080 12.010 20.935 L 11.624 20.387 L 11.085 18.936 L 10.537 16.776 L 9.406 10.395 L 8.880 7.366 L 8.382 5.155 L 8.206 4.718 L 8.182 4.676 L 8.301 4.682 L 8.260 4.745 L 8.067 5.127 L 7.011 8.498 L 5.979 12.988 L 5.143 17.725 C 4.890 19.062 4.694 20.118 4.150 20.668 C 3.905 20.911 3.465 20.951 3.193 20.754 C 2.924 20.562 2.757 20.243 2.625 19.844 L 2.117 17.569 C 1.672 15.239 1.169 12.228 0.814 9.435 L 0.429 5.928 L 0.095 3.890 L 0.132 3.950 L 0.238 4.036 L 0.353 4.072 L 0.494 4.063 L 0.602 4.013 L 0.697 3.910 L 0.730 3.836 L 0.724 5.361 L 0.724 7.727 Z"/>
</g>
</svg>
