<svg xmlns="http://www.w3.org/2000/svg" viewBox="0 0 17.098 21.156" width="17.098" height="21.156">
<g fill="black" stroke="none">
<path d="M 0.728 7.767 C 0.723 7.966 0.556 8.123 0.357 8.117 C 0.160 8.112 0.002 7.948 0.005 7.749 L 0.005 5.392 L 0.000 4.124 L 0.023 3.733 L 0.049 3.632 L 0.147 3.480 L 0.447 3.378 L 0.712 3.541 L 0.764 3.639 C 0.960 4.121 1.041 4.889 1.148 5.881 L 1.534 9.393 L 2.836 17.522 L 3.323 19.720 L 3.634 20.275 L 3.661 20.263 C 3.919 20.002 4.210 18.997 4.459 17.682 L 5.301 12.915 L 6.349 8.357 L 7.440 4.881 L 7.770 4.276 L 8.161 4.008 C 8.427 3.943 8.684 4.113 8.815 4.294 L 9.118 4.975 L 9.635 7.270 C 10.177 10.136 10.684 13.856 11.296 16.708 C 11.640 18.281 12.011 19.550 12.327 20.164 L 12.535 20.490 L 12.393 20.469 L 12.309 20.512 C 12.393 20.430 12.587 19.658 12.678 18.583 L 12.953 14.391 C 13.190 11.222 13.574 7.551 14.170 4.566 C 14.457 3.135 14.773 1.924 15.184 1.074 C 15.380 0.668 15.592 0.341 15.894 0.142 C 16.197 -0.059 16.639 -0.047 16.950 0.178 C 17.111 0.293 17.145 0.520 17.030 0.681 C 16.912 0.842 16.688 0.878 16.526 0.763 L 16.293 0.743 C 14.974 1.614 14.089 8.856 13.674 14.444 L 13.397 18.642 C 13.303 19.749 13.281 20.573 12.815 21.025 C 12.636 21.205 12.246 21.188 12.072 21.042 L 11.684 20.492 L 11.142 19.033 L 10.591 16.862 L 9.454 10.448 L 8.926 7.404 L 8.425 5.181 L 8.248 4.742 L 8.224 4.700 L 8.344 4.706 L 8.302 4.769 L 8.108 5.153 L 7.047 8.542 L 6.010 13.055 L 5.169 17.816 C 4.915 19.160 4.718 20.221 4.171 20.774 C 3.925 21.018 3.483 21.058 3.209 20.860 C 2.939 20.667 2.771 20.347 2.638 19.946 L 2.128 17.659 C 1.681 15.317 1.175 12.291 0.818 9.483 L 0.431 5.958 L 0.095 3.910 L 0.133 3.970 L 0.239 4.057 L 0.355 4.093 L 0.497 4.084 L 0.605 4.034 L 0.701 3.930 L 0.734 3.856 L 0.728 5.388 L 0.728 7.767 Z"/>
</g>
</svg>
