<svg xmlns="http://www.w3.org/2000/svg" viewBox="0 0 21.714 20.843" width="21.714" height="20.843">
<g fill="black" stroke="none">
<path d="M 0.003 3.261 C -0.039 2.842 0.269 2.465 0.687 2.423 C 1.110 2.381 1.483 2.692 1.525 3.111 L 2.697 8.968 L 4.023 16.035 L 4.477 18.295 L 4.846 19.282 L 4.930 19.405 L 4.834 19.351 L 4.561 19.313 L 4.254 19.432 L 4.142 19.540 L 4.634 17.215 L 6.221 10.970 L 7.090 8.168 L 8.312 4.440 L 9.181 2.611 L 9.830 2.269 C 10.326 2.269 10.426 2.523 10.503 2.623 L 11.021 3.787 L 12.801 10.831 L 14.042 16.707 L 14.423 17.999 L 14.507 18.175 L 14.384 18.076 L 13.992 17.995 L 13.712 18.106 L 13.627 18.183 L 14.465 14.582 C 15.141 11.270 15.967 7.696 16.997 4.798 L 18.646 1.316 C 19.253 0.459 20.183 -0.240 21.182 0.079 C 21.586 0.209 21.805 0.640 21.678 1.043 C 21.548 1.447 21.117 1.666 20.714 1.539 L 19.895 2.204 C 18.296 4.452 16.970 9.951 15.967 14.886 L 15.399 17.637 L 15.087 18.671 C 14.964 18.967 14.868 19.428 14.184 19.513 C 13.758 19.567 13.439 19.302 13.293 19.109 L 12.559 17.092 L 11.294 11.097 L 10.022 5.701 L 9.438 3.910 L 9.273 3.533 L 9.334 3.607 L 9.457 3.699 L 9.649 3.779 L 10.122 3.741 L 10.437 3.487 L 9.696 5.094 L 8.550 8.633 L 7.701 11.358 L 6.133 17.534 L 5.776 19.344 L 5.564 20.093 C 5.472 20.328 5.391 20.758 4.738 20.835 C 4.027 20.916 3.723 20.408 3.516 20.039 L 2.997 18.690 L 2.521 16.323 L 1.199 9.279 L 0.003 3.261 Z"/>
</g>
</svg>
