<svg xmlns="http://www.w3.org/2000/svg" viewBox="0 0 3.867 8.508" width="3.867" height="8.508">
<g fill="black" stroke="none">
<path d="M 0.424 0.513 C 0.441 0.622 0.366 0.723 0.257 0.740 C 0.148 0.756 0.047 0.682 0.030 0.573 L 0.000 0.326 L 0.003 0.195 L 0.035 0.112 L 0.181 0.017 C 0.301 0.000 0.348 0.064 0.370 0.090 L 0.463 0.261 L 0.995 1.913 L 1.350 2.714 L 1.503 2.904 L 1.532 2.925 C 1.638 2.897 1.747 2.960 1.776 3.066 C 1.804 3.172 1.741 3.281 1.635 3.310 C 1.496 3.347 1.355 3.295 1.257 3.218 C 0.915 2.951 0.729 2.382 0.534 1.797 L 0.094 0.411 L 0.062 0.342 L 0.081 0.363 L 0.121 0.392 L 0.212 0.413 L 0.321 0.378 L 0.373 0.323 L 0.395 0.269 L 0.399 0.313 L 0.424 0.513 Z"/>
<path d="M 3.360 0.257 C 3.357 0.147 3.444 0.055 3.554 0.052 C 3.664 0.049 3.755 0.136 3.758 0.246 C 3.766 0.554 3.867 0.829 3.765 1.198 C 3.698 1.442 3.536 1.650 3.381 1.888 L 2.358 3.491 L 1.768 4.772 L 1.245 6.462 L 0.945 7.935 L 0.860 8.302 C 0.840 8.352 0.817 8.435 0.691 8.470 C 0.558 8.508 0.469 8.419 0.432 8.371 C 0.365 8.284 0.382 8.159 0.470 8.092 C 0.557 8.025 0.682 8.042 0.749 8.129 L 0.720 8.105 L 0.670 8.085 L 0.598 8.083 L 0.537 8.107 L 0.505 8.134 L 0.489 8.156 L 0.595 7.624 L 0.859 6.366 C 0.990 5.839 1.153 5.232 1.398 4.623 L 2.011 3.295 L 3.047 1.672 L 3.381 1.092 C 3.451 0.838 3.369 0.625 3.360 0.257 Z"/>
</g>
</svg>
