<svg xmlns="http://www.w3.org/2000/svg" viewBox="0 0 13.086 30.484" width="13.086" height="30.484">
<g fill="black" stroke="none">
<path d="M 0.488 2.741 C 0.336 2.834 0.138 2.784 0.045 2.629 C -0.046 2.477 0.005 2.277 0.159 2.186 C 0.776 1.819 1.430 1.863 1.807 2.258 C 2.185 2.655 2.375 3.254 2.586 3.931 C 3.042 5.404 3.647 7.197 4.425 8.717 C 5.177 10.189 6.094 11.282 6.932 11.350 C 7.110 11.363 7.243 11.520 7.229 11.697 C 7.214 11.876 7.058 12.009 6.880 11.995 C 5.608 11.891 4.638 10.555 3.849 9.011 C 3.040 7.431 2.430 5.610 1.967 4.123 C 1.764 3.467 1.563 2.939 1.339 2.704 C 1.147 2.503 0.959 2.462 0.488 2.741 Z"/>
<path d="M 13.066 0.788 C 13.128 0.956 13.043 1.142 12.876 1.204 C 12.709 1.267 12.522 1.183 12.461 1.016 L 12.261 0.615 L 12.302 0.634 L 12.438 0.623 L 12.456 0.613 C 12.342 0.749 12.123 1.474 11.909 2.529 L 11.220 5.891 L 8.011 22.155 L 7.389 25.699 L 6.888 29.330 L 6.884 30.007 L 6.876 29.991 C 6.889 30.017 6.656 29.840 6.742 29.876 L 6.550 29.871 L 6.488 29.903 L 6.519 29.852 C 6.613 29.699 6.813 29.652 6.964 29.744 C 7.117 29.839 7.165 30.038 7.071 30.189 L 6.876 30.421 C 6.776 30.496 6.511 30.522 6.383 30.399 C 6.173 30.197 6.225 30.035 6.222 29.835 L 6.373 28.084 C 7.203 21.759 9.961 8.837 11.274 2.399 C 11.479 1.399 11.628 0.701 11.894 0.288 L 12.183 0.029 C 12.405 -0.062 12.659 0.076 12.776 0.222 L 13.066 0.788 Z"/>
</g>
</svg>
