<svg xmlns="http://www.w3.org/2000/svg" viewBox="0 0 5.465 12.141" width="5.465" height="12.141">
<g fill="black" stroke="none">
<path d="M 0.608 0.715 C 0.632 0.871 0.525 1.016 0.369 1.041 C 0.212 1.064 0.067 0.958 0.043 0.801 L 0.000 0.447 L 0.004 0.259 L 0.050 0.140 L 0.260 0.004 C 0.432 -0.021 0.499 0.071 0.531 0.108 L 0.664 0.354 L 1.427 2.723 L 1.936 3.872 L 2.156 4.144 L 2.197 4.175 C 2.349 4.134 2.506 4.225 2.547 4.377 C 2.587 4.529 2.497 4.685 2.345 4.727 C 2.146 4.780 1.943 4.705 1.803 4.595 C 1.312 4.212 1.046 3.396 0.766 2.557 L 0.135 0.569 L 0.089 0.470 L 0.116 0.500 L 0.174 0.542 L 0.304 0.572 L 0.460 0.522 L 0.535 0.443 L 0.567 0.365 L 0.572 0.428 L 0.608 0.715 Z"/>
<path d="M 4.819 0.348 C 4.815 0.190 4.940 0.058 5.097 0.054 C 5.255 0.050 5.386 0.174 5.390 0.332 C 5.401 0.774 5.546 1.168 5.400 1.698 C 5.304 2.048 5.071 2.346 4.849 2.687 L 3.382 4.986 L 2.536 6.824 L 1.786 9.247 L 1.355 11.360 L 1.233 11.886 C 1.205 11.958 1.172 12.077 0.991 12.127 C 0.800 12.182 0.673 12.054 0.620 11.985 C 0.523 11.861 0.548 11.681 0.674 11.585 C 0.799 11.489 0.978 11.514 1.074 11.638 L 1.033 11.604 L 0.961 11.575 L 0.858 11.572 L 0.770 11.607 L 0.724 11.645 L 0.701 11.677 L 0.853 10.914 L 1.232 9.110 C 1.420 8.354 1.654 7.483 2.005 6.610 L 2.884 4.705 L 4.370 2.377 L 4.849 1.546 C 4.950 1.181 4.832 0.876 4.819 0.348 Z"/>
</g>
</svg>
