<svg xmlns="http://www.w3.org/2000/svg" viewBox="0 0 13.697 30.429" width="13.697" height="30.429">
<g fill="black" stroke="none">
<path d="M 1.524 1.792 C 1.585 2.184 1.316 2.547 0.924 2.608 C 0.532 2.666 0.169 2.400 0.108 2.008 L 0.000 1.120 L 0.011 0.649 L 0.126 0.351 L 0.651 0.009 C 1.082 -0.052 1.251 0.178 1.330 0.272 L 1.664 0.887 L 3.577 6.825 L 4.853 9.705 L 5.403 10.388 L 5.507 10.463 C 5.888 10.362 6.280 10.589 6.384 10.970 C 6.485 11.351 6.258 11.743 5.877 11.847 C 5.378 11.980 4.871 11.793 4.519 11.516 C 3.289 10.556 2.621 8.511 1.920 6.408 L 0.338 1.426 L 0.223 1.178 L 0.291 1.253 L 0.435 1.357 L 0.762 1.433 L 1.154 1.307 L 1.341 1.109 L 1.420 0.915 L 1.434 1.074 L 1.524 1.792 Z"/>
<path d="M 12.078 0.872 C 12.068 0.477 12.380 0.146 12.776 0.135 C 13.171 0.124 13.498 0.437 13.509 0.833 C 13.538 1.940 13.901 2.928 13.534 4.255 C 13.293 5.132 12.711 5.880 12.154 6.735 L 8.476 12.498 L 6.356 17.103 L 4.475 23.178 L 3.397 28.473 L 3.091 29.792 C 3.020 29.972 2.937 30.270 2.484 30.396 C 2.006 30.532 1.686 30.213 1.553 30.040 C 1.312 29.727 1.373 29.278 1.690 29.037 C 2.002 28.796 2.452 28.857 2.692 29.170 L 2.588 29.084 L 2.408 29.012 L 2.150 29.005 L 1.930 29.091 L 1.815 29.188 L 1.758 29.267 L 2.139 27.355 L 3.088 22.833 C 3.559 20.938 4.145 18.756 5.025 16.567 L 7.229 11.793 L 10.953 5.959 L 12.154 3.874 C 12.405 2.961 12.111 2.195 12.078 0.872 Z"/>
</g>
</svg>
