<svg xmlns="http://www.w3.org/2000/svg" viewBox="0 0 32.649 20.491" width="32.649" height="20.491">
<g fill="black" stroke="none">
<path d="M 1.304 7.371 C 1.339 7.191 1.510 7.075 1.688 7.109 C 1.865 7.144 1.982 7.315 1.947 7.492 C 1.888 7.803 2.271 8.358 2.786 8.405 C 3.704 8.489 5.939 5.621 7.045 3.492 C 7.402 2.805 7.592 2.191 7.573 1.792 C 7.558 1.481 7.301 1.227 6.837 1.097 C 6.342 0.959 5.673 0.991 5.020 1.236 C 2.827 2.055 0.911 5.706 0.653 9.321 C 0.390 12.996 2.591 16.845 5.464 18.720 C 6.859 19.631 8.410 20.047 9.831 19.725 C 10.546 19.564 11.247 19.213 11.893 18.651 C 12.558 18.073 13.175 17.264 13.708 16.213 C 13.790 16.052 13.987 15.988 14.149 16.070 C 14.310 16.151 14.375 16.348 14.293 16.511 C 13.180 18.705 11.627 19.991 9.976 20.365 C 5.114 21.465 -0.424 15.205 0.000 9.274 C 0.135 7.372 0.699 5.479 1.551 3.899 C 2.387 2.349 3.495 1.106 4.790 0.622 C 5.564 0.333 6.359 0.285 7.012 0.466 C 7.650 0.644 8.196 1.112 8.227 1.760 C 8.255 2.361 8.013 3.050 7.625 3.795 C 7.066 4.872 6.260 6.140 5.377 7.208 C 4.517 8.247 3.642 9.141 2.727 9.058 C 1.831 8.976 1.156 8.147 1.304 7.371 Z"/>
<path d="M 17.867 3.487 C 18.047 3.468 18.209 3.598 18.229 3.777 C 18.249 3.956 18.119 4.119 17.940 4.139 L 17.709 4.282 C 17.639 4.458 17.667 4.889 17.805 5.458 L 18.443 7.616 C 19.081 9.696 19.389 12.229 19.696 14.282 L 19.927 16.616 L 19.958 17.409 L 19.956 17.388 L 19.941 17.323 C 19.958 17.373 19.236 17.251 19.492 17.131 C 19.688 17.040 19.315 17.340 19.325 17.317 L 19.312 17.364 L 19.389 16.822 L 19.973 13.835 L 21.098 9.759 C 21.716 7.900 22.608 6.132 23.558 4.601 C 24.848 2.525 26.440 1.165 28.045 0.497 C 29.603 -0.149 31.192 -0.151 32.453 0.403 C 32.618 0.476 32.694 0.670 32.621 0.834 C 32.549 1.000 32.355 1.076 32.189 1.004 C 31.108 0.528 29.708 0.517 28.297 1.102 C 26.835 1.711 25.343 2.969 24.116 4.946 C 23.188 6.441 22.317 8.168 21.719 9.965 L 20.613 13.980 L 20.035 16.927 L 19.971 17.368 L 19.961 17.445 L 19.941 17.537 C 19.930 17.568 19.915 17.868 19.529 17.739 C 19.211 17.634 19.315 17.514 19.310 17.488 L 19.302 17.218 L 19.274 16.669 L 19.050 14.379 C 18.739 12.318 18.432 9.807 17.816 7.808 C 17.481 6.721 17.160 5.782 17.048 5.022 C 16.996 4.658 16.984 4.328 17.103 4.035 C 17.223 3.741 17.527 3.525 17.867 3.487 Z"/>
</g>
</svg>
