<svg xmlns="http://www.w3.org/2000/svg" viewBox="0 0 34.441 21.616" width="34.441" height="21.616">
<g fill="black" stroke="none">
<path d="M 1.376 7.776 C 1.413 7.586 1.593 7.463 1.781 7.499 C 1.967 7.536 2.091 7.717 2.054 7.903 C 1.992 8.231 2.396 8.817 2.939 8.866 C 3.907 8.955 6.265 5.930 7.432 3.684 C 7.808 2.959 8.009 2.311 7.989 1.890 C 7.973 1.562 7.702 1.294 7.212 1.157 C 6.690 1.012 5.984 1.045 5.296 1.304 C 2.982 2.168 0.961 6.019 0.689 9.833 C 0.411 13.709 2.733 17.770 5.764 19.748 C 7.236 20.709 8.872 21.147 10.371 20.808 C 11.125 20.638 11.864 20.268 12.546 19.675 C 13.247 19.065 13.898 18.212 14.461 17.103 C 14.547 16.933 14.755 16.866 14.926 16.952 C 15.096 17.038 15.164 17.245 15.078 17.417 C 13.904 19.732 12.265 21.088 10.524 21.483 C 5.395 22.643 -0.447 16.040 0.000 9.783 C 0.142 7.777 0.737 5.780 1.636 4.113 C 2.518 2.478 3.687 1.167 5.053 0.656 C 5.869 0.351 6.708 0.301 7.397 0.492 C 8.070 0.679 8.646 1.173 8.679 1.857 C 8.708 2.491 8.453 3.217 8.044 4.003 C 7.454 5.139 6.604 6.477 5.672 7.604 C 4.765 8.700 3.842 9.643 2.877 9.555 C 1.932 9.469 1.219 8.594 1.376 7.776 Z"/>
<path d="M 18.848 3.678 C 19.038 3.658 19.209 3.796 19.230 3.984 C 19.251 4.173 19.114 4.345 18.925 4.366 L 18.681 4.517 C 18.607 4.703 18.637 5.157 18.782 5.758 L 19.455 8.034 C 20.128 10.228 20.453 12.900 20.777 15.066 L 21.021 17.528 L 21.054 18.365 L 21.051 18.343 L 21.036 18.274 C 21.054 18.327 20.292 18.198 20.562 18.071 C 20.769 17.975 20.375 18.292 20.386 18.268 L 20.372 18.317 L 20.453 17.745 L 21.069 14.594 L 22.256 10.295 C 22.908 8.334 23.849 6.469 24.851 4.854 C 26.212 2.664 27.891 1.229 29.585 0.524 C 31.228 -0.157 32.904 -0.159 34.235 0.425 C 34.409 0.502 34.489 0.707 34.412 0.880 C 34.336 1.055 34.131 1.135 33.956 1.059 C 32.816 0.557 31.339 0.545 29.850 1.162 C 28.308 1.805 26.734 3.132 25.440 5.218 C 24.461 6.795 23.542 8.616 22.911 10.512 L 21.745 14.747 L 21.135 17.856 L 21.067 18.321 L 21.057 18.403 L 21.036 18.500 C 21.024 18.532 21.008 18.849 20.601 18.713 C 20.266 18.602 20.375 18.475 20.370 18.448 L 20.362 18.163 L 20.332 17.584 L 20.096 15.168 C 19.768 12.994 19.444 10.345 18.794 8.237 C 18.441 7.090 18.102 6.099 17.984 5.298 C 17.929 4.914 17.916 4.566 18.042 4.257 C 18.168 3.946 18.489 3.719 18.848 3.678 Z"/>
</g>
</svg>
