<svg xmlns="http://www.w3.org/2000/svg" viewBox="0 0 4.041 10.222" width="4.041" height="10.222">
<g fill="black" stroke="none">
<path d="M 0.131 0.243 C 0.115 0.134 0.190 0.032 0.299 0.016 C 0.408 0.000 0.509 0.075 0.525 0.184 L 0.713 1.398 L 0.732 2.393 L 0.732 4.972 L 0.630 7.058 L 0.494 9.240 L 0.443 9.844 L 0.429 9.948 L 0.421 9.984 L 0.414 10.008 L 0.346 10.103 C 0.258 10.169 0.133 10.152 0.067 10.065 C 0.000 9.977 0.017 9.852 0.104 9.786 L 0.061 9.831 L 0.042 9.866 L 0.035 9.887 L 0.046 9.805 L 0.097 9.211 L 0.232 7.034 L 0.334 4.962 L 0.334 2.393 L 0.316 1.431 L 0.131 0.243 Z"/>
<path d="M 0.392 9.836 C 0.452 9.929 0.425 10.052 0.333 10.112 C 0.240 10.171 0.117 10.144 0.057 10.052 L 0.026 9.929 L 0.028 9.902 L 0.138 9.480 L 0.340 8.745 C 0.616 7.689 0.868 6.380 1.221 5.334 C 1.467 4.602 1.849 3.998 2.369 3.803 C 2.648 3.698 2.981 3.718 3.220 3.921 C 3.620 4.261 3.710 4.935 3.744 5.692 C 3.798 6.868 3.652 8.218 3.597 9.155 L 3.580 9.698 L 3.598 9.887 L 3.585 9.867 L 3.552 9.837 L 3.497 9.813 L 3.441 9.810 L 3.383 9.831 L 3.391 9.818 L 3.631 9.350 C 3.675 9.249 3.793 9.203 3.894 9.247 C 3.995 9.291 4.041 9.409 3.996 9.509 C 3.857 9.828 3.775 10.020 3.633 10.140 L 3.488 10.206 C 3.349 10.222 3.251 10.098 3.225 10.027 C 3.133 9.778 3.179 9.418 3.213 8.914 C 3.325 7.261 3.539 4.714 2.963 4.225 C 2.847 4.127 2.683 4.110 2.509 4.176 C 2.186 4.297 1.823 4.794 1.598 5.462 C 1.258 6.469 1.006 7.774 0.726 8.845 L 0.423 9.955 L 0.423 9.931 L 0.420 9.905 L 0.413 9.880 L 0.392 9.836 Z"/>
</g>
</svg>
