<svg xmlns="http://www.w3.org/2000/svg" viewBox="0 0 5.894 31.930" width="5.894" height="31.930">
<g fill="black" stroke="none">
<path d="M 1.576 2.284 C 1.568 2.433 1.441 2.549 1.290 2.541 C 1.140 2.534 1.024 2.405 1.032 2.255 L 1.176 1.101 L 1.266 0.453 L 1.297 0.251 L 1.323 0.158 L 1.409 0.037 C 1.498 -0.034 1.734 0.005 1.793 0.074 C 1.981 0.301 1.920 0.518 1.905 0.763 L 1.857 1.567 L 1.789 5.093 L 1.576 10.450 L 0.871 23.405 L 0.732 27.434 L 0.684 29.545 L 0.615 30.857 L 0.538 31.515 L 0.530 31.599 L 0.515 31.549 L 0.497 31.515 L 0.456 31.465 L 0.358 31.405 L 0.203 31.398 L 0.094 31.452 L 0.046 31.506 L 0.015 31.567 L 0.000 31.633 L 0.000 29.404 C 0.053 26.809 0.541 23.857 1.325 21.204 C 1.807 19.562 2.274 18.015 2.910 17.093 C 3.097 16.815 3.317 16.599 3.578 16.494 C 3.837 16.389 4.151 16.428 4.381 16.606 C 4.804 16.935 4.855 17.535 4.991 18.017 C 5.410 19.464 5.548 21.211 5.563 23.295 L 5.563 28.085 L 5.697 30.121 L 5.675 30.084 L 5.633 30.040 L 5.541 29.995 L 5.413 29.994 L 5.320 30.038 L 5.277 30.080 L 5.251 30.122 L 5.350 28.593 C 5.354 28.443 5.479 28.324 5.629 28.327 C 5.779 28.331 5.898 28.455 5.894 28.605 L 5.815 30.045 L 5.765 30.296 L 5.708 30.412 C 5.670 30.461 5.567 30.548 5.432 30.528 C 5.197 30.492 5.206 30.360 5.185 30.304 L 5.073 29.502 L 5.020 28.090 L 5.020 23.299 C 5.003 21.239 4.866 19.538 4.468 18.167 C 4.323 17.655 4.188 17.145 4.048 17.036 L 3.781 16.999 L 3.359 17.399 C 2.808 18.200 2.327 19.726 1.846 21.357 C 1.076 23.964 0.597 26.879 0.543 29.415 L 0.543 31.665 L 0.496 31.812 L 0.232 31.930 C 0.022 31.902 0.029 31.795 0.015 31.764 L 0.005 31.402 L 0.072 30.812 L 0.141 29.531 L 0.187 27.417 L 0.328 23.381 L 1.032 10.423 L 1.245 5.076 L 1.314 1.563 L 1.363 0.728 L 1.367 0.457 L 1.359 0.397 L 1.376 0.424 L 1.435 0.477 L 1.542 0.517 L 1.665 0.507 L 1.747 0.465 L 1.809 0.397 L 1.833 0.349 L 1.714 1.185 L 1.576 2.284 Z"/>
</g>
</svg>
