<svg xmlns="http://www.w3.org/2000/svg" viewBox="0 0 4.975 12.717" width="4.975" height="12.717">
<g fill="black" stroke="none">
<path d="M 0.131 0.286 C 0.111 0.150 0.205 0.023 0.341 0.003 C 0.477 -0.017 0.603 0.076 0.623 0.212 L 0.857 1.727 L 0.881 2.968 L 0.881 6.186 L 0.754 8.788 L 0.584 11.511 L 0.520 12.264 L 0.503 12.394 L 0.493 12.439 L 0.484 12.469 L 0.399 12.587 C 0.289 12.670 0.134 12.648 0.051 12.540 C -0.032 12.430 -0.011 12.274 0.097 12.192 L 0.044 12.248 L 0.020 12.292 L 0.011 12.318 L 0.025 12.215 L 0.089 11.474 L 0.257 8.758 L 0.384 6.173 L 0.384 2.968 L 0.362 1.768 L 0.131 0.286 Z"/>
<path d="M 0.457 12.254 C 0.531 12.370 0.498 12.524 0.383 12.598 C 0.267 12.672 0.114 12.638 0.039 12.524 L 0.000 12.370 L 0.003 12.336 L 0.140 11.810 L 0.392 10.893 C 0.736 9.576 1.050 7.942 1.491 6.637 C 1.798 5.724 2.274 4.971 2.923 4.727 C 3.271 4.596 3.687 4.621 3.985 4.875 C 4.484 5.299 4.596 6.140 4.639 7.084 C 4.706 8.551 4.524 10.236 4.455 11.405 L 4.434 12.082 L 4.456 12.318 L 4.440 12.293 L 4.399 12.255 L 4.330 12.225 L 4.261 12.222 L 4.188 12.248 L 4.198 12.232 L 4.498 11.648 C 4.553 11.522 4.700 11.464 4.826 11.519 C 4.952 11.574 5.009 11.721 4.953 11.846 C 4.780 12.244 4.677 12.484 4.500 12.633 L 4.319 12.716 C 4.146 12.736 4.024 12.581 3.991 12.492 C 3.876 12.182 3.934 11.733 3.976 11.104 C 4.116 9.042 4.383 5.864 3.664 5.254 C 3.520 5.132 3.315 5.110 3.098 5.193 C 2.695 5.344 2.242 5.964 1.961 6.797 C 1.537 8.053 1.223 9.682 0.873 11.018 L 0.495 12.403 L 0.495 12.373 L 0.492 12.340 L 0.483 12.309 L 0.457 12.254 Z"/>
</g>
</svg>
