<svg xmlns="http://www.w3.org/2000/svg" viewBox="0 0 10.166 31.893" width="10.166" height="31.893">
<g fill="black" stroke="none">
<path d="M 0.143 0.568 C -0.000 0.477 -0.044 0.287 0.048 0.143 C 0.139 -0.000 0.329 -0.044 0.472 0.048 C 1.157 0.480 1.209 1.526 1.252 3.005 L 1.411 8.002 L 1.411 16.928 L 1.252 21.824 L 1.104 24.953 L 0.987 27.446 C 0.928 28.927 0.891 30.073 0.984 30.747 L 1.121 31.201 L 1.183 31.289 L 1.146 31.279 L 1.030 31.293 L 0.994 31.313 L 1.952 28.804 L 3.626 23.768 C 4.343 21.818 5.200 19.882 5.971 18.230 C 6.567 16.952 7.109 15.893 7.585 15.162 C 7.945 14.616 8.373 14.249 8.824 14.405 C 9.208 14.540 9.390 14.931 9.537 15.389 C 9.814 16.243 9.950 17.481 10.038 18.923 C 10.177 21.161 10.172 23.736 10.152 26.002 L 10.127 28.901 L 10.163 30.428 C 10.187 30.597 10.072 30.753 9.903 30.779 C 9.735 30.804 9.579 30.686 9.554 30.519 L 9.511 29.191 L 9.545 24.639 C 9.554 21.920 9.520 19.024 9.237 16.960 C 9.105 16.004 8.901 15.286 8.700 15.051 L 8.572 14.994 L 8.101 15.499 L 6.528 18.489 C 5.762 20.133 4.911 22.054 4.204 23.980 L 2.449 29.267 L 1.819 31.052 L 1.554 31.590 C 1.462 31.729 1.350 31.920 1.070 31.889 C 0.815 31.854 0.681 31.676 0.582 31.497 L 0.375 30.831 L 0.313 29.424 L 0.372 27.421 L 0.489 24.922 L 0.636 21.798 L 0.797 16.918 L 0.797 8.010 L 0.636 3.024 L 0.488 1.263 C 0.404 0.869 0.279 0.655 0.143 0.568 Z"/>
</g>
</svg>
