<svg xmlns="http://www.w3.org/2000/svg" viewBox="0 0 3.250 8.651" width="3.250" height="8.651">
<g fill="black" stroke="none">
<path d="M 0.052 0.323 C 0.000 0.226 0.036 0.105 0.133 0.052 C 0.229 0.000 0.350 0.036 0.403 0.133 C 0.502 0.316 0.638 0.536 0.713 0.946 L 0.786 1.800 L 0.804 3.213 L 0.804 5.156 L 0.753 6.607 L 0.701 7.605 L 0.649 8.283 L 0.623 8.461 L 0.574 8.569 L 0.431 8.642 C 0.299 8.651 0.245 8.550 0.232 8.517 L 0.217 8.461 C 0.187 8.248 0.255 7.928 0.320 7.527 C 0.438 6.798 0.665 5.987 0.930 5.257 C 1.201 4.513 1.602 3.851 2.132 3.661 C 2.278 3.608 2.460 3.546 2.648 3.636 C 2.908 3.760 2.951 4.050 2.991 4.346 L 3.050 5.338 L 3.050 7.132 L 3.042 7.930 L 3.045 7.955 L 3.039 7.939 L 3.023 7.914 L 2.990 7.880 L 2.932 7.851 L 2.868 7.844 L 2.786 7.869 L 2.761 7.889 L 2.840 7.722 C 2.883 7.620 2.999 7.573 3.101 7.615 C 3.202 7.658 3.250 7.774 3.207 7.876 C 3.147 8.020 3.132 8.109 3.012 8.197 C 2.958 8.237 2.804 8.251 2.732 8.184 C 2.627 8.086 2.650 8.023 2.645 7.961 L 2.652 7.125 L 2.652 5.350 L 2.596 4.400 L 2.476 3.995 L 2.266 4.036 C 1.966 4.143 1.553 4.710 1.305 5.393 C 1.047 6.102 0.826 6.895 0.713 7.591 L 0.611 8.406 L 0.607 8.386 L 0.584 8.335 L 0.544 8.289 L 0.456 8.248 L 0.355 8.255 L 0.294 8.288 L 0.252 8.336 L 0.236 8.368 L 0.253 8.241 L 0.304 7.579 L 0.355 6.588 L 0.406 5.151 L 0.406 3.214 L 0.387 1.816 L 0.321 1.018 C 0.256 0.661 0.160 0.521 0.052 0.323 Z"/>
</g>
</svg>
