<svg xmlns="http://www.w3.org/2000/svg" viewBox="0 0 4.709 12.698" width="4.709" height="12.698">
<g fill="black" stroke="none">
<path d="M 0.035 0.434 C -0.042 0.291 0.011 0.113 0.154 0.035 C 0.296 -0.042 0.474 0.011 0.552 0.154 C 0.698 0.424 0.899 0.748 1.009 1.353 L 1.117 2.612 L 1.143 4.695 L 1.143 7.559 L 1.068 9.698 L 0.992 11.169 L 0.915 12.169 L 0.877 12.431 L 0.804 12.590 L 0.594 12.698 C 0.399 12.711 0.319 12.562 0.300 12.514 L 0.278 12.431 C 0.234 12.117 0.334 11.645 0.430 11.054 C 0.604 9.980 0.939 8.784 1.329 7.708 C 1.729 6.611 2.320 5.635 3.101 5.355 C 3.316 5.277 3.585 5.186 3.862 5.318 C 4.245 5.501 4.308 5.929 4.367 6.365 L 4.454 7.827 L 4.454 10.472 L 4.443 11.648 L 4.447 11.685 L 4.438 11.662 L 4.415 11.625 L 4.366 11.575 L 4.280 11.532 L 4.186 11.522 L 4.065 11.558 L 4.028 11.588 L 4.145 11.342 C 4.208 11.191 4.379 11.122 4.530 11.184 C 4.679 11.247 4.749 11.418 4.686 11.569 C 4.597 11.781 4.575 11.912 4.398 12.042 C 4.319 12.101 4.092 12.122 3.986 12.023 C 3.831 11.878 3.865 11.785 3.857 11.694 L 3.868 10.462 L 3.868 7.845 L 3.785 6.445 L 3.608 5.848 L 3.299 5.908 C 2.856 6.066 2.248 6.902 1.882 7.908 C 1.502 8.954 1.176 10.123 1.009 11.149 L 0.859 12.350 L 0.853 12.321 L 0.819 12.245 L 0.760 12.178 L 0.630 12.117 L 0.482 12.127 L 0.392 12.176 L 0.330 12.247 L 0.306 12.294 L 0.331 12.107 L 0.406 11.131 L 0.482 9.670 L 0.557 7.552 L 0.557 4.696 L 0.529 2.635 L 0.431 1.459 C 0.336 0.933 0.194 0.726 0.035 0.434 Z"/>
</g>
</svg>
