<svg xmlns="http://www.w3.org/2000/svg" viewBox="0 0 12.468 31.874" width="12.468" height="31.874">
<g fill="black" stroke="none">
<path d="M 0.328 0.717 C 0.278 0.376 0.513 0.057 0.854 0.007 C 1.195 -0.043 1.510 0.191 1.560 0.532 L 2.148 4.328 L 2.208 7.439 L 2.208 15.504 L 1.889 22.027 L 1.463 28.850 L 1.304 30.739 L 1.260 31.064 L 1.235 31.176 L 1.213 31.251 L 1.001 31.548 C 0.725 31.755 0.335 31.702 0.128 31.430 C -0.081 31.154 -0.028 30.764 0.244 30.557 L 0.109 30.698 L 0.050 30.807 L 0.028 30.873 L 0.063 30.617 L 0.222 28.759 L 0.644 21.952 L 0.963 15.473 L 0.963 7.439 L 0.907 4.431 L 0.328 0.717 Z"/>
<path d="M 1.145 30.714 C 1.332 31.004 1.248 31.389 0.960 31.577 C 0.669 31.761 0.285 31.677 0.097 31.389 L 0.000 31.004 L 0.006 30.920 L 0.350 29.600 L 0.982 27.302 C 1.845 24.000 2.633 19.907 3.737 16.636 C 4.506 14.347 5.701 12.458 7.327 11.849 C 8.199 11.520 9.240 11.583 9.988 12.217 C 11.238 13.281 11.520 15.388 11.626 17.755 C 11.795 21.433 11.338 25.654 11.166 28.584 L 11.113 30.282 L 11.170 30.873 L 11.129 30.810 L 11.026 30.717 L 10.854 30.642 L 10.679 30.632 L 10.497 30.698 L 10.522 30.657 L 11.273 29.194 C 11.410 28.878 11.779 28.734 12.095 28.872 C 12.411 29.009 12.555 29.378 12.414 29.691 C 11.979 30.689 11.723 31.289 11.279 31.664 L 10.826 31.871 C 10.391 31.921 10.085 31.533 10.003 31.311 C 9.716 30.532 9.859 29.406 9.966 27.830 C 10.316 22.662 10.985 14.697 9.184 13.168 C 8.821 12.862 8.308 12.808 7.764 13.015 C 6.754 13.393 5.619 14.947 4.916 17.036 C 3.852 20.185 3.064 24.266 2.189 27.615 L 1.241 31.086 L 1.241 31.011 L 1.232 30.929 L 1.210 30.851 L 1.145 30.714 Z"/>
</g>
</svg>
