<svg xmlns="http://www.w3.org/2000/svg" viewBox="0 0 11.803 31.826" width="11.803" height="31.826">
<g fill="black" stroke="none">
<path d="M 0.087 1.089 C -0.105 0.730 0.028 0.283 0.387 0.087 C 0.741 -0.105 1.189 0.028 1.384 0.387 C 1.750 1.063 2.253 1.876 2.530 3.391 L 2.799 6.546 L 2.866 11.767 L 2.866 18.946 L 2.678 24.307 L 2.485 27.994 L 2.293 30.500 L 2.197 31.157 L 2.016 31.556 L 1.488 31.826 C 1.000 31.859 0.801 31.486 0.753 31.364 L 0.697 31.157 C 0.586 30.370 0.837 29.188 1.078 27.706 C 1.514 25.013 2.352 22.016 3.331 19.319 C 4.333 16.570 5.814 14.124 7.773 13.422 C 8.312 13.226 8.985 12.997 9.679 13.330 C 10.640 13.788 10.799 14.859 10.947 15.953 L 11.165 19.618 L 11.165 26.247 L 11.135 29.195 L 11.146 29.288 L 11.124 29.228 L 11.065 29.136 L 10.943 29.010 L 10.729 28.903 L 10.492 28.877 L 10.189 28.970 L 10.097 29.044 L 10.389 28.427 C 10.547 28.050 10.976 27.876 11.353 28.031 C 11.726 28.190 11.903 28.619 11.745 28.996 C 11.523 29.528 11.467 29.857 11.024 30.182 C 10.825 30.330 10.256 30.381 9.990 30.134 C 9.602 29.772 9.687 29.539 9.668 29.310 L 9.694 26.221 L 9.694 19.663 L 9.487 16.153 L 9.044 14.656 L 8.268 14.808 C 7.159 15.203 5.633 17.298 4.717 19.821 C 3.764 22.441 2.947 25.371 2.530 27.943 L 2.153 30.954 L 2.138 30.880 L 2.053 30.692 L 1.905 30.522 L 1.580 30.370 L 1.207 30.396 L 0.982 30.518 L 0.826 30.695 L 0.767 30.814 L 0.830 30.344 L 1.019 27.898 L 1.207 24.237 L 1.395 18.927 L 1.395 11.770 L 1.325 6.605 L 1.081 3.657 C 0.841 2.338 0.486 1.820 0.087 1.089 Z"/>
</g>
</svg>
