<svg xmlns="http://www.w3.org/2000/svg" viewBox="0 0 24.312 30.406" width="24.312" height="30.406">
<g fill="black" stroke="none">
<path d="M 4.147 2.847 C 4.407 2.753 4.695 2.890 4.788 3.152 C 4.881 3.412 4.745 3.699 4.483 3.792 C 3.792 4.037 2.864 3.946 1.989 3.815 L 0.867 3.565 C 0.556 3.465 0.269 3.407 0.065 3.046 L 0.940 2.552 L 0.798 2.395 L 0.695 2.337 L 0.597 2.312 L 3.994 1.780 L 15.193 0.461 L 20.458 0.045 C 21.939 -0.023 23.116 -0.031 23.916 0.141 C 24.185 0.199 24.359 0.466 24.301 0.739 C 24.241 1.008 23.974 1.182 23.704 1.124 L 20.504 1.049 C 15.778 1.266 8.956 2.176 4.117 2.776 L 1.754 3.147 L 0.912 3.283 L 0.624 3.313 L 0.471 3.308 C 0.400 3.301 0.231 3.338 0.065 3.046 C -0.072 2.804 0.014 2.496 0.256 2.360 C 0.498 2.226 0.804 2.310 0.940 2.552 L 0.889 2.486 L 2.135 2.821 L 4.147 2.847 Z"/>
<path d="M 8.659 3.228 C 8.901 3.091 9.209 3.177 9.345 3.419 C 9.481 3.661 9.395 3.966 9.156 4.103 C 8.381 4.539 7.953 4.862 7.572 6.228 L 6.979 9.532 C 6.639 12.379 6.485 16.010 6.374 19.463 C 6.276 22.660 6.193 25.477 6.495 27.401 C 6.634 28.289 6.871 28.929 7.141 29.212 C 7.378 29.462 7.638 29.525 8.190 29.288 C 8.445 29.179 8.740 29.298 8.851 29.552 C 8.959 29.810 8.840 30.105 8.583 30.213 C 7.784 30.554 6.926 30.445 6.412 29.905 C 5.635 29.088 5.436 27.664 5.335 25.901 L 5.370 19.430 C 5.481 15.968 5.633 12.321 5.983 9.413 L 6.604 5.959 C 7.037 4.403 7.809 3.709 8.659 3.228 Z"/>
</g>
</svg>
