<svg xmlns="http://www.w3.org/2000/svg" viewBox="0 0 6.285 12.164" width="6.285" height="12.164">
<g fill="black" stroke="none">
<path d="M 3.449 2.181 C 3.419 1.997 3.541 1.823 3.726 1.790 C 3.909 1.758 4.084 1.882 4.116 2.067 L 4.172 2.710 L 4.172 4.080 L 4.037 6.169 L 3.882 8.978 L 3.813 11.136 L 3.813 11.770 L 3.804 11.887 L 3.777 11.966 C 3.755 12.014 3.694 12.151 3.488 12.163 C 3.292 12.175 3.214 12.051 3.185 12.007 L 3.117 11.773 L 3.017 10.549 C 3.005 10.364 3.146 10.203 3.331 10.189 C 3.517 10.178 3.679 10.318 3.692 10.505 L 3.777 11.596 L 3.792 11.729 L 3.777 11.688 L 3.753 11.644 L 3.684 11.564 C 3.724 11.596 3.392 11.484 3.483 11.488 L 3.263 11.557 L 3.183 11.647 L 3.147 11.729 L 3.137 11.773 L 3.137 11.118 L 3.207 8.947 L 3.361 6.123 L 3.497 4.056 L 3.497 2.712 L 3.449 2.181 Z"/>
<path d="M 0.140 2.525 C 0.281 2.401 0.495 2.415 0.619 2.554 C 0.741 2.695 0.729 2.909 0.588 3.031 L 0.544 3.070 C 0.395 3.182 0.182 3.155 0.070 3.005 C -0.043 2.858 -0.014 2.646 0.140 2.525 Z"/>
<path d="M 0.578 3.039 C 0.446 3.172 0.232 3.172 0.099 3.039 C -0.033 2.907 -0.033 2.693 0.099 2.561 L 0.349 2.355 L 0.982 1.979 C 1.742 1.585 2.769 1.249 3.970 0.923 C 4.150 0.874 4.335 0.981 4.385 1.161 C 4.434 1.341 4.327 1.526 4.147 1.575 C 2.969 1.894 1.976 2.225 1.296 2.579 L 0.763 2.890 L 0.578 3.039 Z"/>
<path d="M 1.829 1.665 C 1.752 1.493 1.827 1.293 1.997 1.217 C 2.166 1.139 2.367 1.215 2.445 1.385 L 2.387 1.346 L 2.737 1.208 C 3.492 0.816 4.726 0.209 5.888 0.005 C 6.073 -0.027 6.248 0.097 6.280 0.280 C 6.313 0.463 6.189 0.640 6.005 0.670 C 4.987 0.850 3.779 1.430 3.047 1.809 L 2.446 2.019 C 2.222 2.040 1.934 1.894 1.829 1.665 Z"/>
</g>
</svg>
