<svg xmlns="http://www.w3.org/2000/svg" viewBox="0 0 4.296 9.445" width="4.296" height="9.445">
<g fill="black" stroke="none">
<path d="M 2.582 0.820 C 2.552 0.715 2.613 0.604 2.718 0.573 C 2.824 0.543 2.934 0.604 2.965 0.709 C 3.057 1.025 3.071 1.333 3.061 1.850 L 3.010 3.468 L 2.973 6.070 L 2.972 8.326 L 2.975 8.984 L 2.975 9.251 C 2.967 9.360 2.871 9.442 2.761 9.434 C 2.651 9.425 2.569 9.329 2.578 9.219 L 2.573 8.328 L 2.575 6.068 L 2.612 3.456 L 2.663 1.843 C 2.672 1.336 2.659 1.086 2.582 0.820 Z"/>
<path d="M 2.975 9.214 C 2.986 9.323 2.907 9.422 2.798 9.433 C 2.688 9.445 2.590 9.366 2.578 9.256 L 2.575 9.147 C 2.572 9.037 2.659 8.946 2.769 8.943 C 2.879 8.941 2.970 9.028 2.973 9.138 L 2.975 9.214 Z"/>
<path d="M 0.269 1.612 C 0.162 1.639 0.054 1.574 0.027 1.468 C 0.000 1.361 0.065 1.253 0.171 1.226 L 1.418 0.758 L 2.464 0.410 L 4.038 0.023 C 4.145 0.000 4.251 0.069 4.274 0.177 C 4.296 0.284 4.227 0.390 4.119 0.412 L 2.575 0.792 L 1.185 1.279 L 0.269 1.612 Z"/>
</g>
</svg>
