<svg xmlns="http://www.w3.org/2000/svg" viewBox="0 0 15.753 30.486" width="15.753" height="30.486">
<g fill="black" stroke="none">
<path d="M 8.646 5.465 C 8.569 5.006 8.875 4.568 9.339 4.487 C 9.798 4.406 10.237 4.717 10.317 5.180 L 10.458 6.793 L 10.458 10.225 L 10.117 15.462 L 9.730 22.502 L 9.556 27.912 L 9.556 29.499 L 9.535 29.792 L 9.467 29.992 C 9.411 30.111 9.258 30.456 8.743 30.486 C 8.250 30.516 8.054 30.205 7.982 30.094 L 7.812 29.507 L 7.561 26.440 C 7.531 25.977 7.884 25.573 8.348 25.539 C 8.816 25.509 9.220 25.862 9.254 26.330 L 9.467 29.065 L 9.505 29.397 L 9.467 29.295 L 9.407 29.184 L 9.233 28.984 C 9.335 29.065 8.501 28.784 8.731 28.793 L 8.178 28.967 L 7.978 29.193 L 7.888 29.397 L 7.863 29.507 L 7.863 27.865 L 8.037 22.425 L 8.424 15.347 L 8.765 10.166 L 8.765 6.797 L 8.646 5.465 Z"/>
<path d="M 0.351 6.329 C 0.704 6.018 1.240 6.052 1.550 6.401 C 1.857 6.754 1.827 7.290 1.474 7.597 L 1.363 7.694 C 0.989 7.975 0.457 7.907 0.177 7.533 C -0.108 7.163 -0.036 6.631 0.351 6.329 Z"/>
<path d="M 1.448 7.618 C 1.117 7.950 0.581 7.950 0.249 7.618 C -0.083 7.286 -0.083 6.750 0.249 6.418 L 0.874 5.904 L 2.461 4.959 C 4.366 3.972 6.940 3.130 9.952 2.313 C 10.402 2.190 10.866 2.458 10.989 2.909 C 11.113 3.360 10.845 3.824 10.394 3.947 C 7.442 4.747 4.953 5.576 3.248 6.465 L 1.912 7.243 L 1.448 7.618 Z"/>
<path d="M 4.583 4.172 C 4.392 3.743 4.579 3.241 5.004 3.049 C 5.430 2.854 5.932 3.045 6.127 3.470 L 5.983 3.373 L 6.859 3.028 C 8.752 2.045 11.844 0.523 14.758 0.012 C 15.222 -0.069 15.660 0.242 15.741 0.701 C 15.822 1.161 15.511 1.603 15.052 1.680 C 12.500 2.131 9.471 3.585 7.638 4.534 L 6.132 5.061 C 5.570 5.112 4.847 4.747 4.583 4.172 Z"/>
</g>
</svg>
