<svg xmlns="http://www.w3.org/2000/svg" viewBox="0 0 13.784 30.488" width="13.784" height="30.488">
<g fill="black" stroke="none">
<path d="M 8.293 2.594 C 8.196 2.254 8.393 1.895 8.733 1.794 C 9.077 1.697 9.433 1.895 9.533 2.235 C 9.831 3.258 9.877 4.255 9.844 5.929 L 9.679 11.169 L 9.559 19.594 L 9.556 26.899 L 9.566 29.030 L 9.566 29.895 C 9.540 30.248 9.229 30.513 8.873 30.487 C 8.517 30.458 8.251 30.147 8.280 29.791 L 8.264 26.906 L 8.270 19.588 L 8.390 11.130 L 8.555 5.907 C 8.585 4.265 8.542 3.455 8.293 2.594 Z"/>
<path d="M 9.566 29.775 C 9.601 30.128 9.345 30.448 8.993 30.484 C 8.636 30.523 8.319 30.267 8.280 29.911 L 8.270 29.558 C 8.261 29.202 8.542 28.907 8.899 28.897 C 9.255 28.891 9.549 29.173 9.559 29.529 L 9.566 29.775 Z"/>
<path d="M 0.803 5.159 C 0.457 5.246 0.107 5.036 0.020 4.692 C -0.068 4.346 0.143 3.996 0.486 3.909 L 4.524 2.393 L 7.911 1.266 L 13.008 0.013 C 13.354 -0.061 13.698 0.162 13.772 0.512 C 13.843 0.858 13.620 1.202 13.270 1.273 L 8.270 2.503 L 3.769 4.080 L 0.803 5.159 Z"/>
</g>
</svg>
