<svg xmlns="http://www.w3.org/2000/svg" viewBox="0 0 24.454 30.584" width="24.454" height="30.584">
<g fill="black" stroke="none">
<path d="M 4.171 2.864 C 4.433 2.769 4.723 2.907 4.816 3.171 C 4.910 3.432 4.773 3.721 4.509 3.814 C 3.814 4.061 2.881 3.969 2.001 3.837 L 0.872 3.586 C 0.559 3.485 0.271 3.427 0.066 3.064 L 0.946 2.567 L 0.803 2.409 L 0.699 2.351 L 0.601 2.326 L 4.018 1.790 L 15.282 0.464 L 20.578 0.045 C 22.068 -0.023 23.252 -0.031 24.056 0.142 C 24.327 0.200 24.502 0.469 24.444 0.743 C 24.383 1.014 24.115 1.189 23.843 1.131 L 20.624 1.055 C 15.871 1.273 9.009 2.189 4.141 2.792 L 1.764 3.166 L 0.917 3.302 L 0.628 3.332 L 0.474 3.327 C 0.402 3.320 0.233 3.358 0.066 3.064 C -0.072 2.820 0.014 2.511 0.258 2.374 C 0.501 2.239 0.809 2.324 0.946 2.567 L 0.894 2.501 L 2.148 2.838 L 4.171 2.864 Z"/>
<path d="M 8.710 3.247 C 8.953 3.109 9.263 3.196 9.400 3.439 C 9.537 3.683 9.450 3.989 9.210 4.127 C 8.430 4.566 8.000 4.891 7.617 6.265 L 7.020 9.588 C 6.678 12.452 6.523 16.104 6.411 19.577 C 6.313 22.793 6.229 25.626 6.533 27.562 C 6.673 28.455 6.911 29.099 7.183 29.383 C 7.421 29.635 7.683 29.698 8.238 29.460 C 8.495 29.350 8.791 29.470 8.903 29.725 C 9.012 29.985 8.892 30.281 8.633 30.390 C 7.830 30.733 6.967 30.623 6.450 30.080 C 5.668 29.258 5.468 27.826 5.366 26.053 L 5.402 19.544 C 5.513 16.062 5.666 12.393 6.018 9.468 L 6.643 5.994 C 7.078 4.429 7.855 3.731 8.710 3.247 Z"/>
</g>
</svg>
