<svg xmlns="http://www.w3.org/2000/svg" viewBox="0 0 19.789 30.521" width="19.789" height="30.521">
<g fill="black" stroke="none">
<path d="M 1.410 0.054 C 1.631 0.054 1.810 0.233 1.810 0.455 C 1.810 0.676 1.631 0.855 1.410 0.855 L 0.400 0.855 C 0.179 0.855 0.000 0.676 0.000 0.455 C 0.000 0.233 0.179 0.054 0.400 0.054 L 1.410 0.054 Z"/>
<path d="M 0.400 0.855 C 0.179 0.855 0.000 0.676 0.000 0.455 C 0.000 0.233 0.179 0.054 0.400 0.054 L 1.549 0.054 L 5.031 0.000 L 12.679 0.020 C 15.304 0.107 17.740 0.290 19.492 0.760 C 19.705 0.817 19.832 1.036 19.776 1.249 C 19.718 1.464 19.498 1.591 19.285 1.533 C 18.215 1.247 16.789 1.068 15.187 0.951 C 12.723 0.770 9.961 0.748 7.423 0.770 L 3.985 0.821 L 1.549 0.855 L 0.400 0.855 Z"/>
<path d="M 7.576 2.257 C 7.383 2.150 7.312 1.907 7.419 1.714 C 7.525 1.519 7.769 1.448 7.962 1.557 C 8.406 1.800 8.748 2.124 8.939 2.539 C 9.133 2.957 9.187 3.444 9.207 4.037 L 9.207 7.372 C 9.129 15.620 9.738 29.924 10.261 29.739 C 10.470 29.665 10.700 29.773 10.774 29.983 C 10.846 30.192 10.738 30.421 10.529 30.494 C 10.275 30.584 9.983 30.439 9.849 30.278 C 9.603 29.985 9.497 29.572 9.378 29.031 L 8.869 24.899 C 8.449 19.494 8.358 12.295 8.406 7.364 L 8.406 4.063 C 8.370 3.003 8.235 2.623 7.576 2.257 Z"/>
</g>
</svg>
