<svg xmlns="http://www.w3.org/2000/svg" viewBox="0 0 3.745 7.190" width="3.745" height="7.190">
<g fill="black" stroke="none">
<path d="M 2.058 1.301 C 2.040 1.193 2.112 1.090 2.221 1.071 C 2.329 1.052 2.432 1.125 2.451 1.234 L 2.484 1.613 L 2.484 2.420 L 2.404 3.651 L 2.313 5.306 L 2.272 6.578 L 2.272 6.951 L 2.267 7.020 L 2.251 7.067 C 2.238 7.095 2.202 7.176 2.081 7.183 C 1.965 7.190 1.919 7.117 1.902 7.091 L 1.862 6.953 L 1.803 6.232 C 1.796 6.123 1.879 6.028 1.988 6.020 C 2.098 6.013 2.193 6.096 2.201 6.206 L 2.251 6.849 L 2.260 6.927 L 2.251 6.903 L 2.237 6.877 L 2.196 6.830 C 2.220 6.849 2.024 6.783 2.078 6.785 L 1.948 6.826 L 1.901 6.879 L 1.880 6.927 L 1.874 6.953 L 1.874 6.567 L 1.915 5.288 L 2.006 3.624 L 2.086 2.406 L 2.086 1.614 L 2.058 1.301 Z"/>
<path d="M 0.108 1.504 C 0.191 1.431 0.317 1.439 0.390 1.521 C 0.462 1.604 0.455 1.730 0.372 1.802 L 0.346 1.825 C 0.258 1.891 0.133 1.875 0.067 1.787 C 0.000 1.700 0.017 1.575 0.108 1.504 Z"/>
<path d="M 0.366 1.807 C 0.288 1.885 0.162 1.885 0.084 1.807 C 0.006 1.729 0.006 1.603 0.084 1.525 L 0.231 1.404 L 0.604 1.182 C 1.052 0.950 1.657 0.752 2.365 0.560 C 2.471 0.531 2.580 0.594 2.609 0.700 C 2.638 0.806 2.575 0.915 2.469 0.944 C 1.775 1.132 1.190 1.327 0.789 1.536 L 0.475 1.719 L 0.366 1.807 Z"/>
<path d="M 1.103 0.997 C 1.058 0.896 1.102 0.778 1.202 0.733 C 1.302 0.687 1.420 0.732 1.466 0.832 L 1.432 0.809 L 1.638 0.728 C 2.083 0.497 2.810 0.139 3.495 0.019 C 3.604 0.000 3.707 0.073 3.726 0.181 C 3.745 0.289 3.672 0.393 3.564 0.411 C 2.964 0.517 2.252 0.859 1.821 1.082 L 1.467 1.206 C 1.335 1.218 1.165 1.132 1.103 0.997 Z"/>
</g>
</svg>
