<svg xmlns="http://www.w3.org/2000/svg" viewBox="0 0 5.499 12.164" width="5.499" height="12.164">
<g fill="black" stroke="none">
<path d="M 3.309 1.035 C 3.270 0.899 3.349 0.756 3.484 0.716 C 3.621 0.677 3.764 0.756 3.804 0.892 C 3.922 1.300 3.941 1.698 3.928 2.366 L 3.862 4.456 L 3.814 7.818 L 3.813 10.732 L 3.817 11.582 L 3.817 11.927 C 3.806 12.068 3.682 12.174 3.540 12.164 C 3.398 12.152 3.292 12.028 3.304 11.886 L 3.297 10.735 L 3.300 7.815 L 3.348 4.441 L 3.413 2.357 C 3.425 1.702 3.408 1.379 3.309 1.035 Z"/>
<path d="M 3.817 11.880 C 3.831 12.020 3.729 12.148 3.588 12.163 C 3.446 12.178 3.319 12.076 3.304 11.934 L 3.300 11.793 C 3.296 11.651 3.408 11.533 3.550 11.529 C 3.692 11.527 3.810 11.639 3.814 11.781 L 3.817 11.880 Z"/>
<path d="M 0.320 2.058 C 0.182 2.093 0.043 2.009 0.008 1.872 C -0.027 1.734 0.057 1.594 0.194 1.559 L 1.805 0.955 L 3.156 0.505 L 5.190 0.005 C 5.328 -0.024 5.465 0.065 5.495 0.204 C 5.523 0.342 5.434 0.479 5.295 0.508 L 3.300 0.999 L 1.504 1.628 L 0.320 2.058 Z"/>
</g>
</svg>
