<svg xmlns="http://www.w3.org/2000/svg" viewBox="0 0 18.750 30.488" width="18.750" height="30.488">
<g fill="black" stroke="none">
<path d="M 0.794 1.419 C 0.760 1.636 0.556 1.786 0.338 1.752 C 0.119 1.718 -0.029 1.513 0.005 1.297 L 0.229 0.461 C 0.327 0.257 0.506 0.040 0.782 0.006 C 1.288 -0.056 1.532 0.347 1.783 0.744 C 2.258 1.491 2.753 2.662 3.336 4.071 C 5.196 8.559 7.525 14.730 10.143 15.941 C 10.343 16.035 10.429 16.271 10.337 16.472 C 10.245 16.672 10.006 16.758 9.808 16.666 C 8.431 16.031 7.301 14.415 6.244 12.497 C 4.611 9.537 3.288 5.965 2.169 3.357 C 1.648 2.141 1.193 1.203 0.885 0.868 L 0.809 0.794 L 0.949 0.778 L 0.975 0.762 L 0.794 1.419 Z"/>
<path d="M 17.565 1.531 C 17.354 1.463 17.238 1.239 17.306 1.028 C 17.372 0.820 17.597 0.704 17.807 0.770 C 18.164 0.884 18.471 1.121 18.619 1.445 C 18.840 1.932 18.751 2.508 18.575 3.189 L 17.719 5.829 L 15.647 12.637 L 12.726 24.148 L 11.874 28.323 L 11.706 29.560 L 11.698 29.879 L 11.704 29.921 L 11.692 29.891 L 11.634 29.809 C 11.788 29.967 11.786 30.219 11.628 30.374 C 11.470 30.528 11.217 30.526 11.063 30.368 C 10.842 30.141 10.898 29.981 10.898 29.803 L 11.065 28.323 L 12.007 23.707 C 13.332 17.869 15.294 10.423 16.963 5.570 C 17.447 4.167 17.819 3.123 17.920 2.423 C 18.008 1.816 17.946 1.652 17.565 1.531 Z"/>
</g>
</svg>
