<svg xmlns="http://www.w3.org/2000/svg" viewBox="0 0 17.245 30.517" width="17.245" height="30.517">
<g fill="black" stroke="none">
<path d="M 1.833 2.000 C 1.792 2.507 1.349 2.886 0.841 2.844 C 0.339 2.803 -0.040 2.360 0.002 1.857 L 0.140 0.837 L 0.306 0.440 C 0.422 0.265 0.795 -0.067 1.271 0.011 C 2.018 0.136 1.986 0.528 2.050 0.680 L 2.429 2.217 L 4.237 9.142 L 5.377 11.435 L 5.501 11.578 L 5.363 11.596 L 5.423 11.541 C 5.764 11.163 6.346 11.135 6.719 11.476 C 7.098 11.818 7.125 12.399 6.784 12.777 C 6.419 13.174 5.852 13.474 5.275 13.405 C 4.302 13.285 3.808 12.514 3.374 11.730 C 1.990 9.248 1.146 5.229 0.625 2.572 L 0.431 1.658 L 0.357 1.391 L 0.426 1.506 L 0.565 1.645 L 0.865 1.801 L 1.303 1.815 L 1.635 1.668 L 1.797 1.515 L 1.898 1.349 L 1.893 1.437 L 1.833 2.000 Z"/>
<path d="M 15.730 2.420 C 15.227 2.475 14.770 2.115 14.710 1.612 C 14.650 1.109 15.015 0.653 15.518 0.593 L 16.330 0.625 L 17.100 1.225 C 17.400 1.801 17.169 2.254 16.999 2.567 C 16.487 3.495 15.458 4.431 14.253 5.580 L 11.024 8.727 L 8.592 10.724 L 6.037 12.874 L 5.834 13.123 L 5.838 12.957 L 5.695 12.634 L 5.640 12.579 C 6.101 12.782 6.313 13.326 6.106 13.792 C 5.898 14.254 5.354 14.461 4.892 14.258 C 4.436 14.051 3.933 13.437 4.011 12.837 C 4.117 12.012 4.652 11.619 5.225 11.107 L 7.444 9.290 L 9.778 7.375 L 12.985 4.251 L 15.278 1.852 L 15.412 1.635 L 15.393 1.788 L 15.536 2.175 L 15.762 2.364 L 15.887 2.411 L 15.730 2.420 Z"/>
<path d="M 6.438 11.836 C 6.461 11.329 6.890 10.937 7.398 10.955 C 7.905 10.978 8.297 11.407 8.274 11.915 L 8.279 15.158 L 8.237 17.128 L 6.922 25.322 L 6.507 29.078 L 6.498 29.424 L 6.475 29.318 L 6.387 29.124 L 6.009 28.778 L 5.284 28.750 L 4.952 28.972 L 4.809 29.179 L 4.818 29.110 L 4.920 28.621 C 5.008 28.118 5.487 27.786 5.986 27.878 C 6.484 27.966 6.816 28.446 6.729 28.944 L 6.590 29.617 L 6.332 30.190 L 5.755 30.517 L 4.906 30.199 L 4.666 29.530 L 5.105 25.054 L 6.401 17.004 L 6.438 15.130 L 6.438 11.836 Z"/>
</g>
</svg>
