<svg xmlns="http://www.w3.org/2000/svg" viewBox="0 0 3.780 6.629" width="3.780" height="6.629">
<g fill="black" stroke="none">
<path d="M 0.406 0.448 C 0.397 0.558 0.301 0.640 0.191 0.631 C 0.082 0.622 0.000 0.526 0.009 0.417 L 0.039 0.196 L 0.075 0.110 C 0.100 0.072 0.181 0.000 0.284 0.017 C 0.446 0.044 0.439 0.129 0.453 0.162 L 0.535 0.495 L 0.927 1.996 L 1.174 2.493 L 1.201 2.524 L 1.171 2.528 L 1.184 2.516 C 1.258 2.434 1.384 2.428 1.465 2.502 C 1.547 2.576 1.553 2.702 1.479 2.784 C 1.400 2.870 1.277 2.935 1.152 2.920 C 0.941 2.894 0.834 2.727 0.740 2.557 C 0.440 2.019 0.257 1.148 0.144 0.572 L 0.102 0.374 L 0.086 0.316 L 0.101 0.341 L 0.131 0.371 L 0.196 0.405 L 0.291 0.408 L 0.363 0.376 L 0.398 0.343 L 0.420 0.307 L 0.419 0.326 L 0.406 0.448 Z"/>
<path d="M 3.418 0.539 C 3.309 0.551 3.210 0.473 3.197 0.364 C 3.184 0.255 3.263 0.156 3.372 0.143 L 3.548 0.150 L 3.715 0.280 C 3.780 0.405 3.730 0.503 3.693 0.571 C 3.582 0.772 3.359 0.975 3.098 1.224 L 2.398 1.906 L 1.871 2.339 L 1.317 2.805 L 1.273 2.859 L 1.274 2.823 L 1.243 2.753 L 1.231 2.741 C 1.331 2.785 1.377 2.903 1.332 3.004 C 1.287 3.104 1.169 3.149 1.069 3.105 C 0.970 3.060 0.861 2.927 0.878 2.797 C 0.901 2.618 1.017 2.533 1.141 2.422 L 1.622 2.028 L 2.128 1.613 L 2.823 0.936 L 3.320 0.416 L 3.349 0.369 L 3.345 0.402 L 3.376 0.486 L 3.425 0.527 L 3.452 0.537 L 3.418 0.539 Z"/>
<path d="M 1.404 2.580 C 1.409 2.470 1.502 2.385 1.612 2.389 C 1.722 2.394 1.807 2.487 1.802 2.597 L 1.803 3.300 L 1.794 3.727 L 1.509 5.503 L 1.419 6.317 L 1.417 6.392 L 1.412 6.369 L 1.393 6.327 L 1.311 6.252 L 1.154 6.246 L 1.082 6.294 L 1.051 6.339 L 1.053 6.324 L 1.075 6.218 C 1.094 6.109 1.198 6.037 1.306 6.057 C 1.414 6.076 1.486 6.180 1.467 6.288 L 1.437 6.434 L 1.381 6.558 L 1.256 6.629 L 1.072 6.560 L 1.020 6.415 L 1.115 5.445 L 1.396 3.700 L 1.404 3.294 L 1.404 2.580 Z"/>
</g>
</svg>
