<svg xmlns="http://www.w3.org/2000/svg" viewBox="0 0 6.880 12.176" width="6.880" height="12.176">
<g fill="black" stroke="none">
<path d="M 0.732 0.798 C 0.715 1.000 0.538 1.151 0.336 1.135 C 0.135 1.118 -0.016 0.941 0.001 0.741 L 0.056 0.334 L 0.122 0.176 C 0.168 0.106 0.317 -0.027 0.507 0.005 C 0.805 0.054 0.792 0.211 0.818 0.271 L 0.969 0.884 L 1.691 3.647 L 2.145 4.562 L 2.195 4.619 L 2.140 4.627 L 2.164 4.605 C 2.300 4.454 2.532 4.443 2.681 4.579 C 2.832 4.715 2.843 4.947 2.707 5.098 C 2.561 5.256 2.335 5.376 2.105 5.348 C 1.716 5.300 1.519 4.993 1.346 4.680 C 0.794 3.690 0.457 2.086 0.249 1.026 L 0.172 0.662 L 0.142 0.555 L 0.170 0.601 L 0.225 0.656 L 0.345 0.719 L 0.520 0.724 L 0.652 0.665 L 0.717 0.605 L 0.757 0.538 L 0.755 0.573 L 0.732 0.798 Z"/>
<path d="M 6.276 0.965 C 6.075 0.988 5.893 0.844 5.869 0.643 C 5.845 0.443 5.991 0.260 6.191 0.236 L 6.515 0.249 L 6.823 0.489 C 6.942 0.719 6.850 0.899 6.782 1.024 C 6.578 1.394 6.167 1.768 5.687 2.226 L 4.398 3.482 L 3.428 4.279 L 2.408 5.137 L 2.327 5.236 L 2.329 5.170 L 2.272 5.041 L 2.250 5.019 C 2.434 5.100 2.519 5.317 2.436 5.503 C 2.353 5.687 2.136 5.770 1.952 5.689 C 1.770 5.606 1.569 5.361 1.600 5.122 C 1.643 4.792 1.856 4.636 2.084 4.432 L 2.970 3.706 L 3.901 2.942 L 5.181 1.696 L 6.096 0.739 L 6.149 0.652 L 6.142 0.713 L 6.199 0.868 L 6.289 0.943 L 6.339 0.962 L 6.276 0.965 Z"/>
<path d="M 2.569 4.722 C 2.578 4.520 2.749 4.363 2.951 4.371 C 3.154 4.380 3.310 4.551 3.301 4.754 L 3.303 6.048 L 3.287 6.834 L 2.762 10.103 L 2.596 11.601 L 2.593 11.739 L 2.583 11.697 L 2.548 11.620 L 2.397 11.482 L 2.108 11.471 L 1.976 11.559 L 1.919 11.642 L 1.922 11.614 L 1.963 11.419 C 1.998 11.219 2.189 11.086 2.388 11.123 C 2.587 11.158 2.720 11.349 2.685 11.548 L 2.629 11.817 L 2.526 12.045 L 2.296 12.176 L 1.957 12.049 L 1.862 11.782 L 2.037 9.996 L 2.554 6.784 L 2.569 6.037 L 2.569 4.722 Z"/>
</g>
</svg>
