<svg xmlns="http://www.w3.org/2000/svg" viewBox="0 0 12.235 21.616" width="12.235" height="21.616">
<g fill="black" stroke="none">
<path d="M 6.503 5.170 C 6.510 5.422 6.312 5.633 6.060 5.642 C 5.809 5.649 5.597 5.451 5.590 5.200 C 5.579 4.916 5.384 4.728 4.981 4.675 C 4.543 4.620 3.924 4.790 3.356 5.291 C 1.723 6.728 0.907 11.274 0.912 15.191 C 0.912 17.449 1.418 19.366 2.273 20.221 C 2.802 20.752 3.526 20.878 4.372 20.516 C 5.607 19.984 6.985 18.092 8.244 15.829 C 9.742 13.143 10.663 9.849 11.108 6.928 C 11.390 5.069 11.372 3.355 11.183 2.102 C 11.094 1.511 10.858 1.139 10.652 0.986 C 10.473 0.853 10.383 0.867 10.292 0.952 C 9.870 1.343 9.818 3.803 9.964 5.782 C 9.983 6.034 9.795 6.252 9.543 6.270 C 9.291 6.288 9.073 6.101 9.055 5.848 L 8.968 2.716 C 9.016 1.720 9.098 0.817 9.671 0.283 C 10.084 -0.100 10.746 -0.079 11.195 0.254 C 11.651 0.589 11.969 1.192 12.086 1.967 C 12.290 3.326 12.304 5.117 12.011 7.064 C 11.552 10.073 10.613 13.452 9.041 16.273 C 7.751 18.596 6.381 20.645 4.731 21.357 C 3.616 21.832 2.413 21.652 1.629 20.867 C 0.470 19.707 0.000 17.586 0.000 15.191 C -0.002 13.187 0.204 11.028 0.646 9.086 C 1.082 7.186 1.707 5.527 2.752 4.606 C 3.494 3.954 4.358 3.676 5.095 3.770 C 5.822 3.861 6.477 4.416 6.503 5.170 Z"/>
</g>
</svg>
