<svg xmlns="http://www.w3.org/2000/svg" viewBox="0 0 4.536 5.652" width="4.536" height="5.652">
<g fill="black" stroke="none">
<path d="M 3.390 0.474 C 3.340 0.376 3.379 0.256 3.477 0.205 C 3.575 0.155 3.695 0.194 3.745 0.292 C 3.972 0.738 4.263 1.224 4.414 1.849 C 4.493 2.179 4.536 2.549 4.502 2.942 C 4.458 3.470 4.248 4.008 3.939 4.476 C 3.742 4.774 3.479 5.008 3.219 5.198 C 2.714 5.565 2.103 5.652 1.586 5.539 C 0.832 5.373 0.344 4.631 0.194 3.857 C 0.000 2.857 0.455 1.870 1.092 1.165 C 1.719 0.472 2.516 0.000 3.174 0.119 C 3.283 0.138 3.355 0.242 3.335 0.350 C 3.315 0.459 3.212 0.531 3.104 0.511 C 2.690 0.436 1.955 0.805 1.388 1.433 C 0.811 2.070 0.422 2.942 0.585 3.781 C 0.714 4.445 1.125 5.030 1.672 5.149 C 2.085 5.240 2.579 5.170 2.984 4.875 C 3.219 4.704 3.446 4.499 3.607 4.256 C 3.883 3.838 4.068 3.355 4.105 2.908 C 4.135 2.564 4.098 2.238 4.026 1.942 C 3.891 1.383 3.624 0.931 3.390 0.474 Z"/>
</g>
</svg>
