<svg xmlns="http://www.w3.org/2000/svg" viewBox="0 0 6.660 8.367" width="6.660" height="8.367">
<g fill="black" stroke="none">
<path d="M 4.946 0.569 C 4.869 0.419 4.929 0.236 5.078 0.158 C 5.228 0.082 5.411 0.141 5.487 0.291 C 5.834 0.971 6.278 1.713 6.508 2.667 C 6.629 3.170 6.694 3.735 6.642 4.335 C 6.575 5.140 6.255 5.961 5.783 6.675 C 5.483 7.130 5.081 7.487 4.685 7.777 C 3.914 8.337 2.982 8.470 2.193 8.297 C 1.042 8.044 0.298 6.912 0.069 5.731 C -0.227 4.205 0.467 2.699 1.439 1.623 C 2.396 0.566 3.612 -0.155 4.616 0.027 C 4.782 0.056 4.892 0.215 4.862 0.379 C 4.831 0.546 4.674 0.656 4.509 0.625 C 3.877 0.511 2.756 1.074 1.891 2.032 C 1.010 3.004 0.417 4.335 0.665 5.615 C 0.862 6.628 1.489 7.521 2.324 7.702 C 2.954 7.841 3.708 7.734 4.326 7.284 C 4.685 7.023 5.031 6.710 5.277 6.340 C 5.698 5.702 5.980 4.965 6.037 4.283 C 6.082 3.758 6.026 3.260 5.916 2.809 C 5.710 1.956 5.303 1.266 4.946 0.569 Z"/>
</g>
</svg>
