<svg xmlns="http://www.w3.org/2000/svg" viewBox="0 0 14.032 21.615" width="14.032" height="21.615">
<g fill="black" stroke="none">
<path d="M 7.615 4.194 C 7.878 4.361 7.954 4.710 7.788 4.973 C 7.620 5.233 7.272 5.313 7.008 5.143 C 6.005 4.506 5.203 4.506 4.512 4.894 C 2.213 6.192 0.919 11.842 1.157 16.039 C 1.276 18.152 2.236 19.705 3.443 20.221 C 4.226 20.552 5.007 20.632 5.912 20.226 C 7.935 19.320 10.140 16.274 11.567 13.102 C 13.106 9.696 13.267 6.058 12.245 3.727 C 11.672 2.414 10.556 1.490 9.612 1.224 C 8.753 0.980 8.232 1.171 8.168 2.173 C 8.148 2.485 7.878 2.720 7.566 2.701 C 7.255 2.681 7.020 2.411 7.040 2.100 C 7.091 1.303 7.444 0.629 8.015 0.292 C 9.689 -0.700 12.228 0.862 13.279 3.273 C 14.475 6.004 14.246 9.915 12.596 13.567 C 11.103 16.888 8.898 20.127 6.374 21.255 C 5.178 21.793 3.991 21.676 3.002 21.260 C 1.287 20.530 0.168 18.526 0.029 16.100 C -0.138 13.159 0.344 9.634 1.557 6.928 C 2.143 5.616 2.911 4.503 3.956 3.913 C 4.997 3.324 6.351 3.386 7.615 4.194 Z"/>
</g>
</svg>
