<svg xmlns="http://www.w3.org/2000/svg" viewBox="0 0 4.752 4.361" width="4.752" height="4.361">
<g fill="black" stroke="none">
<path d="M 3.805 0.793 C 3.708 0.741 3.671 0.621 3.722 0.524 C 3.774 0.427 3.895 0.390 3.992 0.441 C 4.314 0.613 4.554 1.020 4.657 1.505 C 4.708 1.744 4.752 2.016 4.695 2.305 C 4.609 2.734 4.251 3.063 3.908 3.362 C 3.546 3.676 3.118 3.946 2.681 4.119 C 2.081 4.355 1.483 4.361 1.015 4.188 C 0.633 4.048 0.359 3.748 0.201 3.417 C 0.066 3.139 0.047 2.836 0.041 2.581 C 0.037 2.392 0.000 2.191 0.068 1.968 C 0.152 1.696 0.370 1.573 0.569 1.251 L 0.716 1.098 L 0.837 0.510 C 0.878 0.309 1.063 0.234 1.205 0.205 L 1.610 0.200 C 2.271 0.310 3.167 0.187 3.552 0.039 C 3.655 0.000 3.770 0.051 3.809 0.154 C 3.849 0.257 3.797 0.372 3.695 0.411 C 3.206 0.599 2.303 0.719 1.545 0.594 L 1.284 0.596 L 1.213 0.619 L 1.228 0.589 C 1.176 0.845 1.204 1.117 1.032 1.341 L 0.927 1.447 L 0.908 1.460 L 0.449 2.084 L 0.439 2.572 C 0.444 2.806 0.468 3.054 0.559 3.245 C 0.682 3.500 0.884 3.715 1.153 3.814 C 1.518 3.949 2.018 3.952 2.534 3.748 C 2.923 3.595 3.317 3.347 3.646 3.061 C 3.972 2.777 4.254 2.478 4.304 2.227 L 4.267 1.588 C 4.184 1.195 3.957 0.874 3.805 0.793 Z"/>
</g>
</svg>
