<svg xmlns="http://www.w3.org/2000/svg" viewBox="0 0 9.283 8.467" width="9.283" height="8.467">
<g fill="black" stroke="none">
<path d="M 7.470 1.517 C 7.279 1.414 7.205 1.177 7.306 0.985 C 7.409 0.793 7.648 0.720 7.840 0.821 C 8.477 1.161 8.952 1.966 9.155 2.925 C 9.256 3.397 9.343 3.935 9.230 4.507 C 9.060 5.355 8.352 6.006 7.674 6.597 C 6.958 7.218 6.112 7.752 5.248 8.094 C 4.061 8.561 2.878 8.573 1.953 8.231 C 1.197 7.954 0.656 7.361 0.343 6.706 C 0.076 6.156 0.039 5.557 0.027 5.053 C 0.019 4.679 -0.054 4.281 0.080 3.840 C 0.246 3.303 0.677 3.059 1.071 2.423 L 1.362 2.120 L 1.601 0.957 C 1.682 0.560 2.048 0.411 2.329 0.354 L 3.130 0.344 C 4.437 0.562 6.209 0.318 6.970 0.026 C 7.174 -0.051 7.401 0.049 7.478 0.253 C 7.557 0.457 7.455 0.684 7.253 0.761 C 6.286 1.133 4.500 1.370 3.001 1.123 L 2.485 1.127 L 2.344 1.173 L 2.374 1.113 C 2.271 1.620 2.327 2.158 1.987 2.600 L 1.779 2.810 L 1.741 2.836 L 0.834 4.070 L 0.814 5.035 C 0.824 5.498 0.871 5.988 1.051 6.366 C 1.294 6.870 1.694 7.295 2.226 7.491 C 2.948 7.758 3.936 7.764 4.957 7.361 C 5.726 7.058 6.505 6.568 7.156 6.002 C 7.801 5.440 8.358 4.849 8.457 4.353 L 8.384 3.089 C 8.220 2.312 7.771 1.677 7.470 1.517 Z"/>
</g>
</svg>
