<svg xmlns="http://www.w3.org/2000/svg" viewBox="0 0 8.039 8.578" width="8.039" height="8.578">
<g fill="black" stroke="none">
<path d="M 5.048 1.501 C 4.845 1.407 4.754 1.168 4.847 0.965 C 4.938 0.762 5.178 0.671 5.380 0.764 C 5.930 1.012 6.698 1.109 7.313 1.527 C 7.583 1.711 7.830 1.969 7.956 2.314 C 8.201 2.983 7.873 3.729 7.426 4.471 C 6.968 5.234 6.333 5.998 5.672 6.670 C 4.904 7.448 4.087 8.052 3.271 8.365 C 2.866 8.519 2.448 8.610 2.036 8.568 C 1.499 8.511 1.085 8.136 0.791 7.700 L 0.155 6.211 C -0.267 4.579 0.203 3.007 1.209 1.906 C 2.221 0.797 3.752 0.103 5.425 0.000 C 5.648 -0.014 5.841 0.154 5.855 0.377 C 5.867 0.600 5.699 0.793 5.476 0.805 C 3.995 0.898 2.659 1.513 1.805 2.450 C 0.964 3.372 0.580 4.632 0.937 6.008 C 1.173 6.919 1.706 7.720 2.118 7.763 L 2.981 7.610 C 3.645 7.357 4.387 6.820 5.096 6.102 L 6.733 4.054 C 7.128 3.399 7.278 2.815 7.197 2.590 L 6.859 2.194 C 6.465 1.926 5.729 1.809 5.048 1.501 Z"/>
</g>
</svg>
