<svg xmlns="http://www.w3.org/2000/svg" viewBox="0 0 9.880 21.617" width="9.880" height="21.617">
<g fill="black" stroke="none">
<path d="M 5.665 2.445 C 5.867 2.610 5.895 2.902 5.734 3.102 C 5.569 3.304 5.276 3.332 5.074 3.170 C 4.716 2.877 4.511 2.917 4.140 3.276 C 3.488 3.907 2.836 5.429 2.315 7.306 C 1.775 9.249 1.379 11.494 1.158 13.660 C 0.892 16.299 0.823 18.647 1.294 19.900 C 1.583 20.674 2.282 20.869 3.092 20.524 C 4.056 20.107 5.210 18.598 6.196 16.571 C 7.218 14.469 8.058 11.907 8.537 9.333 C 8.980 6.976 9.020 4.615 8.856 2.851 C 8.785 2.091 8.598 1.551 8.386 1.244 C 8.113 0.848 7.946 0.840 7.700 1.047 C 7.399 1.300 7.073 2.025 7.047 3.140 C 7.042 3.397 6.826 3.604 6.571 3.597 C 6.313 3.592 6.106 3.377 6.113 3.119 C 6.151 1.420 6.768 0.146 7.798 0.007 C 8.835 -0.131 9.627 1.059 9.785 2.764 C 9.959 4.618 9.919 7.046 9.457 9.507 C 8.962 12.160 8.101 14.793 7.035 16.981 C 6.003 19.100 4.840 20.787 3.460 21.383 C 2.874 21.631 2.245 21.697 1.686 21.507 C 1.126 21.319 0.654 20.857 0.420 20.229 C -0.174 18.651 -0.043 16.249 0.229 13.566 C 0.527 10.609 1.133 7.539 2.007 5.211 C 2.427 4.099 2.890 3.184 3.491 2.605 C 3.784 2.321 4.131 2.108 4.525 2.065 C 4.922 2.023 5.330 2.170 5.665 2.445 Z"/>
</g>
</svg>
