<svg xmlns="http://www.w3.org/2000/svg" viewBox="0 0 4.176 4.253" width="4.176" height="4.253">
<g fill="black" stroke="none">
<path d="M 2.621 0.747 C 2.521 0.701 2.476 0.583 2.522 0.483 C 2.567 0.383 2.685 0.338 2.785 0.384 C 3.056 0.506 3.435 0.554 3.738 0.760 C 3.871 0.851 3.993 0.978 4.055 1.148 C 4.176 1.478 4.014 1.846 3.794 2.212 C 3.568 2.588 3.255 2.965 2.929 3.296 C 2.550 3.680 2.147 3.978 1.745 4.132 C 1.545 4.208 1.339 4.253 1.136 4.232 C 0.871 4.204 0.667 4.019 0.522 3.804 L 0.208 3.070 C 0.000 2.265 0.232 1.490 0.728 0.947 C 1.227 0.400 1.982 0.058 2.807 0.007 C 2.917 0.000 3.012 0.083 3.019 0.193 C 3.025 0.303 2.942 0.398 2.832 0.404 C 2.102 0.450 1.443 0.753 1.022 1.215 C 0.607 1.670 0.418 2.291 0.594 2.970 C 0.710 3.419 0.973 3.814 1.176 3.835 L 1.602 3.760 C 1.929 3.635 2.295 3.370 2.645 3.016 L 3.452 2.006 C 3.647 1.683 3.721 1.395 3.681 1.284 L 3.514 1.089 C 3.320 0.957 2.957 0.899 2.621 0.747 Z"/>
</g>
</svg>
