<svg xmlns="http://www.w3.org/2000/svg" viewBox="0 0 9.091 21.616" width="9.091" height="21.616">
<g fill="black" stroke="none">
<path d="M 3.883 1.203 C 3.942 1.396 3.834 1.600 3.641 1.659 C 3.448 1.717 3.242 1.609 3.183 1.416 C 2.998 0.804 2.744 0.674 2.482 0.739 C 2.177 0.813 1.726 1.249 1.410 2.017 C 1.058 2.870 1.006 4.241 0.932 5.937 C 0.832 8.238 0.619 10.976 0.805 13.602 C 0.935 15.469 1.280 17.136 1.780 18.426 C 2.258 19.654 2.885 20.490 3.486 20.742 C 3.955 20.946 4.464 20.944 4.944 20.695 C 6.759 19.725 7.902 14.254 8.283 9.493 C 8.384 8.225 8.378 6.994 8.292 5.876 C 8.169 4.246 7.882 2.905 7.531 2.181 L 7.308 1.831 L 7.276 1.771 L 7.025 2.152 C 6.945 2.336 6.727 2.421 6.543 2.338 C 6.359 2.258 6.274 2.042 6.355 1.858 C 6.493 1.545 6.647 1.297 6.888 1.150 C 7.101 1.019 7.404 1.023 7.612 1.143 C 7.967 1.347 8.162 1.740 8.346 2.230 C 8.641 3.008 8.854 4.072 8.979 5.320 C 9.108 6.604 9.133 8.050 9.014 9.552 C 8.821 11.947 8.449 14.512 7.847 16.730 C 7.263 18.878 6.518 20.685 5.285 21.345 C 4.609 21.693 3.848 21.697 3.197 21.414 C 2.296 21.037 1.614 20.017 1.099 18.692 C 0.560 17.313 0.210 15.581 0.074 13.653 C -0.115 10.958 0.103 8.191 0.201 5.906 C 0.274 4.208 0.302 2.787 0.733 1.738 C 1.103 0.838 1.647 0.190 2.307 0.027 C 2.962 -0.135 3.632 0.376 3.883 1.203 Z"/>
</g>
</svg>
