<svg xmlns="http://www.w3.org/2000/svg" viewBox="0 0 3.936 4.670" width="3.936" height="4.670">
<g fill="black" stroke="none">
<path d="M 2.655 0.600 C 2.597 0.507 2.625 0.384 2.718 0.326 C 2.811 0.267 2.934 0.295 2.993 0.388 C 3.259 0.812 3.585 1.136 3.775 1.563 C 3.894 1.833 3.936 2.139 3.893 2.446 C 3.793 3.156 3.153 3.803 2.521 4.231 C 2.208 4.443 1.882 4.567 1.578 4.607 C 1.303 4.643 1.012 4.670 0.760 4.510 C 0.462 4.321 0.353 3.964 0.261 3.661 C 0.000 2.801 0.240 1.863 0.711 1.167 C 1.174 0.482 1.904 0.000 2.612 0.181 C 2.719 0.209 2.783 0.317 2.756 0.424 C 2.729 0.530 2.620 0.595 2.514 0.567 C 2.034 0.445 1.444 0.794 1.041 1.390 C 0.628 2.000 0.424 2.827 0.643 3.545 C 0.728 3.826 0.847 4.093 0.973 4.173 C 1.089 4.247 1.272 4.245 1.526 4.212 C 1.762 4.181 2.032 4.081 2.298 3.901 C 2.870 3.514 3.427 2.895 3.498 2.390 C 3.531 2.154 3.499 1.924 3.411 1.725 C 3.259 1.382 2.946 1.062 2.655 0.600 Z"/>
</g>
</svg>
