<svg xmlns="http://www.w3.org/2000/svg" viewBox="0 0 6.934 8.293" width="6.934" height="8.293">
<g fill="black" stroke="none">
<path d="M 4.617 0.843 C 4.510 0.671 4.562 0.444 4.733 0.337 C 4.905 0.228 5.132 0.280 5.241 0.451 C 5.732 1.234 6.334 1.833 6.685 2.621 C 6.905 3.120 6.983 3.685 6.903 4.252 C 6.719 5.563 5.537 6.758 4.369 7.548 C 3.791 7.940 3.189 8.169 2.628 8.243 C 2.120 8.309 1.583 8.359 1.117 8.064 C 0.567 7.715 0.366 7.055 0.196 6.496 C -0.286 4.908 0.157 3.175 1.027 1.890 C 1.882 0.625 3.230 -0.265 4.538 0.069 C 4.735 0.121 4.853 0.320 4.803 0.518 C 4.754 0.714 4.552 0.834 4.357 0.782 C 3.470 0.557 2.381 1.201 1.636 2.302 C 0.874 3.428 0.497 4.956 0.901 6.282 C 1.058 6.800 1.278 7.294 1.511 7.441 C 1.725 7.578 2.063 7.574 2.532 7.513 C 2.968 7.456 3.466 7.271 3.958 6.939 C 5.014 6.224 6.043 5.081 6.174 4.149 C 6.235 3.713 6.176 3.288 6.013 2.920 C 5.732 2.287 5.154 1.696 4.617 0.843 Z"/>
</g>
</svg>
