<svg xmlns="http://www.w3.org/2000/svg" viewBox="0 0 13.375 21.429" width="13.375" height="21.429">
<g fill="black" stroke="none">
<path d="M 6.258 2.204 C 6.245 2.450 6.035 2.637 5.789 2.624 C 5.543 2.611 5.357 2.400 5.371 2.155 L 5.337 1.710 L 5.489 1.781 C 5.456 1.786 4.915 2.186 4.412 2.897 C 3.205 4.606 2.074 7.880 1.415 11.175 C 0.955 13.463 0.727 15.678 1.033 17.388 C 1.339 19.124 2.655 20.184 4.115 20.403 C 4.944 20.541 5.735 20.637 6.506 20.356 C 8.341 19.663 10.082 16.778 11.320 13.910 C 12.203 11.863 12.527 9.773 12.480 7.865 C 12.446 6.459 12.214 5.161 11.859 4.057 C 11.349 2.461 10.571 1.319 9.961 0.986 C 9.700 0.845 9.543 0.852 9.376 0.979 C 9.177 1.127 8.940 1.522 8.783 2.202 C 8.728 2.441 8.488 2.590 8.249 2.535 C 8.008 2.481 7.858 2.242 7.914 2.003 C 8.079 1.292 8.323 0.744 8.696 0.389 C 9.016 0.083 9.465 -0.056 9.879 0.020 C 10.598 0.150 11.197 0.762 11.716 1.587 C 12.531 2.883 13.146 4.772 13.325 6.966 C 13.508 9.217 13.213 11.767 12.138 14.263 C 10.864 17.211 9.161 20.304 6.817 21.189 C 5.807 21.560 4.828 21.426 3.974 21.283 C 2.193 21.015 0.528 19.652 0.155 17.542 C -0.183 15.644 0.070 13.345 0.541 11.000 C 0.879 9.313 1.346 7.626 1.896 6.104 C 2.432 4.611 3.026 3.312 3.683 2.383 C 4.177 1.683 4.624 1.149 5.170 0.950 C 5.449 0.847 5.887 0.930 6.077 1.216 C 6.262 1.493 6.280 1.815 6.258 2.204 Z"/>
</g>
</svg>
