<svg xmlns="http://www.w3.org/2000/svg" viewBox="0 0 13.492 21.616" width="13.492" height="21.616">
<g fill="black" stroke="none">
<path d="M 6.312 2.224 C 6.299 2.472 6.087 2.660 5.839 2.647 C 5.591 2.634 5.404 2.421 5.418 2.174 L 5.383 1.725 L 5.537 1.797 C 5.503 1.802 4.958 2.205 4.450 2.923 C 3.233 4.646 2.092 7.949 1.427 11.273 C 0.963 13.581 0.733 15.815 1.042 17.540 C 1.350 19.291 2.678 20.360 4.151 20.581 C 4.987 20.720 5.785 20.817 6.563 20.534 C 8.414 19.835 10.170 16.925 11.419 14.032 C 12.309 11.967 12.636 9.859 12.589 7.934 C 12.554 6.516 12.320 5.206 11.962 4.093 C 11.448 2.483 10.663 1.331 10.048 0.995 C 9.784 0.853 9.626 0.860 9.458 0.988 C 9.257 1.137 9.018 1.536 8.859 2.222 C 8.804 2.463 8.562 2.613 8.321 2.557 C 8.078 2.503 7.926 2.262 7.983 2.021 C 8.149 1.304 8.395 0.751 8.772 0.393 C 9.094 0.084 9.547 -0.056 9.965 0.020 C 10.690 0.152 11.294 0.769 11.818 1.601 C 12.640 2.908 13.260 4.814 13.441 7.027 C 13.626 9.298 13.328 11.870 12.244 14.388 C 10.959 17.361 9.241 20.481 6.876 21.374 C 5.857 21.748 4.870 21.613 4.008 21.469 C 2.212 21.199 0.532 19.824 0.156 17.695 C -0.185 15.781 0.070 13.462 0.546 11.096 C 0.886 9.395 1.358 7.693 1.912 6.158 C 2.453 4.652 3.052 3.341 3.715 2.404 C 4.213 1.698 4.664 1.159 5.215 0.959 C 5.496 0.855 5.938 0.938 6.130 1.227 C 6.316 1.506 6.335 1.831 6.312 2.224 Z"/>
</g>
</svg>
