<svg xmlns="http://www.w3.org/2000/svg" viewBox="0 0 12.342 21.362" width="12.342" height="21.362">
<g fill="black" stroke="none">
<path d="M 5.888 4.845 C 5.704 4.804 5.587 4.620 5.628 4.436 C 5.670 4.250 5.854 4.134 6.038 4.176 C 6.608 4.301 7.014 4.288 7.256 4.203 C 7.571 4.093 7.652 3.893 7.609 3.579 C 7.563 3.238 7.327 2.821 6.981 2.520 C 6.589 2.180 6.040 1.982 5.429 2.059 C 4.790 2.140 4.051 2.532 3.326 3.372 C 2.679 4.122 2.039 5.155 1.559 6.516 C 0.859 8.486 0.650 11.074 0.690 13.552 C 0.719 15.508 1.025 17.334 1.554 18.704 C 2.101 20.120 3.159 20.746 4.166 20.676 C 4.813 20.626 5.498 20.411 6.160 19.865 C 7.432 18.804 8.413 16.517 9.369 14.142 C 10.305 11.828 11.049 9.403 11.420 7.232 C 11.759 5.239 11.722 3.517 11.371 2.297 C 11.197 1.701 10.915 1.264 10.610 0.996 C 10.185 0.621 9.763 0.600 9.545 0.788 L 9.297 1.345 C 9.264 1.648 9.313 2.061 9.481 2.569 C 9.541 2.747 9.445 2.942 9.264 3.002 C 9.085 3.061 8.891 2.964 8.831 2.785 C 8.574 2.020 8.535 1.371 8.703 0.870 C 8.946 0.149 9.744 -0.166 10.414 0.084 C 11.104 0.340 11.725 1.058 12.030 2.107 C 12.422 3.467 12.449 5.279 12.095 7.347 C 11.715 9.582 10.956 12.046 10.004 14.399 C 9.042 16.787 8.080 19.155 6.597 20.394 C 5.821 21.034 4.980 21.300 4.216 21.359 C 2.903 21.450 1.547 20.590 0.915 18.950 C 0.347 17.479 0.036 15.586 0.005 13.562 C -0.036 11.035 0.167 8.386 0.912 6.287 C 1.420 4.847 2.106 3.739 2.806 2.925 C 3.615 1.985 4.508 1.484 5.341 1.379 C 6.152 1.276 6.902 1.543 7.430 2.002 C 8.044 2.536 8.444 3.322 8.263 4.033 C 8.172 4.391 7.884 4.709 7.482 4.850 C 7.067 4.995 6.539 4.990 5.888 4.845 Z"/>
</g>
</svg>
