<svg xmlns="http://www.w3.org/2000/svg" viewBox="0 0 12.489 21.616" width="12.489" height="21.616">
<g fill="black" stroke="none">
<path d="M 5.958 4.903 C 5.772 4.861 5.653 4.675 5.695 4.489 C 5.737 4.301 5.924 4.183 6.110 4.226 C 6.687 4.352 7.097 4.339 7.342 4.253 C 7.661 4.142 7.743 3.939 7.699 3.622 C 7.653 3.277 7.414 2.855 7.064 2.550 C 6.667 2.206 6.112 2.006 5.494 2.084 C 4.847 2.165 4.099 2.562 3.366 3.412 C 2.711 4.171 2.063 5.216 1.578 6.593 C 0.869 8.587 0.658 11.206 0.698 13.713 C 0.728 15.692 1.037 17.540 1.572 18.926 C 2.126 20.359 3.197 20.993 4.216 20.922 C 4.870 20.871 5.563 20.654 6.233 20.101 C 7.520 19.028 8.513 16.713 9.480 14.310 C 10.427 11.969 11.180 9.515 11.556 7.318 C 11.899 5.301 11.861 3.559 11.506 2.324 C 11.330 1.721 11.045 1.279 10.736 1.008 C 10.306 0.628 9.879 0.607 9.658 0.797 L 9.407 1.361 C 9.374 1.668 9.424 2.086 9.594 2.600 C 9.654 2.780 9.557 2.977 9.374 3.038 C 9.193 3.097 8.997 2.999 8.936 2.818 C 8.676 2.044 8.636 1.387 8.806 0.880 C 9.052 0.151 9.860 -0.168 10.538 0.085 C 11.236 0.344 11.864 1.071 12.173 2.132 C 12.570 3.508 12.597 5.342 12.239 7.434 C 11.854 9.696 11.086 12.189 10.123 14.570 C 9.149 16.987 8.176 19.383 6.675 20.636 C 5.890 21.284 5.039 21.553 4.266 21.613 C 2.937 21.705 1.565 20.835 0.926 19.175 C 0.351 17.687 0.036 15.771 0.005 13.723 C -0.036 11.166 0.169 8.486 0.923 6.362 C 1.437 4.905 2.131 3.783 2.839 2.960 C 3.658 2.009 4.562 1.502 5.404 1.395 C 6.225 1.291 6.984 1.561 7.518 2.026 C 8.140 2.566 8.544 3.362 8.361 4.081 C 8.269 4.443 7.978 4.765 7.571 4.908 C 7.151 5.054 6.617 5.049 5.958 4.903 Z"/>
</g>
</svg>
