<svg xmlns="http://www.w3.org/2000/svg" viewBox="0 0 16.693 20.972" width="16.693" height="20.972">
<g fill="black" stroke="none">
<path d="M 12.395 1.425 C 12.204 1.050 12.353 0.591 12.728 0.396 C 13.103 0.205 13.562 0.354 13.753 0.729 C 14.621 2.435 15.734 4.294 16.312 6.684 C 16.614 7.946 16.778 9.361 16.648 10.864 C 16.480 12.883 15.677 14.941 14.495 16.731 C 13.742 17.870 12.736 18.765 11.741 19.492 C 9.810 20.896 7.473 21.228 5.496 20.796 C 2.612 20.161 0.746 17.323 0.172 14.363 C -0.570 10.539 1.171 6.764 3.607 4.068 C 6.005 1.418 9.053 -0.388 11.569 0.068 C 11.986 0.140 12.262 0.538 12.185 0.951 C 12.109 1.368 11.715 1.643 11.302 1.567 C 9.718 1.280 6.907 2.691 4.739 5.093 C 2.532 7.529 1.044 10.864 1.668 14.073 C 2.161 16.612 3.733 18.849 5.825 19.305 C 7.404 19.653 9.294 19.385 10.843 18.257 C 11.741 17.603 12.610 16.819 13.225 15.889 C 14.281 14.291 14.988 12.443 15.130 10.734 C 15.245 9.418 15.103 8.172 14.828 7.040 C 14.311 4.902 13.290 3.173 12.395 1.425 Z"/>
</g>
</svg>
