<svg xmlns="http://www.w3.org/2000/svg" viewBox="0 0 23.268 21.221" width="23.268" height="21.221">
<g fill="black" stroke="none">
<path d="M 18.724 3.802 C 18.243 3.544 18.059 2.949 18.312 2.468 C 18.570 1.987 19.170 1.804 19.651 2.057 C 21.247 2.909 22.436 4.927 22.947 7.331 C 23.200 8.515 23.418 9.864 23.135 11.296 C 22.709 13.422 20.934 15.053 19.234 16.535 C 17.440 18.092 15.318 19.430 13.152 20.287 C 10.178 21.457 7.214 21.487 4.895 20.629 C 3.001 19.935 1.643 18.448 0.860 16.808 C 0.191 15.430 0.097 13.928 0.067 12.664 C 0.047 11.727 -0.136 10.731 0.201 9.626 C 0.617 8.277 1.698 7.668 2.684 6.072 L 3.413 5.313 L 4.012 2.399 C 4.216 1.403 5.133 1.031 5.836 0.887 L 7.844 0.862 C 11.120 1.408 15.561 0.798 17.470 0.064 C 17.980 -0.129 18.550 0.124 18.743 0.634 C 18.942 1.145 18.684 1.715 18.178 1.908 C 15.755 2.840 11.279 3.435 7.522 2.815 L 6.228 2.825 L 5.876 2.939 L 5.950 2.790 C 5.693 4.059 5.831 5.408 4.979 6.518 L 4.458 7.043 L 4.364 7.108 L 2.089 10.201 L 2.040 12.619 C 2.064 13.779 2.183 15.009 2.634 15.955 C 3.244 17.219 4.245 18.285 5.579 18.776 C 7.388 19.445 9.866 19.460 12.424 18.448 C 14.352 17.690 16.305 16.461 17.936 15.043 C 19.551 13.636 20.949 12.154 21.197 10.909 L 21.014 7.742 C 20.602 5.794 19.477 4.203 18.724 3.802 Z"/>
</g>
</svg>
