<svg xmlns="http://www.w3.org/2000/svg" viewBox="0 0 20.149 21.500" width="20.149" height="21.500">
<g fill="black" stroke="none">
<path d="M 12.652 3.761 C 12.143 3.527 11.915 2.928 12.148 2.419 C 12.377 1.911 12.977 1.682 13.485 1.916 C 14.862 2.536 16.789 2.780 18.329 3.827 C 19.005 4.290 19.625 4.935 19.940 5.799 C 20.555 7.476 19.732 9.347 18.613 11.207 C 17.465 13.118 15.874 15.034 14.217 16.716 C 12.291 18.668 10.243 20.183 8.199 20.965 C 7.183 21.352 6.136 21.580 5.104 21.474 C 3.757 21.331 2.720 20.391 1.983 19.298 L 0.388 15.568 C -0.670 11.476 0.510 7.537 3.030 4.778 C 5.567 1.997 9.404 0.259 13.597 0.000 C 14.156 -0.036 14.639 0.386 14.674 0.945 C 14.705 1.504 14.283 1.987 13.724 2.018 C 10.014 2.252 6.664 3.792 4.525 6.140 C 2.415 8.452 1.455 11.608 2.349 15.059 C 2.939 17.341 4.276 19.349 5.307 19.456 L 7.473 19.075 C 9.135 18.439 10.995 17.092 12.774 15.293 L 16.875 10.160 C 17.866 8.518 18.242 7.055 18.039 6.490 L 17.190 5.499 C 16.204 4.828 14.359 4.534 12.652 3.761 Z"/>
</g>
</svg>
