<svg xmlns="http://www.w3.org/2000/svg" viewBox="0 0 17.378 20.786" width="17.378" height="20.786">
<g fill="black" stroke="none">
<path d="M 11.572 2.112 C 11.303 1.682 11.433 1.113 11.863 0.844 C 12.294 0.571 12.863 0.701 13.136 1.131 C 14.368 3.094 15.876 4.593 16.756 6.570 C 17.307 7.820 17.501 9.236 17.302 10.657 C 16.839 13.943 13.877 16.938 10.952 18.919 C 9.503 19.900 7.994 20.474 6.587 20.659 C 5.314 20.826 3.967 20.951 2.800 20.211 C 1.421 19.336 0.917 17.683 0.491 16.281 C -0.717 12.300 0.394 7.958 2.574 4.737 C 4.717 1.566 8.096 -0.665 11.373 0.173 C 11.868 0.303 12.164 0.803 12.039 1.298 C 11.914 1.788 11.410 2.089 10.919 1.960 C 8.697 1.395 5.966 3.010 4.101 5.769 C 2.190 8.593 1.245 12.420 2.259 15.744 C 2.652 17.044 3.203 18.280 3.786 18.651 C 4.323 18.993 5.170 18.984 6.346 18.831 C 7.438 18.688 8.688 18.225 9.919 17.392 C 12.567 15.600 15.145 12.735 15.474 10.398 C 15.627 9.305 15.478 8.241 15.071 7.320 C 14.368 5.732 12.919 4.251 11.572 2.112 Z"/>
</g>
</svg>
