<svg xmlns="http://www.w3.org/2000/svg" viewBox="0 0 16.017 31.504" width="16.017" height="31.504">
<g fill="black" stroke="none">
<path d="M 2.514 5.995 C 2.686 6.123 2.718 6.367 2.590 6.537 C 2.462 6.709 2.218 6.744 2.047 6.615 C 0.693 5.598 -0.357 4.222 0.115 3.020 C 0.465 2.126 1.522 1.604 2.747 1.195 C 4.012 0.772 5.492 0.498 6.910 0.304 C 8.252 0.121 9.626 -0.206 10.884 0.180 C 12.673 0.732 13.659 2.848 13.967 4.979 C 14.183 6.493 13.984 8.166 13.334 9.793 C 12.644 11.554 11.297 13.101 10.039 14.338 C 8.888 15.473 7.667 16.171 6.705 16.560 C 5.954 16.870 5.388 16.981 4.970 16.842 L 4.718 16.616 C 4.620 16.387 4.735 16.249 4.785 16.186 L 5.353 15.831 L 6.331 15.616 C 7.583 15.527 9.147 16.089 10.694 16.947 C 12.262 17.821 13.759 18.992 14.759 20.315 C 15.844 21.748 16.238 23.589 15.901 25.378 C 15.594 27.016 14.646 28.530 13.523 29.655 C 12.071 31.099 10.299 31.592 8.805 31.492 C 7.359 31.397 6.133 30.825 5.680 29.954 C 5.580 29.764 5.654 29.531 5.845 29.432 C 6.034 29.332 6.270 29.406 6.369 29.597 C 6.612 30.063 7.608 30.636 8.858 30.720 C 10.152 30.805 11.685 30.388 12.975 29.107 C 14.004 28.077 14.868 26.676 15.140 25.235 C 15.437 23.645 15.091 22.037 14.140 20.783 C 12.285 18.329 8.462 16.243 6.386 16.389 L 5.526 16.599 L 5.377 16.685 L 5.390 16.669 L 5.423 16.618 L 5.456 16.525 L 5.458 16.402 L 5.357 16.198 L 5.213 16.107 C 5.224 16.111 5.769 16.107 6.411 15.842 C 7.291 15.486 8.428 14.838 9.496 13.785 C 10.714 12.585 11.988 11.098 12.614 9.507 C 13.216 7.999 13.395 6.459 13.199 5.090 C 12.916 3.127 11.983 1.331 10.657 0.922 C 9.663 0.617 8.386 0.885 7.015 1.072 C 5.626 1.260 4.183 1.533 2.992 1.930 C 1.853 2.309 1.023 2.825 0.837 3.303 C 0.718 3.603 0.796 4.028 1.084 4.504 C 1.390 5.006 1.893 5.530 2.514 5.995 Z"/>
</g>
</svg>
