<svg xmlns="http://www.w3.org/2000/svg" viewBox="0 0 2.664 6.507" width="2.664" height="6.507">
<g fill="none" stroke="black" stroke-width="0.130" stroke-linecap="round" stroke-linejoin="round">
<path d="M 0.671 1.044 L 0.565 1.044 L 0.542 1.039 L 0.512 1.030 L 0.477 1.017 L 0.441 0.999 L 0.407 0.975 L 0.378 0.946 L 0.354 0.911 L 0.336 0.872 L 0.325 0.830 L 0.321 0.786 L 0.324 0.741 L 0.334 0.697 L 0.350 0.655 L 0.372 0.615 L 0.400 0.577 L 0.433 0.542 L 0.469 0.510 L 0.507 0.480 L 0.548 0.452 L 0.591 0.426 L 0.635 0.402 L 0.679 0.379 L 0.725 0.359 L 0.772 0.339 L 0.819 0.322 L 0.866 0.305 L 0.914 0.291 L 0.963 0.277 L 1.012 0.265 L 1.061 0.254 L 1.110 0.244 L 1.160 0.234 L 1.209 0.226 L 1.259 0.220 L 1.309 0.215 L 1.359 0.211 L 1.409 0.210 L 1.460 0.210 L 1.510 0.212 L 1.560 0.217 L 1.609 0.223 L 1.659 0.232 L 1.708 0.242 L 1.756 0.255 L 1.803 0.271 L 1.850 0.289 L 1.895 0.309 L 1.938 0.333 L 1.980 0.359 L 2.020 0.388 L 2.057 0.420 L 2.093 0.454 L 2.125 0.491 L 2.155 0.530 L 2.181 0.571 L 2.205 0.615 L 2.226 0.659 L 2.245 0.706 L 2.260 0.753 L 2.274 0.801 L 2.285 0.850 L 2.294 0.899 L 2.300 0.948 L 2.305 0.998 L 2.308 1.049 L 2.309 1.099 L 2.308 1.149 L 2.306 1.199 L 2.302 1.249 L 2.296 1.299 L 2.289 1.349 L 2.280 1.398 L 2.269 1.447 L 2.257 1.496 L 2.243 1.544 L 2.227 1.592 L 2.210 1.639 L 2.192 1.686 L 2.172 1.732 L 2.152 1.778 L 2.130 1.824 L 2.108 1.869 L 2.085 1.914 L 2.061 1.959 L 2.036 2.002 L 2.010 2.045 L 1.983 2.087 L 1.954 2.129 L 1.925 2.170 L 1.894 2.210 L 1.863 2.250 L 1.832 2.289 L 1.799 2.328 L 1.765 2.365 L 1.731 2.402 L 1.695 2.437 L 1.659 2.472 L 1.621 2.506 L 1.583 2.539 L 1.544 2.571 L 1.504 2.602 L 1.464 2.632 L 1.424 2.662 L 1.383 2.691 L 1.341 2.720 L 1.300 2.749 L 1.260 2.778 L 1.220 2.808 L 1.181 2.838 L 1.143 2.868 L 1.104 2.897 L 1.064 2.924 L 1.023 2.947 L 0.980 2.967 L 0.935 2.982 L 0.888 2.995 L 0.840 3.004 L 0.791 3.012 L 0.742 3.019 L 0.693 3.025 L 0.645 3.030 L 0.600 3.035 L 0.559 3.040 L 0.525 3.043 L 0.500 3.046 L 0.390 3.058"/>
<path d="M 0.217 5.679 L 0.219 5.778 L 0.224 5.799 L 0.233 5.828 L 0.245 5.861 L 0.261 5.898 L 0.281 5.935 L 0.305 5.971 L 0.332 6.006 L 0.363 6.039 L 0.395 6.069 L 0.431 6.097 L 0.468 6.123 L 0.507 6.146 L 0.547 6.167 L 0.589 6.186 L 0.631 6.203 L 0.675 6.218 L 0.719 6.231 L 0.763 6.243 L 0.808 6.253 L 0.853 6.261 L 0.899 6.268 L 0.945 6.273 L 0.990 6.276 L 1.036 6.278 L 1.082 6.278 L 1.129 6.277 L 1.174 6.274 L 1.220 6.270 L 1.266 6.264 L 1.312 6.257 L 1.357 6.249 L 1.402 6.240 L 1.447 6.230 L 1.492 6.219 L 1.537 6.207 L 1.581 6.194 L 1.624 6.179 L 1.668 6.163 L 1.710 6.146 L 1.753 6.127 L 1.795 6.108 L 1.836 6.088 L 1.877 6.066 L 1.917 6.044 L 1.956 6.019 L 1.994 5.994 L 2.030 5.966 L 2.066 5.937 L 2.100 5.907 L 2.133 5.875 L 2.165 5.842 L 2.196 5.808 L 2.224 5.772 L 2.251 5.735 L 2.276 5.697 L 2.300 5.657 L 2.321 5.617 L 2.341 5.576 L 2.359 5.534 L 2.375 5.491 L 2.389 5.447 L 2.401 5.403 L 2.411 5.358 L 2.419 5.313 L 2.426 5.268 L 2.432 5.222 L 2.437 5.176 L 2.440 5.130 L 2.441 5.084 L 2.442 5.038 L 2.441 4.992 L 2.439 4.946 L 2.436 4.900 L 2.431 4.854 L 2.425 4.808 L 2.418 4.762 L 2.411 4.717 L 2.402 4.671 L 2.393 4.626 L 2.383 4.581 L 2.372 4.536 L 2.359 4.491 L 2.346 4.447 L 2.332 4.403 L 2.317 4.360 L 2.300 4.317 L 2.283 4.274 L 2.265 4.231 L 2.245 4.189 L 2.225 4.148 L 2.204 4.107 L 2.182 4.066 L 2.159 4.026 L 2.135 3.987 L 2.110 3.948 L 2.084 3.910 L 2.057 3.872 L 2.029 3.836 L 2.000 3.800 L 1.970 3.765 L 1.939 3.731 L 1.907 3.697 L 1.875 3.664 L 1.842 3.631 L 1.809 3.599 L 1.775 3.568 L 1.741 3.537 L 1.706 3.506 L 1.671 3.476 L 1.635 3.446 L 1.599 3.418 L 1.562 3.391 L 1.524 3.364 L 1.486 3.339 L 1.447 3.313 L 1.408 3.289 L 1.369 3.264 L 1.331 3.238 L 1.293 3.213 L 1.256 3.187 L 1.222 3.160 L 1.190 3.134 L 1.163 3.109 L 1.140 3.088 L 1.125 3.072 L 1.061 2.993"/>
</g>
</svg>