<svg xmlns="http://www.w3.org/2000/svg" viewBox="0 0 5.027 12.277" width="5.027" height="12.277">
<g fill="black" stroke="none">
<path d="M 1.243 1.656 C 1.445 1.612 1.645 1.739 1.691 1.943 C 1.736 2.145 1.608 2.345 1.406 2.390 C 1.004 2.480 0.602 2.388 0.370 2.124 C 0.140 1.863 0.100 1.494 0.208 1.179 C 0.343 0.784 0.679 0.626 0.953 0.473 C 1.957 -0.087 3.421 -0.257 4.260 0.562 C 4.711 1.003 4.843 1.697 4.781 2.405 C 4.715 3.188 4.304 3.958 3.785 4.594 C 3.266 5.231 2.589 5.609 2.047 5.860 L 0.904 6.176 L 0.755 6.169 L 0.509 5.971 L 0.528 5.603 L 0.704 5.452 L 1.449 5.365 C 2.613 5.461 3.973 6.435 4.617 7.746 C 5.002 8.529 5.113 9.437 4.964 10.241 C 4.736 11.482 3.513 12.154 2.392 12.261 C 1.836 12.312 1.287 12.244 0.832 12.020 C 0.383 11.795 0.015 11.357 0.000 10.812 C -0.006 10.605 0.158 10.433 0.366 10.425 C 0.574 10.420 0.745 10.584 0.751 10.791 C 0.758 11.035 0.894 11.210 1.166 11.346 C 2.089 11.803 4.002 11.310 4.226 10.105 C 4.343 9.469 4.249 8.705 3.941 8.076 C 3.428 7.029 2.168 6.178 1.387 6.114 L 1.047 6.129 L 1.009 6.139 L 1.036 6.126 L 1.100 6.078 L 1.153 6.020 L 1.211 5.888 L 1.198 5.675 L 1.092 5.522 L 1.002 5.461 L 0.902 5.433 L 0.806 5.431 L 1.730 5.178 C 2.223 4.950 2.792 4.622 3.202 4.118 C 3.649 3.569 3.985 2.901 4.032 2.343 C 4.081 1.780 3.949 1.307 3.736 1.099 C 3.275 0.652 2.094 0.696 1.319 1.129 L 0.919 1.422 C 0.851 1.624 0.849 1.745 1.243 1.656 Z"/>
</g>
</svg>
