<svg xmlns="http://www.w3.org/2000/svg" viewBox="0 0 2.713 6.662" width="2.713" height="6.662">
<g fill="black" stroke="none">
<path d="M 0.662 1.014 C 0.769 0.991 0.875 1.058 0.899 1.166 C 0.923 1.273 0.855 1.379 0.748 1.403 C 0.535 1.451 0.322 1.402 0.199 1.262 C 0.077 1.124 0.056 0.928 0.113 0.761 C 0.185 0.552 0.363 0.468 0.508 0.387 C 1.040 0.090 1.816 0.000 2.261 0.434 C 2.500 0.668 2.570 1.036 2.537 1.411 C 2.502 1.826 2.284 2.234 2.009 2.571 C 1.734 2.909 1.375 3.109 1.088 3.242 L 0.482 3.410 L 0.403 3.406 L 0.273 3.301 L 0.283 3.106 L 0.376 3.026 L 0.771 2.980 C 1.388 3.031 2.109 3.547 2.450 4.242 C 2.654 4.657 2.713 5.138 2.634 5.564 C 2.513 6.222 1.865 6.578 1.271 6.635 C 0.976 6.662 0.685 6.626 0.444 6.507 C 0.206 6.388 0.011 6.156 0.003 5.867 C 0.000 5.757 0.087 5.666 0.197 5.662 C 0.307 5.659 0.398 5.746 0.401 5.856 C 0.405 5.985 0.477 6.078 0.621 6.150 C 1.110 6.392 2.124 6.131 2.243 5.492 C 2.305 5.155 2.255 4.750 2.092 4.417 C 1.820 3.862 1.152 3.411 0.738 3.377 L 0.558 3.385 L 0.538 3.390 L 0.552 3.383 L 0.586 3.358 L 0.614 3.327 L 0.645 3.257 L 0.638 3.144 L 0.582 3.063 L 0.534 3.031 L 0.481 3.016 L 0.430 3.015 L 0.920 2.881 C 1.181 2.760 1.483 2.586 1.700 2.319 C 1.937 2.028 2.115 1.674 2.140 1.378 C 2.166 1.080 2.096 0.829 1.983 0.719 C 1.739 0.482 1.113 0.505 0.702 0.735 L 0.490 0.890 C 0.454 0.997 0.453 1.061 0.662 1.014 Z"/>
</g>
</svg>
