<svg xmlns="http://www.w3.org/2000/svg" viewBox="0 0 12.599 30.770" width="12.599" height="30.770">
<g fill="black" stroke="none">
<path d="M 3.116 4.150 C 3.622 4.041 4.124 4.358 4.237 4.869 C 4.351 5.375 4.029 5.876 3.523 5.990 C 2.516 6.217 1.509 5.985 0.927 5.323 C 0.350 4.670 0.251 3.744 0.520 2.954 C 0.861 1.965 1.702 1.568 2.388 1.185 C 4.904 -0.219 8.574 -0.645 10.678 1.407 C 11.808 2.514 12.139 4.254 11.983 6.028 C 11.818 7.990 10.787 9.919 9.486 11.513 C 8.186 13.111 6.488 14.057 5.131 14.686 L 2.265 15.481 L 1.892 15.462 L 1.277 14.965 L 1.324 14.043 L 1.764 13.665 L 3.632 13.447 C 6.550 13.688 9.959 16.129 11.572 19.415 C 12.536 21.378 12.815 23.652 12.442 25.667 C 11.870 28.778 8.805 30.462 5.996 30.731 C 4.601 30.859 3.225 30.689 2.085 30.126 C 0.960 29.563 0.038 28.466 0.000 27.100 C -0.014 26.579 0.397 26.149 0.917 26.130 C 1.438 26.116 1.868 26.527 1.882 27.048 C 1.901 27.658 2.242 28.097 2.922 28.438 C 5.235 29.582 10.030 28.348 10.593 25.326 C 10.886 23.733 10.649 21.817 9.879 20.243 C 8.592 17.618 5.434 15.485 3.476 15.325 L 2.625 15.362 L 2.530 15.386 L 2.596 15.353 L 2.757 15.235 L 2.889 15.088 L 3.036 14.757 L 3.003 14.223 L 2.738 13.840 L 2.511 13.688 L 2.260 13.617 L 2.019 13.613 L 4.336 12.979 C 5.571 12.407 6.999 11.584 8.025 10.321 C 9.146 8.945 9.987 7.271 10.106 5.872 C 10.229 4.462 9.898 3.275 9.363 2.755 C 8.209 1.634 5.249 1.743 3.306 2.831 L 2.303 3.564 C 2.133 4.070 2.128 4.372 3.116 4.150 Z"/>
</g>
</svg>
