<svg xmlns="http://www.w3.org/2000/svg" viewBox="0 0 3.077 6.457" width="3.077" height="6.457">
<g fill="black" stroke="none">
<path d="M 0.016 1.442 C 0.000 1.333 0.076 1.233 0.185 1.217 C 0.293 1.201 0.394 1.277 0.410 1.386 C 0.503 2.035 0.659 2.257 0.759 2.531 L 0.803 2.974 L 0.803 3.677 L 0.628 4.728 L 0.514 5.758 L 0.487 6.158 L 0.486 6.203 L 0.472 6.157 L 0.444 6.110 L 0.350 6.046 L 0.207 6.054 L 0.142 6.102 L 0.109 6.152 L 0.099 6.180 L 0.182 5.102 L 0.343 4.024 C 0.520 2.968 0.706 1.960 1.021 1.184 C 1.156 0.851 1.286 0.544 1.485 0.320 C 1.738 0.035 2.135 0.000 2.424 0.159 C 2.716 0.319 2.941 0.630 3.047 1.000 C 3.077 1.106 3.016 1.216 2.910 1.246 C 2.804 1.276 2.694 1.215 2.664 1.109 C 2.583 0.830 2.409 0.605 2.233 0.508 C 2.069 0.418 1.926 0.424 1.783 0.585 L 1.390 1.334 C 1.098 2.053 0.912 3.041 0.736 4.090 L 0.579 5.142 L 0.494 6.232 L 0.481 6.293 L 0.466 6.329 L 0.359 6.422 C 0.265 6.457 0.153 6.388 0.125 6.349 L 0.088 6.234 L 0.117 5.723 L 0.235 4.661 L 0.406 3.646 L 0.405 2.976 L 0.384 2.667 C 0.307 2.456 0.116 2.143 0.016 1.442 Z"/>
</g>
</svg>
