<svg xmlns="http://www.w3.org/2000/svg" viewBox="0 0 1.690 3.538" width="1.690" height="3.538">
<g fill="none" stroke="black" stroke-width="0.071" stroke-linecap="round" stroke-linejoin="round">
<path d="M 1.573 0.546 L 1.558 0.510 L 1.555 0.502 L 1.550 0.491 L 1.545 0.478 L 1.539 0.463 L 1.532 0.447 L 1.525 0.432 L 1.518 0.416 L 1.511 0.400 L 1.503 0.384 L 1.494 0.369 L 1.486 0.353 L 1.477 0.338 L 1.467 0.323 L 1.457 0.309 L 1.447 0.295 L 1.436 0.281 L 1.425 0.267 L 1.413 0.254 L 1.401 0.241 L 1.389 0.229 L 1.376 0.217 L 1.363 0.205 L 1.349 0.194 L 1.335 0.184 L 1.321 0.174 L 1.306 0.165 L 1.291 0.156 L 1.275 0.148 L 1.260 0.141 L 1.243 0.135 L 1.227 0.130 L 1.210 0.125 L 1.193 0.122 L 1.176 0.119 L 1.158 0.117 L 1.141 0.116 L 1.124 0.116 L 1.106 0.116 L 1.089 0.118 L 1.072 0.120 L 1.055 0.123 L 1.038 0.127 L 1.021 0.132 L 1.005 0.138 L 0.989 0.145 L 0.974 0.153 L 0.959 0.161 L 0.945 0.171 L 0.931 0.182 L 0.919 0.194 L 0.907 0.206 L 0.895 0.220 L 0.884 0.233 L 0.874 0.247 L 0.863 0.262 L 0.853 0.276 L 0.844 0.291 L 0.834 0.306 L 0.825 0.321 L 0.816 0.336 L 0.807 0.351 L 0.799 0.366 L 0.790 0.382 L 0.781 0.397 L 0.773 0.413 L 0.765 0.428 L 0.756 0.444 L 0.748 0.460 L 0.740 0.475 L 0.732 0.491 L 0.724 0.507 L 0.717 0.523 L 0.710 0.539 L 0.703 0.555 L 0.696 0.571 L 0.689 0.588 L 0.683 0.604 L 0.676 0.620 L 0.670 0.637 L 0.663 0.653 L 0.657 0.670 L 0.650 0.686 L 0.644 0.703 L 0.637 0.719 L 0.631 0.735 L 0.624 0.752 L 0.618 0.768 L 0.612 0.785 L 0.605 0.801 L 0.599 0.818 L 0.593 0.834 L 0.588 0.851 L 0.582 0.868 L 0.577 0.885 L 0.571 0.902 L 0.566 0.918 L 0.561 0.935 L 0.556 0.952 L 0.552 0.969 L 0.547 0.986 L 0.542 1.003 L 0.537 1.020 L 0.532 1.037 L 0.527 1.054 L 0.522 1.071 L 0.517 1.088 L 0.512 1.105 L 0.508 1.122 L 0.503 1.139 L 0.498 1.156 L 0.493 1.173 L 0.488 1.190 L 0.483 1.207 L 0.478 1.224 L 0.473 1.240 L 0.467 1.257 L 0.461 1.273 L 0.455 1.289 L 0.447 1.304 L 0.438 1.318 L 0.429 1.331 L 0.419 1.342 L 0.409 1.351 L 0.400 1.359 L 0.394 1.364 L 0.361 1.385"/>
<path d="M 0.105 0.767 L 0.114 0.813 L 0.116 0.823 L 0.119 0.837 L 0.123 0.854 L 0.127 0.872 L 0.131 0.892 L 0.135 0.912 L 0.140 0.933 L 0.144 0.953 L 0.149 0.974 L 0.154 0.994 L 0.160 1.015 L 0.166 1.035 L 0.172 1.055 L 0.178 1.076 L 0.185 1.096 L 0.191 1.116 L 0.198 1.136 L 0.205 1.156 L 0.213 1.176 L 0.220 1.195 L 0.228 1.215 L 0.236 1.234 L 0.246 1.253 L 0.255 1.271 L 0.266 1.289 L 0.277 1.306 L 0.289 1.323 L 0.301 1.340 L 0.313 1.356 L 0.324 1.372 L 0.334 1.389 L 0.342 1.407 L 0.348 1.426 L 0.352 1.445 L 0.354 1.465 L 0.354 1.486 L 0.354 1.507 L 0.353 1.528 L 0.352 1.549 L 0.351 1.570 L 0.349 1.591 L 0.347 1.612 L 0.346 1.633 L 0.344 1.654 L 0.342 1.675 L 0.341 1.696 L 0.339 1.717 L 0.337 1.738 L 0.336 1.760 L 0.334 1.781 L 0.332 1.802 L 0.331 1.823 L 0.329 1.844 L 0.327 1.865 L 0.326 1.886 L 0.324 1.907 L 0.322 1.928 L 0.320 1.949 L 0.319 1.970 L 0.317 1.992 L 0.315 2.013 L 0.312 2.034 L 0.310 2.055 L 0.307 2.076 L 0.304 2.097 L 0.301 2.117 L 0.298 2.138 L 0.295 2.159 L 0.291 2.180 L 0.288 2.201 L 0.285 2.222 L 0.281 2.243 L 0.278 2.264 L 0.275 2.285 L 0.271 2.306 L 0.268 2.327 L 0.265 2.347 L 0.261 2.368 L 0.258 2.389 L 0.255 2.410 L 0.251 2.431 L 0.248 2.452 L 0.245 2.473 L 0.241 2.494 L 0.238 2.515 L 0.235 2.536 L 0.231 2.556 L 0.228 2.577 L 0.225 2.598 L 0.222 2.619 L 0.219 2.640 L 0.215 2.661 L 0.213 2.682 L 0.210 2.703 L 0.207 2.724 L 0.205 2.745 L 0.202 2.766 L 0.200 2.787 L 0.197 2.808 L 0.195 2.829 L 0.193 2.850 L 0.190 2.871 L 0.188 2.892 L 0.186 2.913 L 0.183 2.934 L 0.181 2.955 L 0.179 2.976 L 0.176 2.997 L 0.174 3.018 L 0.172 3.039 L 0.170 3.061 L 0.168 3.082 L 0.166 3.103 L 0.165 3.124 L 0.163 3.145 L 0.162 3.166 L 0.161 3.187 L 0.160 3.208 L 0.159 3.229 L 0.158 3.250 L 0.157 3.270 L 0.156 3.289 L 0.155 3.306 L 0.154 3.321 L 0.154 3.331 L 0.151 3.377"/>
</g>
</svg>