<svg xmlns="http://www.w3.org/2000/svg" viewBox="0 0 3.975 8.322" width="3.975" height="8.322">
<g fill="black" stroke="none">
<path d="M 0.003 1.800 C -0.018 1.657 0.081 1.526 0.224 1.505 C 0.365 1.485 0.497 1.584 0.518 1.726 C 0.639 2.575 0.843 2.865 0.974 3.223 L 1.032 3.802 L 1.032 4.721 L 0.803 6.095 L 0.654 7.442 L 0.618 7.965 L 0.617 8.023 L 0.599 7.963 L 0.562 7.902 L 0.439 7.818 L 0.252 7.829 L 0.167 7.891 L 0.124 7.957 L 0.111 7.993 L 0.220 6.584 L 0.430 5.175 C 0.662 3.794 0.905 2.477 1.317 1.462 C 1.493 1.027 1.663 0.626 1.923 0.333 C 2.254 -0.040 2.773 -0.085 3.151 0.122 C 3.532 0.332 3.826 0.738 3.965 1.222 C 4.004 1.360 3.924 1.504 3.786 1.543 C 3.647 1.583 3.504 1.503 3.464 1.364 C 3.358 1.000 3.131 0.705 2.901 0.579 C 2.687 0.461 2.500 0.469 2.313 0.679 L 1.799 1.658 C 1.417 2.598 1.174 3.890 0.944 5.261 L 0.739 6.636 L 0.628 8.061 L 0.611 8.141 L 0.591 8.188 L 0.451 8.310 C 0.328 8.355 0.182 8.265 0.145 8.214 L 0.097 8.064 L 0.135 7.396 L 0.289 6.008 L 0.513 4.681 L 0.511 3.805 L 0.484 3.401 C 0.383 3.125 0.133 2.716 0.003 1.800 Z"/>
</g>
</svg>
