<svg xmlns="http://www.w3.org/2000/svg" viewBox="0 0 13.754 21.155" width="13.754" height="21.155">
<g fill="black" stroke="none">
<path d="M 2.113 2.862 C 2.196 2.608 2.471 2.470 2.724 2.553 C 2.979 2.635 3.118 2.910 3.033 3.163 C 2.469 4.885 1.909 6.043 1.540 7.560 C 0.985 9.826 0.978 12.976 0.968 15.802 L 1.051 19.769 L 1.143 20.248 L 1.165 20.299 L 1.138 20.267 L 1.033 20.207 L 0.886 20.190 L 0.776 20.217 L 0.707 20.262 L 0.858 19.917 C 1.212 18.830 1.243 16.646 1.768 14.362 C 2.303 12.025 3.152 9.766 4.171 7.728 C 5.677 4.722 7.483 2.261 9.283 0.926 C 10.137 0.291 11.017 -0.098 11.857 0.019 C 12.693 0.133 13.378 0.833 13.728 1.852 C 13.816 2.105 13.680 2.383 13.427 2.467 C 13.174 2.555 12.899 2.421 12.812 2.168 C 12.452 1.116 11.936 0.845 11.216 1.008 C 10.621 1.142 9.864 1.621 9.076 2.371 C 7.828 3.552 6.544 5.327 5.414 7.438 C 4.261 9.591 3.293 12.044 2.712 14.579 C 2.213 16.748 2.218 18.864 1.780 20.217 L 1.481 20.846 L 0.975 21.153 C 0.589 21.192 0.362 20.883 0.265 20.662 L 0.086 19.869 L 0.000 15.797 C 0.007 12.964 0.000 9.776 0.599 7.329 C 0.992 5.715 1.566 4.527 2.113 2.862 Z"/>
</g>
</svg>
