<svg xmlns="http://www.w3.org/2000/svg" viewBox="0 0 5.701 8.393" width="5.701" height="8.393">
<g fill="black" stroke="none">
<path d="M 0.000 4.395 C -0.003 4.207 0.145 4.051 0.333 4.046 C 0.521 4.043 0.677 4.191 0.682 4.379 C 0.697 5.097 0.942 5.962 1.120 6.749 L 1.270 7.949 L 1.215 8.239 C 1.161 8.330 0.911 8.441 0.769 8.372 L 0.578 8.159 L 0.473 7.655 L 0.415 5.458 C 0.453 4.494 0.641 3.523 0.964 2.682 C 1.333 1.720 2.053 1.029 2.863 0.603 C 3.667 0.181 4.557 0.000 5.359 0.000 C 5.547 0.000 5.701 0.152 5.701 0.340 C 5.701 0.528 5.549 0.680 5.361 0.680 C 3.942 0.682 2.198 1.366 1.600 2.926 C 1.308 3.685 1.130 4.591 1.096 5.485 L 1.149 7.574 L 1.209 7.902 L 1.198 7.882 L 1.157 7.827 L 1.111 7.786 L 1.029 7.745 L 0.909 7.726 L 0.786 7.754 L 0.699 7.807 L 0.624 7.902 L 0.595 7.983 L 0.455 6.897 C 0.282 6.133 0.021 5.239 0.000 4.395 Z"/>
</g>
</svg>
