<svg xmlns="http://www.w3.org/2000/svg" viewBox="0 0 3.337 4.938" width="3.337" height="4.938">
<g fill="black" stroke="none">
<path d="M 0.002 2.571 C 0.000 2.461 0.087 2.370 0.197 2.367 C 0.307 2.365 0.398 2.452 0.401 2.562 C 0.410 2.982 0.553 3.488 0.657 3.948 L 0.745 4.650 L 0.713 4.820 C 0.681 4.873 0.535 4.938 0.452 4.898 L 0.340 4.773 L 0.279 4.478 L 0.245 3.193 C 0.267 2.629 0.377 2.061 0.566 1.569 C 0.782 1.006 1.203 0.602 1.677 0.353 C 2.147 0.106 2.668 0.000 3.137 0.000 C 3.247 0.000 3.337 0.089 3.337 0.199 C 3.337 0.309 3.248 0.398 3.138 0.398 C 2.308 0.399 1.288 0.799 0.938 1.712 C 0.767 2.156 0.663 2.686 0.643 3.209 L 0.674 4.431 L 0.709 4.623 L 0.703 4.611 L 0.679 4.579 L 0.652 4.555 L 0.604 4.531 L 0.534 4.520 L 0.462 4.536 L 0.411 4.567 L 0.367 4.623 L 0.350 4.670 L 0.268 4.035 C 0.167 3.588 0.014 3.065 0.002 2.571 Z"/>
</g>
</svg>
