<svg xmlns="http://www.w3.org/2000/svg" viewBox="0 0 9.963 20.858" width="9.963" height="20.858">
<g fill="black" stroke="none">
<path d="M 0.007 4.511 C -0.045 4.153 0.204 3.826 0.561 3.773 C 0.915 3.721 1.245 3.970 1.298 4.327 C 1.603 6.453 2.114 7.181 2.441 8.079 L 2.585 9.530 L 2.585 11.833 L 2.012 15.277 L 1.639 18.652 L 1.550 19.962 L 1.547 20.110 L 1.501 19.959 L 1.409 19.805 L 1.101 19.595 L 0.633 19.621 L 0.420 19.779 L 0.312 19.943 L 0.279 20.034 L 0.551 16.502 L 1.078 12.970 C 1.658 9.510 2.268 6.208 3.300 3.665 C 3.742 2.574 4.168 1.568 4.820 0.834 C 5.649 -0.099 6.950 -0.214 7.897 0.307 C 8.853 0.831 9.591 1.850 9.938 3.062 C 10.036 3.410 9.836 3.770 9.489 3.868 C 9.142 3.967 8.781 3.767 8.683 3.419 C 8.418 2.505 7.847 1.768 7.271 1.450 C 6.733 1.155 6.265 1.175 5.796 1.703 L 4.509 4.157 C 3.552 6.512 2.943 9.750 2.366 13.187 L 1.852 16.633 L 1.573 20.205 L 1.530 20.405 L 1.481 20.522 L 1.131 20.827 C 0.823 20.942 0.456 20.716 0.364 20.588 L 0.243 20.211 L 0.338 18.537 L 0.724 15.057 L 1.285 11.732 L 1.281 9.537 L 1.213 8.524 C 0.960 7.833 0.335 6.807 0.007 4.511 Z"/>
</g>
</svg>
