<svg xmlns="http://www.w3.org/2000/svg" viewBox="0 0 14.288 21.037" width="14.288" height="21.037">
<g fill="black" stroke="none">
<path d="M 0.000 11.015 C -0.009 10.544 0.364 10.154 0.835 10.141 C 1.307 10.132 1.697 10.505 1.709 10.976 C 1.748 12.776 2.361 14.944 2.806 16.914 L 3.183 19.922 L 3.046 20.650 C 2.909 20.877 2.284 21.156 1.928 20.985 L 1.448 20.449 L 1.187 19.185 L 1.041 13.680 C 1.135 11.263 1.607 8.830 2.416 6.722 C 3.342 4.310 5.145 2.579 7.176 1.512 C 9.190 0.454 11.422 0.000 13.431 0.000 C 13.903 0.000 14.288 0.381 14.288 0.853 C 14.288 1.324 13.907 1.705 13.436 1.705 C 9.880 1.709 5.510 3.423 4.010 7.335 C 3.278 9.237 2.832 11.508 2.746 13.748 L 2.879 18.984 L 3.029 19.806 L 3.003 19.755 L 2.900 19.618 L 2.785 19.515 L 2.579 19.412 L 2.279 19.365 L 1.971 19.434 L 1.752 19.566 L 1.564 19.806 L 1.491 20.008 L 1.140 17.287 C 0.707 15.372 0.051 13.131 0.000 11.015 Z"/>
</g>
</svg>
