<svg xmlns="http://www.w3.org/2000/svg" viewBox="0 0 1.454 12.270" width="1.454" height="12.270">
<g fill="black" stroke="none">
<path d="M 0.192 0.760 C -0.000 0.638 -0.058 0.385 0.064 0.190 C 0.186 -0.000 0.441 -0.058 0.634 0.064 C 0.926 0.248 0.980 0.553 1.011 0.850 L 1.032 2.013 L 0.974 7.869 L 1.100 10.512 L 1.233 11.333 L 1.299 11.530 L 1.262 11.507 C 1.455 11.629 1.513 11.884 1.391 12.077 C 1.268 12.270 1.013 12.328 0.821 12.207 C 0.545 12.031 0.499 11.793 0.433 11.540 L 0.209 9.687 C 0.070 7.278 0.159 4.063 0.207 1.994 L 0.190 0.939 L 0.149 0.729 L 0.192 0.760 Z"/>
</g>
</svg>
