<svg xmlns="http://www.w3.org/2000/svg" viewBox="0 0 3.645 30.753" width="3.645" height="30.753">
<g fill="black" stroke="none">
<path d="M 0.482 1.906 C -0.001 1.599 -0.146 0.966 0.160 0.477 C 0.467 -0.001 1.106 -0.146 1.589 0.160 C 2.321 0.623 2.457 1.386 2.535 2.129 L 2.586 5.044 L 2.441 19.722 L 2.758 26.346 L 3.090 28.404 L 3.257 28.897 L 3.163 28.840 C 3.646 29.147 3.792 29.786 3.485 30.269 C 3.179 30.752 2.540 30.898 2.057 30.596 C 1.365 30.155 1.251 29.557 1.085 28.923 L 0.524 24.279 C 0.176 18.241 0.399 10.183 0.519 4.997 L 0.477 2.353 L 0.373 1.828 L 0.482 1.906 Z"/>
</g>
</svg>
