<svg xmlns="http://www.w3.org/2000/svg" viewBox="0 0 0.758 5.975" width="0.758" height="5.975">
<g fill="black" stroke="none">
<path d="M 0.121 0.395 C 0.028 0.336 0.000 0.214 0.059 0.120 C 0.118 0.028 0.241 0.000 0.334 0.059 C 0.475 0.148 0.501 0.295 0.516 0.438 L 0.526 0.999 L 0.498 3.824 L 0.559 5.099 L 0.623 5.495 L 0.655 5.590 L 0.637 5.579 C 0.730 5.638 0.758 5.761 0.699 5.854 C 0.640 5.947 0.517 5.975 0.424 5.917 C 0.291 5.832 0.269 5.717 0.237 5.595 L 0.129 4.701 C 0.062 3.539 0.105 1.988 0.128 0.990 L 0.120 0.481 L 0.100 0.380 L 0.121 0.395 Z"/>
</g>
</svg>
