<svg xmlns="http://www.w3.org/2000/svg" viewBox="0 0 17.524 38.114" width="17.524" height="38.114">
<g fill="black" stroke="none">
<path d="M 16.134 7.691 C 16.176 7.310 16.519 7.033 16.904 7.075 C 17.286 7.117 17.562 7.460 17.520 7.845 C 17.426 8.727 16.641 9.347 15.605 9.736 L 9.489 11.525 L 5.204 12.946 C 3.902 13.548 3.384 14.304 3.335 15.039 C 3.300 15.495 3.363 15.943 3.692 16.503 C 4.511 17.900 6.811 19.597 9.090 21.418 L 12.402 24.124 C 13.347 24.985 14.103 25.846 14.537 26.760 C 14.887 27.499 14.870 28.290 14.670 28.934 C 14.264 30.236 12.959 31.000 11.506 31.385 C 9.258 31.983 6.468 31.850 4.098 31.087 C 2.929 30.712 1.875 30.184 1.105 29.431 C 0.342 28.686 -0.127 27.635 0.027 26.519 C 0.079 26.137 0.433 25.867 0.814 25.923 C 1.196 25.976 1.462 26.326 1.409 26.708 C 1.290 27.572 1.763 28.314 2.722 28.938 C 4.263 29.939 6.780 30.443 9.062 30.338 L 11.992 29.746 C 12.735 29.424 13.190 28.990 13.337 28.521 L 13.277 27.359 L 11.464 25.157 L 8.222 22.510 C 5.960 20.704 3.573 19.055 2.488 17.210 C 2.019 16.408 1.896 15.614 1.942 14.941 C 2.036 13.636 3.006 12.424 4.620 11.679 L 9.111 10.184 L 15.115 8.430 L 15.990 7.992 L 16.134 7.691 Z"/>
<path d="M 9.220 0.697 C 9.223 0.312 9.535 0.000 9.920 0.000 C 10.305 0.004 10.617 0.315 10.617 0.700 L 10.617 2.314 L 10.613 3.679 L 10.459 5.367 L 9.748 11.182 L 8.887 20.396 L 8.586 25.832 L 8.492 30.506 L 8.495 35.113 L 8.628 37.287 C 8.702 37.665 8.453 38.029 8.075 38.103 C 7.693 38.173 7.329 37.924 7.259 37.546 L 7.098 35.138 L 7.095 30.495 L 7.193 25.776 L 7.494 20.291 L 8.362 11.024 L 9.073 5.216 L 9.223 3.567 L 9.220 2.321 L 9.220 0.697 Z"/>
</g>
</svg>
