<svg xmlns="http://www.w3.org/2000/svg" viewBox="0 0 6.992 15.207" width="6.992" height="15.207">
<g fill="black" stroke="none">
<path d="M 6.437 3.069 C 6.454 2.916 6.591 2.806 6.744 2.823 C 6.897 2.840 7.007 2.976 6.990 3.130 C 6.952 3.482 6.640 3.729 6.226 3.884 L 3.786 4.598 L 2.076 5.165 C 1.557 5.405 1.350 5.707 1.331 6.000 C 1.317 6.182 1.342 6.361 1.473 6.584 C 1.800 7.142 2.718 7.819 3.627 8.545 L 4.948 9.625 C 5.325 9.969 5.627 10.312 5.800 10.677 C 5.940 10.971 5.933 11.287 5.853 11.544 C 5.691 12.064 5.170 12.368 4.591 12.522 C 3.694 12.761 2.581 12.708 1.635 12.403 C 1.169 12.254 0.748 12.043 0.441 11.743 C 0.136 11.445 -0.051 11.026 0.011 10.580 C 0.032 10.428 0.173 10.321 0.325 10.343 C 0.477 10.364 0.583 10.504 0.562 10.656 C 0.515 11.001 0.703 11.297 1.086 11.546 C 1.701 11.945 2.705 12.146 3.616 12.104 L 4.785 11.868 C 5.081 11.740 5.262 11.567 5.321 11.379 L 5.297 10.916 L 4.574 10.037 L 3.280 8.981 C 2.378 8.260 1.426 7.603 0.993 6.866 C 0.805 6.547 0.756 6.230 0.775 5.961 C 0.812 5.440 1.199 4.957 1.843 4.660 L 3.635 4.063 L 6.031 3.363 L 6.380 3.189 L 6.437 3.069 Z"/>
<path d="M 3.678 0.278 C 3.680 0.124 3.804 0.000 3.958 0.000 C 4.111 0.001 4.236 0.126 4.236 0.279 L 4.236 0.923 L 4.234 1.468 L 4.173 2.141 L 3.889 4.461 L 3.546 8.137 L 3.426 10.307 L 3.388 12.171 L 3.389 14.009 L 3.442 14.877 C 3.472 15.028 3.373 15.173 3.222 15.202 C 3.070 15.230 2.924 15.131 2.896 14.980 L 2.832 14.019 L 2.831 12.167 L 2.870 10.284 L 2.990 8.096 L 3.336 4.398 L 3.620 2.081 L 3.680 1.423 L 3.678 0.926 L 3.678 0.278 Z"/>
</g>
</svg>
