<svg xmlns="http://www.w3.org/2000/svg" viewBox="0 0 5.053 10.904" width="5.053" height="10.904">
<g fill="black" stroke="none">
<path d="M 4.645 2.197 C 4.657 2.088 4.755 2.009 4.865 2.021 C 4.974 2.033 5.053 2.131 5.041 2.241 C 5.014 2.493 4.790 2.670 4.494 2.781 L 2.747 3.292 L 1.523 3.698 C 1.151 3.870 1.003 4.086 0.989 4.296 C 0.979 4.426 0.997 4.554 1.091 4.714 C 1.325 5.113 1.982 5.598 2.633 6.118 L 3.579 6.891 C 3.849 7.137 4.065 7.383 4.189 7.644 C 4.289 7.855 4.284 8.081 4.227 8.265 C 4.111 8.637 3.738 8.855 3.323 8.965 C 2.681 9.136 1.884 9.098 1.207 8.880 C 0.873 8.773 0.572 8.622 0.352 8.407 C 0.134 8.194 0.000 7.894 0.044 7.575 C 0.059 7.466 0.160 7.389 0.269 7.405 C 0.378 7.420 0.454 7.520 0.439 7.629 C 0.405 7.876 0.540 8.088 0.814 8.266 C 1.254 8.552 1.973 8.696 2.625 8.666 L 3.462 8.497 C 3.674 8.405 3.804 8.281 3.846 8.147 L 3.829 7.815 L 3.311 7.186 L 2.385 6.430 C 1.739 5.914 1.057 5.443 0.747 4.916 C 0.613 4.687 0.578 4.460 0.591 4.268 C 0.618 3.895 0.895 3.549 1.356 3.336 L 2.639 2.909 L 4.354 2.408 L 4.604 2.283 L 4.645 2.197 Z"/>
<path d="M 2.670 0.199 C 2.671 0.089 2.760 0.000 2.870 0.000 C 2.980 0.001 3.069 0.090 3.069 0.200 L 3.069 0.661 L 3.068 1.051 L 3.024 1.533 L 2.821 3.194 L 2.575 5.826 L 2.489 7.379 L 2.462 8.714 L 2.463 10.030 L 2.501 10.651 C 2.522 10.759 2.451 10.863 2.343 10.884 C 2.234 10.904 2.130 10.833 2.110 10.725 L 2.064 10.037 L 2.063 8.711 L 2.091 7.363 L 2.177 5.796 L 2.425 3.149 L 2.628 1.490 L 2.671 1.019 L 2.670 0.663 L 2.670 0.199 Z"/>
</g>
</svg>
